ISO-10303-21;
HEADER;
/* Generated by software containing ST-Developer
 * from STEP Tools, Inc. (www.steptools.com) 
 */

FILE_DESCRIPTION(
/* description */ (''),
/* implementation_level */ '2;1');

FILE_NAME(
/* name */ 'Barrel_1_Ver3.step',
/* time_stamp */ '2026-09-24T12:06:32+05:30',
/* author */ (''),
/* organization */ (''),
/* preprocessor_version */ 'ST-DEVELOPER v20.2',
/* originating_system */ 'Autodesk Translation Framework v15.15.0.0',
/* authorisation */ '');

FILE_SCHEMA (('AUTOMOTIVE_DESIGN { 1 0 10303 214 3 1 1 }'));
ENDSEC;

DATA;
#10=MECHANICAL_DESIGN_GEOMETRIC_PRESENTATION_REPRESENTATION('',(#35,#36),
#1172);
#11=SHAPE_REPRESENTATION_RELATIONSHIP('SRR','None',#1179,#12);
#12=ADVANCED_BREP_SHAPE_REPRESENTATION('',(#37,#38),#1171);
#13=B_SPLINE_SURFACE_WITH_KNOTS('',3,3,((#978,#979,#980,#981,#982),(#983,
#984,#985,#986,#987),(#988,#989,#990,#991,#992),(#993,#994,#995,#996,#997),
(#998,#999,#1000,#1001,#1002),(#1003,#1004,#1005,#1006,#1007),(#1008,#1009,
#1010,#1011,#1012),(#1013,#1014,#1015,#1016,#1017)),.UNSPECIFIED.,.F.,.F.,
 .F.,(4,1,1,1,1,4),(4,1,4),(0.,0.285714285714286,0.571428571428571,0.714285714285714,
0.857142857142857,1.),(-2.22044604925031E-16,0.367469598336147,0.857429062784342),
 .UNSPECIFIED.);
#14=B_SPLINE_SURFACE_WITH_KNOTS('',3,3,((#1023,#1024,#1025,#1026,#1027),
(#1028,#1029,#1030,#1031,#1032),(#1033,#1034,#1035,#1036,#1037),(#1038,
#1039,#1040,#1041,#1042),(#1043,#1044,#1045,#1046,#1047),(#1048,#1049,#1050,
#1051,#1052),(#1053,#1054,#1055,#1056,#1057),(#1058,#1059,#1060,#1061,#1062)),
 .UNSPECIFIED.,.F.,.F.,.F.,(4,1,1,1,1,4),(4,1,4),(0.,0.285714285714286,
0.571428571428571,0.714285714285714,0.857142857142857,1.),(-6.72141911731971E-16,
0.367469598336146,0.857429062784342),.UNSPECIFIED.);
#15=B_SPLINE_SURFACE_WITH_KNOTS('',3,3,((#1068,#1069,#1070,#1071,#1072),
(#1073,#1074,#1075,#1076,#1077),(#1078,#1079,#1080,#1081,#1082),(#1083,
#1084,#1085,#1086,#1087),(#1088,#1089,#1090,#1091,#1092),(#1093,#1094,#1095,
#1096,#1097),(#1098,#1099,#1100,#1101,#1102),(#1103,#1104,#1105,#1106,#1107)),
 .UNSPECIFIED.,.F.,.F.,.F.,(4,1,1,1,1,4),(4,1,4),(0.,0.285714285714286,
0.571428571428571,0.714285714285714,0.857142857142857,1.),(-2.8556645256487E-16,
0.367469604363806,0.857429076848881),.UNSPECIFIED.);
#16=B_SPLINE_SURFACE_WITH_KNOTS('',3,3,((#1120,#1121,#1122,#1123,#1124),
(#1125,#1126,#1127,#1128,#1129),(#1130,#1131,#1132,#1133,#1134),(#1135,
#1136,#1137,#1138,#1139),(#1140,#1141,#1142,#1143,#1144),(#1145,#1146,#1147,
#1148,#1149),(#1150,#1151,#1152,#1153,#1154),(#1155,#1156,#1157,#1158,#1159)),
 .UNSPECIFIED.,.F.,.F.,.F.,(4,1,1,1,1,4),(4,1,4),(0.,0.285714285714286,
0.571428571428571,0.714285714285714,0.857142857142857,1.),(0.,0.367469604363806,
0.857429076848881),.UNSPECIFIED.);
#17=B_SPLINE_CURVE_WITH_KNOTS('',3,(#713,#714,#715,#716,#717,#718,#719,
#720,#721,#722,#723,#724,#725,#726,#727,#728,#729,#730),.UNSPECIFIED.,.F.,
 .F.,(4,2,2,2,2,2,2,2,4),(0.,0.127497605618564,0.254995211237129,0.38138138439295,
0.507767557548772,0.634153730065351,0.76053990258193,0.888037507946409,
1.01553511331089),.UNSPECIFIED.);
#18=B_SPLINE_CURVE_WITH_KNOTS('',3,(#731,#732,#733,#734,#735,#736,#737,
#738,#739,#740,#741,#742,#743,#744,#745,#746,#747,#748),.UNSPECIFIED.,.F.,
 .F.,(4,2,2,2,2,2,2,2,4),(1.01553511331089,1.14303271867537,1.27053032403985,
1.39691649655642,1.523302669073,1.64968884222883,1.77607501538465,1.90357262100321,
2.03107022662178),.UNSPECIFIED.);
#19=B_SPLINE_CURVE_WITH_KNOTS('',3,(#785,#786,#787,#788,#789,#790,#791,
#792,#793,#794,#795,#796,#797,#798,#799,#800),.UNSPECIFIED.,.F.,.F.,(4,
2,2,2,2,2,2,4),(0.,0.0018869307438624,0.00474489371108915,0.0107771850250012,
0.0251873825583021,0.0542412037094014,0.0853876471761899,0.122430799833031),
 .UNSPECIFIED.);
#20=B_SPLINE_CURVE_WITH_KNOTS('',3,(#805,#806,#807,#808,#809,#810,#811,
#812,#813,#814,#815,#816,#817,#818,#819,#820),.UNSPECIFIED.,.F.,.F.,(4,
2,2,2,2,2,2,4),(0.,0.0474513506859929,0.162498934829002,0.250789299137288,
0.316247926367906,0.34461740960102,0.355887686069973,0.365407602620871),
 .UNSPECIFIED.);
#21=B_SPLINE_CURVE_WITH_KNOTS('',3,(#829,#830,#831,#832,#833,#834,#835,
#836,#837,#838,#839,#840,#841,#842,#843,#844),.UNSPECIFIED.,.F.,.F.,(4,
2,2,2,2,2,2,4),(0.,0.00188693064081644,0.00474489345827513,0.0107771846203776,
0.0251873845694625,0.0542412204457797,0.0853876735042129,0.122430769332206),
 .UNSPECIFIED.);
#22=B_SPLINE_CURVE_WITH_KNOTS('',3,(#849,#850,#851,#852,#853,#854,#855,
#856,#857,#858,#859,#860,#861,#862,#863,#864),.UNSPECIFIED.,.F.,.F.,(4,
2,2,2,2,2,2,4),(0.,0.0474513450782328,0.162498914778172,0.250789305090412,
0.316248043778419,0.344617583055502,0.355887880668458,0.365407813760176),
 .UNSPECIFIED.);
#23=B_SPLINE_CURVE_WITH_KNOTS('',3,(#874,#875,#876,#877,#878,#879,#880,
#881,#882,#883,#884,#885,#886,#887,#888,#889),.UNSPECIFIED.,.F.,.F.,(4,
2,2,2,2,2,2,4),(0.,0.00188693074386158,0.00474489371108455,0.0107771850249423,
0.0251873825585165,0.0542412037121753,0.0853876471801069,0.122430799822896),
 .UNSPECIFIED.);
#24=B_SPLINE_CURVE_WITH_KNOTS('',3,(#894,#895,#896,#897,#898,#899,#900,
#901,#902,#903,#904,#905,#906,#907,#908,#909),.UNSPECIFIED.,.F.,.F.,(4,
2,2,2,2,2,2,4),(0.,0.0474513431239373,0.162498907881724,0.250789301506224,
0.316248067867445,0.344617620855189,0.35588792373571,0.365407861026157),
 .UNSPECIFIED.);
#25=B_SPLINE_CURVE_WITH_KNOTS('',3,(#917,#918,#919,#920,#921,#922,#923,
#924,#925,#926,#927,#928,#929,#930,#931,#932),.UNSPECIFIED.,.F.,.F.,(4,
2,2,2,2,2,2,4),(0.,0.00188693084895771,0.00474489398941887,0.0107771856608777,
0.0251873832928718,0.0542412015366713,0.0853876410748329,0.122430801043467),
 .UNSPECIFIED.);
#26=B_SPLINE_CURVE_WITH_KNOTS('',3,(#937,#938,#939,#940,#941,#942,#943,
#944,#945,#946,#947,#948,#949,#950,#951,#952),.UNSPECIFIED.,.F.,.F.,(4,
2,2,2,2,2,2,4),(0.,0.0474513442888388,0.162498912100468,0.25078929694449,
0.316248033590868,0.344617571516073,0.355887868769421,0.365407801703473),
 .UNSPECIFIED.);
#27=B_SPLINE_CURVE_WITH_KNOTS('',3,(#955,#956,#957,#958,#959),
 .UNSPECIFIED.,.F.,.F.,(4,1,4),(-0.585870234926002,-0.367469598336147,-0.27148468949368),
 .UNSPECIFIED.);
#28=B_SPLINE_CURVE_WITH_KNOTS('',3,(#961,#962,#963,#964,#965),
 .UNSPECIFIED.,.F.,.F.,(4,1,4),(-0.585870244002292,-0.367469604363806,-0.271484694475969),
 .UNSPECIFIED.);
#29=B_SPLINE_CURVE_WITH_KNOTS('',3,(#967,#968,#969,#970,#971),
 .UNSPECIFIED.,.F.,.F.,(4,1,4),(-0.585870239005196,-0.367469604363806,-0.271484689474705),
 .UNSPECIFIED.);
#30=B_SPLINE_CURVE_WITH_KNOTS('',3,(#973,#974,#975,#976,#977),
 .UNSPECIFIED.,.F.,.F.,(4,1,4),(-0.585870229929143,-0.367469598336146,-0.271484684490948),
 .UNSPECIFIED.);
#31=B_SPLINE_CURVE_WITH_KNOTS('',3,(#1018,#1019,#1020,#1021,#1022),
 .UNSPECIFIED.,.F.,.F.,(4,1,4),(-2.22044604925031E-16,0.367469598336147,
0.857429062784342),.UNSPECIFIED.);
#32=B_SPLINE_CURVE_WITH_KNOTS('',3,(#1063,#1064,#1065,#1066,#1067),
 .UNSPECIFIED.,.F.,.F.,(4,1,4),(-6.72141911731971E-16,0.367469598336146,
0.857429062784342),.UNSPECIFIED.);
#33=B_SPLINE_CURVE_WITH_KNOTS('',3,(#1108,#1109,#1110,#1111,#1112),
 .UNSPECIFIED.,.F.,.F.,(4,1,4),(-2.8556645256487E-16,0.367469604363806,
0.857429076848881),.UNSPECIFIED.);
#34=B_SPLINE_CURVE_WITH_KNOTS('',3,(#1115,#1116,#1117,#1118,#1119),
 .UNSPECIFIED.,.F.,.F.,(4,1,4),(0.,0.367469604363806,0.857429076848881),
 .UNSPECIFIED.);
#35=STYLED_ITEM('',(#1188),#37);
#36=STYLED_ITEM('',(#1188),#38);
#37=MANIFOLD_SOLID_BREP('Body10',#504);
#38=MANIFOLD_SOLID_BREP('Body10',#505);
#39=FACE_BOUND('',#168,.T.);
#40=FACE_BOUND('',#171,.T.);
#41=FACE_BOUND('',#173,.T.);
#42=FACE_BOUND('',#175,.T.);
#43=FACE_BOUND('',#181,.T.);
#44=FACE_BOUND('',#184,.T.);
#45=FACE_BOUND('',#198,.T.);
#46=PLANE('',#526);
#47=PLANE('',#530);
#48=PLANE('',#531);
#49=PLANE('',#536);
#50=PLANE('',#539);
#51=PLANE('',#541);
#52=PLANE('',#543);
#53=PLANE('',#545);
#54=PLANE('',#546);
#55=PLANE('',#547);
#56=PLANE('',#549);
#57=PLANE('',#550);
#58=PLANE('',#551);
#59=PLANE('',#552);
#60=PLANE('',#553);
#61=PLANE('',#554);
#62=PLANE('',#558);
#63=LINE('',#693,#97);
#64=LINE('',#700,#98);
#65=LINE('',#710,#99);
#66=LINE('',#752,#100);
#67=LINE('',#759,#101);
#68=LINE('',#764,#102);
#69=LINE('',#769,#103);
#70=LINE('',#774,#104);
#71=LINE('',#776,#105);
#72=LINE('',#778,#106);
#73=LINE('',#779,#107);
#74=LINE('',#783,#108);
#75=LINE('',#801,#109);
#76=LINE('',#803,#110);
#77=LINE('',#822,#111);
#78=LINE('',#823,#112);
#79=LINE('',#824,#113);
#80=LINE('',#827,#114);
#81=LINE('',#845,#115);
#82=LINE('',#847,#116);
#83=LINE('',#866,#117);
#84=LINE('',#867,#118);
#85=LINE('',#872,#119);
#86=LINE('',#890,#120);
#87=LINE('',#892,#121);
#88=LINE('',#911,#122);
#89=LINE('',#912,#123);
#90=LINE('',#915,#124);
#91=LINE('',#933,#125);
#92=LINE('',#935,#126);
#93=LINE('',#953,#127);
#94=LINE('',#1114,#128);
#95=LINE('',#1163,#129);
#96=LINE('',#1168,#130);
#97=VECTOR('',#577,4.25);
#98=VECTOR('',#586,5.1);
#99=VECTOR('',#599,5.1);
#100=VECTOR('',#602,10.);
#101=VECTOR('',#609,10.);
#102=VECTOR('',#614,10.);
#103=VECTOR('',#619,10.);
#104=VECTOR('',#624,10.);
#105=VECTOR('',#625,10.);
#106=VECTOR('',#626,10.);
#107=VECTOR('',#627,10.);
#108=VECTOR('',#630,10.);
#109=VECTOR('',#631,10.);
#110=VECTOR('',#632,10.);
#111=VECTOR('',#633,10.);
#112=VECTOR('',#634,10.);
#113=VECTOR('',#635,10.);
#114=VECTOR('',#638,10.);
#115=VECTOR('',#639,10.);
#116=VECTOR('',#640,10.);
#117=VECTOR('',#641,10.);
#118=VECTOR('',#642,10.);
#119=VECTOR('',#647,10.);
#120=VECTOR('',#648,10.);
#121=VECTOR('',#649,10.);
#122=VECTOR('',#650,10.);
#123=VECTOR('',#651,10.);
#124=VECTOR('',#654,10.);
#125=VECTOR('',#655,10.);
#126=VECTOR('',#656,10.);
#127=VECTOR('',#657,10.);
#128=VECTOR('',#668,5.1);
#129=VECTOR('',#673,3.25);
#130=VECTOR('',#680,3.75);
#131=CYLINDRICAL_SURFACE('',#524,4.25);
#132=CYLINDRICAL_SURFACE('',#528,5.1);
#133=CYLINDRICAL_SURFACE('',#534,5.1);
#134=CYLINDRICAL_SURFACE('',#555,6.1);
#135=CYLINDRICAL_SURFACE('',#556,3.25);
#136=CYLINDRICAL_SURFACE('',#560,3.75);
#137=FACE_OUTER_BOUND('',#165,.T.);
#138=FACE_OUTER_BOUND('',#166,.T.);
#139=FACE_OUTER_BOUND('',#167,.T.);
#140=FACE_OUTER_BOUND('',#169,.T.);
#141=FACE_OUTER_BOUND('',#170,.T.);
#142=FACE_OUTER_BOUND('',#172,.T.);
#143=FACE_OUTER_BOUND('',#174,.T.);
#144=FACE_OUTER_BOUND('',#176,.T.);
#145=FACE_OUTER_BOUND('',#177,.T.);
#146=FACE_OUTER_BOUND('',#178,.T.);
#147=FACE_OUTER_BOUND('',#179,.T.);
#148=FACE_OUTER_BOUND('',#180,.T.);
#149=FACE_OUTER_BOUND('',#182,.T.);
#150=FACE_OUTER_BOUND('',#183,.T.);
#151=FACE_OUTER_BOUND('',#185,.T.);
#152=FACE_OUTER_BOUND('',#186,.T.);
#153=FACE_OUTER_BOUND('',#187,.T.);
#154=FACE_OUTER_BOUND('',#188,.T.);
#155=FACE_OUTER_BOUND('',#189,.T.);
#156=FACE_OUTER_BOUND('',#190,.T.);
#157=FACE_OUTER_BOUND('',#191,.T.);
#158=FACE_OUTER_BOUND('',#192,.T.);
#159=FACE_OUTER_BOUND('',#193,.T.);
#160=FACE_OUTER_BOUND('',#194,.T.);
#161=FACE_OUTER_BOUND('',#195,.T.);
#162=FACE_OUTER_BOUND('',#196,.T.);
#163=FACE_OUTER_BOUND('',#197,.T.);
#164=FACE_OUTER_BOUND('',#199,.T.);
#165=EDGE_LOOP('',(#335,#336,#337,#338,#339));
#166=EDGE_LOOP('',(#340,#341,#342,#343,#344));
#167=EDGE_LOOP('',(#345));
#168=EDGE_LOOP('',(#346));
#169=EDGE_LOOP('',(#347,#348,#349,#350));
#170=EDGE_LOOP('',(#351));
#171=EDGE_LOOP('',(#352));
#172=EDGE_LOOP('',(#353));
#173=EDGE_LOOP('',(#354));
#174=EDGE_LOOP('',(#355,#356,#357,#358));
#175=EDGE_LOOP('',(#359,#360));
#176=EDGE_LOOP('',(#361,#362,#363));
#177=EDGE_LOOP('',(#364,#365));
#178=EDGE_LOOP('',(#366,#367));
#179=EDGE_LOOP('',(#368,#369));
#180=EDGE_LOOP('',(#370,#371,#372,#373));
#181=EDGE_LOOP('',(#374));
#182=EDGE_LOOP('',(#375,#376,#377,#378,#379,#380,#381,#382,#383,#384));
#183=EDGE_LOOP('',(#385,#386,#387,#388,#389,#390,#391,#392,#393,#394));
#184=EDGE_LOOP('',(#395));
#185=EDGE_LOOP('',(#396,#397,#398,#399,#400,#401,#402,#403,#404,#405));
#186=EDGE_LOOP('',(#406,#407,#408,#409,#410,#411,#412,#413,#414,#415));
#187=EDGE_LOOP('',(#416,#417,#418));
#188=EDGE_LOOP('',(#419,#420,#421));
#189=EDGE_LOOP('',(#422,#423,#424));
#190=EDGE_LOOP('',(#425,#426,#427));
#191=EDGE_LOOP('',(#428,#429,#430,#431));
#192=EDGE_LOOP('',(#432,#433,#434,#435));
#193=EDGE_LOOP('',(#436,#437,#438,#439));
#194=EDGE_LOOP('',(#440,#441,#442,#443,#444,#445,#446,#447,#448,#449,#450,
#451,#452,#453,#454,#455,#456,#457,#458,#459));
#195=EDGE_LOOP('',(#460,#461,#462,#463));
#196=EDGE_LOOP('',(#464,#465,#466,#467,#468));
#197=EDGE_LOOP('',(#469));
#198=EDGE_LOOP('',(#470));
#199=EDGE_LOOP('',(#471,#472,#473,#474));
#200=CIRCLE('',#520,4.25);
#201=CIRCLE('',#521,0.3);
#202=CIRCLE('',#522,4.55);
#203=CIRCLE('',#523,4.25);
#204=CIRCLE('',#525,4.25);
#205=CIRCLE('',#527,5.1);
#206=CIRCLE('',#529,5.1);
#207=CIRCLE('',#532,6.1);
#208=CIRCLE('',#533,5.1);
#209=CIRCLE('',#535,5.1);
#210=CIRCLE('',#537,6.1);
#211=CIRCLE('',#538,6.1);
#212=CIRCLE('',#540,6.1);
#213=CIRCLE('',#542,6.1);
#214=CIRCLE('',#544,6.1);
#215=CIRCLE('',#548,3.75);
#216=CIRCLE('',#557,3.25);
#217=CIRCLE('',#559,3.75);
#218=VERTEX_POINT('',#683);
#219=VERTEX_POINT('',#684);
#220=VERTEX_POINT('',#686);
#221=VERTEX_POINT('',#691);
#222=VERTEX_POINT('',#695);
#223=VERTEX_POINT('',#698);
#224=VERTEX_POINT('',#703);
#225=VERTEX_POINT('',#705);
#226=VERTEX_POINT('',#708);
#227=VERTEX_POINT('',#711);
#228=VERTEX_POINT('',#712);
#229=VERTEX_POINT('',#750);
#230=VERTEX_POINT('',#751);
#231=VERTEX_POINT('',#753);
#232=VERTEX_POINT('',#757);
#233=VERTEX_POINT('',#758);
#234=VERTEX_POINT('',#762);
#235=VERTEX_POINT('',#763);
#236=VERTEX_POINT('',#767);
#237=VERTEX_POINT('',#768);
#238=VERTEX_POINT('',#772);
#239=VERTEX_POINT('',#773);
#240=VERTEX_POINT('',#775);
#241=VERTEX_POINT('',#777);
#242=VERTEX_POINT('',#781);
#243=VERTEX_POINT('',#782);
#244=VERTEX_POINT('',#784);
#245=VERTEX_POINT('',#802);
#246=VERTEX_POINT('',#804);
#247=VERTEX_POINT('',#821);
#248=VERTEX_POINT('',#826);
#249=VERTEX_POINT('',#828);
#250=VERTEX_POINT('',#846);
#251=VERTEX_POINT('',#848);
#252=VERTEX_POINT('',#865);
#253=VERTEX_POINT('',#868);
#254=VERTEX_POINT('',#871);
#255=VERTEX_POINT('',#873);
#256=VERTEX_POINT('',#891);
#257=VERTEX_POINT('',#893);
#258=VERTEX_POINT('',#910);
#259=VERTEX_POINT('',#914);
#260=VERTEX_POINT('',#916);
#261=VERTEX_POINT('',#934);
#262=VERTEX_POINT('',#936);
#263=VERTEX_POINT('',#1161);
#264=VERTEX_POINT('',#1165);
#265=EDGE_CURVE('',#218,#219,#200,.T.);
#266=EDGE_CURVE('',#219,#220,#201,.T.);
#267=EDGE_CURVE('',#220,#220,#202,.T.);
#268=EDGE_CURVE('',#219,#218,#203,.T.);
#269=EDGE_CURVE('',#221,#221,#204,.T.);
#270=EDGE_CURVE('',#221,#218,#63,.T.);
#271=EDGE_CURVE('',#222,#222,#205,.T.);
#272=EDGE_CURVE('',#223,#223,#206,.T.);
#273=EDGE_CURVE('',#223,#222,#64,.T.);
#274=EDGE_CURVE('',#224,#224,#207,.T.);
#275=EDGE_CURVE('',#225,#225,#208,.T.);
#276=EDGE_CURVE('',#226,#226,#209,.T.);
#277=EDGE_CURVE('',#226,#225,#65,.T.);
#278=EDGE_CURVE('',#227,#228,#17,.T.);
#279=EDGE_CURVE('',#228,#227,#18,.T.);
#280=EDGE_CURVE('',#229,#230,#66,.T.);
#281=EDGE_CURVE('',#230,#231,#210,.F.);
#282=EDGE_CURVE('',#231,#229,#211,.F.);
#283=EDGE_CURVE('',#232,#233,#67,.T.);
#284=EDGE_CURVE('',#233,#232,#212,.F.);
#285=EDGE_CURVE('',#234,#235,#68,.T.);
#286=EDGE_CURVE('',#235,#234,#213,.F.);
#287=EDGE_CURVE('',#236,#237,#69,.T.);
#288=EDGE_CURVE('',#237,#236,#214,.F.);
#289=EDGE_CURVE('',#238,#239,#70,.T.);
#290=EDGE_CURVE('',#239,#240,#71,.T.);
#291=EDGE_CURVE('',#240,#241,#72,.T.);
#292=EDGE_CURVE('',#241,#238,#73,.T.);
#293=EDGE_CURVE('',#242,#243,#74,.T.);
#294=EDGE_CURVE('',#244,#243,#19,.T.);
#295=EDGE_CURVE('',#235,#244,#75,.T.);
#296=EDGE_CURVE('',#245,#234,#76,.T.);
#297=EDGE_CURVE('',#245,#246,#20,.F.);
#298=EDGE_CURVE('',#246,#247,#77,.T.);
#299=EDGE_CURVE('',#247,#239,#78,.T.);
#300=EDGE_CURVE('',#242,#238,#79,.T.);
#301=EDGE_CURVE('',#247,#248,#80,.T.);
#302=EDGE_CURVE('',#249,#248,#21,.T.);
#303=EDGE_CURVE('',#237,#249,#81,.T.);
#304=EDGE_CURVE('',#250,#236,#82,.T.);
#305=EDGE_CURVE('',#250,#251,#22,.F.);
#306=EDGE_CURVE('',#251,#252,#83,.T.);
#307=EDGE_CURVE('',#252,#240,#84,.T.);
#308=EDGE_CURVE('',#253,#253,#215,.T.);
#309=EDGE_CURVE('',#252,#254,#85,.T.);
#310=EDGE_CURVE('',#255,#254,#23,.T.);
#311=EDGE_CURVE('',#230,#255,#86,.T.);
#312=EDGE_CURVE('',#256,#229,#87,.T.);
#313=EDGE_CURVE('',#256,#257,#24,.F.);
#314=EDGE_CURVE('',#257,#258,#88,.T.);
#315=EDGE_CURVE('',#258,#241,#89,.T.);
#316=EDGE_CURVE('',#258,#259,#90,.T.);
#317=EDGE_CURVE('',#260,#259,#25,.T.);
#318=EDGE_CURVE('',#233,#260,#91,.T.);
#319=EDGE_CURVE('',#261,#232,#92,.T.);
#320=EDGE_CURVE('',#261,#262,#26,.F.);
#321=EDGE_CURVE('',#262,#242,#93,.T.);
#322=EDGE_CURVE('',#259,#257,#27,.T.);
#323=EDGE_CURVE('',#254,#251,#28,.T.);
#324=EDGE_CURVE('',#248,#246,#29,.T.);
#325=EDGE_CURVE('',#243,#262,#30,.T.);
#326=EDGE_CURVE('',#256,#260,#31,.T.);
#327=EDGE_CURVE('',#261,#244,#32,.T.);
#328=EDGE_CURVE('',#250,#255,#33,.T.);
#329=EDGE_CURVE('',#224,#231,#94,.T.);
#330=EDGE_CURVE('',#245,#249,#34,.T.);
#331=EDGE_CURVE('',#263,#263,#216,.T.);
#332=EDGE_CURVE('',#263,#228,#95,.T.);
#333=EDGE_CURVE('',#264,#264,#217,.T.);
#334=EDGE_CURVE('',#264,#253,#96,.T.);
#335=ORIENTED_EDGE('',*,*,#265,.T.);
#336=ORIENTED_EDGE('',*,*,#266,.T.);
#337=ORIENTED_EDGE('',*,*,#267,.T.);
#338=ORIENTED_EDGE('',*,*,#266,.F.);
#339=ORIENTED_EDGE('',*,*,#268,.T.);
#340=ORIENTED_EDGE('',*,*,#269,.F.);
#341=ORIENTED_EDGE('',*,*,#270,.T.);
#342=ORIENTED_EDGE('',*,*,#268,.F.);
#343=ORIENTED_EDGE('',*,*,#265,.F.);
#344=ORIENTED_EDGE('',*,*,#270,.F.);
#345=ORIENTED_EDGE('',*,*,#271,.T.);
#346=ORIENTED_EDGE('',*,*,#267,.F.);
#347=ORIENTED_EDGE('',*,*,#272,.F.);
#348=ORIENTED_EDGE('',*,*,#273,.T.);
#349=ORIENTED_EDGE('',*,*,#271,.F.);
#350=ORIENTED_EDGE('',*,*,#273,.F.);
#351=ORIENTED_EDGE('',*,*,#272,.T.);
#352=ORIENTED_EDGE('',*,*,#269,.T.);
#353=ORIENTED_EDGE('',*,*,#274,.T.);
#354=ORIENTED_EDGE('',*,*,#275,.T.);
#355=ORIENTED_EDGE('',*,*,#276,.F.);
#356=ORIENTED_EDGE('',*,*,#277,.T.);
#357=ORIENTED_EDGE('',*,*,#275,.F.);
#358=ORIENTED_EDGE('',*,*,#277,.F.);
#359=ORIENTED_EDGE('',*,*,#278,.T.);
#360=ORIENTED_EDGE('',*,*,#279,.T.);
#361=ORIENTED_EDGE('',*,*,#280,.T.);
#362=ORIENTED_EDGE('',*,*,#281,.T.);
#363=ORIENTED_EDGE('',*,*,#282,.T.);
#364=ORIENTED_EDGE('',*,*,#283,.T.);
#365=ORIENTED_EDGE('',*,*,#284,.T.);
#366=ORIENTED_EDGE('',*,*,#285,.T.);
#367=ORIENTED_EDGE('',*,*,#286,.T.);
#368=ORIENTED_EDGE('',*,*,#287,.T.);
#369=ORIENTED_EDGE('',*,*,#288,.T.);
#370=ORIENTED_EDGE('',*,*,#289,.T.);
#371=ORIENTED_EDGE('',*,*,#290,.T.);
#372=ORIENTED_EDGE('',*,*,#291,.T.);
#373=ORIENTED_EDGE('',*,*,#292,.T.);
#374=ORIENTED_EDGE('',*,*,#276,.T.);
#375=ORIENTED_EDGE('',*,*,#293,.T.);
#376=ORIENTED_EDGE('',*,*,#294,.F.);
#377=ORIENTED_EDGE('',*,*,#295,.F.);
#378=ORIENTED_EDGE('',*,*,#285,.F.);
#379=ORIENTED_EDGE('',*,*,#296,.F.);
#380=ORIENTED_EDGE('',*,*,#297,.T.);
#381=ORIENTED_EDGE('',*,*,#298,.T.);
#382=ORIENTED_EDGE('',*,*,#299,.T.);
#383=ORIENTED_EDGE('',*,*,#289,.F.);
#384=ORIENTED_EDGE('',*,*,#300,.F.);
#385=ORIENTED_EDGE('',*,*,#301,.T.);
#386=ORIENTED_EDGE('',*,*,#302,.F.);
#387=ORIENTED_EDGE('',*,*,#303,.F.);
#388=ORIENTED_EDGE('',*,*,#287,.F.);
#389=ORIENTED_EDGE('',*,*,#304,.F.);
#390=ORIENTED_EDGE('',*,*,#305,.T.);
#391=ORIENTED_EDGE('',*,*,#306,.T.);
#392=ORIENTED_EDGE('',*,*,#307,.T.);
#393=ORIENTED_EDGE('',*,*,#290,.F.);
#394=ORIENTED_EDGE('',*,*,#299,.F.);
#395=ORIENTED_EDGE('',*,*,#308,.T.);
#396=ORIENTED_EDGE('',*,*,#309,.T.);
#397=ORIENTED_EDGE('',*,*,#310,.F.);
#398=ORIENTED_EDGE('',*,*,#311,.F.);
#399=ORIENTED_EDGE('',*,*,#280,.F.);
#400=ORIENTED_EDGE('',*,*,#312,.F.);
#401=ORIENTED_EDGE('',*,*,#313,.T.);
#402=ORIENTED_EDGE('',*,*,#314,.T.);
#403=ORIENTED_EDGE('',*,*,#315,.T.);
#404=ORIENTED_EDGE('',*,*,#291,.F.);
#405=ORIENTED_EDGE('',*,*,#307,.F.);
#406=ORIENTED_EDGE('',*,*,#316,.T.);
#407=ORIENTED_EDGE('',*,*,#317,.F.);
#408=ORIENTED_EDGE('',*,*,#318,.F.);
#409=ORIENTED_EDGE('',*,*,#283,.F.);
#410=ORIENTED_EDGE('',*,*,#319,.F.);
#411=ORIENTED_EDGE('',*,*,#320,.T.);
#412=ORIENTED_EDGE('',*,*,#321,.T.);
#413=ORIENTED_EDGE('',*,*,#300,.T.);
#414=ORIENTED_EDGE('',*,*,#292,.F.);
#415=ORIENTED_EDGE('',*,*,#315,.F.);
#416=ORIENTED_EDGE('',*,*,#322,.F.);
#417=ORIENTED_EDGE('',*,*,#316,.F.);
#418=ORIENTED_EDGE('',*,*,#314,.F.);
#419=ORIENTED_EDGE('',*,*,#323,.F.);
#420=ORIENTED_EDGE('',*,*,#309,.F.);
#421=ORIENTED_EDGE('',*,*,#306,.F.);
#422=ORIENTED_EDGE('',*,*,#324,.F.);
#423=ORIENTED_EDGE('',*,*,#301,.F.);
#424=ORIENTED_EDGE('',*,*,#298,.F.);
#425=ORIENTED_EDGE('',*,*,#325,.F.);
#426=ORIENTED_EDGE('',*,*,#293,.F.);
#427=ORIENTED_EDGE('',*,*,#321,.F.);
#428=ORIENTED_EDGE('',*,*,#317,.T.);
#429=ORIENTED_EDGE('',*,*,#322,.T.);
#430=ORIENTED_EDGE('',*,*,#313,.F.);
#431=ORIENTED_EDGE('',*,*,#326,.T.);
#432=ORIENTED_EDGE('',*,*,#294,.T.);
#433=ORIENTED_EDGE('',*,*,#325,.T.);
#434=ORIENTED_EDGE('',*,*,#320,.F.);
#435=ORIENTED_EDGE('',*,*,#327,.T.);
#436=ORIENTED_EDGE('',*,*,#310,.T.);
#437=ORIENTED_EDGE('',*,*,#323,.T.);
#438=ORIENTED_EDGE('',*,*,#305,.F.);
#439=ORIENTED_EDGE('',*,*,#328,.T.);
#440=ORIENTED_EDGE('',*,*,#274,.F.);
#441=ORIENTED_EDGE('',*,*,#329,.T.);
#442=ORIENTED_EDGE('',*,*,#281,.F.);
#443=ORIENTED_EDGE('',*,*,#311,.T.);
#444=ORIENTED_EDGE('',*,*,#328,.F.);
#445=ORIENTED_EDGE('',*,*,#304,.T.);
#446=ORIENTED_EDGE('',*,*,#288,.F.);
#447=ORIENTED_EDGE('',*,*,#303,.T.);
#448=ORIENTED_EDGE('',*,*,#330,.F.);
#449=ORIENTED_EDGE('',*,*,#296,.T.);
#450=ORIENTED_EDGE('',*,*,#286,.F.);
#451=ORIENTED_EDGE('',*,*,#295,.T.);
#452=ORIENTED_EDGE('',*,*,#327,.F.);
#453=ORIENTED_EDGE('',*,*,#319,.T.);
#454=ORIENTED_EDGE('',*,*,#284,.F.);
#455=ORIENTED_EDGE('',*,*,#318,.T.);
#456=ORIENTED_EDGE('',*,*,#326,.F.);
#457=ORIENTED_EDGE('',*,*,#312,.T.);
#458=ORIENTED_EDGE('',*,*,#282,.F.);
#459=ORIENTED_EDGE('',*,*,#329,.F.);
#460=ORIENTED_EDGE('',*,*,#302,.T.);
#461=ORIENTED_EDGE('',*,*,#324,.T.);
#462=ORIENTED_EDGE('',*,*,#297,.F.);
#463=ORIENTED_EDGE('',*,*,#330,.T.);
#464=ORIENTED_EDGE('',*,*,#331,.F.);
#465=ORIENTED_EDGE('',*,*,#332,.T.);
#466=ORIENTED_EDGE('',*,*,#278,.F.);
#467=ORIENTED_EDGE('',*,*,#279,.F.);
#468=ORIENTED_EDGE('',*,*,#332,.F.);
#469=ORIENTED_EDGE('',*,*,#333,.T.);
#470=ORIENTED_EDGE('',*,*,#331,.T.);
#471=ORIENTED_EDGE('',*,*,#333,.F.);
#472=ORIENTED_EDGE('',*,*,#334,.T.);
#473=ORIENTED_EDGE('',*,*,#308,.F.);
#474=ORIENTED_EDGE('',*,*,#334,.F.);
#475=TOROIDAL_SURFACE('',#519,4.55,0.3);
#476=ADVANCED_FACE('',(#137),#475,.T.);
#477=ADVANCED_FACE('',(#138),#131,.F.);
#478=ADVANCED_FACE('',(#139,#39),#46,.F.);
#479=ADVANCED_FACE('',(#140),#132,.T.);
#480=ADVANCED_FACE('',(#141,#40),#47,.T.);
#481=ADVANCED_FACE('',(#142,#41),#48,.F.);
#482=ADVANCED_FACE('',(#143,#42),#133,.F.);
#483=ADVANCED_FACE('',(#144),#49,.T.);
#484=ADVANCED_FACE('',(#145),#50,.T.);
#485=ADVANCED_FACE('',(#146),#51,.T.);
#486=ADVANCED_FACE('',(#147),#52,.T.);
#487=ADVANCED_FACE('',(#148,#43),#53,.T.);
#488=ADVANCED_FACE('',(#149),#54,.T.);
#489=ADVANCED_FACE('',(#150,#44),#55,.T.);
#490=ADVANCED_FACE('',(#151),#56,.T.);
#491=ADVANCED_FACE('',(#152),#57,.T.);
#492=ADVANCED_FACE('',(#153),#58,.F.);
#493=ADVANCED_FACE('',(#154),#59,.F.);
#494=ADVANCED_FACE('',(#155),#60,.F.);
#495=ADVANCED_FACE('',(#156),#61,.F.);
#496=ADVANCED_FACE('',(#157),#13,.T.);
#497=ADVANCED_FACE('',(#158),#14,.T.);
#498=ADVANCED_FACE('',(#159),#15,.T.);
#499=ADVANCED_FACE('',(#160),#134,.T.);
#500=ADVANCED_FACE('',(#161),#16,.T.);
#501=ADVANCED_FACE('',(#162),#135,.F.);
#502=ADVANCED_FACE('',(#163,#45),#62,.T.);
#503=ADVANCED_FACE('',(#164),#136,.T.);
#504=CLOSED_SHELL('',(#476,#477,#478,#479,#480));
#505=CLOSED_SHELL('',(#481,#482,#483,#484,#485,#486,#487,#488,#489,#490,
#491,#492,#493,#494,#495,#496,#497,#498,#499,#500,#501,#502,#503));
#506=DERIVED_UNIT_ELEMENT(#508,1.);
#507=DERIVED_UNIT_ELEMENT(#1174,-3.);
#508=(
MASS_UNIT()
NAMED_UNIT(*)
SI_UNIT(.KILO.,.GRAM.)
);
#509=DERIVED_UNIT((#506,#507));
#510=MEASURE_REPRESENTATION_ITEM('density measure',
POSITIVE_RATIO_MEASURE(7850.),#509);
#511=PROPERTY_DEFINITION_REPRESENTATION(#516,#513);
#512=PROPERTY_DEFINITION_REPRESENTATION(#517,#514);
#513=REPRESENTATION('material name',(#515),#1171);
#514=REPRESENTATION('density',(#510),#1171);
#515=DESCRIPTIVE_REPRESENTATION_ITEM('Steel','Steel');
#516=PROPERTY_DEFINITION('material property','material name',#1181);
#517=PROPERTY_DEFINITION('material property','density of part',#1181);
#518=AXIS2_PLACEMENT_3D('',#681,#561,#562);
#519=AXIS2_PLACEMENT_3D('',#682,#563,#564);
#520=AXIS2_PLACEMENT_3D('',#685,#565,#566);
#521=AXIS2_PLACEMENT_3D('',#687,#567,#568);
#522=AXIS2_PLACEMENT_3D('',#688,#569,#570);
#523=AXIS2_PLACEMENT_3D('',#689,#571,#572);
#524=AXIS2_PLACEMENT_3D('',#690,#573,#574);
#525=AXIS2_PLACEMENT_3D('',#692,#575,#576);
#526=AXIS2_PLACEMENT_3D('',#694,#578,#579);
#527=AXIS2_PLACEMENT_3D('',#696,#580,#581);
#528=AXIS2_PLACEMENT_3D('',#697,#582,#583);
#529=AXIS2_PLACEMENT_3D('',#699,#584,#585);
#530=AXIS2_PLACEMENT_3D('',#701,#587,#588);
#531=AXIS2_PLACEMENT_3D('',#702,#589,#590);
#532=AXIS2_PLACEMENT_3D('',#704,#591,#592);
#533=AXIS2_PLACEMENT_3D('',#706,#593,#594);
#534=AXIS2_PLACEMENT_3D('',#707,#595,#596);
#535=AXIS2_PLACEMENT_3D('',#709,#597,#598);
#536=AXIS2_PLACEMENT_3D('',#749,#600,#601);
#537=AXIS2_PLACEMENT_3D('',#754,#603,#604);
#538=AXIS2_PLACEMENT_3D('',#755,#605,#606);
#539=AXIS2_PLACEMENT_3D('',#756,#607,#608);
#540=AXIS2_PLACEMENT_3D('',#760,#610,#611);
#541=AXIS2_PLACEMENT_3D('',#761,#612,#613);
#542=AXIS2_PLACEMENT_3D('',#765,#615,#616);
#543=AXIS2_PLACEMENT_3D('',#766,#617,#618);
#544=AXIS2_PLACEMENT_3D('',#770,#620,#621);
#545=AXIS2_PLACEMENT_3D('',#771,#622,#623);
#546=AXIS2_PLACEMENT_3D('',#780,#628,#629);
#547=AXIS2_PLACEMENT_3D('',#825,#636,#637);
#548=AXIS2_PLACEMENT_3D('',#869,#643,#644);
#549=AXIS2_PLACEMENT_3D('',#870,#645,#646);
#550=AXIS2_PLACEMENT_3D('',#913,#652,#653);
#551=AXIS2_PLACEMENT_3D('',#954,#658,#659);
#552=AXIS2_PLACEMENT_3D('',#960,#660,#661);
#553=AXIS2_PLACEMENT_3D('',#966,#662,#663);
#554=AXIS2_PLACEMENT_3D('',#972,#664,#665);
#555=AXIS2_PLACEMENT_3D('',#1113,#666,#667);
#556=AXIS2_PLACEMENT_3D('',#1160,#669,#670);
#557=AXIS2_PLACEMENT_3D('',#1162,#671,#672);
#558=AXIS2_PLACEMENT_3D('',#1164,#674,#675);
#559=AXIS2_PLACEMENT_3D('',#1166,#676,#677);
#560=AXIS2_PLACEMENT_3D('',#1167,#678,#679);
#561=DIRECTION('axis',(0.,0.,1.));
#562=DIRECTION('refdir',(1.,0.,0.));
#563=DIRECTION('center_axis',(0.,0.,-1.));
#564=DIRECTION('ref_axis',(-1.,0.,0.));
#565=DIRECTION('center_axis',(0.,0.,1.));
#566=DIRECTION('ref_axis',(1.,0.,0.));
#567=DIRECTION('center_axis',(-1.22464679914735E-16,-1.,0.));
#568=DIRECTION('ref_axis',(1.,-1.22464679914735E-16,0.));
#569=DIRECTION('center_axis',(0.,0.,-1.));
#570=DIRECTION('ref_axis',(1.,0.,0.));
#571=DIRECTION('center_axis',(0.,0.,1.));
#572=DIRECTION('ref_axis',(1.,0.,0.));
#573=DIRECTION('center_axis',(0.,0.,1.));
#574=DIRECTION('ref_axis',(1.,0.,0.));
#575=DIRECTION('center_axis',(0.,0.,-1.));
#576=DIRECTION('ref_axis',(1.,0.,0.));
#577=DIRECTION('',(0.,0.,-1.));
#578=DIRECTION('center_axis',(0.,0.,1.));
#579=DIRECTION('ref_axis',(1.,0.,0.));
#580=DIRECTION('center_axis',(0.,0.,-1.));
#581=DIRECTION('ref_axis',(1.,0.,0.));
#582=DIRECTION('center_axis',(0.,0.,1.));
#583=DIRECTION('ref_axis',(1.,0.,0.));
#584=DIRECTION('center_axis',(0.,0.,1.));
#585=DIRECTION('ref_axis',(1.,0.,0.));
#586=DIRECTION('',(0.,0.,-1.));
#587=DIRECTION('center_axis',(0.,0.,1.));
#588=DIRECTION('ref_axis',(1.,0.,0.));
#589=DIRECTION('center_axis',(0.,0.,1.));
#590=DIRECTION('ref_axis',(1.,0.,0.));
#591=DIRECTION('center_axis',(0.,0.,-1.));
#592=DIRECTION('ref_axis',(1.,0.,0.));
#593=DIRECTION('center_axis',(0.,0.,1.));
#594=DIRECTION('ref_axis',(1.,0.,0.));
#595=DIRECTION('center_axis',(0.,0.,-1.));
#596=DIRECTION('ref_axis',(1.,0.,0.));
#597=DIRECTION('center_axis',(0.,0.,-1.));
#598=DIRECTION('ref_axis',(1.,0.,0.));
#599=DIRECTION('',(0.,0.,-1.));
#600=DIRECTION('center_axis',(0.,0.,1.));
#601=DIRECTION('ref_axis',(1.,0.,0.));
#602=DIRECTION('',(0.,1.,0.));
#603=DIRECTION('center_axis',(0.,0.,-1.));
#604=DIRECTION('ref_axis',(1.,0.,0.));
#605=DIRECTION('center_axis',(0.,0.,-1.));
#606=DIRECTION('ref_axis',(1.,0.,0.));
#607=DIRECTION('center_axis',(0.,0.,1.));
#608=DIRECTION('ref_axis',(1.,0.,0.));
#609=DIRECTION('',(-1.,0.,0.));
#610=DIRECTION('center_axis',(0.,0.,-1.));
#611=DIRECTION('ref_axis',(1.,0.,0.));
#612=DIRECTION('center_axis',(0.,0.,1.));
#613=DIRECTION('ref_axis',(1.,0.,0.));
#614=DIRECTION('',(0.,-1.,0.));
#615=DIRECTION('center_axis',(0.,0.,-1.));
#616=DIRECTION('ref_axis',(1.,0.,0.));
#617=DIRECTION('center_axis',(0.,0.,1.));
#618=DIRECTION('ref_axis',(1.,0.,0.));
#619=DIRECTION('',(1.,-9.25185853854297E-17,0.));
#620=DIRECTION('center_axis',(0.,0.,-1.));
#621=DIRECTION('ref_axis',(1.,0.,0.));
#622=DIRECTION('center_axis',(0.,0.,1.));
#623=DIRECTION('ref_axis',(1.,0.,0.));
#624=DIRECTION('',(0.,1.,0.));
#625=DIRECTION('',(-1.,9.25185853854297E-17,0.));
#626=DIRECTION('',(0.,-1.,0.));
#627=DIRECTION('',(1.,0.,0.));
#628=DIRECTION('center_axis',(1.,0.,0.));
#629=DIRECTION('ref_axis',(0.,1.,0.));
#630=DIRECTION('',(0.,1.,0.));
#631=DIRECTION('',(0.,0.,-1.));
#632=DIRECTION('',(0.,0.,1.));
#633=DIRECTION('',(0.,1.,0.));
#634=DIRECTION('',(0.,0.,1.));
#635=DIRECTION('',(0.,0.,1.));
#636=DIRECTION('center_axis',(9.25185853854297E-17,1.,0.));
#637=DIRECTION('ref_axis',(-1.,9.25185853854297E-17,0.));
#638=DIRECTION('',(-1.,9.25185853854297E-17,0.));
#639=DIRECTION('',(0.,0.,-1.));
#640=DIRECTION('',(0.,0.,1.));
#641=DIRECTION('',(-1.,9.25185853854297E-17,0.));
#642=DIRECTION('',(0.,0.,1.));
#643=DIRECTION('center_axis',(-9.25185853854297E-17,-1.,0.));
#644=DIRECTION('ref_axis',(-1.,0.,0.));
#645=DIRECTION('center_axis',(-1.,0.,0.));
#646=DIRECTION('ref_axis',(0.,-1.,0.));
#647=DIRECTION('',(0.,-1.,0.));
#648=DIRECTION('',(0.,0.,-1.));
#649=DIRECTION('',(0.,0.,1.));
#650=DIRECTION('',(0.,-1.,0.));
#651=DIRECTION('',(0.,0.,1.));
#652=DIRECTION('center_axis',(0.,-1.,0.));
#653=DIRECTION('ref_axis',(1.,0.,0.));
#654=DIRECTION('',(1.,0.,0.));
#655=DIRECTION('',(0.,0.,-1.));
#656=DIRECTION('',(0.,0.,1.));
#657=DIRECTION('',(1.,0.,0.));
#658=DIRECTION('center_axis',(0.,0.,1.));
#659=DIRECTION('ref_axis',(1.,0.,0.));
#660=DIRECTION('center_axis',(0.,0.,1.));
#661=DIRECTION('ref_axis',(1.,0.,0.));
#662=DIRECTION('center_axis',(0.,0.,1.));
#663=DIRECTION('ref_axis',(1.,0.,0.));
#664=DIRECTION('center_axis',(0.,0.,1.));
#665=DIRECTION('ref_axis',(1.,0.,0.));
#666=DIRECTION('center_axis',(0.,0.,-1.));
#667=DIRECTION('ref_axis',(1.,0.,0.));
#668=DIRECTION('',(0.,0.,1.));
#669=DIRECTION('center_axis',(0.,-1.,0.));
#670=DIRECTION('ref_axis',(-1.,0.,0.));
#671=DIRECTION('center_axis',(0.,-1.,0.));
#672=DIRECTION('ref_axis',(-1.,0.,0.));
#673=DIRECTION('',(0.,-1.,0.));
#674=DIRECTION('center_axis',(0.,1.,0.));
#675=DIRECTION('ref_axis',(-1.,0.,0.));
#676=DIRECTION('center_axis',(0.,1.,0.));
#677=DIRECTION('ref_axis',(-1.,0.,0.));
#678=DIRECTION('center_axis',(0.,1.,0.));
#679=DIRECTION('ref_axis',(-1.,0.,0.));
#680=DIRECTION('',(0.,-1.,0.));
#681=CARTESIAN_POINT('',(0.,0.,0.));
#682=CARTESIAN_POINT('Origin',(0.,0.,10.3));
#683=CARTESIAN_POINT('',(-4.25,-5.20474889637625E-16,10.3));
#684=CARTESIAN_POINT('',(4.25,-5.20474889637625E-16,10.3));
#685=CARTESIAN_POINT('Origin',(0.,0.,10.3));
#686=CARTESIAN_POINT('',(4.55,-5.57214293612046E-16,10.));
#687=CARTESIAN_POINT('Origin',(4.55,-5.57214293612046E-16,10.3));
#688=CARTESIAN_POINT('Origin',(0.,0.,10.));
#689=CARTESIAN_POINT('Origin',(0.,0.,10.3));
#690=CARTESIAN_POINT('Origin',(0.,0.,10.));
#691=CARTESIAN_POINT('',(-4.25,-5.20474889637625E-16,14.));
#692=CARTESIAN_POINT('Origin',(0.,0.,14.));
#693=CARTESIAN_POINT('',(-4.25,-5.20474889637625E-16,10.));
#694=CARTESIAN_POINT('Origin',(0.,0.,10.));
#695=CARTESIAN_POINT('',(-5.1,-6.2456986756515E-16,10.));
#696=CARTESIAN_POINT('Origin',(0.,0.,10.));
#697=CARTESIAN_POINT('Origin',(0.,0.,10.));
#698=CARTESIAN_POINT('',(-5.1,-6.2456986756515E-16,14.));
#699=CARTESIAN_POINT('Origin',(0.,0.,14.));
#700=CARTESIAN_POINT('',(-5.1,-6.2456986756515E-16,10.));
#701=CARTESIAN_POINT('Origin',(0.,0.,14.));
#702=CARTESIAN_POINT('Origin',(0.,0.,-4.));
#703=CARTESIAN_POINT('',(-6.1,7.47034547479885E-16,-4.));
#704=CARTESIAN_POINT('Origin',(0.,0.,-4.));
#705=CARTESIAN_POINT('',(-5.1,-6.2456986756515E-16,-4.));
#706=CARTESIAN_POINT('Origin',(0.,0.,-4.));
#707=CARTESIAN_POINT('Origin',(0.,0.,0.));
#708=CARTESIAN_POINT('',(-5.1,-6.2456986756515E-16,10.));
#709=CARTESIAN_POINT('Origin',(0.,0.,10.));
#710=CARTESIAN_POINT('',(-5.1,6.2456986756515E-16,0.));
#711=CARTESIAN_POINT('',(-3.25000004470348,3.93033073791855,5.0000000372529));
#712=CARTESIAN_POINT('',(3.24999995529652,3.93033073791855,5.0000000372529));
#713=CARTESIAN_POINT('Ctrl Pts',(-3.25000004470348,3.93033073791855,5.0000000372529));
#714=CARTESIAN_POINT('Ctrl Pts',(-3.25000004470348,3.93033073791855,5.42499205598145));
#715=CARTESIAN_POINT('Ctrl Pts',(-3.16247613934874,4.00642376755464,5.86422460455546));
#716=CARTESIAN_POINT('Ctrl Pts',(-2.82804412912766,4.24909965092936,6.65840663288739));
#717=CARTESIAN_POINT('Ctrl Pts',(-2.58112468119179,4.41002369332552,7.01506947813753));
#718=CARTESIAN_POINT('Ctrl Pts',(-2.01753671978986,4.69449831264762,7.57865744021575));
#719=CARTESIAN_POINT('Ctrl Pts',(-1.66026844724092,4.8397300242077,7.82724917687988));
#720=CARTESIAN_POINT('Ctrl Pts',(-0.862494396560017,5.04337007818617,8.16321566131858));
#721=CARTESIAN_POINT('Ctrl Pts',(-0.421287288556222,5.09999999630725,8.2500000372529));
#722=CARTESIAN_POINT('Ctrl Pts',(0.421287197018447,5.10000000369275,8.2500000372529));
#723=CARTESIAN_POINT('Ctrl Pts',(0.862494303997966,5.04337009383216,8.16321566211088));
#724=CARTESIAN_POINT('Ctrl Pts',(1.6602683541469,4.83973005595232,7.827249178969));
#725=CARTESIAN_POINT('Ctrl Pts',(2.01753662715033,4.69449835228159,7.57865744277499));
#726=CARTESIAN_POINT('Ctrl Pts',(2.58112459037374,4.41002374635559,7.01506948022786));
#727=CARTESIAN_POINT('Ctrl Pts',(2.82804403922869,4.24909971062674,6.65840663394575));
#728=CARTESIAN_POINT('Ctrl Pts',(3.1624760501838,4.00642383779281,5.86422460409073));
#729=CARTESIAN_POINT('Ctrl Pts',(3.24999995529652,3.93033081184938,5.4249920551345));
#730=CARTESIAN_POINT('Ctrl Pts',(3.24999995529652,3.93033081184938,5.0000000372529));
#731=CARTESIAN_POINT('Ctrl Pts',(3.24999995529652,3.93033081184938,5.0000000372529));
#732=CARTESIAN_POINT('Ctrl Pts',(3.24999995529652,3.93033081184938,4.57500801937131));
#733=CARTESIAN_POINT('Ctrl Pts',(3.1624760501838,4.00642383779281,4.13577547041507));
#734=CARTESIAN_POINT('Ctrl Pts',(2.82804403922869,4.24909971062674,3.34159344056006));
#735=CARTESIAN_POINT('Ctrl Pts',(2.58112459037374,4.41002374635559,2.98493059427795));
#736=CARTESIAN_POINT('Ctrl Pts',(2.01753662715033,4.69449835228159,2.42134263173082));
#737=CARTESIAN_POINT('Ctrl Pts',(1.6602683541469,4.83973005595231,2.1727508955368));
#738=CARTESIAN_POINT('Ctrl Pts',(0.862494303997967,5.04337009383216,1.83678441239493));
#739=CARTESIAN_POINT('Ctrl Pts',(0.421287197018448,5.10000000369275,1.7500000372529));
#740=CARTESIAN_POINT('Ctrl Pts',(-0.421287288556221,5.09999999630725,1.7500000372529));
#741=CARTESIAN_POINT('Ctrl Pts',(-0.862494396560017,5.04337007818617,1.83678441318723));
#742=CARTESIAN_POINT('Ctrl Pts',(-1.66026844724092,4.8397300242077,2.17275089762593));
#743=CARTESIAN_POINT('Ctrl Pts',(-2.01753671978986,4.69449831264762,2.42134263429005));
#744=CARTESIAN_POINT('Ctrl Pts',(-2.58112468119179,4.41002369332552,2.98493059636827));
#745=CARTESIAN_POINT('Ctrl Pts',(-2.82804412912766,4.24909965092936,3.34159344161842));
#746=CARTESIAN_POINT('Ctrl Pts',(-3.16247613934874,4.00642376755464,4.13577546995034));
#747=CARTESIAN_POINT('Ctrl Pts',(-3.25000004470348,3.93033073791855,4.57500801852435));
#748=CARTESIAN_POINT('Ctrl Pts',(-3.25000004470348,3.93033073791855,5.0000000372529));
#749=CARTESIAN_POINT('Origin',(0.,0.,0.));
#750=CARTESIAN_POINT('',(-6.,-1.09999999999999,0.));
#751=CARTESIAN_POINT('',(-6.,1.09999999999999,0.));
#752=CARTESIAN_POINT('',(-6.,3.00000000545444,0.));
#753=CARTESIAN_POINT('',(-6.1,7.47034547479885E-16,0.));
#754=CARTESIAN_POINT('Origin',(0.,0.,0.));
#755=CARTESIAN_POINT('Origin',(0.,0.,0.));
#756=CARTESIAN_POINT('Origin',(0.,0.,0.));
#757=CARTESIAN_POINT('',(1.100000059503,-5.99999998909112,0.));
#758=CARTESIAN_POINT('',(-1.100000059503,-5.99999998909112,0.));
#759=CARTESIAN_POINT('',(-3.,-5.99999998909112,0.));
#760=CARTESIAN_POINT('Origin',(0.,0.,0.));
#761=CARTESIAN_POINT('Origin',(0.,0.,0.));
#762=CARTESIAN_POINT('',(6.,1.09999999999999,0.));
#763=CARTESIAN_POINT('',(6.,-1.09999999999999,0.));
#764=CARTESIAN_POINT('',(6.,-2.99999999454556,0.));
#765=CARTESIAN_POINT('Origin',(0.,0.,0.));
#766=CARTESIAN_POINT('Origin',(0.,0.,0.));
#767=CARTESIAN_POINT('',(-1.09999994049698,6.00000001090889,0.));
#768=CARTESIAN_POINT('',(1.09999994049699,6.00000001090889,0.));
#769=CARTESIAN_POINT('',(3.,6.00000001090889,0.));
#770=CARTESIAN_POINT('Origin',(0.,0.,0.));
#771=CARTESIAN_POINT('Origin',(0.,1.09088849065131E-8,10.));
#772=CARTESIAN_POINT('',(6.,-5.99999998909112,10.));
#773=CARTESIAN_POINT('',(6.,6.00000001090889,10.));
#774=CARTESIAN_POINT('',(6.,-5.99999998909112,10.));
#775=CARTESIAN_POINT('',(-6.,6.00000001090889,10.));
#776=CARTESIAN_POINT('',(6.,6.00000001090888,10.));
#777=CARTESIAN_POINT('',(-6.,-5.99999998909112,10.));
#778=CARTESIAN_POINT('',(-6.,6.00000001090889,10.));
#779=CARTESIAN_POINT('',(-6.,-5.99999998909112,10.));
#780=CARTESIAN_POINT('Origin',(6.,-5.99999998909112,0.));
#781=CARTESIAN_POINT('',(6.,-5.99999998909112,0.));
#782=CARTESIAN_POINT('',(5.99999999930275,-3.79605058142551,0.));
#783=CARTESIAN_POINT('',(6.,-5.99999998909112,0.));
#784=CARTESIAN_POINT('',(6.,-1.1,-1.));
#785=CARTESIAN_POINT('Ctrl Pts',(6.,-1.1,-1.));
#786=CARTESIAN_POINT('Ctrl Pts',(6.,-1.1,-0.993710230853792));
#787=CARTESIAN_POINT('Ctrl Pts',(6.,-1.101316735459,-0.987579523503068));
#788=CARTESIAN_POINT('Ctrl Pts',(6.,-1.10686478904821,-0.972772483230913));
#789=CARTESIAN_POINT('Ctrl Pts',(6.,-1.11226079950004,-0.964387893183253));
#790=CARTESIAN_POINT('Ctrl Pts',(6.,-1.13064541227754,-0.941230930713832));
#791=CARTESIAN_POINT('Ctrl Pts',(6.00000000000001,-1.14833434136966,-0.92599286027203));
#792=CARTESIAN_POINT('Ctrl Pts',(6.00000000000001,-1.21319023199037,-0.878219732081166));
#793=CARTESIAN_POINT('Ctrl Pts',(6.,-1.28206973988338,-0.84016342192724));
#794=CARTESIAN_POINT('Ctrl Pts',(6.,-1.5656680414367,-0.70480671650598));
#795=CARTESIAN_POINT('Ctrl Pts',(6.,-1.86058385133369,-0.585741165604308));
#796=CARTESIAN_POINT('Ctrl Pts',(6.,-2.33114301701394,-0.401067653479314));
#797=CARTESIAN_POINT('Ctrl Pts',(6.,-2.62424650525452,-0.290556012148695));
#798=CARTESIAN_POINT('Ctrl Pts',(6.,-3.19333583599024,-0.101583591839231));
#799=CARTESIAN_POINT('Ctrl Pts',(6.,-3.55255873982675,3.1761219244426E-14));
#800=CARTESIAN_POINT('Ctrl Pts',(6.,-3.79605057922138,0.));
#801=CARTESIAN_POINT('',(6.,-1.09999999999999,0.));
#802=CARTESIAN_POINT('',(5.99999999999949,1.10000000000276,-1.));
#803=CARTESIAN_POINT('',(6.,1.09999999999999,0.));
#804=CARTESIAN_POINT('',(5.99999999930275,3.79605058142552,0.));
#805=CARTESIAN_POINT('Ctrl Pts',(6.,3.79605057922138,-3.06414406318013E-28));
#806=CARTESIAN_POINT('Ctrl Pts',(6.,3.63787941026807,2.11905373258142E-14));
#807=CARTESIAN_POINT('Ctrl Pts',(6.,3.43842766663759,-0.0428637725653068));
#808=CARTESIAN_POINT('Ctrl Pts',(6.,2.86067587931589,-0.196275056429861));
#809=CARTESIAN_POINT('Ctrl Pts',(6.,2.34128795419425,-0.394078110355345));
#810=CARTESIAN_POINT('Ctrl Pts',(6.,1.5942550225193,-0.693874649653889));
#811=CARTESIAN_POINT('Ctrl Pts',(6.,1.42245496480313,-0.771216907627583));
#812=CARTESIAN_POINT('Ctrl Pts',(6.,1.24752611813077,-0.85922988488953));
#813=CARTESIAN_POINT('Ctrl Pts',(6.00000000003925,1.19131282593221,-0.8923023923601));
#814=CARTESIAN_POINT('Ctrl Pts',(6.00000000003925,1.1377146035621,-0.935295862017034));
#815=CARTESIAN_POINT('Ctrl Pts',(6.,1.12295163891552,-0.949383916215924));
#816=CARTESIAN_POINT('Ctrl Pts',(6.,1.10901138274452,-0.96976439273218));
#817=CARTESIAN_POINT('Ctrl Pts',(6.,1.10552032569257,-0.97605602489817));
#818=CARTESIAN_POINT('Ctrl Pts',(6.,1.10117275723201,-0.988266181820998));
#819=CARTESIAN_POINT('Ctrl Pts',(6.,1.09999999999999,-0.9940638713981));
#820=CARTESIAN_POINT('Ctrl Pts',(6.,1.09999999999999,-1.));
#821=CARTESIAN_POINT('',(6.,6.00000001090889,0.));
#822=CARTESIAN_POINT('',(6.,-5.99999998909112,0.));
#823=CARTESIAN_POINT('',(6.,6.00000001090889,0.));
#824=CARTESIAN_POINT('',(6.,-5.99999998909112,0.));
#825=CARTESIAN_POINT('Origin',(6.,6.00000001090888,0.));
#826=CARTESIAN_POINT('',(3.79605056418304,6.00000001021163,0.));
#827=CARTESIAN_POINT('',(6.,6.00000001090888,0.));
#828=CARTESIAN_POINT('',(1.09999994049976,6.00000001090838,-1.));
#829=CARTESIAN_POINT('Ctrl Pts',(1.09999994049699,6.00000001090888,-1.));
#830=CARTESIAN_POINT('Ctrl Pts',(1.09999994049699,6.00000001090888,-0.993710231197279));
#831=CARTESIAN_POINT('Ctrl Pts',(1.10131667588341,6.00000001090889,-0.987579524185345));
#832=CARTESIAN_POINT('Ctrl Pts',(1.10686472919226,6.00000001090889,-0.972772484707812));
#833=CARTESIAN_POINT('Ctrl Pts',(1.11226073938454,6.00000001090889,-0.964387895116482));
#834=CARTESIAN_POINT('Ctrl Pts',(1.13064535162317,6.00000001090889,-0.941230933500694));
#835=CARTESIAN_POINT('Ctrl Pts',(1.14833428051295,6.00000001090889,-0.925992863517989));
#836=CARTESIAN_POINT('Ctrl Pts',(1.21319017909622,6.00000001090889,-0.878219730425237));
#837=CARTESIAN_POINT('Ctrl Pts',(1.28206970310903,6.00000001090888,-0.840163413950821));
#838=CARTESIAN_POINT('Ctrl Pts',(1.56566814043139,6.00000001090888,-0.704806652254388));
#839=CARTESIAN_POINT('Ctrl Pts',(1.86058419154792,6.00000001090888,-0.585741012246226));
#840=CARTESIAN_POINT('Ctrl Pts',(2.33114365133234,6.00000001090888,-0.401067400310872));
#841=CARTESIAN_POINT('Ctrl Pts',(2.62424734192006,6.00000001090888,-0.290555693488638));
#842=CARTESIAN_POINT('Ctrl Pts',(3.19333643848473,6.00000001090888,-0.101583423843383));
#843=CARTESIAN_POINT('Ctrl Pts',(3.55255892337941,6.00000001090888,3.19057262093853E-14));
#844=CARTESIAN_POINT('Ctrl Pts',(3.79605056197891,6.00000001090888,0.));
#845=CARTESIAN_POINT('',(1.09999994049699,6.00000001090889,0.));
#846=CARTESIAN_POINT('',(-1.09999994049699,6.00000001090889,-1.));
#847=CARTESIAN_POINT('',(-1.09999994049698,6.00000001090889,0.));
#848=CARTESIAN_POINT('',(-3.79605056418304,6.00000001021163,0.));
#849=CARTESIAN_POINT('Ctrl Pts',(-3.7960505619789,6.00000001090889,-6.72205346941013E-17));
#850=CARTESIAN_POINT('Ctrl Pts',(-3.63787941171813,6.00000001090889,2.082980455457E-14));
#851=CARTESIAN_POINT('Ctrl Pts',(-3.43842769821467,6.00000001090888,-0.0428637620514403));
#852=CARTESIAN_POINT('Ctrl Pts',(-2.8606759858279,6.00000001090888,-0.196275015106951));
#853=CARTESIAN_POINT('Ctrl Pts',(-2.34128816066852,6.00000001090889,-0.394078023642467));
#854=CARTESIAN_POINT('Ctrl Pts',(-1.59425517759755,6.00000001090889,-0.693874566176604));
#855=CARTESIAN_POINT('Ctrl Pts',(-1.42245512071169,6.00000001090888,-0.771216820094937));
#856=CARTESIAN_POINT('Ctrl Pts',(-1.24752622757218,6.00000001090888,-0.85922979318519));
#857=CARTESIAN_POINT('Ctrl Pts',(-1.19131288064316,6.00000001094813,-0.892302320088065));
#858=CARTESIAN_POINT('Ctrl Pts',(-1.13771459815253,6.00000001094813,-0.935295813439697));
#859=CARTESIAN_POINT('Ctrl Pts',(-1.12295161256754,6.00000001090888,-0.949383878608963));
#860=CARTESIAN_POINT('Ctrl Pts',(-1.10901133666275,6.00000001090888,-0.96976437021116));
#861=CARTESIAN_POINT('Ctrl Pts',(-1.10552027434266,6.00000001090888,-0.976056007203343));
#862=CARTESIAN_POINT('Ctrl Pts',(-1.10117269954947,6.00000001090888,-0.988266173197188));
#863=CARTESIAN_POINT('Ctrl Pts',(-1.09999994049699,6.00000001090889,-0.994063866953699));
#864=CARTESIAN_POINT('Ctrl Pts',(-1.09999994049699,6.00000001090889,-1.));
#865=CARTESIAN_POINT('',(-6.,6.00000001090889,0.));
#866=CARTESIAN_POINT('',(6.,6.00000001090888,0.));
#867=CARTESIAN_POINT('',(-6.,6.00000001090889,0.));
#868=CARTESIAN_POINT('',(3.74999995529652,6.00000001090889,5.0000000372529));
#869=CARTESIAN_POINT('Origin',(-4.47034831374538E-8,6.00000001090888,5.0000000372529));
#870=CARTESIAN_POINT('Origin',(-6.,6.00000001090889,0.));
#871=CARTESIAN_POINT('',(-5.99999999930275,3.79605058142552,0.));
#872=CARTESIAN_POINT('',(-6.,6.00000001090889,0.));
#873=CARTESIAN_POINT('',(-5.99999999999949,1.10000000000277,-1.));
#874=CARTESIAN_POINT('Ctrl Pts',(-6.,1.1,-1.));
#875=CARTESIAN_POINT('Ctrl Pts',(-6.,1.1,-0.993710230853795));
#876=CARTESIAN_POINT('Ctrl Pts',(-6.,1.101316735459,-0.987579523503075));
#877=CARTESIAN_POINT('Ctrl Pts',(-6.,1.10686478904821,-0.972772483230899));
#878=CARTESIAN_POINT('Ctrl Pts',(-6.,1.11226079950003,-0.964387893183245));
#879=CARTESIAN_POINT('Ctrl Pts',(-6.,1.13064541227758,-0.941230930713793));
#880=CARTESIAN_POINT('Ctrl Pts',(-6.00000000000001,1.14833434136974,-0.925992860271917));
#881=CARTESIAN_POINT('Ctrl Pts',(-6.00000000000001,1.21319023199354,-0.878219732078942));
#882=CARTESIAN_POINT('Ctrl Pts',(-6.,1.2820697398912,-0.840163421922986));
#883=CARTESIAN_POINT('Ctrl Pts',(-6.,1.56566804147605,-0.704806716488217));
#884=CARTESIAN_POINT('Ctrl Pts',(-6.,1.86058385142463,-0.585741165567113));
#885=CARTESIAN_POINT('Ctrl Pts',(-6.,2.33114301717484,-0.401067653417787));
#886=CARTESIAN_POINT('Ctrl Pts',(-6.,2.62424650545806,-0.290556012073512));
#887=CARTESIAN_POINT('Ctrl Pts',(-6.,3.19333583613832,-0.101583591799183));
#888=CARTESIAN_POINT('Ctrl Pts',(-6.,3.55255873987486,3.19057526590293E-14));
#889=CARTESIAN_POINT('Ctrl Pts',(-6.,3.79605057922138,0.));
#890=CARTESIAN_POINT('',(-6.,1.09999999999999,0.));
#891=CARTESIAN_POINT('',(-6.,-1.1,-1.));
#892=CARTESIAN_POINT('',(-6.,-1.09999999999999,0.));
#893=CARTESIAN_POINT('',(-5.99999999930275,-3.79605058142551,0.));
#894=CARTESIAN_POINT('Ctrl Pts',(-6.,-3.79605057922138,0.));
#895=CARTESIAN_POINT('Ctrl Pts',(-6.,-3.63787943547492,2.07258255706399E-14));
#896=CARTESIAN_POINT('Ctrl Pts',(-6.,-3.43842773246803,-0.0428637589202145));
#897=CARTESIAN_POINT('Ctrl Pts',(-6.,-2.86067605085551,-0.196275001582682));
#898=CARTESIAN_POINT('Ctrl Pts',(-6.,-2.34128827256752,-0.39407799125176));
#899=CARTESIAN_POINT('Ctrl Pts',(-6.,-1.59425526357209,-0.693874546265868));
#900=CARTESIAN_POINT('Ctrl Pts',(-6.,-1.42245521668067,-0.771216798491238));
#901=CARTESIAN_POINT('Ctrl Pts',(-6.,-1.24752632341286,-0.859229768561835));
#902=CARTESIAN_POINT('Ctrl Pts',(-6.00000000003925,-1.19131296480273,-0.892302300704298));
#903=CARTESIAN_POINT('Ctrl Pts',(-6.00000000003925,-1.13771466926903,-0.935295800756188));
#904=CARTESIAN_POINT('Ctrl Pts',(-6.,-1.12295167919195,-0.949383868790912));
#905=CARTESIAN_POINT('Ctrl Pts',(-6.,-1.10901139903817,-0.969764364358985));
#906=CARTESIAN_POINT('Ctrl Pts',(-6.,-1.10552033559171,-0.976056002608127));
#907=CARTESIAN_POINT('Ctrl Pts',(-6.,-1.10117275944071,-0.988266170962127));
#908=CARTESIAN_POINT('Ctrl Pts',(-6.,-1.09999999999999,-0.994063865810954));
#909=CARTESIAN_POINT('Ctrl Pts',(-6.,-1.09999999999999,-1.));
#910=CARTESIAN_POINT('',(-6.,-5.99999998909112,0.));
#911=CARTESIAN_POINT('',(-6.,6.00000001090889,0.));
#912=CARTESIAN_POINT('',(-6.,-5.99999998909112,0.));
#913=CARTESIAN_POINT('Origin',(-6.,-5.99999998909112,0.));
#914=CARTESIAN_POINT('',(-3.79605059866799,-5.99999998839387,0.));
#915=CARTESIAN_POINT('',(-6.,-5.99999998909112,0.));
#916=CARTESIAN_POINT('',(-1.100000059503,-5.99999998909111,-1.));
#917=CARTESIAN_POINT('Ctrl Pts',(-1.100000059503,-5.99999998909112,-1.));
#918=CARTESIAN_POINT('Ctrl Pts',(-1.100000059503,-5.99999998909112,-0.993710230503474));
#919=CARTESIAN_POINT('Ctrl Pts',(-1.10131679503747,-5.99999998909111,-0.987579522807531));
#920=CARTESIAN_POINT('Ctrl Pts',(-1.10686484894145,-5.99999998909111,-0.97277248166298));
#921=CARTESIAN_POINT('Ctrl Pts',(-1.11226085971651,-5.99999998909112,-0.964387891093541));
#922=CARTESIAN_POINT('Ctrl Pts',(-1.13064547355054,-5.99999998909112,-0.941230927209581));
#923=CARTESIAN_POINT('Ctrl Pts',(-1.14833440364186,-5.99999998909112,-0.925992855809394));
#924=CARTESIAN_POINT('Ctrl Pts',(-1.21319029549555,-5.99999998909112,-0.878219726336621));
#925=CARTESIAN_POINT('Ctrl Pts',(-1.28206980274839,-5.99999998909111,-0.840163415636738));
#926=CARTESIAN_POINT('Ctrl Pts',(-1.56566808184537,-5.99999998909111,-0.704806717880641));
#927=CARTESIAN_POINT('Ctrl Pts',(-1.86058383264184,-5.99999998909111,-0.585741187380904));
#928=CARTESIAN_POINT('Ctrl Pts',(-2.3311429523889,-5.99999998909111,-0.401067688855611));
#929=CARTESIAN_POINT('Ctrl Pts',(-2.62424639393283,-5.99999998909111,-0.290556062728909));
#930=CARTESIAN_POINT('Ctrl Pts',(-3.19333575115942,-5.99999998909111,-0.101583620314273));
#931=CARTESIAN_POINT('Ctrl Pts',(-3.55255872397103,-5.99999998909112,3.19780238678563E-14));
#932=CARTESIAN_POINT('Ctrl Pts',(-3.79605059646385,-5.99999998909112,0.));
#933=CARTESIAN_POINT('',(-1.100000059503,-5.99999998909112,0.));
#934=CARTESIAN_POINT('',(1.10000005950577,-5.99999998909061,-1.));
#935=CARTESIAN_POINT('',(1.100000059503,-5.99999998909112,0.));
#936=CARTESIAN_POINT('',(3.79605059866799,-5.99999998839387,0.));
#937=CARTESIAN_POINT('Ctrl Pts',(3.79605059646386,-5.99999998909112,0.));
#938=CARTESIAN_POINT('Ctrl Pts',(3.63787944883439,-5.99999998909112,2.07727702872308E-14));
#939=CARTESIAN_POINT('Ctrl Pts',(3.43842773956763,-5.99999998909112,-0.0428637614173151));
#940=CARTESIAN_POINT('Ctrl Pts',(2.86067604512587,-5.99999998909112,-0.196275010681958));
#941=CARTESIAN_POINT('Ctrl Pts',(2.34128825314258,-5.99999998909112,-0.394078007989394));
#942=CARTESIAN_POINT('Ctrl Pts',(1.59425525011658,-5.99999998909112,-0.693874569000891));
#943=CARTESIAN_POINT('Ctrl Pts',(1.42245520875451,-5.99999998909112,-0.771216821904385));
#944=CARTESIAN_POINT('Ctrl Pts',(1.24752633457658,-5.99999998909112,-0.859229791922471));
#945=CARTESIAN_POINT('Ctrl Pts',(1.1913129916798,-5.99999998913037,-0.89230231912756));
#946=CARTESIAN_POINT('Ctrl Pts',(1.13771471328329,-5.99999998913037,-0.935295813341109));
#947=CARTESIAN_POINT('Ctrl Pts',(1.12295172920331,-5.99999998909112,-0.949383878534424));
#948=CARTESIAN_POINT('Ctrl Pts',(1.10901145469264,-5.99999998909112,-0.969764370210401));
#949=CARTESIAN_POINT('Ctrl Pts',(1.10552039275752,-5.99999998909112,-0.976056007207233));
#950=CARTESIAN_POINT('Ctrl Pts',(1.10117281842093,-5.99999998909112,-0.988266173206106));
#951=CARTESIAN_POINT('Ctrl Pts',(1.100000059503,-5.99999998909112,-0.994063866972789));
#952=CARTESIAN_POINT('Ctrl Pts',(1.100000059503,-5.99999998909112,-1.));
#953=CARTESIAN_POINT('',(-6.,-5.99999998909112,0.));
#954=CARTESIAN_POINT('Origin',(0.,1.09088849065131E-8,0.));
#955=CARTESIAN_POINT('Ctrl Pts',(-3.79379488267664,-5.99642799558174,0.));
#956=CARTESIAN_POINT('Ctrl Pts',(-4.4094076032826,-5.60766818381332,0.));
#957=CARTESIAN_POINT('Ctrl Pts',(-5.21078820815265,-4.91488010520893,0.));
#958=CARTESIAN_POINT('Ctrl Pts',(-5.82967002951256,-4.06691485874902,0.));
#959=CARTESIAN_POINT('Ctrl Pts',(-6.00038521905904,-3.79629231528594,0.));
#960=CARTESIAN_POINT('Origin',(0.,1.09088849065131E-8,0.));
#961=CARTESIAN_POINT('Ctrl Pts',(-5.99642800625633,3.79379486530088,0.));
#962=CARTESIAN_POINT('Ctrl Pts',(-5.60766819086826,4.40940759564187,0.));
#963=CARTESIAN_POINT('Ctrl Pts',(-4.91488010383943,5.21078821183469,0.));
#964=CARTESIAN_POINT('Ctrl Pts',(-4.06691484497377,5.82967003939598,0.));
#965=CARTESIAN_POINT('Ctrl Pts',(-3.79629229806381,6.00038523000282,0.));
#966=CARTESIAN_POINT('Origin',(0.,1.09088849065131E-8,0.));
#967=CARTESIAN_POINT('Ctrl Pts',(3.79379484809195,5.9964280171944,0.));
#968=CARTESIAN_POINT('Ctrl Pts',(4.40940756550684,5.60766821257321,0.));
#969=CARTESIAN_POINT('Ctrl Pts',(5.21078818567822,4.91488013101722,0.));
#970=CARTESIAN_POINT('Ctrl Pts',(5.82967001875303,4.06691487581221,0.));
#971=CARTESIAN_POINT('Ctrl Pts',(6.00038521903828,3.79629231527286,0.));
#972=CARTESIAN_POINT('Origin',(0.,1.09088849065131E-8,0.));
#973=CARTESIAN_POINT('Ctrl Pts',(5.99642800651982,-3.79379486546772,0.));
#974=CARTESIAN_POINT('Ctrl Pts',(5.60766820551871,-4.4094075731477,0.));
#975=CARTESIAN_POINT('Ctrl Pts',(4.91488013238667,-5.21078818199879,0.));
#976=CARTESIAN_POINT('Ctrl Pts',(4.06691488959222,-5.82967000887262,0.));
#977=CARTESIAN_POINT('Ctrl Pts',(3.79629233249787,-6.00038520809907,0.));
#978=CARTESIAN_POINT('Ctrl Pts',(-6.98360655737719,-1.28032786885248,0.));
#979=CARTESIAN_POINT('Ctrl Pts',(-6.76243943363558,-2.48669399835219,0.));
#980=CARTESIAN_POINT('Ctrl Pts',(-5.50436432259415,-5.16482944807705,0.));
#981=CARTESIAN_POINT('Ctrl Pts',(-2.88881610787013,-6.68871703040282,0.));
#982=CARTESIAN_POINT('Ctrl Pts',(-1.28032793811008,-6.98360654467996,0.));
#983=CARTESIAN_POINT('Ctrl Pts',(-6.91736704625901,-1.26818395848081,4.72896895294025E-15));
#984=CARTESIAN_POINT('Ctrl Pts',(-6.69822127053122,-2.46352455335964,4.73639111975265E-15));
#985=CARTESIAN_POINT('Ctrl Pts',(-5.45208350794796,-5.11601389526209,9.82216816871222E-15));
#986=CARTESIAN_POINT('Ctrl Pts',(-2.86197148404028,-6.62517265023599,4.81467318042545E-15));
#987=CARTESIAN_POINT('Ctrl Pts',(-1.2681840270815,-6.91736703368221,4.80373526049662E-15));
#988=CARTESIAN_POINT('Ctrl Pts',(-6.71024669569088,-1.23021189420999,-0.0547944212182592));
#989=CARTESIAN_POINT('Ctrl Pts',(-6.49775809792873,-2.38924060927628,-0.0547944212182592));
#990=CARTESIAN_POINT('Ctrl Pts',(-5.28892666056458,-4.9626138000159,-0.0547944212182422));
#991=CARTESIAN_POINT('Ctrl Pts',(-2.77558357805284,-6.4269285378122,-0.0547944212182591));
#992=CARTESIAN_POINT('Ctrl Pts',(-1.23021196075663,-6.71024668349066,-0.0547944212182591));
#993=CARTESIAN_POINT('Ctrl Pts',(-6.30768501283661,-1.15640891902004,-0.400161463566476));
#994=CARTESIAN_POINT('Ctrl Pts',(-6.10790414046407,-2.24612276832481,-0.400161463566476));
#995=CARTESIAN_POINT('Ctrl Pts',(-4.9715953729439,-4.66498652382338,-0.400161463566458));
#996=CARTESIAN_POINT('Ctrl Pts',(-2.60936077802225,-6.0413104904594,-0.400161463566475));
#997=CARTESIAN_POINT('Ctrl Pts',(-1.15640898157441,-6.30768500136831,-0.400161463566475));
#998=CARTESIAN_POINT('Ctrl Pts',(-6.09647063116634,-1.11768628238049,-0.700489049086584));
#999=CARTESIAN_POINT('Ctrl Pts',(-5.90340410261669,-2.17077643810588,-0.700489049086584));
#1000=CARTESIAN_POINT('Ctrl Pts',(-4.80514346102297,-4.50872258968746,-0.700489049086575));
#1001=CARTESIAN_POINT('Ctrl Pts',(-2.5218065479371,-5.83904856808803,-0.700489049086584));
#1002=CARTESIAN_POINT('Ctrl Pts',(-1.11768634284021,-6.09647062008206,-0.700489049086584));
#1003=CARTESIAN_POINT('Ctrl Pts',(-6.01319989771891,-1.10241998124846,-0.881776760383743));
#1004=CARTESIAN_POINT('Ctrl Pts',(-5.82275744032553,-2.14119702157603,-0.881776760383743));
#1005=CARTESIAN_POINT('Ctrl Pts',(-4.73949853416933,-4.44716804808329,-0.881776760383738));
#1006=CARTESIAN_POINT('Ctrl Pts',(-2.48745609214998,-5.759276596523,-0.881776760383743));
#1007=CARTESIAN_POINT('Ctrl Pts',(-1.10242004088238,-6.01319988678603,-0.881776760383743));
#1008=CARTESIAN_POINT('Ctrl Pts',(-6.,-1.09999999999999,-0.966328248514925));
#1009=CARTESIAN_POINT('Ctrl Pts',(-5.80998476770275,-2.13644672162139,-0.966328248514925));
#1010=CARTESIAN_POINT('Ctrl Pts',(-4.72910324039653,-4.43738507911908,-0.966328248514924));
#1011=CARTESIAN_POINT('Ctrl Pts',(-2.48192901916799,-5.74664633232041,-0.966328248514925));
#1012=CARTESIAN_POINT('Ctrl Pts',(-1.100000059503,-5.99999998909112,-0.966328248514925));
#1013=CARTESIAN_POINT('Ctrl Pts',(-6.,-1.09999999999999,-1.));
#1014=CARTESIAN_POINT('Ctrl Pts',(-5.80998317537693,-2.13645540703495,-1.));
#1015=CARTESIAN_POINT('Ctrl Pts',(-4.7291017419469,-4.43738868074208,-1.));
#1016=CARTESIAN_POINT('Ctrl Pts',(-2.48194059971939,-5.74664420921921,-1.));
#1017=CARTESIAN_POINT('Ctrl Pts',(-1.100000059503,-5.99999998909112,-1.));
#1018=CARTESIAN_POINT('Ctrl Pts',(-6.,-1.09999999999999,-1.));
#1019=CARTESIAN_POINT('Ctrl Pts',(-5.80998317537693,-2.13645540703495,-1.));
#1020=CARTESIAN_POINT('Ctrl Pts',(-4.7291017419469,-4.43738868074208,-1.));
#1021=CARTESIAN_POINT('Ctrl Pts',(-2.48194059971939,-5.74664420921921,-1.));
#1022=CARTESIAN_POINT('Ctrl Pts',(-1.100000059503,-5.99999998909112,-1.));
#1023=CARTESIAN_POINT('Ctrl Pts',(1.28032793811005,-6.98360654467982,0.));
#1024=CARTESIAN_POINT('Ctrl Pts',(2.48669406546177,-6.76243940896616,0.));
#1025=CARTESIAN_POINT('Ctrl Pts',(5.16482950265385,-5.50436427137155,0.));
#1026=CARTESIAN_POINT('Ctrl Pts',(6.68871705904986,-2.88881604154704,0.));
#1027=CARTESIAN_POINT('Ctrl Pts',(6.98360655737719,-1.28032786885248,0.));
#1028=CARTESIAN_POINT('Ctrl Pts',(1.26818402708147,-6.91736703368208,0.));
#1029=CARTESIAN_POINT('Ctrl Pts',(2.46352461983195,-6.69822124609166,0.));
#1030=CARTESIAN_POINT('Ctrl Pts',(5.11601394932052,-5.45208345720949,1.03563272160655E-14));
#1031=CARTESIAN_POINT('Ctrl Pts',(6.62517267861682,-2.86197141834727,4.89048120571531E-15));
#1032=CARTESIAN_POINT('Ctrl Pts',(6.91736704625901,-1.26818395848081,4.87850156805298E-15));
#1033=CARTESIAN_POINT('Ctrl Pts',(1.23021196075661,-6.71024668349056,-0.0547944212182752));
#1034=CARTESIAN_POINT('Ctrl Pts',(2.38924067375921,-6.49775807422613,-0.0547944212182752));
#1035=CARTESIAN_POINT('Ctrl Pts',(4.9626138524566,-5.28892661134746,-0.0547944212182404));
#1036=CARTESIAN_POINT('Ctrl Pts',(6.42692856533636,-2.77558351432556,-0.0547944212182588));
#1037=CARTESIAN_POINT('Ctrl Pts',(6.71024669569088,-1.23021189420999,-0.0547944212182588));
#1038=CARTESIAN_POINT('Ctrl Pts',(1.1564089815744,-6.30768500136826,-0.400161463566492));
#1039=CARTESIAN_POINT('Ctrl Pts',(2.2461228289389,-6.10790411818133,-0.400161463566492));
#1040=CARTESIAN_POINT('Ctrl Pts',(4.66498657311768,-4.97159532667853,-0.400161463566457));
#1041=CARTESIAN_POINT('Ctrl Pts',(6.0413105163352,-2.60936071811862,-0.400161463566475));
#1042=CARTESIAN_POINT('Ctrl Pts',(6.30768501283661,-1.15640891902004,-0.400161463566475));
#1043=CARTESIAN_POINT('Ctrl Pts',(1.1176863428402,-6.09647062008204,-0.700489049086593));
#1044=CARTESIAN_POINT('Ctrl Pts',(2.17077649669054,-5.90340408108145,-0.700489049086593));
#1045=CARTESIAN_POINT('Ctrl Pts',(4.50872263733136,-4.80514341630735,-0.700489049086574));
#1046=CARTESIAN_POINT('Ctrl Pts',(5.8390485930956,-2.52180649003904,-0.700489049086584));
#1047=CARTESIAN_POINT('Ctrl Pts',(6.09647063116634,-1.11768628238049,-0.700489049086584));
#1048=CARTESIAN_POINT('Ctrl Pts',(1.10242004088237,-6.01319988678603,-0.881776760383747));
#1049=CARTESIAN_POINT('Ctrl Pts',(2.14119707936036,-5.82275741908375,-0.881776760383747));
#1050=CARTESIAN_POINT('Ctrl Pts',(4.4471680950763,-4.73949849006419,-0.881776760383738));
#1051=CARTESIAN_POINT('Ctrl Pts',(5.75927662118993,-2.48745603504291,-0.881776760383743));
#1052=CARTESIAN_POINT('Ctrl Pts',(6.01319989771891,-1.10241998124846,-0.881776760383743));
#1053=CARTESIAN_POINT('Ctrl Pts',(1.100000059503,-5.99999998909112,-0.966328248514926));
#1054=CARTESIAN_POINT('Ctrl Pts',(2.13644677927896,-5.8099847465081,-0.966328248514926));
#1055=CARTESIAN_POINT('Ctrl Pts',(4.43738512600903,-4.7291031963884,-0.966328248514924));
#1056=CARTESIAN_POINT('Ctrl Pts',(5.74664635693254,-2.48192896218616,-0.966328248514925));
#1057=CARTESIAN_POINT('Ctrl Pts',(6.,-1.1,-0.966328248514925));
#1058=CARTESIAN_POINT('Ctrl Pts',(1.100000059503,-5.99999998909112,-1.));
#1059=CARTESIAN_POINT('Ctrl Pts',(2.13645546469251,-5.80998315418219,-1.));
#1060=CARTESIAN_POINT('Ctrl Pts',(4.43738872763201,-4.72910169793874,-1.));
#1061=CARTESIAN_POINT('Ctrl Pts',(5.74664423383145,-2.48194054273757,-1.));
#1062=CARTESIAN_POINT('Ctrl Pts',(6.,-1.1,-1.));
#1063=CARTESIAN_POINT('Ctrl Pts',(1.100000059503,-5.99999998909112,-1.));
#1064=CARTESIAN_POINT('Ctrl Pts',(2.13645546469251,-5.80998315418219,-1.));
#1065=CARTESIAN_POINT('Ctrl Pts',(4.43738872763201,-4.72910169793874,-1.));
#1066=CARTESIAN_POINT('Ctrl Pts',(5.74664423383145,-2.48194054273757,-1.));
#1067=CARTESIAN_POINT('Ctrl Pts',(6.,-1.1,-1.));
#1068=CARTESIAN_POINT('Ctrl Pts',(-1.28032779959488,6.98360657007442,0.));
#1069=CARTESIAN_POINT('Ctrl Pts',(-2.48669395114336,6.76243945465638,0.));
#1070=CARTESIAN_POINT('Ctrl Pts',(-5.16482945508164,5.50436433680078,0.));
#1071=CARTESIAN_POINT('Ctrl Pts',(-6.68871705420194,2.88881606798943,0.));
#1072=CARTESIAN_POINT('Ctrl Pts',(-6.98360655737705,1.28032786885246,0.));
#1073=CARTESIAN_POINT('Ctrl Pts',(-1.26818388988012,6.9173670588358,4.80373526049662E-15));
#1074=CARTESIAN_POINT('Ctrl Pts',(-2.46352450660621,6.69822129135552,4.80900891300144E-15));
#1075=CARTESIAN_POINT('Ctrl Pts',(-5.11601390219629,5.45208352201635,1.06598151196947E-14));
#1076=CARTESIAN_POINT('Ctrl Pts',(-6.62517267381322,2.861971444548,0.));
#1077=CARTESIAN_POINT('Ctrl Pts',(-6.91736704625887,1.26818395848079,0.));
#1078=CARTESIAN_POINT('Ctrl Pts',(-1.23021182766334,6.7102467078911,-0.0547944212182591));
#1079=CARTESIAN_POINT('Ctrl Pts',(-2.38924056391322,6.49775811812591,-0.0547944212182591));
#1080=CARTESIAN_POINT('Ctrl Pts',(-4.96261380674741,5.28892667421608,-0.0547944212182394));
#1081=CARTESIAN_POINT('Ctrl Pts',(-6.4269285606787,2.77558353973037,-0.0547944212182752));
#1082=CARTESIAN_POINT('Ctrl Pts',(-6.71024669569077,1.23021189420997,-0.0547944212182752));
#1083=CARTESIAN_POINT('Ctrl Pts',(-1.15640885646567,6.30768502430491,-0.400161463566475));
#1084=CARTESIAN_POINT('Ctrl Pts',(-2.24612272568716,6.10790415945108,-0.400161463566475));
#1085=CARTESIAN_POINT('Ctrl Pts',(-4.66498653014898,4.97159538577461,-0.400161463566456));
#1086=CARTESIAN_POINT('Ctrl Pts',(-6.04131051195615,2.60936074200412,-0.400161463566492));
#1087=CARTESIAN_POINT('Ctrl Pts',(-6.30768501283656,1.15640891902004,-0.400161463566492));
#1088=CARTESIAN_POINT('Ctrl Pts',(-1.11768622192076,6.09647064225062,-0.700489049086584));
#1089=CARTESIAN_POINT('Ctrl Pts',(-2.17077639689351,5.90340412096698,-0.700489049086584));
#1090=CARTESIAN_POINT('Ctrl Pts',(-4.50872259580251,4.80514347342516,-0.700489049086573));
#1091=CARTESIAN_POINT('Ctrl Pts',(-5.83904858886375,2.52180651312179,-0.700489049086593));
#1092=CARTESIAN_POINT('Ctrl Pts',(-6.09647063116632,1.11768628238049,-0.700489049086593));
#1093=CARTESIAN_POINT('Ctrl Pts',(-1.10241992161455,6.0131999086518,-0.881776760383743));
#1094=CARTESIAN_POINT('Ctrl Pts',(-2.14119698092786,5.82275745842567,-0.881776760383743));
#1095=CARTESIAN_POINT('Ctrl Pts',(-4.44716805411414,4.73949854640153,-0.881776760383738));
#1096=CARTESIAN_POINT('Ctrl Pts',(-5.75927661701561,2.48745605781194,-0.881776760383747));
#1097=CARTESIAN_POINT('Ctrl Pts',(-6.01319989771891,1.10241998124847,-0.881776760383747));
#1098=CARTESIAN_POINT('Ctrl Pts',(-1.09999994049698,6.00000001090889,-0.966328248514925));
#1099=CARTESIAN_POINT('Ctrl Pts',(-2.13644668106154,5.80998478576281,-0.966328248514925));
#1100=CARTESIAN_POINT('Ctrl Pts',(-4.43738508513717,4.72910325260229,-0.966328248514924));
#1101=CARTESIAN_POINT('Ctrl Pts',(-5.74664635276758,2.4819289849041,-0.966328248514926));
#1102=CARTESIAN_POINT('Ctrl Pts',(-6.,1.1,-0.966328248514926));
#1103=CARTESIAN_POINT('Ctrl Pts',(-1.09999994049698,6.00000001090889,-1.));
#1104=CARTESIAN_POINT('Ctrl Pts',(-2.13645536647526,5.80998319343705,-1.));
#1105=CARTESIAN_POINT('Ctrl Pts',(-4.43738868676009,4.7291017541526,-1.));
#1106=CARTESIAN_POINT('Ctrl Pts',(-5.74664422966645,2.48194056545571,-1.));
#1107=CARTESIAN_POINT('Ctrl Pts',(-6.,1.1,-1.));
#1108=CARTESIAN_POINT('Ctrl Pts',(-1.09999994049698,6.00000001090889,-1.));
#1109=CARTESIAN_POINT('Ctrl Pts',(-2.13645536647526,5.80998319343705,-1.));
#1110=CARTESIAN_POINT('Ctrl Pts',(-4.43738868676009,4.7291017541526,-1.));
#1111=CARTESIAN_POINT('Ctrl Pts',(-5.74664422966645,2.48194056545571,-1.));
#1112=CARTESIAN_POINT('Ctrl Pts',(-6.,1.1,-1.));
#1113=CARTESIAN_POINT('Origin',(0.,0.,0.));
#1114=CARTESIAN_POINT('',(-6.1,7.47034547479885E-16,0.));
#1115=CARTESIAN_POINT('Ctrl Pts',(6.,1.09999999999999,-1.));
#1116=CARTESIAN_POINT('Ctrl Pts',(5.80998317224789,2.13645542410243,-1.));
#1117=CARTESIAN_POINT('Ctrl Pts',(4.72910171014487,4.43738873365745,-1.));
#1118=CARTESIAN_POINT('Ctrl Pts',(2.48194050846984,5.74664425427944,-1.));
#1119=CARTESIAN_POINT('Ctrl Pts',(1.09999994049699,6.00000001090888,-1.));
#1120=CARTESIAN_POINT('Ctrl Pts',(6.98360655737705,1.28032786885245,0.));
#1121=CARTESIAN_POINT('Ctrl Pts',(6.76243942999345,2.48669401821758,0.));
#1122=CARTESIAN_POINT('Ctrl Pts',(5.50436428557869,5.16482950966711,0.));
#1123=CARTESIAN_POINT('Ctrl Pts',(2.88881600166161,6.68871708284984,0.));
#1124=CARTESIAN_POINT('Ctrl Pts',(1.28032779959486,6.98360657007428,0.));
#1125=CARTESIAN_POINT('Ctrl Pts',(6.91736704625887,1.26818395848079,0.));
#1126=CARTESIAN_POINT('Ctrl Pts',(6.69822126692238,2.46352457304347,0.));
#1127=CARTESIAN_POINT('Ctrl Pts',(5.45208347127838,5.11601395626329,1.13874496265636E-14));
#1128=CARTESIAN_POINT('Ctrl Pts',(2.86197137885032,6.6251727021949,0.));
#1129=CARTESIAN_POINT('Ctrl Pts',(1.2681838898801,6.91736705883566,0.));
#1130=CARTESIAN_POINT('Ctrl Pts',(6.71024669569077,1.23021189420997,-0.0547944212182752));
#1131=CARTESIAN_POINT('Ctrl Pts',(6.49775809442954,2.38924062836217,-0.0547944212182752));
#1132=CARTESIAN_POINT('Ctrl Pts',(5.28892662499946,4.96261385919642,-0.0547944212182369));
#1133=CARTESIAN_POINT('Ctrl Pts',(2.77558347599853,6.4269285882037,-0.0547944212182752));
#1134=CARTESIAN_POINT('Ctrl Pts',(1.23021182766333,6.71024670789099,-0.0547944212182752));
#1135=CARTESIAN_POINT('Ctrl Pts',(6.30768501283657,1.15640891902003,-0.400161463566492));
#1136=CARTESIAN_POINT('Ctrl Pts',(6.1079041371742,2.24612278626929,-0.400161463566492));
#1137=CARTESIAN_POINT('Ctrl Pts',(4.97159533950969,4.6649865794511,-0.400161463566453));
#1138=CARTESIAN_POINT('Ctrl Pts',(2.60936068209624,6.04131053783274,-0.400161463566492));
#1139=CARTESIAN_POINT('Ctrl Pts',(1.15640885646566,6.30768502430487,-0.400161463566492));
#1140=CARTESIAN_POINT('Ctrl Pts',(6.09647063116632,1.11768628238049,-0.700489049086593));
#1141=CARTESIAN_POINT('Ctrl Pts',(5.90340409943741,2.17077645544728,-0.700489049086593));
#1142=CARTESIAN_POINT('Ctrl Pts',(4.80514342870998,4.50872264345396,-0.700489049086571));
#1143=CARTESIAN_POINT('Ctrl Pts',(2.5218064552196,5.83904861387208,-0.700489049086593));
#1144=CARTESIAN_POINT('Ctrl Pts',(1.11768622192077,6.09647064225061,-0.700489049086593));
#1145=CARTESIAN_POINT('Ctrl Pts',(6.01319989771891,1.10241998124846,-0.881776760383747));
#1146=CARTESIAN_POINT('Ctrl Pts',(5.82275743718948,2.14119703868173,-0.881776760383747));
#1147=CARTESIAN_POINT('Ctrl Pts',(4.73949850229682,4.44716810111461,-0.881776760383737));
#1148=CARTESIAN_POINT('Ctrl Pts',(2.4874560007008,5.75927664168329,-0.881776760383747));
#1149=CARTESIAN_POINT('Ctrl Pts',(1.10241992161455,6.01319990865179,-0.881776760383747));
#1150=CARTESIAN_POINT('Ctrl Pts',(6.,1.09999999999999,-0.966328248514926));
#1151=CARTESIAN_POINT('Ctrl Pts',(5.80998476457373,2.13644673868872,-0.966328248514926));
#1152=CARTESIAN_POINT('Ctrl Pts',(4.7291032085946,4.43738513203455,-0.966328248514924));
#1153=CARTESIAN_POINT('Ctrl Pts',(2.48192892791821,5.74664637738045,-0.966328248514926));
#1154=CARTESIAN_POINT('Ctrl Pts',(1.09999994049699,6.00000001090888,-0.966328248514926));
#1155=CARTESIAN_POINT('Ctrl Pts',(6.,1.09999999999999,-1.));
#1156=CARTESIAN_POINT('Ctrl Pts',(5.80998317224789,2.13645542410243,-1.));
#1157=CARTESIAN_POINT('Ctrl Pts',(4.72910171014487,4.43738873365745,-1.));
#1158=CARTESIAN_POINT('Ctrl Pts',(2.48194050846984,5.74664425427944,-1.));
#1159=CARTESIAN_POINT('Ctrl Pts',(1.09999994049699,6.00000001090888,-1.));
#1160=CARTESIAN_POINT('Origin',(-4.47034831374538E-8,6.00000001090889,5.0000000372529));
#1161=CARTESIAN_POINT('',(3.24999995529652,11.0000000109089,5.0000000372529));
#1162=CARTESIAN_POINT('Origin',(-4.47034831374538E-8,11.0000000109089,5.0000000372529));
#1163=CARTESIAN_POINT('',(3.24999995529652,6.00000001090889,5.0000000372529));
#1164=CARTESIAN_POINT('Origin',(-4.47034831374538E-8,11.0000000109089,5.0000000372529));
#1165=CARTESIAN_POINT('',(3.74999995529652,11.0000000109089,5.0000000372529));
#1166=CARTESIAN_POINT('Origin',(-4.47034831374538E-8,11.0000000109089,5.0000000372529));
#1167=CARTESIAN_POINT('Origin',(-4.47034831374538E-8,6.00000001090889,5.0000000372529));
#1168=CARTESIAN_POINT('',(3.74999995529652,6.00000001090889,5.0000000372529));
#1169=UNCERTAINTY_MEASURE_WITH_UNIT(LENGTH_MEASURE(0.01),#1173,
'DISTANCE_ACCURACY_VALUE',
'Maximum model space distance between geometric entities at asserted c
onnectivities');
#1170=UNCERTAINTY_MEASURE_WITH_UNIT(LENGTH_MEASURE(0.01),#1173,
'DISTANCE_ACCURACY_VALUE',
'Maximum model space distance between geometric entities at asserted c
onnectivities');
#1171=(
GEOMETRIC_REPRESENTATION_CONTEXT(3)
GLOBAL_UNCERTAINTY_ASSIGNED_CONTEXT((#1169))
GLOBAL_UNIT_ASSIGNED_CONTEXT((#1173,#1175,#1176))
REPRESENTATION_CONTEXT('','3D')
);
#1172=(
GEOMETRIC_REPRESENTATION_CONTEXT(3)
GLOBAL_UNCERTAINTY_ASSIGNED_CONTEXT((#1170))
GLOBAL_UNIT_ASSIGNED_CONTEXT((#1173,#1175,#1176))
REPRESENTATION_CONTEXT('','3D')
);
#1173=(
LENGTH_UNIT()
NAMED_UNIT(*)
SI_UNIT(.MILLI.,.METRE.)
);
#1174=(
LENGTH_UNIT()
NAMED_UNIT(*)
SI_UNIT($,.METRE.)
);
#1175=(
NAMED_UNIT(*)
PLANE_ANGLE_UNIT()
SI_UNIT($,.RADIAN.)
);
#1176=(
NAMED_UNIT(*)
SI_UNIT($,.STERADIAN.)
SOLID_ANGLE_UNIT()
);
#1177=SHAPE_DEFINITION_REPRESENTATION(#1178,#1179);
#1178=PRODUCT_DEFINITION_SHAPE('',$,#1181);
#1179=SHAPE_REPRESENTATION('',(#518),#1171);
#1180=PRODUCT_DEFINITION_CONTEXT('part definition',#1185,'design');
#1181=PRODUCT_DEFINITION('2026-09-24-10-30-51-446','Barrel_1_Ver2',#1182,
#1180);
#1182=PRODUCT_DEFINITION_FORMATION('',$,#1187);
#1183=PRODUCT_RELATED_PRODUCT_CATEGORY('Barrel_1_Ver2','Barrel_1_Ver2',
(#1187));
#1184=APPLICATION_PROTOCOL_DEFINITION('international standard',
'automotive_design',2009,#1185);
#1185=APPLICATION_CONTEXT(
'Core Data for Automotive Mechanical Design Process');
#1186=PRODUCT_CONTEXT('part definition',#1185,'mechanical');
#1187=PRODUCT('2026-09-24-10-30-51-446','Barrel_1_Ver2',$,(#1186));
#1188=PRESENTATION_STYLE_ASSIGNMENT((#1189));
#1189=SURFACE_STYLE_USAGE(.BOTH.,#1190);
#1190=SURFACE_SIDE_STYLE('',(#1191));
#1191=SURFACE_STYLE_FILL_AREA(#1192);
#1192=FILL_AREA_STYLE('Steel - Satin',(#1193));
#1193=FILL_AREA_STYLE_COLOUR('Steel - Satin',#1194);
#1194=COLOUR_RGB('Steel - Satin',0.627450980392157,0.627450980392157,0.627450980392157);
ENDSEC;
END-ISO-10303-21;
