ISO-10303-21;
HEADER;
/* Generated by software containing ST-Developer
 * from STEP Tools, Inc. (www.steptools.com) 
 */

FILE_DESCRIPTION(
/* description */ (''),
/* implementation_level */ '2;1');

FILE_NAME(
/* name */ 'Barrel_1_Final.step',
/* time_stamp */ '2026-09-21T20:25:50+05:30',
/* author */ (''),
/* organization */ (''),
/* preprocessor_version */ 'ST-DEVELOPER v20.2',
/* originating_system */ 'Autodesk Translation Framework v15.15.0.0',
/* authorisation */ '');

FILE_SCHEMA (('AUTOMOTIVE_DESIGN { 1 0 10303 214 3 1 1 }'));
ENDSEC;

DATA;
#10=MECHANICAL_DESIGN_GEOMETRIC_PRESENTATION_REPRESENTATION('',(#13,#14),
#674);
#11=SHAPE_REPRESENTATION_RELATIONSHIP('SRR','None',#681,#12);
#12=ADVANCED_BREP_SHAPE_REPRESENTATION('',(#15,#16),#673);
#13=STYLED_ITEM('',(#690),#15);
#14=STYLED_ITEM('',(#690),#16);
#15=MANIFOLD_SOLID_BREP('Body4',#366);
#16=MANIFOLD_SOLID_BREP('Body4',#367);
#17=PLANE('',#393);
#18=PLANE('',#396);
#19=PLANE('',#397);
#20=PLANE('',#398);
#21=PLANE('',#399);
#22=PLANE('',#400);
#23=PLANE('',#401);
#24=PLANE('',#406);
#25=PLANE('',#409);
#26=PLANE('',#411);
#27=PLANE('',#415);
#28=PLANE('',#416);
#29=PLANE('',#419);
#30=FACE_BOUND('',#121,.T.);
#31=FACE_BOUND('',#128,.T.);
#32=FACE_BOUND('',#131,.T.);
#33=FACE_BOUND('',#133,.T.);
#34=FACE_BOUND('',#141,.T.);
#35=FACE_BOUND('',#143,.T.);
#36=FACE_BOUND('',#145,.T.);
#37=B_SPLINE_CURVE_WITH_KNOTS('',3,(#558,#559,#560,#561,#562,#563,#564,
#565,#566,#567,#568,#569,#570,#571,#572,#573,#574,#575,#576,#577,#578,#579,
#580,#581,#582,#583,#584,#585,#586,#587,#588,#589,#590,#591),
 .UNSPECIFIED.,.T.,.F.,(4,2,2,2,2,2,2,2,2,2,2,2,2,2,2,2,4),(0.,0.13960239126355,
0.2792047825271,0.416581003280225,0.553957224033349,0.691333444786474,0.828709665539599,
0.968312056803149,1.1079144480667,1.24751683933025,1.3871192305938,1.52449545134692,
1.66187167210005,1.79924789285317,1.9366241136063,2.07622650486985,2.2158288961334),
 .UNSPECIFIED.);
#38=LINE('',#551,#64);
#39=LINE('',#553,#65);
#40=LINE('',#556,#66);
#41=LINE('',#600,#67);
#42=LINE('',#602,#68);
#43=LINE('',#603,#69);
#44=LINE('',#606,#70);
#45=LINE('',#611,#71);
#46=LINE('',#613,#72);
#47=LINE('',#615,#73);
#48=LINE('',#616,#74);
#49=LINE('',#619,#75);
#50=LINE('',#621,#76);
#51=LINE('',#622,#77);
#52=LINE('',#625,#78);
#53=LINE('',#627,#79);
#54=LINE('',#628,#80);
#55=LINE('',#630,#81);
#56=LINE('',#631,#82);
#57=LINE('',#637,#83);
#58=LINE('',#642,#84);
#59=LINE('',#644,#85);
#60=LINE('',#645,#86);
#61=LINE('',#655,#87);
#62=LINE('',#668,#88);
#63=LINE('',#670,#89);
#64=VECTOR('',#440,4.9);
#65=VECTOR('',#441,10.);
#66=VECTOR('',#444,10.);
#67=VECTOR('',#455,10.);
#68=VECTOR('',#456,10.);
#69=VECTOR('',#457,10.);
#70=VECTOR('',#460,3.5);
#71=VECTOR('',#465,10.);
#72=VECTOR('',#466,10.);
#73=VECTOR('',#467,10.);
#74=VECTOR('',#468,10.);
#75=VECTOR('',#471,10.);
#76=VECTOR('',#472,10.);
#77=VECTOR('',#473,10.);
#78=VECTOR('',#476,10.);
#79=VECTOR('',#477,10.);
#80=VECTOR('',#478,10.);
#81=VECTOR('',#481,10.);
#82=VECTOR('',#482,10.);
#83=VECTOR('',#491,4.9);
#84=VECTOR('',#498,10.);
#85=VECTOR('',#499,10.);
#86=VECTOR('',#500,10.);
#87=VECTOR('',#517,4.9);
#88=VECTOR('',#534,4.9);
#89=VECTOR('',#537,4.9);
#90=CYLINDRICAL_SURFACE('',#386,4.9);
#91=CYLINDRICAL_SURFACE('',#394,3.5);
#92=CYLINDRICAL_SURFACE('',#403,4.9);
#93=CYLINDRICAL_SURFACE('',#407,3.9);
#94=CYLINDRICAL_SURFACE('',#413,4.4);
#95=CYLINDRICAL_SURFACE('',#422,4.9);
#96=CYLINDRICAL_SURFACE('',#423,4.3);
#97=FACE_OUTER_BOUND('',#119,.T.);
#98=FACE_OUTER_BOUND('',#120,.T.);
#99=FACE_OUTER_BOUND('',#122,.T.);
#100=FACE_OUTER_BOUND('',#123,.T.);
#101=FACE_OUTER_BOUND('',#124,.T.);
#102=FACE_OUTER_BOUND('',#125,.T.);
#103=FACE_OUTER_BOUND('',#126,.T.);
#104=FACE_OUTER_BOUND('',#127,.T.);
#105=FACE_OUTER_BOUND('',#129,.T.);
#106=FACE_OUTER_BOUND('',#130,.T.);
#107=FACE_OUTER_BOUND('',#132,.T.);
#108=FACE_OUTER_BOUND('',#134,.T.);
#109=FACE_OUTER_BOUND('',#135,.T.);
#110=FACE_OUTER_BOUND('',#136,.T.);
#111=FACE_OUTER_BOUND('',#137,.T.);
#112=FACE_OUTER_BOUND('',#138,.T.);
#113=FACE_OUTER_BOUND('',#139,.T.);
#114=FACE_OUTER_BOUND('',#140,.T.);
#115=FACE_OUTER_BOUND('',#142,.T.);
#116=FACE_OUTER_BOUND('',#144,.T.);
#117=FACE_OUTER_BOUND('',#146,.T.);
#118=FACE_OUTER_BOUND('',#147,.T.);
#119=EDGE_LOOP('',(#246,#247,#248,#249));
#120=EDGE_LOOP('',(#250,#251,#252,#253,#254,#255,#256));
#121=EDGE_LOOP('',(#257));
#122=EDGE_LOOP('',(#258,#259,#260,#261));
#123=EDGE_LOOP('',(#262,#263,#264,#265,#266,#267));
#124=EDGE_LOOP('',(#268,#269,#270,#271));
#125=EDGE_LOOP('',(#272,#273,#274,#275));
#126=EDGE_LOOP('',(#276,#277,#278,#279));
#127=EDGE_LOOP('',(#280,#281,#282,#283));
#128=EDGE_LOOP('',(#284));
#129=EDGE_LOOP('',(#285,#286,#287,#288));
#130=EDGE_LOOP('',(#289,#290,#291,#292));
#131=EDGE_LOOP('',(#293));
#132=EDGE_LOOP('',(#294,#295,#296,#297));
#133=EDGE_LOOP('',(#298,#299));
#134=EDGE_LOOP('',(#300,#301,#302,#303,#304));
#135=EDGE_LOOP('',(#305,#306,#307,#308,#309,#310));
#136=EDGE_LOOP('',(#311,#312,#313,#314));
#137=EDGE_LOOP('',(#315,#316,#317,#318));
#138=EDGE_LOOP('',(#319,#320,#321,#322));
#139=EDGE_LOOP('',(#323,#324,#325,#326,#327));
#140=EDGE_LOOP('',(#328));
#141=EDGE_LOOP('',(#329));
#142=EDGE_LOOP('',(#330));
#143=EDGE_LOOP('',(#331));
#144=EDGE_LOOP('',(#332));
#145=EDGE_LOOP('',(#333));
#146=EDGE_LOOP('',(#334,#335,#336,#337));
#147=EDGE_LOOP('',(#338,#339,#340,#341));
#148=CIRCLE('',#382,0.5);
#149=CIRCLE('',#383,4.9);
#150=CIRCLE('',#384,0.5);
#151=CIRCLE('',#385,4.4);
#152=CIRCLE('',#387,4.9);
#153=CIRCLE('',#388,4.9);
#154=CIRCLE('',#390,0.5);
#155=CIRCLE('',#391,0.5);
#156=CIRCLE('',#392,3.9);
#157=CIRCLE('',#395,3.5);
#158=CIRCLE('',#402,4.9);
#159=CIRCLE('',#404,4.9);
#160=CIRCLE('',#405,4.9);
#161=CIRCLE('',#408,3.9);
#162=CIRCLE('',#410,4.4);
#163=CIRCLE('',#412,4.4);
#164=CIRCLE('',#414,4.4);
#165=CIRCLE('',#417,4.9);
#166=CIRCLE('',#418,4.3);
#167=CIRCLE('',#420,4.9);
#168=CIRCLE('',#421,4.3);
#169=VERTEX_POINT('',#540);
#170=VERTEX_POINT('',#541);
#171=VERTEX_POINT('',#543);
#172=VERTEX_POINT('',#545);
#173=VERTEX_POINT('',#549);
#174=VERTEX_POINT('',#552);
#175=VERTEX_POINT('',#554);
#176=VERTEX_POINT('',#557);
#177=VERTEX_POINT('',#593);
#178=VERTEX_POINT('',#595);
#179=VERTEX_POINT('',#599);
#180=VERTEX_POINT('',#601);
#181=VERTEX_POINT('',#605);
#182=VERTEX_POINT('',#609);
#183=VERTEX_POINT('',#610);
#184=VERTEX_POINT('',#612);
#185=VERTEX_POINT('',#614);
#186=VERTEX_POINT('',#618);
#187=VERTEX_POINT('',#620);
#188=VERTEX_POINT('',#624);
#189=VERTEX_POINT('',#626);
#190=VERTEX_POINT('',#636);
#191=VERTEX_POINT('',#641);
#192=VERTEX_POINT('',#643);
#193=VERTEX_POINT('',#653);
#194=VERTEX_POINT('',#658);
#195=VERTEX_POINT('',#660);
#196=VERTEX_POINT('',#663);
#197=VERTEX_POINT('',#665);
#198=EDGE_CURVE('',#169,#170,#148,.T.);
#199=EDGE_CURVE('',#170,#171,#149,.T.);
#200=EDGE_CURVE('',#171,#172,#150,.T.);
#201=EDGE_CURVE('',#169,#172,#151,.T.);
#202=EDGE_CURVE('',#173,#173,#152,.T.);
#203=EDGE_CURVE('',#173,#170,#38,.T.);
#204=EDGE_CURVE('',#174,#170,#39,.T.);
#205=EDGE_CURVE('',#175,#174,#153,.T.);
#206=EDGE_CURVE('',#175,#171,#40,.T.);
#207=EDGE_CURVE('',#176,#176,#37,.T.);
#208=EDGE_CURVE('',#177,#169,#154,.T.);
#209=EDGE_CURVE('',#172,#178,#155,.T.);
#210=EDGE_CURVE('',#178,#177,#156,.T.);
#211=EDGE_CURVE('',#179,#177,#41,.T.);
#212=EDGE_CURVE('',#179,#180,#42,.T.);
#213=EDGE_CURVE('',#174,#180,#43,.T.);
#214=EDGE_CURVE('',#176,#181,#44,.T.);
#215=EDGE_CURVE('',#181,#181,#157,.T.);
#216=EDGE_CURVE('',#182,#183,#45,.T.);
#217=EDGE_CURVE('',#183,#184,#46,.T.);
#218=EDGE_CURVE('',#185,#184,#47,.T.);
#219=EDGE_CURVE('',#182,#185,#48,.T.);
#220=EDGE_CURVE('',#186,#182,#49,.T.);
#221=EDGE_CURVE('',#187,#185,#50,.T.);
#222=EDGE_CURVE('',#186,#187,#51,.T.);
#223=EDGE_CURVE('',#188,#186,#52,.T.);
#224=EDGE_CURVE('',#189,#187,#53,.T.);
#225=EDGE_CURVE('',#188,#189,#54,.T.);
#226=EDGE_CURVE('',#183,#188,#55,.T.);
#227=EDGE_CURVE('',#184,#189,#56,.T.);
#228=EDGE_CURVE('',#175,#174,#158,.T.);
#229=EDGE_CURVE('',#174,#190,#57,.T.);
#230=EDGE_CURVE('',#190,#190,#159,.T.);
#231=EDGE_CURVE('',#175,#174,#160,.T.);
#232=EDGE_CURVE('',#191,#175,#58,.T.);
#233=EDGE_CURVE('',#192,#191,#59,.T.);
#234=EDGE_CURVE('',#192,#178,#60,.T.);
#235=EDGE_CURVE('',#179,#192,#161,.T.);
#236=EDGE_CURVE('',#191,#180,#162,.T.);
#237=EDGE_CURVE('',#180,#191,#163,.T.);
#238=EDGE_CURVE('',#193,#193,#164,.T.);
#239=EDGE_CURVE('',#193,#180,#61,.T.);
#240=EDGE_CURVE('',#194,#194,#165,.T.);
#241=EDGE_CURVE('',#195,#195,#166,.T.);
#242=EDGE_CURVE('',#196,#196,#167,.T.);
#243=EDGE_CURVE('',#197,#197,#168,.T.);
#244=EDGE_CURVE('',#194,#196,#62,.T.);
#245=EDGE_CURVE('',#197,#195,#63,.T.);
#246=ORIENTED_EDGE('',*,*,#198,.T.);
#247=ORIENTED_EDGE('',*,*,#199,.T.);
#248=ORIENTED_EDGE('',*,*,#200,.T.);
#249=ORIENTED_EDGE('',*,*,#201,.F.);
#250=ORIENTED_EDGE('',*,*,#202,.F.);
#251=ORIENTED_EDGE('',*,*,#203,.T.);
#252=ORIENTED_EDGE('',*,*,#204,.F.);
#253=ORIENTED_EDGE('',*,*,#205,.F.);
#254=ORIENTED_EDGE('',*,*,#206,.T.);
#255=ORIENTED_EDGE('',*,*,#199,.F.);
#256=ORIENTED_EDGE('',*,*,#203,.F.);
#257=ORIENTED_EDGE('',*,*,#207,.T.);
#258=ORIENTED_EDGE('',*,*,#208,.T.);
#259=ORIENTED_EDGE('',*,*,#201,.T.);
#260=ORIENTED_EDGE('',*,*,#209,.T.);
#261=ORIENTED_EDGE('',*,*,#210,.T.);
#262=ORIENTED_EDGE('',*,*,#208,.F.);
#263=ORIENTED_EDGE('',*,*,#211,.F.);
#264=ORIENTED_EDGE('',*,*,#212,.T.);
#265=ORIENTED_EDGE('',*,*,#213,.F.);
#266=ORIENTED_EDGE('',*,*,#204,.T.);
#267=ORIENTED_EDGE('',*,*,#198,.F.);
#268=ORIENTED_EDGE('',*,*,#207,.F.);
#269=ORIENTED_EDGE('',*,*,#214,.T.);
#270=ORIENTED_EDGE('',*,*,#215,.F.);
#271=ORIENTED_EDGE('',*,*,#214,.F.);
#272=ORIENTED_EDGE('',*,*,#216,.T.);
#273=ORIENTED_EDGE('',*,*,#217,.T.);
#274=ORIENTED_EDGE('',*,*,#218,.F.);
#275=ORIENTED_EDGE('',*,*,#219,.F.);
#276=ORIENTED_EDGE('',*,*,#220,.T.);
#277=ORIENTED_EDGE('',*,*,#219,.T.);
#278=ORIENTED_EDGE('',*,*,#221,.F.);
#279=ORIENTED_EDGE('',*,*,#222,.F.);
#280=ORIENTED_EDGE('',*,*,#223,.T.);
#281=ORIENTED_EDGE('',*,*,#222,.T.);
#282=ORIENTED_EDGE('',*,*,#224,.F.);
#283=ORIENTED_EDGE('',*,*,#225,.F.);
#284=ORIENTED_EDGE('',*,*,#215,.T.);
#285=ORIENTED_EDGE('',*,*,#226,.T.);
#286=ORIENTED_EDGE('',*,*,#225,.T.);
#287=ORIENTED_EDGE('',*,*,#227,.F.);
#288=ORIENTED_EDGE('',*,*,#217,.F.);
#289=ORIENTED_EDGE('',*,*,#227,.T.);
#290=ORIENTED_EDGE('',*,*,#224,.T.);
#291=ORIENTED_EDGE('',*,*,#221,.T.);
#292=ORIENTED_EDGE('',*,*,#218,.T.);
#293=ORIENTED_EDGE('',*,*,#202,.T.);
#294=ORIENTED_EDGE('',*,*,#226,.F.);
#295=ORIENTED_EDGE('',*,*,#216,.F.);
#296=ORIENTED_EDGE('',*,*,#220,.F.);
#297=ORIENTED_EDGE('',*,*,#223,.F.);
#298=ORIENTED_EDGE('',*,*,#205,.T.);
#299=ORIENTED_EDGE('',*,*,#228,.F.);
#300=ORIENTED_EDGE('',*,*,#228,.T.);
#301=ORIENTED_EDGE('',*,*,#229,.T.);
#302=ORIENTED_EDGE('',*,*,#230,.T.);
#303=ORIENTED_EDGE('',*,*,#229,.F.);
#304=ORIENTED_EDGE('',*,*,#231,.F.);
#305=ORIENTED_EDGE('',*,*,#209,.F.);
#306=ORIENTED_EDGE('',*,*,#200,.F.);
#307=ORIENTED_EDGE('',*,*,#206,.F.);
#308=ORIENTED_EDGE('',*,*,#232,.F.);
#309=ORIENTED_EDGE('',*,*,#233,.F.);
#310=ORIENTED_EDGE('',*,*,#234,.T.);
#311=ORIENTED_EDGE('',*,*,#210,.F.);
#312=ORIENTED_EDGE('',*,*,#234,.F.);
#313=ORIENTED_EDGE('',*,*,#235,.F.);
#314=ORIENTED_EDGE('',*,*,#211,.T.);
#315=ORIENTED_EDGE('',*,*,#236,.T.);
#316=ORIENTED_EDGE('',*,*,#212,.F.);
#317=ORIENTED_EDGE('',*,*,#235,.T.);
#318=ORIENTED_EDGE('',*,*,#233,.T.);
#319=ORIENTED_EDGE('',*,*,#213,.T.);
#320=ORIENTED_EDGE('',*,*,#237,.T.);
#321=ORIENTED_EDGE('',*,*,#232,.T.);
#322=ORIENTED_EDGE('',*,*,#231,.T.);
#323=ORIENTED_EDGE('',*,*,#238,.F.);
#324=ORIENTED_EDGE('',*,*,#239,.T.);
#325=ORIENTED_EDGE('',*,*,#236,.F.);
#326=ORIENTED_EDGE('',*,*,#237,.F.);
#327=ORIENTED_EDGE('',*,*,#239,.F.);
#328=ORIENTED_EDGE('',*,*,#230,.F.);
#329=ORIENTED_EDGE('',*,*,#238,.T.);
#330=ORIENTED_EDGE('',*,*,#240,.T.);
#331=ORIENTED_EDGE('',*,*,#241,.T.);
#332=ORIENTED_EDGE('',*,*,#242,.T.);
#333=ORIENTED_EDGE('',*,*,#243,.T.);
#334=ORIENTED_EDGE('',*,*,#240,.F.);
#335=ORIENTED_EDGE('',*,*,#244,.T.);
#336=ORIENTED_EDGE('',*,*,#242,.F.);
#337=ORIENTED_EDGE('',*,*,#244,.F.);
#338=ORIENTED_EDGE('',*,*,#243,.F.);
#339=ORIENTED_EDGE('',*,*,#245,.T.);
#340=ORIENTED_EDGE('',*,*,#241,.F.);
#341=ORIENTED_EDGE('',*,*,#245,.F.);
#342=TOROIDAL_SURFACE('',#381,4.4,0.5);
#343=TOROIDAL_SURFACE('',#389,4.4,0.5);
#344=ADVANCED_FACE('',(#97),#342,.F.);
#345=ADVANCED_FACE('',(#98,#30),#90,.F.);
#346=ADVANCED_FACE('',(#99),#343,.T.);
#347=ADVANCED_FACE('',(#100),#17,.T.);
#348=ADVANCED_FACE('',(#101),#91,.F.);
#349=ADVANCED_FACE('',(#102),#18,.T.);
#350=ADVANCED_FACE('',(#103),#19,.T.);
#351=ADVANCED_FACE('',(#104,#31),#20,.T.);
#352=ADVANCED_FACE('',(#105),#21,.T.);
#353=ADVANCED_FACE('',(#106,#32),#22,.T.);
#354=ADVANCED_FACE('',(#107,#33),#23,.F.);
#355=ADVANCED_FACE('',(#108),#92,.T.);
#356=ADVANCED_FACE('',(#109),#24,.T.);
#357=ADVANCED_FACE('',(#110),#93,.F.);
#358=ADVANCED_FACE('',(#111),#25,.F.);
#359=ADVANCED_FACE('',(#112),#26,.T.);
#360=ADVANCED_FACE('',(#113),#94,.F.);
#361=ADVANCED_FACE('',(#114,#34),#27,.F.);
#362=ADVANCED_FACE('',(#115,#35),#28,.F.);
#363=ADVANCED_FACE('',(#116,#36),#29,.T.);
#364=ADVANCED_FACE('',(#117),#95,.T.);
#365=ADVANCED_FACE('',(#118),#96,.F.);
#366=CLOSED_SHELL('',(#344,#345,#346,#347,#348,#349,#350,#351,#352,#353,
#354,#355,#356,#357,#358,#359,#360,#361));
#367=CLOSED_SHELL('',(#362,#363,#364,#365));
#368=DERIVED_UNIT_ELEMENT(#370,1.);
#369=DERIVED_UNIT_ELEMENT(#676,-3.);
#370=(
MASS_UNIT()
NAMED_UNIT(*)
SI_UNIT(.KILO.,.GRAM.)
);
#371=DERIVED_UNIT((#368,#369));
#372=MEASURE_REPRESENTATION_ITEM('density measure',
POSITIVE_RATIO_MEASURE(7850.),#371);
#373=PROPERTY_DEFINITION_REPRESENTATION(#378,#375);
#374=PROPERTY_DEFINITION_REPRESENTATION(#379,#376);
#375=REPRESENTATION('material name',(#377),#673);
#376=REPRESENTATION('density',(#372),#673);
#377=DESCRIPTIVE_REPRESENTATION_ITEM('Steel','Steel');
#378=PROPERTY_DEFINITION('material property','material name',#683);
#379=PROPERTY_DEFINITION('material property','density of part',#683);
#380=AXIS2_PLACEMENT_3D('',#538,#424,#425);
#381=AXIS2_PLACEMENT_3D('',#539,#426,#427);
#382=AXIS2_PLACEMENT_3D('',#542,#428,#429);
#383=AXIS2_PLACEMENT_3D('',#544,#430,#431);
#384=AXIS2_PLACEMENT_3D('',#546,#432,#433);
#385=AXIS2_PLACEMENT_3D('',#547,#434,#435);
#386=AXIS2_PLACEMENT_3D('',#548,#436,#437);
#387=AXIS2_PLACEMENT_3D('',#550,#438,#439);
#388=AXIS2_PLACEMENT_3D('',#555,#442,#443);
#389=AXIS2_PLACEMENT_3D('',#592,#445,#446);
#390=AXIS2_PLACEMENT_3D('',#594,#447,#448);
#391=AXIS2_PLACEMENT_3D('',#596,#449,#450);
#392=AXIS2_PLACEMENT_3D('',#597,#451,#452);
#393=AXIS2_PLACEMENT_3D('',#598,#453,#454);
#394=AXIS2_PLACEMENT_3D('',#604,#458,#459);
#395=AXIS2_PLACEMENT_3D('',#607,#461,#462);
#396=AXIS2_PLACEMENT_3D('',#608,#463,#464);
#397=AXIS2_PLACEMENT_3D('',#617,#469,#470);
#398=AXIS2_PLACEMENT_3D('',#623,#474,#475);
#399=AXIS2_PLACEMENT_3D('',#629,#479,#480);
#400=AXIS2_PLACEMENT_3D('',#632,#483,#484);
#401=AXIS2_PLACEMENT_3D('',#633,#485,#486);
#402=AXIS2_PLACEMENT_3D('',#634,#487,#488);
#403=AXIS2_PLACEMENT_3D('',#635,#489,#490);
#404=AXIS2_PLACEMENT_3D('',#638,#492,#493);
#405=AXIS2_PLACEMENT_3D('',#639,#494,#495);
#406=AXIS2_PLACEMENT_3D('',#640,#496,#497);
#407=AXIS2_PLACEMENT_3D('',#646,#501,#502);
#408=AXIS2_PLACEMENT_3D('',#647,#503,#504);
#409=AXIS2_PLACEMENT_3D('',#648,#505,#506);
#410=AXIS2_PLACEMENT_3D('',#649,#507,#508);
#411=AXIS2_PLACEMENT_3D('',#650,#509,#510);
#412=AXIS2_PLACEMENT_3D('',#651,#511,#512);
#413=AXIS2_PLACEMENT_3D('',#652,#513,#514);
#414=AXIS2_PLACEMENT_3D('',#654,#515,#516);
#415=AXIS2_PLACEMENT_3D('',#656,#518,#519);
#416=AXIS2_PLACEMENT_3D('',#657,#520,#521);
#417=AXIS2_PLACEMENT_3D('',#659,#522,#523);
#418=AXIS2_PLACEMENT_3D('',#661,#524,#525);
#419=AXIS2_PLACEMENT_3D('',#662,#526,#527);
#420=AXIS2_PLACEMENT_3D('',#664,#528,#529);
#421=AXIS2_PLACEMENT_3D('',#666,#530,#531);
#422=AXIS2_PLACEMENT_3D('',#667,#532,#533);
#423=AXIS2_PLACEMENT_3D('',#669,#535,#536);
#424=DIRECTION('axis',(0.,0.,1.));
#425=DIRECTION('refdir',(1.,0.,0.));
#426=DIRECTION('center_axis',(0.,0.,1.));
#427=DIRECTION('ref_axis',(1.,0.,0.));
#428=DIRECTION('center_axis',(6.12323399573677E-17,1.,0.));
#429=DIRECTION('ref_axis',(-1.,6.12323399573677E-17,0.));
#430=DIRECTION('center_axis',(0.,0.,1.));
#431=DIRECTION('ref_axis',(-1.83697019872103E-16,-1.,0.));
#432=DIRECTION('center_axis',(-3.71245078662141E-16,1.,0.));
#433=DIRECTION('ref_axis',(1.,3.71245078662141E-16,0.));
#434=DIRECTION('center_axis',(0.,0.,1.));
#435=DIRECTION('ref_axis',(-2.16668279849147E-16,-1.,0.));
#436=DIRECTION('center_axis',(0.,0.,1.));
#437=DIRECTION('ref_axis',(1.,0.,0.));
#438=DIRECTION('center_axis',(0.,0.,-1.));
#439=DIRECTION('ref_axis',(1.,0.,0.));
#440=DIRECTION('',(0.,0.,-1.));
#441=DIRECTION('',(0.,0.,1.));
#442=DIRECTION('center_axis',(0.,0.,1.));
#443=DIRECTION('ref_axis',(1.,0.,0.));
#444=DIRECTION('',(0.,0.,1.));
#445=DIRECTION('center_axis',(0.,0.,-1.));
#446=DIRECTION('ref_axis',(-1.,0.,0.));
#447=DIRECTION('center_axis',(-6.12323399573677E-17,-1.,0.));
#448=DIRECTION('ref_axis',(-1.,6.12323399573677E-17,0.));
#449=DIRECTION('center_axis',(3.71245078662141E-16,-1.,0.));
#450=DIRECTION('ref_axis',(1.,3.71245078662141E-16,0.));
#451=DIRECTION('center_axis',(0.,0.,-1.));
#452=DIRECTION('ref_axis',(-2.16668279849147E-16,-1.,0.));
#453=DIRECTION('center_axis',(6.12323399573677E-17,1.,0.));
#454=DIRECTION('ref_axis',(-1.,6.12323399573677E-17,0.));
#455=DIRECTION('',(0.,0.,1.));
#456=DIRECTION('',(-1.,6.12323399573677E-17,0.));
#457=DIRECTION('',(1.,-6.12323399573677E-17,0.));
#458=DIRECTION('center_axis',(0.,1.,0.));
#459=DIRECTION('ref_axis',(1.,0.,0.));
#460=DIRECTION('',(0.,1.,0.));
#461=DIRECTION('center_axis',(0.,-1.,0.));
#462=DIRECTION('ref_axis',(1.,0.,0.));
#463=DIRECTION('center_axis',(0.,-1.,0.));
#464=DIRECTION('ref_axis',(1.,0.,0.));
#465=DIRECTION('',(1.,0.,0.));
#466=DIRECTION('',(0.,0.,1.));
#467=DIRECTION('',(1.,0.,0.));
#468=DIRECTION('',(0.,0.,1.));
#469=DIRECTION('center_axis',(-1.,0.,0.));
#470=DIRECTION('ref_axis',(0.,-1.,0.));
#471=DIRECTION('',(0.,-1.,0.));
#472=DIRECTION('',(0.,-1.,0.));
#473=DIRECTION('',(0.,0.,1.));
#474=DIRECTION('center_axis',(0.,1.,0.));
#475=DIRECTION('ref_axis',(-1.,0.,0.));
#476=DIRECTION('',(-1.,0.,0.));
#477=DIRECTION('',(-1.,0.,0.));
#478=DIRECTION('',(0.,0.,1.));
#479=DIRECTION('center_axis',(1.,0.,0.));
#480=DIRECTION('ref_axis',(0.,1.,0.));
#481=DIRECTION('',(0.,1.,0.));
#482=DIRECTION('',(0.,1.,0.));
#483=DIRECTION('center_axis',(0.,0.,1.));
#484=DIRECTION('ref_axis',(1.,0.,0.));
#485=DIRECTION('center_axis',(0.,0.,1.));
#486=DIRECTION('ref_axis',(1.,0.,0.));
#487=DIRECTION('center_axis',(0.,0.,-1.));
#488=DIRECTION('ref_axis',(1.,0.,0.));
#489=DIRECTION('center_axis',(0.,0.,1.));
#490=DIRECTION('ref_axis',(1.,0.,0.));
#491=DIRECTION('',(0.,0.,-1.));
#492=DIRECTION('center_axis',(0.,0.,1.));
#493=DIRECTION('ref_axis',(1.,0.,0.));
#494=DIRECTION('center_axis',(0.,0.,1.));
#495=DIRECTION('ref_axis',(1.,0.,0.));
#496=DIRECTION('center_axis',(-3.71245078662141E-16,1.,0.));
#497=DIRECTION('ref_axis',(-1.,-3.71245078662141E-16,0.));
#498=DIRECTION('',(1.,3.71245078662141E-16,0.));
#499=DIRECTION('',(1.,3.71245078662141E-16,0.));
#500=DIRECTION('',(0.,0.,1.));
#501=DIRECTION('center_axis',(0.,0.,1.));
#502=DIRECTION('ref_axis',(-1.,1.55435939891779E-16,0.));
#503=DIRECTION('center_axis',(0.,0.,1.));
#504=DIRECTION('ref_axis',(-1.,1.55435939891779E-16,0.));
#505=DIRECTION('center_axis',(0.,0.,1.));
#506=DIRECTION('ref_axis',(1.,0.,0.));
#507=DIRECTION('center_axis',(0.,0.,-1.));
#508=DIRECTION('ref_axis',(1.,0.,0.));
#509=DIRECTION('center_axis',(0.,0.,1.));
#510=DIRECTION('ref_axis',(1.,0.,0.));
#511=DIRECTION('center_axis',(0.,0.,-1.));
#512=DIRECTION('ref_axis',(1.,0.,0.));
#513=DIRECTION('center_axis',(0.,0.,1.));
#514=DIRECTION('ref_axis',(1.,0.,0.));
#515=DIRECTION('center_axis',(0.,0.,1.));
#516=DIRECTION('ref_axis',(1.,0.,0.));
#517=DIRECTION('',(0.,0.,1.));
#518=DIRECTION('center_axis',(0.,0.,1.));
#519=DIRECTION('ref_axis',(1.,0.,0.));
#520=DIRECTION('center_axis',(0.,0.,1.));
#521=DIRECTION('ref_axis',(1.,0.,0.));
#522=DIRECTION('center_axis',(0.,0.,-1.));
#523=DIRECTION('ref_axis',(1.,0.,0.));
#524=DIRECTION('center_axis',(0.,0.,1.));
#525=DIRECTION('ref_axis',(1.,0.,0.));
#526=DIRECTION('center_axis',(0.,0.,1.));
#527=DIRECTION('ref_axis',(1.,0.,0.));
#528=DIRECTION('center_axis',(0.,0.,1.));
#529=DIRECTION('ref_axis',(1.,0.,0.));
#530=DIRECTION('center_axis',(0.,0.,-1.));
#531=DIRECTION('ref_axis',(1.,0.,0.));
#532=DIRECTION('center_axis',(0.,0.,-1.));
#533=DIRECTION('ref_axis',(1.,0.,0.));
#534=DIRECTION('',(0.,0.,1.));
#535=DIRECTION('center_axis',(0.,0.,-1.));
#536=DIRECTION('ref_axis',(1.,0.,0.));
#537=DIRECTION('',(0.,0.,-1.));
#538=CARTESIAN_POINT('',(0.,0.,0.));
#539=CARTESIAN_POINT('Origin',(0.,0.,8.5));
#540=CARTESIAN_POINT('',(-4.4,6.36816335556624E-16,8.));
#541=CARTESIAN_POINT('',(-4.9,6.00076931582203E-16,8.5));
#542=CARTESIAN_POINT('Origin',(-4.4,2.69422295812418E-16,8.5));
#543=CARTESIAN_POINT('',(4.9,-1.12135299031753E-16,8.5));
#544=CARTESIAN_POINT('Origin',(0.,0.,8.5));
#545=CARTESIAN_POINT('',(4.4,-1.18266965377966E-16,8.));
#546=CARTESIAN_POINT('Origin',(4.4,1.63347834611342E-15,8.5));
#547=CARTESIAN_POINT('Origin',(0.,0.,8.));
#548=CARTESIAN_POINT('Origin',(0.,0.,1.));
#549=CARTESIAN_POINT('',(-4.9,-6.00076931582203E-16,9.));
#550=CARTESIAN_POINT('Origin',(0.,0.,9.));
#551=CARTESIAN_POINT('',(-4.9,-6.00076931582203E-16,1.));
#552=CARTESIAN_POINT('',(-4.9,-6.00076931582203E-16,1.));
#553=CARTESIAN_POINT('',(-4.9,6.67432505535308E-16,1.));
#554=CARTESIAN_POINT('',(4.9,6.73555739531045E-17,1.));
#555=CARTESIAN_POINT('Origin',(0.,0.,1.));
#556=CARTESIAN_POINT('',(4.9,6.73555739531045E-17,1.));
#557=CARTESIAN_POINT('',(-3.5,3.42928563989645,5.));
#558=CARTESIAN_POINT('Ctrl Pts',(-3.5,3.42928563989645,5.));
#559=CARTESIAN_POINT('Ctrl Pts',(-3.5,3.42928563989645,5.46534130421183));
#560=CARTESIAN_POINT('Ctrl Pts',(-3.40352436082843,3.53315972839176,5.93793822351596));
#561=CARTESIAN_POINT('Ctrl Pts',(-3.04328659736039,3.84780419710597,6.78944669054134));
#562=CARTESIAN_POINT('Ctrl Pts',(-2.77891671209567,4.05113839608136,7.17083075621017));
#563=CARTESIAN_POINT('Ctrl Pts',(-2.17567917968824,4.404156460205,7.77406828861759));
#564=CARTESIAN_POINT('Ctrl Pts',(-1.79349235579919,4.58182265962907,8.0414838115003));
#565=CARTESIAN_POINT('Ctrl Pts',(-0.935046385572089,4.8306730953148,8.40483888728209));
#566=CARTESIAN_POINT('Ctrl Pts',(-0.457920735843749,4.9,8.5));
#567=CARTESIAN_POINT('Ctrl Pts',(0.457920735843749,4.9,8.5));
#568=CARTESIAN_POINT('Ctrl Pts',(0.935046385572089,4.8306730953148,8.40483888728209));
#569=CARTESIAN_POINT('Ctrl Pts',(1.79349235579919,4.58182265962907,8.0414838115003));
#570=CARTESIAN_POINT('Ctrl Pts',(2.17567917968824,4.404156460205,7.77406828861759));
#571=CARTESIAN_POINT('Ctrl Pts',(2.77891671209567,4.05113839608136,7.17083075621017));
#572=CARTESIAN_POINT('Ctrl Pts',(3.04328659736039,3.84780419710597,6.78944669054134));
#573=CARTESIAN_POINT('Ctrl Pts',(3.40352436082843,3.53315972839176,5.93793822351596));
#574=CARTESIAN_POINT('Ctrl Pts',(3.5,3.42928563989645,5.46534130421183));
#575=CARTESIAN_POINT('Ctrl Pts',(3.5,3.42928563989645,4.53465869578817));
#576=CARTESIAN_POINT('Ctrl Pts',(3.40352436082843,3.53315972839176,4.06206177648404));
#577=CARTESIAN_POINT('Ctrl Pts',(3.04328659736039,3.84780419710597,3.21055330945866));
#578=CARTESIAN_POINT('Ctrl Pts',(2.77891671209567,4.05113839608136,2.82916924378983));
#579=CARTESIAN_POINT('Ctrl Pts',(2.17567917968824,4.404156460205,2.22593171138241));
#580=CARTESIAN_POINT('Ctrl Pts',(1.79349235579919,4.58182265962907,1.9585161884997));
#581=CARTESIAN_POINT('Ctrl Pts',(0.935046385572089,4.83067309531481,1.59516111271791));
#582=CARTESIAN_POINT('Ctrl Pts',(0.45792073584375,4.9,1.5));
#583=CARTESIAN_POINT('Ctrl Pts',(-0.457920735843749,4.9,1.5));
#584=CARTESIAN_POINT('Ctrl Pts',(-0.935046385572089,4.83067309531481,1.59516111271791));
#585=CARTESIAN_POINT('Ctrl Pts',(-1.79349235579919,4.58182265962907,1.9585161884997));
#586=CARTESIAN_POINT('Ctrl Pts',(-2.17567917968824,4.404156460205,2.22593171138241));
#587=CARTESIAN_POINT('Ctrl Pts',(-2.77891671209567,4.05113839608136,2.82916924378983));
#588=CARTESIAN_POINT('Ctrl Pts',(-3.04328659736039,3.84780419710597,3.21055330945866));
#589=CARTESIAN_POINT('Ctrl Pts',(-3.40352436082843,3.53315972839176,4.06206177648404));
#590=CARTESIAN_POINT('Ctrl Pts',(-3.5,3.42928563989645,4.53465869578817));
#591=CARTESIAN_POINT('Ctrl Pts',(-3.5,3.42928563989645,5.));
#592=CARTESIAN_POINT('Origin',(0.,0.,7.5));
#593=CARTESIAN_POINT('',(-3.9,6.0620016557794E-16,7.5));
#594=CARTESIAN_POINT('Origin',(-4.4,2.69422295812418E-16,7.5));
#595=CARTESIAN_POINT('',(3.9,-3.03889504709036E-16,7.5));
#596=CARTESIAN_POINT('Origin',(4.4,1.63347834611342E-15,7.5));
#597=CARTESIAN_POINT('Origin',(0.,0.,7.5));
#598=CARTESIAN_POINT('Origin',(-3.9,6.0620016557794E-16,1.));
#599=CARTESIAN_POINT('',(-3.9,6.0620016557794E-16,1.));
#600=CARTESIAN_POINT('',(-3.9,6.0620016557794E-16,1.));
#601=CARTESIAN_POINT('',(-4.4,5.38844591624835E-16,1.));
#602=CARTESIAN_POINT('',(-3.9,6.0620016557794E-16,1.));
#603=CARTESIAN_POINT('',(-1.95,4.86797102661073E-16,1.));
#604=CARTESIAN_POINT('Origin',(0.,0.,5.));
#605=CARTESIAN_POINT('',(-3.5,6.,5.));
#606=CARTESIAN_POINT('',(-3.5,0.,5.));
#607=CARTESIAN_POINT('Origin',(0.,6.,5.));
#608=CARTESIAN_POINT('Origin',(-6.,-6.,1.));
#609=CARTESIAN_POINT('',(-6.,-6.,1.));
#610=CARTESIAN_POINT('',(6.,-6.,1.));
#611=CARTESIAN_POINT('',(-6.,-6.,1.));
#612=CARTESIAN_POINT('',(6.,-6.,9.));
#613=CARTESIAN_POINT('',(6.,-6.,1.));
#614=CARTESIAN_POINT('',(-6.,-6.,9.));
#615=CARTESIAN_POINT('',(-6.,-6.,9.));
#616=CARTESIAN_POINT('',(-6.,-6.,1.));
#617=CARTESIAN_POINT('Origin',(-6.,6.,1.));
#618=CARTESIAN_POINT('',(-6.,6.,1.));
#619=CARTESIAN_POINT('',(-6.,6.,1.));
#620=CARTESIAN_POINT('',(-6.,6.,9.));
#621=CARTESIAN_POINT('',(-6.,6.,9.));
#622=CARTESIAN_POINT('',(-6.,6.,1.));
#623=CARTESIAN_POINT('Origin',(6.,6.,1.));
#624=CARTESIAN_POINT('',(6.,6.,1.));
#625=CARTESIAN_POINT('',(6.,6.,1.));
#626=CARTESIAN_POINT('',(6.,6.,9.));
#627=CARTESIAN_POINT('',(6.,6.,9.));
#628=CARTESIAN_POINT('',(6.,6.,1.));
#629=CARTESIAN_POINT('Origin',(6.,-6.,1.));
#630=CARTESIAN_POINT('',(6.,-6.,1.));
#631=CARTESIAN_POINT('',(6.,-6.,9.));
#632=CARTESIAN_POINT('Origin',(0.,0.,9.));
#633=CARTESIAN_POINT('Origin',(0.,0.,1.));
#634=CARTESIAN_POINT('Origin',(0.,0.,1.));
#635=CARTESIAN_POINT('Origin',(0.,0.,0.));
#636=CARTESIAN_POINT('',(-4.9,-6.00076931582203E-16,0.));
#637=CARTESIAN_POINT('',(-4.9,-6.00076931582203E-16,0.));
#638=CARTESIAN_POINT('Origin',(0.,0.,0.));
#639=CARTESIAN_POINT('Origin',(0.,0.,1.));
#640=CARTESIAN_POINT('Origin',(4.9,6.73555739531045E-17,1.));
#641=CARTESIAN_POINT('',(4.4,-1.18266965377966E-16,1.));
#642=CARTESIAN_POINT('',(2.45,-8.4219486876914E-16,1.));
#643=CARTESIAN_POINT('',(3.9,-3.03889504709036E-16,1.));
#644=CARTESIAN_POINT('',(3.9,-3.03889504709036E-16,1.));
#645=CARTESIAN_POINT('',(3.9,-3.03889504709036E-16,1.));
#646=CARTESIAN_POINT('Origin',(0.,0.,1.));
#647=CARTESIAN_POINT('Origin',(0.,0.,1.));
#648=CARTESIAN_POINT('Origin',(0.,-2.45,1.));
#649=CARTESIAN_POINT('Origin',(0.,0.,1.));
#650=CARTESIAN_POINT('Origin',(0.,0.,1.));
#651=CARTESIAN_POINT('Origin',(0.,0.,1.));
#652=CARTESIAN_POINT('Origin',(0.,0.,0.));
#653=CARTESIAN_POINT('',(-4.4,5.38844591624835E-16,0.));
#654=CARTESIAN_POINT('Origin',(0.,0.,0.));
#655=CARTESIAN_POINT('',(-4.4,-5.38844591624835E-16,0.));
#656=CARTESIAN_POINT('Origin',(0.,0.,0.));
#657=CARTESIAN_POINT('Origin',(0.,0.,9.));
#658=CARTESIAN_POINT('',(-4.9,-6.00076931582203E-16,9.));
#659=CARTESIAN_POINT('Origin',(0.,0.,9.));
#660=CARTESIAN_POINT('',(-4.3,5.26598123633362E-16,9.));
#661=CARTESIAN_POINT('Origin',(0.,0.,9.));
#662=CARTESIAN_POINT('Origin',(0.,0.,11.));
#663=CARTESIAN_POINT('',(-4.9,-6.00076931582203E-16,11.));
#664=CARTESIAN_POINT('Origin',(0.,0.,11.));
#665=CARTESIAN_POINT('',(-4.3,5.26598123633362E-16,11.));
#666=CARTESIAN_POINT('Origin',(0.,0.,11.));
#667=CARTESIAN_POINT('Origin',(0.,0.,11.));
#668=CARTESIAN_POINT('',(-4.9,6.00076931582203E-16,11.));
#669=CARTESIAN_POINT('Origin',(0.,0.,11.));
#670=CARTESIAN_POINT('',(-4.3,5.26598123633362E-16,11.));
#671=UNCERTAINTY_MEASURE_WITH_UNIT(LENGTH_MEASURE(0.01),#675,
'DISTANCE_ACCURACY_VALUE',
'Maximum model space distance between geometric entities at asserted c
onnectivities');
#672=UNCERTAINTY_MEASURE_WITH_UNIT(LENGTH_MEASURE(0.01),#675,
'DISTANCE_ACCURACY_VALUE',
'Maximum model space distance between geometric entities at asserted c
onnectivities');
#673=(
GEOMETRIC_REPRESENTATION_CONTEXT(3)
GLOBAL_UNCERTAINTY_ASSIGNED_CONTEXT((#671))
GLOBAL_UNIT_ASSIGNED_CONTEXT((#675,#677,#678))
REPRESENTATION_CONTEXT('','3D')
);
#674=(
GEOMETRIC_REPRESENTATION_CONTEXT(3)
GLOBAL_UNCERTAINTY_ASSIGNED_CONTEXT((#672))
GLOBAL_UNIT_ASSIGNED_CONTEXT((#675,#677,#678))
REPRESENTATION_CONTEXT('','3D')
);
#675=(
LENGTH_UNIT()
NAMED_UNIT(*)
SI_UNIT(.MILLI.,.METRE.)
);
#676=(
LENGTH_UNIT()
NAMED_UNIT(*)
SI_UNIT($,.METRE.)
);
#677=(
NAMED_UNIT(*)
PLANE_ANGLE_UNIT()
SI_UNIT($,.RADIAN.)
);
#678=(
NAMED_UNIT(*)
SI_UNIT($,.STERADIAN.)
SOLID_ANGLE_UNIT()
);
#679=SHAPE_DEFINITION_REPRESENTATION(#680,#681);
#680=PRODUCT_DEFINITION_SHAPE('',$,#683);
#681=SHAPE_REPRESENTATION('',(#380),#673);
#682=PRODUCT_DEFINITION_CONTEXT('part definition',#687,'design');
#683=PRODUCT_DEFINITION('2026-09-19-23-51-35-841','Barrel_1',#684,#682);
#684=PRODUCT_DEFINITION_FORMATION('',$,#689);
#685=PRODUCT_RELATED_PRODUCT_CATEGORY('Barrel_1','Barrel_1',(#689));
#686=APPLICATION_PROTOCOL_DEFINITION('international standard',
'automotive_design',2009,#687);
#687=APPLICATION_CONTEXT(
'Core Data for Automotive Mechanical Design Process');
#688=PRODUCT_CONTEXT('part definition',#687,'mechanical');
#689=PRODUCT('2026-09-19-23-51-35-841','Barrel_1',$,(#688));
#690=PRESENTATION_STYLE_ASSIGNMENT((#691));
#691=SURFACE_STYLE_USAGE(.BOTH.,#692);
#692=SURFACE_SIDE_STYLE('',(#693));
#693=SURFACE_STYLE_FILL_AREA(#694);
#694=FILL_AREA_STYLE('Steel - Satin',(#695));
#695=FILL_AREA_STYLE_COLOUR('Steel - Satin',#696);
#696=COLOUR_RGB('Steel - Satin',0.627450980392157,0.627450980392157,0.627450980392157);
ENDSEC;
END-ISO-10303-21;
