ISO-10303-21;
HEADER;
/* Generated by software containing ST-Developer
 * from STEP Tools, Inc. (www.steptools.com) 
 */

FILE_DESCRIPTION(
/* description */ (''),
/* implementation_level */ '2;1');

FILE_NAME(
/* name */ 'Barrel_1.step',
/* time_stamp */ '2026-09-20T18:18:50+05:30',
/* author */ (''),
/* organization */ (''),
/* preprocessor_version */ 'ST-DEVELOPER v20.2',
/* originating_system */ 'Autodesk Translation Framework v15.15.0.0',
/* authorisation */ '');

FILE_SCHEMA (('AUTOMOTIVE_DESIGN { 1 0 10303 214 3 1 1 }'));
ENDSEC;

DATA;
#10=MECHANICAL_DESIGN_GEOMETRIC_PRESENTATION_REPRESENTATION('',(#13),#594);
#11=SHAPE_REPRESENTATION_RELATIONSHIP('SRR','None',#601,#12);
#12=ADVANCED_BREP_SHAPE_REPRESENTATION('',(#14),#593);
#13=STYLED_ITEM('',(#610),#14);
#14=MANIFOLD_SOLID_BREP('Body4',#319);
#15=B_SPLINE_CURVE_WITH_KNOTS('',3,(#502,#503,#504,#505,#506,#507,#508,
#509,#510,#511,#512,#513,#514,#515,#516,#517,#518,#519,#520,#521,#522,#523,
#524,#525,#526,#527,#528,#529,#530,#531,#532,#533,#534,#535,#536,#537,#538,
#539,#540,#541,#542,#543),.UNSPECIFIED.,.T.,.F.,(4,2,2,2,2,2,2,2,2,2,2,
2,2,2,2,2,2,2,2,2,4),(0.,0.0692023511053856,0.138404702210771,0.276809404421542,
0.408965085248033,0.541120766074524,0.673276446901014,0.805432127727505,
0.943836829938276,1.01303918104366,1.08224153214905,1.15144388325443,1.22064623435982,
1.35905093657059,1.49120661739708,1.62336229822357,1.75551797905006,1.88767365987655,
2.02607836208732,2.09528071319271,2.16448306429809),.UNSPECIFIED.);
#16=FACE_BOUND('',#114,.T.);
#17=FACE_BOUND('',#116,.T.);
#18=FACE_BOUND('',#119,.T.);
#19=FACE_BOUND('',#123,.T.);
#20=FACE_BOUND('',#126,.T.);
#21=FACE_BOUND('',#133,.T.);
#22=CYLINDRICAL_SURFACE('',#340,3.3);
#23=CYLINDRICAL_SURFACE('',#342,3.9);
#24=CYLINDRICAL_SURFACE('',#348,3.3);
#25=CYLINDRICAL_SURFACE('',#350,3.9);
#26=CYLINDRICAL_SURFACE('',#358,3.9);
#27=CYLINDRICAL_SURFACE('',#365,3.4);
#28=LINE('',#476,#53);
#29=LINE('',#479,#54);
#30=LINE('',#483,#55);
#31=LINE('',#486,#56);
#32=LINE('',#493,#57);
#33=LINE('',#495,#58);
#34=LINE('',#497,#59);
#35=LINE('',#498,#60);
#36=LINE('',#545,#61);
#37=LINE('',#549,#62);
#38=LINE('',#551,#63);
#39=LINE('',#556,#64);
#40=LINE('',#557,#65);
#41=LINE('',#558,#66);
#42=LINE('',#561,#67);
#43=LINE('',#562,#68);
#44=LINE('',#565,#69);
#45=LINE('',#566,#70);
#46=LINE('',#568,#71);
#47=LINE('',#573,#72);
#48=LINE('',#578,#73);
#49=LINE('',#579,#74);
#50=LINE('',#582,#75);
#51=LINE('',#583,#76);
#52=LINE('',#589,#77);
#53=VECTOR('',#382,10.);
#54=VECTOR('',#385,10.);
#55=VECTOR('',#390,3.9);
#56=VECTOR('',#393,3.9);
#57=VECTOR('',#402,10.);
#58=VECTOR('',#403,10.);
#59=VECTOR('',#404,10.);
#60=VECTOR('',#405,10.);
#61=VECTOR('',#410,3.3);
#62=VECTOR('',#415,10.);
#63=VECTOR('',#416,10.);
#64=VECTOR('',#421,10.);
#65=VECTOR('',#422,10.);
#66=VECTOR('',#423,10.);
#67=VECTOR('',#426,10.);
#68=VECTOR('',#427,10.);
#69=VECTOR('',#430,10.);
#70=VECTOR('',#431,10.);
#71=VECTOR('',#434,10.);
#72=VECTOR('',#441,3.9);
#73=VECTOR('',#448,10.);
#74=VECTOR('',#449,10.);
#75=VECTOR('',#452,10.);
#76=VECTOR('',#453,10.);
#77=VECTOR('',#462,3.9);
#78=PLANE('',#338);
#79=PLANE('',#345);
#80=PLANE('',#346);
#81=PLANE('',#352);
#82=PLANE('',#353);
#83=PLANE('',#354);
#84=PLANE('',#355);
#85=PLANE('',#356);
#86=PLANE('',#361);
#87=PLANE('',#362);
#88=PLANE('',#363);
#89=PLANE('',#367);
#90=FACE_OUTER_BOUND('',#109,.T.);
#91=FACE_OUTER_BOUND('',#110,.T.);
#92=FACE_OUTER_BOUND('',#111,.T.);
#93=FACE_OUTER_BOUND('',#112,.T.);
#94=FACE_OUTER_BOUND('',#113,.T.);
#95=FACE_OUTER_BOUND('',#115,.T.);
#96=FACE_OUTER_BOUND('',#117,.T.);
#97=FACE_OUTER_BOUND('',#118,.T.);
#98=FACE_OUTER_BOUND('',#120,.T.);
#99=FACE_OUTER_BOUND('',#121,.T.);
#100=FACE_OUTER_BOUND('',#122,.T.);
#101=FACE_OUTER_BOUND('',#124,.T.);
#102=FACE_OUTER_BOUND('',#125,.T.);
#103=FACE_OUTER_BOUND('',#127,.T.);
#104=FACE_OUTER_BOUND('',#128,.T.);
#105=FACE_OUTER_BOUND('',#129,.T.);
#106=FACE_OUTER_BOUND('',#130,.T.);
#107=FACE_OUTER_BOUND('',#131,.T.);
#108=FACE_OUTER_BOUND('',#132,.T.);
#109=EDGE_LOOP('',(#215,#216,#217,#218,#219));
#110=EDGE_LOOP('',(#220,#221,#222,#223));
#111=EDGE_LOOP('',(#224,#225,#226,#227));
#112=EDGE_LOOP('',(#228,#229,#230,#231,#232));
#113=EDGE_LOOP('',(#233));
#114=EDGE_LOOP('',(#234));
#115=EDGE_LOOP('',(#235,#236,#237,#238));
#116=EDGE_LOOP('',(#239,#240));
#117=EDGE_LOOP('',(#241,#242,#243,#244));
#118=EDGE_LOOP('',(#245,#246,#247,#248));
#119=EDGE_LOOP('',(#249));
#120=EDGE_LOOP('',(#250,#251,#252,#253));
#121=EDGE_LOOP('',(#254,#255,#256,#257));
#122=EDGE_LOOP('',(#258,#259,#260,#261));
#123=EDGE_LOOP('',(#262));
#124=EDGE_LOOP('',(#263,#264,#265,#266));
#125=EDGE_LOOP('',(#267,#268,#269,#270));
#126=EDGE_LOOP('',(#271,#272));
#127=EDGE_LOOP('',(#273,#274,#275,#276,#277));
#128=EDGE_LOOP('',(#278,#279,#280,#281));
#129=EDGE_LOOP('',(#282,#283,#284,#285));
#130=EDGE_LOOP('',(#286,#287,#288,#289));
#131=EDGE_LOOP('',(#290,#291,#292,#293,#294,#295,#296));
#132=EDGE_LOOP('',(#297));
#133=EDGE_LOOP('',(#298));
#134=CIRCLE('',#334,3.4);
#135=CIRCLE('',#335,3.4);
#136=CIRCLE('',#336,0.1);
#137=CIRCLE('',#337,3.3);
#138=CIRCLE('',#339,3.9);
#139=CIRCLE('',#341,3.3);
#140=CIRCLE('',#343,3.9);
#141=CIRCLE('',#344,3.9);
#142=CIRCLE('',#347,3.9);
#143=CIRCLE('',#349,3.3);
#144=CIRCLE('',#351,3.9);
#145=CIRCLE('',#357,3.9);
#146=CIRCLE('',#359,3.9);
#147=CIRCLE('',#360,3.9);
#148=CIRCLE('',#364,3.4);
#149=CIRCLE('',#366,3.4);
#150=VERTEX_POINT('',#467);
#151=VERTEX_POINT('',#468);
#152=VERTEX_POINT('',#471);
#153=VERTEX_POINT('',#475);
#154=VERTEX_POINT('',#477);
#155=VERTEX_POINT('',#481);
#156=VERTEX_POINT('',#485);
#157=VERTEX_POINT('',#491);
#158=VERTEX_POINT('',#492);
#159=VERTEX_POINT('',#494);
#160=VERTEX_POINT('',#496);
#161=VERTEX_POINT('',#501);
#162=VERTEX_POINT('',#544);
#163=VERTEX_POINT('',#548);
#164=VERTEX_POINT('',#550);
#165=VERTEX_POINT('',#554);
#166=VERTEX_POINT('',#555);
#167=VERTEX_POINT('',#560);
#168=VERTEX_POINT('',#564);
#169=VERTEX_POINT('',#572);
#170=VERTEX_POINT('',#577);
#171=VERTEX_POINT('',#581);
#172=VERTEX_POINT('',#587);
#173=EDGE_CURVE('',#150,#151,#134,.T.);
#174=EDGE_CURVE('',#151,#150,#135,.T.);
#175=EDGE_CURVE('',#150,#152,#136,.T.);
#176=EDGE_CURVE('',#152,#152,#137,.T.);
#177=EDGE_CURVE('',#150,#153,#28,.T.);
#178=EDGE_CURVE('',#153,#154,#138,.T.);
#179=EDGE_CURVE('',#154,#151,#29,.T.);
#180=EDGE_CURVE('',#155,#155,#139,.T.);
#181=EDGE_CURVE('',#155,#152,#30,.T.);
#182=EDGE_CURVE('',#153,#156,#31,.T.);
#183=EDGE_CURVE('',#156,#156,#140,.T.);
#184=EDGE_CURVE('',#154,#153,#141,.T.);
#185=EDGE_CURVE('',#157,#158,#32,.T.);
#186=EDGE_CURVE('',#158,#159,#33,.T.);
#187=EDGE_CURVE('',#159,#160,#34,.T.);
#188=EDGE_CURVE('',#160,#157,#35,.T.);
#189=EDGE_CURVE('',#153,#154,#142,.T.);
#190=EDGE_CURVE('',#161,#161,#15,.T.);
#191=EDGE_CURVE('',#161,#162,#36,.T.);
#192=EDGE_CURVE('',#162,#162,#143,.T.);
#193=EDGE_CURVE('',#163,#154,#37,.T.);
#194=EDGE_CURVE('',#164,#153,#38,.T.);
#195=EDGE_CURVE('',#163,#164,#144,.T.);
#196=EDGE_CURVE('',#165,#166,#39,.T.);
#197=EDGE_CURVE('',#166,#157,#40,.T.);
#198=EDGE_CURVE('',#165,#160,#41,.T.);
#199=EDGE_CURVE('',#167,#165,#42,.T.);
#200=EDGE_CURVE('',#167,#159,#43,.T.);
#201=EDGE_CURVE('',#168,#167,#44,.T.);
#202=EDGE_CURVE('',#168,#158,#45,.T.);
#203=EDGE_CURVE('',#166,#168,#46,.T.);
#204=EDGE_CURVE('',#163,#164,#145,.T.);
#205=EDGE_CURVE('',#164,#169,#47,.T.);
#206=EDGE_CURVE('',#169,#169,#146,.T.);
#207=EDGE_CURVE('',#163,#164,#147,.T.);
#208=EDGE_CURVE('',#170,#163,#48,.T.);
#209=EDGE_CURVE('',#170,#151,#49,.T.);
#210=EDGE_CURVE('',#164,#171,#50,.T.);
#211=EDGE_CURVE('',#171,#150,#51,.T.);
#212=EDGE_CURVE('',#171,#170,#148,.T.);
#213=EDGE_CURVE('',#172,#172,#149,.T.);
#214=EDGE_CURVE('',#172,#171,#52,.T.);
#215=ORIENTED_EDGE('',*,*,#173,.T.);
#216=ORIENTED_EDGE('',*,*,#174,.T.);
#217=ORIENTED_EDGE('',*,*,#175,.T.);
#218=ORIENTED_EDGE('',*,*,#176,.T.);
#219=ORIENTED_EDGE('',*,*,#175,.F.);
#220=ORIENTED_EDGE('',*,*,#173,.F.);
#221=ORIENTED_EDGE('',*,*,#177,.T.);
#222=ORIENTED_EDGE('',*,*,#178,.T.);
#223=ORIENTED_EDGE('',*,*,#179,.T.);
#224=ORIENTED_EDGE('',*,*,#180,.F.);
#225=ORIENTED_EDGE('',*,*,#181,.T.);
#226=ORIENTED_EDGE('',*,*,#176,.F.);
#227=ORIENTED_EDGE('',*,*,#181,.F.);
#228=ORIENTED_EDGE('',*,*,#178,.F.);
#229=ORIENTED_EDGE('',*,*,#182,.T.);
#230=ORIENTED_EDGE('',*,*,#183,.F.);
#231=ORIENTED_EDGE('',*,*,#182,.F.);
#232=ORIENTED_EDGE('',*,*,#184,.F.);
#233=ORIENTED_EDGE('',*,*,#183,.T.);
#234=ORIENTED_EDGE('',*,*,#180,.T.);
#235=ORIENTED_EDGE('',*,*,#185,.T.);
#236=ORIENTED_EDGE('',*,*,#186,.T.);
#237=ORIENTED_EDGE('',*,*,#187,.T.);
#238=ORIENTED_EDGE('',*,*,#188,.T.);
#239=ORIENTED_EDGE('',*,*,#184,.T.);
#240=ORIENTED_EDGE('',*,*,#189,.T.);
#241=ORIENTED_EDGE('',*,*,#190,.F.);
#242=ORIENTED_EDGE('',*,*,#191,.T.);
#243=ORIENTED_EDGE('',*,*,#192,.F.);
#244=ORIENTED_EDGE('',*,*,#191,.F.);
#245=ORIENTED_EDGE('',*,*,#193,.T.);
#246=ORIENTED_EDGE('',*,*,#189,.F.);
#247=ORIENTED_EDGE('',*,*,#194,.F.);
#248=ORIENTED_EDGE('',*,*,#195,.F.);
#249=ORIENTED_EDGE('',*,*,#190,.T.);
#250=ORIENTED_EDGE('',*,*,#196,.T.);
#251=ORIENTED_EDGE('',*,*,#197,.T.);
#252=ORIENTED_EDGE('',*,*,#188,.F.);
#253=ORIENTED_EDGE('',*,*,#198,.F.);
#254=ORIENTED_EDGE('',*,*,#199,.T.);
#255=ORIENTED_EDGE('',*,*,#198,.T.);
#256=ORIENTED_EDGE('',*,*,#187,.F.);
#257=ORIENTED_EDGE('',*,*,#200,.F.);
#258=ORIENTED_EDGE('',*,*,#201,.T.);
#259=ORIENTED_EDGE('',*,*,#200,.T.);
#260=ORIENTED_EDGE('',*,*,#186,.F.);
#261=ORIENTED_EDGE('',*,*,#202,.F.);
#262=ORIENTED_EDGE('',*,*,#192,.T.);
#263=ORIENTED_EDGE('',*,*,#203,.T.);
#264=ORIENTED_EDGE('',*,*,#202,.T.);
#265=ORIENTED_EDGE('',*,*,#185,.F.);
#266=ORIENTED_EDGE('',*,*,#197,.F.);
#267=ORIENTED_EDGE('',*,*,#203,.F.);
#268=ORIENTED_EDGE('',*,*,#196,.F.);
#269=ORIENTED_EDGE('',*,*,#199,.F.);
#270=ORIENTED_EDGE('',*,*,#201,.F.);
#271=ORIENTED_EDGE('',*,*,#195,.T.);
#272=ORIENTED_EDGE('',*,*,#204,.F.);
#273=ORIENTED_EDGE('',*,*,#204,.T.);
#274=ORIENTED_EDGE('',*,*,#205,.T.);
#275=ORIENTED_EDGE('',*,*,#206,.T.);
#276=ORIENTED_EDGE('',*,*,#205,.F.);
#277=ORIENTED_EDGE('',*,*,#207,.F.);
#278=ORIENTED_EDGE('',*,*,#208,.F.);
#279=ORIENTED_EDGE('',*,*,#209,.T.);
#280=ORIENTED_EDGE('',*,*,#179,.F.);
#281=ORIENTED_EDGE('',*,*,#193,.F.);
#282=ORIENTED_EDGE('',*,*,#210,.F.);
#283=ORIENTED_EDGE('',*,*,#194,.T.);
#284=ORIENTED_EDGE('',*,*,#177,.F.);
#285=ORIENTED_EDGE('',*,*,#211,.F.);
#286=ORIENTED_EDGE('',*,*,#210,.T.);
#287=ORIENTED_EDGE('',*,*,#212,.T.);
#288=ORIENTED_EDGE('',*,*,#208,.T.);
#289=ORIENTED_EDGE('',*,*,#207,.T.);
#290=ORIENTED_EDGE('',*,*,#213,.F.);
#291=ORIENTED_EDGE('',*,*,#214,.T.);
#292=ORIENTED_EDGE('',*,*,#211,.T.);
#293=ORIENTED_EDGE('',*,*,#174,.F.);
#294=ORIENTED_EDGE('',*,*,#209,.F.);
#295=ORIENTED_EDGE('',*,*,#212,.F.);
#296=ORIENTED_EDGE('',*,*,#214,.F.);
#297=ORIENTED_EDGE('',*,*,#206,.F.);
#298=ORIENTED_EDGE('',*,*,#213,.T.);
#299=TOROIDAL_SURFACE('',#333,3.4,0.1);
#300=ADVANCED_FACE('',(#90),#299,.T.);
#301=ADVANCED_FACE('',(#91),#78,.F.);
#302=ADVANCED_FACE('',(#92),#22,.F.);
#303=ADVANCED_FACE('',(#93),#23,.T.);
#304=ADVANCED_FACE('',(#94,#16),#79,.T.);
#305=ADVANCED_FACE('',(#95,#17),#80,.T.);
#306=ADVANCED_FACE('',(#96),#24,.F.);
#307=ADVANCED_FACE('',(#97,#18),#25,.F.);
#308=ADVANCED_FACE('',(#98),#81,.T.);
#309=ADVANCED_FACE('',(#99),#82,.T.);
#310=ADVANCED_FACE('',(#100,#19),#83,.T.);
#311=ADVANCED_FACE('',(#101),#84,.T.);
#312=ADVANCED_FACE('',(#102,#20),#85,.F.);
#313=ADVANCED_FACE('',(#103),#26,.T.);
#314=ADVANCED_FACE('',(#104),#86,.T.);
#315=ADVANCED_FACE('',(#105),#87,.T.);
#316=ADVANCED_FACE('',(#106),#88,.T.);
#317=ADVANCED_FACE('',(#107),#27,.F.);
#318=ADVANCED_FACE('',(#108,#21),#89,.F.);
#319=CLOSED_SHELL('',(#300,#301,#302,#303,#304,#305,#306,#307,#308,#309,
#310,#311,#312,#313,#314,#315,#316,#317,#318));
#320=DERIVED_UNIT_ELEMENT(#322,1.);
#321=DERIVED_UNIT_ELEMENT(#596,-3.);
#322=(
MASS_UNIT()
NAMED_UNIT(*)
SI_UNIT(.KILO.,.GRAM.)
);
#323=DERIVED_UNIT((#320,#321));
#324=MEASURE_REPRESENTATION_ITEM('density measure',
POSITIVE_RATIO_MEASURE(7850.),#323);
#325=PROPERTY_DEFINITION_REPRESENTATION(#330,#327);
#326=PROPERTY_DEFINITION_REPRESENTATION(#331,#328);
#327=REPRESENTATION('material name',(#329),#593);
#328=REPRESENTATION('density',(#324),#593);
#329=DESCRIPTIVE_REPRESENTATION_ITEM('Steel','Steel');
#330=PROPERTY_DEFINITION('material property','material name',#603);
#331=PROPERTY_DEFINITION('material property','density of part',#603);
#332=AXIS2_PLACEMENT_3D('',#465,#368,#369);
#333=AXIS2_PLACEMENT_3D('',#466,#370,#371);
#334=AXIS2_PLACEMENT_3D('',#469,#372,#373);
#335=AXIS2_PLACEMENT_3D('',#470,#374,#375);
#336=AXIS2_PLACEMENT_3D('',#472,#376,#377);
#337=AXIS2_PLACEMENT_3D('',#473,#378,#379);
#338=AXIS2_PLACEMENT_3D('',#474,#380,#381);
#339=AXIS2_PLACEMENT_3D('',#478,#383,#384);
#340=AXIS2_PLACEMENT_3D('',#480,#386,#387);
#341=AXIS2_PLACEMENT_3D('',#482,#388,#389);
#342=AXIS2_PLACEMENT_3D('',#484,#391,#392);
#343=AXIS2_PLACEMENT_3D('',#487,#394,#395);
#344=AXIS2_PLACEMENT_3D('',#488,#396,#397);
#345=AXIS2_PLACEMENT_3D('',#489,#398,#399);
#346=AXIS2_PLACEMENT_3D('',#490,#400,#401);
#347=AXIS2_PLACEMENT_3D('',#499,#406,#407);
#348=AXIS2_PLACEMENT_3D('',#500,#408,#409);
#349=AXIS2_PLACEMENT_3D('',#546,#411,#412);
#350=AXIS2_PLACEMENT_3D('',#547,#413,#414);
#351=AXIS2_PLACEMENT_3D('',#552,#417,#418);
#352=AXIS2_PLACEMENT_3D('',#553,#419,#420);
#353=AXIS2_PLACEMENT_3D('',#559,#424,#425);
#354=AXIS2_PLACEMENT_3D('',#563,#428,#429);
#355=AXIS2_PLACEMENT_3D('',#567,#432,#433);
#356=AXIS2_PLACEMENT_3D('',#569,#435,#436);
#357=AXIS2_PLACEMENT_3D('',#570,#437,#438);
#358=AXIS2_PLACEMENT_3D('',#571,#439,#440);
#359=AXIS2_PLACEMENT_3D('',#574,#442,#443);
#360=AXIS2_PLACEMENT_3D('',#575,#444,#445);
#361=AXIS2_PLACEMENT_3D('',#576,#446,#447);
#362=AXIS2_PLACEMENT_3D('',#580,#450,#451);
#363=AXIS2_PLACEMENT_3D('',#584,#454,#455);
#364=AXIS2_PLACEMENT_3D('',#585,#456,#457);
#365=AXIS2_PLACEMENT_3D('',#586,#458,#459);
#366=AXIS2_PLACEMENT_3D('',#588,#460,#461);
#367=AXIS2_PLACEMENT_3D('',#590,#463,#464);
#368=DIRECTION('axis',(0.,0.,1.));
#369=DIRECTION('refdir',(1.,0.,0.));
#370=DIRECTION('center_axis',(0.,0.,1.));
#371=DIRECTION('ref_axis',(1.,0.,0.));
#372=DIRECTION('center_axis',(0.,0.,-1.));
#373=DIRECTION('ref_axis',(1.,0.,0.));
#374=DIRECTION('center_axis',(0.,0.,-1.));
#375=DIRECTION('ref_axis',(-1.,0.,0.));
#376=DIRECTION('center_axis',(1.22464679914735E-16,-1.,0.));
#377=DIRECTION('ref_axis',(-1.,-1.22464679914735E-16,0.));
#378=DIRECTION('center_axis',(0.,0.,1.));
#379=DIRECTION('ref_axis',(1.,0.,0.));
#380=DIRECTION('center_axis',(0.,0.,1.));
#381=DIRECTION('ref_axis',(1.,0.,0.));
#382=DIRECTION('',(-1.,0.,0.));
#383=DIRECTION('center_axis',(0.,0.,-1.));
#384=DIRECTION('ref_axis',(1.,0.,0.));
#385=DIRECTION('',(-1.,-2.77555756156289E-16,0.));
#386=DIRECTION('center_axis',(0.,0.,-1.));
#387=DIRECTION('ref_axis',(1.,0.,0.));
#388=DIRECTION('center_axis',(0.,0.,-1.));
#389=DIRECTION('ref_axis',(1.,0.,0.));
#390=DIRECTION('',(0.,0.,-1.));
#391=DIRECTION('center_axis',(0.,0.,-1.));
#392=DIRECTION('ref_axis',(1.,0.,0.));
#393=DIRECTION('',(0.,0.,1.));
#394=DIRECTION('center_axis',(0.,0.,1.));
#395=DIRECTION('ref_axis',(1.,0.,0.));
#396=DIRECTION('center_axis',(0.,0.,-1.));
#397=DIRECTION('ref_axis',(1.,0.,0.));
#398=DIRECTION('center_axis',(0.,0.,1.));
#399=DIRECTION('ref_axis',(1.,0.,0.));
#400=DIRECTION('center_axis',(0.,0.,1.));
#401=DIRECTION('ref_axis',(1.,0.,0.));
#402=DIRECTION('',(0.,1.,0.));
#403=DIRECTION('',(-1.,0.,0.));
#404=DIRECTION('',(0.,-1.,0.));
#405=DIRECTION('',(1.,0.,0.));
#406=DIRECTION('center_axis',(0.,0.,-1.));
#407=DIRECTION('ref_axis',(1.,0.,0.));
#408=DIRECTION('center_axis',(0.,1.,0.));
#409=DIRECTION('ref_axis',(1.,0.,0.));
#410=DIRECTION('',(0.,1.,0.));
#411=DIRECTION('center_axis',(0.,-1.,0.));
#412=DIRECTION('ref_axis',(1.,0.,0.));
#413=DIRECTION('center_axis',(0.,0.,1.));
#414=DIRECTION('ref_axis',(1.,0.,0.));
#415=DIRECTION('',(0.,0.,1.));
#416=DIRECTION('',(0.,0.,1.));
#417=DIRECTION('center_axis',(0.,0.,1.));
#418=DIRECTION('ref_axis',(1.,0.,0.));
#419=DIRECTION('center_axis',(0.,-1.,0.));
#420=DIRECTION('ref_axis',(1.,0.,0.));
#421=DIRECTION('',(1.,0.,0.));
#422=DIRECTION('',(0.,0.,1.));
#423=DIRECTION('',(0.,0.,1.));
#424=DIRECTION('center_axis',(-1.,0.,0.));
#425=DIRECTION('ref_axis',(0.,-1.,0.));
#426=DIRECTION('',(0.,-1.,0.));
#427=DIRECTION('',(0.,0.,1.));
#428=DIRECTION('center_axis',(0.,1.,0.));
#429=DIRECTION('ref_axis',(-1.,0.,0.));
#430=DIRECTION('',(-1.,0.,0.));
#431=DIRECTION('',(0.,0.,1.));
#432=DIRECTION('center_axis',(1.,0.,0.));
#433=DIRECTION('ref_axis',(0.,1.,0.));
#434=DIRECTION('',(0.,1.,0.));
#435=DIRECTION('center_axis',(0.,0.,1.));
#436=DIRECTION('ref_axis',(1.,0.,0.));
#437=DIRECTION('center_axis',(0.,0.,-1.));
#438=DIRECTION('ref_axis',(1.,0.,0.));
#439=DIRECTION('center_axis',(0.,0.,1.));
#440=DIRECTION('ref_axis',(1.,0.,0.));
#441=DIRECTION('',(0.,0.,-1.));
#442=DIRECTION('center_axis',(0.,0.,1.));
#443=DIRECTION('ref_axis',(1.,0.,0.));
#444=DIRECTION('center_axis',(0.,0.,1.));
#445=DIRECTION('ref_axis',(1.,0.,0.));
#446=DIRECTION('center_axis',(-2.77555756156289E-16,1.,0.));
#447=DIRECTION('ref_axis',(-1.,-2.77555756156289E-16,0.));
#448=DIRECTION('',(1.,2.77555756156289E-16,0.));
#449=DIRECTION('',(0.,0.,1.));
#450=DIRECTION('center_axis',(0.,1.,0.));
#451=DIRECTION('ref_axis',(-1.,0.,0.));
#452=DIRECTION('',(1.,0.,0.));
#453=DIRECTION('',(0.,0.,1.));
#454=DIRECTION('center_axis',(0.,0.,1.));
#455=DIRECTION('ref_axis',(1.,0.,0.));
#456=DIRECTION('center_axis',(0.,0.,-1.));
#457=DIRECTION('ref_axis',(1.,0.,0.));
#458=DIRECTION('center_axis',(0.,0.,1.));
#459=DIRECTION('ref_axis',(1.,0.,0.));
#460=DIRECTION('center_axis',(0.,0.,1.));
#461=DIRECTION('ref_axis',(1.,0.,0.));
#462=DIRECTION('',(0.,0.,1.));
#463=DIRECTION('center_axis',(0.,0.,1.));
#464=DIRECTION('ref_axis',(1.,0.,0.));
#465=CARTESIAN_POINT('',(0.,0.,0.));
#466=CARTESIAN_POINT('Origin',(0.,0.,10.1));
#467=CARTESIAN_POINT('',(-3.4,0.,10.));
#468=CARTESIAN_POINT('',(3.4,-5.55111512312578E-16,10.));
#469=CARTESIAN_POINT('Origin',(0.,0.,10.));
#470=CARTESIAN_POINT('Origin',(0.,0.,10.));
#471=CARTESIAN_POINT('',(-3.3,-4.04133443718627E-16,10.1));
#472=CARTESIAN_POINT('Origin',(-3.4,-4.163799117101E-16,10.1));
#473=CARTESIAN_POINT('Origin',(0.,0.,10.1));
#474=CARTESIAN_POINT('Origin',(0.,0.,10.));
#475=CARTESIAN_POINT('',(-3.9,0.,10.));
#476=CARTESIAN_POINT('',(-3.4,0.,10.));
#477=CARTESIAN_POINT('',(3.9,-4.16333634234434E-16,10.));
#478=CARTESIAN_POINT('Origin',(0.,0.,10.));
#479=CARTESIAN_POINT('',(3.4,-5.55111512312578E-16,10.));
#480=CARTESIAN_POINT('Origin',(0.,0.,15.));
#481=CARTESIAN_POINT('',(-3.3,4.04133443718627E-16,15.));
#482=CARTESIAN_POINT('Origin',(0.,0.,15.));
#483=CARTESIAN_POINT('',(-3.3,4.04133443718627E-16,15.));
#484=CARTESIAN_POINT('Origin',(0.,0.,15.));
#485=CARTESIAN_POINT('',(-3.9,-4.77612251667468E-16,15.));
#486=CARTESIAN_POINT('',(-3.9,4.77612251667468E-16,15.));
#487=CARTESIAN_POINT('Origin',(0.,0.,15.));
#488=CARTESIAN_POINT('Origin',(0.,0.,10.));
#489=CARTESIAN_POINT('Origin',(0.,0.,15.));
#490=CARTESIAN_POINT('Origin',(0.,-1.95,10.));
#491=CARTESIAN_POINT('',(5.00000007450581,-5.00000007450581,10.));
#492=CARTESIAN_POINT('',(5.00000007450581,5.00000007450581,10.));
#493=CARTESIAN_POINT('',(5.00000007450581,-5.00000007450581,10.));
#494=CARTESIAN_POINT('',(-5.00000007450581,5.00000007450581,10.));
#495=CARTESIAN_POINT('',(5.00000007450581,5.00000007450581,10.));
#496=CARTESIAN_POINT('',(-5.00000007450581,-5.00000007450581,10.));
#497=CARTESIAN_POINT('',(-5.00000007450581,5.00000007450581,10.));
#498=CARTESIAN_POINT('',(-5.00000007450581,-5.00000007450581,10.));
#499=CARTESIAN_POINT('Origin',(0.,0.,10.));
#500=CARTESIAN_POINT('Origin',(0.,0.,6.));
#501=CARTESIAN_POINT('',(-3.3,2.07846096908265,6.));
#502=CARTESIAN_POINT('Ctrl Pts',(-3.3,2.07846096908265,6.));
#503=CARTESIAN_POINT('Ctrl Pts',(-3.3,2.07846096908265,6.23067450368462));
#504=CARTESIAN_POINT('Ctrl Pts',(-3.2758767264296,2.11781109844411,6.45530315734352));
#505=CARTESIAN_POINT('Ctrl Pts',(-3.18604479092766,2.25066356715542,6.88766759610421));
#506=CARTESIAN_POINT('Ctrl Pts',(-3.12024597516786,2.343521182626,7.09558249051745));
#507=CARTESIAN_POINT('Ctrl Pts',(-2.86741380055424,2.65707452058997,7.68904800705068));
#508=CARTESIAN_POINT('Ctrl Pts',(-2.62193055556023,2.90948507633963,8.04497420027098));
#509=CARTESIAN_POINT('Ctrl Pts',(-2.05799909228841,3.33058886034131,8.6089056635428));
#510=CARTESIAN_POINT('Ctrl Pts',(-1.70285715254533,3.53468168148936,8.86068810652086));
#511=CARTESIAN_POINT('Ctrl Pts',(-0.894582738682325,3.82013347672234,9.20670886511869));
#512=CARTESIAN_POINT('Ctrl Pts',(-0.440518936088302,3.9,9.3));
#513=CARTESIAN_POINT('Ctrl Pts',(0.440518936088302,3.9,9.3));
#514=CARTESIAN_POINT('Ctrl Pts',(0.894582738682326,3.82013347672234,9.20670886511869));
#515=CARTESIAN_POINT('Ctrl Pts',(1.70285715254533,3.53468168148936,8.86068810652086));
#516=CARTESIAN_POINT('Ctrl Pts',(2.05799909228841,3.33058886034131,8.6089056635428));
#517=CARTESIAN_POINT('Ctrl Pts',(2.62193055556023,2.90948507633963,8.04497420027098));
#518=CARTESIAN_POINT('Ctrl Pts',(2.86741380055424,2.65707452058997,7.68904800705067));
#519=CARTESIAN_POINT('Ctrl Pts',(3.12024597516786,2.343521182626,7.09558249051745));
#520=CARTESIAN_POINT('Ctrl Pts',(3.18604479092766,2.25066356715542,6.88766759610421));
#521=CARTESIAN_POINT('Ctrl Pts',(3.2758767264296,2.11781109844411,6.45530315734352));
#522=CARTESIAN_POINT('Ctrl Pts',(3.3,2.07846096908265,6.23067450368462));
#523=CARTESIAN_POINT('Ctrl Pts',(3.3,2.07846096908265,5.76932549631538));
#524=CARTESIAN_POINT('Ctrl Pts',(3.2758767264296,2.11781109844411,5.54469684265647));
#525=CARTESIAN_POINT('Ctrl Pts',(3.18604479092766,2.25066356715542,5.11233240389579));
#526=CARTESIAN_POINT('Ctrl Pts',(3.12024597516786,2.343521182626,4.90441750948255));
#527=CARTESIAN_POINT('Ctrl Pts',(2.86741380055424,2.65707452058997,4.31095199294933));
#528=CARTESIAN_POINT('Ctrl Pts',(2.62193055556023,2.90948507633963,3.95502579972902));
#529=CARTESIAN_POINT('Ctrl Pts',(2.05799909228841,3.33058886034131,3.3910943364572));
#530=CARTESIAN_POINT('Ctrl Pts',(1.70285715254533,3.53468168148936,3.13931189347914));
#531=CARTESIAN_POINT('Ctrl Pts',(0.894582738682327,3.82013347672234,2.79329113488131));
#532=CARTESIAN_POINT('Ctrl Pts',(0.440518936088303,3.9,2.7));
#533=CARTESIAN_POINT('Ctrl Pts',(-0.440518936088302,3.9,2.7));
#534=CARTESIAN_POINT('Ctrl Pts',(-0.894582738682326,3.82013347672234,2.79329113488131));
#535=CARTESIAN_POINT('Ctrl Pts',(-1.70285715254533,3.53468168148936,3.13931189347914));
#536=CARTESIAN_POINT('Ctrl Pts',(-2.05799909228841,3.33058886034131,3.3910943364572));
#537=CARTESIAN_POINT('Ctrl Pts',(-2.62193055556023,2.90948507633963,3.95502579972902));
#538=CARTESIAN_POINT('Ctrl Pts',(-2.86741380055424,2.65707452058997,4.31095199294933));
#539=CARTESIAN_POINT('Ctrl Pts',(-3.12024597516786,2.343521182626,4.90441750948255));
#540=CARTESIAN_POINT('Ctrl Pts',(-3.18604479092766,2.25066356715542,5.11233240389579));
#541=CARTESIAN_POINT('Ctrl Pts',(-3.2758767264296,2.11781109844411,5.54469684265648));
#542=CARTESIAN_POINT('Ctrl Pts',(-3.3,2.07846096908265,5.76932549631538));
#543=CARTESIAN_POINT('Ctrl Pts',(-3.3,2.07846096908265,6.));
#544=CARTESIAN_POINT('',(-3.3,5.00000007450581,6.));
#545=CARTESIAN_POINT('',(-3.3,0.,6.));
#546=CARTESIAN_POINT('Origin',(0.,5.00000007450581,6.));
#547=CARTESIAN_POINT('Origin',(0.,0.,2.));
#548=CARTESIAN_POINT('',(3.9,-4.16333634234434E-16,2.));
#549=CARTESIAN_POINT('',(3.9,-4.16333634234434E-16,2.));
#550=CARTESIAN_POINT('',(-3.9,-4.77612251667468E-16,2.));
#551=CARTESIAN_POINT('',(-3.9,0.,2.));
#552=CARTESIAN_POINT('Origin',(0.,0.,2.));
#553=CARTESIAN_POINT('Origin',(-5.00000007450581,-5.00000007450581,2.));
#554=CARTESIAN_POINT('',(-5.00000007450581,-5.00000007450581,2.));
#555=CARTESIAN_POINT('',(5.00000007450581,-5.00000007450581,2.));
#556=CARTESIAN_POINT('',(-5.00000007450581,-5.00000007450581,2.));
#557=CARTESIAN_POINT('',(5.00000007450581,-5.00000007450581,2.));
#558=CARTESIAN_POINT('',(-5.00000007450581,-5.00000007450581,2.));
#559=CARTESIAN_POINT('Origin',(-5.00000007450581,5.00000007450581,2.));
#560=CARTESIAN_POINT('',(-5.00000007450581,5.00000007450581,2.));
#561=CARTESIAN_POINT('',(-5.00000007450581,5.00000007450581,2.));
#562=CARTESIAN_POINT('',(-5.00000007450581,5.00000007450581,2.));
#563=CARTESIAN_POINT('Origin',(5.00000007450581,5.00000007450581,2.));
#564=CARTESIAN_POINT('',(5.00000007450581,5.00000007450581,2.));
#565=CARTESIAN_POINT('',(5.00000007450581,5.00000007450581,2.));
#566=CARTESIAN_POINT('',(5.00000007450581,5.00000007450581,2.));
#567=CARTESIAN_POINT('Origin',(5.00000007450581,-5.00000007450581,2.));
#568=CARTESIAN_POINT('',(5.00000007450581,-5.00000007450581,2.));
#569=CARTESIAN_POINT('Origin',(0.,0.,2.));
#570=CARTESIAN_POINT('Origin',(0.,0.,2.));
#571=CARTESIAN_POINT('Origin',(0.,0.,0.));
#572=CARTESIAN_POINT('',(-3.9,-4.77612251667468E-16,0.));
#573=CARTESIAN_POINT('',(-3.9,-4.77612251667468E-16,0.));
#574=CARTESIAN_POINT('Origin',(0.,0.,0.));
#575=CARTESIAN_POINT('Origin',(0.,0.,2.));
#576=CARTESIAN_POINT('Origin',(3.9,-4.16333634234434E-16,2.));
#577=CARTESIAN_POINT('',(3.4,-5.55111512312578E-16,2.));
#578=CARTESIAN_POINT('',(1.95,-9.57567358739197E-16,2.));
#579=CARTESIAN_POINT('',(3.4,-5.55111512312578E-16,2.));
#580=CARTESIAN_POINT('Origin',(-3.4,0.,2.));
#581=CARTESIAN_POINT('',(-3.4,4.163799117101E-16,2.));
#582=CARTESIAN_POINT('',(-1.7,0.,2.));
#583=CARTESIAN_POINT('',(-3.4,0.,2.));
#584=CARTESIAN_POINT('Origin',(0.,0.,2.));
#585=CARTESIAN_POINT('Origin',(0.,0.,2.));
#586=CARTESIAN_POINT('Origin',(0.,0.,0.));
#587=CARTESIAN_POINT('',(-3.4,4.163799117101E-16,0.));
#588=CARTESIAN_POINT('Origin',(0.,0.,0.));
#589=CARTESIAN_POINT('',(-3.4,-4.163799117101E-16,0.));
#590=CARTESIAN_POINT('Origin',(0.,0.,0.));
#591=UNCERTAINTY_MEASURE_WITH_UNIT(LENGTH_MEASURE(0.01),#595,
'DISTANCE_ACCURACY_VALUE',
'Maximum model space distance between geometric entities at asserted c
onnectivities');
#592=UNCERTAINTY_MEASURE_WITH_UNIT(LENGTH_MEASURE(0.01),#595,
'DISTANCE_ACCURACY_VALUE',
'Maximum model space distance between geometric entities at asserted c
onnectivities');
#593=(
GEOMETRIC_REPRESENTATION_CONTEXT(3)
GLOBAL_UNCERTAINTY_ASSIGNED_CONTEXT((#591))
GLOBAL_UNIT_ASSIGNED_CONTEXT((#595,#597,#598))
REPRESENTATION_CONTEXT('','3D')
);
#594=(
GEOMETRIC_REPRESENTATION_CONTEXT(3)
GLOBAL_UNCERTAINTY_ASSIGNED_CONTEXT((#592))
GLOBAL_UNIT_ASSIGNED_CONTEXT((#595,#597,#598))
REPRESENTATION_CONTEXT('','3D')
);
#595=(
LENGTH_UNIT()
NAMED_UNIT(*)
SI_UNIT(.MILLI.,.METRE.)
);
#596=(
LENGTH_UNIT()
NAMED_UNIT(*)
SI_UNIT($,.METRE.)
);
#597=(
NAMED_UNIT(*)
PLANE_ANGLE_UNIT()
SI_UNIT($,.RADIAN.)
);
#598=(
NAMED_UNIT(*)
SI_UNIT($,.STERADIAN.)
SOLID_ANGLE_UNIT()
);
#599=SHAPE_DEFINITION_REPRESENTATION(#600,#601);
#600=PRODUCT_DEFINITION_SHAPE('',$,#603);
#601=SHAPE_REPRESENTATION('',(#332),#593);
#602=PRODUCT_DEFINITION_CONTEXT('part definition',#607,'design');
#603=PRODUCT_DEFINITION('2026-09-19-23-51-35-841','Barrel_1',#604,#602);
#604=PRODUCT_DEFINITION_FORMATION('',$,#609);
#605=PRODUCT_RELATED_PRODUCT_CATEGORY('Barrel_1','Barrel_1',(#609));
#606=APPLICATION_PROTOCOL_DEFINITION('international standard',
'automotive_design',2009,#607);
#607=APPLICATION_CONTEXT(
'Core Data for Automotive Mechanical Design Process');
#608=PRODUCT_CONTEXT('part definition',#607,'mechanical');
#609=PRODUCT('2026-09-19-23-51-35-841','Barrel_1',$,(#608));
#610=PRESENTATION_STYLE_ASSIGNMENT((#611));
#611=SURFACE_STYLE_USAGE(.BOTH.,#612);
#612=SURFACE_SIDE_STYLE('',(#613));
#613=SURFACE_STYLE_FILL_AREA(#614);
#614=FILL_AREA_STYLE('Steel - Satin',(#615));
#615=FILL_AREA_STYLE_COLOUR('Steel - Satin',#616);
#616=COLOUR_RGB('Steel - Satin',0.627450980392157,0.627450980392157,0.627450980392157);
ENDSEC;
END-ISO-10303-21;
