ISO-10303-21;
HEADER;
/* Generated by software containing ST-Developer
 * from STEP Tools, Inc. (www.steptools.com) 
 */

FILE_DESCRIPTION(
/* description */ (''),
/* implementation_level */ '2;1');

FILE_NAME(
/* name */ 'Barrel_1_Ver2.step',
/* time_stamp */ '2026-09-24T10:54:16+05:30',
/* author */ (''),
/* organization */ (''),
/* preprocessor_version */ 'ST-DEVELOPER v20.2',
/* originating_system */ 'Autodesk Translation Framework v15.15.0.0',
/* authorisation */ '');

FILE_SCHEMA (('AUTOMOTIVE_DESIGN { 1 0 10303 214 3 1 1 }'));
ENDSEC;

DATA;
#10=MECHANICAL_DESIGN_GEOMETRIC_PRESENTATION_REPRESENTATION('',(#27,#28),
#869);
#11=SHAPE_REPRESENTATION_RELATIONSHIP('SRR','None',#876,#12);
#12=ADVANCED_BREP_SHAPE_REPRESENTATION('',(#29,#30),#868);
#13=B_SPLINE_SURFACE_WITH_KNOTS('',3,3,((#748,#749,#750,#751,#752,#753,
#754,#755,#756,#757,#758,#759),(#760,#761,#762,#763,#764,#765,#766,#767,
#768,#769,#770,#771),(#772,#773,#774,#775,#776,#777,#778,#779,#780,#781,
#782,#783),(#784,#785,#786,#787,#788,#789,#790,#791,#792,#793,#794,#795),
(#796,#797,#798,#799,#800,#801,#802,#803,#804,#805,#806,#807),(#808,#809,
#810,#811,#812,#813,#814,#815,#816,#817,#818,#819),(#820,#821,#822,#823,
#824,#825,#826,#827,#828,#829,#830,#831),(#832,#833,#834,#835,#836,#837,
#838,#839,#840,#841,#842,#843)),.UNSPECIFIED.,.F.,.T.,.F.,(4,1,1,1,1,4),
(4,1,1,1,1,1,1,1,1,4),(0.,0.285714285714286,0.571428571428571,0.714285714285714,
0.857142857142857,1.),(0.,0.294859451731486,0.589718903462972,1.17943780692594,
1.76915671038892,2.35887561385189,2.94859451731486,3.53831342077783,3.83317287250932,
4.12803232424081),.UNSPECIFIED.);
#14=B_SPLINE_CURVE_WITH_KNOTS('',3,(#531,#532,#533,#534,#535,#536,#537,
#538,#539,#540,#541,#542,#543,#544,#545,#546,#547,#548),.UNSPECIFIED.,.F.,
 .F.,(4,2,2,2,2,2,2,2,4),(0.,0.129377573749868,0.258755147499735,0.386190212925938,
0.51362527835214,0.641060342951792,0.768495407551445,0.89787298086333,1.02725055417522),
 .UNSPECIFIED.);
#15=B_SPLINE_CURVE_WITH_KNOTS('',3,(#549,#550,#551,#552,#553,#554,#555,
#556,#557,#558,#559,#560,#561,#562,#563,#564,#565,#566),.UNSPECIFIED.,.F.,
 .F.,(4,2,2,2,2,2,2,2,4),(1.02725055417522,1.1566281274871,1.28600570079899,
1.41344076539864,1.54087582999829,1.66831089542449,1.7957459608507,1.92512353460056,
2.05450110835043),.UNSPECIFIED.);
#16=B_SPLINE_CURVE_WITH_KNOTS('',3,(#581,#582,#583,#584,#585,#586,#587,
#588,#589,#590,#591,#592,#593,#594,#595,#596,#597,#598,#599,#600,#601,#602,
#603,#604),.UNSPECIFIED.,.F.,.F.,(4,2,2,2,2,2,2,2,2,2,2,4),(0.,0.0294362796393588,
0.181335558728927,0.204716780560996,0.214722791596894,0.221765906007323,
0.228886340845627,0.239275978235662,0.251565963798776,0.288994572794746,
0.366191745374904,0.437431734640045),.UNSPECIFIED.);
#17=B_SPLINE_CURVE_WITH_KNOTS('',3,(#613,#614,#615,#616,#617,#618,#619,
#620,#621,#622,#623,#624,#625,#626,#627,#628,#629,#630,#631,#632,#633,#634,
#635,#636),.UNSPECIFIED.,.F.,.F.,(4,2,2,2,2,2,2,2,2,2,2,4),(0.,0.0294362855921241,
0.181335550998207,0.204716782449392,0.214722794187447,0.221765908521303,
0.228886342683324,0.239275977184433,0.25156595690721,0.288994532611933,
0.366191609995298,0.437431739087122),.UNSPECIFIED.);
#18=B_SPLINE_CURVE_WITH_KNOTS('',3,(#646,#647,#648,#649,#650,#651,#652,
#653,#654,#655,#656,#657,#658,#659,#660,#661),.UNSPECIFIED.,.F.,.F.,(4,
2,2,2,2,2,2,4),(0.221551233723206,0.221765893512065,0.228886363194581,0.239276053844694,
0.251566095159483,0.288994816215977,0.366192119606022,0.437431692056584),
 .UNSPECIFIED.);
#19=B_SPLINE_CURVE_WITH_KNOTS('',3,(#663,#664,#665,#666,#667,#668,#669,
#670,#671,#672,#673,#674),.UNSPECIFIED.,.F.,.F.,(4,2,2,2,2,4),(0.,0.0294362581057917,
0.181335522087597,0.204716712789798,0.214722749849436,0.221551233723206),
 .UNSPECIFIED.);
#20=B_SPLINE_CURVE_WITH_KNOTS('',3,(#682,#683,#684,#685,#686,#687,#688,
#689,#690,#691,#692,#693,#694,#695,#696,#697,#698,#699,#700,#701,#702,#703,
#704,#705),.UNSPECIFIED.,.F.,.F.,(4,2,2,2,2,2,2,2,2,2,2,4),(0.,0.029436285665977,
0.181335579610215,0.204716792932123,0.214722803045567,0.221765916904279,
0.228886350844307,0.239275986141036,0.251565968802608,0.288994576201601,
0.366191832193502,0.437431763873463),.UNSPECIFIED.);
#21=B_SPLINE_CURVE_WITH_KNOTS('',3,(#708,#709,#710,#711,#712),
 .UNSPECIFIED.,.F.,.F.,(4,1,4),(-1.78170488721021,-1.76915671038892,-1.31431937881753),
 .UNSPECIFIED.);
#22=B_SPLINE_CURVE_WITH_KNOTS('',3,(#716,#717,#718,#719,#720,#721,#722,
#723,#724,#725,#726,#727),.UNSPECIFIED.,.T.,.F.,(4,1,1,1,1,1,1,1,1,4),(0.,
0.294859451731486,0.589718903462972,1.17943780692594,1.76915671038892,2.35887561385189,
2.94859451731486,3.53831342077783,3.83317287250932,4.12803232424081),
 .UNSPECIFIED.);
#23=B_SPLINE_CURVE_WITH_KNOTS('',3,(#729,#730,#731,#732,#733,#734),
 .UNSPECIFIED.,.F.,.F.,(4,1,1,4),(-0.749696721433033,-0.589718903462972,
-0.294859451731486,-0.282311102582831),.UNSPECIFIED.);
#24=B_SPLINE_CURVE_WITH_KNOTS('',3,(#736,#737,#738,#739,#740),
 .UNSPECIFIED.,.F.,.F.,(4,1,4),(-2.81371295765887,-2.35887561385189,-2.3463274370345),
 .UNSPECIFIED.);
#25=B_SPLINE_CURVE_WITH_KNOTS('',3,(#742,#743,#744,#745,#746,#747),
 .UNSPECIFIED.,.F.,.F.,(4,1,1,4),(-3.84572121923923,-3.83317287250932,-3.53831342077783,
-3.37833559759491),.UNSPECIFIED.);
#26=B_SPLINE_CURVE_WITH_KNOTS('',3,(#844,#845,#846,#847,#848,#849,#850,
#851,#852,#853,#854,#855,#856),.UNSPECIFIED.,.F.,.F.,(4,3,3,3,4),(0.479492387265008,
0.571428571428714,0.714285714285809,0.857142857142905,1.),.UNSPECIFIED.);
#27=STYLED_ITEM('',(#885),#29);
#28=STYLED_ITEM('',(#885),#30);
#29=MANIFOLD_SOLID_BREP('Body10',#361);
#30=MANIFOLD_SOLID_BREP('Body10',#362);
#31=FACE_BOUND('',#125,.T.);
#32=FACE_BOUND('',#128,.T.);
#33=FACE_BOUND('',#130,.T.);
#34=FACE_BOUND('',#132,.T.);
#35=FACE_BOUND('',#134,.T.);
#36=FACE_BOUND('',#137,.T.);
#37=FACE_BOUND('',#148,.T.);
#38=PLANE('',#383);
#39=PLANE('',#387);
#40=PLANE('',#388);
#41=PLANE('',#393);
#42=PLANE('',#394);
#43=PLANE('',#395);
#44=PLANE('',#397);
#45=PLANE('',#398);
#46=PLANE('',#399);
#47=PLANE('',#401);
#48=PLANE('',#402);
#49=PLANE('',#403);
#50=PLANE('',#406);
#51=LINE('',#511,#73);
#52=LINE('',#518,#74);
#53=LINE('',#528,#75);
#54=LINE('',#570,#76);
#55=LINE('',#572,#77);
#56=LINE('',#574,#78);
#57=LINE('',#575,#79);
#58=LINE('',#579,#80);
#59=LINE('',#606,#81);
#60=LINE('',#607,#82);
#61=LINE('',#608,#83);
#62=LINE('',#611,#84);
#63=LINE('',#638,#85);
#64=LINE('',#639,#86);
#65=LINE('',#644,#87);
#66=LINE('',#676,#88);
#67=LINE('',#677,#89);
#68=LINE('',#680,#90);
#69=LINE('',#706,#91);
#70=LINE('',#715,#92);
#71=LINE('',#860,#93);
#72=LINE('',#865,#94);
#73=VECTOR('',#425,4.25);
#74=VECTOR('',#434,4.6);
#75=VECTOR('',#447,4.6);
#76=VECTOR('',#450,10.);
#77=VECTOR('',#451,10.);
#78=VECTOR('',#452,10.);
#79=VECTOR('',#453,10.);
#80=VECTOR('',#456,10.);
#81=VECTOR('',#457,10.);
#82=VECTOR('',#458,10.);
#83=VECTOR('',#459,10.);
#84=VECTOR('',#462,10.);
#85=VECTOR('',#463,10.);
#86=VECTOR('',#464,10.);
#87=VECTOR('',#469,10.);
#88=VECTOR('',#470,10.);
#89=VECTOR('',#471,10.);
#90=VECTOR('',#474,10.);
#91=VECTOR('',#475,10.);
#92=VECTOR('',#480,4.6);
#93=VECTOR('',#491,3.25);
#94=VECTOR('',#498,3.75);
#95=CYLINDRICAL_SURFACE('',#381,4.25);
#96=CYLINDRICAL_SURFACE('',#385,4.6);
#97=CYLINDRICAL_SURFACE('',#391,4.6);
#98=CYLINDRICAL_SURFACE('',#400,5.6);
#99=CYLINDRICAL_SURFACE('',#404,3.25);
#100=CYLINDRICAL_SURFACE('',#408,3.75);
#101=FACE_OUTER_BOUND('',#122,.T.);
#102=FACE_OUTER_BOUND('',#123,.T.);
#103=FACE_OUTER_BOUND('',#124,.T.);
#104=FACE_OUTER_BOUND('',#126,.T.);
#105=FACE_OUTER_BOUND('',#127,.T.);
#106=FACE_OUTER_BOUND('',#129,.T.);
#107=FACE_OUTER_BOUND('',#131,.T.);
#108=FACE_OUTER_BOUND('',#133,.T.);
#109=FACE_OUTER_BOUND('',#135,.T.);
#110=FACE_OUTER_BOUND('',#136,.T.);
#111=FACE_OUTER_BOUND('',#138,.T.);
#112=FACE_OUTER_BOUND('',#139,.T.);
#113=FACE_OUTER_BOUND('',#140,.T.);
#114=FACE_OUTER_BOUND('',#141,.T.);
#115=FACE_OUTER_BOUND('',#142,.T.);
#116=FACE_OUTER_BOUND('',#143,.T.);
#117=FACE_OUTER_BOUND('',#144,.T.);
#118=FACE_OUTER_BOUND('',#145,.T.);
#119=FACE_OUTER_BOUND('',#146,.T.);
#120=FACE_OUTER_BOUND('',#147,.T.);
#121=FACE_OUTER_BOUND('',#149,.T.);
#122=EDGE_LOOP('',(#243,#244,#245,#246,#247));
#123=EDGE_LOOP('',(#248,#249,#250,#251,#252));
#124=EDGE_LOOP('',(#253));
#125=EDGE_LOOP('',(#254));
#126=EDGE_LOOP('',(#255,#256,#257,#258));
#127=EDGE_LOOP('',(#259));
#128=EDGE_LOOP('',(#260));
#129=EDGE_LOOP('',(#261));
#130=EDGE_LOOP('',(#262));
#131=EDGE_LOOP('',(#263,#264,#265,#266));
#132=EDGE_LOOP('',(#267,#268));
#133=EDGE_LOOP('',(#269,#270,#271,#272));
#134=EDGE_LOOP('',(#273));
#135=EDGE_LOOP('',(#274,#275,#276,#277,#278,#279));
#136=EDGE_LOOP('',(#280,#281,#282,#283,#284,#285));
#137=EDGE_LOOP('',(#286));
#138=EDGE_LOOP('',(#287,#288,#289,#290,#291,#292,#293));
#139=EDGE_LOOP('',(#294,#295,#296,#297,#298,#299));
#140=EDGE_LOOP('',(#300,#301,#302));
#141=EDGE_LOOP('',(#303,#304,#305,#306));
#142=EDGE_LOOP('',(#307,#308,#309));
#143=EDGE_LOOP('',(#310,#311,#312));
#144=EDGE_LOOP('',(#313,#314,#315));
#145=EDGE_LOOP('',(#316,#317,#318,#319,#320,#321,#322,#323,#324,#325,#326,
#327));
#146=EDGE_LOOP('',(#328,#329,#330,#331,#332));
#147=EDGE_LOOP('',(#333));
#148=EDGE_LOOP('',(#334));
#149=EDGE_LOOP('',(#335,#336,#337,#338));
#150=CIRCLE('',#377,4.25);
#151=CIRCLE('',#378,0.3);
#152=CIRCLE('',#379,4.55);
#153=CIRCLE('',#380,4.25);
#154=CIRCLE('',#382,4.25);
#155=CIRCLE('',#384,4.6);
#156=CIRCLE('',#386,4.6);
#157=CIRCLE('',#389,5.6);
#158=CIRCLE('',#390,4.6);
#159=CIRCLE('',#392,4.6);
#160=CIRCLE('',#396,3.75);
#161=CIRCLE('',#405,3.25);
#162=CIRCLE('',#407,3.75);
#163=VERTEX_POINT('',#501);
#164=VERTEX_POINT('',#502);
#165=VERTEX_POINT('',#504);
#166=VERTEX_POINT('',#509);
#167=VERTEX_POINT('',#513);
#168=VERTEX_POINT('',#516);
#169=VERTEX_POINT('',#521);
#170=VERTEX_POINT('',#523);
#171=VERTEX_POINT('',#526);
#172=VERTEX_POINT('',#529);
#173=VERTEX_POINT('',#530);
#174=VERTEX_POINT('',#568);
#175=VERTEX_POINT('',#569);
#176=VERTEX_POINT('',#571);
#177=VERTEX_POINT('',#573);
#178=VERTEX_POINT('',#577);
#179=VERTEX_POINT('',#578);
#180=VERTEX_POINT('',#580);
#181=VERTEX_POINT('',#605);
#182=VERTEX_POINT('',#610);
#183=VERTEX_POINT('',#612);
#184=VERTEX_POINT('',#637);
#185=VERTEX_POINT('',#640);
#186=VERTEX_POINT('',#643);
#187=VERTEX_POINT('',#645);
#188=VERTEX_POINT('',#662);
#189=VERTEX_POINT('',#675);
#190=VERTEX_POINT('',#679);
#191=VERTEX_POINT('',#681);
#192=VERTEX_POINT('',#714);
#193=VERTEX_POINT('',#858);
#194=VERTEX_POINT('',#862);
#195=EDGE_CURVE('',#163,#164,#150,.T.);
#196=EDGE_CURVE('',#164,#165,#151,.T.);
#197=EDGE_CURVE('',#165,#165,#152,.T.);
#198=EDGE_CURVE('',#164,#163,#153,.T.);
#199=EDGE_CURVE('',#166,#166,#154,.T.);
#200=EDGE_CURVE('',#166,#163,#51,.T.);
#201=EDGE_CURVE('',#167,#167,#155,.T.);
#202=EDGE_CURVE('',#168,#168,#156,.T.);
#203=EDGE_CURVE('',#168,#167,#52,.T.);
#204=EDGE_CURVE('',#169,#169,#157,.T.);
#205=EDGE_CURVE('',#170,#170,#158,.T.);
#206=EDGE_CURVE('',#171,#171,#159,.T.);
#207=EDGE_CURVE('',#171,#170,#53,.T.);
#208=EDGE_CURVE('',#172,#173,#14,.T.);
#209=EDGE_CURVE('',#173,#172,#15,.T.);
#210=EDGE_CURVE('',#174,#175,#54,.T.);
#211=EDGE_CURVE('',#175,#176,#55,.T.);
#212=EDGE_CURVE('',#176,#177,#56,.T.);
#213=EDGE_CURVE('',#177,#174,#57,.T.);
#214=EDGE_CURVE('',#178,#179,#58,.T.);
#215=EDGE_CURVE('',#179,#180,#16,.F.);
#216=EDGE_CURVE('',#180,#181,#59,.T.);
#217=EDGE_CURVE('',#181,#175,#60,.T.);
#218=EDGE_CURVE('',#178,#174,#61,.T.);
#219=EDGE_CURVE('',#181,#182,#62,.T.);
#220=EDGE_CURVE('',#182,#183,#17,.F.);
#221=EDGE_CURVE('',#183,#184,#63,.T.);
#222=EDGE_CURVE('',#184,#176,#64,.T.);
#223=EDGE_CURVE('',#185,#185,#160,.T.);
#224=EDGE_CURVE('',#184,#186,#65,.T.);
#225=EDGE_CURVE('',#186,#187,#18,.F.);
#226=EDGE_CURVE('',#187,#188,#19,.F.);
#227=EDGE_CURVE('',#188,#189,#66,.T.);
#228=EDGE_CURVE('',#189,#177,#67,.T.);
#229=EDGE_CURVE('',#189,#190,#68,.T.);
#230=EDGE_CURVE('',#190,#191,#20,.F.);
#231=EDGE_CURVE('',#191,#178,#69,.T.);
#232=EDGE_CURVE('',#179,#191,#21,.T.);
#233=EDGE_CURVE('',#169,#192,#70,.T.);
#234=EDGE_CURVE('',#192,#192,#22,.T.);
#235=EDGE_CURVE('',#190,#188,#23,.T.);
#236=EDGE_CURVE('',#182,#180,#24,.T.);
#237=EDGE_CURVE('',#186,#183,#25,.T.);
#238=EDGE_CURVE('',#187,#192,#26,.T.);
#239=EDGE_CURVE('',#193,#193,#161,.T.);
#240=EDGE_CURVE('',#193,#173,#71,.T.);
#241=EDGE_CURVE('',#194,#194,#162,.T.);
#242=EDGE_CURVE('',#194,#185,#72,.T.);
#243=ORIENTED_EDGE('',*,*,#195,.T.);
#244=ORIENTED_EDGE('',*,*,#196,.T.);
#245=ORIENTED_EDGE('',*,*,#197,.T.);
#246=ORIENTED_EDGE('',*,*,#196,.F.);
#247=ORIENTED_EDGE('',*,*,#198,.T.);
#248=ORIENTED_EDGE('',*,*,#199,.F.);
#249=ORIENTED_EDGE('',*,*,#200,.T.);
#250=ORIENTED_EDGE('',*,*,#198,.F.);
#251=ORIENTED_EDGE('',*,*,#195,.F.);
#252=ORIENTED_EDGE('',*,*,#200,.F.);
#253=ORIENTED_EDGE('',*,*,#201,.T.);
#254=ORIENTED_EDGE('',*,*,#197,.F.);
#255=ORIENTED_EDGE('',*,*,#202,.F.);
#256=ORIENTED_EDGE('',*,*,#203,.T.);
#257=ORIENTED_EDGE('',*,*,#201,.F.);
#258=ORIENTED_EDGE('',*,*,#203,.F.);
#259=ORIENTED_EDGE('',*,*,#202,.T.);
#260=ORIENTED_EDGE('',*,*,#199,.T.);
#261=ORIENTED_EDGE('',*,*,#204,.T.);
#262=ORIENTED_EDGE('',*,*,#205,.T.);
#263=ORIENTED_EDGE('',*,*,#206,.F.);
#264=ORIENTED_EDGE('',*,*,#207,.T.);
#265=ORIENTED_EDGE('',*,*,#205,.F.);
#266=ORIENTED_EDGE('',*,*,#207,.F.);
#267=ORIENTED_EDGE('',*,*,#208,.T.);
#268=ORIENTED_EDGE('',*,*,#209,.T.);
#269=ORIENTED_EDGE('',*,*,#210,.T.);
#270=ORIENTED_EDGE('',*,*,#211,.T.);
#271=ORIENTED_EDGE('',*,*,#212,.T.);
#272=ORIENTED_EDGE('',*,*,#213,.T.);
#273=ORIENTED_EDGE('',*,*,#206,.T.);
#274=ORIENTED_EDGE('',*,*,#214,.T.);
#275=ORIENTED_EDGE('',*,*,#215,.T.);
#276=ORIENTED_EDGE('',*,*,#216,.T.);
#277=ORIENTED_EDGE('',*,*,#217,.T.);
#278=ORIENTED_EDGE('',*,*,#210,.F.);
#279=ORIENTED_EDGE('',*,*,#218,.F.);
#280=ORIENTED_EDGE('',*,*,#219,.T.);
#281=ORIENTED_EDGE('',*,*,#220,.T.);
#282=ORIENTED_EDGE('',*,*,#221,.T.);
#283=ORIENTED_EDGE('',*,*,#222,.T.);
#284=ORIENTED_EDGE('',*,*,#211,.F.);
#285=ORIENTED_EDGE('',*,*,#217,.F.);
#286=ORIENTED_EDGE('',*,*,#223,.T.);
#287=ORIENTED_EDGE('',*,*,#224,.T.);
#288=ORIENTED_EDGE('',*,*,#225,.T.);
#289=ORIENTED_EDGE('',*,*,#226,.T.);
#290=ORIENTED_EDGE('',*,*,#227,.T.);
#291=ORIENTED_EDGE('',*,*,#228,.T.);
#292=ORIENTED_EDGE('',*,*,#212,.F.);
#293=ORIENTED_EDGE('',*,*,#222,.F.);
#294=ORIENTED_EDGE('',*,*,#229,.T.);
#295=ORIENTED_EDGE('',*,*,#230,.T.);
#296=ORIENTED_EDGE('',*,*,#231,.T.);
#297=ORIENTED_EDGE('',*,*,#218,.T.);
#298=ORIENTED_EDGE('',*,*,#213,.F.);
#299=ORIENTED_EDGE('',*,*,#228,.F.);
#300=ORIENTED_EDGE('',*,*,#232,.F.);
#301=ORIENTED_EDGE('',*,*,#214,.F.);
#302=ORIENTED_EDGE('',*,*,#231,.F.);
#303=ORIENTED_EDGE('',*,*,#204,.F.);
#304=ORIENTED_EDGE('',*,*,#233,.T.);
#305=ORIENTED_EDGE('',*,*,#234,.F.);
#306=ORIENTED_EDGE('',*,*,#233,.F.);
#307=ORIENTED_EDGE('',*,*,#235,.F.);
#308=ORIENTED_EDGE('',*,*,#229,.F.);
#309=ORIENTED_EDGE('',*,*,#227,.F.);
#310=ORIENTED_EDGE('',*,*,#236,.F.);
#311=ORIENTED_EDGE('',*,*,#219,.F.);
#312=ORIENTED_EDGE('',*,*,#216,.F.);
#313=ORIENTED_EDGE('',*,*,#237,.F.);
#314=ORIENTED_EDGE('',*,*,#224,.F.);
#315=ORIENTED_EDGE('',*,*,#221,.F.);
#316=ORIENTED_EDGE('',*,*,#230,.F.);
#317=ORIENTED_EDGE('',*,*,#235,.T.);
#318=ORIENTED_EDGE('',*,*,#226,.F.);
#319=ORIENTED_EDGE('',*,*,#238,.T.);
#320=ORIENTED_EDGE('',*,*,#234,.T.);
#321=ORIENTED_EDGE('',*,*,#238,.F.);
#322=ORIENTED_EDGE('',*,*,#225,.F.);
#323=ORIENTED_EDGE('',*,*,#237,.T.);
#324=ORIENTED_EDGE('',*,*,#220,.F.);
#325=ORIENTED_EDGE('',*,*,#236,.T.);
#326=ORIENTED_EDGE('',*,*,#215,.F.);
#327=ORIENTED_EDGE('',*,*,#232,.T.);
#328=ORIENTED_EDGE('',*,*,#239,.F.);
#329=ORIENTED_EDGE('',*,*,#240,.T.);
#330=ORIENTED_EDGE('',*,*,#208,.F.);
#331=ORIENTED_EDGE('',*,*,#209,.F.);
#332=ORIENTED_EDGE('',*,*,#240,.F.);
#333=ORIENTED_EDGE('',*,*,#241,.T.);
#334=ORIENTED_EDGE('',*,*,#239,.T.);
#335=ORIENTED_EDGE('',*,*,#241,.F.);
#336=ORIENTED_EDGE('',*,*,#242,.T.);
#337=ORIENTED_EDGE('',*,*,#223,.F.);
#338=ORIENTED_EDGE('',*,*,#242,.F.);
#339=TOROIDAL_SURFACE('',#376,4.55,0.3);
#340=ADVANCED_FACE('',(#101),#339,.T.);
#341=ADVANCED_FACE('',(#102),#95,.F.);
#342=ADVANCED_FACE('',(#103,#31),#38,.F.);
#343=ADVANCED_FACE('',(#104),#96,.T.);
#344=ADVANCED_FACE('',(#105,#32),#39,.T.);
#345=ADVANCED_FACE('',(#106,#33),#40,.F.);
#346=ADVANCED_FACE('',(#107,#34),#97,.F.);
#347=ADVANCED_FACE('',(#108,#35),#41,.T.);
#348=ADVANCED_FACE('',(#109),#42,.T.);
#349=ADVANCED_FACE('',(#110,#36),#43,.T.);
#350=ADVANCED_FACE('',(#111),#44,.T.);
#351=ADVANCED_FACE('',(#112),#45,.T.);
#352=ADVANCED_FACE('',(#113),#46,.F.);
#353=ADVANCED_FACE('',(#114),#98,.T.);
#354=ADVANCED_FACE('',(#115),#47,.F.);
#355=ADVANCED_FACE('',(#116),#48,.F.);
#356=ADVANCED_FACE('',(#117),#49,.F.);
#357=ADVANCED_FACE('',(#118),#13,.T.);
#358=ADVANCED_FACE('',(#119),#99,.F.);
#359=ADVANCED_FACE('',(#120,#37),#50,.T.);
#360=ADVANCED_FACE('',(#121),#100,.T.);
#361=CLOSED_SHELL('',(#340,#341,#342,#343,#344));
#362=CLOSED_SHELL('',(#345,#346,#347,#348,#349,#350,#351,#352,#353,#354,
#355,#356,#357,#358,#359,#360));
#363=DERIVED_UNIT_ELEMENT(#365,1.);
#364=DERIVED_UNIT_ELEMENT(#871,-3.);
#365=(
MASS_UNIT()
NAMED_UNIT(*)
SI_UNIT(.KILO.,.GRAM.)
);
#366=DERIVED_UNIT((#363,#364));
#367=MEASURE_REPRESENTATION_ITEM('density measure',
POSITIVE_RATIO_MEASURE(7850.),#366);
#368=PROPERTY_DEFINITION_REPRESENTATION(#373,#370);
#369=PROPERTY_DEFINITION_REPRESENTATION(#374,#371);
#370=REPRESENTATION('material name',(#372),#868);
#371=REPRESENTATION('density',(#367),#868);
#372=DESCRIPTIVE_REPRESENTATION_ITEM('Steel','Steel');
#373=PROPERTY_DEFINITION('material property','material name',#878);
#374=PROPERTY_DEFINITION('material property','density of part',#878);
#375=AXIS2_PLACEMENT_3D('',#499,#409,#410);
#376=AXIS2_PLACEMENT_3D('',#500,#411,#412);
#377=AXIS2_PLACEMENT_3D('',#503,#413,#414);
#378=AXIS2_PLACEMENT_3D('',#505,#415,#416);
#379=AXIS2_PLACEMENT_3D('',#506,#417,#418);
#380=AXIS2_PLACEMENT_3D('',#507,#419,#420);
#381=AXIS2_PLACEMENT_3D('',#508,#421,#422);
#382=AXIS2_PLACEMENT_3D('',#510,#423,#424);
#383=AXIS2_PLACEMENT_3D('',#512,#426,#427);
#384=AXIS2_PLACEMENT_3D('',#514,#428,#429);
#385=AXIS2_PLACEMENT_3D('',#515,#430,#431);
#386=AXIS2_PLACEMENT_3D('',#517,#432,#433);
#387=AXIS2_PLACEMENT_3D('',#519,#435,#436);
#388=AXIS2_PLACEMENT_3D('',#520,#437,#438);
#389=AXIS2_PLACEMENT_3D('',#522,#439,#440);
#390=AXIS2_PLACEMENT_3D('',#524,#441,#442);
#391=AXIS2_PLACEMENT_3D('',#525,#443,#444);
#392=AXIS2_PLACEMENT_3D('',#527,#445,#446);
#393=AXIS2_PLACEMENT_3D('',#567,#448,#449);
#394=AXIS2_PLACEMENT_3D('',#576,#454,#455);
#395=AXIS2_PLACEMENT_3D('',#609,#460,#461);
#396=AXIS2_PLACEMENT_3D('',#641,#465,#466);
#397=AXIS2_PLACEMENT_3D('',#642,#467,#468);
#398=AXIS2_PLACEMENT_3D('',#678,#472,#473);
#399=AXIS2_PLACEMENT_3D('',#707,#476,#477);
#400=AXIS2_PLACEMENT_3D('',#713,#478,#479);
#401=AXIS2_PLACEMENT_3D('',#728,#481,#482);
#402=AXIS2_PLACEMENT_3D('',#735,#483,#484);
#403=AXIS2_PLACEMENT_3D('',#741,#485,#486);
#404=AXIS2_PLACEMENT_3D('',#857,#487,#488);
#405=AXIS2_PLACEMENT_3D('',#859,#489,#490);
#406=AXIS2_PLACEMENT_3D('',#861,#492,#493);
#407=AXIS2_PLACEMENT_3D('',#863,#494,#495);
#408=AXIS2_PLACEMENT_3D('',#864,#496,#497);
#409=DIRECTION('axis',(0.,0.,1.));
#410=DIRECTION('refdir',(1.,0.,0.));
#411=DIRECTION('center_axis',(0.,0.,-1.));
#412=DIRECTION('ref_axis',(-1.,0.,0.));
#413=DIRECTION('center_axis',(0.,0.,1.));
#414=DIRECTION('ref_axis',(1.,0.,0.));
#415=DIRECTION('center_axis',(-1.22464679914735E-16,-1.,0.));
#416=DIRECTION('ref_axis',(1.,-1.22464679914735E-16,0.));
#417=DIRECTION('center_axis',(0.,0.,-1.));
#418=DIRECTION('ref_axis',(1.,0.,0.));
#419=DIRECTION('center_axis',(0.,0.,1.));
#420=DIRECTION('ref_axis',(1.,0.,0.));
#421=DIRECTION('center_axis',(0.,0.,1.));
#422=DIRECTION('ref_axis',(1.,0.,0.));
#423=DIRECTION('center_axis',(0.,0.,-1.));
#424=DIRECTION('ref_axis',(1.,0.,0.));
#425=DIRECTION('',(0.,0.,-1.));
#426=DIRECTION('center_axis',(0.,0.,1.));
#427=DIRECTION('ref_axis',(1.,0.,0.));
#428=DIRECTION('center_axis',(0.,0.,-1.));
#429=DIRECTION('ref_axis',(1.,0.,0.));
#430=DIRECTION('center_axis',(0.,0.,1.));
#431=DIRECTION('ref_axis',(1.,0.,0.));
#432=DIRECTION('center_axis',(0.,0.,1.));
#433=DIRECTION('ref_axis',(1.,0.,0.));
#434=DIRECTION('',(0.,0.,-1.));
#435=DIRECTION('center_axis',(0.,0.,1.));
#436=DIRECTION('ref_axis',(1.,0.,0.));
#437=DIRECTION('center_axis',(0.,0.,1.));
#438=DIRECTION('ref_axis',(1.,0.,0.));
#439=DIRECTION('center_axis',(0.,0.,-1.));
#440=DIRECTION('ref_axis',(1.,0.,0.));
#441=DIRECTION('center_axis',(0.,0.,1.));
#442=DIRECTION('ref_axis',(1.,0.,0.));
#443=DIRECTION('center_axis',(0.,0.,-1.));
#444=DIRECTION('ref_axis',(1.,0.,0.));
#445=DIRECTION('center_axis',(0.,0.,-1.));
#446=DIRECTION('ref_axis',(1.,0.,0.));
#447=DIRECTION('',(0.,0.,-1.));
#448=DIRECTION('center_axis',(0.,0.,1.));
#449=DIRECTION('ref_axis',(1.,0.,0.));
#450=DIRECTION('',(0.,1.,0.));
#451=DIRECTION('',(-1.,9.25185853854297E-17,0.));
#452=DIRECTION('',(0.,-1.,0.));
#453=DIRECTION('',(1.,0.,0.));
#454=DIRECTION('center_axis',(1.,0.,0.));
#455=DIRECTION('ref_axis',(0.,1.,0.));
#456=DIRECTION('',(0.,1.,0.));
#457=DIRECTION('',(0.,1.,0.));
#458=DIRECTION('',(0.,0.,1.));
#459=DIRECTION('',(0.,0.,1.));
#460=DIRECTION('center_axis',(9.25185853854297E-17,1.,0.));
#461=DIRECTION('ref_axis',(-1.,9.25185853854297E-17,0.));
#462=DIRECTION('',(-1.,9.25185853854297E-17,0.));
#463=DIRECTION('',(-1.,9.25185853854297E-17,0.));
#464=DIRECTION('',(0.,0.,1.));
#465=DIRECTION('center_axis',(-9.25185853854297E-17,-1.,0.));
#466=DIRECTION('ref_axis',(-1.,0.,0.));
#467=DIRECTION('center_axis',(-1.,0.,0.));
#468=DIRECTION('ref_axis',(0.,-1.,0.));
#469=DIRECTION('',(0.,-1.,0.));
#470=DIRECTION('',(0.,-1.,0.));
#471=DIRECTION('',(0.,0.,1.));
#472=DIRECTION('center_axis',(0.,-1.,0.));
#473=DIRECTION('ref_axis',(1.,0.,0.));
#474=DIRECTION('',(1.,0.,0.));
#475=DIRECTION('',(1.,0.,0.));
#476=DIRECTION('center_axis',(0.,0.,1.));
#477=DIRECTION('ref_axis',(1.,0.,0.));
#478=DIRECTION('center_axis',(0.,0.,-1.));
#479=DIRECTION('ref_axis',(1.,0.,0.));
#480=DIRECTION('',(0.,0.,1.));
#481=DIRECTION('center_axis',(0.,0.,1.));
#482=DIRECTION('ref_axis',(1.,0.,0.));
#483=DIRECTION('center_axis',(0.,0.,1.));
#484=DIRECTION('ref_axis',(1.,0.,0.));
#485=DIRECTION('center_axis',(0.,0.,1.));
#486=DIRECTION('ref_axis',(1.,0.,0.));
#487=DIRECTION('center_axis',(0.,-1.,0.));
#488=DIRECTION('ref_axis',(-1.,0.,0.));
#489=DIRECTION('center_axis',(0.,-1.,0.));
#490=DIRECTION('ref_axis',(-1.,0.,0.));
#491=DIRECTION('',(0.,-1.,0.));
#492=DIRECTION('center_axis',(0.,1.,0.));
#493=DIRECTION('ref_axis',(-1.,0.,0.));
#494=DIRECTION('center_axis',(0.,1.,0.));
#495=DIRECTION('ref_axis',(-1.,0.,0.));
#496=DIRECTION('center_axis',(0.,1.,0.));
#497=DIRECTION('ref_axis',(-1.,0.,0.));
#498=DIRECTION('',(0.,-1.,0.));
#499=CARTESIAN_POINT('',(0.,0.,0.));
#500=CARTESIAN_POINT('Origin',(0.,0.,10.3));
#501=CARTESIAN_POINT('',(-4.25,-5.20474889637625E-16,10.3));
#502=CARTESIAN_POINT('',(4.25,-5.20474889637625E-16,10.3));
#503=CARTESIAN_POINT('Origin',(0.,0.,10.3));
#504=CARTESIAN_POINT('',(4.55,-5.57214293612046E-16,10.));
#505=CARTESIAN_POINT('Origin',(4.55,-5.57214293612046E-16,10.3));
#506=CARTESIAN_POINT('Origin',(0.,0.,10.));
#507=CARTESIAN_POINT('Origin',(0.,0.,10.3));
#508=CARTESIAN_POINT('Origin',(0.,0.,10.));
#509=CARTESIAN_POINT('',(-4.25,-5.20474889637625E-16,14.));
#510=CARTESIAN_POINT('Origin',(0.,0.,14.));
#511=CARTESIAN_POINT('',(-4.25,-5.20474889637625E-16,10.));
#512=CARTESIAN_POINT('Origin',(0.,0.,10.));
#513=CARTESIAN_POINT('',(-4.6,-5.63337527607783E-16,10.));
#514=CARTESIAN_POINT('Origin',(0.,0.,10.));
#515=CARTESIAN_POINT('Origin',(0.,0.,10.));
#516=CARTESIAN_POINT('',(-4.6,-5.63337527607783E-16,14.));
#517=CARTESIAN_POINT('Origin',(0.,0.,14.));
#518=CARTESIAN_POINT('',(-4.6,-5.63337527607783E-16,10.));
#519=CARTESIAN_POINT('Origin',(0.,0.,14.));
#520=CARTESIAN_POINT('Origin',(0.,0.,-4.));
#521=CARTESIAN_POINT('',(-5.6,6.85802207522518E-16,-4.));
#522=CARTESIAN_POINT('Origin',(0.,0.,-4.));
#523=CARTESIAN_POINT('',(-4.6,-5.63337527607783E-16,-4.));
#524=CARTESIAN_POINT('Origin',(0.,0.,-4.));
#525=CARTESIAN_POINT('Origin',(0.,0.,0.));
#526=CARTESIAN_POINT('',(-4.6,-5.63337527607783E-16,10.));
#527=CARTESIAN_POINT('Origin',(0.,0.,10.));
#528=CARTESIAN_POINT('',(-4.6,5.63337527607783E-16,0.));
#529=CARTESIAN_POINT('',(-3.25000004470348,3.255380117502,5.0000000372529));
#530=CARTESIAN_POINT('',(3.24999995529652,3.255380117502,5.0000000372529));
#531=CARTESIAN_POINT('Ctrl Pts',(-3.25000004470348,3.255380117502,5.0000000372529));
#532=CARTESIAN_POINT('Ctrl Pts',(-3.25000004470348,3.255380117502,5.43125861641913));
#533=CARTESIAN_POINT('Ctrl Pts',(-3.16064467950536,3.34945554683925,5.87020943225245));
#534=CARTESIAN_POINT('Ctrl Pts',(-2.8261195507229,3.63614779516175,6.66132281116289));
#535=CARTESIAN_POINT('Ctrl Pts',(-2.58046655653951,3.8219685757677,7.01572760270189));
#536=CARTESIAN_POINT('Ctrl Pts',(-2.01996718226557,4.14521620726009,7.5762269778245));
#537=CARTESIAN_POINT('Ctrl Pts',(-1.66482089089842,4.30816391445392,7.82456791602568));
#538=CARTESIAN_POINT('Ctrl Pts',(-0.867626676394182,4.5364225269188,8.16180917398387));
#539=CARTESIAN_POINT('Ctrl Pts',(-0.424783596124158,4.59999999587189,8.2500000372529));
#540=CARTESIAN_POINT('Ctrl Pts',(0.424783503962024,4.60000000412811,8.2500000372529));
#541=CARTESIAN_POINT('Ctrl Pts',(0.867626582894365,4.53642254453833,8.16180917501857));
#542=CARTESIAN_POINT('Ctrl Pts',(1.66482079670881,4.30816395057501,7.82456791874564));
#543=CARTESIAN_POINT('Ctrl Pts',(2.01996708868583,4.14521625258923,7.57622698115503));
#544=CARTESIAN_POINT('Ctrl Pts',(2.58046646523223,3.82196863719712,7.01572760545729));
#545=CARTESIAN_POINT('Ctrl Pts',(2.82611946064264,3.63614786492259,6.66132281261803));
#546=CARTESIAN_POINT('Ctrl Pts',(3.16064459045662,3.34945563059459,5.87020943154243));
#547=CARTESIAN_POINT('Ctrl Pts',(3.24999995529652,3.25538020676121,5.43125861495919));
#548=CARTESIAN_POINT('Ctrl Pts',(3.24999995529652,3.25538020676121,5.0000000372529));
#549=CARTESIAN_POINT('Ctrl Pts',(3.24999995529652,3.25538020676121,5.0000000372529));
#550=CARTESIAN_POINT('Ctrl Pts',(3.24999995529652,3.25538020676121,4.56874145954662));
#551=CARTESIAN_POINT('Ctrl Pts',(3.16064459045662,3.34945563059459,4.12979064296337));
#552=CARTESIAN_POINT('Ctrl Pts',(2.82611946064264,3.63614786492259,3.33867726188778));
#553=CARTESIAN_POINT('Ctrl Pts',(2.58046646523223,3.82196863719712,2.98427246904851));
#554=CARTESIAN_POINT('Ctrl Pts',(2.01996708868583,4.14521625258923,2.42377309335078));
#555=CARTESIAN_POINT('Ctrl Pts',(1.66482079670881,4.30816395057501,2.17543215576017));
#556=CARTESIAN_POINT('Ctrl Pts',(0.867626582894365,4.53642254453833,1.83819089948724));
#557=CARTESIAN_POINT('Ctrl Pts',(0.424783503962024,4.60000000412811,1.7500000372529));
#558=CARTESIAN_POINT('Ctrl Pts',(-0.424783596124157,4.59999999587189,1.7500000372529));
#559=CARTESIAN_POINT('Ctrl Pts',(-0.867626676394181,4.5364225269188,1.83819090052193));
#560=CARTESIAN_POINT('Ctrl Pts',(-1.66482089089842,4.30816391445392,2.17543215848012));
#561=CARTESIAN_POINT('Ctrl Pts',(-2.01996718226557,4.14521620726009,2.4237730966813));
#562=CARTESIAN_POINT('Ctrl Pts',(-2.58046655653951,3.8219685757677,2.98427247180391));
#563=CARTESIAN_POINT('Ctrl Pts',(-2.8261195507229,3.63614779516174,3.33867726334292));
#564=CARTESIAN_POINT('Ctrl Pts',(-3.16064467950536,3.34945554683925,4.12979064225335));
#565=CARTESIAN_POINT('Ctrl Pts',(-3.25000004470348,3.255380117502,4.56874145808668));
#566=CARTESIAN_POINT('Ctrl Pts',(-3.25000004470348,3.255380117502,5.0000000372529));
#567=CARTESIAN_POINT('Origin',(0.,1.09088849065131E-8,10.));
#568=CARTESIAN_POINT('',(6.,-5.99999998909112,10.));
#569=CARTESIAN_POINT('',(6.,6.00000001090889,10.));
#570=CARTESIAN_POINT('',(6.,-5.99999998909112,10.));
#571=CARTESIAN_POINT('',(-6.,6.00000001090889,10.));
#572=CARTESIAN_POINT('',(6.,6.00000001090888,10.));
#573=CARTESIAN_POINT('',(-6.,-5.99999998909112,10.));
#574=CARTESIAN_POINT('',(-6.,6.00000001090889,10.));
#575=CARTESIAN_POINT('',(-6.,-5.99999998909112,10.));
#576=CARTESIAN_POINT('Origin',(6.,-5.99999998909112,0.));
#577=CARTESIAN_POINT('',(6.,-5.99999998909112,0.));
#578=CARTESIAN_POINT('',(5.99999999999996,-2.7495454169737,0.));
#579=CARTESIAN_POINT('',(6.,-5.99999998909112,0.));
#580=CARTESIAN_POINT('',(5.9999999999983,2.74954541698115,0.));
#581=CARTESIAN_POINT('Ctrl Pts',(6.,2.74954541697374,0.));
#582=CARTESIAN_POINT('Ctrl Pts',(6.,2.65142448484255,1.99683202751018E-15));
#583=CARTESIAN_POINT('Ctrl Pts',(6.,2.54283244572408,-0.0101337976864419));
#584=CARTESIAN_POINT('Ctrl Pts',(6.,1.94881482608744,-0.0833494360433922));
#585=CARTESIAN_POINT('Ctrl Pts',(6.,1.29646829044365,-0.250206691981691));
#586=CARTESIAN_POINT('Ctrl Pts',(6.,0.46316247142201,-0.323434065307393));
#587=CARTESIAN_POINT('Ctrl Pts',(6.,0.352386045749829,-0.330573450946858));
#588=CARTESIAN_POINT('Ctrl Pts',(6.,0.193169076052256,-0.336651317369389));
#589=CARTESIAN_POINT('Ctrl Pts',(6.,0.145484788190078,-0.337938502283229));
#590=CARTESIAN_POINT('Ctrl Pts',(6.,0.0641316509214663,-0.339206517165869));
#591=CARTESIAN_POINT('Ctrl Pts',(6.,0.0305386694324213,-0.339460610313989));
#592=CARTESIAN_POINT('Ctrl Pts',(6.,-0.0370535924614307,-0.339427445775244));
#593=CARTESIAN_POINT('Ctrl Pts',(5.99999999999999,-0.0710146834344783,-0.339134233371546));
#594=CARTESIAN_POINT('Ctrl Pts',(5.99999999999999,-0.154565759259802,-0.337735610486021));
#595=CARTESIAN_POINT('Ctrl Pts',(5.9999999999998,-0.204072178922148,-0.336320783631519));
#596=CARTESIAN_POINT('Ctrl Pts',(5.9999999999998,-0.312218338691129,-0.331977866037484));
#597=CARTESIAN_POINT('Ctrl Pts',(6.,-0.370698222777036,-0.328827318029539));
#598=CARTESIAN_POINT('Ctrl Pts',(6.,-0.607440171057137,-0.312985064362161));
#599=CARTESIAN_POINT('Ctrl Pts',(6.,-0.783021245769833,-0.294167333995979));
#600=CARTESIAN_POINT('Ctrl Pts',(6.,-1.32543006370645,-0.220319744687627));
#601=CARTESIAN_POINT('Ctrl Pts',(6.0000000000011,-1.66938939823313,-0.151870750075041));
#602=CARTESIAN_POINT('Ctrl Pts',(6.0000000000011,-2.27308440215734,-0.0433429381293295));
#603=CARTESIAN_POINT('Ctrl Pts',(6.,-2.54548606670409,-2.9058933670181E-17));
#604=CARTESIAN_POINT('Ctrl Pts',(6.,-2.7495454169735,-4.55364912443912E-17));
#605=CARTESIAN_POINT('',(6.,6.00000001090889,0.));
#606=CARTESIAN_POINT('',(6.,-5.99999998909112,0.));
#607=CARTESIAN_POINT('',(6.,6.00000001090889,0.));
#608=CARTESIAN_POINT('',(6.,-5.99999998909112,0.));
#609=CARTESIAN_POINT('Origin',(6.,6.00000001090888,0.));
#610=CARTESIAN_POINT('',(2.74954539317064,6.00000001090836,0.));
#611=CARTESIAN_POINT('',(6.,6.00000001090888,0.));
#612=CARTESIAN_POINT('',(-2.74954539317002,6.00000001090851,0.));
#613=CARTESIAN_POINT('Ctrl Pts',(-2.74954539316837,6.00000001090888,0.));
#614=CARTESIAN_POINT('Ctrl Pts',(-2.65142444119462,6.00000001090888,4.53825548643696E-17));
#615=CARTESIAN_POINT('Ctrl Pts',(-2.54283237649234,6.00000001090888,-0.0101338016768792));
#616=CARTESIAN_POINT('Ctrl Pts',(-1.94881478708248,6.00000001090888,-0.0833494439779078));
#617=CARTESIAN_POINT('Ctrl Pts',(-1.29646834464372,6.00000001090889,-0.250206661377933));
#618=CARTESIAN_POINT('Ctrl Pts',(-0.463162600133163,6.00000001090889,-0.323434046417923));
#619=CARTESIAN_POINT('Ctrl Pts',(-0.352386136501531,6.00000001090889,-0.330573436275669));
#620=CARTESIAN_POINT('Ctrl Pts',(-0.193169127882573,6.00000001090889,-0.336651305375453));
#621=CARTESIAN_POINT('Ctrl Pts',(-0.145484839754482,6.00000001090889,-0.337938490664683));
#622=CARTESIAN_POINT('Ctrl Pts',(-0.0641317047496005,6.00000001090889,-0.339206506154303));
#623=CARTESIAN_POINT('Ctrl Pts',(-0.0305387257884751,6.00000001090889,-0.339460599574499));
#624=CARTESIAN_POINT('Ctrl Pts',(0.0370535281599978,6.00000001090889,-0.339427435675732));
#625=CARTESIAN_POINT('Ctrl Pts',(0.0710146137294726,6.00000001090888,-0.339134223687088));
#626=CARTESIAN_POINT('Ctrl Pts',(0.154565667179397,6.00000001090888,-0.337735602197638));
#627=CARTESIAN_POINT('Ctrl Pts',(0.204072069947812,6.00000001090868,-0.336320776638754));
#628=CARTESIAN_POINT('Ctrl Pts',(0.312218181215589,6.00000001090868,-0.331977863186072));
#629=CARTESIAN_POINT('Ctrl Pts',(0.370698033918015,6.00000001090889,-0.328827318482417));
#630=CARTESIAN_POINT('Ctrl Pts',(0.607439781153885,6.00000001090889,-0.312985086280823));
#631=CARTESIAN_POINT('Ctrl Pts',(0.783020693201344,6.00000001090889,-0.294167385747265));
#632=CARTESIAN_POINT('Ctrl Pts',(1.32542887210999,6.00000001090889,-0.220319926923139));
#633=CARTESIAN_POINT('Ctrl Pts',(1.66938778143111,6.00000001090999,-0.151871059921346));
#634=CARTESIAN_POINT('Ctrl Pts',(2.27308319424662,6.00000001090999,-0.0433431261622047));
#635=CARTESIAN_POINT('Ctrl Pts',(2.54548559004492,6.00000001090888,0.));
#636=CARTESIAN_POINT('Ctrl Pts',(2.74954539316837,6.00000001090888,0.));
#637=CARTESIAN_POINT('',(-6.,6.00000001090889,0.));
#638=CARTESIAN_POINT('',(6.,6.00000001090888,0.));
#639=CARTESIAN_POINT('',(-6.,6.00000001090889,0.));
#640=CARTESIAN_POINT('',(3.74999995529652,6.00000001090889,5.0000000372529));
#641=CARTESIAN_POINT('Origin',(-4.47034831374538E-8,6.00000001090888,5.0000000372529));
#642=CARTESIAN_POINT('Origin',(-6.,6.00000001090889,0.));
#643=CARTESIAN_POINT('',(-5.99999999445748,2.74954544116306,0.));
#644=CARTESIAN_POINT('',(-6.,6.00000001090889,0.));
#645=CARTESIAN_POINT('',(-6.00000000000026,6.73146570003156E-14,-0.339444872453471));
#646=CARTESIAN_POINT('Ctrl Pts',(-6.,6.40430870120796E-14,-0.339444872453687));
#647=CARTESIAN_POINT('Ctrl Pts',(-6.,0.00102438060667204,-0.339444872453687));
#648=CARTESIAN_POINT('Ctrl Pts',(-6.,0.00204877759908378,-0.33944462112963));
#649=CARTESIAN_POINT('Ctrl Pts',(-6.,0.0370539907396701,-0.339427444346408));
#650=CARTESIAN_POINT('Ctrl Pts',(-5.99999999999999,0.0710152523574926,-0.339134227843916));
#651=CARTESIAN_POINT('Ctrl Pts',(-5.99999999999999,0.15456675988107,-0.337735587905104));
#652=CARTESIAN_POINT('Ctrl Pts',(-5.9999999999998,0.204073439298951,-0.336320744747657));
#653=CARTESIAN_POINT('Ctrl Pts',(-5.9999999999998,0.312220132696618,-0.33197778011798));
#654=CARTESIAN_POINT('Ctrl Pts',(-6.,0.370700288432577,-0.32882720011518));
#655=CARTESIAN_POINT('Ctrl Pts',(-6.,0.607443062807886,-0.312984808983162));
#656=CARTESIAN_POINT('Ctrl Pts',(-6.,0.783024668810783,-0.294166943985935));
#657=CARTESIAN_POINT('Ctrl Pts',(-6.,1.32543468854057,-0.220318958215963));
#658=CARTESIAN_POINT('Ctrl Pts',(-6.0000000000011,1.66939461897533,-0.151869734968724));
#659=CARTESIAN_POINT('Ctrl Pts',(-6.0000000000011,2.27308786336142,-0.0433423865524427));
#660=CARTESIAN_POINT('Ctrl Pts',(-6.,2.54548738975284,3.06419531766555E-15));
#661=CARTESIAN_POINT('Ctrl Pts',(-6.,2.74954541697353,-3.68628738645072E-17));
#662=CARTESIAN_POINT('',(-6.,-2.74954541697516,0.));
#663=CARTESIAN_POINT('Ctrl Pts',(-6.,-2.74954541697515,0.));
#664=CARTESIAN_POINT('Ctrl Pts',(-6.,-2.65142455662252,1.40118508520106E-14));
#665=CARTESIAN_POINT('Ctrl Pts',(-6.,-2.54283261025775,-0.0101337826250511));
#666=CARTESIAN_POINT('Ctrl Pts',(-6.,-1.94881509282063,-0.0833493762407374));
#667=CARTESIAN_POINT('Ctrl Pts',(-6.,-1.29646851709883,-0.250206651871399));
#668=CARTESIAN_POINT('Ctrl Pts',(-6.,-0.463162803913297,-0.323434039198091));
#669=CARTESIAN_POINT('Ctrl Pts',(-6.,-0.352386509228707,-0.330573422868014));
#670=CARTESIAN_POINT('Ctrl Pts',(-6.,-0.193169542271673,-0.336651304017471));
#671=CARTESIAN_POINT('Ctrl Pts',(-6.,-0.145485124099662,-0.337938495490103));
#672=CARTESIAN_POINT('Ctrl Pts',(-6.,-0.0651560018403474,-0.339190552130758));
#673=CARTESIAN_POINT('Ctrl Pts',(-6.,-0.032586291498803,-0.339444872453687));
#674=CARTESIAN_POINT('Ctrl Pts',(-6.,6.40430870120796E-14,-0.339444872453687));
#675=CARTESIAN_POINT('',(-6.,-5.99999998909112,0.));
#676=CARTESIAN_POINT('',(-6.,6.00000001090889,0.));
#677=CARTESIAN_POINT('',(-6.,-5.99999998909112,0.));
#678=CARTESIAN_POINT('Origin',(-6.,-5.99999998909112,0.));
#679=CARTESIAN_POINT('',(-2.74954544077898,-5.99999998909109,0.));
#680=CARTESIAN_POINT('',(-6.,-5.99999998909112,0.));
#681=CARTESIAN_POINT('',(2.74954551098112,-5.99999997300571,0.));
#682=CARTESIAN_POINT('Ctrl Pts',(2.74954544077864,-5.99999998909112,0.));
#683=CARTESIAN_POINT('Ctrl Pts',(2.65142448855872,-5.99999998909112,0.));
#684=CARTESIAN_POINT('Ctrl Pts',(2.54283242342297,-5.99999998909112,-0.0101338020751399));
#685=CARTESIAN_POINT('Ctrl Pts',(1.94881474041643,-5.99999998909112,-0.0833494584554678));
#686=CARTESIAN_POINT('Ctrl Pts',(1.29646816659295,-5.99999998909112,-0.250206729791734));
#687=CARTESIAN_POINT('Ctrl Pts',(0.46316233662986,-5.99999998909112,-0.323434084564361));
#688=CARTESIAN_POINT('Ctrl Pts',(0.352385953518795,-5.99999998909112,-0.330573465618896));
#689=CARTESIAN_POINT('Ctrl Pts',(0.193169032747169,-5.99999998909112,-0.336651329061948));
#690=CARTESIAN_POINT('Ctrl Pts',(0.145484750456317,-5.99999998909112,-0.337938513540905));
#691=CARTESIAN_POINT('Ctrl Pts',(0.0641316222526524,-5.99999998909112,-0.339206527887867));
#692=CARTESIAN_POINT('Ctrl Pts',(0.0305386442313356,-5.99999998909112,-0.339460620869524));
#693=CARTESIAN_POINT('Ctrl Pts',(-0.0370536090508632,-5.99999998909112,
-0.339427456099957));
#694=CARTESIAN_POINT('Ctrl Pts',(-0.0710146948942633,-5.99999998909111,
-0.339134243659611));
#695=CARTESIAN_POINT('Ctrl Pts',(-0.154565754351615,-5.99999998909111,-0.337735620940332));
#696=CARTESIAN_POINT('Ctrl Pts',(-0.204072162826485,-5.99999998909091,-0.336320794465159));
#697=CARTESIAN_POINT('Ctrl Pts',(-0.31221829608634,-5.99999998909091,-0.331977878321893));
#698=CARTESIAN_POINT('Ctrl Pts',(-0.370698164966441,-5.99999998909111,-0.328827331534192));
#699=CARTESIAN_POINT('Ctrl Pts',(-0.607440086051866,-5.99999998909111,-0.312985081987121));
#700=CARTESIAN_POINT('Ctrl Pts',(-0.783021149331845,-5.99999998909112,-0.29416735474009));
#701=CARTESIAN_POINT('Ctrl Pts',(-1.32543034121644,-5.99999998909112,-0.220319719625476));
#702=CARTESIAN_POINT('Ctrl Pts',(-1.66939002234519,-5.99999998909221,-0.15187063284048));
#703=CARTESIAN_POINT('Ctrl Pts',(-2.27308497018648,-5.99999998909221,-0.0433428520686749));
#704=CARTESIAN_POINT('Ctrl Pts',(-2.54548629876649,-5.99999998909111,3.82876900834952E-15));
#705=CARTESIAN_POINT('Ctrl Pts',(-2.74954544077885,-5.99999998909111,-3.68628738645072E-17));
#706=CARTESIAN_POINT('',(-6.,-5.99999998909112,0.));
#707=CARTESIAN_POINT('Origin',(0.,1.09088849065131E-8,0.));
#708=CARTESIAN_POINT('Ctrl Pts',(6.00801919930902,-2.75329672942329,0.));
#709=CARTESIAN_POINT('Ctrl Pts',(5.99060799706411,-2.79139000623342,0.));
#710=CARTESIAN_POINT('Ctrl Pts',(5.32763473393724,-4.20361946532176,0.));
#711=CARTESIAN_POINT('Ctrl Pts',(4.12626568918903,-5.35749799393436,0.));
#712=CARTESIAN_POINT('Ctrl Pts',(2.7456479971796,-6.00053074634876,0.));
#713=CARTESIAN_POINT('Origin',(0.,0.,0.));
#714=CARTESIAN_POINT('',(-5.60000000000001,1.16434639707563E-13,-1.));
#715=CARTESIAN_POINT('',(-5.6,6.85802207522518E-16,0.));
#716=CARTESIAN_POINT('Ctrl Pts',(-5.60000000000001,1.16434639707563E-13,
-1.));
#717=CARTESIAN_POINT('Ctrl Pts',(-5.60000000000001,-0.837754304295694,-1.));
#718=CARTESIAN_POINT('Ctrl Pts',(-5.21385354685025,-2.50651004369621,-1.));
#719=CARTESIAN_POINT('Ctrl Pts',(-3.08635089308445,-5.21709847928656,-0.999999999999999));
#720=CARTESIAN_POINT('Ctrl Pts',(1.4222045639161,-6.24806816347424,-1.));
#721=CARTESIAN_POINT('Ctrl Pts',(5.77965879692723,-2.78160920256027,-1.));
#722=CARTESIAN_POINT('Ctrl Pts',(5.77359671948057,2.77869695670745,-1.));
#723=CARTESIAN_POINT('Ctrl Pts',(1.42341522797618,6.25542189698352,-1.));
#724=CARTESIAN_POINT('Ctrl Pts',(-3.08520656815208,5.21471103933199,-1.));
#725=CARTESIAN_POINT('Ctrl Pts',(-5.21378355755938,2.50682427660365,-1.));
#726=CARTESIAN_POINT('Ctrl Pts',(-5.6,0.837754304295792,-1.));
#727=CARTESIAN_POINT('Ctrl Pts',(-5.60000000000001,-1.02140518265514E-13,
-1.));
#728=CARTESIAN_POINT('Origin',(0.,1.09088849065131E-8,0.));
#729=CARTESIAN_POINT('Ctrl Pts',(-2.7496712026042,-5.99611646086761,0.));
#730=CARTESIAN_POINT('Ctrl Pts',(-3.23841149222823,-5.77598633986891,0.));
#731=CARTESIAN_POINT('Ctrl Pts',(-4.55108868273547,-4.98472765459434,0.));
#732=CARTESIAN_POINT('Ctrl Pts',(-5.54472239817715,-3.7187682192344,0.));
#733=CARTESIAN_POINT('Ctrl Pts',(-5.98124671571918,-2.78573673232208,0.));
#734=CARTESIAN_POINT('Ctrl Pts',(-5.99870184582858,-2.74749004008478,0.));
#735=CARTESIAN_POINT('Origin',(0.,1.09088849065131E-8,0.));
#736=CARTESIAN_POINT('Ctrl Pts',(2.74449723342052,6.00447578301098,0.));
#737=CARTESIAN_POINT('Ctrl Pts',(4.12372766822717,5.3603924845,0.));
#738=CARTESIAN_POINT('Ctrl Pts',(5.32352298351365,4.20368304873103,0.));
#739=CARTESIAN_POINT('Ctrl Pts',(5.9873157899519,2.78988934470863,0.));
#740=CARTESIAN_POINT('Ctrl Pts',(6.00475064615421,2.75175498570076,0.));
#741=CARTESIAN_POINT('Origin',(0.,1.09088849065131E-8,0.));
#742=CARTESIAN_POINT('Ctrl Pts',(-5.99850379673483,2.7474061881581,0.));
#743=CARTESIAN_POINT('Ctrl Pts',(-5.9810415477971,2.78564159982671,0.));
#744=CARTESIAN_POINT('Ctrl Pts',(-5.54433683156646,3.71837641972597,0.));
#745=CARTESIAN_POINT('Ctrl Pts',(-4.55020135000165,4.98307406716105,0.));
#746=CARTESIAN_POINT('Ctrl Pts',(-3.23727451988205,5.77555741669297,0.));
#747=CARTESIAN_POINT('Ctrl Pts',(-2.74849676280161,5.9962532896205,0.));
#748=CARTESIAN_POINT('Ctrl Pts',(-6.60000000000121,2.89351875792931E-14,
0.));
#749=CARTESIAN_POINT('Ctrl Pts',(-6.60000000000121,-0.987353287205748,0.));
#750=CARTESIAN_POINT('Ctrl Pts',(-6.14489882307421,-2.95410112292789,0.));
#751=CARTESIAN_POINT('Ctrl Pts',(-3.63748498113524,-6.14872320773082,0.));
#752=CARTESIAN_POINT('Ctrl Pts',(1.67616966461547,-7.36379462123827,0.));
#753=CARTESIAN_POINT('Ctrl Pts',(6.81174072495016,-3.27832513158878,0.));
#754=CARTESIAN_POINT('Ctrl Pts',(6.8045961336735,3.27489284183375,0.));
#755=CARTESIAN_POINT('Ctrl Pts',(1.67759651868629,7.3724615214449,0.));
#756=CARTESIAN_POINT('Ctrl Pts',(-3.63613631246504,6.14590943921276,0.));
#757=CARTESIAN_POINT('Ctrl Pts',(-6.1448163356951,2.95447146885437,0.));
#758=CARTESIAN_POINT('Ctrl Pts',(-6.60000000000051,0.987353287205787,0.));
#759=CARTESIAN_POINT('Ctrl Pts',(-6.60000000000052,-8.82627304576999E-14,
0.));
#760=CARTESIAN_POINT('Ctrl Pts',(-6.53265649703101,3.11781768059827E-14,
4.03738060804278E-14));
#761=CARTESIAN_POINT('Ctrl Pts',(-6.53265649703101,-0.977645784692687,4.08774658589602E-14));
#762=CARTESIAN_POINT('Ctrl Pts',(-6.08228363802312,-2.92387657051938,2.42936448967399E-14));
#763=CARTESIAN_POINT('Ctrl Pts',(-3.60043638007637,-6.08635581713566,5.01830109487334E-15));
#764=CARTESIAN_POINT('Ctrl Pts',(1.65897739717069,-7.28860627248013,2.81177612167398E-14));
#765=CARTESIAN_POINT('Ctrl Pts',(6.74256546566109,-3.24506996151669,-1.56426119194613E-15));
#766=CARTESIAN_POINT('Ctrl Pts',(6.7351461127254,3.2415659332095,3.5637484131195E-15));
#767=CARTESIAN_POINT('Ctrl Pts',(1.66052966185491,7.29748849502172,-1.76291852529501E-15));
#768=CARTESIAN_POINT('Ctrl Pts',(-3.59896998029399,6.08337362984207,3.88622060136082E-15));
#769=CARTESIAN_POINT('Ctrl Pts',(-6.0823059973072,2.92427839917202,4.48027254588454E-15));
#770=CARTESIAN_POINT('Ctrl Pts',(-6.53265649703034,0.977645784692726,1.74193419482882E-14));
#771=CARTESIAN_POINT('Ctrl Pts',(-6.53265649703035,-8.81225436310315E-14,
1.72710170455193E-14));
#772=CARTESIAN_POINT('Ctrl Pts',(-6.32211423942232,4.11602549751399E-14,
-0.0547972133437533));
#773=CARTESIAN_POINT('Ctrl Pts',(-6.32211423942232,-0.945674757739781,-0.0547972133437514));
#774=CARTESIAN_POINT('Ctrl Pts',(-5.88614989147438,-2.82974592327883,-0.0547972133438073));
#775=CARTESIAN_POINT('Ctrl Pts',(-3.48431320189139,-5.88972955619573,-0.0547972133438717));
#776=CARTESIAN_POINT('Ctrl Pts',(1.60562245865247,-7.05376513144084,-0.0547972133437944));
#777=CARTESIAN_POINT('Ctrl Pts',(6.52484391720515,-3.14023782054451,-0.0547972133438939));
#778=CARTESIAN_POINT('Ctrl Pts',(6.51810159525038,3.13698119815335,-0.0547972133438767));
#779=CARTESIAN_POINT('Ctrl Pts',(1.60694839089363,7.06197847985871,-0.0547972133438947));
#780=CARTESIAN_POINT('Ctrl Pts',(-3.48305968931686,5.8870917842492,-0.0547972133438757));
#781=CARTESIAN_POINT('Ctrl Pts',(-5.88604052656562,2.830090386221,-0.0547972133438737));
#782=CARTESIAN_POINT('Ctrl Pts',(-6.32211423942178,0.945674757739838,-0.0547972133438302));
#783=CARTESIAN_POINT('Ctrl Pts',(-6.32211423942178,-8.85587982288134E-14,
-0.0547972133438308));
#784=CARTESIAN_POINT('Ctrl Pts',(-5.91281989502113,7.35084392112249E-14,
-0.400155958794755));
#785=CARTESIAN_POINT('Ctrl Pts',(-5.91281989502113,-0.884646040610867,-0.400155958794753));
#786=CARTESIAN_POINT('Ctrl Pts',(-5.50512476251352,-2.64650434043579,-0.400155958794809));
#787=CARTESIAN_POINT('Ctrl Pts',(-3.25877371955168,-5.50862457321419,-0.400155958794874));
#788=CARTESIAN_POINT('Ctrl Pts',(1.5016269629815,-6.59707639927475,-0.400155958794796));
#789=CARTESIAN_POINT('Ctrl Pts',(6.10259893470957,-2.937041983761,-0.400155958794897));
#790=CARTESIAN_POINT('Ctrl Pts',(6.09610899487388,2.93393965689255,-0.400155958794879));
#791=CARTESIAN_POINT('Ctrl Pts',(1.50294118002207,6.60491887902313,-0.400155958794897));
#792=CARTESIAN_POINT('Ctrl Pts',(-3.25753172315563,5.50605317423225,-0.400155958794878));
#793=CARTESIAN_POINT('Ctrl Pts',(-5.50507755737956,2.64684517680834,-0.400155958794876));
#794=CARTESIAN_POINT('Ctrl Pts',(-5.91281989502089,0.884646040610946,-0.400155958794832));
#795=CARTESIAN_POINT('Ctrl Pts',(-5.9128198950209,-9.3218520914417E-14,
-0.400155958794833));
#796=CARTESIAN_POINT('Ctrl Pts',(-5.69808470902182,9.69367263818696E-14,
-0.700494386336036));
#797=CARTESIAN_POINT('Ctrl Pts',(-5.69808470902182,-0.852400475231544,-0.700494386336035));
#798=CARTESIAN_POINT('Ctrl Pts',(-5.30516857681756,-2.5504179768762,-0.700494386336067));
#799=CARTESIAN_POINT('Ctrl Pts',(-3.14040377628827,-5.30844908699082,-0.700494386336102));
#800=CARTESIAN_POINT('Ctrl Pts',(1.4471212804984,-6.35750767952241,-0.70049438633606));
#801=CARTESIAN_POINT('Ctrl Pts',(5.88086588671486,-2.83031495616747,-0.700494386336114));
#802=CARTESIAN_POINT('Ctrl Pts',(5.87472339846732,2.82735961457564,-0.700494386336106));
#803=CARTESIAN_POINT('Ctrl Pts',(1.44834277552907,6.36496770150772,-0.700494386336115));
#804=CARTESIAN_POINT('Ctrl Pts',(-3.1392491540236,5.30603444112025,-0.700494386336105));
#805=CARTESIAN_POINT('Ctrl Pts',(-5.30508965323843,2.55073510017197,-0.700494386336103));
#806=CARTESIAN_POINT('Ctrl Pts',(-5.69808470902174,0.852400475231639,-0.700494386336079));
#807=CARTESIAN_POINT('Ctrl Pts',(-5.69808470902174,-9.75647514256347E-14,
-0.700494386336079));
#808=CARTESIAN_POINT('Ctrl Pts',(-5.61342338155814,1.09580741220278E-13,
-0.881777383089719));
#809=CARTESIAN_POINT('Ctrl Pts',(-5.61342338155814,-0.839798401185086,-0.881777383089718));
#810=CARTESIAN_POINT('Ctrl Pts',(-5.22635962118917,-2.51251017269578,-0.881777383089732));
#811=CARTESIAN_POINT('Ctrl Pts',(-3.09375551365075,-5.22964044378069,-0.881777383089748));
#812=CARTESIAN_POINT('Ctrl Pts',(1.42560487509253,-6.26303994549985,-0.88177738308973));
#813=CARTESIAN_POINT('Ctrl Pts',(5.79354504872082,-2.78829596387519,-0.881777383089753));
#814=CARTESIAN_POINT('Ctrl Pts',(5.78743436468037,2.78536627332993,-0.88177738308975));
#815=CARTESIAN_POINT('Ctrl Pts',(1.42683216007861,6.27044107832475,-0.881777383089753));
#816=CARTESIAN_POINT('Ctrl Pts',(-3.09259555769726,5.22722795970919,-0.88177738308975));
#817=CARTESIAN_POINT('Ctrl Pts',(-5.22629965803598,2.51282861494345,-0.881777383089749));
#818=CARTESIAN_POINT('Ctrl Pts',(-5.61342338155813,0.839798401185182,-0.881777383089738));
#819=CARTESIAN_POINT('Ctrl Pts',(-5.61342338155813,-1.00281692641353E-13,
-0.881777383089738));
#820=CARTESIAN_POINT('Ctrl Pts',(-5.60000000000001,1.14609874513766E-13,
-0.966328248514916));
#821=CARTESIAN_POINT('Ctrl Pts',(-5.60000000000001,-0.83774665716774,-0.966328248514916));
#822=CARTESIAN_POINT('Ctrl Pts',(-5.21385178277361,-2.5065117564324,-0.96632824851492));
#823=CARTESIAN_POINT('Ctrl Pts',(-3.08634950335041,-5.21709073912561,-0.966328248514926));
#824=CARTESIAN_POINT('Ctrl Pts',(1.42220642597682,-6.24806923487122,-0.966328248514919));
#825=CARTESIAN_POINT('Ctrl Pts',(5.77965194706268,-2.78160513079806,-0.966328248514927));
#826=CARTESIAN_POINT('Ctrl Pts',(5.77359711346307,2.77869510938796,-0.966328248514925));
#827=CARTESIAN_POINT('Ctrl Pts',(1.42341417364507,6.25541663936153,-0.966328248514928));
#828=CARTESIAN_POINT('Ctrl Pts',(-3.08520791817836,5.21470740653482,-0.966328248514925));
#829=CARTESIAN_POINT('Ctrl Pts',(-5.21377962644566,2.50682525463344,-0.966328248514925));
#830=CARTESIAN_POINT('Ctrl Pts',(-5.6,0.837746657167839,-0.966328248514922));
#831=CARTESIAN_POINT('Ctrl Pts',(-5.60000000000001,-1.01603135429953E-13,
-0.966328248514922));
#832=CARTESIAN_POINT('Ctrl Pts',(-5.60000000000001,1.16434639707563E-13,
-1.));
#833=CARTESIAN_POINT('Ctrl Pts',(-5.60000000000001,-0.837754304295694,-1.));
#834=CARTESIAN_POINT('Ctrl Pts',(-5.21385354685025,-2.50651004369621,-1.));
#835=CARTESIAN_POINT('Ctrl Pts',(-3.08635089308445,-5.21709847928656,-0.999999999999999));
#836=CARTESIAN_POINT('Ctrl Pts',(1.4222045639161,-6.24806816347424,-1.));
#837=CARTESIAN_POINT('Ctrl Pts',(5.77965879692723,-2.78160920256027,-1.));
#838=CARTESIAN_POINT('Ctrl Pts',(5.77359671948057,2.77869695670745,-1.));
#839=CARTESIAN_POINT('Ctrl Pts',(1.42341522797618,6.25542189698352,-1.));
#840=CARTESIAN_POINT('Ctrl Pts',(-3.08520656815208,5.21471103933199,-1.));
#841=CARTESIAN_POINT('Ctrl Pts',(-5.21378355755938,2.50682427660365,-1.));
#842=CARTESIAN_POINT('Ctrl Pts',(-5.6,0.837754304295792,-1.));
#843=CARTESIAN_POINT('Ctrl Pts',(-5.60000000000001,-1.02140518265514E-13,
-1.));
#844=CARTESIAN_POINT('Ctrl Pts',(-5.99974888005126,6.73650070728609E-14,
-0.340219627180495));
#845=CARTESIAN_POINT('Ctrl Pts',(-5.95360233444917,7.12752680296922E-14,
-0.384012786505672));
#846=CARTESIAN_POINT('Ctrl Pts',(-5.90912022662687,7.526057875021E-14,-0.430213770690226));
#847=CARTESIAN_POINT('Ctrl Pts',(-5.86852778931477,7.91613226523675E-14,
-0.477244851611782));
#848=CARTESIAN_POINT('Ctrl Pts',(-5.80545230202147,8.52225827965473E-14,
-0.550325172565395));
#849=CARTESIAN_POINT('Ctrl Pts',(-5.75176850552165,9.10796545892084E-14,
-0.625409779450715));
#850=CARTESIAN_POINT('Ctrl Pts',(-5.71081638602779,9.61155262919404E-14,
-0.693165915685656));
#851=CARTESIAN_POINT('Ctrl Pts',(-5.66986426653393,1.01151397994672E-13,
-0.760922051920597));
#852=CARTESIAN_POINT('Ctrl Pts',(-5.64164382404604,1.05366069607475E-13,
-0.821349717505158));
#853=CARTESIAN_POINT('Ctrl Pts',(-5.62417775741256,1.08730688737248E-13,
-0.872701266653738));
#854=CARTESIAN_POINT('Ctrl Pts',(-5.60671169077908,1.12095307867022E-13,
-0.924052815802317));
#855=CARTESIAN_POINT('Ctrl Pts',(-5.60000000000001,1.14609874513766E-13,
-0.966328248514916));
#856=CARTESIAN_POINT('Ctrl Pts',(-5.60000000000001,1.16434639707563E-13,
-1.));
#857=CARTESIAN_POINT('Origin',(-4.47034831374538E-8,6.00000001090889,5.0000000372529));
#858=CARTESIAN_POINT('',(3.24999995529652,11.0000000109089,5.0000000372529));
#859=CARTESIAN_POINT('Origin',(-4.47034831374538E-8,11.0000000109089,5.0000000372529));
#860=CARTESIAN_POINT('',(3.24999995529652,6.00000001090889,5.0000000372529));
#861=CARTESIAN_POINT('Origin',(-4.47034831374538E-8,11.0000000109089,5.0000000372529));
#862=CARTESIAN_POINT('',(3.74999995529652,11.0000000109089,5.0000000372529));
#863=CARTESIAN_POINT('Origin',(-4.47034831374538E-8,11.0000000109089,5.0000000372529));
#864=CARTESIAN_POINT('Origin',(-4.47034831374538E-8,6.00000001090889,5.0000000372529));
#865=CARTESIAN_POINT('',(3.74999995529652,6.00000001090889,5.0000000372529));
#866=UNCERTAINTY_MEASURE_WITH_UNIT(LENGTH_MEASURE(0.01),#870,
'DISTANCE_ACCURACY_VALUE',
'Maximum model space distance between geometric entities at asserted c
onnectivities');
#867=UNCERTAINTY_MEASURE_WITH_UNIT(LENGTH_MEASURE(0.01),#870,
'DISTANCE_ACCURACY_VALUE',
'Maximum model space distance between geometric entities at asserted c
onnectivities');
#868=(
GEOMETRIC_REPRESENTATION_CONTEXT(3)
GLOBAL_UNCERTAINTY_ASSIGNED_CONTEXT((#866))
GLOBAL_UNIT_ASSIGNED_CONTEXT((#870,#872,#873))
REPRESENTATION_CONTEXT('','3D')
);
#869=(
GEOMETRIC_REPRESENTATION_CONTEXT(3)
GLOBAL_UNCERTAINTY_ASSIGNED_CONTEXT((#867))
GLOBAL_UNIT_ASSIGNED_CONTEXT((#870,#872,#873))
REPRESENTATION_CONTEXT('','3D')
);
#870=(
LENGTH_UNIT()
NAMED_UNIT(*)
SI_UNIT(.MILLI.,.METRE.)
);
#871=(
LENGTH_UNIT()
NAMED_UNIT(*)
SI_UNIT($,.METRE.)
);
#872=(
NAMED_UNIT(*)
PLANE_ANGLE_UNIT()
SI_UNIT($,.RADIAN.)
);
#873=(
NAMED_UNIT(*)
SI_UNIT($,.STERADIAN.)
SOLID_ANGLE_UNIT()
);
#874=SHAPE_DEFINITION_REPRESENTATION(#875,#876);
#875=PRODUCT_DEFINITION_SHAPE('',$,#878);
#876=SHAPE_REPRESENTATION('',(#375),#868);
#877=PRODUCT_DEFINITION_CONTEXT('part definition',#882,'design');
#878=PRODUCT_DEFINITION('2026-09-24-10-30-51-446','Barrel_1_Ver2',#879,
#877);
#879=PRODUCT_DEFINITION_FORMATION('',$,#884);
#880=PRODUCT_RELATED_PRODUCT_CATEGORY('Barrel_1_Ver2','Barrel_1_Ver2',(#884));
#881=APPLICATION_PROTOCOL_DEFINITION('international standard',
'automotive_design',2009,#882);
#882=APPLICATION_CONTEXT(
'Core Data for Automotive Mechanical Design Process');
#883=PRODUCT_CONTEXT('part definition',#882,'mechanical');
#884=PRODUCT('2026-09-24-10-30-51-446','Barrel_1_Ver2',$,(#883));
#885=PRESENTATION_STYLE_ASSIGNMENT((#886));
#886=SURFACE_STYLE_USAGE(.BOTH.,#887);
#887=SURFACE_SIDE_STYLE('',(#888));
#888=SURFACE_STYLE_FILL_AREA(#889);
#889=FILL_AREA_STYLE('Steel - Satin',(#890));
#890=FILL_AREA_STYLE_COLOUR('Steel - Satin',#891);
#891=COLOUR_RGB('Steel - Satin',0.627450980392157,0.627450980392157,0.627450980392157);
ENDSEC;
END-ISO-10303-21;
