ISO-10303-21;
HEADER;
FILE_DESCRIPTION (( 'STEP AP203' ),
    '1' );
FILE_NAME ('Base.STEP',
    '2026-09-20T13:06:22',
    ( '' ),
    ( '' ),
    'SwSTEP 2.0',
    'SolidWorks 2026',
    '' );
FILE_SCHEMA (( 'CONFIG_CONTROL_DESIGN' ));
ENDSEC;

DATA;
#1 = VECTOR ( 'NONE', #279, 1000.000000000000000 ) ;
#2 = EDGE_CURVE ( 'NONE', #441, #780, #569, .T. ) ;
#3 = CARTESIAN_POINT ( 'NONE',  ( -44.89988864128729773, 22.00000000000000711, 0.000000000000000000 ) ) ;
#4 = DATE_AND_TIME ( #628, #690 ) ;
#5 = ORIENTED_EDGE ( 'NONE', *, *, #561, .T. ) ;
#6 = CARTESIAN_POINT ( 'NONE',  ( 46.69999999999998153, 7.149798878262745019E-15, 14.48863176810649378 ) ) ;
#7 = LINE ( 'NONE', #123, #77 ) ;
#8 = DIRECTION ( 'NONE',  ( 0.000000000000000000, 1.000000000000000000, 0.000000000000000000 ) ) ;
#9 = VERTEX_POINT ( 'NONE', #696 ) ;
#10 = CARTESIAN_POINT ( 'NONE',  ( -20.80000000000001492, 38.97114317029974728, 0.000000000000000000 ) ) ;
#11 = ORIENTED_EDGE ( 'NONE', *, *, #503, .F. ) ;
#12 = PERSON_AND_ORGANIZATION_ROLE ( 'design_supplier' ) ;
#13 = EDGE_CURVE ( 'NONE', #384, #484, #187, .T. ) ;
#14 = LINE ( 'NONE', #6, #117 ) ;
#15 = PLANE ( 'NONE',  #23 ) ;
#16 = LINE ( 'NONE', #491, #167 ) ;
#17 = ORIENTED_EDGE ( 'NONE', *, *, #808, .F. ) ;
#18 = CARTESIAN_POINT ( 'NONE',  ( 0.000000000000000000, 0.000000000000000000, 14.48863176810649378 ) ) ;
#19 = SHAPE_DEFINITION_REPRESENTATION ( #224, #463 ) ;
#20 = ORIENTED_EDGE ( 'NONE', *, *, #540, .T. ) ;
#21 = CARTESIAN_POINT ( 'NONE',  ( 8.099999999999999645, 9.919639073093559228E-16, 0.000000000000000000 ) ) ;
#22 = LINE ( 'NONE', #593, #680 ) ;
#23 = AXIS2_PLACEMENT_3D ( 'NONE', #257, #768, #199 ) ;
#24 = APPROVAL ( #131, 'UNSPECIFIED' ) ;
#25 = VECTOR ( 'NONE', #177, 1000.000000000000000 ) ;
#26 = CIRCLE ( 'NONE', #229, 1.700000000000000178 ) ;
#27 = ORIENTED_EDGE ( 'NONE', *, *, #630, .T. ) ;
#28 = FACE_OUTER_BOUND ( 'NONE', #93, .T. ) ;
#29 = DIRECTION ( 'NONE',  ( 1.000000000000000000, 0.000000000000000000, 0.000000000000000000 ) ) ;
#30 = ORIENTED_EDGE ( 'NONE', *, *, #785, .T. ) ;
#31 = CARTESIAN_POINT ( 'NONE',  ( -102.0000000000000142, -22.00000000000000000, 15.00000000000000000 ) ) ;
#32 = PLANE ( 'NONE',  #545 ) ;
#33 = ORIENTED_EDGE ( 'NONE', *, *, #305, .F. ) ;
#34 = EDGE_CURVE ( 'NONE', #651, #441, #7, .T. ) ;
#35 = LINE ( 'NONE', #94, #804 ) ;
#36 = DIRECTION ( 'NONE',  ( -0.000000000000000000, -0.000000000000000000, -1.000000000000000000 ) ) ;
#37 = APPROVAL_PERSON_ORGANIZATION ( #464, #48, #718 ) ;
#38 = AXIS2_PLACEMENT_3D ( 'NONE', #389, #159, #515 ) ;
#39 = VERTEX_POINT ( 'NONE', #616 ) ;
#40 = DIRECTION ( 'NONE',  ( 0.000000000000000000, 0.000000000000000000, 1.000000000000000000 ) ) ;
#41 = CARTESIAN_POINT ( 'NONE',  ( -20.79999999999998295, -38.97114317029974018, 14.48863176810649378 ) ) ;
#42 = ORIENTED_EDGE ( 'NONE', *, *, #779, .T. ) ;
#43 = CARTESIAN_POINT ( 'NONE',  ( -20.79999999999998295, -38.97114317029974018, 0.000000000000000000 ) ) ;
#44 = FACE_OUTER_BOUND ( 'NONE', #86, .T. ) ;
#45 = VERTEX_POINT ( 'NONE', #319 ) ;
#46 = CARTESIAN_POINT ( 'NONE',  ( -100.0000000000000142, -20.00000000000000000, 2.000000000000000000 ) ) ;
#47 = PLANE ( 'NONE',  #609 ) ;
#48 = APPROVAL ( #581, 'UNSPECIFIED' ) ;
#49 = ORIENTED_EDGE ( 'NONE', *, *, #96, .T. ) ;
#50 = LINE ( 'NONE', #406, #805 ) ;
#51 = AXIS2_PLACEMENT_3D ( 'NONE', #18, #76, #314 ) ;
#52 = CARTESIAN_POINT ( 'NONE',  ( -100.0000000000000142, 22.00000000000000000, 15.00000000000000000 ) ) ;
#53 = VERTEX_POINT ( 'NONE', #3 ) ;
#54 = DIRECTION ( 'NONE',  ( -1.000000000000000000, 0.000000000000000000, 0.000000000000000000 ) ) ;
#55 = FACE_OUTER_BOUND ( 'NONE', #749, .T. ) ;
#56 = ORIENTED_EDGE ( 'NONE', *, *, #143, .T. ) ;
#57 = DATE_AND_TIME ( #437, #762 ) ;
#58 = ADVANCED_FACE ( 'NONE', ( #60 ), #65, .F. ) ;
#59 = DIRECTION ( 'NONE',  ( -0.000000000000000000, -0.000000000000000000, -1.000000000000000000 ) ) ;
#60 = FACE_OUTER_BOUND ( 'NONE', #614, .T. ) ;
#61 = DIRECTION ( 'NONE',  ( -0.000000000000000000, -0.000000000000000000, -1.000000000000000000 ) ) ;
#62 = CIRCLE ( 'NONE', #227, 8.099999999999999645 ) ;
#63 = DIRECTION ( 'NONE',  ( -0.000000000000000000, 0.000000000000000000, 1.000000000000000000 ) ) ;
#64 = AXIS2_PLACEMENT_3D ( 'NONE', #445, #639, #67 ) ;
#65 = CYLINDRICAL_SURFACE ( 'NONE', #529, 1.700000000000000178 ) ;
#66 = ORIENTED_EDGE ( 'NONE', *, *, #511, .T. ) ;
#67 = DIRECTION ( 'NONE',  ( -1.000000000000000000, -1.156482317317870985E-16, 0.000000000000000000 ) ) ;
#68 = EDGE_CURVE ( 'NONE', #243, #508, #443, .T. ) ;
#69 = VERTEX_POINT ( 'NONE', #505 ) ;
#70 = PERSON_AND_ORGANIZATION ( #575, #653 ) ;
#71 = VERTEX_POINT ( 'NONE', #753 ) ;
#72 = DIRECTION ( 'NONE',  ( -0.000000000000000000, 0.000000000000000000, 1.000000000000000000 ) ) ;
#73 = ORIENTED_EDGE ( 'NONE', *, *, #576, .F. ) ;
#74 = DATE_TIME_ROLE ( 'creation_date' ) ;
#75 = ORIENTED_EDGE ( 'NONE', *, *, #315, .F. ) ;
#76 = DIRECTION ( 'NONE',  ( -0.000000000000000000, 0.000000000000000000, 1.000000000000000000 ) ) ;
#77 = VECTOR ( 'NONE', #631, 1000.000000000000000 ) ;
#78 = CIRCLE ( 'NONE', #307, 1.700000000000000178 ) ;
#79 = CYLINDRICAL_SURFACE ( 'NONE', #512, 1.700000000000000178 ) ;
#80 = EDGE_LOOP ( 'NONE', ( #150, #252 ) ) ;
#81 = FACE_BOUND ( 'NONE', #296, .T. ) ;
#82 = ORIENTED_EDGE ( 'NONE', *, *, #687, .T. ) ;
#83 = CYLINDRICAL_SURFACE ( 'NONE', #733, 8.099999999999999645 ) ;
#84 = ADVANCED_FACE ( 'NONE', ( #254 ), #15, .F. ) ;
#85 = PLANE ( 'NONE',  #746 ) ;
#86 = EDGE_LOOP ( 'NONE', ( #532, #27, #352, #527 ) ) ;
#87 = CARTESIAN_POINT ( 'NONE',  ( -102.0000000000000142, -20.00000000000000000, 15.00000000000000000 ) ) ;
#88 = FACE_OUTER_BOUND ( 'NONE', #724, .T. ) ;
#89 = ADVANCED_FACE ( 'NONE', ( #138 ), #79, .F. ) ;
#90 = VECTOR ( 'NONE', #101, 1000.000000000000000 ) ;
#91 =( GEOMETRIC_REPRESENTATION_CONTEXT ( 3 ) GLOBAL_UNCERTAINTY_ASSIGNED_CONTEXT ( ( #539 ) ) GLOBAL_UNIT_ASSIGNED_CONTEXT ( ( #555, #754, #309 ) ) REPRESENTATION_CONTEXT ( 'NONE', 'WORKASPACE' ) );
#92 = DATE_TIME_ROLE ( 'classification_date' ) ;
#93 = EDGE_LOOP ( 'NONE', ( #682, #476, #30, #239 ) ) ;
#94 = CARTESIAN_POINT ( 'NONE',  ( -38.00000000000000000, 22.00000000000000711, 15.00000000000000000 ) ) ;
#95 = DIRECTION ( 'NONE',  ( -0.000000000000000000, 0.000000000000000000, 1.000000000000000000 ) ) ;
#96 = EDGE_CURVE ( 'NONE', #45, #53, #22, .T. ) ;
#97 = ORIENTED_EDGE ( 'NONE', *, *, #703, .T. ) ;
#98 = DIRECTION ( 'NONE',  ( -1.000000000000000000, 0.000000000000000000, 0.000000000000000000 ) ) ;
#99 = PLANE ( 'NONE',  #394 ) ;
#100 = VERTEX_POINT ( 'NONE', #590 ) ;
#101 = DIRECTION ( 'NONE',  ( 0.000000000000000000, 1.000000000000000000, 0.000000000000000000 ) ) ;
#102 = DIRECTION ( 'NONE',  ( 1.000000000000000000, 0.000000000000000000, 0.000000000000000000 ) ) ;
#103 = AXIS2_PLACEMENT_3D ( 'NONE', #87, #528, #145 ) ;
#104 = ORIENTED_EDGE ( 'NONE', *, *, #285, .T. ) ;
#105 = LINE ( 'NONE', #478, #281 ) ;
#106 = EDGE_CURVE ( 'NONE', #180, #69, #344, .T. ) ;
#107 = CARTESIAN_POINT ( 'NONE',  ( -40.00000000000000000, -20.00000000000000711, 14.48863176810649378 ) ) ;
#108 = VERTEX_POINT ( 'NONE', #722 ) ;
#109 = DIRECTION ( 'NONE',  ( -0.000000000000000000, -0.000000000000000000, -1.000000000000000000 ) ) ;
#110 = FACE_OUTER_BOUND ( 'NONE', #134, .T. ) ;
#111 = CC_DESIGN_PERSON_AND_ORGANIZATION_ASSIGNMENT ( #320, #571, ( #329 ) ) ;
#112 = ORIENTED_EDGE ( 'NONE', *, *, #619, .F. ) ;
#113 = LINE ( 'NONE', #683, #530 ) ;
#114 = LINE ( 'NONE', #810, #408 ) ;
#115 = ORIENTED_EDGE ( 'NONE', *, *, #413, .T. ) ;
#116 = DIRECTION ( 'NONE',  ( 1.000000000000000000, 1.156482317317870985E-16, 0.000000000000000000 ) ) ;
#117 = VECTOR ( 'NONE', #618, 1000.000000000000000 ) ;
#118 = DIRECTION ( 'NONE',  ( -1.000000000000000000, 0.000000000000000000, -0.000000000000000000 ) ) ;
#119 = EDGE_CURVE ( 'NONE', #100, #572, #787, .T. ) ;
#120 = ORIENTED_EDGE ( 'NONE', *, *, #106, .F. ) ;
#121 = LINE ( 'NONE', #176, #424 ) ;
#122 = DIRECTION ( 'NONE',  ( 0.000000000000000000, 0.000000000000000000, 1.000000000000000000 ) ) ;
#123 = CARTESIAN_POINT ( 'NONE',  ( -24.19999999999998153, -38.97114317029974018, 14.48863176810649378 ) ) ;
#124 = FACE_OUTER_BOUND ( 'NONE', #558, .T. ) ;
#125 = VERTEX_POINT ( 'NONE', #276 ) ;
#126 = ORIENTED_EDGE ( 'NONE', *, *, #294, .T. ) ;
#127 = CARTESIAN_POINT ( 'NONE',  ( -38.00000000000000000, 22.00000000000000711, 14.48863176810649378 ) ) ;
#128 = CIRCLE ( 'NONE', #582, 1.700000000000000178 ) ;
#129 = ADVANCED_FACE ( 'NONE', ( #521 ), #461, .F. ) ;
#130 = ORIENTED_EDGE ( 'NONE', *, *, #143, .F. ) ;
#131 = APPROVAL_STATUS ( 'not_yet_approved' ) ;
#132 = CARTESIAN_POINT ( 'NONE',  ( 0.000000000000000000, 18.75000000000000000, 14.48863176810649378 ) ) ;
#133 = EDGE_CURVE ( 'NONE', #71, #45, #210, .T. ) ;
#134 = EDGE_LOOP ( 'NONE', ( #405, #736, #541, #638 ) ) ;
#135 = CARTESIAN_POINT ( 'NONE',  ( 44.99999999999998579, 6.941608922407695583E-15, 14.48863176810649378 ) ) ;
#136 = ORIENTED_EDGE ( 'NONE', *, *, #133, .T. ) ;
#137 = ADVANCED_FACE ( 'NONE', ( #457 ), #32, .F. ) ;
#138 = FACE_OUTER_BOUND ( 'NONE', #208, .T. ) ;
#139 = ORIENTED_EDGE ( 'NONE', *, *, #119, .F. ) ;
#140 = CARTESIAN_POINT ( 'NONE',  ( -24.19999999999998153, -38.97114317029974018, 0.000000000000000000 ) ) ;
#141 = VECTOR ( 'NONE', #149, 1000.000000000000000 ) ;
#142 = AXIS2_PLACEMENT_3D ( 'NONE', #132, #63, #190 ) ;
#143 = EDGE_CURVE ( 'NONE', #342, #69, #333, .T. ) ;
#144 = ORIENTED_EDGE ( 'NONE', *, *, #305, .T. ) ;
#145 = DIRECTION ( 'NONE',  ( 0.000000000000000000, 0.000000000000000000, 1.000000000000000000 ) ) ;
#146 = CARTESIAN_POINT ( 'NONE',  ( -38.00000000000000000, -22.00000000000000711, 14.48863176810649378 ) ) ;
#147 = ORIENTED_EDGE ( 'NONE', *, *, #119, .T. ) ;
#148 = FACE_OUTER_BOUND ( 'NONE', #184, .T. ) ;
#149 = DIRECTION ( 'NONE',  ( -0.000000000000000000, -0.000000000000000000, -1.000000000000000000 ) ) ;
#150 = ORIENTED_EDGE ( 'NONE', *, *, #2, .T. ) ;
#151 = DIRECTION ( 'NONE',  ( -0.000000000000000000, 0.000000000000000000, 1.000000000000000000 ) ) ;
#152 = CARTESIAN_POINT ( 'NONE',  ( 0.000000000000000000, 18.75000000000000000, 0.000000000000000000 ) ) ;
#153 = EDGE_CURVE ( 'NONE', #572, #100, #649, .T. ) ;
#154 = AXIS2_PLACEMENT_3D ( 'NONE', #383, #706, #186 ) ;
#155 = VERTEX_POINT ( 'NONE', #146 ) ;
#156 = CARTESIAN_POINT ( 'NONE',  ( 44.99999999999998579, 6.941608922407695583E-15, 0.000000000000000000 ) ) ;
#157 = DIRECTION ( 'NONE',  ( 0.000000000000000000, 0.000000000000000000, 1.000000000000000000 ) ) ;
#158 = ORIENTED_EDGE ( 'NONE', *, *, #535, .F. ) ;
#159 = DIRECTION ( 'NONE',  ( -0.000000000000000000, 0.000000000000000000, 1.000000000000000000 ) ) ;
#160 = FACE_BOUND ( 'NONE', #490, .T. ) ;
#161 = EDGE_CURVE ( 'NONE', #69, #342, #266, .T. ) ;
#162 = ORIENTED_EDGE ( 'NONE', *, *, #189, .T. ) ;
#163 = DIRECTION ( 'NONE',  ( -1.000000000000000000, 0.000000000000000000, 0.000000000000000000 ) ) ;
#164 = CARTESIAN_POINT ( 'NONE',  ( 1.500000000000000666, 18.75000000000000000, 14.48863176810649378 ) ) ;
#165 = AXIS2_PLACEMENT_3D ( 'NONE', #763, #771, #191 ) ;
#166 = AXIS2_PLACEMENT_3D ( 'NONE', #156, #659, #271 ) ;
#167 = VECTOR ( 'NONE', #247, 1000.000000000000000 ) ;
#168 = VERTEX_POINT ( 'NONE', #41 ) ;
#169 = ADVANCED_FACE ( 'NONE', ( #339 ), #85, .T. ) ;
#170 = LINE ( 'NONE', #604, #734 ) ;
#171 = DIRECTION ( 'NONE',  ( -1.000000000000000000, 0.000000000000000000, 0.000000000000000000 ) ) ;
#172 = EDGE_LOOP ( 'NONE', ( #814, #562 ) ) ;
#173 = CARTESIAN_POINT ( 'NONE',  ( -44.89988864128729773, 22.00000000000000711, 14.48863176810649378 ) ) ;
#174 = EDGE_CURVE ( 'NONE', #9, #326, #467, .T. ) ;
#175 = ORIENTED_EDGE ( 'NONE', *, *, #752, .F. ) ;
#176 = CARTESIAN_POINT ( 'NONE',  ( -100.0000000000000142, 20.00000000000000000, 15.00000000000000000 ) ) ;
#177 = DIRECTION ( 'NONE',  ( -0.000000000000000000, -0.000000000000000000, -1.000000000000000000 ) ) ;
#178 = ADVANCED_FACE ( 'NONE', ( #160, #400, #534, #778, #657, #646 ), #99, .T. ) ;
#179 = CC_DESIGN_SECURITY_CLASSIFICATION ( #329, ( #661 ) ) ;
#180 = VERTEX_POINT ( 'NONE', #453 ) ;
#181 = LINE ( 'NONE', #173, #371 ) ;
#182 = VECTOR ( 'NONE', #431, 1000.000000000000000 ) ;
#183 = CYLINDRICAL_SURFACE ( 'NONE', #707, 1.700000000000000178 ) ;
#184 = EDGE_LOOP ( 'NONE', ( #739, #5, #33, #75 ) ) ;
#185 = DIRECTION ( 'NONE',  ( -1.000000000000000000, 0.000000000000000000, 0.000000000000000000 ) ) ;
#186 = DIRECTION ( 'NONE',  ( 1.000000000000000000, 0.000000000000000000, 0.000000000000000000 ) ) ;
#187 = LINE ( 'NONE', #627, #422 ) ;
#188 = DIRECTION ( 'NONE',  ( 1.000000000000000000, 0.000000000000000000, 0.000000000000000000 ) ) ;
#189 = EDGE_CURVE ( 'NONE', #663, #155, #598, .T. ) ;
#190 = DIRECTION ( 'NONE',  ( 1.000000000000000000, 0.000000000000000000, 0.000000000000000000 ) ) ;
#191 = DIRECTION ( 'NONE',  ( 1.000000000000000000, 0.000000000000000000, 0.000000000000000000 ) ) ;
#192 = PRODUCT_DEFINITION ( 'UNKNOWN', '', #661, #238 ) ;
#193 = DIRECTION ( 'NONE',  ( 1.000000000000000000, 0.000000000000000000, 0.000000000000000000 ) ) ;
#194 = VECTOR ( 'NONE', #492, 1000.000000000000000 ) ;
#195 = AXIS2_PLACEMENT_3D ( 'NONE', #750, #433, #188 ) ;
#196 = ORIENTED_EDGE ( 'NONE', *, *, #280, .T. ) ;
#197 = CALENDAR_DATE ( 2026, 20, 9 ) ;
#198 = DIRECTION ( 'NONE',  ( 1.000000000000000000, 0.000000000000000000, 0.000000000000000000 ) ) ;
#199 = DIRECTION ( 'NONE',  ( -1.000000000000000000, 1.156482317317870985E-16, 0.000000000000000000 ) ) ;
#200 = LINE ( 'NONE', #760, #194 ) ;
#201 = ADVANCED_FACE ( 'NONE', ( #88 ), #335, .F. ) ;
#202 = ORIENTED_EDGE ( 'NONE', *, *, #647, .T. ) ;
#203 = LINE ( 'NONE', #642, #449 ) ;
#204 = AXIS2_PLACEMENT_3D ( 'NONE', #393, #327, #652 ) ;
#205 = ORIENTED_EDGE ( 'NONE', *, *, #376, .F. ) ;
#206 = CARTESIAN_POINT ( 'NONE',  ( -40.00000000000000000, -20.00000000000000711, 15.00000000000000000 ) ) ;
#207 = DIRECTION ( 'NONE',  ( -1.000000000000000000, -1.156482317317870985E-16, 0.000000000000000000 ) ) ;
#208 = EDGE_LOOP ( 'NONE', ( #66, #360, #370, #783 ) ) ;
#209 = LINE ( 'NONE', #721, #1 ) ;
#210 = LINE ( 'NONE', #579, #596 ) ;
#211 = ORIENTED_EDGE ( 'NONE', *, *, #153, .T. ) ;
#212 = APPROVAL_PERSON_ORGANIZATION ( #559, #24, #697 ) ;
#213 = DIRECTION ( 'NONE',  ( 1.000000000000000000, 0.000000000000000000, 0.000000000000000000 ) ) ;
#214 = CARTESIAN_POINT ( 'NONE',  ( -44.89988864128729773, -22.00000000000000711, 14.48863176810649378 ) ) ;
#215 = CIRCLE ( 'NONE', #489, 1.500000000000000666 ) ;
#216 = EDGE_LOOP ( 'NONE', ( #196, #807, #250, #392 ) ) ;
#217 = LINE ( 'NONE', #466, #650 ) ;
#218 = DIRECTION ( 'NONE',  ( -0.000000000000000000, 0.000000000000000000, 1.000000000000000000 ) ) ;
#219 = EDGE_LOOP ( 'NONE', ( #429, #669, #425, #120 ) ) ;
#220 = DIRECTION ( 'NONE',  ( -0.000000000000000000, -0.000000000000000000, -1.000000000000000000 ) ) ;
#221 = DIRECTION ( 'NONE',  ( -1.000000000000000000, 0.000000000000000000, 0.000000000000000000 ) ) ;
#222 = EDGE_CURVE ( 'NONE', #501, #641, #292, .T. ) ;
#223 = ORIENTED_EDGE ( 'NONE', *, *, #376, .T. ) ;
#224 = PRODUCT_DEFINITION_SHAPE ( 'NONE', 'NONE',  #192 ) ;
#225 = DIRECTION ( 'NONE',  ( 0.000000000000000000, 1.000000000000000000, 0.000000000000000000 ) ) ;
#226 = LINE ( 'NONE', #241, #25 ) ;
#227 = AXIS2_PLACEMENT_3D ( 'NONE', #544, #237, #482 ) ;
#228 = AXIS2_PLACEMENT_3D ( 'NONE', #671, #679, #118 ) ;
#229 = AXIS2_PLACEMENT_3D ( 'NONE', #426, #287, #351 ) ;
#230 = EDGE_LOOP ( 'NONE', ( #591, #497, #514, #262 ) ) ;
#231 = CARTESIAN_POINT ( 'NONE',  ( 0.000000000000000000, 0.000000000000000000, 14.48863176810649378 ) ) ;
#232 = ADVANCED_FACE ( 'NONE', ( #44 ), #538, .F. ) ;
#233 = CARTESIAN_POINT ( 'NONE',  ( 43.29999999999998295, 6.941608922407695583E-15, 14.48863176810649378 ) ) ;
#234 = EDGE_LOOP ( 'NONE', ( #554, #42, #377, #366 ) ) ;
#235 = DIRECTION ( 'NONE',  ( -0.000000000000000000, -0.000000000000000000, -1.000000000000000000 ) ) ;
#236 = CC_DESIGN_PERSON_AND_ORGANIZATION_ASSIGNMENT ( #563, #686, ( #192 ) ) ;
#237 = DIRECTION ( 'NONE',  ( -0.000000000000000000, 0.000000000000000000, 1.000000000000000000 ) ) ;
#238 = DESIGN_CONTEXT ( 'detailed design', #269, 'design' ) ;
#239 = ORIENTED_EDGE ( 'NONE', *, *, #752, .T. ) ;
#240 = DIRECTION ( 'NONE',  ( 1.000000000000000000, -1.156482317317870985E-16, 0.000000000000000000 ) ) ;
#241 = CARTESIAN_POINT ( 'NONE',  ( -24.20000000000001705, 38.97114317029974728, 14.48863176810649378 ) ) ;
#242 = VECTOR ( 'NONE', #407, 1000.000000000000000 ) ;
#243 = VERTEX_POINT ( 'NONE', #417 ) ;
#244 = AXIS2_PLACEMENT_3D ( 'NONE', #248, #495, #625 ) ;
#245 = DIRECTION ( 'NONE',  ( 1.000000000000000000, 0.000000000000000000, 0.000000000000000000 ) ) ;
#246 = ORIENTED_EDGE ( 'NONE', *, *, #34, .T. ) ;
#247 = DIRECTION ( 'NONE',  ( -0.000000000000000000, -0.000000000000000000, -1.000000000000000000 ) ) ;
#248 = CARTESIAN_POINT ( 'NONE',  ( 0.000000000000000000, 0.000000000000000000, 0.000000000000000000 ) ) ;
#249 = CC_DESIGN_PERSON_AND_ORGANIZATION_ASSIGNMENT ( #567, #12, ( #661 ) ) ;
#250 = ORIENTED_EDGE ( 'NONE', *, *, #462, .T. ) ;
#251 = CYLINDRICAL_SURFACE ( 'NONE', #695, 1.700000000000000178 ) ;
#252 = ORIENTED_EDGE ( 'NONE', *, *, #423, .T. ) ;
#253 = CARTESIAN_POINT ( 'NONE',  ( -22.49999999999998224, -38.97114317029974018, 14.48863176810649378 ) ) ;
#254 = FACE_OUTER_BOUND ( 'NONE', #708, .T. ) ;
#255 = CYLINDRICAL_SURFACE ( 'NONE', #334, 8.099999999999999645 ) ;
#256 = CIRCLE ( 'NONE', #349, 50.00000000000000000 ) ;
#257 = CARTESIAN_POINT ( 'NONE',  ( -100.0000000000000142, -22.00000000000000000, 15.00000000000000000 ) ) ;
#258 = SECURITY_CLASSIFICATION_LEVEL ( 'unclassified' ) ;
#259 = CARTESIAN_POINT ( 'NONE',  ( 0.000000000000000000, 0.000000000000000000, 0.000000000000000000 ) ) ;
#260 = EDGE_CURVE ( 'NONE', #577, #342, #605, .T. ) ;
#261 = EDGE_LOOP ( 'NONE', ( #398, #82, #299, #350 ) ) ;
#262 = ORIENTED_EDGE ( 'NONE', *, *, #785, .F. ) ;
#263 = DIRECTION ( 'NONE',  ( -0.000000000000000000, -0.000000000000000000, -1.000000000000000000 ) ) ;
#264 = EDGE_LOOP ( 'NONE', ( #644, #468, #704, #372 ) ) ;
#265 = FACE_BOUND ( 'NONE', #438, .T. ) ;
#266 = CIRCLE ( 'NONE', #634, 1.500000000000000666 ) ;
#267 = CARTESIAN_POINT ( 'NONE',  ( 44.99999999999998579, 6.941608922407695583E-15, 14.48863176810649378 ) ) ;
#268 = VECTOR ( 'NONE', #740, 1000.000000000000000 ) ;
#269 = APPLICATION_CONTEXT ( 'configuration controlled 3d designs of mechanical parts and assemblies' ) ;
#270 = ORIENTED_EDGE ( 'NONE', *, *, #68, .F. ) ;
#271 = DIRECTION ( 'NONE',  ( 1.000000000000000000, 0.000000000000000000, 0.000000000000000000 ) ) ;
#272 = DIRECTION ( 'NONE',  ( 1.000000000000000000, 0.000000000000000000, 0.000000000000000000 ) ) ;
#273 = EDGE_CURVE ( 'NONE', #508, #685, #668, .T. ) ;
#274 = ORIENTED_EDGE ( 'NONE', *, *, #222, .T. ) ;
#275 = CYLINDRICAL_SURFACE ( 'NONE', #293, 1.700000000000000178 ) ;
#276 = CARTESIAN_POINT ( 'NONE',  ( -100.0000000000000142, 20.00000000000000000, 15.00000000000000000 ) ) ;
#277 = ORIENTED_EDGE ( 'NONE', *, *, #727, .F. ) ;
#278 = CC_DESIGN_APPROVAL ( #24, ( #661 ) ) ;
#279 = DIRECTION ( 'NONE',  ( 0.000000000000000000, 1.000000000000000000, 0.000000000000000000 ) ) ;
#280 = EDGE_CURVE ( 'NONE', #384, #155, #114, .T. ) ;
#281 = VECTOR ( 'NONE', #240, 1000.000000000000000 ) ;
#282 = ORIENTED_EDGE ( 'NONE', *, *, #280, .F. ) ;
#283 = LINE ( 'NONE', #46, #635 ) ;
#284 = DIRECTION ( 'NONE',  ( 1.000000000000000000, 1.156482317317870985E-16, 0.000000000000000000 ) ) ;
#285 = EDGE_CURVE ( 'NONE', #509, #454, #62, .T. ) ;
#286 = ORIENTED_EDGE ( 'NONE', *, *, #727, .T. ) ;
#287 = DIRECTION ( 'NONE',  ( -0.000000000000000000, 0.000000000000000000, 1.000000000000000000 ) ) ;
#288 = DIRECTION ( 'NONE',  ( -0.000000000000000000, 0.000000000000000000, 1.000000000000000000 ) ) ;
#289 = VERTEX_POINT ( 'NONE', #362 ) ;
#290 = LINE ( 'NONE', #678, #747 ) ;
#291 = CARTESIAN_POINT ( 'NONE',  ( -40.00000000000000000, 0.000000000000000000, 14.48863176810649378 ) ) ;
#292 = CIRCLE ( 'NONE', #488, 1.700000000000000178 ) ;
#293 = AXIS2_PLACEMENT_3D ( 'NONE', #524, #784, #98 ) ;
#294 = EDGE_CURVE ( 'NONE', #776, #289, #813, .T. ) ;
#295 = APPROVAL_PERSON_ORGANIZATION ( #502, #311, #430 ) ;
#296 = EDGE_LOOP ( 'NONE', ( #112, #270, #20, #97 ) ) ;
#297 = CYLINDRICAL_SURFACE ( 'NONE', #516, 50.00000000000000000 ) ;
#298 = DIRECTION ( 'NONE',  ( -0.000000000000000000, -0.000000000000000000, -1.000000000000000000 ) ) ;
#299 = ORIENTED_EDGE ( 'NONE', *, *, #672, .F. ) ;
#300 = DIRECTION ( 'NONE',  ( -0.000000000000000000, -0.000000000000000000, -1.000000000000000000 ) ) ;
#301 = CARTESIAN_POINT ( 'NONE',  ( -22.49999999999998224, -38.97114317029974018, 14.48863176810649378 ) ) ;
#302 = ORIENTED_EDGE ( 'NONE', *, *, #456, .T. ) ;
#303 = APPROVAL_DATE_TIME ( #57, #311 ) ;
#304 = CARTESIAN_POINT ( 'NONE',  ( -24.20000000000001705, 38.97114317029974728, 14.48863176810649378 ) ) ;
#305 = EDGE_CURVE ( 'NONE', #641, #501, #369, .T. ) ;
#306 = AXIS2_PLACEMENT_3D ( 'NONE', #365, #730, #738 ) ;
#307 = AXIS2_PLACEMENT_3D ( 'NONE', #253, #498, #193 ) ;
#308 = CARTESIAN_POINT ( 'NONE',  ( -100.0000000000000142, -20.00000000000000000, 15.00000000000000000 ) ) ;
#309 =( NAMED_UNIT ( * ) SI_UNIT ( $, .STERADIAN. ) SOLID_ANGLE_UNIT ( ) );
#310 = CIRCLE ( 'NONE', #460, 1.700000000000000178 ) ;
#311 = APPROVAL ( #764, 'UNSPECIFIED' ) ;
#312 = EDGE_LOOP ( 'NONE', ( #144, #274 ) ) ;
#313 = COORDINATED_UNIVERSAL_TIME_OFFSET ( 5, 30, .AHEAD. ) ;
#314 = DIRECTION ( 'NONE',  ( 1.000000000000000000, 0.000000000000000000, 0.000000000000000000 ) ) ;
#315 = EDGE_CURVE ( 'NONE', #382, #641, #226, .T. ) ;
#316 = EDGE_LOOP ( 'NONE', ( #599, #796 ) ) ;
#317 = PERSON_AND_ORGANIZATION_ROLE ( 'creator' ) ;
#318 = CARTESIAN_POINT ( 'NONE',  ( 0.000000000000000000, 0.000000000000000000, 14.48863176810649378 ) ) ;
#319 = CARTESIAN_POINT ( 'NONE',  ( -102.0000000000000142, 22.00000000000000000, 0.000000000000000000 ) ) ;
#320 = PERSON_AND_ORGANIZATION ( #575, #653 ) ;
#321 = ADVANCED_FACE ( 'NONE', ( #473 ), #421, .F. ) ;
#322 = PLANE ( 'NONE',  #761 ) ;
#323 = CIRCLE ( 'NONE', #788, 8.099999999999999645 ) ;
#324 = DIRECTION ( 'NONE',  ( -1.000000000000000000, -1.156482317317870985E-16, 0.000000000000000000 ) ) ;
#325 = FACE_OUTER_BOUND ( 'NONE', #230, .T. ) ;
#326 = VERTEX_POINT ( 'NONE', #675 ) ;
#327 = DIRECTION ( 'NONE',  ( -0.000000000000000000, 0.000000000000000000, 1.000000000000000000 ) ) ;
#328 = CARTESIAN_POINT ( 'NONE',  ( -2.312964634635743056E-15, -20.00000000000001066, 14.48863176810649378 ) ) ;
#329 = SECURITY_CLASSIFICATION ( '', '', #258 ) ;
#330 = DATE_AND_TIME ( #772, #556 ) ;
#331 = ORIENTED_EDGE ( 'NONE', *, *, #483, .F. ) ;
#332 = FACE_BOUND ( 'NONE', #692, .T. ) ;
#333 = CIRCLE ( 'NONE', #694, 1.500000000000000666 ) ;
#334 = AXIS2_PLACEMENT_3D ( 'NONE', #318, #507, #504 ) ;
#335 = PLANE ( 'NONE',  #381 ) ;
#336 = CC_DESIGN_DATE_AND_TIME_ASSIGNMENT ( #632, #74, ( #192 ) ) ;
#337 = ORIENTED_EDGE ( 'NONE', *, *, #260, .F. ) ;
#338 = LINE ( 'NONE', #31, #667 ) ;
#339 = FACE_OUTER_BOUND ( 'NONE', #570, .T. ) ;
#340 = APPROVAL_DATE_TIME ( #330, #48 ) ;
#341 = ADVANCED_FACE ( 'NONE', ( #735 ), #684, .F. ) ;
#342 = VERTEX_POINT ( 'NONE', #613 ) ;
#343 = CARTESIAN_POINT ( 'NONE',  ( -22.50000000000001776, 38.97114317029974728, 14.48863176810649378 ) ) ;
#344 = LINE ( 'NONE', #348, #620 ) ;
#345 = ORIENTED_EDGE ( 'NONE', *, *, #691, .F. ) ;
#346 = CC_DESIGN_PERSON_AND_ORGANIZATION_ASSIGNMENT ( #705, #367, ( #388 ) ) ;
#347 = CARTESIAN_POINT ( 'NONE',  ( -2.544261098099317203E-15, -22.00000000000001066, 14.48863176810649378 ) ) ;
#348 = CARTESIAN_POINT ( 'NONE',  ( -1.500000000000000666, 18.75000000000000000, 14.48863176810649378 ) ) ;
#349 = AXIS2_PLACEMENT_3D ( 'NONE', #259, #379, #560 ) ;
#350 = ORIENTED_EDGE ( 'NONE', *, *, #540, .F. ) ;
#351 = DIRECTION ( 'NONE',  ( 1.000000000000000000, 0.000000000000000000, 0.000000000000000000 ) ) ;
#352 = ORIENTED_EDGE ( 'NONE', *, *, #315, .T. ) ;
#353 = CARTESIAN_POINT ( 'NONE',  ( -100.0000000000000142, -20.00000000000000000, 2.000000000000000000 ) ) ;
#354 = CARTESIAN_POINT ( 'NONE',  ( -22.50000000000001776, 38.97114317029974728, 0.000000000000000000 ) ) ;
#355 = ORIENTED_EDGE ( 'NONE', *, *, #413, .F. ) ;
#356 = CARTESIAN_POINT ( 'NONE',  ( -24.20000000000001705, 38.97114317029974728, 0.000000000000000000 ) ) ;
#357 = DIRECTION ( 'NONE',  ( 1.000000000000000000, 1.156482317317870985E-16, 0.000000000000000000 ) ) ;
#358 = ADVANCED_FACE ( 'NONE', ( #55 ), #183, .F. ) ;
#359 = VECTOR ( 'NONE', #595, 1000.000000000000000 ) ;
#360 = ORIENTED_EDGE ( 'NONE', *, *, #808, .T. ) ;
#361 = DIRECTION ( 'NONE',  ( 1.000000000000000000, 0.000000000000000000, 0.000000000000000000 ) ) ;
#362 = CARTESIAN_POINT ( 'NONE',  ( -38.00000000000000000, 22.00000000000000711, 15.00000000000000000 ) ) ;
#363 = EDGE_LOOP ( 'NONE', ( #331, #434 ) ) ;
#364 = LINE ( 'NONE', #600, #268 ) ;
#365 = CARTESIAN_POINT ( 'NONE',  ( -22.50000000000001776, 38.97114317029974728, 14.48863176810649378 ) ) ;
#366 = ORIENTED_EDGE ( 'NONE', *, *, #401, .F. ) ;
#367 = PERSON_AND_ORGANIZATION_ROLE ( 'design_owner' ) ;
#368 = ADVANCED_FACE ( 'NONE', ( #110 ), #47, .T. ) ;
#369 = CIRCLE ( 'NONE', #775, 1.700000000000000178 ) ;
#370 = ORIENTED_EDGE ( 'NONE', *, *, #2, .F. ) ;
#371 = VECTOR ( 'NONE', #40, 1000.000000000000000 ) ;
#372 = ORIENTED_EDGE ( 'NONE', *, *, #462, .F. ) ;
#373 = EDGE_LOOP ( 'NONE', ( #731, #419 ) ) ;
#374 = COORDINATED_UNIVERSAL_TIME_OFFSET ( 5, 30, .AHEAD. ) ;
#375 = CARTESIAN_POINT ( 'NONE',  ( -38.00000000000000000, -20.00000000000000711, 15.00000000000000000 ) ) ;
#376 = EDGE_CURVE ( 'NONE', #572, #623, #806, .T. ) ;
#377 = ORIENTED_EDGE ( 'NONE', *, *, #792, .T. ) ;
#378 = ORIENTED_EDGE ( 'NONE', *, *, #456, .F. ) ;
#379 = DIRECTION ( 'NONE',  ( -0.000000000000000000, 0.000000000000000000, 1.000000000000000000 ) ) ;
#380 = ORIENTED_EDGE ( 'NONE', *, *, #68, .T. ) ;
#381 = AXIS2_PLACEMENT_3D ( 'NONE', #615, #171, #601 ) ;
#382 = VERTEX_POINT ( 'NONE', #304 ) ;
#383 = CARTESIAN_POINT ( 'NONE',  ( -22.50000000000001776, 38.97114317029974728, 14.48863176810649378 ) ) ;
#384 = VERTEX_POINT ( 'NONE', #127 ) ;
#385 = PLANE ( 'NONE',  #204 ) ;
#386 = DIRECTION ( 'NONE',  ( -0.000000000000000000, 0.000000000000000000, 1.000000000000000000 ) ) ;
#387 = ORIENTED_EDGE ( 'NONE', *, *, #637, .T. ) ;
#388 = PRODUCT ( 'Base', 'Base', '', ( #815 ) ) ;
#389 = CARTESIAN_POINT ( 'NONE',  ( 0.000000000000000000, 0.000000000000000000, 0.000000000000000000 ) ) ;
#390 = CC_DESIGN_PERSON_AND_ORGANIZATION_ASSIGNMENT ( #70, #317, ( #661 ) ) ;
#391 = CARTESIAN_POINT ( 'NONE',  ( 0.000000000000000000, 18.75000000000000000, 0.000000000000000000 ) ) ;
#392 = ORIENTED_EDGE ( 'NONE', *, *, #13, .F. ) ;
#393 = CARTESIAN_POINT ( 'NONE',  ( 0.000000000000000000, 0.000000000000000000, 0.000000000000000000 ) ) ;
#394 = AXIS2_PLACEMENT_3D ( 'NONE', #404, #660, #102 ) ;
#395 = VECTOR ( 'NONE', #59, 1000.000000000000000 ) ;
#396 = CARTESIAN_POINT ( 'NONE',  ( 44.99999999999998579, 6.941608922407695583E-15, 14.48863176810649378 ) ) ;
#397 = AXIS2_PLACEMENT_3D ( 'NONE', #533, #729, #163 ) ;
#398 = ORIENTED_EDGE ( 'NONE', *, *, #654, .T. ) ;
#399 = FACE_BOUND ( 'NONE', #316, .T. ) ;
#400 = FACE_BOUND ( 'NONE', #373, .T. ) ;
#401 = EDGE_CURVE ( 'NONE', #39, #655, #568, .T. ) ;
#402 = ORIENTED_EDGE ( 'NONE', *, *, #523, .F. ) ;
#403 = CARTESIAN_POINT ( 'NONE',  ( 43.29999999999998295, 6.941608922407695583E-15, 0.000000000000000000 ) ) ;
#404 = CARTESIAN_POINT ( 'NONE',  ( 0.000000000000000000, 0.000000000000000000, 14.48863176810649378 ) ) ;
#405 = ORIENTED_EDGE ( 'NONE', *, *, #792, .F. ) ;
#406 = CARTESIAN_POINT ( 'NONE',  ( -102.0000000000000142, 22.00000000000000000, 15.00000000000000000 ) ) ;
#407 = DIRECTION ( 'NONE',  ( -0.000000000000000000, -0.000000000000000000, -1.000000000000000000 ) ) ;
#408 = VECTOR ( 'NONE', #549, 1000.000000000000000 ) ;
#409 = CIRCLE ( 'NONE', #38, 8.099999999999999645 ) ;
#410 = CC_DESIGN_APPROVAL ( #311, ( #192 ) ) ;
#411 = ORIENTED_EDGE ( 'NONE', *, *, #13, .T. ) ;
#412 = LINE ( 'NONE', #416, #681 ) ;
#413 = EDGE_CURVE ( 'NONE', #100, #677, #14, .T. ) ;
#414 = DIRECTION ( 'NONE',  ( -0.000000000000000000, 0.000000000000000000, 1.000000000000000000 ) ) ;
#415 = ORIENTED_EDGE ( 'NONE', *, *, #637, .F. ) ;
#416 = CARTESIAN_POINT ( 'NONE',  ( -100.0000000000000142, -20.00000000000000000, 15.00000000000000000 ) ) ;
#417 = CARTESIAN_POINT ( 'NONE',  ( -100.0000000000000142, -20.00000000000000000, 15.00000000000000000 ) ) ;
#418 = EDGE_CURVE ( 'NONE', #9, #53, #256, .T. ) ;
#419 = ORIENTED_EDGE ( 'NONE', *, *, #759, .F. ) ;
#420 = LINE ( 'NONE', #798, #622 ) ;
#421 = CYLINDRICAL_SURFACE ( 'NONE', #621, 1.500000000000000666 ) ;
#422 = VECTOR ( 'NONE', #324, 1000.000000000000000 ) ;
#423 = EDGE_CURVE ( 'NONE', #780, #441, #557, .T. ) ;
#424 = VECTOR ( 'NONE', #109, 1000.000000000000000 ) ;
#425 = ORIENTED_EDGE ( 'NONE', *, *, #161, .F. ) ;
#426 = CARTESIAN_POINT ( 'NONE',  ( -22.49999999999998224, -38.97114317029974018, 14.48863176810649378 ) ) ;
#427 = DIRECTION ( 'NONE',  ( -1.000000000000000000, 0.000000000000000000, 0.000000000000000000 ) ) ;
#428 = ADVANCED_FACE ( 'NONE', ( #325, #81 ), #322, .T. ) ;
#429 = ORIENTED_EDGE ( 'NONE', *, *, #503, .T. ) ;
#430 = APPROVAL_ROLE ( '' ) ;
#431 = DIRECTION ( 'NONE',  ( 1.000000000000000000, 1.156482317317870985E-16, 0.000000000000000000 ) ) ;
#432 = ORIENTED_EDGE ( 'NONE', *, *, #523, .T. ) ;
#433 = DIRECTION ( 'NONE',  ( 0.000000000000000000, 0.000000000000000000, 1.000000000000000000 ) ) ;
#434 = ORIENTED_EDGE ( 'NONE', *, *, #630, .F. ) ;
#435 = CIRCLE ( 'NONE', #51, 50.00000000000000000 ) ;
#436 = ORIENTED_EDGE ( 'NONE', *, *, #401, .T. ) ;
#437 = CALENDAR_DATE ( 2026, 20, 9 ) ;
#438 = EDGE_LOOP ( 'NONE', ( #758, #56 ) ) ;
#439 = LINE ( 'NONE', #375, #90 ) ;
#440 = EDGE_CURVE ( 'NONE', #108, #547, #597, .T. ) ;
#441 = VERTEX_POINT ( 'NONE', #140 ) ;
#442 = DIRECTION ( 'NONE',  ( -0.000000000000000000, 0.000000000000000000, 1.000000000000000000 ) ) ;
#443 = LINE ( 'NONE', #308, #717 ) ;
#444 = APPLICATION_PROTOCOL_DEFINITION ( 'international standard', 'config_control_design', 1994, #797 ) ;
#445 = CARTESIAN_POINT ( 'NONE',  ( -100.0000000000000142, 22.00000000000000000, 15.00000000000000000 ) ) ;
#446 = ORIENTED_EDGE ( 'NONE', *, *, #602, .F. ) ;
#447 = ORIENTED_EDGE ( 'NONE', *, *, #759, .T. ) ;
#448 = FACE_BOUND ( 'NONE', #312, .T. ) ;
#449 = VECTOR ( 'NONE', #455, 1000.000000000000000 ) ;
#450 = ADVANCED_FACE ( 'NONE', ( #702 ), #255, .F. ) ;
#451 = EDGE_LOOP ( 'NONE', ( #11, #811 ) ) ;
#452 = DIRECTION ( 'NONE',  ( 0.000000000000000000, 1.000000000000000000, 0.000000000000000000 ) ) ;
#453 = CARTESIAN_POINT ( 'NONE',  ( -1.500000000000000666, 18.75000000000000000, 14.48863176810649378 ) ) ;
#454 = VERTEX_POINT ( 'NONE', #633 ) ;
#455 = DIRECTION ( 'NONE',  ( -0.000000000000000000, -0.000000000000000000, -1.000000000000000000 ) ) ;
#456 = EDGE_CURVE ( 'NONE', #71, #9, #200, .T. ) ;
#457 = FACE_OUTER_BOUND ( 'NONE', #793, .T. ) ;
#458 = ORIENTED_EDGE ( 'NONE', *, *, #273, .T. ) ;
#459 = LINE ( 'NONE', #347, #359 ) ;
#460 = AXIS2_PLACEMENT_3D ( 'NONE', #343, #592, #790 ) ;
#461 = PLANE ( 'NONE',  #580 ) ;
#462 = EDGE_CURVE ( 'NONE', #326, #484, #435, .T. ) ;
#463 = ADVANCED_BREP_SHAPE_REPRESENTATION ( 'Base', ( #742, #195 ), #91 ) ;
#464 = PERSON_AND_ORGANIZATION ( #575, #653 ) ;
#465 = VERTEX_POINT ( 'NONE', #755 ) ;
#466 = CARTESIAN_POINT ( 'NONE',  ( 8.099999999999999645, 9.919639073093559228E-16, 14.48863176810649378 ) ) ;
#467 = LINE ( 'NONE', #214, #662 ) ;
#468 = ORIENTED_EDGE ( 'NONE', *, *, #418, .T. ) ;
#469 = DIRECTION ( 'NONE',  ( 0.000000000000000000, 1.000000000000000000, 0.000000000000000000 ) ) ;
#470 = DIRECTION ( 'NONE',  ( -1.000000000000000000, 0.000000000000000000, 0.000000000000000000 ) ) ;
#471 = ORIENTED_EDGE ( 'NONE', *, *, #106, .T. ) ;
#472 = FACE_OUTER_BOUND ( 'NONE', #264, .T. ) ;
#473 = FACE_OUTER_BOUND ( 'NONE', #219, .T. ) ;
#474 = VECTOR ( 'NONE', #799, 1000.000000000000000 ) ;
#475 = CIRCLE ( 'NONE', #154, 1.700000000000000178 ) ;
#476 = ORIENTED_EDGE ( 'NONE', *, *, #610, .F. ) ;
#477 = CC_DESIGN_DATE_AND_TIME_ASSIGNMENT ( #526, #92, ( #329 ) ) ;
#478 = CARTESIAN_POINT ( 'NONE',  ( -100.0000000000000142, -22.00000000000000000, 15.00000000000000000 ) ) ;
#479 = ORIENTED_EDGE ( 'NONE', *, *, #654, .F. ) ;
#480 = CARTESIAN_POINT ( 'NONE',  ( -22.49999999999998224, -38.97114317029974018, 14.48863176810649378 ) ) ;
#481 = CARTESIAN_POINT ( 'NONE',  ( -102.0000000000000142, 22.00000000000000000, 15.00000000000000000 ) ) ;
#482 = DIRECTION ( 'NONE',  ( 1.000000000000000000, 0.000000000000000000, 0.000000000000000000 ) ) ;
#483 = EDGE_CURVE ( 'NONE', #382, #673, #475, .T. ) ;
#484 = VERTEX_POINT ( 'NONE', #688 ) ;
#485 = CARTESIAN_POINT ( 'NONE',  ( -38.00000000000000000, -22.00000000000000711, 15.00000000000000000 ) ) ;
#486 = DIRECTION ( 'NONE',  ( -1.000000000000000000, 0.000000000000000000, 0.000000000000000000 ) ) ;
#487 = ADVANCED_FACE ( 'NONE', ( #124 ), #770, .T. ) ;
#488 = AXIS2_PLACEMENT_3D ( 'NONE', #816, #414, #245 ) ;
#489 = AXIS2_PLACEMENT_3D ( 'NONE', #812, #794, #803 ) ;
#490 = EDGE_LOOP ( 'NONE', ( #802, #139 ) ) ;
#491 = CARTESIAN_POINT ( 'NONE',  ( -20.79999999999998295, -38.97114317029974018, 14.48863176810649378 ) ) ;
#492 = DIRECTION ( 'NONE',  ( 1.000000000000000000, -1.156482317317870985E-16, 0.000000000000000000 ) ) ;
#493 = DIRECTION ( 'NONE',  ( -0.000000000000000000, -0.000000000000000000, -1.000000000000000000 ) ) ;
#494 = APPROVAL_DATE_TIME ( #4, #24 ) ;
#495 = DIRECTION ( 'NONE',  ( -0.000000000000000000, 0.000000000000000000, 1.000000000000000000 ) ) ;
#496 = ORIENTED_EDGE ( 'NONE', *, *, #602, .T. ) ;
#497 = ORIENTED_EDGE ( 'NONE', *, *, #518, .T. ) ;
#498 = DIRECTION ( 'NONE',  ( -0.000000000000000000, 0.000000000000000000, 1.000000000000000000 ) ) ;
#499 = CLOSED_SHELL ( 'NONE', ( #573, #58, #89, #626, #321, #767, #178, #169, #137, #723, #368, #232, #358, #800, #450, #587, #84, #487, #428, #201, #565, #129, #341 ) ) ;
#500 = AXIS2_PLACEMENT_3D ( 'NONE', #629, #442, #198 ) ;
#501 = VERTEX_POINT ( 'NONE', #10 ) ;
#502 = PERSON_AND_ORGANIZATION ( #575, #653 ) ;
#503 = EDGE_CURVE ( 'NONE', #180, #577, #719, .T. ) ;
#504 = DIRECTION ( 'NONE',  ( -1.000000000000000000, 0.000000000000000000, 0.000000000000000000 ) ) ;
#505 = CARTESIAN_POINT ( 'NONE',  ( -1.500000000000000666, 18.75000000000000000, 0.000000000000000000 ) ) ;
#506 = COORDINATED_UNIVERSAL_TIME_OFFSET ( 5, 30, .AHEAD. ) ;
#507 = DIRECTION ( 'NONE',  ( -0.000000000000000000, -0.000000000000000000, -1.000000000000000000 ) ) ;
#508 = VERTEX_POINT ( 'NONE', #693 ) ;
#509 = VERTEX_POINT ( 'NONE', #564 ) ;
#510 = CARTESIAN_POINT ( 'NONE',  ( 1.500000000000000666, 18.75000000000000000, 14.48863176810649378 ) ) ;
#511 = EDGE_CURVE ( 'NONE', #651, #168, #78, .T. ) ;
#512 = AXIS2_PLACEMENT_3D ( 'NONE', #480, #586, #221 ) ;
#513 = CIRCLE ( 'NONE', #166, 1.700000000000000178 ) ;
#514 = ORIENTED_EDGE ( 'NONE', *, *, #294, .F. ) ;
#515 = DIRECTION ( 'NONE',  ( 1.000000000000000000, 0.000000000000000000, 0.000000000000000000 ) ) ;
#516 = AXIS2_PLACEMENT_3D ( 'NONE', #548, #235, #54 ) ;
#517 = DIRECTION ( 'NONE',  ( -1.000000000000000000, 1.156482317317870985E-16, 0.000000000000000000 ) ) ;
#518 = EDGE_CURVE ( 'NONE', #663, #289, #439, .T. ) ;
#519 = ORIENTED_EDGE ( 'NONE', *, *, #418, .F. ) ;
#520 = FACE_OUTER_BOUND ( 'NONE', #756, .T. ) ;
#521 = FACE_OUTER_BOUND ( 'NONE', #261, .T. ) ;
#522 = ORIENTED_EDGE ( 'NONE', *, *, #518, .F. ) ;
#523 = EDGE_CURVE ( 'NONE', #547, #108, #409, .T. ) ;
#524 = CARTESIAN_POINT ( 'NONE',  ( -22.50000000000001776, 38.97114317029974728, 14.48863176810649378 ) ) ;
#525 = CARTESIAN_POINT ( 'NONE',  ( -2.312964634635743056E-15, 20.00000000000001066, 14.48863176810649378 ) ) ;
#526 = DATE_AND_TIME ( #769, #542 ) ;
#527 = ORIENTED_EDGE ( 'NONE', *, *, #222, .F. ) ;
#528 = DIRECTION ( 'NONE',  ( -1.000000000000000000, 0.000000000000000000, 0.000000000000000000 ) ) ;
#529 = AXIS2_PLACEMENT_3D ( 'NONE', #574, #493, #566 ) ;
#530 = VECTOR ( 'NONE', #220, 1000.000000000000000 ) ;
#531 = DIRECTION ( 'NONE',  ( 1.000000000000000000, 0.000000000000000000, 0.000000000000000000 ) ) ;
#532 = ORIENTED_EDGE ( 'NONE', *, *, #561, .F. ) ;
#533 = CARTESIAN_POINT ( 'NONE',  ( 0.000000000000000000, 18.75000000000000000, 14.48863176810649378 ) ) ;
#534 = FACE_BOUND ( 'NONE', #363, .T. ) ;
#535 = EDGE_CURVE ( 'NONE', #155, #326, #459, .T. ) ;
#536 = EDGE_LOOP ( 'NONE', ( #337, #202, #471, #130 ) ) ;
#537 = CARTESIAN_POINT ( 'NONE',  ( -24.19999999999998153, -38.97114317029974018, 14.48863176810649378 ) ) ;
#538 = CYLINDRICAL_SURFACE ( 'NONE', #306, 1.700000000000000178 ) ;
#539 = UNCERTAINTY_MEASURE_WITH_UNIT (LENGTH_MEASURE( 1.000000000000000082E-05 ), #555, 'distance_accuracy_value', 'NONE');
#540 = EDGE_CURVE ( 'NONE', #243, #125, #209, .T. ) ;
#541 = ORIENTED_EDGE ( 'NONE', *, *, #619, .T. ) ;
#542 = LOCAL_TIME ( 18, 36, 22.00000000000000000, #506 ) ;
#543 = CARTESIAN_POINT ( 'NONE',  ( -20.80000000000001492, 38.97114317029974728, 14.48863176810649378 ) ) ;
#544 = CARTESIAN_POINT ( 'NONE',  ( 0.000000000000000000, 0.000000000000000000, 14.48863176810649378 ) ) ;
#545 = AXIS2_PLACEMENT_3D ( 'NONE', #525, #726, #207 ) ;
#546 = VECTOR ( 'NONE', #452, 1000.000000000000000 ) ;
#547 = VERTEX_POINT ( 'NONE', #21 ) ;
#548 = CARTESIAN_POINT ( 'NONE',  ( 0.000000000000000000, 0.000000000000000000, 14.48863176810649378 ) ) ;
#549 = DIRECTION ( 'NONE',  ( 0.000000000000000000, -1.000000000000000000, 0.000000000000000000 ) ) ;
#550 = EDGE_LOOP ( 'NONE', ( #355, #147, #223, #689 ) ) ;
#551 = DIRECTION ( 'NONE',  ( -0.000000000000000000, -0.000000000000000000, -1.000000000000000000 ) ) ;
#552 = EDGE_CURVE ( 'NONE', #677, #623, #513, .T. ) ;
#553 = DIRECTION ( 'NONE',  ( -0.000000000000000000, -0.000000000000000000, -1.000000000000000000 ) ) ;
#554 = ORIENTED_EDGE ( 'NONE', *, *, #687, .F. ) ;
#555 =( LENGTH_UNIT ( ) NAMED_UNIT ( * ) SI_UNIT ( .MILLI., .METRE. ) );
#556 = LOCAL_TIME ( 18, 36, 22.00000000000000000, #640 ) ;
#557 = CIRCLE ( 'NONE', #500, 1.700000000000000178 ) ;
#558 = EDGE_LOOP ( 'NONE', ( #713, #789, #175, #126, #496, #411 ) ) ;
#559 = PERSON_AND_ORGANIZATION ( #575, #653 ) ;
#560 = DIRECTION ( 'NONE',  ( 1.000000000000000000, 0.000000000000000000, 0.000000000000000000 ) ) ;
#561 = EDGE_CURVE ( 'NONE', #673, #501, #203, .T. ) ;
#562 = ORIENTED_EDGE ( 'NONE', *, *, #664, .F. ) ;
#563 = PERSON_AND_ORGANIZATION ( #575, #653 ) ;
#564 = CARTESIAN_POINT ( 'NONE',  ( -8.099999999999999645, 0.000000000000000000, 14.48863176810649378 ) ) ;
#565 = ADVANCED_FACE ( 'NONE', ( #28 ), #645, .T. ) ;
#566 = DIRECTION ( 'NONE',  ( -1.000000000000000000, 0.000000000000000000, 0.000000000000000000 ) ) ;
#567 = PERSON_AND_ORGANIZATION ( #575, #653 ) ;
#568 = LINE ( 'NONE', #766, #182 ) ;
#569 = CIRCLE ( 'NONE', #165, 1.700000000000000178 ) ;
#570 = EDGE_LOOP ( 'NONE', ( #728, #479, #380, #458 ) ) ;
#571 = PERSON_AND_ORGANIZATION_ROLE ( 'classification_officer' ) ;
#572 = VERTEX_POINT ( 'NONE', #584 ) ;
#573 = ADVANCED_FACE ( 'NONE', ( #709 ), #83, .F. ) ;
#574 = CARTESIAN_POINT ( 'NONE',  ( 44.99999999999998579, 6.941608922407695583E-15, 14.48863176810649378 ) ) ;
#575 = PERSON ( 'UNSPECIFIED', 'UNSPECIFIED', 'UNSPECIFIED', ('UNSPECIFIED'), ('UNSPECIFIED'), ('UNSPECIFIED') ) ;
#576 = EDGE_CURVE ( 'NONE', #623, #677, #128, .T. ) ;
#577 = VERTEX_POINT ( 'NONE', #510 ) ;
#578 = LINE ( 'NONE', #206, #546 ) ;
#579 = CARTESIAN_POINT ( 'NONE',  ( -102.0000000000000142, -20.00000000000000000, 0.000000000000000000 ) ) ;
#580 = AXIS2_PLACEMENT_3D ( 'NONE', #716, #470, #791 ) ;
#581 = APPROVAL_STATUS ( 'not_yet_approved' ) ;
#582 = AXIS2_PLACEMENT_3D ( 'NONE', #714, #151, #213 ) ;
#583 = VERTEX_POINT ( 'NONE', #781 ) ;
#584 = CARTESIAN_POINT ( 'NONE',  ( 43.29999999999998295, 6.941608922407695583E-15, 14.48863176810649378 ) ) ;
#585 = VECTOR ( 'NONE', #551, 1000.000000000000000 ) ;
#586 = DIRECTION ( 'NONE',  ( -0.000000000000000000, -0.000000000000000000, -1.000000000000000000 ) ) ;
#587 = ADVANCED_FACE ( 'NONE', ( #399, #774, #448, #520, #265, #332 ), #385, .F. ) ;
#588 = ORIENTED_EDGE ( 'NONE', *, *, #672, .T. ) ;
#589 = DIRECTION ( 'NONE',  ( -1.000000000000000000, 0.000000000000000000, 0.000000000000000000 ) ) ;
#590 = CARTESIAN_POINT ( 'NONE',  ( 46.69999999999998153, 7.149798878262745019E-15, 14.48863176810649378 ) ) ;
#591 = ORIENTED_EDGE ( 'NONE', *, *, #691, .T. ) ;
#592 = DIRECTION ( 'NONE',  ( -0.000000000000000000, 0.000000000000000000, 1.000000000000000000 ) ) ;
#593 = CARTESIAN_POINT ( 'NONE',  ( -100.0000000000000142, 22.00000000000000000, 0.000000000000000000 ) ) ;
#594 = ORIENTED_EDGE ( 'NONE', *, *, #664, .T. ) ;
#595 = DIRECTION ( 'NONE',  ( -1.000000000000000000, 1.156482317317870985E-16, 0.000000000000000000 ) ) ;
#596 = VECTOR ( 'NONE', #782, 1000.000000000000000 ) ;
#597 = CIRCLE ( 'NONE', #244, 8.099999999999999645 ) ;
#598 = LINE ( 'NONE', #795, #141 ) ;
#599 = ORIENTED_EDGE ( 'NONE', *, *, #576, .T. ) ;
#600 = CARTESIAN_POINT ( 'NONE',  ( -100.0000000000000142, -20.00000000000000000, 2.000000000000000000 ) ) ;
#601 = DIRECTION ( 'NONE',  ( 0.000000000000000000, 0.000000000000000000, 1.000000000000000000 ) ) ;
#602 = EDGE_CURVE ( 'NONE', #289, #384, #35, .T. ) ;
#603 = ORIENTED_EDGE ( 'NONE', *, *, #440, .T. ) ;
#604 = CARTESIAN_POINT ( 'NONE',  ( -40.00000000000000000, -20.00000000000000711, 2.000000000000000000 ) ) ;
#605 = LINE ( 'NONE', #164, #242 ) ;
#606 = ORIENTED_EDGE ( 'NONE', *, *, #440, .F. ) ;
#607 = CARTESIAN_POINT ( 'NONE',  ( -40.00000000000000000, -20.00000000000000711, 2.000000000000000000 ) ) ;
#608 = CARTESIAN_POINT ( 'NONE',  ( 0.000000000000000000, 18.75000000000000000, 14.48863176810649378 ) ) ;
#609 = AXIS2_PLACEMENT_3D ( 'NONE', #291, #427, #122 ) ;
#610 = EDGE_CURVE ( 'NONE', #465, #71, #338, .T. ) ;
#611 = EDGE_LOOP ( 'NONE', ( #104, #387, #606, #277 ) ) ;
#612 = LINE ( 'NONE', #744, #585 ) ;
#613 = CARTESIAN_POINT ( 'NONE',  ( 1.500000000000000666, 18.75000000000000000, 0.000000000000000000 ) ) ;
#614 = EDGE_LOOP ( 'NONE', ( #211, #115, #73, #205 ) ) ;
#615 = CARTESIAN_POINT ( 'NONE',  ( -38.00000000000000000, -20.00000000000000711, 15.00000000000000000 ) ) ;
#616 = CARTESIAN_POINT ( 'NONE',  ( -100.0000000000000142, 20.00000000000000000, 2.000000000000000000 ) ) ;
#617 = COORDINATED_UNIVERSAL_TIME_OFFSET ( 5, 30, .AHEAD. ) ;
#618 = DIRECTION ( 'NONE',  ( -0.000000000000000000, -0.000000000000000000, -1.000000000000000000 ) ) ;
#619 = EDGE_CURVE ( 'NONE', #508, #583, #578, .T. ) ;
#620 = VECTOR ( 'NONE', #36, 1000.000000000000000 ) ;
#621 = AXIS2_PLACEMENT_3D ( 'NONE', #608, #298, #486 ) ;
#622 = VECTOR ( 'NONE', #225, 1000.000000000000000 ) ;
#623 = VERTEX_POINT ( 'NONE', #403 ) ;
#624 = APPLICATION_PROTOCOL_DEFINITION ( 'international standard', 'config_control_design', 1994, #269 ) ;
#625 = DIRECTION ( 'NONE',  ( 1.000000000000000000, 0.000000000000000000, 0.000000000000000000 ) ) ;
#626 = ADVANCED_FACE ( 'NONE', ( #148 ), #275, .F. ) ;
#627 = CARTESIAN_POINT ( 'NONE',  ( -2.544261098099317203E-15, 22.00000000000001066, 14.48863176810649378 ) ) ;
#628 = CALENDAR_DATE ( 2026, 20, 9 ) ;
#629 = CARTESIAN_POINT ( 'NONE',  ( -22.49999999999998224, -38.97114317029974018, 0.000000000000000000 ) ) ;
#630 = EDGE_CURVE ( 'NONE', #673, #382, #310, .T. ) ;
#631 = DIRECTION ( 'NONE',  ( -0.000000000000000000, -0.000000000000000000, -1.000000000000000000 ) ) ;
#632 = DATE_AND_TIME ( #197, #648 ) ;
#633 = CARTESIAN_POINT ( 'NONE',  ( 8.099999999999999645, 9.919639073093559228E-16, 14.48863176810649378 ) ) ;
#634 = AXIS2_PLACEMENT_3D ( 'NONE', #152, #386, #643 ) ;
#635 = VECTOR ( 'NONE', #469, 1000.000000000000000 ) ;
#636 = DIRECTION ( 'NONE',  ( 1.000000000000000000, -1.156482317317870985E-16, 0.000000000000000000 ) ) ;
#637 = EDGE_CURVE ( 'NONE', #454, #547, #217, .T. ) ;
#638 = ORIENTED_EDGE ( 'NONE', *, *, #676, .T. ) ;
#639 = DIRECTION ( 'NONE',  ( -1.156482317317870985E-16, 1.000000000000000000, 0.000000000000000000 ) ) ;
#640 = COORDINATED_UNIVERSAL_TIME_OFFSET ( 5, 30, .AHEAD. ) ;
#641 = VERTEX_POINT ( 'NONE', #356 ) ;
#642 = CARTESIAN_POINT ( 'NONE',  ( -20.80000000000001492, 38.97114317029974728, 14.48863176810649378 ) ) ;
#643 = DIRECTION ( 'NONE',  ( 1.000000000000000000, 0.000000000000000000, 0.000000000000000000 ) ) ;
#644 = ORIENTED_EDGE ( 'NONE', *, *, #174, .F. ) ;
#645 = PLANE ( 'NONE',  #103 ) ;
#646 = FACE_OUTER_BOUND ( 'NONE', #216, .T. ) ;
#647 = EDGE_CURVE ( 'NONE', #577, #180, #215, .T. ) ;
#648 = LOCAL_TIME ( 18, 36, 22.00000000000000000, #617 ) ;
#649 = CIRCLE ( 'NONE', #666, 1.700000000000000178 ) ;
#650 = VECTOR ( 'NONE', #725, 1000.000000000000000 ) ;
#651 = VERTEX_POINT ( 'NONE', #537 ) ;
#652 = DIRECTION ( 'NONE',  ( 1.000000000000000000, 0.000000000000000000, 0.000000000000000000 ) ) ;
#653 = ORGANIZATION ( 'UNSPECIFIED', 'UNSPECIFIED', '' ) ;
#654 = EDGE_CURVE ( 'NONE', #243, #698, #412, .T. ) ;
#655 = VERTEX_POINT ( 'NONE', #674 ) ;
#656 = DIRECTION ( 'NONE',  ( -0.000000000000000000, -0.000000000000000000, -1.000000000000000000 ) ) ;
#657 = FACE_BOUND ( 'NONE', #172, .T. ) ;
#658 = EDGE_LOOP ( 'NONE', ( #415, #594, #286, #402 ) ) ;
#659 = DIRECTION ( 'NONE',  ( -0.000000000000000000, 0.000000000000000000, 1.000000000000000000 ) ) ;
#660 = DIRECTION ( 'NONE',  ( -0.000000000000000000, 0.000000000000000000, 1.000000000000000000 ) ) ;
#661 = PRODUCT_DEFINITION_FORMATION_WITH_SPECIFIED_SOURCE ( 'ANY', '', #388, .NOT_KNOWN. ) ;
#662 = VECTOR ( 'NONE', #157, 1000.000000000000000 ) ;
#663 = VERTEX_POINT ( 'NONE', #485 ) ;
#664 = EDGE_CURVE ( 'NONE', #454, #509, #323, .T. ) ;
#665 = DIRECTION ( 'NONE',  ( -0.000000000000000000, -0.000000000000000000, -1.000000000000000000 ) ) ;
#666 = AXIS2_PLACEMENT_3D ( 'NONE', #267, #712, #272 ) ;
#667 = VECTOR ( 'NONE', #777, 1000.000000000000000 ) ;
#668 = LINE ( 'NONE', #107, #474 ) ;
#669 = ORIENTED_EDGE ( 'NONE', *, *, #260, .T. ) ;
#670 = CARTESIAN_POINT ( 'NONE',  ( 46.69999999999998153, 7.149798878262745019E-15, 0.000000000000000000 ) ) ;
#671 = CARTESIAN_POINT ( 'NONE',  ( 0.000000000000000000, 0.000000000000000000, 2.000000000000000000 ) ) ;
#672 = EDGE_CURVE ( 'NONE', #125, #39, #121, .T. ) ;
#673 = VERTEX_POINT ( 'NONE', #543 ) ;
#674 = CARTESIAN_POINT ( 'NONE',  ( -40.00000000000000000, 20.00000000000000711, 2.000000000000000000 ) ) ;
#675 = CARTESIAN_POINT ( 'NONE',  ( -44.89988864128729773, -22.00000000000000711, 14.48863176810649378 ) ) ;
#676 = EDGE_CURVE ( 'NONE', #583, #655, #113, .T. ) ;
#677 = VERTEX_POINT ( 'NONE', #670 ) ;
#678 = CARTESIAN_POINT ( 'NONE',  ( -100.0000000000000142, 20.00000000000000000, 15.00000000000000000 ) ) ;
#679 = DIRECTION ( 'NONE',  ( 0.000000000000000000, 0.000000000000000000, -1.000000000000000000 ) ) ;
#680 = VECTOR ( 'NONE', #284, 1000.000000000000000 ) ;
#681 = VECTOR ( 'NONE', #300, 1000.000000000000000 ) ;
#682 = ORIENTED_EDGE ( 'NONE', *, *, #133, .F. ) ;
#683 = CARTESIAN_POINT ( 'NONE',  ( -40.00000000000000000, 20.00000000000000711, 14.48863176810649378 ) ) ;
#684 = PLANE ( 'NONE',  #228 ) ;
#685 = VERTEX_POINT ( 'NONE', #607 ) ;
#686 = PERSON_AND_ORGANIZATION_ROLE ( 'creator' ) ;
#687 = EDGE_CURVE ( 'NONE', #698, #39, #283, .T. ) ;
#688 = CARTESIAN_POINT ( 'NONE',  ( -44.89988864128729773, 22.00000000000000711, 14.48863176810649378 ) ) ;
#689 = ORIENTED_EDGE ( 'NONE', *, *, #552, .F. ) ;
#690 = LOCAL_TIME ( 18, 36, 22.00000000000000000, #374 ) ;
#691 = EDGE_CURVE ( 'NONE', #465, #663, #105, .T. ) ;
#692 = EDGE_LOOP ( 'NONE', ( #603, #432 ) ) ;
#693 = CARTESIAN_POINT ( 'NONE',  ( -40.00000000000000000, -20.00000000000000711, 15.00000000000000000 ) ) ;
#694 = AXIS2_PLACEMENT_3D ( 'NONE', #391, #218, #29 ) ;
#695 = AXIS2_PLACEMENT_3D ( 'NONE', #135, #61, #185 ) ;
#696 = CARTESIAN_POINT ( 'NONE',  ( -44.89988864128729773, -22.00000000000000711, 0.000000000000000000 ) ) ;
#697 = APPROVAL_ROLE ( '' ) ;
#698 = VERTEX_POINT ( 'NONE', #353 ) ;
#699 = CARTESIAN_POINT ( 'NONE',  ( 0.000000000000000000, 0.000000000000000000, 15.00000000000000000 ) ) ;
#700 = ORIENTED_EDGE ( 'NONE', *, *, #174, .T. ) ;
#701 = FACE_OUTER_BOUND ( 'NONE', #550, .T. ) ;
#702 = FACE_OUTER_BOUND ( 'NONE', #658, .T. ) ;
#703 = EDGE_CURVE ( 'NONE', #125, #583, #290, .T. ) ;
#704 = ORIENTED_EDGE ( 'NONE', *, *, #748, .T. ) ;
#705 = PERSON_AND_ORGANIZATION ( #575, #653 ) ;
#706 = DIRECTION ( 'NONE',  ( -0.000000000000000000, 0.000000000000000000, 1.000000000000000000 ) ) ;
#707 = AXIS2_PLACEMENT_3D ( 'NONE', #301, #553, #745 ) ;
#708 = EDGE_LOOP ( 'NONE', ( #302, #700, #158, #720, #345, #765 ) ) ;
#709 = FACE_OUTER_BOUND ( 'NONE', #611, .T. ) ;
#710 = ORIENTED_EDGE ( 'NONE', *, *, #676, .F. ) ;
#711 = CARTESIAN_POINT ( 'NONE',  ( 0.000000000000000000, 0.000000000000000000, 14.48863176810649378 ) ) ;
#712 = DIRECTION ( 'NONE',  ( -0.000000000000000000, 0.000000000000000000, 1.000000000000000000 ) ) ;
#713 = ORIENTED_EDGE ( 'NONE', *, *, #748, .F. ) ;
#714 = CARTESIAN_POINT ( 'NONE',  ( 44.99999999999998579, 6.941608922407695583E-15, 0.000000000000000000 ) ) ;
#715 = PRODUCT_RELATED_PRODUCT_CATEGORY ( 'detail', '', ( #388 ) ) ;
#716 = CARTESIAN_POINT ( 'NONE',  ( -100.0000000000000142, -20.00000000000000000, 15.00000000000000000 ) ) ;
#717 = VECTOR ( 'NONE', #636, 1000.000000000000000 ) ;
#718 = APPROVAL_ROLE ( '' ) ;
#719 = CIRCLE ( 'NONE', #142, 1.500000000000000666 ) ;
#720 = ORIENTED_EDGE ( 'NONE', *, *, #189, .F. ) ;
#721 = CARTESIAN_POINT ( 'NONE',  ( -100.0000000000000142, -20.00000000000000000, 15.00000000000000000 ) ) ;
#722 = CARTESIAN_POINT ( 'NONE',  ( -8.099999999999999645, 0.000000000000000000, 0.000000000000000000 ) ) ;
#723 = ADVANCED_FACE ( 'NONE', ( #737 ), #732, .F. ) ;
#724 = EDGE_LOOP ( 'NONE', ( #282, #446, #522, #162 ) ) ;
#725 = DIRECTION ( 'NONE',  ( -0.000000000000000000, -0.000000000000000000, -1.000000000000000000 ) ) ;
#726 = DIRECTION ( 'NONE',  ( -1.156482317317870985E-16, 1.000000000000000000, 0.000000000000000000 ) ) ;
#727 = EDGE_CURVE ( 'NONE', #509, #108, #612, .T. ) ;
#728 = ORIENTED_EDGE ( 'NONE', *, *, #779, .F. ) ;
#729 = DIRECTION ( 'NONE',  ( -0.000000000000000000, -0.000000000000000000, -1.000000000000000000 ) ) ;
#730 = DIRECTION ( 'NONE',  ( -0.000000000000000000, -0.000000000000000000, -1.000000000000000000 ) ) ;
#731 = ORIENTED_EDGE ( 'NONE', *, *, #511, .F. ) ;
#732 = CYLINDRICAL_SURFACE ( 'NONE', #397, 1.500000000000000666 ) ;
#733 = AXIS2_PLACEMENT_3D ( 'NONE', #711, #263, #589 ) ;
#734 = VECTOR ( 'NONE', #8, 1000.000000000000000 ) ;
#735 = FACE_OUTER_BOUND ( 'NONE', #234, .T. ) ;
#736 = ORIENTED_EDGE ( 'NONE', *, *, #273, .F. ) ;
#737 = FACE_OUTER_BOUND ( 'NONE', #536, .T. ) ;
#738 = DIRECTION ( 'NONE',  ( -1.000000000000000000, 0.000000000000000000, 0.000000000000000000 ) ) ;
#739 = ORIENTED_EDGE ( 'NONE', *, *, #483, .T. ) ;
#740 = DIRECTION ( 'NONE',  ( 1.000000000000000000, -1.156482317317870985E-16, 0.000000000000000000 ) ) ;
#741 = DIRECTION ( 'NONE',  ( 1.000000000000000000, 0.000000000000000000, 0.000000000000000000 ) ) ;
#742 = MANIFOLD_SOLID_BREP ( 'Boss-Extrude2', #499 ) ;
#743 = ORIENTED_EDGE ( 'NONE', *, *, #423, .F. ) ;
#744 = CARTESIAN_POINT ( 'NONE',  ( -8.099999999999999645, 0.000000000000000000, 14.48863176810649378 ) ) ;
#745 = DIRECTION ( 'NONE',  ( -1.000000000000000000, 0.000000000000000000, 0.000000000000000000 ) ) ;
#746 = AXIS2_PLACEMENT_3D ( 'NONE', #328, #786, #517 ) ;
#747 = VECTOR ( 'NONE', #116, 1000.000000000000000 ) ;
#748 = EDGE_CURVE ( 'NONE', #53, #484, #181, .T. ) ;
#749 = EDGE_LOOP ( 'NONE', ( #17, #447, #246, #743 ) ) ;
#750 = CARTESIAN_POINT ( 'NONE',  ( 0.000000000000000000, 0.000000000000000000, 0.000000000000000000 ) ) ;
#751 = DIRECTION ( 'NONE',  ( 1.000000000000000000, 0.000000000000000000, 0.000000000000000000 ) ) ;
#752 = EDGE_CURVE ( 'NONE', #776, #45, #50, .T. ) ;
#753 = CARTESIAN_POINT ( 'NONE',  ( -102.0000000000000142, -22.00000000000000000, 0.000000000000000000 ) ) ;
#754 =( NAMED_UNIT ( * ) PLANE_ANGLE_UNIT ( ) SI_UNIT ( $, .RADIAN. ) );
#755 = CARTESIAN_POINT ( 'NONE',  ( -102.0000000000000142, -22.00000000000000000, 15.00000000000000000 ) ) ;
#756 = EDGE_LOOP ( 'NONE', ( #519, #378, #136, #49 ) ) ;
#757 = CC_DESIGN_APPROVAL ( #48, ( #329 ) ) ;
#758 = ORIENTED_EDGE ( 'NONE', *, *, #161, .T. ) ;
#759 = EDGE_CURVE ( 'NONE', #168, #651, #26, .T. ) ;
#760 = CARTESIAN_POINT ( 'NONE',  ( -100.0000000000000142, -22.00000000000000000, 0.000000000000000000 ) ) ;
#761 = AXIS2_PLACEMENT_3D ( 'NONE', #699, #72, #751 ) ;
#762 = LOCAL_TIME ( 18, 36, 22.00000000000000000, #313 ) ;
#763 = CARTESIAN_POINT ( 'NONE',  ( -22.49999999999998224, -38.97114317029974018, 0.000000000000000000 ) ) ;
#764 = APPROVAL_STATUS ( 'not_yet_approved' ) ;
#765 = ORIENTED_EDGE ( 'NONE', *, *, #610, .T. ) ;
#766 = CARTESIAN_POINT ( 'NONE',  ( -100.0000000000000142, 20.00000000000000000, 2.000000000000000000 ) ) ;
#767 = ADVANCED_FACE ( 'NONE', ( #472 ), #297, .T. ) ;
#768 = DIRECTION ( 'NONE',  ( 1.156482317317870985E-16, 1.000000000000000000, -0.000000000000000000 ) ) ;
#769 = CALENDAR_DATE ( 2026, 20, 9 ) ;
#770 = PLANE ( 'NONE',  #64 ) ;
#771 = DIRECTION ( 'NONE',  ( -0.000000000000000000, 0.000000000000000000, 1.000000000000000000 ) ) ;
#772 = CALENDAR_DATE ( 2026, 20, 9 ) ;
#773 = ORIENTED_EDGE ( 'NONE', *, *, #703, .F. ) ;
#774 = FACE_BOUND ( 'NONE', #80, .T. ) ;
#775 = AXIS2_PLACEMENT_3D ( 'NONE', #354, #288, #741 ) ;
#776 = VERTEX_POINT ( 'NONE', #481 ) ;
#777 = DIRECTION ( 'NONE',  ( -0.000000000000000000, -0.000000000000000000, -1.000000000000000000 ) ) ;
#778 = FACE_BOUND ( 'NONE', #451, .T. ) ;
#779 = EDGE_CURVE ( 'NONE', #698, #685, #364, .T. ) ;
#780 = VERTEX_POINT ( 'NONE', #43 ) ;
#781 = CARTESIAN_POINT ( 'NONE',  ( -40.00000000000000000, 20.00000000000000711, 15.00000000000000000 ) ) ;
#782 = DIRECTION ( 'NONE',  ( 0.000000000000000000, 1.000000000000000000, 0.000000000000000000 ) ) ;
#783 = ORIENTED_EDGE ( 'NONE', *, *, #34, .F. ) ;
#784 = DIRECTION ( 'NONE',  ( -0.000000000000000000, -0.000000000000000000, -1.000000000000000000 ) ) ;
#785 = EDGE_CURVE ( 'NONE', #465, #776, #420, .T. ) ;
#786 = DIRECTION ( 'NONE',  ( 1.156482317317870985E-16, 1.000000000000000000, -0.000000000000000000 ) ) ;
#787 = CIRCLE ( 'NONE', #817, 1.700000000000000178 ) ;
#788 = AXIS2_PLACEMENT_3D ( 'NONE', #231, #809, #361 ) ;
#789 = ORIENTED_EDGE ( 'NONE', *, *, #96, .F. ) ;
#790 = DIRECTION ( 'NONE',  ( 1.000000000000000000, 0.000000000000000000, 0.000000000000000000 ) ) ;
#791 = DIRECTION ( 'NONE',  ( 0.000000000000000000, 0.000000000000000000, 1.000000000000000000 ) ) ;
#792 = EDGE_CURVE ( 'NONE', #685, #655, #170, .T. ) ;
#793 = EDGE_LOOP ( 'NONE', ( #588, #436, #710, #773 ) ) ;
#794 = DIRECTION ( 'NONE',  ( -0.000000000000000000, 0.000000000000000000, 1.000000000000000000 ) ) ;
#795 = CARTESIAN_POINT ( 'NONE',  ( -38.00000000000000000, -22.00000000000000711, 15.00000000000000000 ) ) ;
#796 = ORIENTED_EDGE ( 'NONE', *, *, #552, .T. ) ;
#797 = APPLICATION_CONTEXT ( 'configuration controlled 3d designs of mechanical parts and assemblies' ) ;
#798 = CARTESIAN_POINT ( 'NONE',  ( -102.0000000000000142, -20.00000000000000000, 15.00000000000000000 ) ) ;
#799 = DIRECTION ( 'NONE',  ( -0.000000000000000000, -0.000000000000000000, -1.000000000000000000 ) ) ;
#800 = ADVANCED_FACE ( 'NONE', ( #701 ), #251, .F. ) ;
#801 = VECTOR ( 'NONE', #357, 1000.000000000000000 ) ;
#802 = ORIENTED_EDGE ( 'NONE', *, *, #153, .F. ) ;
#803 = DIRECTION ( 'NONE',  ( 1.000000000000000000, 0.000000000000000000, 0.000000000000000000 ) ) ;
#804 = VECTOR ( 'NONE', #656, 1000.000000000000000 ) ;
#805 = VECTOR ( 'NONE', #665, 1000.000000000000000 ) ;
#806 = LINE ( 'NONE', #233, #395 ) ;
#807 = ORIENTED_EDGE ( 'NONE', *, *, #535, .T. ) ;
#808 = EDGE_CURVE ( 'NONE', #168, #780, #16, .T. ) ;
#809 = DIRECTION ( 'NONE',  ( -0.000000000000000000, 0.000000000000000000, 1.000000000000000000 ) ) ;
#810 = CARTESIAN_POINT ( 'NONE',  ( -38.00000000000000000, 0.000000000000000000, 14.48863176810649378 ) ) ;
#811 = ORIENTED_EDGE ( 'NONE', *, *, #647, .F. ) ;
#812 = CARTESIAN_POINT ( 'NONE',  ( 0.000000000000000000, 18.75000000000000000, 14.48863176810649378 ) ) ;
#813 = LINE ( 'NONE', #52, #801 ) ;
#814 = ORIENTED_EDGE ( 'NONE', *, *, #285, .F. ) ;
#815 = MECHANICAL_CONTEXT ( 'NONE', #797, 'mechanical' ) ;
#816 = CARTESIAN_POINT ( 'NONE',  ( -22.50000000000001776, 38.97114317029974728, 0.000000000000000000 ) ) ;
#817 = AXIS2_PLACEMENT_3D ( 'NONE', #396, #95, #531 ) ;
ENDSEC;
END-ISO-10303-21;
