ISO-10303-21;
HEADER;
/* Generated by software containing ST-Developer
 * from STEP Tools, Inc. (www.steptools.com) 
 */

FILE_DESCRIPTION(
/* description */ (''),
/* implementation_level */ '2;1');

FILE_NAME(
/* name */ 'DriverGear_Shooter_Ver3.step',
/* time_stamp */ '2026-09-24T12:01:00+05:30',
/* author */ (''),
/* organization */ (''),
/* preprocessor_version */ 'ST-DEVELOPER v20.2',
/* originating_system */ 'Autodesk Translation Framework v15.15.0.0',
/* authorisation */ '');

FILE_SCHEMA (('AUTOMOTIVE_DESIGN { 1 0 10303 214 3 1 1 }'));
ENDSEC;

DATA;
#10=MECHANICAL_DESIGN_GEOMETRIC_PRESENTATION_REPRESENTATION('',(#13),#809);
#11=SHAPE_REPRESENTATION_RELATIONSHIP('SRR','None',#816,#12);
#12=ADVANCED_BREP_SHAPE_REPRESENTATION('',(#14),#808);
#13=STYLED_ITEM('',(#825),#14);
#14=MANIFOLD_SOLID_BREP('Body1',#461);
#15=FACE_BOUND('',#106,.T.);
#16=FACE_BOUND('',#108,.T.);
#17=CIRCLE('',#477,1.6);
#18=CIRCLE('',#478,1.6);
#19=CIRCLE('',#481,9.37496452069695);
#20=CIRCLE('',#482,9.37496452069695);
#21=CIRCLE('',#485,4.28230684680385);
#22=CIRCLE('',#486,4.28230684680385);
#23=CIRCLE('',#488,12.7500833205838);
#24=CIRCLE('',#489,12.7500833205838);
#25=CIRCLE('',#491,4.28230449847158);
#26=CIRCLE('',#492,4.28230449847158);
#27=CIRCLE('',#495,9.37502644693904);
#28=CIRCLE('',#496,9.37502644693904);
#29=CIRCLE('',#499,4.28230579256162);
#30=CIRCLE('',#500,4.28230579256162);
#31=CIRCLE('',#502,12.7500840536067);
#32=CIRCLE('',#503,12.7500840536067);
#33=CIRCLE('',#505,4.28230489232867);
#34=CIRCLE('',#506,4.28230489232867);
#35=CIRCLE('',#509,9.37502644693904);
#36=CIRCLE('',#510,9.37502644693904);
#37=CIRCLE('',#513,9.37496692794637);
#38=CIRCLE('',#514,9.37496692794637);
#39=CIRCLE('',#517,4.28230532703331);
#40=CIRCLE('',#518,4.28230532703331);
#41=CIRCLE('',#520,12.7500796640144);
#42=CIRCLE('',#521,12.7500796640144);
#43=CIRCLE('',#523,4.28230474728072);
#44=CIRCLE('',#524,4.28230474728072);
#45=CYLINDRICAL_SURFACE('',#476,1.6);
#46=CYLINDRICAL_SURFACE('',#480,9.37496452069695);
#47=CYLINDRICAL_SURFACE('',#484,4.28230684680385);
#48=CYLINDRICAL_SURFACE('',#487,12.7500833205838);
#49=CYLINDRICAL_SURFACE('',#490,4.28230449847158);
#50=CYLINDRICAL_SURFACE('',#494,9.37502644693904);
#51=CYLINDRICAL_SURFACE('',#498,4.28230579256162);
#52=CYLINDRICAL_SURFACE('',#501,12.7500840536067);
#53=CYLINDRICAL_SURFACE('',#504,4.28230489232867);
#54=CYLINDRICAL_SURFACE('',#508,9.37502644693904);
#55=CYLINDRICAL_SURFACE('',#512,9.37496692794637);
#56=CYLINDRICAL_SURFACE('',#516,4.28230532703331);
#57=CYLINDRICAL_SURFACE('',#519,12.7500796640144);
#58=CYLINDRICAL_SURFACE('',#522,4.28230474728072);
#59=FACE_OUTER_BOUND('',#83,.T.);
#60=FACE_OUTER_BOUND('',#84,.T.);
#61=FACE_OUTER_BOUND('',#85,.T.);
#62=FACE_OUTER_BOUND('',#86,.T.);
#63=FACE_OUTER_BOUND('',#87,.T.);
#64=FACE_OUTER_BOUND('',#88,.T.);
#65=FACE_OUTER_BOUND('',#89,.T.);
#66=FACE_OUTER_BOUND('',#90,.T.);
#67=FACE_OUTER_BOUND('',#91,.T.);
#68=FACE_OUTER_BOUND('',#92,.T.);
#69=FACE_OUTER_BOUND('',#93,.T.);
#70=FACE_OUTER_BOUND('',#94,.T.);
#71=FACE_OUTER_BOUND('',#95,.T.);
#72=FACE_OUTER_BOUND('',#96,.T.);
#73=FACE_OUTER_BOUND('',#97,.T.);
#74=FACE_OUTER_BOUND('',#98,.T.);
#75=FACE_OUTER_BOUND('',#99,.T.);
#76=FACE_OUTER_BOUND('',#100,.T.);
#77=FACE_OUTER_BOUND('',#101,.T.);
#78=FACE_OUTER_BOUND('',#102,.T.);
#79=FACE_OUTER_BOUND('',#103,.T.);
#80=FACE_OUTER_BOUND('',#104,.T.);
#81=FACE_OUTER_BOUND('',#105,.T.);
#82=FACE_OUTER_BOUND('',#107,.T.);
#83=EDGE_LOOP('',(#295,#296,#297,#298));
#84=EDGE_LOOP('',(#299,#300,#301,#302));
#85=EDGE_LOOP('',(#303,#304,#305,#306));
#86=EDGE_LOOP('',(#307,#308,#309,#310));
#87=EDGE_LOOP('',(#311,#312,#313,#314));
#88=EDGE_LOOP('',(#315,#316,#317,#318));
#89=EDGE_LOOP('',(#319,#320,#321,#322));
#90=EDGE_LOOP('',(#323,#324,#325,#326));
#91=EDGE_LOOP('',(#327,#328,#329,#330));
#92=EDGE_LOOP('',(#331,#332,#333,#334));
#93=EDGE_LOOP('',(#335,#336,#337,#338));
#94=EDGE_LOOP('',(#339,#340,#341,#342));
#95=EDGE_LOOP('',(#343,#344,#345,#346));
#96=EDGE_LOOP('',(#347,#348,#349,#350));
#97=EDGE_LOOP('',(#351,#352,#353,#354));
#98=EDGE_LOOP('',(#355,#356,#357,#358));
#99=EDGE_LOOP('',(#359,#360,#361,#362));
#100=EDGE_LOOP('',(#363,#364,#365,#366));
#101=EDGE_LOOP('',(#367,#368,#369,#370));
#102=EDGE_LOOP('',(#371,#372,#373,#374));
#103=EDGE_LOOP('',(#375,#376,#377,#378));
#104=EDGE_LOOP('',(#379,#380,#381,#382));
#105=EDGE_LOOP('',(#383,#384,#385,#386,#387,#388,#389,#390,#391,#392,#393,
#394,#395,#396,#397,#398,#399,#400,#401,#402));
#106=EDGE_LOOP('',(#403,#404));
#107=EDGE_LOOP('',(#405,#406,#407,#408,#409,#410,#411,#412,#413,#414,#415,
#416,#417,#418,#419,#420,#421,#422,#423,#424));
#108=EDGE_LOOP('',(#425,#426));
#109=LINE('',#675,#147);
#110=LINE('',#677,#148);
#111=LINE('',#679,#149);
#112=LINE('',#680,#150);
#113=LINE('',#687,#151);
#114=LINE('',#689,#152);
#115=LINE('',#691,#153);
#116=LINE('',#692,#154);
#117=LINE('',#698,#155);
#118=LINE('',#701,#156);
#119=LINE('',#703,#157);
#120=LINE('',#704,#158);
#121=LINE('',#710,#159);
#122=LINE('',#716,#160);
#123=LINE('',#722,#161);
#124=LINE('',#725,#162);
#125=LINE('',#727,#163);
#126=LINE('',#728,#164);
#127=LINE('',#734,#165);
#128=LINE('',#737,#166);
#129=LINE('',#739,#167);
#130=LINE('',#740,#168);
#131=LINE('',#746,#169);
#132=LINE('',#752,#170);
#133=LINE('',#758,#171);
#134=LINE('',#761,#172);
#135=LINE('',#763,#173);
#136=LINE('',#764,#174);
#137=LINE('',#770,#175);
#138=LINE('',#773,#176);
#139=LINE('',#775,#177);
#140=LINE('',#776,#178);
#141=LINE('',#782,#179);
#142=LINE('',#785,#180);
#143=LINE('',#787,#181);
#144=LINE('',#788,#182);
#145=LINE('',#794,#183);
#146=LINE('',#800,#184);
#147=VECTOR('',#531,10.);
#148=VECTOR('',#532,10.);
#149=VECTOR('',#533,10.);
#150=VECTOR('',#534,10.);
#151=VECTOR('',#543,10.);
#152=VECTOR('',#544,10.);
#153=VECTOR('',#545,10.);
#154=VECTOR('',#546,10.);
#155=VECTOR('',#553,10.);
#156=VECTOR('',#556,10.);
#157=VECTOR('',#557,10.);
#158=VECTOR('',#558,10.);
#159=VECTOR('',#565,10.);
#160=VECTOR('',#572,10.);
#161=VECTOR('',#579,10.);
#162=VECTOR('',#582,10.);
#163=VECTOR('',#583,10.);
#164=VECTOR('',#584,10.);
#165=VECTOR('',#591,10.);
#166=VECTOR('',#594,10.);
#167=VECTOR('',#595,10.);
#168=VECTOR('',#596,10.);
#169=VECTOR('',#603,10.);
#170=VECTOR('',#610,10.);
#171=VECTOR('',#617,10.);
#172=VECTOR('',#620,10.);
#173=VECTOR('',#621,10.);
#174=VECTOR('',#622,10.);
#175=VECTOR('',#629,10.);
#176=VECTOR('',#632,10.);
#177=VECTOR('',#633,10.);
#178=VECTOR('',#634,10.);
#179=VECTOR('',#641,10.);
#180=VECTOR('',#644,10.);
#181=VECTOR('',#645,10.);
#182=VECTOR('',#646,10.);
#183=VECTOR('',#653,10.);
#184=VECTOR('',#660,10.);
#185=VERTEX_POINT('',#673);
#186=VERTEX_POINT('',#674);
#187=VERTEX_POINT('',#676);
#188=VERTEX_POINT('',#678);
#189=VERTEX_POINT('',#685);
#190=VERTEX_POINT('',#686);
#191=VERTEX_POINT('',#688);
#192=VERTEX_POINT('',#690);
#193=VERTEX_POINT('',#694);
#194=VERTEX_POINT('',#696);
#195=VERTEX_POINT('',#700);
#196=VERTEX_POINT('',#702);
#197=VERTEX_POINT('',#706);
#198=VERTEX_POINT('',#708);
#199=VERTEX_POINT('',#712);
#200=VERTEX_POINT('',#714);
#201=VERTEX_POINT('',#718);
#202=VERTEX_POINT('',#720);
#203=VERTEX_POINT('',#724);
#204=VERTEX_POINT('',#726);
#205=VERTEX_POINT('',#730);
#206=VERTEX_POINT('',#732);
#207=VERTEX_POINT('',#736);
#208=VERTEX_POINT('',#738);
#209=VERTEX_POINT('',#742);
#210=VERTEX_POINT('',#744);
#211=VERTEX_POINT('',#748);
#212=VERTEX_POINT('',#750);
#213=VERTEX_POINT('',#754);
#214=VERTEX_POINT('',#756);
#215=VERTEX_POINT('',#760);
#216=VERTEX_POINT('',#762);
#217=VERTEX_POINT('',#766);
#218=VERTEX_POINT('',#768);
#219=VERTEX_POINT('',#772);
#220=VERTEX_POINT('',#774);
#221=VERTEX_POINT('',#778);
#222=VERTEX_POINT('',#780);
#223=VERTEX_POINT('',#784);
#224=VERTEX_POINT('',#786);
#225=VERTEX_POINT('',#790);
#226=VERTEX_POINT('',#792);
#227=VERTEX_POINT('',#796);
#228=VERTEX_POINT('',#798);
#229=EDGE_CURVE('',#185,#186,#109,.T.);
#230=EDGE_CURVE('',#185,#187,#110,.T.);
#231=EDGE_CURVE('',#188,#187,#111,.T.);
#232=EDGE_CURVE('',#186,#188,#112,.T.);
#233=EDGE_CURVE('',#186,#185,#17,.T.);
#234=EDGE_CURVE('',#187,#188,#18,.T.);
#235=EDGE_CURVE('',#189,#190,#113,.T.);
#236=EDGE_CURVE('',#190,#191,#114,.T.);
#237=EDGE_CURVE('',#192,#191,#115,.T.);
#238=EDGE_CURVE('',#189,#192,#116,.T.);
#239=EDGE_CURVE('',#193,#189,#19,.T.);
#240=EDGE_CURVE('',#194,#192,#20,.T.);
#241=EDGE_CURVE('',#193,#194,#117,.T.);
#242=EDGE_CURVE('',#195,#193,#118,.T.);
#243=EDGE_CURVE('',#196,#194,#119,.T.);
#244=EDGE_CURVE('',#195,#196,#120,.T.);
#245=EDGE_CURVE('',#197,#195,#21,.T.);
#246=EDGE_CURVE('',#198,#196,#22,.T.);
#247=EDGE_CURVE('',#197,#198,#121,.T.);
#248=EDGE_CURVE('',#199,#197,#23,.T.);
#249=EDGE_CURVE('',#200,#198,#24,.T.);
#250=EDGE_CURVE('',#199,#200,#122,.T.);
#251=EDGE_CURVE('',#201,#199,#25,.T.);
#252=EDGE_CURVE('',#202,#200,#26,.T.);
#253=EDGE_CURVE('',#201,#202,#123,.T.);
#254=EDGE_CURVE('',#203,#201,#124,.T.);
#255=EDGE_CURVE('',#204,#202,#125,.T.);
#256=EDGE_CURVE('',#203,#204,#126,.T.);
#257=EDGE_CURVE('',#205,#203,#27,.T.);
#258=EDGE_CURVE('',#206,#204,#28,.T.);
#259=EDGE_CURVE('',#205,#206,#127,.T.);
#260=EDGE_CURVE('',#207,#205,#128,.T.);
#261=EDGE_CURVE('',#208,#206,#129,.T.);
#262=EDGE_CURVE('',#207,#208,#130,.T.);
#263=EDGE_CURVE('',#209,#207,#29,.T.);
#264=EDGE_CURVE('',#210,#208,#30,.T.);
#265=EDGE_CURVE('',#209,#210,#131,.T.);
#266=EDGE_CURVE('',#211,#209,#31,.T.);
#267=EDGE_CURVE('',#212,#210,#32,.T.);
#268=EDGE_CURVE('',#211,#212,#132,.T.);
#269=EDGE_CURVE('',#213,#211,#33,.T.);
#270=EDGE_CURVE('',#214,#212,#34,.T.);
#271=EDGE_CURVE('',#213,#214,#133,.T.);
#272=EDGE_CURVE('',#215,#213,#134,.T.);
#273=EDGE_CURVE('',#216,#214,#135,.T.);
#274=EDGE_CURVE('',#215,#216,#136,.T.);
#275=EDGE_CURVE('',#217,#215,#35,.T.);
#276=EDGE_CURVE('',#218,#216,#36,.T.);
#277=EDGE_CURVE('',#217,#218,#137,.T.);
#278=EDGE_CURVE('',#219,#217,#138,.T.);
#279=EDGE_CURVE('',#220,#218,#139,.T.);
#280=EDGE_CURVE('',#219,#220,#140,.T.);
#281=EDGE_CURVE('',#221,#219,#37,.T.);
#282=EDGE_CURVE('',#222,#220,#38,.T.);
#283=EDGE_CURVE('',#221,#222,#141,.T.);
#284=EDGE_CURVE('',#223,#221,#142,.T.);
#285=EDGE_CURVE('',#224,#222,#143,.T.);
#286=EDGE_CURVE('',#223,#224,#144,.T.);
#287=EDGE_CURVE('',#225,#223,#39,.T.);
#288=EDGE_CURVE('',#226,#224,#40,.T.);
#289=EDGE_CURVE('',#225,#226,#145,.T.);
#290=EDGE_CURVE('',#227,#225,#41,.T.);
#291=EDGE_CURVE('',#228,#226,#42,.T.);
#292=EDGE_CURVE('',#227,#228,#146,.T.);
#293=EDGE_CURVE('',#190,#227,#43,.T.);
#294=EDGE_CURVE('',#191,#228,#44,.T.);
#295=ORIENTED_EDGE('',*,*,#229,.F.);
#296=ORIENTED_EDGE('',*,*,#230,.T.);
#297=ORIENTED_EDGE('',*,*,#231,.F.);
#298=ORIENTED_EDGE('',*,*,#232,.F.);
#299=ORIENTED_EDGE('',*,*,#233,.F.);
#300=ORIENTED_EDGE('',*,*,#232,.T.);
#301=ORIENTED_EDGE('',*,*,#234,.F.);
#302=ORIENTED_EDGE('',*,*,#230,.F.);
#303=ORIENTED_EDGE('',*,*,#235,.T.);
#304=ORIENTED_EDGE('',*,*,#236,.T.);
#305=ORIENTED_EDGE('',*,*,#237,.F.);
#306=ORIENTED_EDGE('',*,*,#238,.F.);
#307=ORIENTED_EDGE('',*,*,#239,.T.);
#308=ORIENTED_EDGE('',*,*,#238,.T.);
#309=ORIENTED_EDGE('',*,*,#240,.F.);
#310=ORIENTED_EDGE('',*,*,#241,.F.);
#311=ORIENTED_EDGE('',*,*,#242,.T.);
#312=ORIENTED_EDGE('',*,*,#241,.T.);
#313=ORIENTED_EDGE('',*,*,#243,.F.);
#314=ORIENTED_EDGE('',*,*,#244,.F.);
#315=ORIENTED_EDGE('',*,*,#245,.T.);
#316=ORIENTED_EDGE('',*,*,#244,.T.);
#317=ORIENTED_EDGE('',*,*,#246,.F.);
#318=ORIENTED_EDGE('',*,*,#247,.F.);
#319=ORIENTED_EDGE('',*,*,#248,.T.);
#320=ORIENTED_EDGE('',*,*,#247,.T.);
#321=ORIENTED_EDGE('',*,*,#249,.F.);
#322=ORIENTED_EDGE('',*,*,#250,.F.);
#323=ORIENTED_EDGE('',*,*,#251,.T.);
#324=ORIENTED_EDGE('',*,*,#250,.T.);
#325=ORIENTED_EDGE('',*,*,#252,.F.);
#326=ORIENTED_EDGE('',*,*,#253,.F.);
#327=ORIENTED_EDGE('',*,*,#254,.T.);
#328=ORIENTED_EDGE('',*,*,#253,.T.);
#329=ORIENTED_EDGE('',*,*,#255,.F.);
#330=ORIENTED_EDGE('',*,*,#256,.F.);
#331=ORIENTED_EDGE('',*,*,#257,.T.);
#332=ORIENTED_EDGE('',*,*,#256,.T.);
#333=ORIENTED_EDGE('',*,*,#258,.F.);
#334=ORIENTED_EDGE('',*,*,#259,.F.);
#335=ORIENTED_EDGE('',*,*,#260,.T.);
#336=ORIENTED_EDGE('',*,*,#259,.T.);
#337=ORIENTED_EDGE('',*,*,#261,.F.);
#338=ORIENTED_EDGE('',*,*,#262,.F.);
#339=ORIENTED_EDGE('',*,*,#263,.T.);
#340=ORIENTED_EDGE('',*,*,#262,.T.);
#341=ORIENTED_EDGE('',*,*,#264,.F.);
#342=ORIENTED_EDGE('',*,*,#265,.F.);
#343=ORIENTED_EDGE('',*,*,#266,.T.);
#344=ORIENTED_EDGE('',*,*,#265,.T.);
#345=ORIENTED_EDGE('',*,*,#267,.F.);
#346=ORIENTED_EDGE('',*,*,#268,.F.);
#347=ORIENTED_EDGE('',*,*,#269,.T.);
#348=ORIENTED_EDGE('',*,*,#268,.T.);
#349=ORIENTED_EDGE('',*,*,#270,.F.);
#350=ORIENTED_EDGE('',*,*,#271,.F.);
#351=ORIENTED_EDGE('',*,*,#272,.T.);
#352=ORIENTED_EDGE('',*,*,#271,.T.);
#353=ORIENTED_EDGE('',*,*,#273,.F.);
#354=ORIENTED_EDGE('',*,*,#274,.F.);
#355=ORIENTED_EDGE('',*,*,#275,.T.);
#356=ORIENTED_EDGE('',*,*,#274,.T.);
#357=ORIENTED_EDGE('',*,*,#276,.F.);
#358=ORIENTED_EDGE('',*,*,#277,.F.);
#359=ORIENTED_EDGE('',*,*,#278,.T.);
#360=ORIENTED_EDGE('',*,*,#277,.T.);
#361=ORIENTED_EDGE('',*,*,#279,.F.);
#362=ORIENTED_EDGE('',*,*,#280,.F.);
#363=ORIENTED_EDGE('',*,*,#281,.T.);
#364=ORIENTED_EDGE('',*,*,#280,.T.);
#365=ORIENTED_EDGE('',*,*,#282,.F.);
#366=ORIENTED_EDGE('',*,*,#283,.F.);
#367=ORIENTED_EDGE('',*,*,#284,.T.);
#368=ORIENTED_EDGE('',*,*,#283,.T.);
#369=ORIENTED_EDGE('',*,*,#285,.F.);
#370=ORIENTED_EDGE('',*,*,#286,.F.);
#371=ORIENTED_EDGE('',*,*,#287,.T.);
#372=ORIENTED_EDGE('',*,*,#286,.T.);
#373=ORIENTED_EDGE('',*,*,#288,.F.);
#374=ORIENTED_EDGE('',*,*,#289,.F.);
#375=ORIENTED_EDGE('',*,*,#290,.T.);
#376=ORIENTED_EDGE('',*,*,#289,.T.);
#377=ORIENTED_EDGE('',*,*,#291,.F.);
#378=ORIENTED_EDGE('',*,*,#292,.F.);
#379=ORIENTED_EDGE('',*,*,#293,.T.);
#380=ORIENTED_EDGE('',*,*,#292,.T.);
#381=ORIENTED_EDGE('',*,*,#294,.F.);
#382=ORIENTED_EDGE('',*,*,#236,.F.);
#383=ORIENTED_EDGE('',*,*,#294,.T.);
#384=ORIENTED_EDGE('',*,*,#291,.T.);
#385=ORIENTED_EDGE('',*,*,#288,.T.);
#386=ORIENTED_EDGE('',*,*,#285,.T.);
#387=ORIENTED_EDGE('',*,*,#282,.T.);
#388=ORIENTED_EDGE('',*,*,#279,.T.);
#389=ORIENTED_EDGE('',*,*,#276,.T.);
#390=ORIENTED_EDGE('',*,*,#273,.T.);
#391=ORIENTED_EDGE('',*,*,#270,.T.);
#392=ORIENTED_EDGE('',*,*,#267,.T.);
#393=ORIENTED_EDGE('',*,*,#264,.T.);
#394=ORIENTED_EDGE('',*,*,#261,.T.);
#395=ORIENTED_EDGE('',*,*,#258,.T.);
#396=ORIENTED_EDGE('',*,*,#255,.T.);
#397=ORIENTED_EDGE('',*,*,#252,.T.);
#398=ORIENTED_EDGE('',*,*,#249,.T.);
#399=ORIENTED_EDGE('',*,*,#246,.T.);
#400=ORIENTED_EDGE('',*,*,#243,.T.);
#401=ORIENTED_EDGE('',*,*,#240,.T.);
#402=ORIENTED_EDGE('',*,*,#237,.T.);
#403=ORIENTED_EDGE('',*,*,#231,.T.);
#404=ORIENTED_EDGE('',*,*,#234,.T.);
#405=ORIENTED_EDGE('',*,*,#293,.F.);
#406=ORIENTED_EDGE('',*,*,#235,.F.);
#407=ORIENTED_EDGE('',*,*,#239,.F.);
#408=ORIENTED_EDGE('',*,*,#242,.F.);
#409=ORIENTED_EDGE('',*,*,#245,.F.);
#410=ORIENTED_EDGE('',*,*,#248,.F.);
#411=ORIENTED_EDGE('',*,*,#251,.F.);
#412=ORIENTED_EDGE('',*,*,#254,.F.);
#413=ORIENTED_EDGE('',*,*,#257,.F.);
#414=ORIENTED_EDGE('',*,*,#260,.F.);
#415=ORIENTED_EDGE('',*,*,#263,.F.);
#416=ORIENTED_EDGE('',*,*,#266,.F.);
#417=ORIENTED_EDGE('',*,*,#269,.F.);
#418=ORIENTED_EDGE('',*,*,#272,.F.);
#419=ORIENTED_EDGE('',*,*,#275,.F.);
#420=ORIENTED_EDGE('',*,*,#278,.F.);
#421=ORIENTED_EDGE('',*,*,#281,.F.);
#422=ORIENTED_EDGE('',*,*,#284,.F.);
#423=ORIENTED_EDGE('',*,*,#287,.F.);
#424=ORIENTED_EDGE('',*,*,#290,.F.);
#425=ORIENTED_EDGE('',*,*,#229,.T.);
#426=ORIENTED_EDGE('',*,*,#233,.T.);
#427=PLANE('',#475);
#428=PLANE('',#479);
#429=PLANE('',#483);
#430=PLANE('',#493);
#431=PLANE('',#497);
#432=PLANE('',#507);
#433=PLANE('',#511);
#434=PLANE('',#515);
#435=PLANE('',#525);
#436=PLANE('',#526);
#437=ADVANCED_FACE('',(#59),#427,.F.);
#438=ADVANCED_FACE('',(#60),#45,.F.);
#439=ADVANCED_FACE('',(#61),#428,.T.);
#440=ADVANCED_FACE('',(#62),#46,.T.);
#441=ADVANCED_FACE('',(#63),#429,.T.);
#442=ADVANCED_FACE('',(#64),#47,.T.);
#443=ADVANCED_FACE('',(#65),#48,.T.);
#444=ADVANCED_FACE('',(#66),#49,.T.);
#445=ADVANCED_FACE('',(#67),#430,.T.);
#446=ADVANCED_FACE('',(#68),#50,.T.);
#447=ADVANCED_FACE('',(#69),#431,.T.);
#448=ADVANCED_FACE('',(#70),#51,.T.);
#449=ADVANCED_FACE('',(#71),#52,.T.);
#450=ADVANCED_FACE('',(#72),#53,.T.);
#451=ADVANCED_FACE('',(#73),#432,.T.);
#452=ADVANCED_FACE('',(#74),#54,.T.);
#453=ADVANCED_FACE('',(#75),#433,.T.);
#454=ADVANCED_FACE('',(#76),#55,.T.);
#455=ADVANCED_FACE('',(#77),#434,.T.);
#456=ADVANCED_FACE('',(#78),#56,.T.);
#457=ADVANCED_FACE('',(#79),#57,.T.);
#458=ADVANCED_FACE('',(#80),#58,.T.);
#459=ADVANCED_FACE('',(#81,#15),#435,.T.);
#460=ADVANCED_FACE('',(#82,#16),#436,.F.);
#461=CLOSED_SHELL('',(#437,#438,#439,#440,#441,#442,#443,#444,#445,#446,
#447,#448,#449,#450,#451,#452,#453,#454,#455,#456,#457,#458,#459,#460));
#462=DERIVED_UNIT_ELEMENT(#464,1.);
#463=DERIVED_UNIT_ELEMENT(#811,-3.);
#464=(
MASS_UNIT()
NAMED_UNIT(*)
SI_UNIT(.KILO.,.GRAM.)
);
#465=DERIVED_UNIT((#462,#463));
#466=MEASURE_REPRESENTATION_ITEM('density measure',
POSITIVE_RATIO_MEASURE(7850.),#465);
#467=PROPERTY_DEFINITION_REPRESENTATION(#472,#469);
#468=PROPERTY_DEFINITION_REPRESENTATION(#473,#470);
#469=REPRESENTATION('material name',(#471),#808);
#470=REPRESENTATION('density',(#466),#808);
#471=DESCRIPTIVE_REPRESENTATION_ITEM('Steel','Steel');
#472=PROPERTY_DEFINITION('material property','material name',#818);
#473=PROPERTY_DEFINITION('material property','density of part',#818);
#474=AXIS2_PLACEMENT_3D('',#671,#527,#528);
#475=AXIS2_PLACEMENT_3D('',#672,#529,#530);
#476=AXIS2_PLACEMENT_3D('',#681,#535,#536);
#477=AXIS2_PLACEMENT_3D('',#682,#537,#538);
#478=AXIS2_PLACEMENT_3D('',#683,#539,#540);
#479=AXIS2_PLACEMENT_3D('',#684,#541,#542);
#480=AXIS2_PLACEMENT_3D('',#693,#547,#548);
#481=AXIS2_PLACEMENT_3D('',#695,#549,#550);
#482=AXIS2_PLACEMENT_3D('',#697,#551,#552);
#483=AXIS2_PLACEMENT_3D('',#699,#554,#555);
#484=AXIS2_PLACEMENT_3D('',#705,#559,#560);
#485=AXIS2_PLACEMENT_3D('',#707,#561,#562);
#486=AXIS2_PLACEMENT_3D('',#709,#563,#564);
#487=AXIS2_PLACEMENT_3D('',#711,#566,#567);
#488=AXIS2_PLACEMENT_3D('',#713,#568,#569);
#489=AXIS2_PLACEMENT_3D('',#715,#570,#571);
#490=AXIS2_PLACEMENT_3D('',#717,#573,#574);
#491=AXIS2_PLACEMENT_3D('',#719,#575,#576);
#492=AXIS2_PLACEMENT_3D('',#721,#577,#578);
#493=AXIS2_PLACEMENT_3D('',#723,#580,#581);
#494=AXIS2_PLACEMENT_3D('',#729,#585,#586);
#495=AXIS2_PLACEMENT_3D('',#731,#587,#588);
#496=AXIS2_PLACEMENT_3D('',#733,#589,#590);
#497=AXIS2_PLACEMENT_3D('',#735,#592,#593);
#498=AXIS2_PLACEMENT_3D('',#741,#597,#598);
#499=AXIS2_PLACEMENT_3D('',#743,#599,#600);
#500=AXIS2_PLACEMENT_3D('',#745,#601,#602);
#501=AXIS2_PLACEMENT_3D('',#747,#604,#605);
#502=AXIS2_PLACEMENT_3D('',#749,#606,#607);
#503=AXIS2_PLACEMENT_3D('',#751,#608,#609);
#504=AXIS2_PLACEMENT_3D('',#753,#611,#612);
#505=AXIS2_PLACEMENT_3D('',#755,#613,#614);
#506=AXIS2_PLACEMENT_3D('',#757,#615,#616);
#507=AXIS2_PLACEMENT_3D('',#759,#618,#619);
#508=AXIS2_PLACEMENT_3D('',#765,#623,#624);
#509=AXIS2_PLACEMENT_3D('',#767,#625,#626);
#510=AXIS2_PLACEMENT_3D('',#769,#627,#628);
#511=AXIS2_PLACEMENT_3D('',#771,#630,#631);
#512=AXIS2_PLACEMENT_3D('',#777,#635,#636);
#513=AXIS2_PLACEMENT_3D('',#779,#637,#638);
#514=AXIS2_PLACEMENT_3D('',#781,#639,#640);
#515=AXIS2_PLACEMENT_3D('',#783,#642,#643);
#516=AXIS2_PLACEMENT_3D('',#789,#647,#648);
#517=AXIS2_PLACEMENT_3D('',#791,#649,#650);
#518=AXIS2_PLACEMENT_3D('',#793,#651,#652);
#519=AXIS2_PLACEMENT_3D('',#795,#654,#655);
#520=AXIS2_PLACEMENT_3D('',#797,#656,#657);
#521=AXIS2_PLACEMENT_3D('',#799,#658,#659);
#522=AXIS2_PLACEMENT_3D('',#801,#661,#662);
#523=AXIS2_PLACEMENT_3D('',#802,#663,#664);
#524=AXIS2_PLACEMENT_3D('',#803,#665,#666);
#525=AXIS2_PLACEMENT_3D('',#804,#667,#668);
#526=AXIS2_PLACEMENT_3D('',#805,#669,#670);
#527=DIRECTION('axis',(0.,0.,1.));
#528=DIRECTION('refdir',(1.,0.,0.));
#529=DIRECTION('center_axis',(-1.,0.,0.));
#530=DIRECTION('ref_axis',(0.,0.,1.));
#531=DIRECTION('',(0.,0.,1.));
#532=DIRECTION('',(0.,1.,0.));
#533=DIRECTION('',(0.,0.,-1.));
#534=DIRECTION('',(0.,1.,0.));
#535=DIRECTION('center_axis',(0.,1.,0.));
#536=DIRECTION('ref_axis',(1.,0.,1.73472347597681E-16));
#537=DIRECTION('center_axis',(0.,1.,0.));
#538=DIRECTION('ref_axis',(-0.749987083665711,0.,0.661452473224344));
#539=DIRECTION('center_axis',(0.,-1.,0.));
#540=DIRECTION('ref_axis',(-0.749987083665711,0.,0.661452473224344));
#541=DIRECTION('center_axis',(0.9092413500221,0.,0.416269344787708));
#542=DIRECTION('ref_axis',(0.416269344787708,0.,-0.9092413500221));
#543=DIRECTION('',(0.416269344787708,0.,-0.9092413500221));
#544=DIRECTION('',(0.,1.,0.));
#545=DIRECTION('',(0.416269344787708,0.,-0.9092413500221));
#546=DIRECTION('',(0.,1.,0.));
#547=DIRECTION('center_axis',(0.,1.,0.));
#548=DIRECTION('ref_axis',(0.579290974581886,0.,-0.815120829551036));
#549=DIRECTION('center_axis',(0.,1.,0.));
#550=DIRECTION('ref_axis',(0.579290974581886,0.,-0.815120829551036));
#551=DIRECTION('center_axis',(0.,1.,0.));
#552=DIRECTION('ref_axis',(0.579290974581886,0.,-0.815120829551036));
#553=DIRECTION('',(0.,1.,0.));
#554=DIRECTION('center_axis',(-0.815120735897042,0.,-0.579291106362479));
#555=DIRECTION('ref_axis',(-0.579291106362479,0.,0.815120735897042));
#556=DIRECTION('',(-0.579291106362479,0.,0.815120735897042));
#557=DIRECTION('',(-0.579291106362479,0.,0.815120735897042));
#558=DIRECTION('',(0.,1.,0.));
#559=DIRECTION('center_axis',(0.,1.,0.));
#560=DIRECTION('ref_axis',(-0.22052578347705,0.,-0.975381145410261));
#561=DIRECTION('center_axis',(0.,1.,0.));
#562=DIRECTION('ref_axis',(-0.22052578347705,0.,-0.975381145410261));
#563=DIRECTION('center_axis',(0.,1.,0.));
#564=DIRECTION('ref_axis',(-0.22052578347705,0.,-0.975381145410261));
#565=DIRECTION('',(0.,1.,0.));
#566=DIRECTION('center_axis',(0.,1.,0.));
#567=DIRECTION('ref_axis',(0.694126391614591,0.,-0.719853146457045));
#568=DIRECTION('center_axis',(0.,1.,0.));
#569=DIRECTION('ref_axis',(0.694126391614591,0.,-0.719853146457045));
#570=DIRECTION('center_axis',(0.,1.,0.));
#571=DIRECTION('ref_axis',(0.694126391614591,0.,-0.719853146457045));
#572=DIRECTION('',(0.,1.,0.));
#573=DIRECTION('center_axis',(0.,1.,0.));
#574=DIRECTION('ref_axis',(0.778167219229024,0.,0.628057146219488));
#575=DIRECTION('center_axis',(0.,1.,0.));
#576=DIRECTION('ref_axis',(0.778167219229024,0.,0.628057146219488));
#577=DIRECTION('center_axis',(0.,1.,0.));
#578=DIRECTION('ref_axis',(0.778167219229024,0.,0.628057146219488));
#579=DIRECTION('',(0.,1.,0.));
#580=DIRECTION('center_axis',(0.661321206567578,0.,0.750102834112766));
#581=DIRECTION('ref_axis',(0.750102834112766,0.,-0.661321206567578));
#582=DIRECTION('',(0.750102834112766,0.,-0.661321206567578));
#583=DIRECTION('',(0.750102834112766,0.,-0.661321206567578));
#584=DIRECTION('',(0.,1.,0.));
#585=DIRECTION('center_axis',(0.,1.,0.));
#586=DIRECTION('ref_axis',(1.,0.,0.));
#587=DIRECTION('center_axis',(0.,1.,0.));
#588=DIRECTION('ref_axis',(1.,0.,0.));
#589=DIRECTION('center_axis',(0.,1.,0.));
#590=DIRECTION('ref_axis',(1.,0.,0.));
#591=DIRECTION('',(0.,1.,0.));
#592=DIRECTION('center_axis',(-0.509031148768824,0.,-0.860748098797256));
#593=DIRECTION('ref_axis',(-0.860748098797256,0.,0.509031148768824));
#594=DIRECTION('',(-0.860748098797256,0.,0.509031148768824));
#595=DIRECTION('',(-0.860748098797256,0.,0.509031148768824));
#596=DIRECTION('',(0.,1.,0.));
#597=DIRECTION('center_axis',(0.,1.,0.));
#598=DIRECTION('ref_axis',(0.195262816798131,0.,-0.980750953288377));
#599=DIRECTION('center_axis',(0.,1.,0.));
#600=DIRECTION('ref_axis',(0.195262816798131,0.,-0.980750953288377));
#601=DIRECTION('center_axis',(0.,1.,0.));
#602=DIRECTION('ref_axis',(0.195262816798131,0.,-0.980750953288377));
#603=DIRECTION('',(0.,1.,0.));
#604=DIRECTION('center_axis',(0.,1.,0.));
#605=DIRECTION('ref_axis',(0.926906326562084,0.,-0.37529276808804));
#606=DIRECTION('center_axis',(0.,1.,0.));
#607=DIRECTION('ref_axis',(0.926906326562084,0.,-0.37529276808804));
#608=DIRECTION('center_axis',(0.,1.,0.));
#609=DIRECTION('ref_axis',(0.926906326562084,0.,-0.37529276808804));
#610=DIRECTION('',(0.,1.,0.));
#611=DIRECTION('center_axis',(0.,1.,0.));
#612=DIRECTION('ref_axis',(0.45543730869949,0.,0.890267857357866));
#613=DIRECTION('center_axis',(0.,1.,0.));
#614=DIRECTION('ref_axis',(0.45543730869949,0.,0.890267857357866));
#615=DIRECTION('center_axis',(0.,1.,0.));
#616=DIRECTION('ref_axis',(0.45543730869949,0.,0.890267857357866));
#617=DIRECTION('',(0.,1.,0.));
#618=DIRECTION('center_axis',(0.299052412995591,0.,0.954236686719555));
#619=DIRECTION('ref_axis',(0.954236686719555,0.,-0.299052412995591));
#620=DIRECTION('',(0.954236686719555,0.,-0.299052412995591));
#621=DIRECTION('',(0.954236686719555,0.,-0.299052412995591));
#622=DIRECTION('',(0.,1.,0.));
#623=DIRECTION('center_axis',(0.,1.,0.));
#624=DIRECTION('ref_axis',(-0.596216916473137,0.,0.802823385628037));
#625=DIRECTION('center_axis',(0.,1.,0.));
#626=DIRECTION('ref_axis',(1.,0.,0.));
#627=DIRECTION('center_axis',(0.,1.,0.));
#628=DIRECTION('ref_axis',(1.,0.,0.));
#629=DIRECTION('',(0.,1.,0.));
#630=DIRECTION('center_axis',(0.99994529125348,0.,0.0104601386220958));
#631=DIRECTION('ref_axis',(0.0104601386220957,0.,-0.99994529125348));
#632=DIRECTION('',(0.0104601386220957,0.,-0.99994529125348));
#633=DIRECTION('',(0.0104601386220957,0.,-0.99994529125348));
#634=DIRECTION('',(0.,1.,0.));
#635=DIRECTION('center_axis',(0.,1.,0.));
#636=DIRECTION('ref_axis',(0.197669362544106,0.,-0.980268750451327));
#637=DIRECTION('center_axis',(0.,1.,0.));
#638=DIRECTION('ref_axis',(0.197669362544106,0.,-0.980268750451327));
#639=DIRECTION('center_axis',(0.,1.,0.));
#640=DIRECTION('ref_axis',(0.197669362544106,0.,-0.980268750451327));
#641=DIRECTION('',(0.,1.,0.));
#642=DIRECTION('center_axis',(-0.980268709739334,0.,-0.197669564440209));
#643=DIRECTION('ref_axis',(-0.197669564440209,0.,0.980268709739334));
#644=DIRECTION('',(-0.197669564440209,0.,0.980268709739334));
#645=DIRECTION('',(-0.197669564440209,0.,0.980268709739334));
#646=DIRECTION('',(0.,1.,0.));
#647=DIRECTION('center_axis',(0.,1.,0.));
#648=DIRECTION('ref_axis',(-0.598183733480846,0.,-0.80135898385113));
#649=DIRECTION('center_axis',(0.,1.,0.));
#650=DIRECTION('ref_axis',(-0.598183733480846,0.,-0.80135898385113));
#651=DIRECTION('center_axis',(0.,1.,0.));
#652=DIRECTION('ref_axis',(-0.598183733480846,0.,-0.80135898385113));
#653=DIRECTION('',(0.,1.,0.));
#654=DIRECTION('center_axis',(0.,1.,0.));
#655=DIRECTION('ref_axis',(0.341325406871242,0.,-0.939945193415117));
#656=DIRECTION('center_axis',(0.,1.,0.));
#657=DIRECTION('ref_axis',(0.341325406871242,0.,-0.939945193415117));
#658=DIRECTION('center_axis',(0.,1.,0.));
#659=DIRECTION('ref_axis',(0.341325406871242,0.,-0.939945193415117));
#660=DIRECTION('',(0.,1.,0.));
#661=DIRECTION('center_axis',(0.,1.,0.));
#662=DIRECTION('ref_axis',(0.966345017698187,0.,0.257249502953631));
#663=DIRECTION('center_axis',(0.,1.,0.));
#664=DIRECTION('ref_axis',(0.966345017698187,0.,0.257249502953631));
#665=DIRECTION('center_axis',(0.,1.,0.));
#666=DIRECTION('ref_axis',(0.966345017698187,0.,0.257249502953631));
#667=DIRECTION('center_axis',(0.,1.,0.));
#668=DIRECTION('ref_axis',(1.,0.,0.));
#669=DIRECTION('center_axis',(0.,1.,0.));
#670=DIRECTION('ref_axis',(1.,0.,0.));
#671=CARTESIAN_POINT('',(0.,0.,0.));
#672=CARTESIAN_POINT('Origin',(-1.19997933386514,0.,-1.05832395715895));
#673=CARTESIAN_POINT('',(-1.19997933386514,0.,-1.05832395715895));
#674=CARTESIAN_POINT('',(-1.19997933386514,0.,1.05832395715895));
#675=CARTESIAN_POINT('',(-1.19997933386514,0.,-1.24877636684472));
#676=CARTESIAN_POINT('',(-1.19997933386514,4.,-1.05832395715895));
#677=CARTESIAN_POINT('',(-1.19997933386514,0.,-1.05832395715895));
#678=CARTESIAN_POINT('',(-1.19997933386514,4.,1.05832395715895));
#679=CARTESIAN_POINT('',(-1.19997933386514,4.,-1.24877636684472));
#680=CARTESIAN_POINT('',(-1.19997933386514,0.,1.05832395715895));
#681=CARTESIAN_POINT('Origin',(0.,0.,0.));
#682=CARTESIAN_POINT('Origin',(0.,0.,0.));
#683=CARTESIAN_POINT('Origin',(0.,4.,0.));
#684=CARTESIAN_POINT('Origin',(3.90253,0.,-8.524135));
#685=CARTESIAN_POINT('',(3.90253000000001,0.,-8.524135));
#686=CARTESIAN_POINT('',(4.400614,0.,-9.612081));
#687=CARTESIAN_POINT('',(3.90253,0.,-8.524135));
#688=CARTESIAN_POINT('',(4.400614,4.,-9.612081));
#689=CARTESIAN_POINT('',(4.400614,0.,-9.612081));
#690=CARTESIAN_POINT('',(3.90253000000001,4.,-8.524135));
#691=CARTESIAN_POINT('',(3.90253,4.,-8.524135));
#692=CARTESIAN_POINT('',(3.90253000000001,0.,-8.524135));
#693=CARTESIAN_POINT('Origin',(2.06661348622905E-5,0.,-2.91428779786163E-5));
#694=CARTESIAN_POINT('',(5.43085785653055,0.,-7.64176483362598));
#695=CARTESIAN_POINT('Origin',(2.06661348622905E-5,0.,-2.91428779786163E-5));
#696=CARTESIAN_POINT('',(5.43085785653055,4.,-7.64176483362598));
#697=CARTESIAN_POINT('Origin',(2.06661348622905E-5,4.,-2.91428779786163E-5));
#698=CARTESIAN_POINT('',(5.43085785653055,0.,-7.64176483362598));
#699=CARTESIAN_POINT('Origin',(6.123999,0.,-8.617084));
#700=CARTESIAN_POINT('',(6.123999,0.,-8.617084));
#701=CARTESIAN_POINT('',(6.123999,0.,-8.617084));
#702=CARTESIAN_POINT('',(6.123999,4.,-8.617084));
#703=CARTESIAN_POINT('',(6.123999,4.,-8.617084));
#704=CARTESIAN_POINT('',(6.123999,0.,-8.617084));
#705=CARTESIAN_POINT('Origin',(9.14712407248055,0.,-5.58412064276626));
#706=CARTESIAN_POINT('',(8.20276500000002,0.,-9.76100199999999));
#707=CARTESIAN_POINT('Origin',(9.14712407248055,0.,-5.58412064276626));
#708=CARTESIAN_POINT('',(8.20276500000002,4.,-9.76100199999999));
#709=CARTESIAN_POINT('Origin',(9.14712407248055,4.,-5.58412064276626));
#710=CARTESIAN_POINT('',(8.20276500000002,0.,-9.76100199999999));
#711=CARTESIAN_POINT('Origin',(-6.13281022066037E-5,0.,5.65959117249104E-5));
#712=CARTESIAN_POINT('',(8.850108,0.,-9.178131));
#713=CARTESIAN_POINT('Origin',(-6.13281022066037E-5,0.,5.65959117249104E-5));
#714=CARTESIAN_POINT('',(8.850108,4.,-9.178131));
#715=CARTESIAN_POINT('Origin',(-6.13281022066037E-5,4.,5.65959117249104E-5));
#716=CARTESIAN_POINT('',(8.850108,0.,-9.178131));
#717=CARTESIAN_POINT('Origin',(4.59739801653243,0.,-9.68071394255294));
#718=CARTESIAN_POINT('',(7.929747,0.,-6.991182));
#719=CARTESIAN_POINT('Origin',(4.59739801653243,0.,-9.68071394255294));
#720=CARTESIAN_POINT('',(7.929747,4.,-6.991182));
#721=CARTESIAN_POINT('Origin',(4.59739801653243,4.,-9.68071394255294));
#722=CARTESIAN_POINT('',(7.929747,0.,-6.991182));
#723=CARTESIAN_POINT('Origin',(7.032217,0.,-6.199883));
#724=CARTESIAN_POINT('',(7.03221952764534,0.,-6.19988522847506));
#725=CARTESIAN_POINT('',(7.032217,0.,-6.199883));
#726=CARTESIAN_POINT('',(7.03221952764534,4.,-6.19988522847506));
#727=CARTESIAN_POINT('',(7.032217,4.,-6.199883));
#728=CARTESIAN_POINT('',(7.03221952764534,0.,-6.19988522847506));
#729=CARTESIAN_POINT('Origin',(-3.07547708877642E-5,0.,0.));
#730=CARTESIAN_POINT('',(8.069514,0.,-4.772166));
#731=CARTESIAN_POINT('Origin',(-3.07547708877642E-5,0.,0.));
#732=CARTESIAN_POINT('',(8.069514,4.,-4.772166));
#733=CARTESIAN_POINT('Origin',(-3.07547708877642E-5,4.,0.));
#734=CARTESIAN_POINT('',(8.069514,0.,-4.772166));
#735=CARTESIAN_POINT('Origin',(9.099435,0.,-5.381243));
#736=CARTESIAN_POINT('',(9.099435,0.,-5.381243));
#737=CARTESIAN_POINT('',(9.099435,0.,-5.381243));
#738=CARTESIAN_POINT('',(9.099435,4.,-5.381243));
#739=CARTESIAN_POINT('',(9.099435,4.,-5.381243));
#740=CARTESIAN_POINT('',(9.099435,0.,-5.381243));
#741=CARTESIAN_POINT('Origin',(10.6275799085535,0.,-1.38087851167285));
#742=CARTESIAN_POINT('',(11.463755,0.,-5.580754));
#743=CARTESIAN_POINT('Origin',(10.6275799085535,0.,-1.38087851167285));
#744=CARTESIAN_POINT('',(11.463755,4.,-5.580754));
#745=CARTESIAN_POINT('Origin',(10.6275799085535,4.,-1.38087851167285));
#746=CARTESIAN_POINT('',(11.463755,0.,-5.580754));
#747=CARTESIAN_POINT('Origin',(-7.55734863533419E-5,0.,3.73378332263474E-5));
#748=CARTESIAN_POINT('',(11.818058,0.,-4.784977));
#749=CARTESIAN_POINT('Origin',(-7.55734863533419E-5,0.,3.73378332263474E-5));
#750=CARTESIAN_POINT('',(11.818058,4.,-4.784977));
#751=CARTESIAN_POINT('Origin',(-7.55734863533419E-5,4.,3.73378332263474E-5));
#752=CARTESIAN_POINT('',(11.818058,0.,-4.784977));
#753=CARTESIAN_POINT('Origin',(8.13743258480717,0.,-6.97384240104655));
#754=CARTESIAN_POINT('',(10.087754,0.,-3.161444));
#755=CARTESIAN_POINT('Origin',(8.13743258480717,0.,-6.97384240104655));
#756=CARTESIAN_POINT('',(10.087754,4.,-3.161444));
#757=CARTESIAN_POINT('Origin',(8.13743258480717,4.,-6.97384240104655));
#758=CARTESIAN_POINT('',(10.087754,0.,-3.161444));
#759=CARTESIAN_POINT('Origin',(8.945969,0.,-2.803615));
#760=CARTESIAN_POINT('',(8.94596656735017,0.,-2.80361423762422));
#761=CARTESIAN_POINT('',(8.945969,0.,-2.803615));
#762=CARTESIAN_POINT('',(8.94596656735017,4.,-2.80361423762422));
#763=CARTESIAN_POINT('',(8.945969,4.,-2.803615));
#764=CARTESIAN_POINT('',(8.94596656735017,0.,-2.80361423762422));
#765=CARTESIAN_POINT('Origin',(-3.07547708877642E-5,0.,0.));
#766=CARTESIAN_POINT('',(0.0980602747924527,0.,-9.37451326900365));
#767=CARTESIAN_POINT('Origin',(-3.07547708877642E-5,0.,0.));
#768=CARTESIAN_POINT('',(0.0980602747924525,4.,-9.37451326900365));
#769=CARTESIAN_POINT('Origin',(-3.07547708877642E-5,4.,0.));
#770=CARTESIAN_POINT('',(0.0980602747924527,0.,-9.37451326900365));
#771=CARTESIAN_POINT('Origin',(0.0980600000000001,0.,-9.374487));
#772=CARTESIAN_POINT('',(0.0980600000000001,0.,-9.374487));
#773=CARTESIAN_POINT('',(0.0980600000000001,0.,-9.374487));
#774=CARTESIAN_POINT('',(0.0980599999999998,4.,-9.374487));
#775=CARTESIAN_POINT('',(0.0980600000000001,4.,-9.374487));
#776=CARTESIAN_POINT('',(0.0980600000000001,0.,-9.374487));
#777=CARTESIAN_POINT('Origin',(4.26348076558447E-6,0.,-3.28840194896429E-5));
#778=CARTESIAN_POINT('',(1.853148,0.,-9.19002));
#779=CARTESIAN_POINT('Origin',(4.26348076558447E-6,0.,-3.28840194896429E-5));
#780=CARTESIAN_POINT('',(1.853148,4.,-9.19002));
#781=CARTESIAN_POINT('Origin',(4.26348076558447E-6,4.,-3.28840194896429E-5));
#782=CARTESIAN_POINT('',(1.853148,0.,-9.19002));
#783=CARTESIAN_POINT('Origin',(2.089668,0.,-10.362953));
#784=CARTESIAN_POINT('',(2.089668,0.,-10.362953));
#785=CARTESIAN_POINT('',(2.089668,0.,-10.362953));
#786=CARTESIAN_POINT('',(2.089668,4.,-10.362953));
#787=CARTESIAN_POINT('',(2.089668,4.,-10.362953));
#788=CARTESIAN_POINT('',(2.089668,0.,-10.362953));
#789=CARTESIAN_POINT('Origin',(6.0850463884297,0.,-8.82182015458831));
#790=CARTESIAN_POINT('',(3.523441,0.,-12.253484));
#791=CARTESIAN_POINT('Origin',(6.0850463884297,0.,-8.82182015458831));
#792=CARTESIAN_POINT('',(3.523441,4.,-12.253484));
#793=CARTESIAN_POINT('Origin',(6.0850463884297,4.,-8.82182015458831));
#794=CARTESIAN_POINT('',(3.523441,0.,-12.253484));
#795=CARTESIAN_POINT('Origin',(-3.31289604715845E-5,0.,7.30958502059842E-5));
#796=CARTESIAN_POINT('',(4.351893,0.,-11.984303));
#797=CARTESIAN_POINT('Origin',(-3.31289604715845E-5,0.,7.30958502059842E-5));
#798=CARTESIAN_POINT('',(4.351893,4.,-11.984303));
#799=CARTESIAN_POINT('Origin',(-3.31289604715845E-5,4.,7.30958502059842E-5));
#800=CARTESIAN_POINT('',(4.351893,0.,-11.984303));
#801=CARTESIAN_POINT('Origin',(0.262430143199982,0.,-10.7137017677339));
#802=CARTESIAN_POINT('Origin',(0.262430143199982,0.,-10.7137017677339));
#803=CARTESIAN_POINT('Origin',(0.262430143199982,4.,-10.7137017677339));
#804=CARTESIAN_POINT('Origin',(-3.07547708877642E-5,4.,-1.43922877653048));
#805=CARTESIAN_POINT('Origin',(-3.07547708877642E-5,0.,-1.43922877653048));
#806=UNCERTAINTY_MEASURE_WITH_UNIT(LENGTH_MEASURE(0.01),#810,
'DISTANCE_ACCURACY_VALUE',
'Maximum model space distance between geometric entities at asserted c
onnectivities');
#807=UNCERTAINTY_MEASURE_WITH_UNIT(LENGTH_MEASURE(0.01),#810,
'DISTANCE_ACCURACY_VALUE',
'Maximum model space distance between geometric entities at asserted c
onnectivities');
#808=(
GEOMETRIC_REPRESENTATION_CONTEXT(3)
GLOBAL_UNCERTAINTY_ASSIGNED_CONTEXT((#806))
GLOBAL_UNIT_ASSIGNED_CONTEXT((#810,#812,#813))
REPRESENTATION_CONTEXT('','3D')
);
#809=(
GEOMETRIC_REPRESENTATION_CONTEXT(3)
GLOBAL_UNCERTAINTY_ASSIGNED_CONTEXT((#807))
GLOBAL_UNIT_ASSIGNED_CONTEXT((#810,#812,#813))
REPRESENTATION_CONTEXT('','3D')
);
#810=(
LENGTH_UNIT()
NAMED_UNIT(*)
SI_UNIT(.MILLI.,.METRE.)
);
#811=(
LENGTH_UNIT()
NAMED_UNIT(*)
SI_UNIT($,.METRE.)
);
#812=(
NAMED_UNIT(*)
PLANE_ANGLE_UNIT()
SI_UNIT($,.RADIAN.)
);
#813=(
NAMED_UNIT(*)
SI_UNIT($,.STERADIAN.)
SOLID_ANGLE_UNIT()
);
#814=SHAPE_DEFINITION_REPRESENTATION(#815,#816);
#815=PRODUCT_DEFINITION_SHAPE('',$,#818);
#816=SHAPE_REPRESENTATION('',(#474),#808);
#817=PRODUCT_DEFINITION_CONTEXT('part definition',#822,'design');
#818=PRODUCT_DEFINITION('2026-09-23-20-05-19-776',
'DriverGear_Shooter_Ver2',#819,#817);
#819=PRODUCT_DEFINITION_FORMATION('',$,#824);
#820=PRODUCT_RELATED_PRODUCT_CATEGORY('DriverGear_Shooter_Ver2',
'DriverGear_Shooter_Ver2',(#824));
#821=APPLICATION_PROTOCOL_DEFINITION('international standard',
'automotive_design',2009,#822);
#822=APPLICATION_CONTEXT(
'Core Data for Automotive Mechanical Design Process');
#823=PRODUCT_CONTEXT('part definition',#822,'mechanical');
#824=PRODUCT('2026-09-23-20-05-19-776','DriverGear_Shooter_Ver2',$,(#823));
#825=PRESENTATION_STYLE_ASSIGNMENT((#826));
#826=SURFACE_STYLE_USAGE(.BOTH.,#827);
#827=SURFACE_SIDE_STYLE('',(#828));
#828=SURFACE_STYLE_FILL_AREA(#829);
#829=FILL_AREA_STYLE('Steel - Satin',(#830));
#830=FILL_AREA_STYLE_COLOUR('Steel - Satin',#831);
#831=COLOUR_RGB('Steel - Satin',0.627450980392157,0.627450980392157,0.627450980392157);
ENDSEC;
END-ISO-10303-21;
