ISO-10303-21;
HEADER;
/* Generated by software containing ST-Developer
 * from STEP Tools, Inc. (www.steptools.com) 
 */

FILE_DESCRIPTION(
/* description */ (''),
/* implementation_level */ '2;1');

FILE_NAME(
/* name */ 'Driver Gear Shooter.step',
/* time_stamp */ '2026-09-20T18:16:50+05:30',
/* author */ (''),
/* organization */ (''),
/* preprocessor_version */ 'ST-DEVELOPER v20.2',
/* originating_system */ 'Autodesk Translation Framework v15.15.0.0',
/* authorisation */ '');

FILE_SCHEMA (('AUTOMOTIVE_DESIGN { 1 0 10303 214 3 1 1 }'));
ENDSEC;

DATA;
#10=MECHANICAL_DESIGN_GEOMETRIC_PRESENTATION_REPRESENTATION('',(#15,#16,
#17,#18,#19),#1295);
#11=SHAPE_REPRESENTATION_RELATIONSHIP('SRR','None',#1302,#12);
#12=ADVANCED_BREP_SHAPE_REPRESENTATION('',(#20,#21,#22,#23,#24),#1294);
#13=FACE_BOUND('',#157,.T.);
#14=FACE_BOUND('',#159,.T.);
#15=STYLED_ITEM('',(#1311),#20);
#16=STYLED_ITEM('',(#1311),#21);
#17=STYLED_ITEM('',(#1311),#22);
#18=STYLED_ITEM('',(#1311),#23);
#19=STYLED_ITEM('',(#1311),#24);
#20=MANIFOLD_SOLID_BREP('Body1',#733);
#21=MANIFOLD_SOLID_BREP('Body2',#734);
#22=MANIFOLD_SOLID_BREP('Body3',#735);
#23=MANIFOLD_SOLID_BREP('Body4',#736);
#24=MANIFOLD_SOLID_BREP('Body5',#737);
#25=CIRCLE('',#753,4.28230650470443);
#26=CIRCLE('',#754,4.28230650470443);
#27=CIRCLE('',#756,12.7502716941407);
#28=CIRCLE('',#757,12.7502716941407);
#29=CIRCLE('',#759,4.2823062003917);
#30=CIRCLE('',#760,4.2823062003917);
#31=CIRCLE('',#763,9.3749719486515);
#32=CIRCLE('',#764,9.3749719486515);
#33=CIRCLE('',#768,1.7);
#34=CIRCLE('',#769,1.7);
#35=CIRCLE('',#772,4.28230594869563);
#36=CIRCLE('',#773,4.28230594869563);
#37=CIRCLE('',#775,12.7502653535312);
#38=CIRCLE('',#776,12.7502653535312);
#39=CIRCLE('',#778,4.28230470467111);
#40=CIRCLE('',#779,4.28230470467111);
#41=CIRCLE('',#782,9.375);
#42=CIRCLE('',#783,9.375);
#43=CIRCLE('',#785,9.3749719486515);
#44=CIRCLE('',#786,9.3749719486515);
#45=CIRCLE('',#789,9.375);
#46=CIRCLE('',#790,9.375);
#47=CIRCLE('',#795,4.28230527360654);
#48=CIRCLE('',#796,4.28230527360654);
#49=CIRCLE('',#798,12.7502768159568);
#50=CIRCLE('',#799,12.7502768159568);
#51=CIRCLE('',#801,4.28230778454695);
#52=CIRCLE('',#802,4.28230778454695);
#53=CIRCLE('',#805,9.3749719486515);
#54=CIRCLE('',#806,9.3749719486515);
#55=CIRCLE('',#811,4.28230567561656);
#56=CIRCLE('',#812,4.28230567561656);
#57=CIRCLE('',#814,12.7502821415143);
#58=CIRCLE('',#815,12.7502821415143);
#59=CIRCLE('',#817,4.28230514599911);
#60=CIRCLE('',#818,4.28230514599911);
#61=CIRCLE('',#821,9.3749719486515);
#62=CIRCLE('',#822,9.3749719486515);
#63=CIRCLE('',#827,9.3749719486515);
#64=CIRCLE('',#828,9.3749719486515);
#65=CIRCLE('',#831,4.28230570203349);
#66=CIRCLE('',#832,4.28230570203349);
#67=CIRCLE('',#834,12.750258786644);
#68=CIRCLE('',#835,12.750258786644);
#69=CIRCLE('',#837,4.2823057020335);
#70=CIRCLE('',#838,4.2823057020335);
#71=CYLINDRICAL_SURFACE('',#752,4.28230650470443);
#72=CYLINDRICAL_SURFACE('',#755,12.7502716941407);
#73=CYLINDRICAL_SURFACE('',#758,4.2823062003917);
#74=CYLINDRICAL_SURFACE('',#762,9.3749719486515);
#75=CYLINDRICAL_SURFACE('',#767,1.7);
#76=CYLINDRICAL_SURFACE('',#771,4.28230594869563);
#77=CYLINDRICAL_SURFACE('',#774,12.7502653535312);
#78=CYLINDRICAL_SURFACE('',#777,4.28230470467111);
#79=CYLINDRICAL_SURFACE('',#781,9.375);
#80=CYLINDRICAL_SURFACE('',#784,9.3749719486515);
#81=CYLINDRICAL_SURFACE('',#788,9.375);
#82=CYLINDRICAL_SURFACE('',#794,4.28230527360654);
#83=CYLINDRICAL_SURFACE('',#797,12.7502768159568);
#84=CYLINDRICAL_SURFACE('',#800,4.28230778454695);
#85=CYLINDRICAL_SURFACE('',#804,9.3749719486515);
#86=CYLINDRICAL_SURFACE('',#810,4.28230567561656);
#87=CYLINDRICAL_SURFACE('',#813,12.7502821415143);
#88=CYLINDRICAL_SURFACE('',#816,4.28230514599911);
#89=CYLINDRICAL_SURFACE('',#820,9.3749719486515);
#90=CYLINDRICAL_SURFACE('',#826,9.3749719486515);
#91=CYLINDRICAL_SURFACE('',#830,4.28230570203349);
#92=CYLINDRICAL_SURFACE('',#833,12.750258786644);
#93=CYLINDRICAL_SURFACE('',#836,4.2823057020335);
#94=FACE_OUTER_BOUND('',#138,.T.);
#95=FACE_OUTER_BOUND('',#139,.T.);
#96=FACE_OUTER_BOUND('',#140,.T.);
#97=FACE_OUTER_BOUND('',#141,.T.);
#98=FACE_OUTER_BOUND('',#142,.T.);
#99=FACE_OUTER_BOUND('',#143,.T.);
#100=FACE_OUTER_BOUND('',#144,.T.);
#101=FACE_OUTER_BOUND('',#145,.T.);
#102=FACE_OUTER_BOUND('',#146,.T.);
#103=FACE_OUTER_BOUND('',#147,.T.);
#104=FACE_OUTER_BOUND('',#148,.T.);
#105=FACE_OUTER_BOUND('',#149,.T.);
#106=FACE_OUTER_BOUND('',#150,.T.);
#107=FACE_OUTER_BOUND('',#151,.T.);
#108=FACE_OUTER_BOUND('',#152,.T.);
#109=FACE_OUTER_BOUND('',#153,.T.);
#110=FACE_OUTER_BOUND('',#154,.T.);
#111=FACE_OUTER_BOUND('',#155,.T.);
#112=FACE_OUTER_BOUND('',#156,.T.);
#113=FACE_OUTER_BOUND('',#158,.T.);
#114=FACE_OUTER_BOUND('',#160,.T.);
#115=FACE_OUTER_BOUND('',#161,.T.);
#116=FACE_OUTER_BOUND('',#162,.T.);
#117=FACE_OUTER_BOUND('',#163,.T.);
#118=FACE_OUTER_BOUND('',#164,.T.);
#119=FACE_OUTER_BOUND('',#165,.T.);
#120=FACE_OUTER_BOUND('',#166,.T.);
#121=FACE_OUTER_BOUND('',#167,.T.);
#122=FACE_OUTER_BOUND('',#168,.T.);
#123=FACE_OUTER_BOUND('',#169,.T.);
#124=FACE_OUTER_BOUND('',#170,.T.);
#125=FACE_OUTER_BOUND('',#171,.T.);
#126=FACE_OUTER_BOUND('',#172,.T.);
#127=FACE_OUTER_BOUND('',#173,.T.);
#128=FACE_OUTER_BOUND('',#174,.T.);
#129=FACE_OUTER_BOUND('',#175,.T.);
#130=FACE_OUTER_BOUND('',#176,.T.);
#131=FACE_OUTER_BOUND('',#177,.T.);
#132=FACE_OUTER_BOUND('',#178,.T.);
#133=FACE_OUTER_BOUND('',#179,.T.);
#134=FACE_OUTER_BOUND('',#180,.T.);
#135=FACE_OUTER_BOUND('',#181,.T.);
#136=FACE_OUTER_BOUND('',#182,.T.);
#137=FACE_OUTER_BOUND('',#183,.T.);
#138=EDGE_LOOP('',(#464,#465,#466,#467));
#139=EDGE_LOOP('',(#468,#469,#470,#471));
#140=EDGE_LOOP('',(#472,#473,#474,#475));
#141=EDGE_LOOP('',(#476,#477,#478,#479));
#142=EDGE_LOOP('',(#480,#481,#482,#483));
#143=EDGE_LOOP('',(#484,#485,#486,#487));
#144=EDGE_LOOP('',(#488,#489,#490,#491,#492,#493));
#145=EDGE_LOOP('',(#494,#495,#496,#497,#498,#499));
#146=EDGE_LOOP('',(#500,#501,#502,#503));
#147=EDGE_LOOP('',(#504,#505,#506,#507));
#148=EDGE_LOOP('',(#508,#509,#510,#511));
#149=EDGE_LOOP('',(#512,#513,#514,#515));
#150=EDGE_LOOP('',(#516,#517,#518,#519));
#151=EDGE_LOOP('',(#520,#521,#522,#523));
#152=EDGE_LOOP('',(#524,#525,#526,#527));
#153=EDGE_LOOP('',(#528,#529,#530,#531));
#154=EDGE_LOOP('',(#532,#533,#534,#535));
#155=EDGE_LOOP('',(#536,#537,#538,#539));
#156=EDGE_LOOP('',(#540,#541,#542,#543,#544,#545,#546,#547,#548));
#157=EDGE_LOOP('',(#549));
#158=EDGE_LOOP('',(#550,#551,#552,#553,#554,#555,#556,#557,#558));
#159=EDGE_LOOP('',(#559));
#160=EDGE_LOOP('',(#560,#561,#562,#563));
#161=EDGE_LOOP('',(#564,#565,#566,#567));
#162=EDGE_LOOP('',(#568,#569,#570,#571));
#163=EDGE_LOOP('',(#572,#573,#574,#575));
#164=EDGE_LOOP('',(#576,#577,#578,#579));
#165=EDGE_LOOP('',(#580,#581,#582,#583));
#166=EDGE_LOOP('',(#584,#585,#586,#587,#588,#589));
#167=EDGE_LOOP('',(#590,#591,#592,#593,#594,#595));
#168=EDGE_LOOP('',(#596,#597,#598,#599));
#169=EDGE_LOOP('',(#600,#601,#602,#603));
#170=EDGE_LOOP('',(#604,#605,#606,#607));
#171=EDGE_LOOP('',(#608,#609,#610,#611));
#172=EDGE_LOOP('',(#612,#613,#614,#615));
#173=EDGE_LOOP('',(#616,#617,#618,#619));
#174=EDGE_LOOP('',(#620,#621,#622,#623,#624,#625));
#175=EDGE_LOOP('',(#626,#627,#628,#629,#630,#631));
#176=EDGE_LOOP('',(#632,#633,#634,#635));
#177=EDGE_LOOP('',(#636,#637,#638,#639));
#178=EDGE_LOOP('',(#640,#641,#642,#643));
#179=EDGE_LOOP('',(#644,#645,#646,#647));
#180=EDGE_LOOP('',(#648,#649,#650,#651));
#181=EDGE_LOOP('',(#652,#653,#654,#655));
#182=EDGE_LOOP('',(#656,#657,#658,#659,#660,#661));
#183=EDGE_LOOP('',(#662,#663,#664,#665,#666,#667));
#184=LINE('',#1083,#240);
#185=LINE('',#1085,#241);
#186=LINE('',#1087,#242);
#187=LINE('',#1088,#243);
#188=LINE('',#1094,#244);
#189=LINE('',#1100,#245);
#190=LINE('',#1106,#246);
#191=LINE('',#1109,#247);
#192=LINE('',#1111,#248);
#193=LINE('',#1112,#249);
#194=LINE('',#1122,#250);
#195=LINE('',#1127,#251);
#196=LINE('',#1129,#252);
#197=LINE('',#1131,#253);
#198=LINE('',#1132,#254);
#199=LINE('',#1138,#255);
#200=LINE('',#1144,#256);
#201=LINE('',#1150,#257);
#202=LINE('',#1153,#258);
#203=LINE('',#1155,#259);
#204=LINE('',#1156,#260);
#205=LINE('',#1162,#261);
#206=LINE('',#1168,#262);
#207=LINE('',#1170,#263);
#208=LINE('',#1171,#264);
#209=LINE('',#1172,#265);
#210=LINE('',#1181,#266);
#211=LINE('',#1183,#267);
#212=LINE('',#1185,#268);
#213=LINE('',#1186,#269);
#214=LINE('',#1192,#270);
#215=LINE('',#1198,#271);
#216=LINE('',#1204,#272);
#217=LINE('',#1207,#273);
#218=LINE('',#1209,#274);
#219=LINE('',#1210,#275);
#220=LINE('',#1219,#276);
#221=LINE('',#1221,#277);
#222=LINE('',#1223,#278);
#223=LINE('',#1224,#279);
#224=LINE('',#1230,#280);
#225=LINE('',#1236,#281);
#226=LINE('',#1242,#282);
#227=LINE('',#1245,#283);
#228=LINE('',#1247,#284);
#229=LINE('',#1248,#285);
#230=LINE('',#1257,#286);
#231=LINE('',#1259,#287);
#232=LINE('',#1261,#288);
#233=LINE('',#1262,#289);
#234=LINE('',#1268,#290);
#235=LINE('',#1271,#291);
#236=LINE('',#1273,#292);
#237=LINE('',#1274,#293);
#238=LINE('',#1280,#294);
#239=LINE('',#1286,#295);
#240=VECTOR('',#845,10.);
#241=VECTOR('',#846,10.);
#242=VECTOR('',#847,10.);
#243=VECTOR('',#848,10.);
#244=VECTOR('',#855,10.);
#245=VECTOR('',#862,10.);
#246=VECTOR('',#869,10.);
#247=VECTOR('',#872,10.);
#248=VECTOR('',#873,10.);
#249=VECTOR('',#874,10.);
#250=VECTOR('',#889,1.7);
#251=VECTOR('',#894,10.);
#252=VECTOR('',#895,10.);
#253=VECTOR('',#896,10.);
#254=VECTOR('',#897,10.);
#255=VECTOR('',#904,10.);
#256=VECTOR('',#911,10.);
#257=VECTOR('',#918,10.);
#258=VECTOR('',#921,10.);
#259=VECTOR('',#922,10.);
#260=VECTOR('',#923,10.);
#261=VECTOR('',#930,10.);
#262=VECTOR('',#937,10.);
#263=VECTOR('',#940,10.);
#264=VECTOR('',#941,10.);
#265=VECTOR('',#942,10.);
#266=VECTOR('',#955,10.);
#267=VECTOR('',#956,10.);
#268=VECTOR('',#957,10.);
#269=VECTOR('',#958,10.);
#270=VECTOR('',#965,10.);
#271=VECTOR('',#972,10.);
#272=VECTOR('',#979,10.);
#273=VECTOR('',#982,10.);
#274=VECTOR('',#983,10.);
#275=VECTOR('',#984,10.);
#276=VECTOR('',#997,10.);
#277=VECTOR('',#998,10.);
#278=VECTOR('',#999,10.);
#279=VECTOR('',#1000,10.);
#280=VECTOR('',#1007,10.);
#281=VECTOR('',#1014,10.);
#282=VECTOR('',#1021,10.);
#283=VECTOR('',#1024,10.);
#284=VECTOR('',#1025,10.);
#285=VECTOR('',#1026,10.);
#286=VECTOR('',#1039,10.);
#287=VECTOR('',#1040,10.);
#288=VECTOR('',#1041,10.);
#289=VECTOR('',#1042,10.);
#290=VECTOR('',#1049,10.);
#291=VECTOR('',#1052,10.);
#292=VECTOR('',#1053,10.);
#293=VECTOR('',#1054,10.);
#294=VECTOR('',#1061,10.);
#295=VECTOR('',#1068,10.);
#296=VERTEX_POINT('',#1081);
#297=VERTEX_POINT('',#1082);
#298=VERTEX_POINT('',#1084);
#299=VERTEX_POINT('',#1086);
#300=VERTEX_POINT('',#1090);
#301=VERTEX_POINT('',#1092);
#302=VERTEX_POINT('',#1096);
#303=VERTEX_POINT('',#1098);
#304=VERTEX_POINT('',#1102);
#305=VERTEX_POINT('',#1104);
#306=VERTEX_POINT('',#1108);
#307=VERTEX_POINT('',#1110);
#308=VERTEX_POINT('',#1119);
#309=VERTEX_POINT('',#1121);
#310=VERTEX_POINT('',#1125);
#311=VERTEX_POINT('',#1126);
#312=VERTEX_POINT('',#1128);
#313=VERTEX_POINT('',#1130);
#314=VERTEX_POINT('',#1134);
#315=VERTEX_POINT('',#1136);
#316=VERTEX_POINT('',#1140);
#317=VERTEX_POINT('',#1142);
#318=VERTEX_POINT('',#1146);
#319=VERTEX_POINT('',#1148);
#320=VERTEX_POINT('',#1152);
#321=VERTEX_POINT('',#1154);
#322=VERTEX_POINT('',#1158);
#323=VERTEX_POINT('',#1160);
#324=VERTEX_POINT('',#1164);
#325=VERTEX_POINT('',#1166);
#326=VERTEX_POINT('',#1179);
#327=VERTEX_POINT('',#1180);
#328=VERTEX_POINT('',#1182);
#329=VERTEX_POINT('',#1184);
#330=VERTEX_POINT('',#1188);
#331=VERTEX_POINT('',#1190);
#332=VERTEX_POINT('',#1194);
#333=VERTEX_POINT('',#1196);
#334=VERTEX_POINT('',#1200);
#335=VERTEX_POINT('',#1202);
#336=VERTEX_POINT('',#1206);
#337=VERTEX_POINT('',#1208);
#338=VERTEX_POINT('',#1217);
#339=VERTEX_POINT('',#1218);
#340=VERTEX_POINT('',#1220);
#341=VERTEX_POINT('',#1222);
#342=VERTEX_POINT('',#1226);
#343=VERTEX_POINT('',#1228);
#344=VERTEX_POINT('',#1232);
#345=VERTEX_POINT('',#1234);
#346=VERTEX_POINT('',#1238);
#347=VERTEX_POINT('',#1240);
#348=VERTEX_POINT('',#1244);
#349=VERTEX_POINT('',#1246);
#350=VERTEX_POINT('',#1255);
#351=VERTEX_POINT('',#1256);
#352=VERTEX_POINT('',#1258);
#353=VERTEX_POINT('',#1260);
#354=VERTEX_POINT('',#1264);
#355=VERTEX_POINT('',#1266);
#356=VERTEX_POINT('',#1270);
#357=VERTEX_POINT('',#1272);
#358=VERTEX_POINT('',#1276);
#359=VERTEX_POINT('',#1278);
#360=VERTEX_POINT('',#1282);
#361=VERTEX_POINT('',#1284);
#362=EDGE_CURVE('',#296,#297,#184,.T.);
#363=EDGE_CURVE('',#297,#298,#185,.T.);
#364=EDGE_CURVE('',#299,#298,#186,.T.);
#365=EDGE_CURVE('',#296,#299,#187,.T.);
#366=EDGE_CURVE('',#300,#296,#25,.T.);
#367=EDGE_CURVE('',#301,#299,#26,.T.);
#368=EDGE_CURVE('',#300,#301,#188,.T.);
#369=EDGE_CURVE('',#302,#300,#27,.T.);
#370=EDGE_CURVE('',#303,#301,#28,.T.);
#371=EDGE_CURVE('',#302,#303,#189,.T.);
#372=EDGE_CURVE('',#304,#302,#29,.T.);
#373=EDGE_CURVE('',#305,#303,#30,.T.);
#374=EDGE_CURVE('',#304,#305,#190,.T.);
#375=EDGE_CURVE('',#306,#304,#191,.T.);
#376=EDGE_CURVE('',#307,#305,#192,.T.);
#377=EDGE_CURVE('',#306,#307,#193,.T.);
#378=EDGE_CURVE('',#306,#297,#31,.T.);
#379=EDGE_CURVE('',#298,#307,#32,.T.);
#380=EDGE_CURVE('',#308,#308,#33,.T.);
#381=EDGE_CURVE('',#308,#309,#194,.T.);
#382=EDGE_CURVE('',#309,#309,#34,.T.);
#383=EDGE_CURVE('',#310,#311,#195,.T.);
#384=EDGE_CURVE('',#311,#312,#196,.T.);
#385=EDGE_CURVE('',#313,#312,#197,.T.);
#386=EDGE_CURVE('',#310,#313,#198,.T.);
#387=EDGE_CURVE('',#314,#310,#35,.T.);
#388=EDGE_CURVE('',#315,#313,#36,.T.);
#389=EDGE_CURVE('',#314,#315,#199,.T.);
#390=EDGE_CURVE('',#316,#314,#37,.T.);
#391=EDGE_CURVE('',#317,#315,#38,.T.);
#392=EDGE_CURVE('',#316,#317,#200,.T.);
#393=EDGE_CURVE('',#318,#316,#39,.T.);
#394=EDGE_CURVE('',#319,#317,#40,.T.);
#395=EDGE_CURVE('',#318,#319,#201,.T.);
#396=EDGE_CURVE('',#320,#318,#202,.T.);
#397=EDGE_CURVE('',#321,#319,#203,.T.);
#398=EDGE_CURVE('',#320,#321,#204,.T.);
#399=EDGE_CURVE('',#320,#322,#41,.T.);
#400=EDGE_CURVE('',#323,#321,#42,.T.);
#401=EDGE_CURVE('',#322,#323,#205,.T.);
#402=EDGE_CURVE('',#324,#322,#43,.T.);
#403=EDGE_CURVE('',#325,#323,#44,.T.);
#404=EDGE_CURVE('',#324,#325,#206,.T.);
#405=EDGE_CURVE('',#324,#320,#207,.T.);
#406=EDGE_CURVE('',#321,#325,#208,.T.);
#407=EDGE_CURVE('',#320,#321,#209,.T.);
#408=EDGE_CURVE('',#311,#320,#45,.T.);
#409=EDGE_CURVE('',#312,#321,#46,.T.);
#410=EDGE_CURVE('',#326,#327,#210,.T.);
#411=EDGE_CURVE('',#327,#328,#211,.T.);
#412=EDGE_CURVE('',#329,#328,#212,.T.);
#413=EDGE_CURVE('',#326,#329,#213,.T.);
#414=EDGE_CURVE('',#330,#326,#47,.T.);
#415=EDGE_CURVE('',#331,#329,#48,.T.);
#416=EDGE_CURVE('',#330,#331,#214,.T.);
#417=EDGE_CURVE('',#332,#330,#49,.T.);
#418=EDGE_CURVE('',#333,#331,#50,.T.);
#419=EDGE_CURVE('',#332,#333,#215,.T.);
#420=EDGE_CURVE('',#334,#332,#51,.T.);
#421=EDGE_CURVE('',#335,#333,#52,.T.);
#422=EDGE_CURVE('',#334,#335,#216,.T.);
#423=EDGE_CURVE('',#336,#334,#217,.T.);
#424=EDGE_CURVE('',#337,#335,#218,.T.);
#425=EDGE_CURVE('',#336,#337,#219,.T.);
#426=EDGE_CURVE('',#336,#327,#53,.T.);
#427=EDGE_CURVE('',#328,#337,#54,.T.);
#428=EDGE_CURVE('',#338,#339,#220,.T.);
#429=EDGE_CURVE('',#339,#340,#221,.T.);
#430=EDGE_CURVE('',#341,#340,#222,.T.);
#431=EDGE_CURVE('',#338,#341,#223,.T.);
#432=EDGE_CURVE('',#342,#338,#55,.T.);
#433=EDGE_CURVE('',#343,#341,#56,.T.);
#434=EDGE_CURVE('',#342,#343,#224,.T.);
#435=EDGE_CURVE('',#344,#342,#57,.T.);
#436=EDGE_CURVE('',#345,#343,#58,.T.);
#437=EDGE_CURVE('',#344,#345,#225,.T.);
#438=EDGE_CURVE('',#346,#344,#59,.T.);
#439=EDGE_CURVE('',#347,#345,#60,.T.);
#440=EDGE_CURVE('',#346,#347,#226,.T.);
#441=EDGE_CURVE('',#348,#346,#227,.T.);
#442=EDGE_CURVE('',#349,#347,#228,.T.);
#443=EDGE_CURVE('',#348,#349,#229,.T.);
#444=EDGE_CURVE('',#348,#339,#61,.T.);
#445=EDGE_CURVE('',#340,#349,#62,.T.);
#446=EDGE_CURVE('',#350,#351,#230,.T.);
#447=EDGE_CURVE('',#351,#352,#231,.T.);
#448=EDGE_CURVE('',#353,#352,#232,.T.);
#449=EDGE_CURVE('',#350,#353,#233,.T.);
#450=EDGE_CURVE('',#350,#354,#63,.T.);
#451=EDGE_CURVE('',#355,#353,#64,.T.);
#452=EDGE_CURVE('',#354,#355,#234,.T.);
#453=EDGE_CURVE('',#356,#354,#235,.T.);
#454=EDGE_CURVE('',#357,#355,#236,.T.);
#455=EDGE_CURVE('',#356,#357,#237,.T.);
#456=EDGE_CURVE('',#358,#356,#65,.T.);
#457=EDGE_CURVE('',#359,#357,#66,.T.);
#458=EDGE_CURVE('',#358,#359,#238,.T.);
#459=EDGE_CURVE('',#360,#358,#67,.T.);
#460=EDGE_CURVE('',#361,#359,#68,.T.);
#461=EDGE_CURVE('',#360,#361,#239,.T.);
#462=EDGE_CURVE('',#351,#360,#69,.T.);
#463=EDGE_CURVE('',#352,#361,#70,.T.);
#464=ORIENTED_EDGE('',*,*,#362,.T.);
#465=ORIENTED_EDGE('',*,*,#363,.T.);
#466=ORIENTED_EDGE('',*,*,#364,.F.);
#467=ORIENTED_EDGE('',*,*,#365,.F.);
#468=ORIENTED_EDGE('',*,*,#366,.T.);
#469=ORIENTED_EDGE('',*,*,#365,.T.);
#470=ORIENTED_EDGE('',*,*,#367,.F.);
#471=ORIENTED_EDGE('',*,*,#368,.F.);
#472=ORIENTED_EDGE('',*,*,#369,.T.);
#473=ORIENTED_EDGE('',*,*,#368,.T.);
#474=ORIENTED_EDGE('',*,*,#370,.F.);
#475=ORIENTED_EDGE('',*,*,#371,.F.);
#476=ORIENTED_EDGE('',*,*,#372,.T.);
#477=ORIENTED_EDGE('',*,*,#371,.T.);
#478=ORIENTED_EDGE('',*,*,#373,.F.);
#479=ORIENTED_EDGE('',*,*,#374,.F.);
#480=ORIENTED_EDGE('',*,*,#375,.T.);
#481=ORIENTED_EDGE('',*,*,#374,.T.);
#482=ORIENTED_EDGE('',*,*,#376,.F.);
#483=ORIENTED_EDGE('',*,*,#377,.F.);
#484=ORIENTED_EDGE('',*,*,#378,.F.);
#485=ORIENTED_EDGE('',*,*,#377,.T.);
#486=ORIENTED_EDGE('',*,*,#379,.F.);
#487=ORIENTED_EDGE('',*,*,#363,.F.);
#488=ORIENTED_EDGE('',*,*,#379,.T.);
#489=ORIENTED_EDGE('',*,*,#376,.T.);
#490=ORIENTED_EDGE('',*,*,#373,.T.);
#491=ORIENTED_EDGE('',*,*,#370,.T.);
#492=ORIENTED_EDGE('',*,*,#367,.T.);
#493=ORIENTED_EDGE('',*,*,#364,.T.);
#494=ORIENTED_EDGE('',*,*,#378,.T.);
#495=ORIENTED_EDGE('',*,*,#362,.F.);
#496=ORIENTED_EDGE('',*,*,#366,.F.);
#497=ORIENTED_EDGE('',*,*,#369,.F.);
#498=ORIENTED_EDGE('',*,*,#372,.F.);
#499=ORIENTED_EDGE('',*,*,#375,.F.);
#500=ORIENTED_EDGE('',*,*,#380,.F.);
#501=ORIENTED_EDGE('',*,*,#381,.T.);
#502=ORIENTED_EDGE('',*,*,#382,.F.);
#503=ORIENTED_EDGE('',*,*,#381,.F.);
#504=ORIENTED_EDGE('',*,*,#383,.T.);
#505=ORIENTED_EDGE('',*,*,#384,.T.);
#506=ORIENTED_EDGE('',*,*,#385,.F.);
#507=ORIENTED_EDGE('',*,*,#386,.F.);
#508=ORIENTED_EDGE('',*,*,#387,.T.);
#509=ORIENTED_EDGE('',*,*,#386,.T.);
#510=ORIENTED_EDGE('',*,*,#388,.F.);
#511=ORIENTED_EDGE('',*,*,#389,.F.);
#512=ORIENTED_EDGE('',*,*,#390,.T.);
#513=ORIENTED_EDGE('',*,*,#389,.T.);
#514=ORIENTED_EDGE('',*,*,#391,.F.);
#515=ORIENTED_EDGE('',*,*,#392,.F.);
#516=ORIENTED_EDGE('',*,*,#393,.T.);
#517=ORIENTED_EDGE('',*,*,#392,.T.);
#518=ORIENTED_EDGE('',*,*,#394,.F.);
#519=ORIENTED_EDGE('',*,*,#395,.F.);
#520=ORIENTED_EDGE('',*,*,#396,.T.);
#521=ORIENTED_EDGE('',*,*,#395,.T.);
#522=ORIENTED_EDGE('',*,*,#397,.F.);
#523=ORIENTED_EDGE('',*,*,#398,.F.);
#524=ORIENTED_EDGE('',*,*,#399,.F.);
#525=ORIENTED_EDGE('',*,*,#398,.T.);
#526=ORIENTED_EDGE('',*,*,#400,.F.);
#527=ORIENTED_EDGE('',*,*,#401,.F.);
#528=ORIENTED_EDGE('',*,*,#402,.T.);
#529=ORIENTED_EDGE('',*,*,#401,.T.);
#530=ORIENTED_EDGE('',*,*,#403,.F.);
#531=ORIENTED_EDGE('',*,*,#404,.F.);
#532=ORIENTED_EDGE('',*,*,#405,.F.);
#533=ORIENTED_EDGE('',*,*,#404,.T.);
#534=ORIENTED_EDGE('',*,*,#406,.F.);
#535=ORIENTED_EDGE('',*,*,#407,.F.);
#536=ORIENTED_EDGE('',*,*,#408,.T.);
#537=ORIENTED_EDGE('',*,*,#407,.T.);
#538=ORIENTED_EDGE('',*,*,#409,.F.);
#539=ORIENTED_EDGE('',*,*,#384,.F.);
#540=ORIENTED_EDGE('',*,*,#409,.T.);
#541=ORIENTED_EDGE('',*,*,#406,.T.);
#542=ORIENTED_EDGE('',*,*,#403,.T.);
#543=ORIENTED_EDGE('',*,*,#400,.T.);
#544=ORIENTED_EDGE('',*,*,#397,.T.);
#545=ORIENTED_EDGE('',*,*,#394,.T.);
#546=ORIENTED_EDGE('',*,*,#391,.T.);
#547=ORIENTED_EDGE('',*,*,#388,.T.);
#548=ORIENTED_EDGE('',*,*,#385,.T.);
#549=ORIENTED_EDGE('',*,*,#382,.T.);
#550=ORIENTED_EDGE('',*,*,#408,.F.);
#551=ORIENTED_EDGE('',*,*,#383,.F.);
#552=ORIENTED_EDGE('',*,*,#387,.F.);
#553=ORIENTED_EDGE('',*,*,#390,.F.);
#554=ORIENTED_EDGE('',*,*,#393,.F.);
#555=ORIENTED_EDGE('',*,*,#396,.F.);
#556=ORIENTED_EDGE('',*,*,#399,.T.);
#557=ORIENTED_EDGE('',*,*,#402,.F.);
#558=ORIENTED_EDGE('',*,*,#405,.T.);
#559=ORIENTED_EDGE('',*,*,#380,.T.);
#560=ORIENTED_EDGE('',*,*,#410,.T.);
#561=ORIENTED_EDGE('',*,*,#411,.T.);
#562=ORIENTED_EDGE('',*,*,#412,.F.);
#563=ORIENTED_EDGE('',*,*,#413,.F.);
#564=ORIENTED_EDGE('',*,*,#414,.T.);
#565=ORIENTED_EDGE('',*,*,#413,.T.);
#566=ORIENTED_EDGE('',*,*,#415,.F.);
#567=ORIENTED_EDGE('',*,*,#416,.F.);
#568=ORIENTED_EDGE('',*,*,#417,.T.);
#569=ORIENTED_EDGE('',*,*,#416,.T.);
#570=ORIENTED_EDGE('',*,*,#418,.F.);
#571=ORIENTED_EDGE('',*,*,#419,.F.);
#572=ORIENTED_EDGE('',*,*,#420,.T.);
#573=ORIENTED_EDGE('',*,*,#419,.T.);
#574=ORIENTED_EDGE('',*,*,#421,.F.);
#575=ORIENTED_EDGE('',*,*,#422,.F.);
#576=ORIENTED_EDGE('',*,*,#423,.T.);
#577=ORIENTED_EDGE('',*,*,#422,.T.);
#578=ORIENTED_EDGE('',*,*,#424,.F.);
#579=ORIENTED_EDGE('',*,*,#425,.F.);
#580=ORIENTED_EDGE('',*,*,#426,.F.);
#581=ORIENTED_EDGE('',*,*,#425,.T.);
#582=ORIENTED_EDGE('',*,*,#427,.F.);
#583=ORIENTED_EDGE('',*,*,#411,.F.);
#584=ORIENTED_EDGE('',*,*,#427,.T.);
#585=ORIENTED_EDGE('',*,*,#424,.T.);
#586=ORIENTED_EDGE('',*,*,#421,.T.);
#587=ORIENTED_EDGE('',*,*,#418,.T.);
#588=ORIENTED_EDGE('',*,*,#415,.T.);
#589=ORIENTED_EDGE('',*,*,#412,.T.);
#590=ORIENTED_EDGE('',*,*,#426,.T.);
#591=ORIENTED_EDGE('',*,*,#410,.F.);
#592=ORIENTED_EDGE('',*,*,#414,.F.);
#593=ORIENTED_EDGE('',*,*,#417,.F.);
#594=ORIENTED_EDGE('',*,*,#420,.F.);
#595=ORIENTED_EDGE('',*,*,#423,.F.);
#596=ORIENTED_EDGE('',*,*,#428,.T.);
#597=ORIENTED_EDGE('',*,*,#429,.T.);
#598=ORIENTED_EDGE('',*,*,#430,.F.);
#599=ORIENTED_EDGE('',*,*,#431,.F.);
#600=ORIENTED_EDGE('',*,*,#432,.T.);
#601=ORIENTED_EDGE('',*,*,#431,.T.);
#602=ORIENTED_EDGE('',*,*,#433,.F.);
#603=ORIENTED_EDGE('',*,*,#434,.F.);
#604=ORIENTED_EDGE('',*,*,#435,.T.);
#605=ORIENTED_EDGE('',*,*,#434,.T.);
#606=ORIENTED_EDGE('',*,*,#436,.F.);
#607=ORIENTED_EDGE('',*,*,#437,.F.);
#608=ORIENTED_EDGE('',*,*,#438,.T.);
#609=ORIENTED_EDGE('',*,*,#437,.T.);
#610=ORIENTED_EDGE('',*,*,#439,.F.);
#611=ORIENTED_EDGE('',*,*,#440,.F.);
#612=ORIENTED_EDGE('',*,*,#441,.T.);
#613=ORIENTED_EDGE('',*,*,#440,.T.);
#614=ORIENTED_EDGE('',*,*,#442,.F.);
#615=ORIENTED_EDGE('',*,*,#443,.F.);
#616=ORIENTED_EDGE('',*,*,#444,.F.);
#617=ORIENTED_EDGE('',*,*,#443,.T.);
#618=ORIENTED_EDGE('',*,*,#445,.F.);
#619=ORIENTED_EDGE('',*,*,#429,.F.);
#620=ORIENTED_EDGE('',*,*,#445,.T.);
#621=ORIENTED_EDGE('',*,*,#442,.T.);
#622=ORIENTED_EDGE('',*,*,#439,.T.);
#623=ORIENTED_EDGE('',*,*,#436,.T.);
#624=ORIENTED_EDGE('',*,*,#433,.T.);
#625=ORIENTED_EDGE('',*,*,#430,.T.);
#626=ORIENTED_EDGE('',*,*,#444,.T.);
#627=ORIENTED_EDGE('',*,*,#428,.F.);
#628=ORIENTED_EDGE('',*,*,#432,.F.);
#629=ORIENTED_EDGE('',*,*,#435,.F.);
#630=ORIENTED_EDGE('',*,*,#438,.F.);
#631=ORIENTED_EDGE('',*,*,#441,.F.);
#632=ORIENTED_EDGE('',*,*,#446,.T.);
#633=ORIENTED_EDGE('',*,*,#447,.T.);
#634=ORIENTED_EDGE('',*,*,#448,.F.);
#635=ORIENTED_EDGE('',*,*,#449,.F.);
#636=ORIENTED_EDGE('',*,*,#450,.F.);
#637=ORIENTED_EDGE('',*,*,#449,.T.);
#638=ORIENTED_EDGE('',*,*,#451,.F.);
#639=ORIENTED_EDGE('',*,*,#452,.F.);
#640=ORIENTED_EDGE('',*,*,#453,.T.);
#641=ORIENTED_EDGE('',*,*,#452,.T.);
#642=ORIENTED_EDGE('',*,*,#454,.F.);
#643=ORIENTED_EDGE('',*,*,#455,.F.);
#644=ORIENTED_EDGE('',*,*,#456,.T.);
#645=ORIENTED_EDGE('',*,*,#455,.T.);
#646=ORIENTED_EDGE('',*,*,#457,.F.);
#647=ORIENTED_EDGE('',*,*,#458,.F.);
#648=ORIENTED_EDGE('',*,*,#459,.T.);
#649=ORIENTED_EDGE('',*,*,#458,.T.);
#650=ORIENTED_EDGE('',*,*,#460,.F.);
#651=ORIENTED_EDGE('',*,*,#461,.F.);
#652=ORIENTED_EDGE('',*,*,#462,.T.);
#653=ORIENTED_EDGE('',*,*,#461,.T.);
#654=ORIENTED_EDGE('',*,*,#463,.F.);
#655=ORIENTED_EDGE('',*,*,#447,.F.);
#656=ORIENTED_EDGE('',*,*,#463,.T.);
#657=ORIENTED_EDGE('',*,*,#460,.T.);
#658=ORIENTED_EDGE('',*,*,#457,.T.);
#659=ORIENTED_EDGE('',*,*,#454,.T.);
#660=ORIENTED_EDGE('',*,*,#451,.T.);
#661=ORIENTED_EDGE('',*,*,#448,.T.);
#662=ORIENTED_EDGE('',*,*,#462,.F.);
#663=ORIENTED_EDGE('',*,*,#446,.F.);
#664=ORIENTED_EDGE('',*,*,#450,.T.);
#665=ORIENTED_EDGE('',*,*,#453,.F.);
#666=ORIENTED_EDGE('',*,*,#456,.F.);
#667=ORIENTED_EDGE('',*,*,#459,.F.);
#668=PLANE('',#751);
#669=PLANE('',#761);
#670=PLANE('',#765);
#671=PLANE('',#766);
#672=PLANE('',#770);
#673=PLANE('',#780);
#674=PLANE('',#787);
#675=PLANE('',#791);
#676=PLANE('',#792);
#677=PLANE('',#793);
#678=PLANE('',#803);
#679=PLANE('',#807);
#680=PLANE('',#808);
#681=PLANE('',#809);
#682=PLANE('',#819);
#683=PLANE('',#823);
#684=PLANE('',#824);
#685=PLANE('',#825);
#686=PLANE('',#829);
#687=PLANE('',#839);
#688=PLANE('',#840);
#689=ADVANCED_FACE('',(#94),#668,.T.);
#690=ADVANCED_FACE('',(#95),#71,.T.);
#691=ADVANCED_FACE('',(#96),#72,.T.);
#692=ADVANCED_FACE('',(#97),#73,.T.);
#693=ADVANCED_FACE('',(#98),#669,.T.);
#694=ADVANCED_FACE('',(#99),#74,.F.);
#695=ADVANCED_FACE('',(#100),#670,.T.);
#696=ADVANCED_FACE('',(#101),#671,.F.);
#697=ADVANCED_FACE('',(#102),#75,.F.);
#698=ADVANCED_FACE('',(#103),#672,.T.);
#699=ADVANCED_FACE('',(#104),#76,.T.);
#700=ADVANCED_FACE('',(#105),#77,.T.);
#701=ADVANCED_FACE('',(#106),#78,.T.);
#702=ADVANCED_FACE('',(#107),#673,.T.);
#703=ADVANCED_FACE('',(#108),#79,.F.);
#704=ADVANCED_FACE('',(#109),#80,.T.);
#705=ADVANCED_FACE('',(#110),#674,.T.);
#706=ADVANCED_FACE('',(#111),#81,.T.);
#707=ADVANCED_FACE('',(#112,#13),#675,.T.);
#708=ADVANCED_FACE('',(#113,#14),#676,.F.);
#709=ADVANCED_FACE('',(#114),#677,.T.);
#710=ADVANCED_FACE('',(#115),#82,.T.);
#711=ADVANCED_FACE('',(#116),#83,.T.);
#712=ADVANCED_FACE('',(#117),#84,.T.);
#713=ADVANCED_FACE('',(#118),#678,.T.);
#714=ADVANCED_FACE('',(#119),#85,.F.);
#715=ADVANCED_FACE('',(#120),#679,.T.);
#716=ADVANCED_FACE('',(#121),#680,.F.);
#717=ADVANCED_FACE('',(#122),#681,.T.);
#718=ADVANCED_FACE('',(#123),#86,.T.);
#719=ADVANCED_FACE('',(#124),#87,.T.);
#720=ADVANCED_FACE('',(#125),#88,.T.);
#721=ADVANCED_FACE('',(#126),#682,.T.);
#722=ADVANCED_FACE('',(#127),#89,.F.);
#723=ADVANCED_FACE('',(#128),#683,.T.);
#724=ADVANCED_FACE('',(#129),#684,.F.);
#725=ADVANCED_FACE('',(#130),#685,.T.);
#726=ADVANCED_FACE('',(#131),#90,.F.);
#727=ADVANCED_FACE('',(#132),#686,.T.);
#728=ADVANCED_FACE('',(#133),#91,.T.);
#729=ADVANCED_FACE('',(#134),#92,.T.);
#730=ADVANCED_FACE('',(#135),#93,.T.);
#731=ADVANCED_FACE('',(#136),#687,.T.);
#732=ADVANCED_FACE('',(#137),#688,.F.);
#733=CLOSED_SHELL('',(#689,#690,#691,#692,#693,#694,#695,#696));
#734=CLOSED_SHELL('',(#697,#698,#699,#700,#701,#702,#703,#704,#705,#706,
#707,#708));
#735=CLOSED_SHELL('',(#709,#710,#711,#712,#713,#714,#715,#716));
#736=CLOSED_SHELL('',(#717,#718,#719,#720,#721,#722,#723,#724));
#737=CLOSED_SHELL('',(#725,#726,#727,#728,#729,#730,#731,#732));
#738=DERIVED_UNIT_ELEMENT(#740,1.);
#739=DERIVED_UNIT_ELEMENT(#1297,-3.);
#740=(
MASS_UNIT()
NAMED_UNIT(*)
SI_UNIT(.KILO.,.GRAM.)
);
#741=DERIVED_UNIT((#738,#739));
#742=MEASURE_REPRESENTATION_ITEM('density measure',
POSITIVE_RATIO_MEASURE(7850.),#741);
#743=PROPERTY_DEFINITION_REPRESENTATION(#748,#745);
#744=PROPERTY_DEFINITION_REPRESENTATION(#749,#746);
#745=REPRESENTATION('material name',(#747),#1294);
#746=REPRESENTATION('density',(#742),#1294);
#747=DESCRIPTIVE_REPRESENTATION_ITEM('Steel','Steel');
#748=PROPERTY_DEFINITION('material property','material name',#1304);
#749=PROPERTY_DEFINITION('material property','density of part',#1304);
#750=AXIS2_PLACEMENT_3D('',#1079,#841,#842);
#751=AXIS2_PLACEMENT_3D('',#1080,#843,#844);
#752=AXIS2_PLACEMENT_3D('',#1089,#849,#850);
#753=AXIS2_PLACEMENT_3D('',#1091,#851,#852);
#754=AXIS2_PLACEMENT_3D('',#1093,#853,#854);
#755=AXIS2_PLACEMENT_3D('',#1095,#856,#857);
#756=AXIS2_PLACEMENT_3D('',#1097,#858,#859);
#757=AXIS2_PLACEMENT_3D('',#1099,#860,#861);
#758=AXIS2_PLACEMENT_3D('',#1101,#863,#864);
#759=AXIS2_PLACEMENT_3D('',#1103,#865,#866);
#760=AXIS2_PLACEMENT_3D('',#1105,#867,#868);
#761=AXIS2_PLACEMENT_3D('',#1107,#870,#871);
#762=AXIS2_PLACEMENT_3D('',#1113,#875,#876);
#763=AXIS2_PLACEMENT_3D('',#1114,#877,#878);
#764=AXIS2_PLACEMENT_3D('',#1115,#879,#880);
#765=AXIS2_PLACEMENT_3D('',#1116,#881,#882);
#766=AXIS2_PLACEMENT_3D('',#1117,#883,#884);
#767=AXIS2_PLACEMENT_3D('',#1118,#885,#886);
#768=AXIS2_PLACEMENT_3D('',#1120,#887,#888);
#769=AXIS2_PLACEMENT_3D('',#1123,#890,#891);
#770=AXIS2_PLACEMENT_3D('',#1124,#892,#893);
#771=AXIS2_PLACEMENT_3D('',#1133,#898,#899);
#772=AXIS2_PLACEMENT_3D('',#1135,#900,#901);
#773=AXIS2_PLACEMENT_3D('',#1137,#902,#903);
#774=AXIS2_PLACEMENT_3D('',#1139,#905,#906);
#775=AXIS2_PLACEMENT_3D('',#1141,#907,#908);
#776=AXIS2_PLACEMENT_3D('',#1143,#909,#910);
#777=AXIS2_PLACEMENT_3D('',#1145,#912,#913);
#778=AXIS2_PLACEMENT_3D('',#1147,#914,#915);
#779=AXIS2_PLACEMENT_3D('',#1149,#916,#917);
#780=AXIS2_PLACEMENT_3D('',#1151,#919,#920);
#781=AXIS2_PLACEMENT_3D('',#1157,#924,#925);
#782=AXIS2_PLACEMENT_3D('',#1159,#926,#927);
#783=AXIS2_PLACEMENT_3D('',#1161,#928,#929);
#784=AXIS2_PLACEMENT_3D('',#1163,#931,#932);
#785=AXIS2_PLACEMENT_3D('',#1165,#933,#934);
#786=AXIS2_PLACEMENT_3D('',#1167,#935,#936);
#787=AXIS2_PLACEMENT_3D('',#1169,#938,#939);
#788=AXIS2_PLACEMENT_3D('',#1173,#943,#944);
#789=AXIS2_PLACEMENT_3D('',#1174,#945,#946);
#790=AXIS2_PLACEMENT_3D('',#1175,#947,#948);
#791=AXIS2_PLACEMENT_3D('',#1176,#949,#950);
#792=AXIS2_PLACEMENT_3D('',#1177,#951,#952);
#793=AXIS2_PLACEMENT_3D('',#1178,#953,#954);
#794=AXIS2_PLACEMENT_3D('',#1187,#959,#960);
#795=AXIS2_PLACEMENT_3D('',#1189,#961,#962);
#796=AXIS2_PLACEMENT_3D('',#1191,#963,#964);
#797=AXIS2_PLACEMENT_3D('',#1193,#966,#967);
#798=AXIS2_PLACEMENT_3D('',#1195,#968,#969);
#799=AXIS2_PLACEMENT_3D('',#1197,#970,#971);
#800=AXIS2_PLACEMENT_3D('',#1199,#973,#974);
#801=AXIS2_PLACEMENT_3D('',#1201,#975,#976);
#802=AXIS2_PLACEMENT_3D('',#1203,#977,#978);
#803=AXIS2_PLACEMENT_3D('',#1205,#980,#981);
#804=AXIS2_PLACEMENT_3D('',#1211,#985,#986);
#805=AXIS2_PLACEMENT_3D('',#1212,#987,#988);
#806=AXIS2_PLACEMENT_3D('',#1213,#989,#990);
#807=AXIS2_PLACEMENT_3D('',#1214,#991,#992);
#808=AXIS2_PLACEMENT_3D('',#1215,#993,#994);
#809=AXIS2_PLACEMENT_3D('',#1216,#995,#996);
#810=AXIS2_PLACEMENT_3D('',#1225,#1001,#1002);
#811=AXIS2_PLACEMENT_3D('',#1227,#1003,#1004);
#812=AXIS2_PLACEMENT_3D('',#1229,#1005,#1006);
#813=AXIS2_PLACEMENT_3D('',#1231,#1008,#1009);
#814=AXIS2_PLACEMENT_3D('',#1233,#1010,#1011);
#815=AXIS2_PLACEMENT_3D('',#1235,#1012,#1013);
#816=AXIS2_PLACEMENT_3D('',#1237,#1015,#1016);
#817=AXIS2_PLACEMENT_3D('',#1239,#1017,#1018);
#818=AXIS2_PLACEMENT_3D('',#1241,#1019,#1020);
#819=AXIS2_PLACEMENT_3D('',#1243,#1022,#1023);
#820=AXIS2_PLACEMENT_3D('',#1249,#1027,#1028);
#821=AXIS2_PLACEMENT_3D('',#1250,#1029,#1030);
#822=AXIS2_PLACEMENT_3D('',#1251,#1031,#1032);
#823=AXIS2_PLACEMENT_3D('',#1252,#1033,#1034);
#824=AXIS2_PLACEMENT_3D('',#1253,#1035,#1036);
#825=AXIS2_PLACEMENT_3D('',#1254,#1037,#1038);
#826=AXIS2_PLACEMENT_3D('',#1263,#1043,#1044);
#827=AXIS2_PLACEMENT_3D('',#1265,#1045,#1046);
#828=AXIS2_PLACEMENT_3D('',#1267,#1047,#1048);
#829=AXIS2_PLACEMENT_3D('',#1269,#1050,#1051);
#830=AXIS2_PLACEMENT_3D('',#1275,#1055,#1056);
#831=AXIS2_PLACEMENT_3D('',#1277,#1057,#1058);
#832=AXIS2_PLACEMENT_3D('',#1279,#1059,#1060);
#833=AXIS2_PLACEMENT_3D('',#1281,#1062,#1063);
#834=AXIS2_PLACEMENT_3D('',#1283,#1064,#1065);
#835=AXIS2_PLACEMENT_3D('',#1285,#1066,#1067);
#836=AXIS2_PLACEMENT_3D('',#1287,#1069,#1070);
#837=AXIS2_PLACEMENT_3D('',#1288,#1071,#1072);
#838=AXIS2_PLACEMENT_3D('',#1289,#1073,#1074);
#839=AXIS2_PLACEMENT_3D('',#1290,#1075,#1076);
#840=AXIS2_PLACEMENT_3D('',#1291,#1077,#1078);
#841=DIRECTION('axis',(0.,0.,1.));
#842=DIRECTION('refdir',(1.,0.,0.));
#843=DIRECTION('center_axis',(0.911081931629332,0.412225319283721,0.));
#844=DIRECTION('ref_axis',(-0.412225319283721,0.911081931629332,0.));
#845=DIRECTION('',(-0.412225319283721,0.911081931629332,0.));
#846=DIRECTION('',(0.,0.,1.));
#847=DIRECTION('',(-0.412225319283721,0.911081931629332,0.));
#848=DIRECTION('',(0.,0.,1.));
#849=DIRECTION('center_axis',(0.,0.,1.));
#850=DIRECTION('ref_axis',(0.953639560124949,-0.300951141158649,0.));
#851=DIRECTION('center_axis',(0.,0.,1.));
#852=DIRECTION('ref_axis',(0.953639560124949,-0.300951141158649,0.));
#853=DIRECTION('center_axis',(0.,0.,1.));
#854=DIRECTION('ref_axis',(0.953639560124949,-0.300951141158649,0.));
#855=DIRECTION('',(0.,0.,1.));
#856=DIRECTION('center_axis',(0.,0.,1.));
#857=DIRECTION('ref_axis',(0.28061701245003,-0.959819822843652,0.));
#858=DIRECTION('center_axis',(0.,0.,1.));
#859=DIRECTION('ref_axis',(0.28061701245003,-0.959819822843652,0.));
#860=DIRECTION('center_axis',(0.,0.,1.));
#861=DIRECTION('ref_axis',(0.28061701245003,-0.959819822843652,0.));
#862=DIRECTION('',(0.,0.,1.));
#863=DIRECTION('center_axis',(0.,0.,1.));
#864=DIRECTION('ref_axis',(-0.931388288456595,-0.364027273876415,0.));
#865=DIRECTION('center_axis',(0.,0.,1.));
#866=DIRECTION('ref_axis',(-0.931388288456595,-0.364027273876415,0.));
#867=DIRECTION('center_axis',(0.,0.,1.));
#868=DIRECTION('ref_axis',(-0.931388288456595,-0.364027273876415,0.));
#869=DIRECTION('',(0.,0.,1.));
#870=DIRECTION('center_axis',(-0.979380604955429,-0.202023836804317,0.));
#871=DIRECTION('ref_axis',(0.202023836804317,-0.979380604955429,0.));
#872=DIRECTION('',(0.202023836804317,-0.979380604955429,0.));
#873=DIRECTION('',(0.202023836804317,-0.979380604955429,0.));
#874=DIRECTION('',(0.,0.,1.));
#875=DIRECTION('center_axis',(0.,0.,1.));
#876=DIRECTION('ref_axis',(-0.213795530146024,-0.976878432195931,0.));
#877=DIRECTION('center_axis',(0.,0.,1.));
#878=DIRECTION('ref_axis',(-0.213795530146024,-0.976878432195931,0.));
#879=DIRECTION('center_axis',(0.,0.,-1.));
#880=DIRECTION('ref_axis',(-0.213795530146024,-0.976878432195931,0.));
#881=DIRECTION('center_axis',(0.,0.,1.));
#882=DIRECTION('ref_axis',(1.,0.,0.));
#883=DIRECTION('center_axis',(0.,0.,1.));
#884=DIRECTION('ref_axis',(1.,0.,0.));
#885=DIRECTION('center_axis',(0.,0.,1.));
#886=DIRECTION('ref_axis',(1.,0.,0.));
#887=DIRECTION('center_axis',(0.,0.,1.));
#888=DIRECTION('ref_axis',(1.,0.,0.));
#889=DIRECTION('',(0.,0.,1.));
#890=DIRECTION('center_axis',(0.,0.,-1.));
#891=DIRECTION('ref_axis',(1.,0.,0.));
#892=DIRECTION('center_axis',(0.999981905722316,0.00601566521389062,0.));
#893=DIRECTION('ref_axis',(-0.00601566521389062,0.999981905722316,0.));
#894=DIRECTION('',(-0.00601566521389062,0.999981905722316,0.));
#895=DIRECTION('',(0.,0.,1.));
#896=DIRECTION('',(-0.00601566521389062,0.999981905722316,0.));
#897=DIRECTION('',(0.,0.,1.));
#898=DIRECTION('center_axis',(0.,0.,1.));
#899=DIRECTION('ref_axis',(0.748785116602189,-0.662812831163554,0.));
#900=DIRECTION('center_axis',(0.,0.,1.));
#901=DIRECTION('ref_axis',(0.748785116602189,-0.662812831163554,0.));
#902=DIRECTION('center_axis',(0.,0.,1.));
#903=DIRECTION('ref_axis',(0.748785116602189,-0.662812831163554,0.));
#904=DIRECTION('',(0.,0.,1.));
#905=DIRECTION('center_axis',(0.,0.,1.));
#906=DIRECTION('ref_axis',(-0.134037259416445,-0.990976292899143,0.));
#907=DIRECTION('center_axis',(0.,0.,1.));
#908=DIRECTION('ref_axis',(-0.134037259416445,-0.990976292899143,0.));
#909=DIRECTION('center_axis',(0.,0.,1.));
#910=DIRECTION('ref_axis',(-0.134037259416445,-0.990976292899143,0.));
#911=DIRECTION('',(0.,0.,1.));
#912=DIRECTION('center_axis',(0.,0.,1.));
#913=DIRECTION('ref_axis',(-0.998928760094276,0.0462745314024185,0.));
#914=DIRECTION('center_axis',(0.,0.,1.));
#915=DIRECTION('ref_axis',(-0.998928760094276,0.0462745314024185,0.));
#916=DIRECTION('center_axis',(0.,0.,1.));
#917=DIRECTION('ref_axis',(-0.998928760094276,0.0462745314024185,0.));
#918=DIRECTION('',(0.,0.,1.));
#919=DIRECTION('center_axis',(-0.976879223601973,0.213791914007072,0.));
#920=DIRECTION('ref_axis',(-0.213791914007072,-0.976879223601973,0.));
#921=DIRECTION('',(-0.213791914007072,-0.976879223601973,0.));
#922=DIRECTION('',(-0.213791914007072,-0.976879223601973,0.));
#923=DIRECTION('',(0.,0.,1.));
#924=DIRECTION('center_axis',(0.,0.,1.));
#925=DIRECTION('ref_axis',(1.,0.,0.));
#926=DIRECTION('center_axis',(0.,0.,1.));
#927=DIRECTION('ref_axis',(1.,0.,0.));
#928=DIRECTION('center_axis',(0.,0.,-1.));
#929=DIRECTION('ref_axis',(1.,0.,0.));
#930=DIRECTION('',(0.,0.,1.));
#931=DIRECTION('center_axis',(0.,0.,1.));
#932=DIRECTION('ref_axis',(-0.213795530146024,-0.976878432195931,0.));
#933=DIRECTION('center_axis',(0.,0.,1.));
#934=DIRECTION('ref_axis',(-0.213795530146024,-0.976878432195931,0.));
#935=DIRECTION('center_axis',(0.,0.,1.));
#936=DIRECTION('ref_axis',(-0.213795530146024,-0.976878432195931,0.));
#937=DIRECTION('',(0.,0.,1.));
#938=DIRECTION('center_axis',(0.976879223601973,-0.213791914007072,0.));
#939=DIRECTION('ref_axis',(0.213791914007072,0.976879223601973,0.));
#940=DIRECTION('',(-0.213791914007072,-0.976879223601973,0.));
#941=DIRECTION('',(0.213791914007072,0.976879223601973,0.));
#942=DIRECTION('',(0.,0.,1.));
#943=DIRECTION('center_axis',(0.,0.,1.));
#944=DIRECTION('ref_axis',(0.104501329903131,0.994524746825577,0.));
#945=DIRECTION('center_axis',(0.,0.,1.));
#946=DIRECTION('ref_axis',(1.,0.,0.));
#947=DIRECTION('center_axis',(0.,0.,1.));
#948=DIRECTION('ref_axis',(1.,0.,0.));
#949=DIRECTION('center_axis',(0.,0.,1.));
#950=DIRECTION('ref_axis',(1.,0.,0.));
#951=DIRECTION('center_axis',(0.,0.,1.));
#952=DIRECTION('ref_axis',(1.,0.,0.));
#953=DIRECTION('center_axis',(0.664648472999303,0.74715621347861,0.));
#954=DIRECTION('ref_axis',(-0.74715621347861,0.664648472999303,0.));
#955=DIRECTION('',(-0.74715621347861,0.664648472999303,0.));
#956=DIRECTION('',(0.,0.,1.));
#957=DIRECTION('',(-0.74715621347861,0.664648472999303,0.));
#958=DIRECTION('',(0.,0.,1.));
#959=DIRECTION('center_axis',(0.,0.,1.));
#960=DIRECTION('ref_axis',(0.993600882531296,0.112948157280363,0.));
#961=DIRECTION('center_axis',(0.,0.,1.));
#962=DIRECTION('ref_axis',(0.993600882531296,0.112948157280363,0.));
#963=DIRECTION('center_axis',(0.,0.,1.));
#964=DIRECTION('ref_axis',(0.993600882531296,0.112948157280363,0.));
#965=DIRECTION('',(0.,0.,1.));
#966=DIRECTION('center_axis',(0.,0.,1.));
#967=DIRECTION('ref_axis',(0.64675128529845,-0.762700973491448,0.));
#968=DIRECTION('center_axis',(0.,0.,1.));
#969=DIRECTION('ref_axis',(0.64675128529845,-0.762700973491448,0.));
#970=DIRECTION('center_axis',(0.,0.,1.));
#971=DIRECTION('ref_axis',(0.64675128529845,-0.762700973491448,0.));
#972=DIRECTION('',(0.,0.,1.));
#973=DIRECTION('center_axis',(0.,0.,1.));
#974=DIRECTION('ref_axis',(-0.702802367690811,-0.711385150230303,0.));
#975=DIRECTION('center_axis',(0.,0.,1.));
#976=DIRECTION('ref_axis',(-0.702802367690811,-0.711385150230303,0.));
#977=DIRECTION('center_axis',(0.,0.,1.));
#978=DIRECTION('ref_axis',(-0.702802367690811,-0.711385150230303,0.));
#979=DIRECTION('',(0.,0.,1.));
#980=DIRECTION('center_axis',(-0.812538508783936,-0.582907515600183,0.));
#981=DIRECTION('ref_axis',(0.582907515600183,-0.812538508783936,0.));
#982=DIRECTION('',(0.582907515600183,-0.812538508783936,0.));
#983=DIRECTION('',(0.582907515600183,-0.812538508783936,0.));
#984=DIRECTION('',(0.,0.,1.));
#985=DIRECTION('center_axis',(0.,0.,1.));
#986=DIRECTION('ref_axis',(-0.213795530146024,-0.976878432195931,0.));
#987=DIRECTION('center_axis',(0.,0.,1.));
#988=DIRECTION('ref_axis',(-0.213795530146024,-0.976878432195931,0.));
#989=DIRECTION('center_axis',(0.,0.,-1.));
#990=DIRECTION('ref_axis',(-0.213795530146024,-0.976878432195931,0.));
#991=DIRECTION('center_axis',(0.,0.,1.));
#992=DIRECTION('ref_axis',(1.,0.,0.));
#993=DIRECTION('center_axis',(0.,0.,1.));
#994=DIRECTION('ref_axis',(1.,0.,0.));
#995=DIRECTION('center_axis',(0.30329079270281,0.952898050717757,0.));
#996=DIRECTION('ref_axis',(-0.952898050717757,0.30329079270281,0.));
#997=DIRECTION('',(-0.952898050717757,0.30329079270281,0.));
#998=DIRECTION('',(0.,0.,1.));
#999=DIRECTION('',(-0.952898050717757,0.30329079270281,0.));
#1000=DIRECTION('',(0.,0.,1.));
#1001=DIRECTION('center_axis',(0.,0.,1.));
#1002=DIRECTION('ref_axis',(0.86175945242658,0.507317106111593,0.));
#1003=DIRECTION('center_axis',(0.,0.,1.));
#1004=DIRECTION('ref_axis',(0.86175945242658,0.507317106111593,0.));
#1005=DIRECTION('center_axis',(0.,0.,1.));
#1006=DIRECTION('ref_axis',(0.86175945242658,0.507317106111593,0.));
#1007=DIRECTION('',(0.,0.,1.));
#1008=DIRECTION('center_axis',(0.,0.,1.));
#1009=DIRECTION('ref_axis',(0.901054597538747,-0.433705674685365,0.));
#1010=DIRECTION('center_axis',(0.,0.,1.));
#1011=DIRECTION('ref_axis',(0.901054597538747,-0.433705674685365,0.));
#1012=DIRECTION('center_axis',(0.,0.,1.));
#1013=DIRECTION('ref_axis',(0.901054597538747,-0.433705674685365,0.));
#1014=DIRECTION('',(0.,0.,1.));
#1015=DIRECTION('center_axis',(0.,0.,1.));
#1016=DIRECTION('ref_axis',(-0.352695636433032,-0.935738097995961,0.));
#1017=DIRECTION('center_axis',(0.,0.,1.));
#1018=DIRECTION('ref_axis',(-0.352695636433032,-0.935738097995961,0.));
#1019=DIRECTION('center_axis',(0.,0.,1.));
#1020=DIRECTION('ref_axis',(-0.352695636433032,-0.935738097995961,0.));
#1021=DIRECTION('',(0.,0.,1.));
#1022=DIRECTION('center_axis',(-0.505200167545598,-0.863002196238167,0.));
#1023=DIRECTION('ref_axis',(0.863002196238167,-0.505200167545598,0.));
#1024=DIRECTION('',(0.863002196238167,-0.505200167545598,0.));
#1025=DIRECTION('',(0.863002196238167,-0.505200167545598,0.));
#1026=DIRECTION('',(0.,0.,1.));
#1027=DIRECTION('center_axis',(0.,0.,1.));
#1028=DIRECTION('ref_axis',(-0.213795530146024,-0.976878432195931,0.));
#1029=DIRECTION('center_axis',(0.,0.,1.));
#1030=DIRECTION('ref_axis',(-0.213795530146024,-0.976878432195931,0.));
#1031=DIRECTION('center_axis',(0.,0.,-1.));
#1032=DIRECTION('ref_axis',(-0.213795530146024,-0.976878432195931,0.));
#1033=DIRECTION('center_axis',(0.,0.,1.));
#1034=DIRECTION('ref_axis',(1.,0.,0.));
#1035=DIRECTION('center_axis',(0.,0.,1.));
#1036=DIRECTION('ref_axis',(1.,0.,0.));
#1037=DIRECTION('center_axis',(-0.110508393555322,-0.993875190833246,0.));
#1038=DIRECTION('ref_axis',(0.993875190833246,-0.110508393555322,0.));
#1039=DIRECTION('',(0.993875190833246,-0.110508393555322,0.));
#1040=DIRECTION('',(0.,0.,1.));
#1041=DIRECTION('',(0.993875190833246,-0.110508393555322,0.));
#1042=DIRECTION('',(0.,0.,1.));
#1043=DIRECTION('center_axis',(0.,0.,1.));
#1044=DIRECTION('ref_axis',(-0.213795530146024,-0.976878432195931,0.));
#1045=DIRECTION('center_axis',(0.,0.,1.));
#1046=DIRECTION('ref_axis',(-0.213795530146024,-0.976878432195931,0.));
#1047=DIRECTION('center_axis',(0.,0.,-1.));
#1048=DIRECTION('ref_axis',(-0.213795530146024,-0.976878432195931,0.));
#1049=DIRECTION('',(0.,0.,1.));
#1050=DIRECTION('center_axis',(-0.110508393555329,0.993875190833246,0.));
#1051=DIRECTION('ref_axis',(-0.993875190833246,-0.110508393555329,0.));
#1052=DIRECTION('',(-0.993875190833246,-0.110508393555329,0.));
#1053=DIRECTION('',(-0.993875190833246,-0.110508393555329,0.));
#1054=DIRECTION('',(0.,0.,1.));
#1055=DIRECTION('center_axis',(0.,0.,1.));
#1056=DIRECTION('ref_axis',(0.580912257048325,0.813966184562369,0.));
#1057=DIRECTION('center_axis',(0.,0.,1.));
#1058=DIRECTION('ref_axis',(0.580912257048325,0.813966184562369,0.));
#1059=DIRECTION('center_axis',(0.,0.,1.));
#1060=DIRECTION('ref_axis',(0.580912257048325,0.813966184562369,0.));
#1061=DIRECTION('',(0.,0.,1.));
#1062=DIRECTION('center_axis',(0.,0.,1.));
#1063=DIRECTION('ref_axis',(0.999558339465557,-0.029717436041134,0.));
#1064=DIRECTION('center_axis',(0.,0.,1.));
#1065=DIRECTION('ref_axis',(0.999558339465557,-0.029717436041134,0.));
#1066=DIRECTION('center_axis',(0.,0.,1.));
#1067=DIRECTION('ref_axis',(0.999558339465557,-0.029717436041134,0.));
#1068=DIRECTION('',(0.,0.,1.));
#1069=DIRECTION('center_axis',(0.,0.,1.));
#1070=DIRECTION('ref_axis',(0.0583956139844114,-0.998293520096862,0.));
#1071=DIRECTION('center_axis',(0.,0.,1.));
#1072=DIRECTION('ref_axis',(0.0583956139844114,-0.998293520096862,0.));
#1073=DIRECTION('center_axis',(0.,0.,1.));
#1074=DIRECTION('ref_axis',(0.0583956139844114,-0.998293520096862,0.));
#1075=DIRECTION('center_axis',(0.,0.,1.));
#1076=DIRECTION('ref_axis',(1.,0.,0.));
#1077=DIRECTION('center_axis',(0.,0.,1.));
#1078=DIRECTION('ref_axis',(1.,0.,0.));
#1079=CARTESIAN_POINT('',(0.,0.,0.));
#1080=CARTESIAN_POINT('Origin',(4.357851,-9.631544,0.));
#1081=CARTESIAN_POINT('',(4.357851,-9.631544,0.));
#1082=CARTESIAN_POINT('',(3.86461239046258,-8.54141012391407,0.));
#1083=CARTESIAN_POINT('',(4.357851,-9.631544,0.));
#1084=CARTESIAN_POINT('',(3.86461239046258,-8.54141012391407,4.));
#1085=CARTESIAN_POINT('',(3.86461239046258,-8.54141012391407,0.));
#1086=CARTESIAN_POINT('',(4.357851,-9.631544,4.));
#1087=CARTESIAN_POINT('',(4.357851,-9.631544,4.));
#1088=CARTESIAN_POINT('',(4.357851,-9.631544,0.));
#1089=CARTESIAN_POINT('Origin',(0.214810108533464,-10.7147619706181,0.));
#1090=CARTESIAN_POINT('',(4.298587,-12.003527,0.));
#1091=CARTESIAN_POINT('Origin',(0.214810108533464,-10.7147619706181,0.));
#1092=CARTESIAN_POINT('',(4.298587,-12.003527,4.));
#1093=CARTESIAN_POINT('Origin',(0.214810108533464,-10.7147619706181,4.));
#1094=CARTESIAN_POINT('',(4.298587,-12.003527,0.));
#1095=CARTESIAN_POINT('Origin',(-7.7150735945386E-5,0.000260518678556476,
0.));
#1096=CARTESIAN_POINT('',(3.577866,-12.237703,0.));
#1097=CARTESIAN_POINT('Origin',(-7.7150735945386E-5,0.000260518678556476,
0.));
#1098=CARTESIAN_POINT('',(3.577866,-12.237703,4.));
#1099=CARTESIAN_POINT('Origin',(-7.7150735945386E-5,0.000260518678556476,
4.));
#1100=CARTESIAN_POINT('',(3.577866,-12.237703,0.));
#1101=CARTESIAN_POINT('Origin',(6.12419384262989,-8.79468674796734,0.));
#1102=CARTESIAN_POINT('',(2.135704,-10.353563,0.));
#1103=CARTESIAN_POINT('Origin',(6.12419384262989,-8.79468674796734,0.));
#1104=CARTESIAN_POINT('',(2.135704,-10.353563,4.));
#1105=CARTESIAN_POINT('Origin',(6.12419384262989,-8.79468674796734,4.));
#1106=CARTESIAN_POINT('',(2.135704,-10.353563,0.));
#1107=CARTESIAN_POINT('Origin',(1.89397643703117,-9.18170481435367,0.));
#1108=CARTESIAN_POINT('',(1.89397643703117,-9.18170481435367,0.));
#1109=CARTESIAN_POINT('',(1.893974,-9.181693,0.));
#1110=CARTESIAN_POINT('',(1.89397643703117,-9.18170481435367,4.));
#1111=CARTESIAN_POINT('',(1.893974,-9.181693,4.));
#1112=CARTESIAN_POINT('',(1.89397643703117,-9.18170481435367,0.));
#1113=CARTESIAN_POINT('Origin',(2.80978660471831E-5,-3.51009204913044E-5,
0.));
#1114=CARTESIAN_POINT('Origin',(2.80978660471831E-5,-3.51009204913044E-5,
0.));
#1115=CARTESIAN_POINT('Origin',(2.80978660471831E-5,-3.51009204913044E-5,
4.));
#1116=CARTESIAN_POINT('Origin',(1.687370892788,-1.66958,4.));
#1117=CARTESIAN_POINT('Origin',(1.687370892788,-1.66958,0.));
#1118=CARTESIAN_POINT('Origin',(0.,0.,0.));
#1119=CARTESIAN_POINT('',(-1.7,-2.0818995585505E-16,0.));
#1120=CARTESIAN_POINT('Origin',(0.,0.,0.));
#1121=CARTESIAN_POINT('',(-1.7,-2.0818995585505E-16,4.));
#1122=CARTESIAN_POINT('',(-1.7,-2.0818995585505E-16,0.));
#1123=CARTESIAN_POINT('Origin',(0.,0.,4.));
#1124=CARTESIAN_POINT('Origin',(0.0635930000000004,-10.571351,0.));
#1125=CARTESIAN_POINT('',(0.0635930000000004,-10.571351,0.));
#1126=CARTESIAN_POINT('',(0.0563950077561273,-9.37483130801742,0.));
#1127=CARTESIAN_POINT('',(0.0635930000000004,-10.571351,0.));
#1128=CARTESIAN_POINT('',(0.0563950077561273,-9.37483130801742,4.));
#1129=CARTESIAN_POINT('',(0.0563950077561273,-9.37483130801742,0.));
#1130=CARTESIAN_POINT('',(0.0635930000000004,-10.571351,4.));
#1131=CARTESIAN_POINT('',(0.0635930000000004,-10.571351,4.));
#1132=CARTESIAN_POINT('',(0.0635930000000004,-10.571351,0.));
#1133=CARTESIAN_POINT('Origin',(-4.1618469591203,-9.87579267023653,0.));
#1134=CARTESIAN_POINT('',(-0.95532,-12.71416,0.));
#1135=CARTESIAN_POINT('Origin',(-4.1618469591203,-9.87579267023653,0.));
#1136=CARTESIAN_POINT('',(-0.95532,-12.71416,4.));
#1137=CARTESIAN_POINT('Origin',(-4.1618469591203,-9.87579267023653,4.));
#1138=CARTESIAN_POINT('',(-0.95532,-12.71416,0.));
#1139=CARTESIAN_POINT('Origin',(3.16248197705649E-5,0.000263693522688513,
0.));
#1140=CARTESIAN_POINT('',(-1.708979,-12.634947,0.));
#1141=CARTESIAN_POINT('Origin',(3.16248197705649E-5,0.000263693522688513,
0.));
#1142=CARTESIAN_POINT('',(-1.708979,-12.634947,4.));
#1143=CARTESIAN_POINT('Origin',(3.16248197705649E-5,0.000263693522688513,
4.));
#1144=CARTESIAN_POINT('',(-1.708979,-12.634947,0.));
#1145=CARTESIAN_POINT('Origin',(2.01760732898299,-10.525281643531,0.));
#1146=CARTESIAN_POINT('',(-2.26011,-10.32712,0.));
#1147=CARTESIAN_POINT('Origin',(2.01760732898299,-10.525281643531,0.));
#1148=CARTESIAN_POINT('',(-2.26011,-10.32712,4.));
#1149=CARTESIAN_POINT('Origin',(2.01760732898299,-10.525281643531,4.));
#1150=CARTESIAN_POINT('',(-2.26011,-10.32712,0.));
#1151=CARTESIAN_POINT('Origin',(-2.00431076519684,-9.15829675870463,0.));
#1152=CARTESIAN_POINT('',(-2.00431076519684,-9.15829675870463,0.));
#1153=CARTESIAN_POINT('',(-2.004299,-9.158243,0.));
#1154=CARTESIAN_POINT('',(-2.00431076519684,-9.15829675870463,4.));
#1155=CARTESIAN_POINT('',(-2.004299,-9.158243,4.));
#1156=CARTESIAN_POINT('',(-2.00431076519684,-9.15829675870463,0.));
#1157=CARTESIAN_POINT('Origin',(-0.000258500534000561,3.46944695195361E-17,
0.));
#1158=CARTESIAN_POINT('',(-0.230369099891536,-9.37217552716888,0.));
#1159=CARTESIAN_POINT('Origin',(-0.000258500534000561,3.46944695195361E-17,
0.));
#1160=CARTESIAN_POINT('',(-0.230369099891536,-9.37217552716888,4.));
#1161=CARTESIAN_POINT('Origin',(-0.000258500534000561,3.46944695195361E-17,
4.));
#1162=CARTESIAN_POINT('',(-0.230369099891536,-9.37217552716888,0.));
#1163=CARTESIAN_POINT('Origin',(2.80978660471831E-5,-3.51009204913044E-5,
0.));
#1164=CARTESIAN_POINT('',(-2.004299,-9.158243,0.));
#1165=CARTESIAN_POINT('Origin',(2.80978660471831E-5,-3.51009204913044E-5,
0.));
#1166=CARTESIAN_POINT('',(-2.004299,-9.158243,4.));
#1167=CARTESIAN_POINT('Origin',(2.80978660471831E-5,-3.51009204913044E-5,
4.));
#1168=CARTESIAN_POINT('',(-2.004299,-9.158243,0.));
#1169=CARTESIAN_POINT('Origin',(-2.00431076519684,-9.15829675870463,0.));
#1170=CARTESIAN_POINT('',(-2.004299,-9.158243,0.));
#1171=CARTESIAN_POINT('',(-2.004299,-9.158243,4.));
#1172=CARTESIAN_POINT('',(-2.00431076519684,-9.15829675870463,0.));
#1173=CARTESIAN_POINT('Origin',(-0.000258500534000561,3.46944695195361E-17,
0.));
#1174=CARTESIAN_POINT('Origin',(-0.000258500534000561,3.46944695195361E-17,
0.));
#1175=CARTESIAN_POINT('Origin',(-0.000258500534000561,3.46944695195361E-17,
4.));
#1176=CARTESIAN_POINT('Origin',(1.687370892788,-1.66958,4.));
#1177=CARTESIAN_POINT('Origin',(1.687370892788,-1.66958,0.));
#1178=CARTESIAN_POINT('Origin',(7.898596,-7.026356,0.));
#1179=CARTESIAN_POINT('',(7.898596,-7.026356,0.));
#1180=CARTESIAN_POINT('',(7.00460446830928,-6.2310870914459,0.));
#1181=CARTESIAN_POINT('',(7.898596,-7.026356,0.));
#1182=CARTESIAN_POINT('',(7.00460446830928,-6.2310870914459,4.));
#1183=CARTESIAN_POINT('',(7.00460446830928,-6.2310870914459,0.));
#1184=CARTESIAN_POINT('',(7.898596,-7.026356,4.));
#1185=CARTESIAN_POINT('',(7.898596,-7.026356,4.));
#1186=CARTESIAN_POINT('',(7.898596,-7.026356,0.));
#1187=CARTESIAN_POINT('Origin',(4.55432670087612,-9.70105248956584,0.));
#1188=CARTESIAN_POINT('',(8.809229,-9.217374,0.));
#1189=CARTESIAN_POINT('Origin',(4.55432670087612,-9.70105248956584,0.));
#1190=CARTESIAN_POINT('',(8.809229,-9.217374,4.));
#1191=CARTESIAN_POINT('Origin',(4.55432670087612,-9.70105248956584,4.));
#1192=CARTESIAN_POINT('',(8.809229,-9.217374,0.));
#1193=CARTESIAN_POINT('Origin',(-0.000191918631117227,0.000199539815733951,
0.));
#1194=CARTESIAN_POINT('',(8.246066,-9.724449,0.));
#1195=CARTESIAN_POINT('Origin',(-0.000191918631117227,0.000199539815733951,
0.));
#1196=CARTESIAN_POINT('',(8.246066,-9.724449,4.));
#1197=CARTESIAN_POINT('Origin',(-0.000191918631117227,0.000199539815733951,
4.));
#1198=CARTESIAN_POINT('',(8.246066,-9.724449,0.));
#1199=CARTESIAN_POINT('Origin',(9.17185205016038,-5.54341083335768,0.));
#1200=CARTESIAN_POINT('',(6.162236,-8.589781,0.));
#1201=CARTESIAN_POINT('Origin',(9.17185205016038,-5.54341083335768,0.));
#1202=CARTESIAN_POINT('',(6.162236,-8.589781,4.));
#1203=CARTESIAN_POINT('Origin',(9.17185205016038,-5.54341083335768,4.));
#1204=CARTESIAN_POINT('',(6.162236,-8.589781,0.));
#1205=CARTESIAN_POINT('Origin',(5.46477277500305,-7.61755862577457,0.));
#1206=CARTESIAN_POINT('',(5.46477277500305,-7.61755862577457,0.));
#1207=CARTESIAN_POINT('',(5.464763,-7.617545,0.));
#1208=CARTESIAN_POINT('',(5.46477277500305,-7.61755862577457,4.));
#1209=CARTESIAN_POINT('',(5.464763,-7.617545,4.));
#1210=CARTESIAN_POINT('',(5.46477277500305,-7.61755862577457,0.));
#1211=CARTESIAN_POINT('Origin',(2.80978660471831E-5,-3.51009204913044E-5,
0.));
#1212=CARTESIAN_POINT('Origin',(2.80978660471831E-5,-3.51009204913044E-5,
0.));
#1213=CARTESIAN_POINT('Origin',(2.80978660471831E-5,-3.51009204913044E-5,
4.));
#1214=CARTESIAN_POINT('Origin',(1.687370892788,-1.66958,4.));
#1215=CARTESIAN_POINT('Origin',(1.687370892788,-1.66958,0.));
#1216=CARTESIAN_POINT('Origin',(10.073603,-3.206247,0.));
#1217=CARTESIAN_POINT('',(10.073603,-3.206247,0.));
#1218=CARTESIAN_POINT('',(8.93342952471439,-2.84334971326758,0.));
#1219=CARTESIAN_POINT('',(10.073603,-3.206247,0.));
#1220=CARTESIAN_POINT('',(8.93342952471439,-2.84334971326758,4.));
#1221=CARTESIAN_POINT('',(8.93342952471439,-2.84334971326758,0.));
#1222=CARTESIAN_POINT('',(10.073603,-3.206247,4.));
#1223=CARTESIAN_POINT('',(10.073603,-3.206247,4.));
#1224=CARTESIAN_POINT('',(10.073603,-3.206247,0.));
#1225=CARTESIAN_POINT('Origin',(8.10635760585744,-7.00994092283905,0.));
#1226=CARTESIAN_POINT('',(11.796675,-4.837454,0.));
#1227=CARTESIAN_POINT('Origin',(8.10635760585744,-7.00994092283905,0.));
#1228=CARTESIAN_POINT('',(11.796675,-4.837454,4.));
#1229=CARTESIAN_POINT('Origin',(8.10635760585744,-7.00994092283905,4.));
#1230=CARTESIAN_POINT('',(11.796675,-4.837454,0.));
#1231=CARTESIAN_POINT('Origin',(-0.000255343527646446,0.000120718614220472,
0.));
#1232=CARTESIAN_POINT('',(11.488445,-5.529749,0.));
#1233=CARTESIAN_POINT('Origin',(-0.000255343527646446,0.000120718614220472,
0.));
#1234=CARTESIAN_POINT('',(11.488445,-5.529749,4.));
#1235=CARTESIAN_POINT('Origin',(-0.000255343527646446,0.000120718614220472,
4.));
#1236=CARTESIAN_POINT('',(11.488445,-5.529749,0.));
#1237=CARTESIAN_POINT('Origin',(10.6336123388686,-1.33363192764448,0.));
#1238=CARTESIAN_POINT('',(9.123262,-5.340748,0.));
#1239=CARTESIAN_POINT('Origin',(10.6336123388686,-1.33363192764448,0.));
#1240=CARTESIAN_POINT('',(9.123262,-5.340748,4.));
#1241=CARTESIAN_POINT('Origin',(10.6336123388686,-1.33363192764448,4.));
#1242=CARTESIAN_POINT('',(9.123262,-5.340748,0.));
#1243=CARTESIAN_POINT('Origin',(8.09065571062444,-4.73626185538166,0.));
#1244=CARTESIAN_POINT('',(8.09065571062444,-4.73626185538166,0.));
#1245=CARTESIAN_POINT('',(8.090644,-4.736255,0.));
#1246=CARTESIAN_POINT('',(8.09065571062444,-4.73626185538166,4.));
#1247=CARTESIAN_POINT('',(8.090644,-4.736255,4.));
#1248=CARTESIAN_POINT('',(8.09065571062444,-4.73626185538166,0.));
#1249=CARTESIAN_POINT('Origin',(2.80978660471831E-5,-3.51009204913044E-5,
0.));
#1250=CARTESIAN_POINT('Origin',(2.80978660471831E-5,-3.51009204913044E-5,
0.));
#1251=CARTESIAN_POINT('Origin',(2.80978660471831E-5,-3.51009204913044E-5,
4.));
#1252=CARTESIAN_POINT('Origin',(1.687370892788,-1.66958,4.));
#1253=CARTESIAN_POINT('Origin',(1.687370892788,-1.66958,0.));
#1254=CARTESIAN_POINT('Origin',(9.31758288524845,-1.03602343199847,0.));
#1255=CARTESIAN_POINT('',(9.31758288524845,-1.03602343199847,0.));
#1256=CARTESIAN_POINT('',(10.506793,-1.168251,0.));
#1257=CARTESIAN_POINT('',(9.317579,-1.036023,0.));
#1258=CARTESIAN_POINT('',(10.506793,-1.168251,4.));
#1259=CARTESIAN_POINT('',(10.506793,-1.168251,0.));
#1260=CARTESIAN_POINT('',(9.31758288524845,-1.03602343199847,4.));
#1261=CARTESIAN_POINT('',(9.317579,-1.036023,4.));
#1262=CARTESIAN_POINT('',(9.31758288524845,-1.03602343199847,0.));
#1263=CARTESIAN_POINT('Origin',(2.80978660471831E-5,-3.51009204913044E-5,
0.));
#1264=CARTESIAN_POINT('',(9.31757517479728,1.03602257468099,0.));
#1265=CARTESIAN_POINT('Origin',(2.80978660471831E-5,-3.51009204913044E-5,
0.));
#1266=CARTESIAN_POINT('',(9.31757517479728,1.03602257468099,4.));
#1267=CARTESIAN_POINT('Origin',(2.80978660471831E-5,-3.51009204913044E-5,
4.));
#1268=CARTESIAN_POINT('',(9.31757517479728,1.03602257468099,0.));
#1269=CARTESIAN_POINT('Origin',(10.506793,1.168251,0.));
#1270=CARTESIAN_POINT('',(10.506793,1.168251,0.));
#1271=CARTESIAN_POINT('',(10.506793,1.168251,0.));
#1272=CARTESIAN_POINT('',(10.506793,1.168251,4.));
#1273=CARTESIAN_POINT('',(10.506793,1.168251,4.));
#1274=CARTESIAN_POINT('',(10.506793,1.168251,0.));
#1275=CARTESIAN_POINT('Origin',(10.2567251292608,-3.10674703341388,0.));
#1276=CARTESIAN_POINT('',(12.744369,0.378904999999982,0.));
#1277=CARTESIAN_POINT('Origin',(10.2567251292608,-3.10674703341388,0.));
#1278=CARTESIAN_POINT('',(12.744369,0.378904999999982,4.));
#1279=CARTESIAN_POINT('Origin',(10.2567251292608,-3.10674703341388,4.));
#1280=CARTESIAN_POINT('',(12.744369,0.378904999999982,0.));
#1281=CARTESIAN_POINT('Origin',(-0.000258500534000561,3.46944695195361E-17,
0.));
#1282=CARTESIAN_POINT('',(12.744369,-0.378905,0.));
#1283=CARTESIAN_POINT('Origin',(-0.000258500534000561,3.46944695195361E-17,
0.));
#1284=CARTESIAN_POINT('',(12.744369,-0.378905,4.));
#1285=CARTESIAN_POINT('Origin',(-0.000258500534000561,3.46944695195361E-17,
4.));
#1286=CARTESIAN_POINT('',(12.744369,-0.378905,0.));
#1287=CARTESIAN_POINT('Origin',(10.2567251292608,3.10674703341389,0.));
#1288=CARTESIAN_POINT('Origin',(10.2567251292608,3.10674703341389,0.));
#1289=CARTESIAN_POINT('Origin',(10.2567251292608,3.10674703341389,4.));
#1290=CARTESIAN_POINT('Origin',(1.687370892788,-1.66958,4.));
#1291=CARTESIAN_POINT('Origin',(1.687370892788,-1.66958,0.));
#1292=UNCERTAINTY_MEASURE_WITH_UNIT(LENGTH_MEASURE(0.01),#1296,
'DISTANCE_ACCURACY_VALUE',
'Maximum model space distance between geometric entities at asserted c
onnectivities');
#1293=UNCERTAINTY_MEASURE_WITH_UNIT(LENGTH_MEASURE(0.01),#1296,
'DISTANCE_ACCURACY_VALUE',
'Maximum model space distance between geometric entities at asserted c
onnectivities');
#1294=(
GEOMETRIC_REPRESENTATION_CONTEXT(3)
GLOBAL_UNCERTAINTY_ASSIGNED_CONTEXT((#1292))
GLOBAL_UNIT_ASSIGNED_CONTEXT((#1296,#1298,#1299))
REPRESENTATION_CONTEXT('','3D')
);
#1295=(
GEOMETRIC_REPRESENTATION_CONTEXT(3)
GLOBAL_UNCERTAINTY_ASSIGNED_CONTEXT((#1293))
GLOBAL_UNIT_ASSIGNED_CONTEXT((#1296,#1298,#1299))
REPRESENTATION_CONTEXT('','3D')
);
#1296=(
LENGTH_UNIT()
NAMED_UNIT(*)
SI_UNIT(.MILLI.,.METRE.)
);
#1297=(
LENGTH_UNIT()
NAMED_UNIT(*)
SI_UNIT($,.METRE.)
);
#1298=(
NAMED_UNIT(*)
PLANE_ANGLE_UNIT()
SI_UNIT($,.RADIAN.)
);
#1299=(
NAMED_UNIT(*)
SI_UNIT($,.STERADIAN.)
SOLID_ANGLE_UNIT()
);
#1300=SHAPE_DEFINITION_REPRESENTATION(#1301,#1302);
#1301=PRODUCT_DEFINITION_SHAPE('',$,#1304);
#1302=SHAPE_REPRESENTATION('',(#750),#1294);
#1303=PRODUCT_DEFINITION_CONTEXT('part definition',#1308,'design');
#1304=PRODUCT_DEFINITION('2026-09-20-17-32-57-157',
'Driver Gear Shooter',#1305,#1303);
#1305=PRODUCT_DEFINITION_FORMATION('',$,#1310);
#1306=PRODUCT_RELATED_PRODUCT_CATEGORY('Driver Gear Shooter',
'Driver Gear Shooter',(#1310));
#1307=APPLICATION_PROTOCOL_DEFINITION('international standard',
'automotive_design',2009,#1308);
#1308=APPLICATION_CONTEXT(
'Core Data for Automotive Mechanical Design Process');
#1309=PRODUCT_CONTEXT('part definition',#1308,'mechanical');
#1310=PRODUCT('2026-09-20-17-32-57-157','Driver Gear Shooter',$,(#1309));
#1311=PRESENTATION_STYLE_ASSIGNMENT((#1312));
#1312=SURFACE_STYLE_USAGE(.BOTH.,#1313);
#1313=SURFACE_SIDE_STYLE('',(#1314));
#1314=SURFACE_STYLE_FILL_AREA(#1315);
#1315=FILL_AREA_STYLE('Steel - Satin',(#1316));
#1316=FILL_AREA_STYLE_COLOUR('Steel - Satin',#1317);
#1317=COLOUR_RGB('Steel - Satin',0.627450980392157,0.627450980392157,0.627450980392157);
ENDSEC;
END-ISO-10303-21;
