ISO-10303-21;
HEADER;
/* Generated by software containing ST-Developer
 * from STEP Tools, Inc. (www.steptools.com) 
 */

FILE_DESCRIPTION(
/* description */ (''),
/* implementation_level */ '2;1');

FILE_NAME(
/* name */ 'Hopper_Final.step',
/* time_stamp */ '2026-09-21T20:37:28+05:30',
/* author */ (''),
/* organization */ (''),
/* preprocessor_version */ 'ST-DEVELOPER v20.2',
/* originating_system */ 'Autodesk Translation Framework v15.15.0.0',
/* authorisation */ '');

FILE_SCHEMA (('AUTOMOTIVE_DESIGN { 1 0 10303 214 3 1 1 }'));
ENDSEC;

DATA;
#10=MECHANICAL_DESIGN_GEOMETRIC_PRESENTATION_REPRESENTATION('',(#13),#476);
#11=SHAPE_REPRESENTATION_RELATIONSHIP('SRR','None',#483,#12);
#12=ADVANCED_BREP_SHAPE_REPRESENTATION('',(#14),#475);
#13=STYLED_ITEM('',(#492),#14);
#14=MANIFOLD_SOLID_BREP('Body3',#154);
#15=CONICAL_SURFACE('',#176,14.2083413048564,1.16382554142613);
#16=CONICAL_SURFACE('',#182,15.,1.16382554142613);
#17=B_SPLINE_CURVE_WITH_KNOTS('',3,(#310,#311,#312,#313,#314,#315,#316,
#317,#318,#319,#320,#321,#322,#323,#324,#325,#326),.UNSPECIFIED.,.T.,.F.,
(4,1,1,1,1,1,1,1,1,1,1,1,1,1,4),(0.,0.44901233756474,0.898024675129479,
1.34703701269422,1.79604935025896,2.39473246701195,2.69407402538844,3.29275714214142,
3.59209870051792,3.89144025889441,4.4901233756474,4.78946493402389,5.38814805077688,
5.83716038834162,6.28617272590636),.UNSPECIFIED.);
#18=B_SPLINE_CURVE_WITH_KNOTS('',3,(#327,#328,#329,#330,#331,#332,#333,
#334,#335,#336,#337,#338,#339,#340,#341,#342,#343,#344,#345,#346,#347,#348,
#349,#350,#351,#352,#353,#354,#355,#356,#357,#358,#359,#360,#361,#362,#363,
#364,#365,#366,#367,#368,#369),.UNSPECIFIED.,.T.,.F.,(4,3,3,3,3,3,3,3,3,
3,3,3,3,3,4),(-6.28617272590635,-5.83716038834162,-5.38814805077688,-4.7894649340239,
-4.4901233756474,-3.89144025889441,-3.59209870051792,-3.29275714214143,
-2.69407402538844,-2.39473246701194,-1.79604935025896,-1.34703701269421,
-0.898024675129474,-0.449012337564733,7.99360577730113E-15),
 .UNSPECIFIED.);
#19=B_SPLINE_CURVE_WITH_KNOTS('',3,(#374,#375,#376,#377,#378,#379,#380),
 .UNSPECIFIED.,.F.,.F.,(4,1,1,1,4),(-2.25165399504044,-1.92998913860609,
-1.60832428217174,-1.28665942573739,-1.12582699752022),.UNSPECIFIED.);
#20=B_SPLINE_CURVE_WITH_KNOTS('',3,(#381,#382,#383,#384,#385,#386,#387,
#388),.UNSPECIFIED.,.F.,.F.,(4,1,1,1,1,4),(-1.12582699752022,-0.964994569303046,
-0.643329712868697,-0.321664856434349,-0.160832428217174,0.),
 .UNSPECIFIED.);
#21=B_SPLINE_CURVE_WITH_KNOTS('',3,(#448,#449,#450,#451,#452,#453,#454),
 .UNSPECIFIED.,.F.,.F.,(4,3,4),(0.,0.499999999999497,1.),.UNSPECIFIED.);
#22=B_SPLINE_CURVE_WITH_KNOTS('',3,(#455,#456,#457,#458,#459,#460,#461,
#462,#463,#464,#465),.UNSPECIFIED.,.T.,.F.,(4,1,1,1,1,1,1,1,4),(0.,0.160832428217174,
0.321664856434349,0.643329712868697,0.964994569303046,1.28665942573739,
1.60832428217174,1.92998913860609,2.25165399504044),.UNSPECIFIED.);
#23=(
BOUNDED_CURVE()
B_SPLINE_CURVE(3,(#306,#307,#308,#309),.UNSPECIFIED.,.F.,.F.)
B_SPLINE_CURVE_WITH_KNOTS((4,4),(0.,1.),.UNSPECIFIED.)
CURVE()
GEOMETRIC_REPRESENTATION_ITEM()
RATIONAL_B_SPLINE_CURVE((1.,0.986447859899184,0.986447859899184,1.))
REPRESENTATION_ITEM('')
);
#24=B_SPLINE_SURFACE_WITH_KNOTS('',3,3,((#236,#237,#238,#239,#240,#241,
#242,#243,#244,#245,#246,#247,#248,#249,#250,#251,#252),(#253,#254,#255,
#256,#257,#258,#259,#260,#261,#262,#263,#264,#265,#266,#267,#268,#269),
(#270,#271,#272,#273,#274,#275,#276,#277,#278,#279,#280,#281,#282,#283,
#284,#285,#286),(#287,#288,#289,#290,#291,#292,#293,#294,#295,#296,#297,
#298,#299,#300,#301,#302,#303)),.UNSPECIFIED.,.F.,.T.,.F.,(4,4),(4,1,1,
1,1,1,1,1,1,1,1,1,1,1,4),(0.,1.),(0.,0.44901233756474,0.898024675129479,
1.34703701269422,1.79604935025896,2.39473246701195,2.69407402538844,3.29275714214142,
3.59209870051792,3.89144025889441,4.4901233756474,4.78946493402389,5.38814805077688,
5.83716038834162,6.28617272590636),.UNSPECIFIED.);
#25=B_SPLINE_SURFACE_WITH_KNOTS('',3,3,((#392,#393,#394,#395,#396,#397,
#398,#399,#400,#401,#402),(#403,#404,#405,#406,#407,#408,#409,#410,#411,
#412,#413),(#414,#415,#416,#417,#418,#419,#420,#421,#422,#423,#424),(#425,
#426,#427,#428,#429,#430,#431,#432,#433,#434,#435),(#436,#437,#438,#439,
#440,#441,#442,#443,#444,#445,#446)),.UNSPECIFIED.,.F.,.T.,.F.,(4,1,4),
(4,1,1,1,1,1,1,1,4),(0.,0.5,1.),(0.,0.160832428217174,0.321664856434349,
0.643329712868697,0.964994569303046,1.28665942573739,1.60832428217174,1.92998913860609,
2.25165399504044),.UNSPECIFIED.);
#26=LINE('',#230,#31);
#27=LINE('',#234,#32);
#28=LINE('',#372,#33);
#29=LINE('',#469,#34);
#30=LINE('',#472,#35);
#31=VECTOR('',#195,3.2);
#32=VECTOR('',#200,3.2);
#33=VECTOR('',#205,15.);
#34=VECTOR('',#214,3.1);
#35=VECTOR('',#219,15.);
#36=CYLINDRICAL_SURFACE('',#171,3.4);
#37=CYLINDRICAL_SURFACE('',#174,3.2);
#38=CYLINDRICAL_SURFACE('',#179,3.1);
#39=FACE_BOUND('',#53,.T.);
#40=FACE_BOUND('',#59,.T.);
#41=FACE_BOUND('',#63,.T.);
#42=FACE_OUTER_BOUND('',#52,.T.);
#43=FACE_OUTER_BOUND('',#54,.T.);
#44=FACE_OUTER_BOUND('',#55,.T.);
#45=FACE_OUTER_BOUND('',#56,.T.);
#46=FACE_OUTER_BOUND('',#57,.T.);
#47=FACE_OUTER_BOUND('',#58,.T.);
#48=FACE_OUTER_BOUND('',#60,.T.);
#49=FACE_OUTER_BOUND('',#61,.T.);
#50=FACE_OUTER_BOUND('',#62,.T.);
#51=FACE_OUTER_BOUND('',#64,.T.);
#52=EDGE_LOOP('',(#103));
#53=EDGE_LOOP('',(#104));
#54=EDGE_LOOP('',(#105,#106,#107,#108,#109));
#55=EDGE_LOOP('',(#110,#111,#112,#113));
#56=EDGE_LOOP('',(#114,#115,#116,#117));
#57=EDGE_LOOP('',(#118,#119,#120,#121,#122));
#58=EDGE_LOOP('',(#123));
#59=EDGE_LOOP('',(#124));
#60=EDGE_LOOP('',(#125,#126,#127,#128,#129));
#61=EDGE_LOOP('',(#130,#131,#132,#133));
#62=EDGE_LOOP('',(#134));
#63=EDGE_LOOP('',(#135));
#64=EDGE_LOOP('',(#136,#137,#138,#139,#140));
#65=CIRCLE('',#169,3.4);
#66=CIRCLE('',#170,3.2);
#67=CIRCLE('',#172,3.4);
#68=CIRCLE('',#173,3.4);
#69=CIRCLE('',#175,3.2);
#70=CIRCLE('',#178,15.);
#71=CIRCLE('',#180,3.1);
#72=VERTEX_POINT('',#222);
#73=VERTEX_POINT('',#224);
#74=VERTEX_POINT('',#227);
#75=VERTEX_POINT('',#228);
#76=VERTEX_POINT('',#233);
#77=VERTEX_POINT('',#304);
#78=VERTEX_POINT('',#305);
#79=VERTEX_POINT('',#371);
#80=VERTEX_POINT('',#373);
#81=VERTEX_POINT('',#390);
#82=VERTEX_POINT('',#447);
#83=VERTEX_POINT('',#467);
#84=EDGE_CURVE('',#72,#72,#65,.F.);
#85=EDGE_CURVE('',#73,#73,#66,.T.);
#86=EDGE_CURVE('',#74,#75,#67,.F.);
#87=EDGE_CURVE('',#74,#72,#26,.T.);
#88=EDGE_CURVE('',#75,#74,#68,.F.);
#89=EDGE_CURVE('',#73,#76,#27,.T.);
#90=EDGE_CURVE('',#76,#76,#69,.T.);
#91=EDGE_CURVE('',#77,#78,#23,.T.);
#92=EDGE_CURVE('',#78,#78,#17,.T.);
#93=EDGE_CURVE('',#77,#77,#18,.T.);
#94=EDGE_CURVE('',#78,#79,#28,.T.);
#95=EDGE_CURVE('',#80,#79,#19,.T.);
#96=EDGE_CURVE('',#79,#80,#20,.T.);
#97=EDGE_CURVE('',#81,#81,#70,.T.);
#98=EDGE_CURVE('',#80,#82,#21,.T.);
#99=EDGE_CURVE('',#82,#82,#22,.T.);
#100=EDGE_CURVE('',#83,#83,#71,.T.);
#101=EDGE_CURVE('',#83,#82,#29,.T.);
#102=EDGE_CURVE('',#75,#81,#30,.T.);
#103=ORIENTED_EDGE('',*,*,#84,.F.);
#104=ORIENTED_EDGE('',*,*,#85,.T.);
#105=ORIENTED_EDGE('',*,*,#86,.F.);
#106=ORIENTED_EDGE('',*,*,#87,.T.);
#107=ORIENTED_EDGE('',*,*,#84,.T.);
#108=ORIENTED_EDGE('',*,*,#87,.F.);
#109=ORIENTED_EDGE('',*,*,#88,.F.);
#110=ORIENTED_EDGE('',*,*,#85,.F.);
#111=ORIENTED_EDGE('',*,*,#89,.T.);
#112=ORIENTED_EDGE('',*,*,#90,.F.);
#113=ORIENTED_EDGE('',*,*,#89,.F.);
#114=ORIENTED_EDGE('',*,*,#91,.T.);
#115=ORIENTED_EDGE('',*,*,#92,.T.);
#116=ORIENTED_EDGE('',*,*,#91,.F.);
#117=ORIENTED_EDGE('',*,*,#93,.T.);
#118=ORIENTED_EDGE('',*,*,#92,.F.);
#119=ORIENTED_EDGE('',*,*,#94,.T.);
#120=ORIENTED_EDGE('',*,*,#95,.F.);
#121=ORIENTED_EDGE('',*,*,#96,.F.);
#122=ORIENTED_EDGE('',*,*,#94,.F.);
#123=ORIENTED_EDGE('',*,*,#97,.F.);
#124=ORIENTED_EDGE('',*,*,#93,.F.);
#125=ORIENTED_EDGE('',*,*,#98,.T.);
#126=ORIENTED_EDGE('',*,*,#99,.T.);
#127=ORIENTED_EDGE('',*,*,#98,.F.);
#128=ORIENTED_EDGE('',*,*,#95,.T.);
#129=ORIENTED_EDGE('',*,*,#96,.T.);
#130=ORIENTED_EDGE('',*,*,#100,.F.);
#131=ORIENTED_EDGE('',*,*,#101,.T.);
#132=ORIENTED_EDGE('',*,*,#99,.F.);
#133=ORIENTED_EDGE('',*,*,#101,.F.);
#134=ORIENTED_EDGE('',*,*,#90,.T.);
#135=ORIENTED_EDGE('',*,*,#100,.T.);
#136=ORIENTED_EDGE('',*,*,#86,.T.);
#137=ORIENTED_EDGE('',*,*,#102,.T.);
#138=ORIENTED_EDGE('',*,*,#97,.T.);
#139=ORIENTED_EDGE('',*,*,#102,.F.);
#140=ORIENTED_EDGE('',*,*,#88,.T.);
#141=PLANE('',#168);
#142=PLANE('',#177);
#143=PLANE('',#181);
#144=ADVANCED_FACE('',(#42,#39),#141,.F.);
#145=ADVANCED_FACE('',(#43),#36,.T.);
#146=ADVANCED_FACE('',(#44),#37,.F.);
#147=ADVANCED_FACE('',(#45),#24,.T.);
#148=ADVANCED_FACE('',(#46),#15,.F.);
#149=ADVANCED_FACE('',(#47,#40),#142,.F.);
#150=ADVANCED_FACE('',(#48),#25,.T.);
#151=ADVANCED_FACE('',(#49),#38,.F.);
#152=ADVANCED_FACE('',(#50,#41),#143,.F.);
#153=ADVANCED_FACE('',(#51),#16,.T.);
#154=CLOSED_SHELL('',(#144,#145,#146,#147,#148,#149,#150,#151,#152,#153));
#155=DERIVED_UNIT_ELEMENT(#157,1.);
#156=DERIVED_UNIT_ELEMENT(#478,-3.);
#157=(
MASS_UNIT()
NAMED_UNIT(*)
SI_UNIT(.KILO.,.GRAM.)
);
#158=DERIVED_UNIT((#155,#156));
#159=MEASURE_REPRESENTATION_ITEM('density measure',
POSITIVE_RATIO_MEASURE(7850.),#158);
#160=PROPERTY_DEFINITION_REPRESENTATION(#165,#162);
#161=PROPERTY_DEFINITION_REPRESENTATION(#166,#163);
#162=REPRESENTATION('material name',(#164),#475);
#163=REPRESENTATION('density',(#159),#475);
#164=DESCRIPTIVE_REPRESENTATION_ITEM('Steel','Steel');
#165=PROPERTY_DEFINITION('material property','material name',#485);
#166=PROPERTY_DEFINITION('material property','density of part',#485);
#167=AXIS2_PLACEMENT_3D('',#220,#183,#184);
#168=AXIS2_PLACEMENT_3D('',#221,#185,#186);
#169=AXIS2_PLACEMENT_3D('',#223,#187,#188);
#170=AXIS2_PLACEMENT_3D('',#225,#189,#190);
#171=AXIS2_PLACEMENT_3D('',#226,#191,#192);
#172=AXIS2_PLACEMENT_3D('',#229,#193,#194);
#173=AXIS2_PLACEMENT_3D('',#231,#196,#197);
#174=AXIS2_PLACEMENT_3D('',#232,#198,#199);
#175=AXIS2_PLACEMENT_3D('',#235,#201,#202);
#176=AXIS2_PLACEMENT_3D('',#370,#203,#204);
#177=AXIS2_PLACEMENT_3D('',#389,#206,#207);
#178=AXIS2_PLACEMENT_3D('',#391,#208,#209);
#179=AXIS2_PLACEMENT_3D('',#466,#210,#211);
#180=AXIS2_PLACEMENT_3D('',#468,#212,#213);
#181=AXIS2_PLACEMENT_3D('',#470,#215,#216);
#182=AXIS2_PLACEMENT_3D('',#471,#217,#218);
#183=DIRECTION('axis',(0.,0.,1.));
#184=DIRECTION('refdir',(1.,0.,0.));
#185=DIRECTION('center_axis',(0.,1.,0.));
#186=DIRECTION('ref_axis',(1.,0.,0.));
#187=DIRECTION('center_axis',(0.,-1.,0.));
#188=DIRECTION('ref_axis',(1.,0.,0.));
#189=DIRECTION('center_axis',(0.,1.,0.));
#190=DIRECTION('ref_axis',(1.,0.,0.));
#191=DIRECTION('center_axis',(0.,1.,0.));
#192=DIRECTION('ref_axis',(1.,0.,0.));
#193=DIRECTION('center_axis',(0.,-1.,0.));
#194=DIRECTION('ref_axis',(1.,0.,0.));
#195=DIRECTION('',(0.,-1.,0.));
#196=DIRECTION('center_axis',(0.,-1.,0.));
#197=DIRECTION('ref_axis',(1.,0.,0.));
#198=DIRECTION('center_axis',(0.,1.,0.));
#199=DIRECTION('ref_axis',(1.,0.,0.));
#200=DIRECTION('',(0.,1.,0.));
#201=DIRECTION('center_axis',(0.,-1.,0.));
#202=DIRECTION('ref_axis',(1.,0.,0.));
#203=DIRECTION('center_axis',(0.,1.,0.));
#204=DIRECTION('ref_axis',(-1.,0.,0.));
#205=DIRECTION('',(-0.918324086366519,-0.395829347571776,-1.12462265294868E-16));
#206=DIRECTION('center_axis',(0.,-1.,0.));
#207=DIRECTION('ref_axis',(0.,0.,-1.));
#208=DIRECTION('center_axis',(0.,-1.,0.));
#209=DIRECTION('ref_axis',(-1.,0.,0.));
#210=DIRECTION('center_axis',(0.,1.,0.));
#211=DIRECTION('ref_axis',(1.,0.,0.));
#212=DIRECTION('center_axis',(0.,1.,0.));
#213=DIRECTION('ref_axis',(1.,0.,0.));
#214=DIRECTION('',(0.,1.,0.));
#215=DIRECTION('center_axis',(0.,1.,0.));
#216=DIRECTION('ref_axis',(0.,0.,1.));
#217=DIRECTION('center_axis',(0.,1.,0.));
#218=DIRECTION('ref_axis',(-1.,0.,0.));
#219=DIRECTION('',(0.918324086366519,0.395829347571776,1.12462265294868E-16));
#220=CARTESIAN_POINT('',(0.,0.,0.));
#221=CARTESIAN_POINT('Origin',(0.,0.,0.));
#222=CARTESIAN_POINT('',(-3.4,0.,-4.163799117101E-16));
#223=CARTESIAN_POINT('Origin',(0.,0.,0.));
#224=CARTESIAN_POINT('',(-3.2,0.,3.91886975727153E-16));
#225=CARTESIAN_POINT('Origin',(0.,0.,0.));
#226=CARTESIAN_POINT('Origin',(0.,0.,0.));
#227=CARTESIAN_POINT('',(-3.4,25.,-4.163799117101E-16));
#228=CARTESIAN_POINT('',(3.4,25.,4.163799117101E-16));
#229=CARTESIAN_POINT('Origin',(0.,25.,0.));
#230=CARTESIAN_POINT('',(-3.4,0.,4.163799117101E-16));
#231=CARTESIAN_POINT('Origin',(0.,25.,0.));
#232=CARTESIAN_POINT('Origin',(0.,0.,0.));
#233=CARTESIAN_POINT('',(-3.2,25.,3.91886975727153E-16));
#234=CARTESIAN_POINT('',(-3.2,0.,3.91886975727153E-16));
#235=CARTESIAN_POINT('Origin',(0.,25.000000372529,0.));
#236=CARTESIAN_POINT('Ctrl Pts',(10.0504881580887,30.,-4.46864767411626E-14));
#237=CARTESIAN_POINT('Ctrl Pts',(10.0504881580887,30.,1.50354283912532));
#238=CARTESIAN_POINT('Ctrl Pts',(9.36536291203578,30.,4.50881387333898));
#239=CARTESIAN_POINT('Ctrl Pts',(6.47970332205293,30.,8.12838018119855));
#240=CARTESIAN_POINT('Ctrl Pts',(2.31499953280603,30.,10.1308216135845));
#241=CARTESIAN_POINT('Ctrl Pts',(-2.83219957382187,30.,10.1390528916151));
#242=CARTESIAN_POINT('Ctrl Pts',(-6.90841702061266,30.,7.78148511255935));
#243=CARTESIAN_POINT('Ctrl Pts',(-9.76749604454107,30.,3.58764153275191));
#244=CARTESIAN_POINT('Ctrl Pts',(-10.3925207616809,30.,-0.551009476915255));
#245=CARTESIAN_POINT('Ctrl Pts',(-9.18902965856336,30.,-4.42521152650932));
#246=CARTESIAN_POINT('Ctrl Pts',(-6.91042804417664,30.,-7.78162057233441));
#247=CARTESIAN_POINT('Ctrl Pts',(-3.28500948633685,30.,-9.87347379381568));
#248=CARTESIAN_POINT('Ctrl Pts',(1.77650446513504,30.,-10.2527326352283));
#249=CARTESIAN_POINT('Ctrl Pts',(6.16114268273466,30.,-8.5362730641225));
#250=CARTESIAN_POINT('Ctrl Pts',(9.36423419643384,30.,-4.5054895645876));
#251=CARTESIAN_POINT('Ctrl Pts',(10.0504881580878,30.,-1.50354283912552));
#252=CARTESIAN_POINT('Ctrl Pts',(10.0504881580879,30.,-1.24344978758018E-13));
#253=CARTESIAN_POINT('Ctrl Pts',(9.98310593138939,30.0000000000002,-5.30212997092521E-14));
#254=CARTESIAN_POINT('Ctrl Pts',(9.98310593138939,30.0000000000002,1.49346029358287));
#255=CARTESIAN_POINT('Ctrl Pts',(9.30257339853761,30.0000000000002,4.47858525763174));
#256=CARTESIAN_POINT('Ctrl Pts',(6.43625912605341,30.,8.07388365200498));
#257=CARTESIAN_POINT('Ctrl Pts',(2.29947955153945,30.0000000000003,10.0628998835968));
#258=CARTESIAN_POINT('Ctrl Pts',(-2.8132120637559,30.0000000000002,10.0710753619681));
#259=CARTESIAN_POINT('Ctrl Pts',(-6.86209950802169,30.0000000000001,7.72931450670871));
#260=CARTESIAN_POINT('Ctrl Pts',(-9.70200940563134,30.0000000000001,3.56358862323867));
#261=CARTESIAN_POINT('Ctrl Pts',(-10.3228447231699,30.0000000000002,-0.547316851879698));
#262=CARTESIAN_POINT('Ctrl Pts',(-9.12742167471926,30.0000000000001,-4.39554262472004));
#263=CARTESIAN_POINT('Ctrl Pts',(-6.8640987435955,30.0000000000002,-7.72944820192972));
#264=CARTESIAN_POINT('Ctrl Pts',(-3.26298445877922,30.0000000000002,-9.80727691270296));
#265=CARTESIAN_POINT('Ctrl Pts',(1.76459407511235,30.0000000000001,-10.1839935710698));
#266=CARTESIAN_POINT('Ctrl Pts',(6.11983478634655,30.0000000000002,-8.47904181912275));
#267=CARTESIAN_POINT('Ctrl Pts',(9.30145177891437,30.0000000000001,-4.47528336986105));
#268=CARTESIAN_POINT('Ctrl Pts',(9.98310593138859,30.0000000000001,-1.49346029358306));
#269=CARTESIAN_POINT('Ctrl Pts',(9.9831059313886,30.0000000000001,-1.11568901231126E-13));
#270=CARTESIAN_POINT('Ctrl Pts',(9.91445220607351,29.985833906016,-6.18790652180882E-14));
#271=CARTESIAN_POINT('Ctrl Pts',(9.91445220607351,29.985833906016,1.48318698332695));
#272=CARTESIAN_POINT('Ctrl Pts',(9.23859890913721,29.985833906016,4.44778626535881));
#273=CARTESIAN_POINT('Ctrl Pts',(6.39199472122993,29.9858339060156,8.01835858728915));
#274=CARTESIAN_POINT('Ctrl Pts',(2.28366685474006,29.9858339060161,9.99369626591027));
#275=CARTESIAN_POINT('Ctrl Pts',(-2.79386640006032,29.9858339060159,10.0018147520534));
#276=CARTESIAN_POINT('Ctrl Pts',(-6.81490778106974,29.9858339060157,7.67615930294552));
#277=CARTESIAN_POINT('Ctrl Pts',(-9.63528665186249,29.9858339060158,3.53908183206461));
#278=CARTESIAN_POINT('Ctrl Pts',(-10.2518537433576,29.9858339060159,-0.543554899282225));
#279=CARTESIAN_POINT('Ctrl Pts',(-9.0646508570364,29.9858339060158,-4.36531372908579));
#280=CARTESIAN_POINT('Ctrl Pts',(-6.81689539154497,29.9858339060159,-7.6762910055926));
#281=CARTESIAN_POINT('Ctrl Pts',(-3.24054357083979,29.9858339060159,-9.73983057639842));
#282=CARTESIAN_POINT('Ctrl Pts',(1.75245892752303,29.9858339060157,-10.1139571968143));
#283=CARTESIAN_POINT('Ctrl Pts',(6.07774711806134,29.985833906016,-8.42073042340659));
#284=CARTESIAN_POINT('Ctrl Pts',(9.23748441221788,29.9858339060157,-4.44450725202308));
#285=CARTESIAN_POINT('Ctrl Pts',(9.91445220607275,29.9858339060158,-1.48318698332714));
#286=CARTESIAN_POINT('Ctrl Pts',(9.91445220607276,29.9858339060158,-9.79934127882361E-14));
#287=CARTESIAN_POINT('Ctrl Pts',(9.85257348430252,29.9591620431839,-7.02216063075412E-14));
#288=CARTESIAN_POINT('Ctrl Pts',(9.85257348430252,29.9591620431839,1.47393500457557));
#289=CARTESIAN_POINT('Ctrl Pts',(9.18093975601897,29.9591620431839,4.42002610374334));
#290=CARTESIAN_POINT('Ctrl Pts',(6.35210470703624,29.9591620431834,7.96831574585313));
#291=CARTESIAN_POINT('Ctrl Pts',(2.26941245582591,29.9591620431841,9.93132500970808));
#292=CARTESIAN_POINT('Ctrl Pts',(-2.7764277699121,29.9591620431838,9.93939419703427));
#293=CARTESIAN_POINT('Ctrl Pts',(-6.77237615578046,29.9591620431836,7.62825175081625));
#294=CARTESIAN_POINT('Ctrl Pts',(-9.57515406443475,29.9591620431836,3.51699353113775));
#295=CARTESIAN_POINT('Ctrl Pts',(-10.1878707661771,29.9591620431838,-0.54015897302318));
#296=CARTESIAN_POINT('Ctrl Pts',(-9.00807886506173,29.9591620431836,-4.33807005816199));
#297=CARTESIAN_POINT('Ctrl Pts',(-6.7743475781761,29.9591620431837,-7.6283845431112));
#298=CARTESIAN_POINT('Ctrl Pts',(-3.22032092886127,29.9591620431837,-9.67904489500981));
#299=CARTESIAN_POINT('Ctrl Pts',(1.74152145772623,29.9591620431836,-10.0508353539223));
#300=CARTESIAN_POINT('Ctrl Pts',(6.03981717843846,29.9591620431839,-8.36817638341792));
#301=CARTESIAN_POINT('Ctrl Pts',(9.17983326713656,29.9591620431835,-4.41676725743239));
#302=CARTESIAN_POINT('Ctrl Pts',(9.85257348430181,29.9591620431836,-1.47393500457575));
#303=CARTESIAN_POINT('Ctrl Pts',(9.85257348430182,29.9591620431836,-8.52096171399808E-14));
#304=CARTESIAN_POINT('',(10.0504881580879,30.,-1.24344978758018E-13));
#305=CARTESIAN_POINT('',(9.85257348430252,29.9591620431839,-7.02216063075412E-14));
#306=CARTESIAN_POINT('Ctrl Pts',(10.0504881580868,30.,9.71445146547012E-16));
#307=CARTESIAN_POINT('Ctrl Pts',(9.98218021253958,30.,2.50761397712613E-16));
#308=CARTESIAN_POINT('Ctrl Pts',(9.91530231598723,29.9862003327032,-4.85225264863732E-16));
#309=CARTESIAN_POINT('Ctrl Pts',(9.85257348430096,29.9591620431833,-1.20659225809133E-15));
#310=CARTESIAN_POINT('Ctrl Pts',(9.85257348430252,29.9591620431839,-7.02216063075412E-14));
#311=CARTESIAN_POINT('Ctrl Pts',(9.85257348430252,29.9591620431839,1.47393500457557));
#312=CARTESIAN_POINT('Ctrl Pts',(9.18093975601897,29.9591620431839,4.42002610374334));
#313=CARTESIAN_POINT('Ctrl Pts',(6.35210470703624,29.9591620431834,7.96831574585313));
#314=CARTESIAN_POINT('Ctrl Pts',(2.26941245582591,29.9591620431841,9.93132500970808));
#315=CARTESIAN_POINT('Ctrl Pts',(-2.7764277699121,29.9591620431838,9.93939419703427));
#316=CARTESIAN_POINT('Ctrl Pts',(-6.77237615578046,29.9591620431836,7.62825175081625));
#317=CARTESIAN_POINT('Ctrl Pts',(-9.57515406443475,29.9591620431836,3.51699353113775));
#318=CARTESIAN_POINT('Ctrl Pts',(-10.1878707661771,29.9591620431838,-0.54015897302318));
#319=CARTESIAN_POINT('Ctrl Pts',(-9.00807886506173,29.9591620431836,-4.33807005816199));
#320=CARTESIAN_POINT('Ctrl Pts',(-6.7743475781761,29.9591620431837,-7.6283845431112));
#321=CARTESIAN_POINT('Ctrl Pts',(-3.22032092886127,29.9591620431837,-9.67904489500981));
#322=CARTESIAN_POINT('Ctrl Pts',(1.74152145772623,29.9591620431836,-10.0508353539223));
#323=CARTESIAN_POINT('Ctrl Pts',(6.03981717843846,29.9591620431839,-8.36817638341792));
#324=CARTESIAN_POINT('Ctrl Pts',(9.17983326713656,29.9591620431835,-4.41676725743239));
#325=CARTESIAN_POINT('Ctrl Pts',(9.85257348430181,29.9591620431836,-1.47393500457575));
#326=CARTESIAN_POINT('Ctrl Pts',(9.85257348430182,29.9591620431836,-8.52096171399808E-14));
#327=CARTESIAN_POINT('Ctrl Pts',(10.050488158087,30.,-2.85327317328492E-13));
#328=CARTESIAN_POINT('Ctrl Pts',(10.050488158087,30.,-1.5035428391255));
#329=CARTESIAN_POINT('Ctrl Pts',(9.70736117726005,30.,-3.00451620185637));
#330=CARTESIAN_POINT('Ctrl Pts',(9.05533395979176,30.,-4.35962040815198));
#331=CARTESIAN_POINT('Ctrl Pts',(8.40330674232345,30.,-5.71472461444763));
#332=CARTESIAN_POINT('Ctrl Pts',(7.44237928821379,30.,-6.92395966430803));
#333=CARTESIAN_POINT('Ctrl Pts',(6.26690099763693,30.,-7.86015963152907));
#334=CARTESIAN_POINT('Ctrl Pts',(4.69959661020113,30.,-9.10842625449046));
#335=CARTESIAN_POINT('Ctrl Pts',(2.75086851349034,30.,-9.87129717498191));
#336=CARTESIAN_POINT('Ctrl Pts',(0.751555427527646,30.,-10.0244517907691));
#337=CARTESIAN_POINT('Ctrl Pts',(-0.248101115453701,30.,-10.1010290986626));
#338=CARTESIAN_POINT('Ctrl Pts',(-1.26040390574802,30.,-10.0251773303801));
#339=CARTESIAN_POINT('Ctrl Pts',(-2.2373906457642,30.,-9.80028838306835));
#340=CARTESIAN_POINT('Ctrl Pts',(-4.19136412579656,30.,-9.35051048844483));
#341=CARTESIAN_POINT('Ctrl Pts',(-6.00407340471636,30.,-8.30458387770428));
#342=CARTESIAN_POINT('Ctrl Pts',(-7.36784370248518,30.,-6.83713865884913));
#343=CARTESIAN_POINT('Ctrl Pts',(-8.04972885136959,30.,-6.10341604942156));
#344=CARTESIAN_POINT('Ctrl Pts',(-8.61937925496625,30.,-5.26431378796534));
#345=CARTESIAN_POINT('Ctrl Pts',(-9.05464084465427,30.,-4.360487401038));
#346=CARTESIAN_POINT('Ctrl Pts',(-9.48990243434229,30.,-3.45666101411065));
#347=CARTESIAN_POINT('Ctrl Pts',(-9.79077521012167,30.,-2.48811050171218));
#348=CARTESIAN_POINT('Ctrl Pts',(-9.93927166754628,30.,-1.49752257597429));
#349=CARTESIAN_POINT('Ctrl Pts',(-10.2362645823955,30.,0.483653275501506));
#350=CARTESIAN_POINT('Ctrl Pts',(-9.92375222382564,30.,2.55297878033501));
#351=CARTESIAN_POINT('Ctrl Pts',(-9.05716036458815,30.,4.36111223656147));
#352=CARTESIAN_POINT('Ctrl Pts',(-8.62386443496941,30.,5.2651789646747));
#353=CARTESIAN_POINT('Ctrl Pts',(-8.05204863018376,30.,6.10394768063617));
#354=CARTESIAN_POINT('Ctrl Pts',(-7.36889606056439,30.,6.83776147491091));
#355=CARTESIAN_POINT('Ctrl Pts',(-6.00259092132565,30.,8.30538906346038));
#356=CARTESIAN_POINT('Ctrl Pts',(-4.19093872275203,30.,9.35319696526293));
#357=CARTESIAN_POINT('Ctrl Pts',(-2.23801369899127,30.,9.80037605962848));
#358=CARTESIAN_POINT('Ctrl Pts',(-0.773319931170696,30.,10.1357603804026));
#359=CARTESIAN_POINT('Ctrl Pts',(0.770839800817641,30.,10.1332909969935));
#360=CARTESIAN_POINT('Ctrl Pts',(2.23703696501962,30.,9.79831606655793));
#361=CARTESIAN_POINT('Ctrl Pts',(3.7032341292216,30.,9.46334113612238));
#362=CARTESIAN_POINT('Ctrl Pts',(5.09146872563722,30.,8.79586065866041));
#363=CARTESIAN_POINT('Ctrl Pts',(6.26652928884218,30.,7.85885936861952));
#364=CARTESIAN_POINT('Ctrl Pts',(7.44158985204714,30.,6.92185807857862));
#365=CARTESIAN_POINT('Ctrl Pts',(8.40347638204143,30.,5.71533597595879));
#366=CARTESIAN_POINT('Ctrl Pts',(9.05570095855182,30.,4.36075716609546));
#367=CARTESIAN_POINT('Ctrl Pts',(9.7079255350622,30.,3.00617835623214));
#368=CARTESIAN_POINT('Ctrl Pts',(10.0504881580887,30.,1.50354283912532));
#369=CARTESIAN_POINT('Ctrl Pts',(10.0504881580887,30.,-4.46864767411626E-14));
#370=CARTESIAN_POINT('Origin',(0.,31.836648172733,0.));
#371=CARTESIAN_POINT('',(3.39941589709392,27.1787792164217,-0.000675815865367191));
#372=CARTESIAN_POINT('',(14.2083413048564,31.836648172733,1.74001997001856E-15));
#373=CARTESIAN_POINT('',(-3.40208532621496,27.1787792164221,-1.2490009027033E-14));
#374=CARTESIAN_POINT('Ctrl Pts',(-3.40208532621496,27.1787792164221,-1.2490009027033E-14));
#375=CARTESIAN_POINT('Ctrl Pts',(-3.40208532621495,27.1787792164221,1.01789691659604));
#376=CARTESIAN_POINT('Ctrl Pts',(-2.42854539074349,27.1787792164218,3.0426099473329));
#377=CARTESIAN_POINT('Ctrl Pts',(0.868900731770861,27.1787792164217,3.79820251525969));
#378=CARTESIAN_POINT('Ctrl Pts',(3.06668000817775,27.1787792164217,2.04121376802352));
#379=CARTESIAN_POINT('Ctrl Pts',(3.39886620048338,27.1787792164217,0.509776779264163));
#380=CARTESIAN_POINT('Ctrl Pts',(3.39941589709392,27.1787792164217,-0.000675815865367226));
#381=CARTESIAN_POINT('Ctrl Pts',(3.39941589709392,27.1787792164217,-0.000675815865367226));
#382=CARTESIAN_POINT('Ctrl Pts',(3.39996559370445,27.1787792164217,-0.511128410994896));
#383=CARTESIAN_POINT('Ctrl Pts',(3.07107758106207,27.1787792164217,-2.04240699301272));
#384=CARTESIAN_POINT('Ctrl Pts',(0.861695491148923,27.1787792164217,-3.79833969530537));
#385=CARTESIAN_POINT('Ctrl Pts',(-1.8740825307734,27.1787792164218,-3.16696036028513));
#386=CARTESIAN_POINT('Ctrl Pts',(-3.16700299008747,27.1787792164219,-1.52199966829879));
#387=CARTESIAN_POINT('Ctrl Pts',(-3.40208532621467,27.1787792164219,-0.508948458297924));
#388=CARTESIAN_POINT('Ctrl Pts',(-3.40208532621467,27.1787792164219,1.33226762955019E-14));
#389=CARTESIAN_POINT('Origin',(0.,30.,0.));
#390=CARTESIAN_POINT('',(15.,30.,1.83697019872103E-15));
#391=CARTESIAN_POINT('Origin',(0.,30.,0.));
#392=CARTESIAN_POINT('Ctrl Pts',(-3.40208532621467,27.1787792164219,1.33226762955019E-14));
#393=CARTESIAN_POINT('Ctrl Pts',(-3.40208532621467,27.1787792164219,-0.508948458297924));
#394=CARTESIAN_POINT('Ctrl Pts',(-3.16700299008747,27.1787792164219,-1.52199966829879));
#395=CARTESIAN_POINT('Ctrl Pts',(-1.8740825307734,27.1787792164218,-3.16696036028513));
#396=CARTESIAN_POINT('Ctrl Pts',(0.861695491148923,27.1787792164217,-3.79833969530537));
#397=CARTESIAN_POINT('Ctrl Pts',(3.5129539990447,27.1787792164217,-1.69122045255419));
#398=CARTESIAN_POINT('Ctrl Pts',(3.50623586345913,27.1787792164217,1.68981601857628));
#399=CARTESIAN_POINT('Ctrl Pts',(0.868900731770861,27.1787792164217,3.79820251525969));
#400=CARTESIAN_POINT('Ctrl Pts',(-2.42854539074349,27.1787792164218,3.0426099473329));
#401=CARTESIAN_POINT('Ctrl Pts',(-3.40208532621495,27.1787792164221,1.01789691659604));
#402=CARTESIAN_POINT('Ctrl Pts',(-3.40208532621496,27.1787792164221,-1.2490009027033E-14));
#403=CARTESIAN_POINT('Ctrl Pts',(-3.31793725798347,27.1425084973568,1.85017785522916E-14));
#404=CARTESIAN_POINT('Ctrl Pts',(-3.31793725798347,27.1425084973568,-0.496353829349972));
#405=CARTESIAN_POINT('Ctrl Pts',(-3.08866406188942,27.1425084973568,-1.48434792668183));
#406=CARTESIAN_POINT('Ctrl Pts',(-1.82772528436196,27.1425084973567,-3.08861373545843));
#407=CARTESIAN_POINT('Ctrl Pts',(0.840378765298806,27.1425084973566,-3.70437647219055));
#408=CARTESIAN_POINT('Ctrl Pts',(3.42604608754144,27.1425084973566,-1.64938549258095));
#409=CARTESIAN_POINT('Ctrl Pts',(3.41949873916764,27.1425084973566,1.6480150047097));
#410=CARTESIAN_POINT('Ctrl Pts',(0.847406531798759,27.1425084973566,3.70423785113489));
#411=CARTESIAN_POINT('Ctrl Pts',(-2.36846898668639,27.1425084973567,2.96734431416022));
#412=CARTESIAN_POINT('Ctrl Pts',(-3.31793725798368,27.142508497357,0.992707658700115));
#413=CARTESIAN_POINT('Ctrl Pts',(-3.31793725798369,27.142508497357,-2.76339631737557E-14));
#414=CARTESIAN_POINT('Ctrl Pts',(-3.15558894855193,27.0119977378845,3.26061235997756E-14));
#415=CARTESIAN_POINT('Ctrl Pts',(-3.15558894855193,27.0119977378845,-0.472140461780448));
#416=CARTESIAN_POINT('Ctrl Pts',(-2.93759913190966,27.0119977378845,-1.4117919856355));
#417=CARTESIAN_POINT('Ctrl Pts',(-1.73833190823167,27.0119977378844,-2.93765556293038));
#418=CARTESIAN_POINT('Ctrl Pts',(0.7992982349711,27.0119977378844,-3.52328749341357));
#419=CARTESIAN_POINT('Ctrl Pts',(3.25861757965999,27.0119977378844,-1.56872637983099));
#420=CARTESIAN_POINT('Ctrl Pts',(3.25233554597517,27.0119977378843,1.5674323840705));
#421=CARTESIAN_POINT('Ctrl Pts',(0.805973284035459,27.0119977378844,3.52321326744504));
#422=CARTESIAN_POINT('Ctrl Pts',(-2.25267548895234,27.0119977378844,2.82225703475866));
#423=CARTESIAN_POINT('Ctrl Pts',(-3.15558894855198,27.0119977378847,0.94428092356103));
#424=CARTESIAN_POINT('Ctrl Pts',(-3.155588948552,27.0119977378847,-6.85413658428261E-14));
#425=CARTESIAN_POINT('Ctrl Pts',(-3.1,26.8112493861798,4.80372638598717E-14));
#426=CARTESIAN_POINT('Ctrl Pts',(-3.1,26.8112493861798,-0.463595969949297));
#427=CARTESIAN_POINT('Ctrl Pts',(-2.88564946780259,26.8112493861798,-1.38669312368172));
#428=CARTESIAN_POINT('Ctrl Pts',(-1.70759147712183,26.8112493861798,-2.88538231045069));
#429=CARTESIAN_POINT('Ctrl Pts',(0.785095231616135,26.8112493861797,-3.46070153997104));
#430=CARTESIAN_POINT('Ctrl Pts',(3.20056530096003,26.8112493861798,-1.54094895136344));
#431=CARTESIAN_POINT('Ctrl Pts',(3.19456420762326,26.8112493861797,1.53964857206911));
#432=CARTESIAN_POINT('Ctrl Pts',(0.791680052327705,26.8112493861798,3.46045042123787));
#433=CARTESIAN_POINT('Ctrl Pts',(-2.21269269328901,26.8112493861798,2.7722111387291));
#434=CARTESIAN_POINT('Ctrl Pts',(-3.1,26.8112493861798,0.927191939898717));
#435=CARTESIAN_POINT('Ctrl Pts',(-3.10000000000002,26.8112493861798,-1.12686148830673E-13));
#436=CARTESIAN_POINT('Ctrl Pts',(-3.1,26.7196171732384,5.42621503285545E-14));
#437=CARTESIAN_POINT('Ctrl Pts',(-3.1,26.7196171732384,-0.46375680485332));
#438=CARTESIAN_POINT('Ctrl Pts',(-2.88579160364416,26.7196171732384,-1.38685497843653));
#439=CARTESIAN_POINT('Ctrl Pts',(-1.70767493708399,26.7196171732384,-2.88575275911992));
#440=CARTESIAN_POINT('Ctrl Pts',(0.785181959423218,26.7196171732384,-3.46106929321185));
#441=CARTESIAN_POINT('Ctrl Pts',(3.20102418158843,26.7196171732385,-1.54104994443281));
#442=CARTESIAN_POINT('Ctrl Pts',(3.19490257724334,26.7196171732384,1.53977021599746));
#443=CARTESIAN_POINT('Ctrl Pts',(0.791747416719692,26.7196171732384,3.46094429395387));
#444=CARTESIAN_POINT('Ctrl Pts',(-2.21290473031207,26.7196171732384,2.77244393726827));
#445=CARTESIAN_POINT('Ctrl Pts',(-3.10000000000001,26.7196171732384,0.927513609706769));
#446=CARTESIAN_POINT('Ctrl Pts',(-3.10000000000002,26.7196171732384,-1.30381816454417E-13));
#447=CARTESIAN_POINT('',(-3.1,26.7196171732384,5.42621503285545E-14));
#448=CARTESIAN_POINT('Ctrl Pts',(-3.40208532621415,27.1787792164217,1.33226762955342E-14));
#449=CARTESIAN_POINT('Ctrl Pts',(-3.31793725798313,27.1425084973566,1.85017785523209E-14));
#450=CARTESIAN_POINT('Ctrl Pts',(-3.23676310326759,27.0772531176205,2.5553951076049E-14));
#451=CARTESIAN_POINT('Ctrl Pts',(-3.18227878877183,26.9944383398264,3.29378224029286E-14));
#452=CARTESIAN_POINT('Ctrl Pts',(-3.12779447427597,26.9116235620322,4.03216937298232E-14));
#453=CARTESIAN_POINT('Ctrl Pts',(-3.10000000000001,26.8112493861798,4.80372638598707E-14));
#454=CARTESIAN_POINT('Ctrl Pts',(-3.1,26.7196171732384,5.42621503285533E-14));
#455=CARTESIAN_POINT('Ctrl Pts',(-3.1,26.7196171732384,5.42621503285545E-14));
#456=CARTESIAN_POINT('Ctrl Pts',(-3.1,26.7196171732384,-0.46375680485332));
#457=CARTESIAN_POINT('Ctrl Pts',(-2.88579160364416,26.7196171732384,-1.38685497843653));
#458=CARTESIAN_POINT('Ctrl Pts',(-1.70767493708399,26.7196171732384,-2.88575275911992));
#459=CARTESIAN_POINT('Ctrl Pts',(0.785181959423218,26.7196171732384,-3.46106929321185));
#460=CARTESIAN_POINT('Ctrl Pts',(3.20102418158843,26.7196171732385,-1.54104994443281));
#461=CARTESIAN_POINT('Ctrl Pts',(3.19490257724334,26.7196171732384,1.53977021599746));
#462=CARTESIAN_POINT('Ctrl Pts',(0.791747416719692,26.7196171732384,3.46094429395387));
#463=CARTESIAN_POINT('Ctrl Pts',(-2.21290473031207,26.7196171732384,2.77244393726827));
#464=CARTESIAN_POINT('Ctrl Pts',(-3.10000000000001,26.7196171732384,0.927513609706769));
#465=CARTESIAN_POINT('Ctrl Pts',(-3.10000000000002,26.7196171732384,-1.30381816454417E-13));
#466=CARTESIAN_POINT('Origin',(0.,25.000000372529,0.));
#467=CARTESIAN_POINT('',(-3.1,25.000000372529,-3.7964050773568E-16));
#468=CARTESIAN_POINT('Origin',(0.,25.000000372529,0.));
#469=CARTESIAN_POINT('',(-3.1,25.000000372529,3.7964050773568E-16));
#470=CARTESIAN_POINT('Origin',(0.,25.000000372529,0.));
#471=CARTESIAN_POINT('Origin',(0.,30.,0.));
#472=CARTESIAN_POINT('',(15.,30.,1.83697019872103E-15));
#473=UNCERTAINTY_MEASURE_WITH_UNIT(LENGTH_MEASURE(0.01),#477,
'DISTANCE_ACCURACY_VALUE',
'Maximum model space distance between geometric entities at asserted c
onnectivities');
#474=UNCERTAINTY_MEASURE_WITH_UNIT(LENGTH_MEASURE(0.01),#477,
'DISTANCE_ACCURACY_VALUE',
'Maximum model space distance between geometric entities at asserted c
onnectivities');
#475=(
GEOMETRIC_REPRESENTATION_CONTEXT(3)
GLOBAL_UNCERTAINTY_ASSIGNED_CONTEXT((#473))
GLOBAL_UNIT_ASSIGNED_CONTEXT((#477,#479,#480))
REPRESENTATION_CONTEXT('','3D')
);
#476=(
GEOMETRIC_REPRESENTATION_CONTEXT(3)
GLOBAL_UNCERTAINTY_ASSIGNED_CONTEXT((#474))
GLOBAL_UNIT_ASSIGNED_CONTEXT((#477,#479,#480))
REPRESENTATION_CONTEXT('','3D')
);
#477=(
LENGTH_UNIT()
NAMED_UNIT(*)
SI_UNIT(.MILLI.,.METRE.)
);
#478=(
LENGTH_UNIT()
NAMED_UNIT(*)
SI_UNIT($,.METRE.)
);
#479=(
NAMED_UNIT(*)
PLANE_ANGLE_UNIT()
SI_UNIT($,.RADIAN.)
);
#480=(
NAMED_UNIT(*)
SI_UNIT($,.STERADIAN.)
SOLID_ANGLE_UNIT()
);
#481=SHAPE_DEFINITION_REPRESENTATION(#482,#483);
#482=PRODUCT_DEFINITION_SHAPE('',$,#485);
#483=SHAPE_REPRESENTATION('',(#167),#475);
#484=PRODUCT_DEFINITION_CONTEXT('part definition',#489,'design');
#485=PRODUCT_DEFINITION('2026-09-20-00-38-38-520','Hopper_1',#486,#484);
#486=PRODUCT_DEFINITION_FORMATION('',$,#491);
#487=PRODUCT_RELATED_PRODUCT_CATEGORY('Hopper_1','Hopper_1',(#491));
#488=APPLICATION_PROTOCOL_DEFINITION('international standard',
'automotive_design',2009,#489);
#489=APPLICATION_CONTEXT(
'Core Data for Automotive Mechanical Design Process');
#490=PRODUCT_CONTEXT('part definition',#489,'mechanical');
#491=PRODUCT('2026-09-20-00-38-38-520','Hopper_1',$,(#490));
#492=PRESENTATION_STYLE_ASSIGNMENT((#493));
#493=SURFACE_STYLE_USAGE(.BOTH.,#494);
#494=SURFACE_SIDE_STYLE('',(#495));
#495=SURFACE_STYLE_FILL_AREA(#496);
#496=FILL_AREA_STYLE('Steel - Satin',(#497));
#497=FILL_AREA_STYLE_COLOUR('Steel - Satin',#498);
#498=COLOUR_RGB('Steel - Satin',0.627450980392157,0.627450980392157,0.627450980392157);
ENDSEC;
END-ISO-10303-21;
