ISO-10303-21;
HEADER;
/* Generated by software containing ST-Developer
 * from STEP Tools, Inc. (www.steptools.com) 
 */

FILE_DESCRIPTION(
/* description */ (''),
/* implementation_level */ '2;1');

FILE_NAME(
/* name */ 'Hopper.step',
/* time_stamp */ '2026-09-20T18:20:31+05:30',
/* author */ (''),
/* organization */ (''),
/* preprocessor_version */ 'ST-DEVELOPER v20.2',
/* originating_system */ 'Autodesk Translation Framework v15.15.0.0',
/* authorisation */ '');

FILE_SCHEMA (('AUTOMOTIVE_DESIGN { 1 0 10303 214 3 1 1 }'));
ENDSEC;

DATA;
#10=MECHANICAL_DESIGN_GEOMETRIC_PRESENTATION_REPRESENTATION('',(#13),#787);
#11=SHAPE_REPRESENTATION_RELATIONSHIP('SRR','None',#794,#12);
#12=ADVANCED_BREP_SHAPE_REPRESENTATION('',(#14),#786);
#13=STYLED_ITEM('',(#803),#14);
#14=MANIFOLD_SOLID_BREP('Body3',#132);
#15=LINE('',#244,#17);
#16=LINE('',#246,#18);
#17=VECTOR('',#176,3.2);
#18=VECTOR('',#179,3.2);
#19=CYLINDRICAL_SURFACE('',#151,3.2);
#20=CYLINDRICAL_SURFACE('',#154,3.1);
#21=FACE_BOUND('',#35,.T.);
#22=FACE_BOUND('',#41,.T.);
#23=PLANE('',#148);
#24=PLANE('',#156);
#25=FACE_OUTER_BOUND('',#33,.T.);
#26=FACE_OUTER_BOUND('',#34,.T.);
#27=FACE_OUTER_BOUND('',#36,.T.);
#28=FACE_OUTER_BOUND('',#37,.T.);
#29=FACE_OUTER_BOUND('',#38,.T.);
#30=FACE_OUTER_BOUND('',#39,.T.);
#31=FACE_OUTER_BOUND('',#40,.T.);
#32=FACE_OUTER_BOUND('',#42,.T.);
#33=EDGE_LOOP('',(#86,#87,#88,#89));
#34=EDGE_LOOP('',(#90));
#35=EDGE_LOOP('',(#91));
#36=EDGE_LOOP('',(#92,#93,#94,#95,#96));
#37=EDGE_LOOP('',(#97,#98,#99,#100,#101));
#38=EDGE_LOOP('',(#102,#103,#104,#105,#106));
#39=EDGE_LOOP('',(#107,#108,#109,#110,#111,#112));
#40=EDGE_LOOP('',(#113));
#41=EDGE_LOOP('',(#114));
#42=EDGE_LOOP('',(#115,#116,#117,#118,#119));
#43=CIRCLE('',#146,4.25);
#44=CIRCLE('',#147,3.1);
#45=CIRCLE('',#149,3.2);
#46=CIRCLE('',#150,3.1);
#47=CIRCLE('',#152,3.2);
#48=CIRCLE('',#153,3.2);
#49=CIRCLE('',#155,3.1);
#50=CIRCLE('',#157,15.);
#51=B_SPLINE_CURVE_WITH_KNOTS('',3,(#219,#220,#221,#222,#223),
 .UNSPECIFIED.,.F.,.F.,(4,1,4),(-1.,-0.571428571428571,0.),
 .UNSPECIFIED.);
#52=B_SPLINE_CURVE_WITH_KNOTS('',3,(#225,#226,#227,#228,#229,#230),
 .UNSPECIFIED.,.F.,.F.,(4,1,1,4),(-2.9358430314542E-16,0.314676349283167,
0.629352698566334,1.10136722249109),.UNSPECIFIED.);
#53=B_SPLINE_CURVE_WITH_KNOTS('',3,(#344,#345,#346,#347,#348,#349,#350,
#351),.UNSPECIFIED.,.F.,.F.,(4,1,1,1,1,4),(-7.70763640005394,-7.70741888475426,
-7.34036898235713,-6.97331907995999,-6.78979412876143,-6.60630816019611),
 .UNSPECIFIED.);
#54=B_SPLINE_CURVE_WITH_KNOTS('',3,(#352,#353,#354,#355,#356,#357,#358,
#359,#360,#361,#362,#363,#364,#365,#366),.UNSPECIFIED.,.F.,.F.,(4,1,1,1,
1,1,1,1,1,1,1,1,4),(-6.60630816019611,-6.60626917756286,-6.4227894688472,
-6.23930976013154,-6.05583005141587,-5.87235034270021,-5.50539092526889,
-5.32190940626945,-5.13842788727002,-4.95494636827058,-4.77146484927115,
-4.58798333027171,-4.40450181127228),.UNSPECIFIED.);
#55=B_SPLINE_CURVE_WITH_KNOTS('',3,(#654,#655,#656,#657,#658,#659,#660,
#661,#662,#663,#664,#665,#666),.UNSPECIFIED.,.F.,.F.,(4,1,1,1,1,1,1,1,1,
1,4),(0.,0.0599668837477205,0.119933767495441,0.179900651243162,0.239867534990882,
0.269850976864742,0.299834418738603,0.359801302486323,0.479735069981764,
0.599668837477205,0.839208384988816),.UNSPECIFIED.);
#56=B_SPLINE_CURVE_WITH_KNOTS('',3,(#667,#668,#669,#670,#671,#672,#673,
#674,#675,#676,#677,#678,#679,#680,#681,#682,#683,#684,#685,#686,#687,#688),
 .UNSPECIFIED.,.T.,.F.,(4,1,1,1,2,1,1,1,2,1,1,1,2,1,1,1,4),(-1.,-0.9375,
-0.875,-0.8125,-0.75,-0.6875,-0.625,-0.5625,-0.5,-0.4375,-0.375,-0.3125,
-0.25,-0.1875,-0.125,-0.0625,0.),.UNSPECIFIED.);
#57=B_SPLINE_CURVE_WITH_KNOTS('',3,(#780,#781,#782,#783),.UNSPECIFIED.,
 .F.,.F.,(4,4),(0.,1.),.UNSPECIFIED.);
#58=VERTEX_POINT('',#217);
#59=VERTEX_POINT('',#218);
#60=VERTEX_POINT('',#224);
#61=VERTEX_POINT('',#231);
#62=VERTEX_POINT('',#235);
#63=VERTEX_POINT('',#237);
#64=VERTEX_POINT('',#240);
#65=VERTEX_POINT('',#241);
#66=VERTEX_POINT('',#343);
#67=VERTEX_POINT('',#653);
#68=VERTEX_POINT('',#690);
#69=EDGE_CURVE('',#58,#59,#51,.T.);
#70=EDGE_CURVE('',#58,#60,#52,.T.);
#71=EDGE_CURVE('',#60,#61,#43,.T.);
#72=EDGE_CURVE('',#59,#61,#44,.T.);
#73=EDGE_CURVE('',#62,#62,#45,.T.);
#74=EDGE_CURVE('',#63,#63,#46,.T.);
#75=EDGE_CURVE('',#64,#65,#47,.T.);
#76=EDGE_CURVE('',#65,#64,#48,.T.);
#77=EDGE_CURVE('',#65,#62,#15,.T.);
#78=EDGE_CURVE('',#63,#59,#16,.T.);
#79=EDGE_CURVE('',#61,#59,#49,.T.);
#80=EDGE_CURVE('',#60,#66,#53,.T.);
#81=EDGE_CURVE('',#66,#58,#54,.T.);
#82=EDGE_CURVE('',#67,#66,#55,.T.);
#83=EDGE_CURVE('',#67,#67,#56,.T.);
#84=EDGE_CURVE('',#68,#68,#50,.T.);
#85=EDGE_CURVE('',#68,#64,#57,.T.);
#86=ORIENTED_EDGE('',*,*,#69,.F.);
#87=ORIENTED_EDGE('',*,*,#70,.T.);
#88=ORIENTED_EDGE('',*,*,#71,.T.);
#89=ORIENTED_EDGE('',*,*,#72,.F.);
#90=ORIENTED_EDGE('',*,*,#73,.F.);
#91=ORIENTED_EDGE('',*,*,#74,.T.);
#92=ORIENTED_EDGE('',*,*,#75,.F.);
#93=ORIENTED_EDGE('',*,*,#76,.F.);
#94=ORIENTED_EDGE('',*,*,#77,.T.);
#95=ORIENTED_EDGE('',*,*,#73,.T.);
#96=ORIENTED_EDGE('',*,*,#77,.F.);
#97=ORIENTED_EDGE('',*,*,#74,.F.);
#98=ORIENTED_EDGE('',*,*,#78,.T.);
#99=ORIENTED_EDGE('',*,*,#72,.T.);
#100=ORIENTED_EDGE('',*,*,#79,.T.);
#101=ORIENTED_EDGE('',*,*,#78,.F.);
#102=ORIENTED_EDGE('',*,*,#69,.T.);
#103=ORIENTED_EDGE('',*,*,#79,.F.);
#104=ORIENTED_EDGE('',*,*,#71,.F.);
#105=ORIENTED_EDGE('',*,*,#80,.T.);
#106=ORIENTED_EDGE('',*,*,#81,.T.);
#107=ORIENTED_EDGE('',*,*,#81,.F.);
#108=ORIENTED_EDGE('',*,*,#82,.F.);
#109=ORIENTED_EDGE('',*,*,#83,.F.);
#110=ORIENTED_EDGE('',*,*,#82,.T.);
#111=ORIENTED_EDGE('',*,*,#80,.F.);
#112=ORIENTED_EDGE('',*,*,#70,.F.);
#113=ORIENTED_EDGE('',*,*,#84,.T.);
#114=ORIENTED_EDGE('',*,*,#83,.T.);
#115=ORIENTED_EDGE('',*,*,#84,.F.);
#116=ORIENTED_EDGE('',*,*,#85,.T.);
#117=ORIENTED_EDGE('',*,*,#75,.T.);
#118=ORIENTED_EDGE('',*,*,#76,.T.);
#119=ORIENTED_EDGE('',*,*,#85,.F.);
#120=B_SPLINE_SURFACE_WITH_KNOTS('',3,3,((#187,#188,#189,#190,#191,#192),
(#193,#194,#195,#196,#197,#198),(#199,#200,#201,#202,#203,#204),(#205,#206,
#207,#208,#209,#210),(#211,#212,#213,#214,#215,#216)),.UNSPECIFIED.,.F.,
 .F.,.F.,(4,1,4),(4,1,1,4),(0.,0.571428571428571,1.),(-1.10136722249109,
-0.629352698566334,-0.314676349283167,2.9358430314542E-16),
 .UNSPECIFIED.);
#121=B_SPLINE_SURFACE_WITH_KNOTS('',3,3,((#248,#249,#250,#251,#252,#253,
#254,#255,#256,#257,#258,#259,#260,#261,#262,#263,#264,#265,#266),(#267,
#268,#269,#270,#271,#272,#273,#274,#275,#276,#277,#278,#279,#280,#281,#282,
#283,#284,#285),(#286,#287,#288,#289,#290,#291,#292,#293,#294,#295,#296,
#297,#298,#299,#300,#301,#302,#303,#304),(#305,#306,#307,#308,#309,#310,
#311,#312,#313,#314,#315,#316,#317,#318,#319,#320,#321,#322,#323),(#324,
#325,#326,#327,#328,#329,#330,#331,#332,#333,#334,#335,#336,#337,#338,#339,
#340,#341,#342)),.UNSPECIFIED.,.F.,.F.,.F.,(4,1,4),(4,1,1,1,1,1,1,1,1,1,
1,1,1,1,1,1,4),(0.,0.571428571428571,1.),(4.40450181127228,4.58798333027171,
4.77146484927115,4.95494636827058,5.13842788727002,5.32190940626945,5.50539092526889,
5.87235034270021,6.05583005141587,6.23930976013154,6.4227894688472,6.60626917756286,
6.78979412876143,6.97331907995999,7.34036898235713,7.70741888475426,7.70763640005394),
 .UNSPECIFIED.);
#122=B_SPLINE_SURFACE_WITH_KNOTS('',3,3,((#367,#368,#369,#370,#371,#372,
#373,#374,#375,#376,#377,#378,#379),(#380,#381,#382,#383,#384,#385,#386,
#387,#388,#389,#390,#391,#392),(#393,#394,#395,#396,#397,#398,#399,#400,
#401,#402,#403,#404,#405),(#406,#407,#408,#409,#410,#411,#412,#413,#414,
#415,#416,#417,#418),(#419,#420,#421,#422,#423,#424,#425,#426,#427,#428,
#429,#430,#431),(#432,#433,#434,#435,#436,#437,#438,#439,#440,#441,#442,
#443,#444),(#445,#446,#447,#448,#449,#450,#451,#452,#453,#454,#455,#456,
#457),(#458,#459,#460,#461,#462,#463,#464,#465,#466,#467,#468,#469,#470),
(#471,#472,#473,#474,#475,#476,#477,#478,#479,#480,#481,#482,#483),(#484,
#485,#486,#487,#488,#489,#490,#491,#492,#493,#494,#495,#496),(#497,#498,
#499,#500,#501,#502,#503,#504,#505,#506,#507,#508,#509),(#510,#511,#512,
#513,#514,#515,#516,#517,#518,#519,#520,#521,#522),(#523,#524,#525,#526,
#527,#528,#529,#530,#531,#532,#533,#534,#535),(#536,#537,#538,#539,#540,
#541,#542,#543,#544,#545,#546,#547,#548),(#549,#550,#551,#552,#553,#554,
#555,#556,#557,#558,#559,#560,#561),(#562,#563,#564,#565,#566,#567,#568,
#569,#570,#571,#572,#573,#574),(#575,#576,#577,#578,#579,#580,#581,#582,
#583,#584,#585,#586,#587),(#588,#589,#590,#591,#592,#593,#594,#595,#596,
#597,#598,#599,#600),(#601,#602,#603,#604,#605,#606,#607,#608,#609,#610,
#611,#612,#613),(#614,#615,#616,#617,#618,#619,#620,#621,#622,#623,#624,
#625,#626),(#627,#628,#629,#630,#631,#632,#633,#634,#635,#636,#637,#638,
#639),(#640,#641,#642,#643,#644,#645,#646,#647,#648,#649,#650,#651,#652)),
 .UNSPECIFIED.,.T.,.F.,.F.,(4,1,1,1,2,1,1,1,2,1,1,1,2,1,1,1,4),(4,1,1,1,
1,1,1,1,1,1,4),(0.,0.0625,0.125,0.1875,0.25,0.3125,0.375,0.4375,0.5,0.5625,
0.625,0.6875,0.75,0.8125,0.875,0.9375,1.),(0.,0.0599668837477205,0.119933767495441,
0.179900651243162,0.239867534990882,0.269850976864742,0.299834418738603,
0.359801302486323,0.479735069981764,0.599668837477205,0.839536372468087),
 .UNSPECIFIED.);
#123=B_SPLINE_SURFACE_WITH_KNOTS('',3,3,((#692,#693,#694,#695),(#696,#697,
#698,#699),(#700,#701,#702,#703),(#704,#705,#706,#707),(#708,#709,#710,
#711),(#712,#713,#714,#715),(#716,#717,#718,#719),(#720,#721,#722,#723),
(#724,#725,#726,#727),(#728,#729,#730,#731),(#732,#733,#734,#735),(#736,
#737,#738,#739),(#740,#741,#742,#743),(#744,#745,#746,#747),(#748,#749,
#750,#751),(#752,#753,#754,#755),(#756,#757,#758,#759),(#760,#761,#762,
#763),(#764,#765,#766,#767),(#768,#769,#770,#771),(#772,#773,#774,#775),
(#776,#777,#778,#779)),.UNSPECIFIED.,.T.,.F.,.F.,(4,1,1,1,2,1,1,1,2,1,1,
1,2,1,1,1,4),(4,4),(0.,0.0625,0.125,0.1875,0.25,0.3125,0.375,0.4375,0.5,
0.5625,0.625,0.6875,0.75,0.8125,0.875,0.9375,1.),(0.,1.),.UNSPECIFIED.);
#124=ADVANCED_FACE('',(#25),#120,.F.);
#125=ADVANCED_FACE('',(#26,#21),#23,.F.);
#126=ADVANCED_FACE('',(#27),#19,.T.);
#127=ADVANCED_FACE('',(#28),#20,.F.);
#128=ADVANCED_FACE('',(#29),#121,.F.);
#129=ADVANCED_FACE('',(#30),#122,.T.);
#130=ADVANCED_FACE('',(#31,#22),#24,.T.);
#131=ADVANCED_FACE('',(#32),#123,.F.);
#132=CLOSED_SHELL('',(#124,#125,#126,#127,#128,#129,#130,#131));
#133=DERIVED_UNIT_ELEMENT(#135,1.);
#134=DERIVED_UNIT_ELEMENT(#789,-3.);
#135=(
MASS_UNIT()
NAMED_UNIT(*)
SI_UNIT(.KILO.,.GRAM.)
);
#136=DERIVED_UNIT((#133,#134));
#137=MEASURE_REPRESENTATION_ITEM('density measure',
POSITIVE_RATIO_MEASURE(7850.),#136);
#138=PROPERTY_DEFINITION_REPRESENTATION(#143,#140);
#139=PROPERTY_DEFINITION_REPRESENTATION(#144,#141);
#140=REPRESENTATION('material name',(#142),#786);
#141=REPRESENTATION('density',(#137),#786);
#142=DESCRIPTIVE_REPRESENTATION_ITEM('Steel','Steel');
#143=PROPERTY_DEFINITION('material property','material name',#796);
#144=PROPERTY_DEFINITION('material property','density of part',#796);
#145=AXIS2_PLACEMENT_3D('',#186,#158,#159);
#146=AXIS2_PLACEMENT_3D('',#232,#160,#161);
#147=AXIS2_PLACEMENT_3D('',#233,#162,#163);
#148=AXIS2_PLACEMENT_3D('',#234,#164,#165);
#149=AXIS2_PLACEMENT_3D('',#236,#166,#167);
#150=AXIS2_PLACEMENT_3D('',#238,#168,#169);
#151=AXIS2_PLACEMENT_3D('',#239,#170,#171);
#152=AXIS2_PLACEMENT_3D('',#242,#172,#173);
#153=AXIS2_PLACEMENT_3D('',#243,#174,#175);
#154=AXIS2_PLACEMENT_3D('',#245,#177,#178);
#155=AXIS2_PLACEMENT_3D('',#247,#180,#181);
#156=AXIS2_PLACEMENT_3D('',#689,#182,#183);
#157=AXIS2_PLACEMENT_3D('',#691,#184,#185);
#158=DIRECTION('axis',(0.,0.,1.));
#159=DIRECTION('refdir',(1.,0.,0.));
#160=DIRECTION('center_axis',(-0.999999953551103,1.70610848078119E-5,-0.000304313507094536));
#161=DIRECTION('ref_axis',(6.49399458536311E-5,0.987432940607441,-0.158038550949272));
#162=DIRECTION('center_axis',(0.,1.,0.));
#163=DIRECTION('ref_axis',(1.,0.,0.));
#164=DIRECTION('center_axis',(0.,1.,0.));
#165=DIRECTION('ref_axis',(1.,0.,0.));
#166=DIRECTION('center_axis',(0.,1.,0.));
#167=DIRECTION('ref_axis',(1.,0.,0.));
#168=DIRECTION('center_axis',(0.,1.,0.));
#169=DIRECTION('ref_axis',(1.,0.,0.));
#170=DIRECTION('center_axis',(0.,1.,0.));
#171=DIRECTION('ref_axis',(1.,0.,0.));
#172=DIRECTION('center_axis',(0.,1.,0.));
#173=DIRECTION('ref_axis',(1.,0.,0.));
#174=DIRECTION('center_axis',(0.,1.,0.));
#175=DIRECTION('ref_axis',(1.,0.,0.));
#176=DIRECTION('',(0.,-1.,0.));
#177=DIRECTION('center_axis',(0.,1.,0.));
#178=DIRECTION('ref_axis',(1.,0.,0.));
#179=DIRECTION('',(0.,1.,0.));
#180=DIRECTION('center_axis',(0.,1.,0.));
#181=DIRECTION('ref_axis',(1.,0.,0.));
#182=DIRECTION('center_axis',(0.,1.,0.));
#183=DIRECTION('ref_axis',(0.,0.,1.));
#184=DIRECTION('center_axis',(0.,1.,0.));
#185=DIRECTION('ref_axis',(-1.,0.,0.));
#186=CARTESIAN_POINT('',(0.,0.,0.));
#187=CARTESIAN_POINT('Ctrl Pts',(-0.000964560002593637,25.000000372529,
3.09999984993935));
#188=CARTESIAN_POINT('Ctrl Pts',(-0.698668598061854,25.000000372529,3.09978276044215));
#189=CARTESIAN_POINT('Ctrl Pts',(-1.85314732275256,25.000000372529,2.69131925430102));
#190=CARTESIAN_POINT('Ctrl Pts',(-2.88880174301308,25.000000372529,1.3876150874343));
#191=CARTESIAN_POINT('Ctrl Pts',(-3.10000000000007,25.000000372529,0.461542488949401));
#192=CARTESIAN_POINT('Ctrl Pts',(-3.1,25.000000372529,-4.63560357022625E-13));
#193=CARTESIAN_POINT('Ctrl Pts',(-0.00104579875721772,25.7748047730478,
3.41039604411383));
#194=CARTESIAN_POINT('Ctrl Pts',(-0.757018652617902,25.7748094035366,3.41015992571453));
#195=CARTESIAN_POINT('Ctrl Pts',(-2.03242716792156,25.7823778226118,2.96137003309426));
#196=CARTESIAN_POINT('Ctrl Pts',(-3.1793944820046,25.7791981492069,1.51640956213505));
#197=CARTESIAN_POINT('Ctrl Pts',(-3.41039620740926,25.7748047698527,0.500080502608605));
#198=CARTESIAN_POINT('Ctrl Pts',(-3.41039620740919,25.7748047698528,-4.34002023884085E-13));
#199=CARTESIAN_POINT('Ctrl Pts',(-0.00131576666084827,26.9631042506766,
4.36415446262255));
#200=CARTESIAN_POINT('Ctrl Pts',(-0.953227693841652,26.9631185500444,4.36385997013345));
#201=CARTESIAN_POINT('Ctrl Pts',(-2.59469121874239,26.9860866407949,3.7987216234405));
#202=CARTESIAN_POINT('Ctrl Pts',(-4.07648721315572,26.976492868179,1.92655720079993));
#203=CARTESIAN_POINT('Ctrl Pts',(-4.36415466616,26.9631042407877,0.629683848714637));
#204=CARTESIAN_POINT('Ctrl Pts',(-4.36415466615997,26.9631042407879,-4.44211326846886E-13));
#205=CARTESIAN_POINT('Ctrl Pts',(-0.00172968723966793,27.5171655426653,
5.75539552296472));
#206=CARTESIAN_POINT('Ctrl Pts',(-1.25294521877899,27.5171872673449,5.75501488783359));
#207=CARTESIAN_POINT('Ctrl Pts',(-3.42524563665168,27.5512085931184,5.01990476119574));
#208=CARTESIAN_POINT('Ctrl Pts',(-5.3836688697774,27.5371221634387,2.53854497154227));
#209=CARTESIAN_POINT('Ctrl Pts',(-5.75539578606401,27.5171655276516,0.827668435782185));
#210=CARTESIAN_POINT('Ctrl Pts',(-5.75539578606404,27.5171655276518,-5.59023078791213E-13));
#211=CARTESIAN_POINT('Ctrl Pts',(-0.00191610547302562,27.6160976278513,
6.37352816910009));
#212=CARTESIAN_POINT('Ctrl Pts',(-1.38793582787269,27.616121645757,6.37310870198869));
#213=CARTESIAN_POINT('Ctrl Pts',(-3.79519001148341,27.6533504839682,5.56202039054366));
#214=CARTESIAN_POINT('Ctrl Pts',(-5.96397271144743,27.6379948877244,2.81209599504964));
#215=CARTESIAN_POINT('Ctrl Pts',(-6.37352845904697,27.6160976112463,0.91684060460034));
#216=CARTESIAN_POINT('Ctrl Pts',(-6.37352845904703,27.6160976112465,-6.22509497497952E-13));
#217=CARTESIAN_POINT('',(-6.37352845904703,27.6160976112465,-9.23873886720104E-13));
#218=CARTESIAN_POINT('',(-3.1,25.000000372529,3.7964050773568E-16));
#219=CARTESIAN_POINT('Ctrl Pts',(-6.37352845904703,27.6160976112465,-6.22509497497952E-13));
#220=CARTESIAN_POINT('Ctrl Pts',(-5.75539578606404,27.5171655276518,-5.59023078791213E-13));
#221=CARTESIAN_POINT('Ctrl Pts',(-4.36415466615997,26.9631042407879,-4.44211326846886E-13));
#222=CARTESIAN_POINT('Ctrl Pts',(-3.41039620740919,25.7748047698528,-4.34002023884085E-13));
#223=CARTESIAN_POINT('Ctrl Pts',(-3.1,25.000000372529,-4.63560357022625E-13));
#224=CARTESIAN_POINT('',(-0.00191610547303128,27.6160976278513,6.37352816910009));
#225=CARTESIAN_POINT('Ctrl Pts',(-6.37352845904703,27.6160976112465,-6.22509497497952E-13));
#226=CARTESIAN_POINT('Ctrl Pts',(-6.37352845904697,27.6160976112463,0.91684060460034));
#227=CARTESIAN_POINT('Ctrl Pts',(-5.96397271144743,27.6379948877244,2.81209599504964));
#228=CARTESIAN_POINT('Ctrl Pts',(-3.79519001148341,27.6533504839682,5.56202039054366));
#229=CARTESIAN_POINT('Ctrl Pts',(-1.38793582787269,27.616121645757,6.37310870198869));
#230=CARTESIAN_POINT('Ctrl Pts',(-0.00191610547302562,27.6160976278513,
6.37352816910009));
#231=CARTESIAN_POINT('',(-0.000964560002594489,25.000000372529,3.09999984993935));
#232=CARTESIAN_POINT('Origin',(-0.00219210024290921,23.4195076302697,7.0451920106345));
#233=CARTESIAN_POINT('Origin',(0.,25.000000372529,0.));
#234=CARTESIAN_POINT('Origin',(0.,0.,0.));
#235=CARTESIAN_POINT('',(-3.2,0.,3.91886975727153E-16));
#236=CARTESIAN_POINT('Origin',(0.,0.,0.));
#237=CARTESIAN_POINT('',(-3.1,0.,-3.7964050773568E-16));
#238=CARTESIAN_POINT('Origin',(0.,0.,0.));
#239=CARTESIAN_POINT('Origin',(0.,0.,0.));
#240=CARTESIAN_POINT('',(3.2,25.,-3.91886975727153E-16));
#241=CARTESIAN_POINT('',(-3.2,25.,3.91886975727153E-16));
#242=CARTESIAN_POINT('Origin',(0.,25.,0.));
#243=CARTESIAN_POINT('Origin',(0.,25.,0.));
#244=CARTESIAN_POINT('',(-3.2,0.,3.91886975727153E-16));
#245=CARTESIAN_POINT('Origin',(0.,0.,0.));
#246=CARTESIAN_POINT('',(-3.1,0.,3.7964050773568E-16));
#247=CARTESIAN_POINT('Origin',(0.,25.000000372529,0.));
#248=CARTESIAN_POINT('Ctrl Pts',(-3.1,25.000000372529,-1.01828268039839E-12));
#249=CARTESIAN_POINT('Ctrl Pts',(-3.09999999999996,25.000000372529,-0.269116243180197));
#250=CARTESIAN_POINT('Ctrl Pts',(-3.02805950377542,25.000000372529,-0.814960075175168));
#251=CARTESIAN_POINT('Ctrl Pts',(-2.7150014771009,25.000000372529,-1.56754165299573));
#252=CARTESIAN_POINT('Ctrl Pts',(-2.21646787745958,25.000000372529,-2.21842340470971));
#253=CARTESIAN_POINT('Ctrl Pts',(-1.5674567608399,25.000000372529,-2.7154980327577));
#254=CARTESIAN_POINT('Ctrl Pts',(-0.811664076366844,25.000000372529,-3.02841425284208));
#255=CARTESIAN_POINT('Ctrl Pts',(0.271217013610272,25.000000372529,-3.17258748318275));
#256=CARTESIAN_POINT('Ctrl Pts',(1.35284589737025,25.000000372529,-2.88130948535909));
#257=CARTESIAN_POINT('Ctrl Pts',(2.21848548147674,25.000000372529,-2.21600580780831));
#258=CARTESIAN_POINT('Ctrl Pts',(2.71577021391257,25.000000372529,-1.5670614095623));
#259=CARTESIAN_POINT('Ctrl Pts',(3.02881059296058,25.000000372529,-0.811512628000139));
#260=CARTESIAN_POINT('Ctrl Pts',(3.13558220126261,25.000000372529,0.00111941862057983));
#261=CARTESIAN_POINT('Ctrl Pts',(3.02900765560511,25.000000372529,0.808938351966565));
#262=CARTESIAN_POINT('Ctrl Pts',(2.61212044731846,25.000000372529,1.82192450631088));
#263=CARTESIAN_POINT('Ctrl Pts',(1.62283370808072,25.0000003725291,2.80816575986842));
#264=CARTESIAN_POINT('Ctrl Pts',(0.542206487009155,25.0000003725289,3.10024273995102));
#265=CARTESIAN_POINT('Ctrl Pts',(-0.00064304171187299,25.000000372529,3.09999994997925));
#266=CARTESIAN_POINT('Ctrl Pts',(-0.000964560002595614,25.000000372529,
3.09999984993935));
#267=CARTESIAN_POINT('Ctrl Pts',(-3.41039620740919,25.7748047698528,-9.88698688665129E-13));
#268=CARTESIAN_POINT('Ctrl Pts',(-3.4105371279747,25.7748005888924,-0.291771480655095));
#269=CARTESIAN_POINT('Ctrl Pts',(-3.33186251861736,25.7763189046433,-0.887514543637312));
#270=CARTESIAN_POINT('Ctrl Pts',(-2.98732836221518,25.779609586461,-1.71701813732063));
#271=CARTESIAN_POINT('Ctrl Pts',(-2.43474722384599,25.7810645406826,-2.43732677826777));
#272=CARTESIAN_POINT('Ctrl Pts',(-1.71767816736129,25.7796149038978,-2.98764961798443));
#273=CARTESIAN_POINT('Ctrl Pts',(-0.882500492137453,25.7762907239389,-3.33236886720018));
#274=CARTESIAN_POINT('Ctrl Pts',(0.294050580653964,25.7733427884736,-3.4895931914571));
#275=CARTESIAN_POINT('Ctrl Pts',(1.47732655078467,25.7791904544331,-3.17169286469054));
#276=CARTESIAN_POINT('Ctrl Pts',(2.43824599351318,25.7810381088697,-2.43431825777811));
#277=CARTESIAN_POINT('Ctrl Pts',(2.98745098535028,25.7796283263979,-1.71702568268901));
#278=CARTESIAN_POINT('Ctrl Pts',(3.33308898210228,25.7762796179894,-0.882728629678841));
#279=CARTESIAN_POINT('Ctrl Pts',(3.4490904170406,25.7740977975007,0.000905320827809024));
#280=CARTESIAN_POINT('Ctrl Pts',(3.33309417067929,25.7762331813465,0.880117082133386));
#281=CARTESIAN_POINT('Ctrl Pts',(2.87375113876394,25.7808983270744,1.9980876045414));
#282=CARTESIAN_POINT('Ctrl Pts',(1.77685039873173,25.7808963623691,3.09082060812475));
#283=CARTESIAN_POINT('Ctrl Pts',(0.587312016508347,25.7746951907616,3.41132291537222));
#284=CARTESIAN_POINT('Ctrl Pts',(-0.000693505561394258,25.7748063795245,
3.41039359672217));
#285=CARTESIAN_POINT('Ctrl Pts',(-0.00104579875721986,25.7748047730478,
3.41039604411383));
#286=CARTESIAN_POINT('Ctrl Pts',(-4.36415466617318,26.9631042407692,-9.40758374557329E-13));
#287=CARTESIAN_POINT('Ctrl Pts',(-4.36409330543652,26.9631038020354,-0.367052769920423));
#288=CARTESIAN_POINT('Ctrl Pts',(-4.26613884430272,26.9678019098494,-1.12298570408931));
#289=CARTESIAN_POINT('Ctrl Pts',(-3.82686313560484,26.9777588792587,-2.18788732447305));
#290=CARTESIAN_POINT('Ctrl Pts',(-3.1144907679806,26.9821720265181,-3.118203526408));
#291=CARTESIAN_POINT('Ctrl Pts',(-2.19005131180848,26.9777611468663,-3.8271784540784));
#292=CARTESIAN_POINT('Ctrl Pts',(-1.11368628745855,26.9677429971983,-4.26677724520776));
#293=CARTESIAN_POINT('Ctrl Pts',(0.369652700347427,26.9585354092641,-4.46326004463114));
#294=CARTESIAN_POINT('Ctrl Pts',(1.87603256421939,26.9764988793738,-4.06454351959477));
#295=CARTESIAN_POINT('Ctrl Pts',(3.11952768274195,26.9821326808497,-3.11401302431875));
#296=CARTESIAN_POINT('Ctrl Pts',(3.82686682184872,26.977791506299,-2.1884977451727));
#297=CARTESIAN_POINT('Ctrl Pts',(4.26760517518312,26.9677244439072,-1.11471378125787));
#298=CARTESIAN_POINT('Ctrl Pts',(4.41261276093907,26.9608859445429,0.000603106741911868));
#299=CARTESIAN_POINT('Ctrl Pts',(4.26752817870297,26.9676236870216,1.11191832647745));
#300=CARTESIAN_POINT('Ctrl Pts',(3.68359711876073,26.9818525349287,2.54986968754408));
#301=CARTESIAN_POINT('Ctrl Pts',(2.26112425535578,26.9813353129641,3.96320536289951));
#302=CARTESIAN_POINT('Ctrl Pts',(0.740201096366654,26.9629665812069,4.36426188484214));
#303=CARTESIAN_POINT('Ctrl Pts',(-0.000882570603891604,26.9631045751767,
4.36415476317018));
#304=CARTESIAN_POINT('Ctrl Pts',(-0.00131576666085531,26.963104250658,4.36415446263576));
#305=CARTESIAN_POINT('Ctrl Pts',(-5.75539578606404,27.5171655276518,-9.13317220658854E-13));
#306=CARTESIAN_POINT('Ctrl Pts',(-5.75530540311037,27.5171661842738,-0.482541817017929));
#307=CARTESIAN_POINT('Ctrl Pts',(-5.62866509464464,27.5242954280355,-1.47786737633804));
#308=CARTESIAN_POINT('Ctrl Pts',(-5.05313157655328,27.5390144922142,-2.88588486193282));
#309=CARTESIAN_POINT('Ctrl Pts',(-4.11245493482333,27.5454174828705,-4.11747610421682));
#310=CARTESIAN_POINT('Ctrl Pts',(-2.88907024657013,27.5390285188868,-5.05351814703603));
#311=CARTESIAN_POINT('Ctrl Pts',(-1.46490455724211,27.5241858423067,-5.62944255891523));
#312=CARTESIAN_POINT('Ctrl Pts',(0.48567806214739,27.5102894706762,-5.88370671444411));
#313=CARTESIAN_POINT('Ctrl Pts',(2.47203016736421,27.5372661824027,-5.36716687414565));
#314=CARTESIAN_POINT('Ctrl Pts',(4.1194137136261,27.5453403537141,-4.11181147443823));
#315=CARTESIAN_POINT('Ctrl Pts',(5.05298757223921,27.5390689541321,-2.88685002792733));
#316=CARTESIAN_POINT('Ctrl Pts',(5.63058496854111,27.5241838020738,-1.46649324638281));
#317=CARTESIAN_POINT('Ctrl Pts',(5.81813601681168,27.5137781561602,0.000674619332380368));
#318=CARTESIAN_POINT('Ctrl Pts',(5.63037905819495,27.5240549514536,1.4628244893164));
#319=CARTESIAN_POINT('Ctrl Pts',(4.86604868464147,27.5449681318826,3.36502869451097));
#320=CARTESIAN_POINT('Ctrl Pts',(2.98199703550182,27.5443003606668,5.23571523809174));
#321=CARTESIAN_POINT('Ctrl Pts',(0.972697066761384,27.5170665468559,5.75555822090712));
#322=CARTESIAN_POINT('Ctrl Pts',(-0.00115874539992368,27.5171654311214,
5.75539656599533));
#323=CARTESIAN_POINT('Ctrl Pts',(-0.0017296872396715,27.5171655426653,5.75539552296472));
#324=CARTESIAN_POINT('Ctrl Pts',(-6.37352845904702,27.6160976112465,-9.06429900862918E-13));
#325=CARTESIAN_POINT('Ctrl Pts',(-6.37352845904704,27.6160976112465,-0.534591516636179));
#326=CARTESIAN_POINT('Ctrl Pts',(-6.23386452553177,27.6239786757158,-1.63681395788386));
#327=CARTESIAN_POINT('Ctrl Pts',(-5.59783684249641,27.6400891689744,-3.19729542035396));
#328=CARTESIAN_POINT('Ctrl Pts',(-4.55621922892935,27.6470248499802,-4.56178606000862));
#329=CARTESIAN_POINT('Ctrl Pts',(-3.20071109325679,27.6401142082328,-5.5982514456376));
#330=CARTESIAN_POINT('Ctrl Pts',(-1.62273902787113,27.6238378400154,-6.23468410432896));
#331=CARTESIAN_POINT('Ctrl Pts',(0.538019042578333,27.6085385584303,-6.5149566083163));
#332=CARTESIAN_POINT('Ctrl Pts',(2.7385276501997,27.6382415132154,-5.94572407481506));
#333=CARTESIAN_POINT('Ctrl Pts',(4.56409262068262,27.6469203806073,-4.55547363760106));
#334=CARTESIAN_POINT('Ctrl Pts',(5.59753431744937,27.6401583901729,-3.19835782202239));
#335=CARTESIAN_POINT('Ctrl Pts',(6.23605232900895,27.6238512920889,-1.62444299349217));
#336=CARTESIAN_POINT('Ctrl Pts',(6.44265031417371,27.6123481074783,0.000765899043889396));
#337=CARTESIAN_POINT('Ctrl Pts',(6.23577821213543,27.6237173244465,1.62024481692839));
#338=CARTESIAN_POINT('Ctrl Pts',(5.39076457817608,27.6465425538331,3.72832595596874));
#339=CARTESIAN_POINT('Ctrl Pts',(3.30446863460725,27.6458863769511,5.80045719239277));
#340=CARTESIAN_POINT('Ctrl Pts',(1.07659910439634,27.6160740160923,6.37426182666473));
#341=CARTESIAN_POINT('Ctrl Pts',(-0.00127739526390803,27.6160976167833,
6.37352836240032));
#342=CARTESIAN_POINT('Ctrl Pts',(-0.00191610547302959,27.6160976278513,
6.37352816910009));
#343=CARTESIAN_POINT('',(6.37352845904702,27.6160976112465,2.26730291785709E-15));
#344=CARTESIAN_POINT('Ctrl Pts',(-0.00191610547302959,27.6160976278513,
6.37352816910009));
#345=CARTESIAN_POINT('Ctrl Pts',(-0.00127739526390803,27.6160976167833,
6.37352836240032));
#346=CARTESIAN_POINT('Ctrl Pts',(1.07659910439634,27.6160740160923,6.37426182666473));
#347=CARTESIAN_POINT('Ctrl Pts',(3.30446863460725,27.6458863769511,5.80045719239277));
#348=CARTESIAN_POINT('Ctrl Pts',(5.39076457817608,27.6465425538331,3.72832595596874));
#349=CARTESIAN_POINT('Ctrl Pts',(6.2357333396857,27.6237185365263,1.62035676158956));
#350=CARTESIAN_POINT('Ctrl Pts',(6.37367498049027,27.6161388337233,0.540732827379626));
#351=CARTESIAN_POINT('Ctrl Pts',(6.37373861302528,27.6161601668204,-2.54641391638302E-9));
#352=CARTESIAN_POINT('Ctrl Pts',(6.37373861302528,27.6161601668205,-2.54642169640097E-9));
#353=CARTESIAN_POINT('Ctrl Pts',(6.37373862654437,27.6161601713528,-0.000114884298752227));
#354=CARTESIAN_POINT('Ctrl Pts',(6.37378762965108,27.6161823180211,-0.540944356072244));
#355=CARTESIAN_POINT('Ctrl Pts',(6.23605232900895,27.6238512920889,-1.62444299349217));
#356=CARTESIAN_POINT('Ctrl Pts',(5.59753431744937,27.6401583901729,-3.19835782202239));
#357=CARTESIAN_POINT('Ctrl Pts',(4.56409262068262,27.6469203806073,-4.55547363760106));
#358=CARTESIAN_POINT('Ctrl Pts',(2.7385276501997,27.6382415132154,-5.94572407481506));
#359=CARTESIAN_POINT('Ctrl Pts',(0.538019042578333,27.6085385584303,-6.5149566083163));
#360=CARTESIAN_POINT('Ctrl Pts',(-1.62273902787113,27.6238378400154,-6.23468410432896));
#361=CARTESIAN_POINT('Ctrl Pts',(-3.20071109325679,27.6401142082328,-5.5982514456376));
#362=CARTESIAN_POINT('Ctrl Pts',(-4.55621922892935,27.6470248499802,-4.56178606000862));
#363=CARTESIAN_POINT('Ctrl Pts',(-5.59783684249641,27.6400891689744,-3.19729542035396));
#364=CARTESIAN_POINT('Ctrl Pts',(-6.23386452553177,27.6239786757158,-1.63681395788386));
#365=CARTESIAN_POINT('Ctrl Pts',(-6.37352845904704,27.6160976112465,-0.534591516636179));
#366=CARTESIAN_POINT('Ctrl Pts',(-6.37352845904702,27.6160976112465,-9.06429900862918E-13));
#367=CARTESIAN_POINT('Ctrl Pts',(13.,30.,-1.59204083889156E-15));
#368=CARTESIAN_POINT('Ctrl Pts',(13.,29.8256163020616,-1.59204083889156E-15));
#369=CARTESIAN_POINT('Ctrl Pts',(12.9799490503912,29.5349548998917,-1.57648879005487E-15));
#370=CARTESIAN_POINT('Ctrl Pts',(12.9178063447818,29.2674556209627,-1.51694571843957E-15));
#371=CARTESIAN_POINT('Ctrl Pts',(12.8581285273129,29.1358923645229,-1.43209023758264E-15));
#372=CARTESIAN_POINT('Ctrl Pts',(12.8170456249577,29.0775167356095,-1.34627289810474E-15));
#373=CARTESIAN_POINT('Ctrl Pts',(12.7670663084471,29.0237925535564,-1.26901854695157E-15));
#374=CARTESIAN_POINT('Ctrl Pts',(12.69366770877,28.9604458191046,-1.18577725593063E-15));
#375=CARTESIAN_POINT('Ctrl Pts',(12.4799569613617,28.8138924682629,-1.0246118897988E-15));
#376=CARTESIAN_POINT('Ctrl Pts',(11.8195189460059,28.5441339500109,-7.56735782421312E-16));
#377=CARTESIAN_POINT('Ctrl Pts',(10.0225936104607,28.1451481225063,-3.34225702488116E-16));
#378=CARTESIAN_POINT('Ctrl Pts',(7.98215810567056,27.8736652466703,-1.35907516835239E-16));
#379=CARTESIAN_POINT('Ctrl Pts',(6.36690396567198,27.6150371426878,-1.3962157874149E-16));
#380=CARTESIAN_POINT('Ctrl Pts',(13.,30.,-1.70169602069447));
#381=CARTESIAN_POINT('Ctrl Pts',(13.,29.8255804774011,-1.70169602069447));
#382=CARTESIAN_POINT('Ctrl Pts',(12.9799847358543,29.5348577105993,-1.69727366390243));
#383=CARTESIAN_POINT('Ctrl Pts',(12.9176596012886,29.2672985662278,-1.6815668250771));
#384=CARTESIAN_POINT('Ctrl Pts',(12.8577213903341,29.135813899595,-1.66248308911423));
#385=CARTESIAN_POINT('Ctrl Pts',(12.8166661570413,29.0775364053569,-1.64637226151514));
#386=CARTESIAN_POINT('Ctrl Pts',(12.7668027993096,29.0238517204895,-1.63129272314852));
#387=CARTESIAN_POINT('Ctrl Pts',(12.6935235137535,28.9605186829312,-1.61332343343938));
#388=CARTESIAN_POINT('Ctrl Pts',(12.4800227066998,28.8139236767356,-1.57173501568881));
#389=CARTESIAN_POINT('Ctrl Pts',(11.8196303637599,28.5441241319501,-1.46856788113162));
#390=CARTESIAN_POINT('Ctrl Pts',(10.0225801107458,28.1451407141283,-1.21612945313383));
#391=CARTESIAN_POINT('Ctrl Pts',(7.982200829727,27.8736632177891,-0.951708849949921));
#392=CARTESIAN_POINT('Ctrl Pts',(6.36690396567198,27.6150371426878,-0.759759221780037));
#393=CARTESIAN_POINT('Ctrl Pts',(12.3229761267899,30.,-5.10421177947893));
#394=CARTESIAN_POINT('Ctrl Pts',(12.3229761267899,29.831522881501,-5.10421177947893));
#395=CARTESIAN_POINT('Ctrl Pts',(12.304698549753,29.5533721424649,-5.09258641571694));
#396=CARTESIAN_POINT('Ctrl Pts',(12.2519698606071,29.3033087640431,-5.05412606346694));
#397=CARTESIAN_POINT('Ctrl Pts',(12.2056351412724,29.1802376602266,-5.01101012859594));
#398=CARTESIAN_POINT('Ctrl Pts',(12.1709265052447,29.1172312151957,-4.97518359875358));
#399=CARTESIAN_POINT('Ctrl Pts',(12.1205664208424,29.0557953050564,-4.9383553178561));
#400=CARTESIAN_POINT('Ctrl Pts',(12.0443793358806,28.9838558508705,-4.8916780929956));
#401=CARTESIAN_POINT('Ctrl Pts',(11.8220833746012,28.8235324908665,-4.77570548666448));
#402=CARTESIAN_POINT('Ctrl Pts',(11.1656972716161,28.5461671332925,-4.47426448480168));
#403=CARTESIAN_POINT('Ctrl Pts',(9.43483025335289,28.1448855574668,-3.72575285704549));
#404=CARTESIAN_POINT('Ctrl Pts',(7.50294296990438,27.8732373183744,-2.9325390494488));
#405=CARTESIAN_POINT('Ctrl Pts',(5.98408525406124,27.613896645895,-2.34084047844485));
#406=CARTESIAN_POINT('Ctrl Pts',(9.43276718750223,30.,-9.43284732376121));
#407=CARTESIAN_POINT('Ctrl Pts',(9.43276718750223,29.8375838865905,-9.43284732376121));
#408=CARTESIAN_POINT('Ctrl Pts',(9.4176885751901,29.572420294199,-9.41774543295136));
#409=CARTESIAN_POINT('Ctrl Pts',(9.37455895824102,29.3393364283112,-9.37463733777217));
#410=CARTESIAN_POINT('Ctrl Pts',(9.33488901585554,29.2224910574092,-9.33501281160638));
#411=CARTESIAN_POINT('Ctrl Pts',(9.29981880757343,29.1533090838701,-9.29993222616711));
#412=CARTESIAN_POINT('Ctrl Pts',(9.25036703952828,29.0841720732301,-9.25045399168457));
#413=CARTESIAN_POINT('Ctrl Pts',(9.1791112806538,29.0042164463938,-9.17917205888806));
#414=CARTESIAN_POINT('Ctrl Pts',(8.98246056914556,28.8319273607324,-8.98248460250692));
#415=CARTESIAN_POINT('Ctrl Pts',(8.44401927951206,28.5481989207959,-8.4440415678279));
#416=CARTESIAN_POINT('Ctrl Pts',(7.08393421113103,28.1448157573361,-7.08398303424175));
#417=CARTESIAN_POINT('Ctrl Pts',(5.60982521656981,27.8730305111428,-5.60985435009932));
#418=CARTESIAN_POINT('Ctrl Pts',(4.4748121460042,27.6129480155044,-4.47484961132812));
#419=CARTESIAN_POINT('Ctrl Pts',(5.10418930500252,30.,-12.3230423732002));
#420=CARTESIAN_POINT('Ctrl Pts',(5.10418930500252,29.8315143743419,-12.3230423732002));
#421=CARTESIAN_POINT('Ctrl Pts',(5.09256559342375,29.5533459520557,-12.3047598267536));
#422=CARTESIAN_POINT('Ctrl Pts',(5.05414126419176,29.3032660292941,-12.2519367146053));
#423=CARTESIAN_POINT('Ctrl Pts',(5.01107004503164,29.180211060375,-12.205485140426));
#424=CARTESIAN_POINT('Ctrl Pts',(4.97524449148862,29.117227982878,-12.1707744706042));
#425=CARTESIAN_POINT('Ctrl Pts',(4.93840098151777,29.0558017873319,-12.1204543136606));
#426=CARTESIAN_POINT('Ctrl Pts',(4.89170642666958,28.9838660259823,-12.0443124423681));
#427=CARTESIAN_POINT('Ctrl Pts',(4.77569990097256,28.8235353039203,-11.8221056383216));
#428=CARTESIAN_POINT('Ctrl Pts',(4.47424615603473,28.5461622356106,-11.1657527654334));
#429=CARTESIAN_POINT('Ctrl Pts',(3.72574806353188,28.1448818470507,-9.43484957767991));
#430=CARTESIAN_POINT('Ctrl Pts',(2.93252352371162,27.8732357067151,-7.50298724890185));
#431=CARTESIAN_POINT('Ctrl Pts',(2.34083041172872,27.6138955390821,-5.98411521424704));
#432=CARTESIAN_POINT('Ctrl Pts',(1.70162751907425,30.,-13.0001890701755));
#433=CARTESIAN_POINT('Ctrl Pts',(1.70162751907425,29.8256027983644,-13.0001890701755));
#434=CARTESIAN_POINT('Ctrl Pts',(1.69720100819399,29.5349049602292,-12.980096233295));
#435=CARTESIAN_POINT('Ctrl Pts',(1.68147051821731,29.2673747117049,-12.9178226824569));
#436=CARTESIAN_POINT('Ctrl Pts',(1.66236327208257,29.1358369934751,-12.8580130503008));
#437=CARTESIAN_POINT('Ctrl Pts',(1.64623615421725,29.0775020794649,-12.816909549381));
#438=CARTESIAN_POINT('Ctrl Pts',(1.63115625149073,29.0237936583021,-12.76695940283));
#439=CARTESIAN_POINT('Ctrl Pts',(1.61319256691477,28.9604517567958,-12.6935996622343));
#440=CARTESIAN_POINT('Ctrl Pts',(1.57161122060449,28.813887125284,-12.4799839374));
#441=CARTESIAN_POINT('Ctrl Pts',(1.46845741957606,28.5441180110798,-11.8195972234703));
#442=CARTESIAN_POINT('Ctrl Pts',(1.21603090123703,28.1451357577198,-10.0226454420951));
#443=CARTESIAN_POINT('Ctrl Pts',(0.951675761459002,27.8736602635966,-7.98226044920249));
#444=CARTESIAN_POINT('Ctrl Pts',(0.759723951472294,27.6150328716728,-6.36698944739153));
#445=CARTESIAN_POINT('Ctrl Pts',(-1.70166633470395,30.,-13.0001872332651));
#446=CARTESIAN_POINT('Ctrl Pts',(-1.70166633470395,29.8256060193407,-13.0001872332651));
#447=CARTESIAN_POINT('Ctrl Pts',(-1.69722731896733,29.534912926706,-12.9800938522126));
#448=CARTESIAN_POINT('Ctrl Pts',(-1.68148648550839,29.2673876396531,-12.917819380908));
#449=CARTESIAN_POINT('Ctrl Pts',(-1.66237618696913,29.1358429062486,-12.8580091522788));
#450=CARTESIAN_POINT('Ctrl Pts',(-1.64624125485901,29.0774995327159,-12.8169047478771));
#451=CARTESIAN_POINT('Ctrl Pts',(-1.63115591194027,29.0237875869955,-12.7669542579976));
#452=CARTESIAN_POINT('Ctrl Pts',(-1.61318880424578,28.9604443401697,-12.6935944605738));
#453=CARTESIAN_POINT('Ctrl Pts',(-1.57160709323477,28.8138834365038,-12.4799786621321));
#454=CARTESIAN_POINT('Ctrl Pts',(-1.46846047879685,28.5441181298809,-11.8195925881263));
#455=CARTESIAN_POINT('Ctrl Pts',(-1.21604193313872,28.145135816019,-10.0226416860454));
#456=CARTESIAN_POINT('Ctrl Pts',(-0.951692166715008,27.8736602275944,-7.98225944015129));
#457=CARTESIAN_POINT('Ctrl Pts',(-0.759741410663593,27.6150326437228,-6.36698843834033));
#458=CARTESIAN_POINT('Ctrl Pts',(-5.10421917642353,30.,-12.3230419414748));
#459=CARTESIAN_POINT('Ctrl Pts',(-5.10421917642353,29.8315084529799,-12.3230419414748));
#460=CARTESIAN_POINT('Ctrl Pts',(-5.09259126888771,29.5533287793944,-12.3047592671325));
#461=CARTESIAN_POINT('Ctrl Pts',(-5.05413142099198,29.3032380371678,-12.2519359386488));
#462=CARTESIAN_POINT('Ctrl Pts',(-5.01101817098939,29.1801947467166,-12.2054842242816));
#463=CARTESIAN_POINT('Ctrl Pts',(-4.97519016852585,29.1172277014887,-12.1707733421163));
#464=CARTESIAN_POINT('Ctrl Pts',(-4.93835965003018,29.055808188096,-12.1204531044808));
#465=CARTESIAN_POINT('Ctrl Pts',(-4.89168042244995,28.9838749827582,-12.0443112198322));
#466=CARTESIAN_POINT('Ctrl Pts',(-4.77570529657687,28.8235386678453,-11.8221043984858));
#467=CARTESIAN_POINT('Ctrl Pts',(-4.4742648328381,28.5461597756878,-11.1657516759977));
#468=CARTESIAN_POINT('Ctrl Pts',(-3.7257557677058,28.1448800023831,-9.43484869490299));
#469=CARTESIAN_POINT('Ctrl Pts',(-2.9325417898256,27.8732349313031,-7.50298701174654));
#470=CARTESIAN_POINT('Ctrl Pts',(-2.34084384783314,27.6138951164783,-5.98411497709173));
#471=CARTESIAN_POINT('Ctrl Pts',(-9.4328390207075,30.,-9.4328339297194));
#472=CARTESIAN_POINT('Ctrl Pts',(-9.4328390207075,29.8375923297455,-9.4328339297194));
#473=CARTESIAN_POINT('Ctrl Pts',(-9.41773148084363,29.5724382015291,-9.41772807101734));
#474=CARTESIAN_POINT('Ctrl Pts',(-9.37461210209347,29.3393653383279,-9.37461326415197));
#475=CARTESIAN_POINT('Ctrl Pts',(-9.33497881150182,29.2225001299157,-9.33498438873471));
#476=CARTESIAN_POINT('Ctrl Pts',(-9.29989033464799,29.1532965395296,-9.29989721545416));
#477=CARTESIAN_POINT('Ctrl Pts',(-9.25041018148287,29.0841505298012,-9.25041647755233));
#478=CARTESIAN_POINT('Ctrl Pts',(-9.17912893819546,29.0041914787908,-9.17913413038737));
#479=CARTESIAN_POINT('Ctrl Pts',(-8.98244377694355,28.8319136626097,-8.98244613728924));
#480=CARTESIAN_POINT('Ctrl Pts',(-8.44400753382331,28.5481965961639,-8.44400776868799));
#481=CARTESIAN_POINT('Ctrl Pts',(-7.08395547894582,28.144813867396,-7.08395564657711));
#482=CARTESIAN_POINT('Ctrl Pts',(-5.60984955334891,27.8730294246712,-5.60984699248741));
#483=CARTESIAN_POINT('Ctrl Pts',(-4.47484445643384,27.6129464261343,-4.47484225371621));
#484=CARTESIAN_POINT('Ctrl Pts',(-12.3230435508441,30.,-5.10421250140268));
#485=CARTESIAN_POINT('Ctrl Pts',(-12.3230435508441,29.8315088537986,-5.10421250140268));
#486=CARTESIAN_POINT('Ctrl Pts',(-12.304759478545,29.5533295245225,-5.0925873515056));
#487=CARTESIAN_POINT('Ctrl Pts',(-12.2519354862495,29.3032392341729,-5.05412736100792));
#488=CARTESIAN_POINT('Ctrl Pts',(-12.2054841513772,29.1801949518216,-5.01101166055667));
#489=CARTESIAN_POINT('Ctrl Pts',(-12.1707720224118,29.1172269005674,-4.97518548579152));
#490=CARTESIAN_POINT('Ctrl Pts',(-12.1204507367265,29.0558069683478,-4.93835733982551));
#491=CARTESIAN_POINT('Ctrl Pts',(-12.0443081181871,28.9838736037522,-4.891680137299));
#492=CARTESIAN_POINT('Ctrl Pts',(-11.8221004308622,28.8235378757696,-4.77570755989633));
#493=CARTESIAN_POINT('Ctrl Pts',(-11.1657484544243,28.5461595721403,-4.4742663065372));
#494=CARTESIAN_POINT('Ctrl Pts',(-9.4348470539338,28.1448798404105,-3.72575433320972));
#495=CARTESIAN_POINT('Ctrl Pts',(-7.50298739874756,27.8732348448065,-2.93253944601578));
#496=CARTESIAN_POINT('Ctrl Pts',(-5.98411558126371,27.6138950060953,-2.34084087501183));
#497=CARTESIAN_POINT('Ctrl Pts',(-13.0001880060506,30.,-1.70165134967684));
#498=CARTESIAN_POINT('Ctrl Pts',(-13.0001880060506,29.8256049678003,-1.70165134967684));
#499=CARTESIAN_POINT('Ctrl Pts',(-12.9800929212244,29.5349091647925,-1.6972157594049));
#500=CARTESIAN_POINT('Ctrl Pts',(-12.9178155980864,29.2673814773619,-1.68148653615998));
#501=CARTESIAN_POINT('Ctrl Pts',(-12.8580033009026,29.135838473219,-1.66238829483033));
#502=CARTESIAN_POINT('Ctrl Pts',(-12.8168970484628,29.0774980815045,-1.64625549585186));
#503=CARTESIAN_POINT('Ctrl Pts',(-12.7669460313285,29.0237873796709,-1.631167608229));
#504=CARTESIAN_POINT('Ctrl Pts',(-12.6935862999087,28.9604446105335,-1.61319693654265));
#505=CARTESIAN_POINT('Ctrl Pts',(-12.4799711433008,28.8138830701656,-1.57160672876526));
#506=CARTESIAN_POINT('Ctrl Pts',(-11.8195867721553,28.5441170615134,-1.46845515623525));
#507=CARTESIAN_POINT('Ctrl Pts',(-10.0226373662612,28.1451349989656,-1.21603811141128));
#508=CARTESIAN_POINT('Ctrl Pts',(-7.98225957964174,27.8736598525659,-0.951684311276958));
#509=CARTESIAN_POINT('Ctrl Pts',(-6.36698853041119,27.6150323313596,-0.759734683107075));
#510=CARTESIAN_POINT('Ctrl Pts',(-13.0001880060506,30.,1.70165134967684));
#511=CARTESIAN_POINT('Ctrl Pts',(-13.0001880060506,29.8256049678003,1.70165134967684));
#512=CARTESIAN_POINT('Ctrl Pts',(-12.9800929212244,29.5349091647925,1.6972157594049));
#513=CARTESIAN_POINT('Ctrl Pts',(-12.9178155980864,29.2673814773619,1.68148653615998));
#514=CARTESIAN_POINT('Ctrl Pts',(-12.8580033009026,29.135838473219,1.66238829483033));
#515=CARTESIAN_POINT('Ctrl Pts',(-12.8168970484628,29.0774980815045,1.64625549585186));
#516=CARTESIAN_POINT('Ctrl Pts',(-12.7669460313285,29.0237873796709,1.631167608229));
#517=CARTESIAN_POINT('Ctrl Pts',(-12.6935862999087,28.9604446105335,1.61319693654265));
#518=CARTESIAN_POINT('Ctrl Pts',(-12.4799711433008,28.8138830701656,1.57160672876526));
#519=CARTESIAN_POINT('Ctrl Pts',(-11.8195867721553,28.5441170615134,1.46845515623525));
#520=CARTESIAN_POINT('Ctrl Pts',(-10.0226373662612,28.1451349989656,1.21603811141128));
#521=CARTESIAN_POINT('Ctrl Pts',(-7.98225957964174,27.8736598525659,0.951684311276958));
#522=CARTESIAN_POINT('Ctrl Pts',(-6.36698853041118,27.6150323313596,0.759734683107074));
#523=CARTESIAN_POINT('Ctrl Pts',(-12.3230435508441,30.,5.10421250140267));
#524=CARTESIAN_POINT('Ctrl Pts',(-12.3230435508441,29.8315088537986,5.10421250140267));
#525=CARTESIAN_POINT('Ctrl Pts',(-12.304759478545,29.5533295245225,5.09258735150559));
#526=CARTESIAN_POINT('Ctrl Pts',(-12.2519354862495,29.3032392341729,5.05412736100791));
#527=CARTESIAN_POINT('Ctrl Pts',(-12.2054841513771,29.1801949518216,5.01101166055666));
#528=CARTESIAN_POINT('Ctrl Pts',(-12.1707720224118,29.1172269005674,4.97518548579152));
#529=CARTESIAN_POINT('Ctrl Pts',(-12.1204507367265,29.0558069683477,4.93835733982551));
#530=CARTESIAN_POINT('Ctrl Pts',(-12.0443081181871,28.9838736037522,4.891680137299));
#531=CARTESIAN_POINT('Ctrl Pts',(-11.8221004308622,28.8235378757696,4.77570755989632));
#532=CARTESIAN_POINT('Ctrl Pts',(-11.1657484544243,28.5461595721403,4.47426630653719));
#533=CARTESIAN_POINT('Ctrl Pts',(-9.43484705393379,28.1448798404105,3.72575433320972));
#534=CARTESIAN_POINT('Ctrl Pts',(-7.50298739874756,27.8732348448065,2.93253944601578));
#535=CARTESIAN_POINT('Ctrl Pts',(-5.98411558126371,27.6138950060952,2.34084087501183));
#536=CARTESIAN_POINT('Ctrl Pts',(-9.43283902070751,30.,9.4328339297194));
#537=CARTESIAN_POINT('Ctrl Pts',(-9.43283902070751,29.8375923297455,9.4328339297194));
#538=CARTESIAN_POINT('Ctrl Pts',(-9.41773148084363,29.5724382015291,9.41772807101733));
#539=CARTESIAN_POINT('Ctrl Pts',(-9.37461210209347,29.3393653383279,9.37461326415197));
#540=CARTESIAN_POINT('Ctrl Pts',(-9.33497881150182,29.2225001299157,9.33498438873471));
#541=CARTESIAN_POINT('Ctrl Pts',(-9.29989033464799,29.1532965395296,9.29989721545416));
#542=CARTESIAN_POINT('Ctrl Pts',(-9.25041018148287,29.0841505298012,9.25041647755233));
#543=CARTESIAN_POINT('Ctrl Pts',(-9.17912893819546,29.0041914787908,9.17913413038736));
#544=CARTESIAN_POINT('Ctrl Pts',(-8.98244377694355,28.8319136626097,8.98244613728924));
#545=CARTESIAN_POINT('Ctrl Pts',(-8.44400753382331,28.5481965961639,8.44400776868799));
#546=CARTESIAN_POINT('Ctrl Pts',(-7.08395547894582,28.144813867396,7.08395564657711));
#547=CARTESIAN_POINT('Ctrl Pts',(-5.60984955334891,27.8730294246712,5.60984699248741));
#548=CARTESIAN_POINT('Ctrl Pts',(-4.47484445643384,27.6129464261343,4.47484225371621));
#549=CARTESIAN_POINT('Ctrl Pts',(-5.10421917642353,30.,12.3230419414748));
#550=CARTESIAN_POINT('Ctrl Pts',(-5.10421917642353,29.8315084529799,12.3230419414748));
#551=CARTESIAN_POINT('Ctrl Pts',(-5.09259126888771,29.5533287793944,12.3047592671325));
#552=CARTESIAN_POINT('Ctrl Pts',(-5.05413142099198,29.3032380371678,12.2519359386488));
#553=CARTESIAN_POINT('Ctrl Pts',(-5.01101817098939,29.1801947467166,12.2054842242816));
#554=CARTESIAN_POINT('Ctrl Pts',(-4.97519016852586,29.1172277014887,12.1707733421163));
#555=CARTESIAN_POINT('Ctrl Pts',(-4.93835965003018,29.055808188096,12.1204531044808));
#556=CARTESIAN_POINT('Ctrl Pts',(-4.89168042244996,28.9838749827582,12.0443112198322));
#557=CARTESIAN_POINT('Ctrl Pts',(-4.77570529657687,28.8235386678453,11.8221043984858));
#558=CARTESIAN_POINT('Ctrl Pts',(-4.4742648328381,28.5461597756878,11.1657516759977));
#559=CARTESIAN_POINT('Ctrl Pts',(-3.7257557677058,28.1448800023831,9.43484869490299));
#560=CARTESIAN_POINT('Ctrl Pts',(-2.9325417898256,27.8732349313031,7.50298701174655));
#561=CARTESIAN_POINT('Ctrl Pts',(-2.34084384783314,27.6138951164783,5.98411497709174));
#562=CARTESIAN_POINT('Ctrl Pts',(-1.70166633470395,30.,13.0001872332651));
#563=CARTESIAN_POINT('Ctrl Pts',(-1.70166633470395,29.8256060193407,13.0001872332651));
#564=CARTESIAN_POINT('Ctrl Pts',(-1.69722731896734,29.534912926706,12.9800938522126));
#565=CARTESIAN_POINT('Ctrl Pts',(-1.68148648550839,29.2673876396531,12.917819380908));
#566=CARTESIAN_POINT('Ctrl Pts',(-1.66237618696913,29.1358429062486,12.8580091522788));
#567=CARTESIAN_POINT('Ctrl Pts',(-1.64624125485901,29.0774995327159,12.8169047478771));
#568=CARTESIAN_POINT('Ctrl Pts',(-1.63115591194027,29.0237875869955,12.7669542579976));
#569=CARTESIAN_POINT('Ctrl Pts',(-1.61318880424578,28.9604443401697,12.6935944605738));
#570=CARTESIAN_POINT('Ctrl Pts',(-1.57160709323477,28.8138834365038,12.4799786621321));
#571=CARTESIAN_POINT('Ctrl Pts',(-1.46846047879685,28.5441181298809,11.8195925881263));
#572=CARTESIAN_POINT('Ctrl Pts',(-1.21604193313873,28.145135816019,10.0226416860454));
#573=CARTESIAN_POINT('Ctrl Pts',(-0.95169216671501,27.8736602275944,7.98225944015129));
#574=CARTESIAN_POINT('Ctrl Pts',(-0.759741410663596,27.6150326437228,6.36698843834033));
#575=CARTESIAN_POINT('Ctrl Pts',(1.70162751907425,30.,13.0001890701755));
#576=CARTESIAN_POINT('Ctrl Pts',(1.70162751907425,29.8256027983644,13.0001890701755));
#577=CARTESIAN_POINT('Ctrl Pts',(1.69720100819399,29.5349049602292,12.980096233295));
#578=CARTESIAN_POINT('Ctrl Pts',(1.68147051821731,29.2673747117049,12.9178226824569));
#579=CARTESIAN_POINT('Ctrl Pts',(1.66236327208257,29.1358369934751,12.8580130503008));
#580=CARTESIAN_POINT('Ctrl Pts',(1.64623615421725,29.0775020794649,12.816909549381));
#581=CARTESIAN_POINT('Ctrl Pts',(1.63115625149073,29.0237936583021,12.76695940283));
#582=CARTESIAN_POINT('Ctrl Pts',(1.61319256691477,28.9604517567958,12.6935996622343));
#583=CARTESIAN_POINT('Ctrl Pts',(1.57161122060449,28.813887125284,12.4799839374));
#584=CARTESIAN_POINT('Ctrl Pts',(1.46845741957606,28.5441180110798,11.8195972234703));
#585=CARTESIAN_POINT('Ctrl Pts',(1.21603090123703,28.1451357577198,10.0226454420951));
#586=CARTESIAN_POINT('Ctrl Pts',(0.951675761458999,27.8736602635966,7.98226044920249));
#587=CARTESIAN_POINT('Ctrl Pts',(0.759723951472292,27.6150328716728,6.36698944739153));
#588=CARTESIAN_POINT('Ctrl Pts',(5.10418930500252,30.,12.3230423732002));
#589=CARTESIAN_POINT('Ctrl Pts',(5.10418930500252,29.8315143743418,12.3230423732002));
#590=CARTESIAN_POINT('Ctrl Pts',(5.09256559342375,29.5533459520557,12.3047598267536));
#591=CARTESIAN_POINT('Ctrl Pts',(5.05414126419176,29.303266029294,12.2519367146053));
#592=CARTESIAN_POINT('Ctrl Pts',(5.01107004503164,29.180211060375,12.205485140426));
#593=CARTESIAN_POINT('Ctrl Pts',(4.97524449148862,29.1172279828779,12.1707744706042));
#594=CARTESIAN_POINT('Ctrl Pts',(4.93840098151777,29.0558017873319,12.1204543136606));
#595=CARTESIAN_POINT('Ctrl Pts',(4.89170642666958,28.9838660259823,12.0443124423681));
#596=CARTESIAN_POINT('Ctrl Pts',(4.77569990097256,28.8235353039203,11.8221056383216));
#597=CARTESIAN_POINT('Ctrl Pts',(4.47424615603472,28.5461622356106,11.1657527654334));
#598=CARTESIAN_POINT('Ctrl Pts',(3.72574806353188,28.1448818470507,9.4348495776799));
#599=CARTESIAN_POINT('Ctrl Pts',(2.93252352371162,27.8732357067151,7.50298724890184));
#600=CARTESIAN_POINT('Ctrl Pts',(2.34083041172872,27.6138955390821,5.98411521424704));
#601=CARTESIAN_POINT('Ctrl Pts',(9.43276718750223,30.,9.4328473237612));
#602=CARTESIAN_POINT('Ctrl Pts',(9.43276718750223,29.8375838865905,9.4328473237612));
#603=CARTESIAN_POINT('Ctrl Pts',(9.4176885751901,29.572420294199,9.41774543295135));
#604=CARTESIAN_POINT('Ctrl Pts',(9.37455895824101,29.3393364283112,9.37463733777217));
#605=CARTESIAN_POINT('Ctrl Pts',(9.33488901585554,29.2224910574092,9.33501281160637));
#606=CARTESIAN_POINT('Ctrl Pts',(9.29981880757343,29.1533090838701,9.29993222616711));
#607=CARTESIAN_POINT('Ctrl Pts',(9.25036703952828,29.0841720732301,9.25045399168457));
#608=CARTESIAN_POINT('Ctrl Pts',(9.1791112806538,29.0042164463938,9.17917205888805));
#609=CARTESIAN_POINT('Ctrl Pts',(8.98246056914556,28.8319273607324,8.98248460250692));
#610=CARTESIAN_POINT('Ctrl Pts',(8.44401927951206,28.5481989207959,8.44404156782789));
#611=CARTESIAN_POINT('Ctrl Pts',(7.08393421113103,28.1448157573361,7.08398303424175));
#612=CARTESIAN_POINT('Ctrl Pts',(5.6098252165698,27.8730305111428,5.60985435009933));
#613=CARTESIAN_POINT('Ctrl Pts',(4.4748121460042,27.6129480155044,4.47484961132812));
#614=CARTESIAN_POINT('Ctrl Pts',(12.3229761267899,30.,5.10421177947893));
#615=CARTESIAN_POINT('Ctrl Pts',(12.3229761267899,29.831522881501,5.10421177947893));
#616=CARTESIAN_POINT('Ctrl Pts',(12.304698549753,29.5533721424649,5.09258641571694));
#617=CARTESIAN_POINT('Ctrl Pts',(12.2519698606071,29.3033087640431,5.05412606346694));
#618=CARTESIAN_POINT('Ctrl Pts',(12.2056351412724,29.1802376602266,5.01101012859594));
#619=CARTESIAN_POINT('Ctrl Pts',(12.1709265052447,29.1172312151957,4.97518359875358));
#620=CARTESIAN_POINT('Ctrl Pts',(12.1205664208424,29.0557953050564,4.9383553178561));
#621=CARTESIAN_POINT('Ctrl Pts',(12.0443793358806,28.9838558508705,4.8916780929956));
#622=CARTESIAN_POINT('Ctrl Pts',(11.8220833746012,28.8235324908665,4.77570548666448));
#623=CARTESIAN_POINT('Ctrl Pts',(11.1656972716161,28.5461671332925,4.47426448480168));
#624=CARTESIAN_POINT('Ctrl Pts',(9.43483025335289,28.1448855574668,3.72575285704549));
#625=CARTESIAN_POINT('Ctrl Pts',(7.50294296990438,27.8732373183744,2.9325390494488));
#626=CARTESIAN_POINT('Ctrl Pts',(5.98408525406124,27.613896645895,2.34084047844485));
#627=CARTESIAN_POINT('Ctrl Pts',(13.,30.,1.70169602069447));
#628=CARTESIAN_POINT('Ctrl Pts',(13.,29.8255804774011,1.70169602069447));
#629=CARTESIAN_POINT('Ctrl Pts',(12.9799847358543,29.5348577105993,1.69727366390243));
#630=CARTESIAN_POINT('Ctrl Pts',(12.9176596012886,29.2672985662278,1.6815668250771));
#631=CARTESIAN_POINT('Ctrl Pts',(12.8577213903341,29.135813899595,1.66248308911423));
#632=CARTESIAN_POINT('Ctrl Pts',(12.8166661570413,29.0775364053569,1.64637226151514));
#633=CARTESIAN_POINT('Ctrl Pts',(12.7668027993096,29.0238517204895,1.63129272314852));
#634=CARTESIAN_POINT('Ctrl Pts',(12.6935235137535,28.9605186829312,1.61332343343938));
#635=CARTESIAN_POINT('Ctrl Pts',(12.4800227066998,28.8139236767356,1.57173501568881));
#636=CARTESIAN_POINT('Ctrl Pts',(11.8196303637599,28.5441241319501,1.46856788113162));
#637=CARTESIAN_POINT('Ctrl Pts',(10.0225801107458,28.1451407141283,1.21612945313383));
#638=CARTESIAN_POINT('Ctrl Pts',(7.982200829727,27.8736632177891,0.951708849949923));
#639=CARTESIAN_POINT('Ctrl Pts',(6.36690396567198,27.6150371426878,0.759759221780038));
#640=CARTESIAN_POINT('Ctrl Pts',(13.,30.,1.59204083889156E-15));
#641=CARTESIAN_POINT('Ctrl Pts',(13.,29.8256163020616,1.59204083889156E-15));
#642=CARTESIAN_POINT('Ctrl Pts',(12.9799490503912,29.5349548998917,1.59034627938476E-15));
#643=CARTESIAN_POINT('Ctrl Pts',(12.9178063447818,29.2674556209627,1.58568299568888E-15));
#644=CARTESIAN_POINT('Ctrl Pts',(12.8581285273129,29.1358923645229,1.58232194261078E-15));
#645=CARTESIAN_POINT('Ctrl Pts',(12.8170456249577,29.0775167356095,1.58036306444383E-15));
#646=CARTESIAN_POINT('Ctrl Pts',(12.7670663084471,29.0237925535564,1.57602388820399E-15));
#647=CARTESIAN_POINT('Ctrl Pts',(12.69366770877,28.9604458191046,1.5683368903286E-15));
#648=CARTESIAN_POINT('Ctrl Pts',(12.4799569613617,28.8138924682629,1.54304719765749E-15));
#649=CARTESIAN_POINT('Ctrl Pts',(11.8195189460059,28.5441339500109,1.46102665422117E-15));
#650=CARTESIAN_POINT('Ctrl Pts',(10.0225936104607,28.1451481225063,1.23850497242659E-15));
#651=CARTESIAN_POINT('Ctrl Pts',(7.98215810567056,27.8736652466703,9.90878049407975E-16));
#652=CARTESIAN_POINT('Ctrl Pts',(6.36690396567198,27.6150371426878,7.93366742611351E-16));
#653=CARTESIAN_POINT('',(13.,30.,1.59204083889156E-15));
#654=CARTESIAN_POINT('Ctrl Pts',(13.,30.,1.59204083889156E-15));
#655=CARTESIAN_POINT('Ctrl Pts',(13.,29.8256163020616,1.59204083889156E-15));
#656=CARTESIAN_POINT('Ctrl Pts',(12.9799490503912,29.5349548998917,1.59034627938476E-15));
#657=CARTESIAN_POINT('Ctrl Pts',(12.9178063447818,29.2674556209627,1.58568299568888E-15));
#658=CARTESIAN_POINT('Ctrl Pts',(12.8581285273129,29.1358923645229,1.58232194261078E-15));
#659=CARTESIAN_POINT('Ctrl Pts',(12.8170456249577,29.0775167356095,1.58036306444383E-15));
#660=CARTESIAN_POINT('Ctrl Pts',(12.7670663084471,29.0237925535564,1.57602388820399E-15));
#661=CARTESIAN_POINT('Ctrl Pts',(12.69366770877,28.9604458191046,1.5683368903286E-15));
#662=CARTESIAN_POINT('Ctrl Pts',(12.4799569613617,28.8138924682629,1.54304719765749E-15));
#663=CARTESIAN_POINT('Ctrl Pts',(11.8195189460059,28.5441339500109,1.46102665422117E-15));
#664=CARTESIAN_POINT('Ctrl Pts',(10.0238221406394,28.1454209029721,1.23865710707353E-15));
#665=CARTESIAN_POINT('Ctrl Pts',(7.98587756823491,27.8741602261654,9.91329445555109E-16));
#666=CARTESIAN_POINT('Ctrl Pts',(6.37352848170082,27.6160976277407,7.94176773350418E-16));
#667=CARTESIAN_POINT('Ctrl Pts',(13.,30.,1.59204083889156E-15));
#668=CARTESIAN_POINT('Ctrl Pts',(13.,30.,1.70169602069447));
#669=CARTESIAN_POINT('Ctrl Pts',(12.3229761267899,30.,5.10421177947893));
#670=CARTESIAN_POINT('Ctrl Pts',(9.43276718750223,30.,9.4328473237612));
#671=CARTESIAN_POINT('Ctrl Pts',(5.10418930500252,30.,12.3230423732002));
#672=CARTESIAN_POINT('Ctrl Pts',(1.70162751907425,30.,13.0001890701755));
#673=CARTESIAN_POINT('Ctrl Pts',(-1.70166633470395,30.,13.0001872332651));
#674=CARTESIAN_POINT('Ctrl Pts',(-5.10421917642353,30.,12.3230419414748));
#675=CARTESIAN_POINT('Ctrl Pts',(-9.43283902070751,30.,9.4328339297194));
#676=CARTESIAN_POINT('Ctrl Pts',(-12.3230435508441,30.,5.10421250140267));
#677=CARTESIAN_POINT('Ctrl Pts',(-13.0001880060506,30.,1.70165134967684));
#678=CARTESIAN_POINT('Ctrl Pts',(-13.0001880060506,30.,-1.70165134967684));
#679=CARTESIAN_POINT('Ctrl Pts',(-12.3230435508441,30.,-5.10421250140268));
#680=CARTESIAN_POINT('Ctrl Pts',(-9.4328390207075,30.,-9.4328339297194));
#681=CARTESIAN_POINT('Ctrl Pts',(-5.10421917642353,30.,-12.3230419414748));
#682=CARTESIAN_POINT('Ctrl Pts',(-1.70166633470395,30.,-13.0001872332651));
#683=CARTESIAN_POINT('Ctrl Pts',(1.70162751907425,30.,-13.0001890701755));
#684=CARTESIAN_POINT('Ctrl Pts',(5.10418930500252,30.,-12.3230423732002));
#685=CARTESIAN_POINT('Ctrl Pts',(9.43276718750223,30.,-9.43284732376121));
#686=CARTESIAN_POINT('Ctrl Pts',(12.3229761267899,30.,-5.10421177947893));
#687=CARTESIAN_POINT('Ctrl Pts',(13.,30.,-1.70169602069447));
#688=CARTESIAN_POINT('Ctrl Pts',(13.,30.,-1.59204083889156E-15));
#689=CARTESIAN_POINT('Origin',(0.,30.,0.));
#690=CARTESIAN_POINT('',(15.,30.,-1.83697019872103E-15));
#691=CARTESIAN_POINT('Origin',(0.,30.,0.));
#692=CARTESIAN_POINT('Ctrl Pts',(15.,30.,-1.83697019872103E-15));
#693=CARTESIAN_POINT('Ctrl Pts',(15.,25.8333333333333,-1.83697019872103E-15));
#694=CARTESIAN_POINT('Ctrl Pts',(11.0666666666667,26.6666666666667,5.71501839602098E-16));
#695=CARTESIAN_POINT('Ctrl Pts',(3.2,25.,-3.91886975727153E-16));
#696=CARTESIAN_POINT('Ctrl Pts',(15.,30.,-1.96349540849362));
#697=CARTESIAN_POINT('Ctrl Pts',(15.,25.8333333333333,-1.96349540849362));
#698=CARTESIAN_POINT('Ctrl Pts',(11.0666666666667,26.6666666666667,-1.26152892759475));
#699=CARTESIAN_POINT('Ctrl Pts',(3.2,25.,-0.41887902047864));
#700=CARTESIAN_POINT('Ctrl Pts',(14.218824115331,30.,-5.88947226394906));
#701=CARTESIAN_POINT('Ctrl Pts',(14.218824115331,25.8333333333333,-5.88947226394906));
#702=CARTESIAN_POINT('Ctrl Pts',(10.3380074314953,26.6666666666667,-3.925053897208));
#703=CARTESIAN_POINT('Ctrl Pts',(3.03334914460394,25.,-1.25642074964247));
#704=CARTESIAN_POINT('Ctrl Pts',(10.8839587834229,30.,-10.884050175041));
#705=CARTESIAN_POINT('Ctrl Pts',(10.8839587834229,25.8333333333333,-10.884050175041));
#706=CARTESIAN_POINT('Ctrl Pts',(7.62455063952723,26.6666666666667,-7.62457013640576));
#707=CARTESIAN_POINT('Ctrl Pts',(2.32191120713022,25.,-2.32193070400875));
#708=CARTESIAN_POINT('Ctrl Pts',(5.88944961862441,30.,-14.2188972803789));
#709=CARTESIAN_POINT('Ctrl Pts',(5.88944961862441,25.8333333333333,-14.2188972803789));
#710=CARTESIAN_POINT('Ctrl Pts',(3.92504906620542,26.6666666666667,-10.3380230400389));
#711=CARTESIAN_POINT('Ctrl Pts',(1.25641591863987,25.,-3.03336475314749));
#712=CARTESIAN_POINT('Ctrl Pts',(1.9634174473539,30.,-15.0002236924182));
#713=CARTESIAN_POINT('Ctrl Pts',(1.9634174473539,25.8333333333333,-15.0002236924182));
#714=CARTESIAN_POINT('Ctrl Pts',(1.26151229588493,26.6666666666667,-11.0667143877159));
#715=CARTESIAN_POINT('Ctrl Pts',(0.418862388768831,25.,-3.20004772104921));
#716=CARTESIAN_POINT('Ctrl Pts',(-1.9634594289772,30.,-15.000221615983));
#717=CARTESIAN_POINT('Ctrl Pts',(-1.9634594289772,25.8333333333333,-15.000221615983));
#718=CARTESIAN_POINT('Ctrl Pts',(-1.26152125196457,26.6666666666667,-11.066713944743));
#719=CARTESIAN_POINT('Ctrl Pts',(-0.418871344848469,25.,-3.20004727807638));
#720=CARTESIAN_POINT('Ctrl Pts',(-5.88948054571788,30.,-14.2188971138418));
#721=CARTESIAN_POINT('Ctrl Pts',(-5.88948054571788,25.8333333333334,-14.2188971138418));
#722=CARTESIAN_POINT('Ctrl Pts',(-3.92505566398536,26.6666666666667,-10.338023004511));
#723=CARTESIAN_POINT('Ctrl Pts',(-1.25642251641981,25.,-3.03336471761959));
#724=CARTESIAN_POINT('Ctrl Pts',(-10.8840400797505,30.,-10.884034898156));
#725=CARTESIAN_POINT('Ctrl Pts',(-10.8840400797505,25.8333333333333,-10.884034898156));
#726=CARTESIAN_POINT('Ctrl Pts',(-7.62456798274377,26.6666666666667,-7.62456687733696));
#727=CARTESIAN_POINT('Ctrl Pts',(-2.32192855034677,25.,-2.32192744493995));
#728=CARTESIAN_POINT('Ctrl Pts',(-14.2188985581416,30.,-5.88947371682182));
#729=CARTESIAN_POINT('Ctrl Pts',(-14.2188985581416,25.8333333333333,-5.88947371682182));
#730=CARTESIAN_POINT('Ctrl Pts',(-10.3380233126283,26.6666666666667,-3.9250542071542));
#731=CARTESIAN_POINT('Ctrl Pts',(-3.03336502573688,25.,-1.25642105958865));
#732=CARTESIAN_POINT('Ctrl Pts',(-15.0002221649179,30.,-1.96344346556795));
#733=CARTESIAN_POINT('Ctrl Pts',(-15.0002221649179,25.8333333333333,-1.96344346556795));
#734=CARTESIAN_POINT('Ctrl Pts',(-11.0667140618491,26.6666666666667,-1.26151784643727));
#735=CARTESIAN_POINT('Ctrl Pts',(-3.20004739518248,25.,-0.418867939321162));
#736=CARTESIAN_POINT('Ctrl Pts',(-15.0002221649179,30.,1.96344346556795));
#737=CARTESIAN_POINT('Ctrl Pts',(-15.0002221649179,25.8333333333333,1.96344346556795));
#738=CARTESIAN_POINT('Ctrl Pts',(-11.0667140618492,26.6666666666667,1.26151784643727));
#739=CARTESIAN_POINT('Ctrl Pts',(-3.20004739518248,25.,0.418867939321162));
#740=CARTESIAN_POINT('Ctrl Pts',(-14.2188985581416,30.,5.88947371682182));
#741=CARTESIAN_POINT('Ctrl Pts',(-14.2188985581416,25.8333333333334,5.88947371682182));
#742=CARTESIAN_POINT('Ctrl Pts',(-10.3380233126283,26.6666666666667,3.9250542071542));
#743=CARTESIAN_POINT('Ctrl Pts',(-3.03336502573687,25.,1.25642105958865));
#744=CARTESIAN_POINT('Ctrl Pts',(-10.8840400797505,30.,10.884034898156));
#745=CARTESIAN_POINT('Ctrl Pts',(-10.8840400797505,25.8333333333333,10.884034898156));
#746=CARTESIAN_POINT('Ctrl Pts',(-7.62456798274378,26.6666666666667,7.62456687733696));
#747=CARTESIAN_POINT('Ctrl Pts',(-2.32192855034677,25.,2.32192744493995));
#748=CARTESIAN_POINT('Ctrl Pts',(-5.88948054571788,30.,14.2188971138418));
#749=CARTESIAN_POINT('Ctrl Pts',(-5.88948054571788,25.8333333333334,14.2188971138418));
#750=CARTESIAN_POINT('Ctrl Pts',(-3.92505566398535,26.6666666666667,10.338023004511));
#751=CARTESIAN_POINT('Ctrl Pts',(-1.25642251641981,25.,3.03336471761959));
#752=CARTESIAN_POINT('Ctrl Pts',(-1.9634594289772,30.,15.0002216159831));
#753=CARTESIAN_POINT('Ctrl Pts',(-1.9634594289772,25.8333333333333,15.0002216159831));
#754=CARTESIAN_POINT('Ctrl Pts',(-1.26152125196458,26.6666666666667,11.0667139447431));
#755=CARTESIAN_POINT('Ctrl Pts',(-0.418871344848469,25.,3.20004727807639));
#756=CARTESIAN_POINT('Ctrl Pts',(1.9634174473539,30.,15.0002236924182));
#757=CARTESIAN_POINT('Ctrl Pts',(1.9634174473539,25.8333333333333,15.0002236924182));
#758=CARTESIAN_POINT('Ctrl Pts',(1.26151229588494,26.6666666666667,11.0667143877159));
#759=CARTESIAN_POINT('Ctrl Pts',(0.418862388768831,25.,3.20004772104921));
#760=CARTESIAN_POINT('Ctrl Pts',(5.88944961862441,30.,14.2188972803789));
#761=CARTESIAN_POINT('Ctrl Pts',(5.88944961862441,25.8333333333334,14.2188972803789));
#762=CARTESIAN_POINT('Ctrl Pts',(3.92504906620541,26.6666666666667,10.3380230400389));
#763=CARTESIAN_POINT('Ctrl Pts',(1.25641591863987,25.,3.03336475314749));
#764=CARTESIAN_POINT('Ctrl Pts',(10.8839587834229,30.,10.884050175041));
#765=CARTESIAN_POINT('Ctrl Pts',(10.8839587834229,25.8333333333333,10.884050175041));
#766=CARTESIAN_POINT('Ctrl Pts',(7.62455063952723,26.6666666666667,7.62457013640576));
#767=CARTESIAN_POINT('Ctrl Pts',(2.32191120713022,25.,2.32193070400875));
#768=CARTESIAN_POINT('Ctrl Pts',(14.218824115331,30.,5.88947226394906));
#769=CARTESIAN_POINT('Ctrl Pts',(14.218824115331,25.8333333333333,5.88947226394906));
#770=CARTESIAN_POINT('Ctrl Pts',(10.3380074314953,26.6666666666667,3.92505389720801));
#771=CARTESIAN_POINT('Ctrl Pts',(3.03334914460394,25.,1.25642074964247));
#772=CARTESIAN_POINT('Ctrl Pts',(15.,30.,1.96349540849362));
#773=CARTESIAN_POINT('Ctrl Pts',(15.,25.8333333333333,1.96349540849362));
#774=CARTESIAN_POINT('Ctrl Pts',(11.0666666666667,26.6666666666667,1.26152892759475));
#775=CARTESIAN_POINT('Ctrl Pts',(3.2,25.,0.41887902047864));
#776=CARTESIAN_POINT('Ctrl Pts',(15.,30.,1.83697019872103E-15));
#777=CARTESIAN_POINT('Ctrl Pts',(15.,25.8333333333333,1.83697019872103E-15));
#778=CARTESIAN_POINT('Ctrl Pts',(11.0666666666667,26.6666666666667,1.3552757910564E-15));
#779=CARTESIAN_POINT('Ctrl Pts',(3.2,25.,3.91886975727153E-16));
#780=CARTESIAN_POINT('Ctrl Pts',(15.,30.,1.83697019872103E-15));
#781=CARTESIAN_POINT('Ctrl Pts',(15.,25.8333333333333,1.83697019872103E-15));
#782=CARTESIAN_POINT('Ctrl Pts',(11.0666666666667,26.6666666666667,1.3552757910564E-15));
#783=CARTESIAN_POINT('Ctrl Pts',(3.2,25.,3.91886975727153E-16));
#784=UNCERTAINTY_MEASURE_WITH_UNIT(LENGTH_MEASURE(0.01),#788,
'DISTANCE_ACCURACY_VALUE',
'Maximum model space distance between geometric entities at asserted c
onnectivities');
#785=UNCERTAINTY_MEASURE_WITH_UNIT(LENGTH_MEASURE(0.01),#788,
'DISTANCE_ACCURACY_VALUE',
'Maximum model space distance between geometric entities at asserted c
onnectivities');
#786=(
GEOMETRIC_REPRESENTATION_CONTEXT(3)
GLOBAL_UNCERTAINTY_ASSIGNED_CONTEXT((#784))
GLOBAL_UNIT_ASSIGNED_CONTEXT((#788,#790,#791))
REPRESENTATION_CONTEXT('','3D')
);
#787=(
GEOMETRIC_REPRESENTATION_CONTEXT(3)
GLOBAL_UNCERTAINTY_ASSIGNED_CONTEXT((#785))
GLOBAL_UNIT_ASSIGNED_CONTEXT((#788,#790,#791))
REPRESENTATION_CONTEXT('','3D')
);
#788=(
LENGTH_UNIT()
NAMED_UNIT(*)
SI_UNIT(.MILLI.,.METRE.)
);
#789=(
LENGTH_UNIT()
NAMED_UNIT(*)
SI_UNIT($,.METRE.)
);
#790=(
NAMED_UNIT(*)
PLANE_ANGLE_UNIT()
SI_UNIT($,.RADIAN.)
);
#791=(
NAMED_UNIT(*)
SI_UNIT($,.STERADIAN.)
SOLID_ANGLE_UNIT()
);
#792=SHAPE_DEFINITION_REPRESENTATION(#793,#794);
#793=PRODUCT_DEFINITION_SHAPE('',$,#796);
#794=SHAPE_REPRESENTATION('',(#145),#786);
#795=PRODUCT_DEFINITION_CONTEXT('part definition',#800,'design');
#796=PRODUCT_DEFINITION('2026-09-20-00-38-38-520','Hopper_1',#797,#795);
#797=PRODUCT_DEFINITION_FORMATION('',$,#802);
#798=PRODUCT_RELATED_PRODUCT_CATEGORY('Hopper_1','Hopper_1',(#802));
#799=APPLICATION_PROTOCOL_DEFINITION('international standard',
'automotive_design',2009,#800);
#800=APPLICATION_CONTEXT(
'Core Data for Automotive Mechanical Design Process');
#801=PRODUCT_CONTEXT('part definition',#800,'mechanical');
#802=PRODUCT('2026-09-20-00-38-38-520','Hopper_1',$,(#801));
#803=PRESENTATION_STYLE_ASSIGNMENT((#804));
#804=SURFACE_STYLE_USAGE(.BOTH.,#805);
#805=SURFACE_SIDE_STYLE('',(#806));
#806=SURFACE_STYLE_FILL_AREA(#807);
#807=FILL_AREA_STYLE('Steel - Satin',(#808));
#808=FILL_AREA_STYLE_COLOUR('Steel - Satin',#809);
#809=COLOUR_RGB('Steel - Satin',0.627450980392157,0.627450980392157,0.627450980392157);
ENDSEC;
END-ISO-10303-21;
