ISO-10303-21;
HEADER;
/* Generated by software containing ST-Developer
 * from STEP Tools, Inc. (www.steptools.com) 
 */

FILE_DESCRIPTION(
/* description */ (''),
/* implementation_level */ '2;1');

FILE_NAME(
/* name */ 'Piston_Final.step',
/* time_stamp */ '2026-09-20T18:16:35+05:30',
/* author */ (''),
/* organization */ (''),
/* preprocessor_version */ 'ST-DEVELOPER v20.2',
/* originating_system */ 'Autodesk Translation Framework v15.15.0.0',
/* authorisation */ '');

FILE_SCHEMA (('AUTOMOTIVE_DESIGN { 1 0 10303 214 3 1 1 }'));
ENDSEC;

DATA;
#10=MECHANICAL_DESIGN_GEOMETRIC_PRESENTATION_REPRESENTATION('',(#13),#1090);
#11=SHAPE_REPRESENTATION_RELATIONSHIP('SRR','None',#1097,#12);
#12=ADVANCED_BREP_SHAPE_REPRESENTATION('',(#14),#1089);
#13=STYLED_ITEM('',(#1106),#14);
#14=MANIFOLD_SOLID_BREP('Body15',#675);
#15=CONICAL_SURFACE('',#724,2.9,0.174532925199433);
#16=FACE_BOUND('',#88,.T.);
#17=FACE_BOUND('',#116,.T.);
#18=PLANE('',#692);
#19=PLANE('',#693);
#20=PLANE('',#695);
#21=PLANE('',#696);
#22=PLANE('',#697);
#23=PLANE('',#698);
#24=PLANE('',#699);
#25=PLANE('',#700);
#26=PLANE('',#701);
#27=PLANE('',#702);
#28=PLANE('',#703);
#29=PLANE('',#704);
#30=PLANE('',#705);
#31=PLANE('',#706);
#32=PLANE('',#707);
#33=PLANE('',#708);
#34=PLANE('',#709);
#35=PLANE('',#710);
#36=PLANE('',#711);
#37=PLANE('',#712);
#38=PLANE('',#713);
#39=PLANE('',#714);
#40=PLANE('',#715);
#41=PLANE('',#716);
#42=PLANE('',#717);
#43=PLANE('',#718);
#44=PLANE('',#719);
#45=PLANE('',#720);
#46=PLANE('',#721);
#47=PLANE('',#722);
#48=PLANE('',#723);
#49=PLANE('',#728);
#50=FACE_OUTER_BOUND('',#85,.T.);
#51=FACE_OUTER_BOUND('',#86,.T.);
#52=FACE_OUTER_BOUND('',#87,.T.);
#53=FACE_OUTER_BOUND('',#89,.T.);
#54=FACE_OUTER_BOUND('',#90,.T.);
#55=FACE_OUTER_BOUND('',#91,.T.);
#56=FACE_OUTER_BOUND('',#92,.T.);
#57=FACE_OUTER_BOUND('',#93,.T.);
#58=FACE_OUTER_BOUND('',#94,.T.);
#59=FACE_OUTER_BOUND('',#95,.T.);
#60=FACE_OUTER_BOUND('',#96,.T.);
#61=FACE_OUTER_BOUND('',#97,.T.);
#62=FACE_OUTER_BOUND('',#98,.T.);
#63=FACE_OUTER_BOUND('',#99,.T.);
#64=FACE_OUTER_BOUND('',#100,.T.);
#65=FACE_OUTER_BOUND('',#101,.T.);
#66=FACE_OUTER_BOUND('',#102,.T.);
#67=FACE_OUTER_BOUND('',#103,.T.);
#68=FACE_OUTER_BOUND('',#104,.T.);
#69=FACE_OUTER_BOUND('',#105,.T.);
#70=FACE_OUTER_BOUND('',#106,.T.);
#71=FACE_OUTER_BOUND('',#107,.T.);
#72=FACE_OUTER_BOUND('',#108,.T.);
#73=FACE_OUTER_BOUND('',#109,.T.);
#74=FACE_OUTER_BOUND('',#110,.T.);
#75=FACE_OUTER_BOUND('',#111,.T.);
#76=FACE_OUTER_BOUND('',#112,.T.);
#77=FACE_OUTER_BOUND('',#113,.T.);
#78=FACE_OUTER_BOUND('',#114,.T.);
#79=FACE_OUTER_BOUND('',#115,.T.);
#80=FACE_OUTER_BOUND('',#117,.T.);
#81=FACE_OUTER_BOUND('',#118,.T.);
#82=FACE_OUTER_BOUND('',#119,.T.);
#83=FACE_OUTER_BOUND('',#120,.T.);
#84=FACE_OUTER_BOUND('',#121,.T.);
#85=EDGE_LOOP('',(#454,#455,#456,#457));
#86=EDGE_LOOP('',(#458));
#87=EDGE_LOOP('',(#459,#460,#461,#462,#463,#464,#465,#466));
#88=EDGE_LOOP('',(#467));
#89=EDGE_LOOP('',(#468,#469,#470,#471,#472,#473,#474,#475,#476,#477,#478,
#479,#480,#481,#482,#483,#484,#485,#486,#487,#488,#489,#490,#491));
#90=EDGE_LOOP('',(#492,#493,#494,#495));
#91=EDGE_LOOP('',(#496,#497,#498,#499));
#92=EDGE_LOOP('',(#500,#501,#502,#503));
#93=EDGE_LOOP('',(#504,#505,#506,#507));
#94=EDGE_LOOP('',(#508,#509,#510,#511));
#95=EDGE_LOOP('',(#512,#513,#514,#515));
#96=EDGE_LOOP('',(#516,#517,#518,#519));
#97=EDGE_LOOP('',(#520,#521,#522,#523));
#98=EDGE_LOOP('',(#524,#525,#526,#527));
#99=EDGE_LOOP('',(#528,#529,#530,#531));
#100=EDGE_LOOP('',(#532,#533,#534,#535));
#101=EDGE_LOOP('',(#536,#537,#538,#539));
#102=EDGE_LOOP('',(#540,#541,#542,#543));
#103=EDGE_LOOP('',(#544,#545,#546,#547));
#104=EDGE_LOOP('',(#548,#549,#550,#551));
#105=EDGE_LOOP('',(#552,#553,#554,#555));
#106=EDGE_LOOP('',(#556,#557,#558,#559));
#107=EDGE_LOOP('',(#560,#561,#562,#563));
#108=EDGE_LOOP('',(#564,#565,#566,#567));
#109=EDGE_LOOP('',(#568,#569,#570,#571));
#110=EDGE_LOOP('',(#572,#573,#574,#575));
#111=EDGE_LOOP('',(#576,#577,#578,#579,#580,#581,#582,#583,#584,#585,#586,
#587,#588,#589,#590,#591,#592,#593,#594,#595,#596,#597,#598,#599));
#112=EDGE_LOOP('',(#600,#601,#602,#603));
#113=EDGE_LOOP('',(#604,#605,#606,#607));
#114=EDGE_LOOP('',(#608,#609,#610,#611));
#115=EDGE_LOOP('',(#612,#613,#614,#615,#616,#617,#618,#619));
#116=EDGE_LOOP('',(#620));
#117=EDGE_LOOP('',(#621,#622,#623,#624));
#118=EDGE_LOOP('',(#625,#626,#627,#628));
#119=EDGE_LOOP('',(#629,#630,#631,#632));
#120=EDGE_LOOP('',(#633,#634,#635,#636));
#121=EDGE_LOOP('',(#637));
#122=LINE('',#903,#209);
#123=LINE('',#909,#210);
#124=LINE('',#911,#211);
#125=LINE('',#913,#212);
#126=LINE('',#915,#213);
#127=LINE('',#917,#214);
#128=LINE('',#919,#215);
#129=LINE('',#921,#216);
#130=LINE('',#922,#217);
#131=LINE('',#927,#218);
#132=LINE('',#929,#219);
#133=LINE('',#931,#220);
#134=LINE('',#933,#221);
#135=LINE('',#935,#222);
#136=LINE('',#937,#223);
#137=LINE('',#939,#224);
#138=LINE('',#941,#225);
#139=LINE('',#943,#226);
#140=LINE('',#945,#227);
#141=LINE('',#947,#228);
#142=LINE('',#949,#229);
#143=LINE('',#951,#230);
#144=LINE('',#953,#231);
#145=LINE('',#955,#232);
#146=LINE('',#957,#233);
#147=LINE('',#959,#234);
#148=LINE('',#961,#235);
#149=LINE('',#963,#236);
#150=LINE('',#965,#237);
#151=LINE('',#967,#238);
#152=LINE('',#969,#239);
#153=LINE('',#970,#240);
#154=LINE('',#973,#241);
#155=LINE('',#975,#242);
#156=LINE('',#976,#243);
#157=LINE('',#979,#244);
#158=LINE('',#980,#245);
#159=LINE('',#983,#246);
#160=LINE('',#984,#247);
#161=LINE('',#987,#248);
#162=LINE('',#988,#249);
#163=LINE('',#991,#250);
#164=LINE('',#992,#251);
#165=LINE('',#995,#252);
#166=LINE('',#996,#253);
#167=LINE('',#999,#254);
#168=LINE('',#1000,#255);
#169=LINE('',#1003,#256);
#170=LINE('',#1004,#257);
#171=LINE('',#1007,#258);
#172=LINE('',#1008,#259);
#173=LINE('',#1011,#260);
#174=LINE('',#1012,#261);
#175=LINE('',#1015,#262);
#176=LINE('',#1016,#263);
#177=LINE('',#1019,#264);
#178=LINE('',#1020,#265);
#179=LINE('',#1023,#266);
#180=LINE('',#1024,#267);
#181=LINE('',#1027,#268);
#182=LINE('',#1028,#269);
#183=LINE('',#1031,#270);
#184=LINE('',#1032,#271);
#185=LINE('',#1035,#272);
#186=LINE('',#1036,#273);
#187=LINE('',#1039,#274);
#188=LINE('',#1040,#275);
#189=LINE('',#1043,#276);
#190=LINE('',#1044,#277);
#191=LINE('',#1047,#278);
#192=LINE('',#1048,#279);
#193=LINE('',#1051,#280);
#194=LINE('',#1052,#281);
#195=LINE('',#1054,#282);
#196=LINE('',#1057,#283);
#197=LINE('',#1058,#284);
#198=LINE('',#1061,#285);
#199=LINE('',#1062,#286);
#200=LINE('',#1065,#287);
#201=LINE('',#1066,#288);
#202=LINE('',#1069,#289);
#203=LINE('',#1070,#290);
#204=LINE('',#1073,#291);
#205=LINE('',#1074,#292);
#206=LINE('',#1076,#293);
#207=LINE('',#1080,#294);
#208=LINE('',#1085,#295);
#209=VECTOR('',#735,2.);
#210=VECTOR('',#742,10.);
#211=VECTOR('',#743,10.);
#212=VECTOR('',#744,10.);
#213=VECTOR('',#745,10.);
#214=VECTOR('',#746,10.);
#215=VECTOR('',#747,10.);
#216=VECTOR('',#748,10.);
#217=VECTOR('',#749,10.);
#218=VECTOR('',#754,10.);
#219=VECTOR('',#755,10.);
#220=VECTOR('',#756,10.);
#221=VECTOR('',#757,10.);
#222=VECTOR('',#758,10.);
#223=VECTOR('',#759,10.);
#224=VECTOR('',#760,10.);
#225=VECTOR('',#761,10.);
#226=VECTOR('',#762,10.);
#227=VECTOR('',#763,10.);
#228=VECTOR('',#764,10.);
#229=VECTOR('',#765,10.);
#230=VECTOR('',#766,10.);
#231=VECTOR('',#767,10.);
#232=VECTOR('',#768,10.);
#233=VECTOR('',#769,10.);
#234=VECTOR('',#770,10.);
#235=VECTOR('',#771,10.);
#236=VECTOR('',#772,10.);
#237=VECTOR('',#773,10.);
#238=VECTOR('',#774,10.);
#239=VECTOR('',#775,10.);
#240=VECTOR('',#776,10.);
#241=VECTOR('',#779,10.);
#242=VECTOR('',#780,10.);
#243=VECTOR('',#781,10.);
#244=VECTOR('',#784,10.);
#245=VECTOR('',#785,10.);
#246=VECTOR('',#788,10.);
#247=VECTOR('',#789,10.);
#248=VECTOR('',#792,10.);
#249=VECTOR('',#793,10.);
#250=VECTOR('',#796,10.);
#251=VECTOR('',#797,10.);
#252=VECTOR('',#800,10.);
#253=VECTOR('',#801,10.);
#254=VECTOR('',#804,10.);
#255=VECTOR('',#805,10.);
#256=VECTOR('',#808,10.);
#257=VECTOR('',#809,10.);
#258=VECTOR('',#812,10.);
#259=VECTOR('',#813,10.);
#260=VECTOR('',#816,10.);
#261=VECTOR('',#817,10.);
#262=VECTOR('',#820,10.);
#263=VECTOR('',#821,10.);
#264=VECTOR('',#824,10.);
#265=VECTOR('',#825,10.);
#266=VECTOR('',#828,10.);
#267=VECTOR('',#829,10.);
#268=VECTOR('',#832,10.);
#269=VECTOR('',#833,10.);
#270=VECTOR('',#836,10.);
#271=VECTOR('',#837,10.);
#272=VECTOR('',#840,10.);
#273=VECTOR('',#841,10.);
#274=VECTOR('',#844,10.);
#275=VECTOR('',#845,10.);
#276=VECTOR('',#848,10.);
#277=VECTOR('',#849,10.);
#278=VECTOR('',#852,10.);
#279=VECTOR('',#853,10.);
#280=VECTOR('',#856,10.);
#281=VECTOR('',#857,10.);
#282=VECTOR('',#860,10.);
#283=VECTOR('',#863,10.);
#284=VECTOR('',#864,10.);
#285=VECTOR('',#867,10.);
#286=VECTOR('',#868,10.);
#287=VECTOR('',#871,10.);
#288=VECTOR('',#872,10.);
#289=VECTOR('',#875,10.);
#290=VECTOR('',#876,10.);
#291=VECTOR('',#879,10.);
#292=VECTOR('',#880,10.);
#293=VECTOR('',#883,10.);
#294=VECTOR('',#888,2.9);
#295=VECTOR('',#895,2.9);
#296=CIRCLE('',#690,2.);
#297=CIRCLE('',#691,2.);
#298=CIRCLE('',#694,3.79102588722309);
#299=CIRCLE('',#725,2.9);
#300=CIRCLE('',#727,2.9);
#301=VERTEX_POINT('',#900);
#302=VERTEX_POINT('',#902);
#303=VERTEX_POINT('',#907);
#304=VERTEX_POINT('',#908);
#305=VERTEX_POINT('',#910);
#306=VERTEX_POINT('',#912);
#307=VERTEX_POINT('',#914);
#308=VERTEX_POINT('',#916);
#309=VERTEX_POINT('',#918);
#310=VERTEX_POINT('',#920);
#311=VERTEX_POINT('',#923);
#312=VERTEX_POINT('',#926);
#313=VERTEX_POINT('',#928);
#314=VERTEX_POINT('',#930);
#315=VERTEX_POINT('',#932);
#316=VERTEX_POINT('',#934);
#317=VERTEX_POINT('',#936);
#318=VERTEX_POINT('',#938);
#319=VERTEX_POINT('',#940);
#320=VERTEX_POINT('',#942);
#321=VERTEX_POINT('',#944);
#322=VERTEX_POINT('',#946);
#323=VERTEX_POINT('',#948);
#324=VERTEX_POINT('',#950);
#325=VERTEX_POINT('',#952);
#326=VERTEX_POINT('',#954);
#327=VERTEX_POINT('',#956);
#328=VERTEX_POINT('',#958);
#329=VERTEX_POINT('',#960);
#330=VERTEX_POINT('',#962);
#331=VERTEX_POINT('',#964);
#332=VERTEX_POINT('',#966);
#333=VERTEX_POINT('',#968);
#334=VERTEX_POINT('',#972);
#335=VERTEX_POINT('',#974);
#336=VERTEX_POINT('',#978);
#337=VERTEX_POINT('',#982);
#338=VERTEX_POINT('',#986);
#339=VERTEX_POINT('',#990);
#340=VERTEX_POINT('',#994);
#341=VERTEX_POINT('',#998);
#342=VERTEX_POINT('',#1002);
#343=VERTEX_POINT('',#1006);
#344=VERTEX_POINT('',#1010);
#345=VERTEX_POINT('',#1014);
#346=VERTEX_POINT('',#1018);
#347=VERTEX_POINT('',#1022);
#348=VERTEX_POINT('',#1026);
#349=VERTEX_POINT('',#1030);
#350=VERTEX_POINT('',#1034);
#351=VERTEX_POINT('',#1038);
#352=VERTEX_POINT('',#1042);
#353=VERTEX_POINT('',#1046);
#354=VERTEX_POINT('',#1050);
#355=VERTEX_POINT('',#1056);
#356=VERTEX_POINT('',#1060);
#357=VERTEX_POINT('',#1064);
#358=VERTEX_POINT('',#1068);
#359=VERTEX_POINT('',#1072);
#360=VERTEX_POINT('',#1079);
#361=VERTEX_POINT('',#1083);
#362=EDGE_CURVE('',#301,#301,#296,.T.);
#363=EDGE_CURVE('',#301,#302,#122,.T.);
#364=EDGE_CURVE('',#302,#302,#297,.T.);
#365=EDGE_CURVE('',#303,#304,#123,.T.);
#366=EDGE_CURVE('',#305,#304,#124,.T.);
#367=EDGE_CURVE('',#305,#306,#125,.T.);
#368=EDGE_CURVE('',#307,#306,#126,.T.);
#369=EDGE_CURVE('',#307,#308,#127,.T.);
#370=EDGE_CURVE('',#309,#308,#128,.T.);
#371=EDGE_CURVE('',#310,#309,#129,.T.);
#372=EDGE_CURVE('',#303,#310,#130,.T.);
#373=EDGE_CURVE('',#311,#311,#298,.T.);
#374=EDGE_CURVE('',#312,#304,#131,.T.);
#375=EDGE_CURVE('',#312,#313,#132,.T.);
#376=EDGE_CURVE('',#313,#314,#133,.T.);
#377=EDGE_CURVE('',#314,#315,#134,.T.);
#378=EDGE_CURVE('',#315,#316,#135,.T.);
#379=EDGE_CURVE('',#316,#317,#136,.T.);
#380=EDGE_CURVE('',#317,#318,#137,.T.);
#381=EDGE_CURVE('',#318,#319,#138,.T.);
#382=EDGE_CURVE('',#319,#320,#139,.T.);
#383=EDGE_CURVE('',#320,#321,#140,.T.);
#384=EDGE_CURVE('',#321,#322,#141,.T.);
#385=EDGE_CURVE('',#322,#323,#142,.T.);
#386=EDGE_CURVE('',#323,#324,#143,.T.);
#387=EDGE_CURVE('',#324,#325,#144,.T.);
#388=EDGE_CURVE('',#325,#326,#145,.T.);
#389=EDGE_CURVE('',#326,#327,#146,.T.);
#390=EDGE_CURVE('',#327,#328,#147,.T.);
#391=EDGE_CURVE('',#328,#329,#148,.T.);
#392=EDGE_CURVE('',#329,#330,#149,.T.);
#393=EDGE_CURVE('',#330,#331,#150,.T.);
#394=EDGE_CURVE('',#331,#332,#151,.T.);
#395=EDGE_CURVE('',#332,#333,#152,.T.);
#396=EDGE_CURVE('',#333,#305,#153,.T.);
#397=EDGE_CURVE('',#313,#334,#154,.T.);
#398=EDGE_CURVE('',#335,#334,#155,.T.);
#399=EDGE_CURVE('',#314,#335,#156,.T.);
#400=EDGE_CURVE('',#336,#335,#157,.T.);
#401=EDGE_CURVE('',#315,#336,#158,.T.);
#402=EDGE_CURVE('',#337,#336,#159,.T.);
#403=EDGE_CURVE('',#316,#337,#160,.T.);
#404=EDGE_CURVE('',#338,#337,#161,.T.);
#405=EDGE_CURVE('',#317,#338,#162,.T.);
#406=EDGE_CURVE('',#339,#338,#163,.T.);
#407=EDGE_CURVE('',#318,#339,#164,.T.);
#408=EDGE_CURVE('',#340,#339,#165,.T.);
#409=EDGE_CURVE('',#319,#340,#166,.T.);
#410=EDGE_CURVE('',#341,#340,#167,.T.);
#411=EDGE_CURVE('',#320,#341,#168,.T.);
#412=EDGE_CURVE('',#342,#341,#169,.T.);
#413=EDGE_CURVE('',#321,#342,#170,.T.);
#414=EDGE_CURVE('',#343,#342,#171,.T.);
#415=EDGE_CURVE('',#322,#343,#172,.T.);
#416=EDGE_CURVE('',#344,#343,#173,.T.);
#417=EDGE_CURVE('',#323,#344,#174,.T.);
#418=EDGE_CURVE('',#345,#344,#175,.T.);
#419=EDGE_CURVE('',#324,#345,#176,.T.);
#420=EDGE_CURVE('',#346,#345,#177,.T.);
#421=EDGE_CURVE('',#325,#346,#178,.T.);
#422=EDGE_CURVE('',#347,#346,#179,.T.);
#423=EDGE_CURVE('',#326,#347,#180,.T.);
#424=EDGE_CURVE('',#348,#347,#181,.T.);
#425=EDGE_CURVE('',#327,#348,#182,.T.);
#426=EDGE_CURVE('',#349,#348,#183,.T.);
#427=EDGE_CURVE('',#328,#349,#184,.T.);
#428=EDGE_CURVE('',#350,#349,#185,.T.);
#429=EDGE_CURVE('',#329,#350,#186,.T.);
#430=EDGE_CURVE('',#351,#350,#187,.T.);
#431=EDGE_CURVE('',#330,#351,#188,.T.);
#432=EDGE_CURVE('',#352,#351,#189,.T.);
#433=EDGE_CURVE('',#331,#352,#190,.T.);
#434=EDGE_CURVE('',#353,#352,#191,.T.);
#435=EDGE_CURVE('',#332,#353,#192,.T.);
#436=EDGE_CURVE('',#354,#353,#193,.T.);
#437=EDGE_CURVE('',#333,#354,#194,.T.);
#438=EDGE_CURVE('',#306,#354,#195,.T.);
#439=EDGE_CURVE('',#307,#355,#196,.T.);
#440=EDGE_CURVE('',#334,#355,#197,.T.);
#441=EDGE_CURVE('',#356,#303,#198,.T.);
#442=EDGE_CURVE('',#356,#312,#199,.T.);
#443=EDGE_CURVE('',#355,#357,#200,.T.);
#444=EDGE_CURVE('',#308,#357,#201,.T.);
#445=EDGE_CURVE('',#310,#358,#202,.T.);
#446=EDGE_CURVE('',#358,#356,#203,.T.);
#447=EDGE_CURVE('',#359,#358,#204,.T.);
#448=EDGE_CURVE('',#357,#359,#205,.T.);
#449=EDGE_CURVE('',#359,#309,#206,.T.);
#450=EDGE_CURVE('',#311,#360,#207,.T.);
#451=EDGE_CURVE('',#360,#360,#299,.T.);
#452=EDGE_CURVE('',#361,#361,#300,.T.);
#453=EDGE_CURVE('',#361,#360,#208,.T.);
#454=ORIENTED_EDGE('',*,*,#362,.F.);
#455=ORIENTED_EDGE('',*,*,#363,.T.);
#456=ORIENTED_EDGE('',*,*,#364,.F.);
#457=ORIENTED_EDGE('',*,*,#363,.F.);
#458=ORIENTED_EDGE('',*,*,#362,.T.);
#459=ORIENTED_EDGE('',*,*,#365,.T.);
#460=ORIENTED_EDGE('',*,*,#366,.F.);
#461=ORIENTED_EDGE('',*,*,#367,.T.);
#462=ORIENTED_EDGE('',*,*,#368,.F.);
#463=ORIENTED_EDGE('',*,*,#369,.T.);
#464=ORIENTED_EDGE('',*,*,#370,.F.);
#465=ORIENTED_EDGE('',*,*,#371,.F.);
#466=ORIENTED_EDGE('',*,*,#372,.F.);
#467=ORIENTED_EDGE('',*,*,#373,.T.);
#468=ORIENTED_EDGE('',*,*,#374,.F.);
#469=ORIENTED_EDGE('',*,*,#375,.T.);
#470=ORIENTED_EDGE('',*,*,#376,.T.);
#471=ORIENTED_EDGE('',*,*,#377,.T.);
#472=ORIENTED_EDGE('',*,*,#378,.T.);
#473=ORIENTED_EDGE('',*,*,#379,.T.);
#474=ORIENTED_EDGE('',*,*,#380,.T.);
#475=ORIENTED_EDGE('',*,*,#381,.T.);
#476=ORIENTED_EDGE('',*,*,#382,.T.);
#477=ORIENTED_EDGE('',*,*,#383,.T.);
#478=ORIENTED_EDGE('',*,*,#384,.T.);
#479=ORIENTED_EDGE('',*,*,#385,.T.);
#480=ORIENTED_EDGE('',*,*,#386,.T.);
#481=ORIENTED_EDGE('',*,*,#387,.T.);
#482=ORIENTED_EDGE('',*,*,#388,.T.);
#483=ORIENTED_EDGE('',*,*,#389,.T.);
#484=ORIENTED_EDGE('',*,*,#390,.T.);
#485=ORIENTED_EDGE('',*,*,#391,.T.);
#486=ORIENTED_EDGE('',*,*,#392,.T.);
#487=ORIENTED_EDGE('',*,*,#393,.T.);
#488=ORIENTED_EDGE('',*,*,#394,.T.);
#489=ORIENTED_EDGE('',*,*,#395,.T.);
#490=ORIENTED_EDGE('',*,*,#396,.T.);
#491=ORIENTED_EDGE('',*,*,#366,.T.);
#492=ORIENTED_EDGE('',*,*,#397,.T.);
#493=ORIENTED_EDGE('',*,*,#398,.F.);
#494=ORIENTED_EDGE('',*,*,#399,.F.);
#495=ORIENTED_EDGE('',*,*,#376,.F.);
#496=ORIENTED_EDGE('',*,*,#399,.T.);
#497=ORIENTED_EDGE('',*,*,#400,.F.);
#498=ORIENTED_EDGE('',*,*,#401,.F.);
#499=ORIENTED_EDGE('',*,*,#377,.F.);
#500=ORIENTED_EDGE('',*,*,#401,.T.);
#501=ORIENTED_EDGE('',*,*,#402,.F.);
#502=ORIENTED_EDGE('',*,*,#403,.F.);
#503=ORIENTED_EDGE('',*,*,#378,.F.);
#504=ORIENTED_EDGE('',*,*,#403,.T.);
#505=ORIENTED_EDGE('',*,*,#404,.F.);
#506=ORIENTED_EDGE('',*,*,#405,.F.);
#507=ORIENTED_EDGE('',*,*,#379,.F.);
#508=ORIENTED_EDGE('',*,*,#405,.T.);
#509=ORIENTED_EDGE('',*,*,#406,.F.);
#510=ORIENTED_EDGE('',*,*,#407,.F.);
#511=ORIENTED_EDGE('',*,*,#380,.F.);
#512=ORIENTED_EDGE('',*,*,#407,.T.);
#513=ORIENTED_EDGE('',*,*,#408,.F.);
#514=ORIENTED_EDGE('',*,*,#409,.F.);
#515=ORIENTED_EDGE('',*,*,#381,.F.);
#516=ORIENTED_EDGE('',*,*,#409,.T.);
#517=ORIENTED_EDGE('',*,*,#410,.F.);
#518=ORIENTED_EDGE('',*,*,#411,.F.);
#519=ORIENTED_EDGE('',*,*,#382,.F.);
#520=ORIENTED_EDGE('',*,*,#411,.T.);
#521=ORIENTED_EDGE('',*,*,#412,.F.);
#522=ORIENTED_EDGE('',*,*,#413,.F.);
#523=ORIENTED_EDGE('',*,*,#383,.F.);
#524=ORIENTED_EDGE('',*,*,#413,.T.);
#525=ORIENTED_EDGE('',*,*,#414,.F.);
#526=ORIENTED_EDGE('',*,*,#415,.F.);
#527=ORIENTED_EDGE('',*,*,#384,.F.);
#528=ORIENTED_EDGE('',*,*,#415,.T.);
#529=ORIENTED_EDGE('',*,*,#416,.F.);
#530=ORIENTED_EDGE('',*,*,#417,.F.);
#531=ORIENTED_EDGE('',*,*,#385,.F.);
#532=ORIENTED_EDGE('',*,*,#417,.T.);
#533=ORIENTED_EDGE('',*,*,#418,.F.);
#534=ORIENTED_EDGE('',*,*,#419,.F.);
#535=ORIENTED_EDGE('',*,*,#386,.F.);
#536=ORIENTED_EDGE('',*,*,#419,.T.);
#537=ORIENTED_EDGE('',*,*,#420,.F.);
#538=ORIENTED_EDGE('',*,*,#421,.F.);
#539=ORIENTED_EDGE('',*,*,#387,.F.);
#540=ORIENTED_EDGE('',*,*,#421,.T.);
#541=ORIENTED_EDGE('',*,*,#422,.F.);
#542=ORIENTED_EDGE('',*,*,#423,.F.);
#543=ORIENTED_EDGE('',*,*,#388,.F.);
#544=ORIENTED_EDGE('',*,*,#423,.T.);
#545=ORIENTED_EDGE('',*,*,#424,.F.);
#546=ORIENTED_EDGE('',*,*,#425,.F.);
#547=ORIENTED_EDGE('',*,*,#389,.F.);
#548=ORIENTED_EDGE('',*,*,#425,.T.);
#549=ORIENTED_EDGE('',*,*,#426,.F.);
#550=ORIENTED_EDGE('',*,*,#427,.F.);
#551=ORIENTED_EDGE('',*,*,#390,.F.);
#552=ORIENTED_EDGE('',*,*,#427,.T.);
#553=ORIENTED_EDGE('',*,*,#428,.F.);
#554=ORIENTED_EDGE('',*,*,#429,.F.);
#555=ORIENTED_EDGE('',*,*,#391,.F.);
#556=ORIENTED_EDGE('',*,*,#429,.T.);
#557=ORIENTED_EDGE('',*,*,#430,.F.);
#558=ORIENTED_EDGE('',*,*,#431,.F.);
#559=ORIENTED_EDGE('',*,*,#392,.F.);
#560=ORIENTED_EDGE('',*,*,#431,.T.);
#561=ORIENTED_EDGE('',*,*,#432,.F.);
#562=ORIENTED_EDGE('',*,*,#433,.F.);
#563=ORIENTED_EDGE('',*,*,#393,.F.);
#564=ORIENTED_EDGE('',*,*,#433,.T.);
#565=ORIENTED_EDGE('',*,*,#434,.F.);
#566=ORIENTED_EDGE('',*,*,#435,.F.);
#567=ORIENTED_EDGE('',*,*,#394,.F.);
#568=ORIENTED_EDGE('',*,*,#435,.T.);
#569=ORIENTED_EDGE('',*,*,#436,.F.);
#570=ORIENTED_EDGE('',*,*,#437,.F.);
#571=ORIENTED_EDGE('',*,*,#395,.F.);
#572=ORIENTED_EDGE('',*,*,#437,.T.);
#573=ORIENTED_EDGE('',*,*,#438,.F.);
#574=ORIENTED_EDGE('',*,*,#367,.F.);
#575=ORIENTED_EDGE('',*,*,#396,.F.);
#576=ORIENTED_EDGE('',*,*,#439,.F.);
#577=ORIENTED_EDGE('',*,*,#368,.T.);
#578=ORIENTED_EDGE('',*,*,#438,.T.);
#579=ORIENTED_EDGE('',*,*,#436,.T.);
#580=ORIENTED_EDGE('',*,*,#434,.T.);
#581=ORIENTED_EDGE('',*,*,#432,.T.);
#582=ORIENTED_EDGE('',*,*,#430,.T.);
#583=ORIENTED_EDGE('',*,*,#428,.T.);
#584=ORIENTED_EDGE('',*,*,#426,.T.);
#585=ORIENTED_EDGE('',*,*,#424,.T.);
#586=ORIENTED_EDGE('',*,*,#422,.T.);
#587=ORIENTED_EDGE('',*,*,#420,.T.);
#588=ORIENTED_EDGE('',*,*,#418,.T.);
#589=ORIENTED_EDGE('',*,*,#416,.T.);
#590=ORIENTED_EDGE('',*,*,#414,.T.);
#591=ORIENTED_EDGE('',*,*,#412,.T.);
#592=ORIENTED_EDGE('',*,*,#410,.T.);
#593=ORIENTED_EDGE('',*,*,#408,.T.);
#594=ORIENTED_EDGE('',*,*,#406,.T.);
#595=ORIENTED_EDGE('',*,*,#404,.T.);
#596=ORIENTED_EDGE('',*,*,#402,.T.);
#597=ORIENTED_EDGE('',*,*,#400,.T.);
#598=ORIENTED_EDGE('',*,*,#398,.T.);
#599=ORIENTED_EDGE('',*,*,#440,.T.);
#600=ORIENTED_EDGE('',*,*,#374,.T.);
#601=ORIENTED_EDGE('',*,*,#365,.F.);
#602=ORIENTED_EDGE('',*,*,#441,.F.);
#603=ORIENTED_EDGE('',*,*,#442,.T.);
#604=ORIENTED_EDGE('',*,*,#439,.T.);
#605=ORIENTED_EDGE('',*,*,#443,.T.);
#606=ORIENTED_EDGE('',*,*,#444,.F.);
#607=ORIENTED_EDGE('',*,*,#369,.F.);
#608=ORIENTED_EDGE('',*,*,#445,.T.);
#609=ORIENTED_EDGE('',*,*,#446,.T.);
#610=ORIENTED_EDGE('',*,*,#441,.T.);
#611=ORIENTED_EDGE('',*,*,#372,.T.);
#612=ORIENTED_EDGE('',*,*,#447,.F.);
#613=ORIENTED_EDGE('',*,*,#448,.F.);
#614=ORIENTED_EDGE('',*,*,#443,.F.);
#615=ORIENTED_EDGE('',*,*,#440,.F.);
#616=ORIENTED_EDGE('',*,*,#397,.F.);
#617=ORIENTED_EDGE('',*,*,#375,.F.);
#618=ORIENTED_EDGE('',*,*,#442,.F.);
#619=ORIENTED_EDGE('',*,*,#446,.F.);
#620=ORIENTED_EDGE('',*,*,#364,.T.);
#621=ORIENTED_EDGE('',*,*,#371,.T.);
#622=ORIENTED_EDGE('',*,*,#449,.F.);
#623=ORIENTED_EDGE('',*,*,#447,.T.);
#624=ORIENTED_EDGE('',*,*,#445,.F.);
#625=ORIENTED_EDGE('',*,*,#449,.T.);
#626=ORIENTED_EDGE('',*,*,#370,.T.);
#627=ORIENTED_EDGE('',*,*,#444,.T.);
#628=ORIENTED_EDGE('',*,*,#448,.T.);
#629=ORIENTED_EDGE('',*,*,#373,.F.);
#630=ORIENTED_EDGE('',*,*,#450,.T.);
#631=ORIENTED_EDGE('',*,*,#451,.T.);
#632=ORIENTED_EDGE('',*,*,#450,.F.);
#633=ORIENTED_EDGE('',*,*,#452,.F.);
#634=ORIENTED_EDGE('',*,*,#453,.T.);
#635=ORIENTED_EDGE('',*,*,#451,.F.);
#636=ORIENTED_EDGE('',*,*,#453,.F.);
#637=ORIENTED_EDGE('',*,*,#452,.T.);
#638=CYLINDRICAL_SURFACE('',#689,2.);
#639=CYLINDRICAL_SURFACE('',#726,2.9);
#640=ADVANCED_FACE('',(#50),#638,.T.);
#641=ADVANCED_FACE('',(#51),#18,.T.);
#642=ADVANCED_FACE('',(#52,#16),#19,.T.);
#643=ADVANCED_FACE('',(#53),#20,.T.);
#644=ADVANCED_FACE('',(#54),#21,.T.);
#645=ADVANCED_FACE('',(#55),#22,.T.);
#646=ADVANCED_FACE('',(#56),#23,.T.);
#647=ADVANCED_FACE('',(#57),#24,.T.);
#648=ADVANCED_FACE('',(#58),#25,.T.);
#649=ADVANCED_FACE('',(#59),#26,.T.);
#650=ADVANCED_FACE('',(#60),#27,.T.);
#651=ADVANCED_FACE('',(#61),#28,.T.);
#652=ADVANCED_FACE('',(#62),#29,.T.);
#653=ADVANCED_FACE('',(#63),#30,.T.);
#654=ADVANCED_FACE('',(#64),#31,.T.);
#655=ADVANCED_FACE('',(#65),#32,.T.);
#656=ADVANCED_FACE('',(#66),#33,.T.);
#657=ADVANCED_FACE('',(#67),#34,.T.);
#658=ADVANCED_FACE('',(#68),#35,.T.);
#659=ADVANCED_FACE('',(#69),#36,.T.);
#660=ADVANCED_FACE('',(#70),#37,.T.);
#661=ADVANCED_FACE('',(#71),#38,.T.);
#662=ADVANCED_FACE('',(#72),#39,.T.);
#663=ADVANCED_FACE('',(#73),#40,.T.);
#664=ADVANCED_FACE('',(#74),#41,.T.);
#665=ADVANCED_FACE('',(#75),#42,.T.);
#666=ADVANCED_FACE('',(#76),#43,.T.);
#667=ADVANCED_FACE('',(#77),#44,.T.);
#668=ADVANCED_FACE('',(#78),#45,.T.);
#669=ADVANCED_FACE('',(#79,#17),#46,.T.);
#670=ADVANCED_FACE('',(#80),#47,.T.);
#671=ADVANCED_FACE('',(#81),#48,.T.);
#672=ADVANCED_FACE('',(#82),#15,.T.);
#673=ADVANCED_FACE('',(#83),#639,.T.);
#674=ADVANCED_FACE('',(#84),#49,.F.);
#675=CLOSED_SHELL('',(#640,#641,#642,#643,#644,#645,#646,#647,#648,#649,
#650,#651,#652,#653,#654,#655,#656,#657,#658,#659,#660,#661,#662,#663,#664,
#665,#666,#667,#668,#669,#670,#671,#672,#673,#674));
#676=DERIVED_UNIT_ELEMENT(#678,1.);
#677=DERIVED_UNIT_ELEMENT(#1092,-3.);
#678=(
MASS_UNIT()
NAMED_UNIT(*)
SI_UNIT(.KILO.,.GRAM.)
);
#679=DERIVED_UNIT((#676,#677));
#680=MEASURE_REPRESENTATION_ITEM('density measure',
POSITIVE_RATIO_MEASURE(7850.),#679);
#681=PROPERTY_DEFINITION_REPRESENTATION(#686,#683);
#682=PROPERTY_DEFINITION_REPRESENTATION(#687,#684);
#683=REPRESENTATION('material name',(#685),#1089);
#684=REPRESENTATION('density',(#680),#1089);
#685=DESCRIPTIVE_REPRESENTATION_ITEM('Steel','Steel');
#686=PROPERTY_DEFINITION('material property','material name',#1099);
#687=PROPERTY_DEFINITION('material property','density of part',#1099);
#688=AXIS2_PLACEMENT_3D('',#898,#729,#730);
#689=AXIS2_PLACEMENT_3D('',#899,#731,#732);
#690=AXIS2_PLACEMENT_3D('',#901,#733,#734);
#691=AXIS2_PLACEMENT_3D('',#904,#736,#737);
#692=AXIS2_PLACEMENT_3D('',#905,#738,#739);
#693=AXIS2_PLACEMENT_3D('',#906,#740,#741);
#694=AXIS2_PLACEMENT_3D('',#924,#750,#751);
#695=AXIS2_PLACEMENT_3D('',#925,#752,#753);
#696=AXIS2_PLACEMENT_3D('',#971,#777,#778);
#697=AXIS2_PLACEMENT_3D('',#977,#782,#783);
#698=AXIS2_PLACEMENT_3D('',#981,#786,#787);
#699=AXIS2_PLACEMENT_3D('',#985,#790,#791);
#700=AXIS2_PLACEMENT_3D('',#989,#794,#795);
#701=AXIS2_PLACEMENT_3D('',#993,#798,#799);
#702=AXIS2_PLACEMENT_3D('',#997,#802,#803);
#703=AXIS2_PLACEMENT_3D('',#1001,#806,#807);
#704=AXIS2_PLACEMENT_3D('',#1005,#810,#811);
#705=AXIS2_PLACEMENT_3D('',#1009,#814,#815);
#706=AXIS2_PLACEMENT_3D('',#1013,#818,#819);
#707=AXIS2_PLACEMENT_3D('',#1017,#822,#823);
#708=AXIS2_PLACEMENT_3D('',#1021,#826,#827);
#709=AXIS2_PLACEMENT_3D('',#1025,#830,#831);
#710=AXIS2_PLACEMENT_3D('',#1029,#834,#835);
#711=AXIS2_PLACEMENT_3D('',#1033,#838,#839);
#712=AXIS2_PLACEMENT_3D('',#1037,#842,#843);
#713=AXIS2_PLACEMENT_3D('',#1041,#846,#847);
#714=AXIS2_PLACEMENT_3D('',#1045,#850,#851);
#715=AXIS2_PLACEMENT_3D('',#1049,#854,#855);
#716=AXIS2_PLACEMENT_3D('',#1053,#858,#859);
#717=AXIS2_PLACEMENT_3D('',#1055,#861,#862);
#718=AXIS2_PLACEMENT_3D('',#1059,#865,#866);
#719=AXIS2_PLACEMENT_3D('',#1063,#869,#870);
#720=AXIS2_PLACEMENT_3D('',#1067,#873,#874);
#721=AXIS2_PLACEMENT_3D('',#1071,#877,#878);
#722=AXIS2_PLACEMENT_3D('',#1075,#881,#882);
#723=AXIS2_PLACEMENT_3D('',#1077,#884,#885);
#724=AXIS2_PLACEMENT_3D('',#1078,#886,#887);
#725=AXIS2_PLACEMENT_3D('',#1081,#889,#890);
#726=AXIS2_PLACEMENT_3D('',#1082,#891,#892);
#727=AXIS2_PLACEMENT_3D('',#1084,#893,#894);
#728=AXIS2_PLACEMENT_3D('',#1086,#896,#897);
#729=DIRECTION('axis',(0.,0.,1.));
#730=DIRECTION('refdir',(1.,0.,0.));
#731=DIRECTION('center_axis',(1.,0.,0.));
#732=DIRECTION('ref_axis',(0.,0.,-1.));
#733=DIRECTION('center_axis',(1.,0.,0.));
#734=DIRECTION('ref_axis',(0.,0.,-1.));
#735=DIRECTION('',(-1.,0.,0.));
#736=DIRECTION('center_axis',(-1.,-4.22942104619108E-16,0.));
#737=DIRECTION('ref_axis',(0.,0.,-1.));
#738=DIRECTION('center_axis',(1.,0.,0.));
#739=DIRECTION('ref_axis',(0.,0.,-1.));
#740=DIRECTION('center_axis',(-1.,-2.11471052309554E-16,0.));
#741=DIRECTION('ref_axis',(2.11471052309554E-16,-1.,-7.58114685186457E-17));
#742=DIRECTION('',(0.,0.,1.));
#743=DIRECTION('',(-2.11471052309554E-16,1.,7.58114685186457E-17));
#744=DIRECTION('',(0.,0.,1.));
#745=DIRECTION('',(2.11471052309554E-16,-1.,-7.58114685186457E-17));
#746=DIRECTION('',(0.,0.,1.));
#747=DIRECTION('',(2.11471052309554E-16,-1.,-7.58114685186457E-17));
#748=DIRECTION('',(0.,0.,1.));
#749=DIRECTION('',(-2.11471052309554E-16,1.,7.58114685186457E-17));
#750=DIRECTION('center_axis',(1.,2.11471052309554E-16,0.));
#751=DIRECTION('ref_axis',(0.,0.,-1.));
#752=DIRECTION('center_axis',(0.,0.,-1.));
#753=DIRECTION('ref_axis',(-1.,0.,0.));
#754=DIRECTION('',(-1.,-2.89623397728302E-16,0.));
#755=DIRECTION('',(4.22942104619108E-16,-1.,-7.58114685186458E-17));
#756=DIRECTION('',(-1.,0.,0.));
#757=DIRECTION('',(-0.342020010403121,-0.939692669165749,-1.14157828854886E-16));
#758=DIRECTION('',(-1.,0.,0.));
#759=DIRECTION('',(-0.342020010403121,0.939692669165748,1.15079161947607E-16));
#760=DIRECTION('',(-1.,0.,0.));
#761=DIRECTION('',(-0.342020010403122,-0.939692669165748,-1.15079161947607E-16));
#762=DIRECTION('',(-1.,0.,0.));
#763=DIRECTION('',(-0.342020010403123,0.939692669165748,1.15079161947607E-16));
#764=DIRECTION('',(-1.,0.,0.));
#765=DIRECTION('',(-0.34202001040312,-0.939692669165749,-1.15079161947607E-16));
#766=DIRECTION('',(-1.,0.,0.));
#767=DIRECTION('',(-0.342020010403121,0.939692669165748,1.15079161947607E-16));
#768=DIRECTION('',(-1.,0.,0.));
#769=DIRECTION('',(-0.342020010403121,-0.939692669165748,-1.15079161947607E-16));
#770=DIRECTION('',(-1.,-2.08632850747574E-15,0.));
#771=DIRECTION('',(-0.342020010403121,0.939692669165749,1.15079161947607E-16));
#772=DIRECTION('',(-1.,0.,0.));
#773=DIRECTION('',(-0.34202001040312,-0.939692669165749,-1.15092421237063E-16));
#774=DIRECTION('',(-1.,0.,0.));
#775=DIRECTION('',(-0.342020010403121,0.939692669165749,1.141708766723E-16));
#776=DIRECTION('',(-1.,0.,0.));
#777=DIRECTION('center_axis',(0.,-1.,0.));
#778=DIRECTION('ref_axis',(1.,0.,0.));
#779=DIRECTION('',(0.,0.,1.));
#780=DIRECTION('',(1.,0.,0.));
#781=DIRECTION('',(0.,0.,1.));
#782=DIRECTION('center_axis',(0.939692669165749,-0.342020010403121,0.));
#783=DIRECTION('ref_axis',(0.342020010403121,0.939692669165749,1.14157828854886E-16));
#784=DIRECTION('',(0.342020010403121,0.939692669165749,1.14157828854886E-16));
#785=DIRECTION('',(0.,0.,1.));
#786=DIRECTION('center_axis',(0.,-1.,0.));
#787=DIRECTION('ref_axis',(1.,0.,0.));
#788=DIRECTION('',(1.,0.,0.));
#789=DIRECTION('',(0.,0.,1.));
#790=DIRECTION('center_axis',(-0.939692669165748,-0.342020010403121,0.));
#791=DIRECTION('ref_axis',(0.342020010403121,-0.939692669165748,-1.15079161947607E-16));
#792=DIRECTION('',(0.342020010403121,-0.939692669165748,-1.15079161947607E-16));
#793=DIRECTION('',(0.,0.,1.));
#794=DIRECTION('center_axis',(0.,-1.,0.));
#795=DIRECTION('ref_axis',(1.,0.,0.));
#796=DIRECTION('',(1.,0.,0.));
#797=DIRECTION('',(0.,0.,1.));
#798=DIRECTION('center_axis',(0.939692669165748,-0.342020010403122,0.));
#799=DIRECTION('ref_axis',(0.342020010403122,0.939692669165748,1.15079161947607E-16));
#800=DIRECTION('',(0.342020010403122,0.939692669165748,1.15079161947607E-16));
#801=DIRECTION('',(0.,0.,1.));
#802=DIRECTION('center_axis',(0.,-1.,0.));
#803=DIRECTION('ref_axis',(1.,0.,0.));
#804=DIRECTION('',(1.,0.,0.));
#805=DIRECTION('',(0.,0.,1.));
#806=DIRECTION('center_axis',(-0.939692669165748,-0.342020010403123,0.));
#807=DIRECTION('ref_axis',(0.342020010403123,-0.939692669165748,-1.15079161947607E-16));
#808=DIRECTION('',(0.342020010403123,-0.939692669165748,-1.15079161947607E-16));
#809=DIRECTION('',(0.,0.,1.));
#810=DIRECTION('center_axis',(0.,-1.,0.));
#811=DIRECTION('ref_axis',(1.,0.,0.));
#812=DIRECTION('',(1.,0.,0.));
#813=DIRECTION('',(0.,0.,1.));
#814=DIRECTION('center_axis',(0.939692669165749,-0.34202001040312,0.));
#815=DIRECTION('ref_axis',(0.34202001040312,0.939692669165749,1.15079161947607E-16));
#816=DIRECTION('',(0.34202001040312,0.939692669165749,1.15079161947607E-16));
#817=DIRECTION('',(0.,0.,1.));
#818=DIRECTION('center_axis',(0.,-1.,0.));
#819=DIRECTION('ref_axis',(1.,0.,0.));
#820=DIRECTION('',(1.,0.,0.));
#821=DIRECTION('',(0.,0.,1.));
#822=DIRECTION('center_axis',(-0.939692669165748,-0.342020010403121,0.));
#823=DIRECTION('ref_axis',(0.342020010403121,-0.939692669165748,-1.15079161947607E-16));
#824=DIRECTION('',(0.342020010403121,-0.939692669165748,-1.15079161947607E-16));
#825=DIRECTION('',(0.,0.,1.));
#826=DIRECTION('center_axis',(0.,-1.,0.));
#827=DIRECTION('ref_axis',(1.,0.,0.));
#828=DIRECTION('',(1.,0.,0.));
#829=DIRECTION('',(0.,0.,1.));
#830=DIRECTION('center_axis',(0.939692669165748,-0.342020010403121,0.));
#831=DIRECTION('ref_axis',(0.342020010403121,0.939692669165748,1.15079161947607E-16));
#832=DIRECTION('',(0.342020010403121,0.939692669165748,1.15079161947607E-16));
#833=DIRECTION('',(0.,0.,1.));
#834=DIRECTION('center_axis',(2.08632850747574E-15,-1.,0.));
#835=DIRECTION('ref_axis',(1.,2.08632850747574E-15,0.));
#836=DIRECTION('',(1.,2.08632850747574E-15,0.));
#837=DIRECTION('',(0.,0.,1.));
#838=DIRECTION('center_axis',(-0.939692669165749,-0.342020010403121,0.));
#839=DIRECTION('ref_axis',(0.342020010403121,-0.939692669165749,-1.15079161947607E-16));
#840=DIRECTION('',(0.342020010403121,-0.939692669165749,-1.15079161947607E-16));
#841=DIRECTION('',(0.,0.,1.));
#842=DIRECTION('center_axis',(0.,-1.,0.));
#843=DIRECTION('ref_axis',(1.,0.,0.));
#844=DIRECTION('',(1.,0.,0.));
#845=DIRECTION('',(0.,0.,1.));
#846=DIRECTION('center_axis',(0.939692669165749,-0.34202001040312,0.));
#847=DIRECTION('ref_axis',(0.34202001040312,0.939692669165749,1.15092421237063E-16));
#848=DIRECTION('',(0.34202001040312,0.939692669165749,1.15092421237063E-16));
#849=DIRECTION('',(0.,0.,1.));
#850=DIRECTION('center_axis',(0.,-1.,0.));
#851=DIRECTION('ref_axis',(1.,0.,0.));
#852=DIRECTION('',(1.,0.,0.));
#853=DIRECTION('',(0.,0.,1.));
#854=DIRECTION('center_axis',(-0.939692669165749,-0.342020010403121,0.));
#855=DIRECTION('ref_axis',(0.342020010403121,-0.939692669165749,-1.141708766723E-16));
#856=DIRECTION('',(0.342020010403121,-0.939692669165749,-1.141708766723E-16));
#857=DIRECTION('',(0.,0.,1.));
#858=DIRECTION('center_axis',(0.,-1.,0.));
#859=DIRECTION('ref_axis',(1.,0.,0.));
#860=DIRECTION('',(1.,0.,0.));
#861=DIRECTION('center_axis',(0.,0.,1.));
#862=DIRECTION('ref_axis',(1.,0.,0.));
#863=DIRECTION('',(1.,2.89623397728302E-16,0.));
#864=DIRECTION('',(-4.22942104619108E-16,1.,7.58114685186458E-17));
#865=DIRECTION('center_axis',(2.89623397728302E-16,-1.,0.));
#866=DIRECTION('ref_axis',(1.,2.89623397728302E-16,0.));
#867=DIRECTION('',(-1.,-2.89623397728302E-16,0.));
#868=DIRECTION('',(0.,0.,1.));
#869=DIRECTION('center_axis',(2.89623397728302E-16,-1.,0.));
#870=DIRECTION('ref_axis',(1.,2.89623397728302E-16,0.));
#871=DIRECTION('',(0.,0.,1.));
#872=DIRECTION('',(1.,2.89623397728302E-16,0.));
#873=DIRECTION('center_axis',(0.,0.,-1.));
#874=DIRECTION('ref_axis',(-1.,0.,0.));
#875=DIRECTION('',(1.,2.65488114584277E-16,0.));
#876=DIRECTION('',(4.22942104619108E-16,-1.,-7.58114685186458E-17));
#877=DIRECTION('center_axis',(1.,4.22942104619108E-16,0.));
#878=DIRECTION('ref_axis',(-4.22942104619108E-16,1.,7.58114685186458E-17));
#879=DIRECTION('',(0.,0.,-1.));
#880=DIRECTION('',(-4.22942104619108E-16,1.,7.58114685186458E-17));
#881=DIRECTION('center_axis',(-2.65488114584277E-16,1.,0.));
#882=DIRECTION('ref_axis',(-1.,-2.65488114584277E-16,0.));
#883=DIRECTION('',(-1.,-2.65488114584277E-16,0.));
#884=DIRECTION('center_axis',(0.,0.,1.));
#885=DIRECTION('ref_axis',(1.,0.,0.));
#886=DIRECTION('center_axis',(1.,0.,0.));
#887=DIRECTION('ref_axis',(0.,0.,-1.));
#888=DIRECTION('',(-0.984807753012208,2.12657684957577E-17,-0.17364817766693));
#889=DIRECTION('center_axis',(1.,0.,0.));
#890=DIRECTION('ref_axis',(0.,0.,-1.));
#891=DIRECTION('center_axis',(-1.,0.,0.));
#892=DIRECTION('ref_axis',(0.,0.,-1.));
#893=DIRECTION('center_axis',(-1.,0.,0.));
#894=DIRECTION('ref_axis',(0.,0.,-1.));
#895=DIRECTION('',(1.,0.,0.));
#896=DIRECTION('center_axis',(1.,0.,0.));
#897=DIRECTION('ref_axis',(0.,0.,-1.));
#898=CARTESIAN_POINT('',(0.,0.,0.));
#899=CARTESIAN_POINT('Origin',(16.053258915017,-3.01966239482294,-1.11022302462516E-15));
#900=CARTESIAN_POINT('',(17.053258915017,-3.01966239482294,2.));
#901=CARTESIAN_POINT('Origin',(17.053258915017,-3.01966239482294,-1.11022302462516E-15));
#902=CARTESIAN_POINT('',(16.053258915017,-3.01966239482294,2.));
#903=CARTESIAN_POINT('',(16.053258915017,-3.01966239482294,2.));
#904=CARTESIAN_POINT('Origin',(16.053258915017,-3.01966239482294,-1.11022302462516E-15));
#905=CARTESIAN_POINT('Origin',(17.053258915017,-3.26966239482294,0.));
#906=CARTESIAN_POINT('Origin',(-6.94674108498297,1.98033760517705,0.));
#907=CARTESIAN_POINT('',(-6.94674108498296,-8.01966239482294,-5.));
#908=CARTESIAN_POINT('',(-6.94674108498296,-8.01966239482294,-2.));
#909=CARTESIAN_POINT('',(-6.94674108498296,-8.01966239482294,-7.9602041944578E-16));
#910=CARTESIAN_POINT('',(-6.94674108498296,-8.51966239482294,-2.));
#911=CARTESIAN_POINT('',(-6.94674108498297,1.98033760517705,-2.));
#912=CARTESIAN_POINT('',(-6.94674108498296,-8.51966239482294,2.));
#913=CARTESIAN_POINT('',(-6.94674108498296,-8.51966239482294,-7.9602041944578E-16));
#914=CARTESIAN_POINT('',(-6.94674108498296,-8.01966239482294,2.));
#915=CARTESIAN_POINT('',(-6.94674108498297,1.98033760517705,2.));
#916=CARTESIAN_POINT('',(-6.94674108498296,-8.01966239482294,5.));
#917=CARTESIAN_POINT('',(-6.94674108498296,-8.01966239482294,-7.9602041944578E-16));
#918=CARTESIAN_POINT('',(-6.94674108498297,1.98033760517705,5.));
#919=CARTESIAN_POINT('',(-6.94674108498297,1.98033760517705,5.));
#920=CARTESIAN_POINT('',(-6.94674108498297,1.98033760517705,-5.));
#921=CARTESIAN_POINT('',(-6.94674108498297,1.98033760517705,0.));
#922=CARTESIAN_POINT('',(-6.94674108498297,1.98033760517705,-5.));
#923=CARTESIAN_POINT('',(-6.94674108498296,-2.89997804685105,3.80230984849488));
#924=CARTESIAN_POINT('Origin',(-6.94674108498296,-2.89997804685105,0.0112839612717951));
#925=CARTESIAN_POINT('Origin',(4.55325891501702,-4.97078169373185,-2.));
#926=CARTESIAN_POINT('',(16.053258915017,-8.01966239482293,-2.));
#927=CARTESIAN_POINT('',(-1.19674108498297,-8.01966239482294,-2.));
#928=CARTESIAN_POINT('',(16.053258915017,-8.51966239482293,-2.));
#929=CARTESIAN_POINT('',(16.053258915017,-8.51966239482293,-2.));
#930=CARTESIAN_POINT('',(15.4675199494824,-8.51966239482293,-2.));
#931=CARTESIAN_POINT('',(15.4675199494824,-8.51966239482293,-2.));
#932=CARTESIAN_POINT('',(14.229206915017,-11.9219009926407,-2.));
#933=CARTESIAN_POINT('',(14.229206915017,-11.9219009926407,-2.));
#934=CARTESIAN_POINT('',(13.164922915017,-11.9219009926407,-2.));
#935=CARTESIAN_POINT('',(13.164922915017,-11.9219009926407,-2.));
#936=CARTESIAN_POINT('',(11.936523915017,-8.54690099264075,-2.));
#937=CARTESIAN_POINT('',(11.936523915017,-8.54690099264075,-2.));
#938=CARTESIAN_POINT('',(10.745216915017,-8.54690099264075,-2.));
#939=CARTESIAN_POINT('',(10.745216915017,-8.54690099264075,-2.));
#940=CARTESIAN_POINT('',(9.51681791501702,-11.9219009926407,-2.));
#941=CARTESIAN_POINT('',(9.51681791501702,-11.9219009926407,-2.));
#942=CARTESIAN_POINT('',(8.45253391501703,-11.9219009926407,-2.));
#943=CARTESIAN_POINT('',(8.45253391501703,-11.9219009926407,-2.));
#944=CARTESIAN_POINT('',(7.22413491501702,-8.54690099264075,-2.));
#945=CARTESIAN_POINT('',(7.22413491501702,-8.54690099264075,-2.));
#946=CARTESIAN_POINT('',(6.03282791501702,-8.54690099264075,-2.));
#947=CARTESIAN_POINT('',(6.03282791501702,-8.54690099264075,-2.));
#948=CARTESIAN_POINT('',(4.80442891501703,-11.9219009926408,-2.));
#949=CARTESIAN_POINT('',(4.80442891501703,-11.9219009926408,-2.));
#950=CARTESIAN_POINT('',(3.74014491501703,-11.9219009926408,-2.));
#951=CARTESIAN_POINT('',(3.74014491501703,-11.9219009926408,-2.));
#952=CARTESIAN_POINT('',(2.51174591501703,-8.54690099264075,-2.));
#953=CARTESIAN_POINT('',(2.51174591501703,-8.54690099264075,-2.));
#954=CARTESIAN_POINT('',(1.32043891501703,-8.54690099264075,-2.));
#955=CARTESIAN_POINT('',(1.32043891501703,-8.54690099264075,-2.));
#956=CARTESIAN_POINT('',(0.0920399150170326,-11.9219009926408,-2.));
#957=CARTESIAN_POINT('',(0.0920399150170326,-11.9219009926408,-2.));
#958=CARTESIAN_POINT('',(-0.972244084982969,-11.9219009926408,-2.));
#959=CARTESIAN_POINT('',(-0.972244084982969,-11.9219009926408,-2.));
#960=CARTESIAN_POINT('',(-2.20064308498297,-8.54690099264075,-2.));
#961=CARTESIAN_POINT('',(-2.20064308498297,-8.54690099264075,-2.));
#962=CARTESIAN_POINT('',(-3.39195008498297,-8.54690099264075,-2.));
#963=CARTESIAN_POINT('',(-3.39195008498297,-8.54690099264075,-2.));
#964=CARTESIAN_POINT('',(-4.62020756656034,-11.921512173799,-2.));
#965=CARTESIAN_POINT('',(-4.62020756656034,-11.921512173799,-2.));
#966=CARTESIAN_POINT('',(-5.68128675218622,-11.921512173799,-2.));
#967=CARTESIAN_POINT('',(-5.68128675218622,-11.921512173799,-2.));
#968=CARTESIAN_POINT('',(-6.91945826822902,-8.51966239482294,-2.));
#969=CARTESIAN_POINT('',(-6.91945826822902,-8.51966239482294,-2.));
#970=CARTESIAN_POINT('',(-6.94674108498296,-8.51966239482294,-2.));
#971=CARTESIAN_POINT('Origin',(15.4675199494824,-8.51966239482293,-7.9602041944578E-16));
#972=CARTESIAN_POINT('',(16.053258915017,-8.51966239482293,2.));
#973=CARTESIAN_POINT('',(16.053258915017,-8.51966239482293,-7.9602041944578E-16));
#974=CARTESIAN_POINT('',(15.4675199494824,-8.51966239482293,2.));
#975=CARTESIAN_POINT('',(15.4675199494824,-8.51966239482293,2.));
#976=CARTESIAN_POINT('',(15.4675199494824,-8.51966239482293,-7.9602041944578E-16));
#977=CARTESIAN_POINT('Origin',(14.229206915017,-11.9219009926407,-1.20933871415801E-15));
#978=CARTESIAN_POINT('',(14.229206915017,-11.9219009926407,2.));
#979=CARTESIAN_POINT('',(14.229206915017,-11.9219009926407,2.));
#980=CARTESIAN_POINT('',(14.229206915017,-11.9219009926407,-1.20933871415801E-15));
#981=CARTESIAN_POINT('Origin',(13.164922915017,-11.9219009926407,-1.20933871415801E-15));
#982=CARTESIAN_POINT('',(13.164922915017,-11.9219009926407,2.));
#983=CARTESIAN_POINT('',(13.164922915017,-11.9219009926407,2.));
#984=CARTESIAN_POINT('',(13.164922915017,-11.9219009926407,-1.20933871415801E-15));
#985=CARTESIAN_POINT('Origin',(11.936523915017,-8.54690099264075,-7.9602041944578E-16));
#986=CARTESIAN_POINT('',(11.936523915017,-8.54690099264075,2.));
#987=CARTESIAN_POINT('',(11.936523915017,-8.54690099264075,2.));
#988=CARTESIAN_POINT('',(11.936523915017,-8.54690099264075,-7.9602041944578E-16));
#989=CARTESIAN_POINT('Origin',(10.745216915017,-8.54690099264075,-7.9602041944578E-16));
#990=CARTESIAN_POINT('',(10.745216915017,-8.54690099264075,2.));
#991=CARTESIAN_POINT('',(10.745216915017,-8.54690099264075,2.));
#992=CARTESIAN_POINT('',(10.745216915017,-8.54690099264075,-7.9602041944578E-16));
#993=CARTESIAN_POINT('Origin',(9.51681791501702,-11.9219009926407,-1.20933871415801E-15));
#994=CARTESIAN_POINT('',(9.51681791501702,-11.9219009926407,2.));
#995=CARTESIAN_POINT('',(9.51681791501702,-11.9219009926407,2.));
#996=CARTESIAN_POINT('',(9.51681791501702,-11.9219009926407,-1.20933871415801E-15));
#997=CARTESIAN_POINT('Origin',(8.45253391501703,-11.9219009926407,-1.20933871415801E-15));
#998=CARTESIAN_POINT('',(8.45253391501703,-11.9219009926407,2.));
#999=CARTESIAN_POINT('',(8.45253391501703,-11.9219009926407,2.));
#1000=CARTESIAN_POINT('',(8.45253391501703,-11.9219009926407,-1.20933871415801E-15));
#1001=CARTESIAN_POINT('Origin',(7.22413491501702,-8.54690099264075,-7.9602041944578E-16));
#1002=CARTESIAN_POINT('',(7.22413491501702,-8.54690099264075,2.));
#1003=CARTESIAN_POINT('',(7.22413491501702,-8.54690099264075,2.));
#1004=CARTESIAN_POINT('',(7.22413491501702,-8.54690099264075,-7.9602041944578E-16));
#1005=CARTESIAN_POINT('Origin',(6.03282791501702,-8.54690099264075,-7.9602041944578E-16));
#1006=CARTESIAN_POINT('',(6.03282791501702,-8.54690099264075,2.));
#1007=CARTESIAN_POINT('',(6.03282791501702,-8.54690099264075,2.));
#1008=CARTESIAN_POINT('',(6.03282791501702,-8.54690099264075,-7.9602041944578E-16));
#1009=CARTESIAN_POINT('Origin',(4.80442891501703,-11.9219009926408,-1.20933871415801E-15));
#1010=CARTESIAN_POINT('',(4.80442891501703,-11.9219009926408,2.));
#1011=CARTESIAN_POINT('',(4.80442891501703,-11.9219009926408,2.));
#1012=CARTESIAN_POINT('',(4.80442891501703,-11.9219009926408,-1.20933871415801E-15));
#1013=CARTESIAN_POINT('Origin',(3.74014491501703,-11.9219009926408,-1.20933871415801E-15));
#1014=CARTESIAN_POINT('',(3.74014491501703,-11.9219009926408,2.));
#1015=CARTESIAN_POINT('',(3.74014491501703,-11.9219009926408,2.));
#1016=CARTESIAN_POINT('',(3.74014491501703,-11.9219009926408,-1.20933871415801E-15));
#1017=CARTESIAN_POINT('Origin',(2.51174591501703,-8.54690099264075,-7.9602041944578E-16));
#1018=CARTESIAN_POINT('',(2.51174591501703,-8.54690099264075,2.));
#1019=CARTESIAN_POINT('',(2.51174591501703,-8.54690099264075,2.));
#1020=CARTESIAN_POINT('',(2.51174591501703,-8.54690099264075,-7.9602041944578E-16));
#1021=CARTESIAN_POINT('Origin',(1.32043891501703,-8.54690099264075,-7.9602041944578E-16));
#1022=CARTESIAN_POINT('',(1.32043891501703,-8.54690099264075,2.));
#1023=CARTESIAN_POINT('',(1.32043891501703,-8.54690099264075,2.));
#1024=CARTESIAN_POINT('',(1.32043891501703,-8.54690099264075,-7.9602041944578E-16));
#1025=CARTESIAN_POINT('Origin',(0.0920399150170326,-11.9219009926408,-1.20933871415801E-15));
#1026=CARTESIAN_POINT('',(0.0920399150170326,-11.9219009926408,2.));
#1027=CARTESIAN_POINT('',(0.0920399150170326,-11.9219009926408,2.));
#1028=CARTESIAN_POINT('',(0.0920399150170326,-11.9219009926408,-1.20933871415801E-15));
#1029=CARTESIAN_POINT('Origin',(-0.972244084982969,-11.9219009926408,-1.20933871415801E-15));
#1030=CARTESIAN_POINT('',(-0.972244084982969,-11.9219009926408,2.));
#1031=CARTESIAN_POINT('',(-0.972244084982969,-11.9219009926408,2.));
#1032=CARTESIAN_POINT('',(-0.972244084982969,-11.9219009926408,-1.20933871415801E-15));
#1033=CARTESIAN_POINT('Origin',(-2.20064308498297,-8.54690099264075,-7.9602041944578E-16));
#1034=CARTESIAN_POINT('',(-2.20064308498297,-8.54690099264075,2.));
#1035=CARTESIAN_POINT('',(-2.20064308498297,-8.54690099264075,2.));
#1036=CARTESIAN_POINT('',(-2.20064308498297,-8.54690099264075,-7.9602041944578E-16));
#1037=CARTESIAN_POINT('Origin',(-3.39195008498297,-8.54690099264075,-7.9602041944578E-16));
#1038=CARTESIAN_POINT('',(-3.39195008498297,-8.54690099264075,2.));
#1039=CARTESIAN_POINT('',(-3.39195008498297,-8.54690099264075,2.));
#1040=CARTESIAN_POINT('',(-3.39195008498297,-8.54690099264075,-7.9602041944578E-16));
#1041=CARTESIAN_POINT('Origin',(-4.62020756656034,-11.921512173799,-1.20933871415801E-15));
#1042=CARTESIAN_POINT('',(-4.62020756656034,-11.921512173799,2.));
#1043=CARTESIAN_POINT('',(-4.62020756656034,-11.921512173799,2.));
#1044=CARTESIAN_POINT('',(-4.62020756656034,-11.921512173799,-1.20933871415801E-15));
#1045=CARTESIAN_POINT('Origin',(-5.68128675218622,-11.921512173799,-1.20933871415801E-15));
#1046=CARTESIAN_POINT('',(-5.68128675218622,-11.921512173799,2.));
#1047=CARTESIAN_POINT('',(-5.68128675218622,-11.921512173799,2.));
#1048=CARTESIAN_POINT('',(-5.68128675218622,-11.921512173799,-1.20933871415801E-15));
#1049=CARTESIAN_POINT('Origin',(-6.91945826822902,-8.51966239482294,-7.9602041944578E-16));
#1050=CARTESIAN_POINT('',(-6.91945826822902,-8.51966239482294,2.));
#1051=CARTESIAN_POINT('',(-6.91945826822902,-8.51966239482294,2.));
#1052=CARTESIAN_POINT('',(-6.91945826822902,-8.51966239482294,-7.9602041944578E-16));
#1053=CARTESIAN_POINT('Origin',(-6.94674108498296,-8.51966239482294,-7.9602041944578E-16));
#1054=CARTESIAN_POINT('',(-6.94674108498296,-8.51966239482294,2.));
#1055=CARTESIAN_POINT('Origin',(4.55325891501702,-4.97078169373185,2.));
#1056=CARTESIAN_POINT('',(16.053258915017,-8.01966239482293,2.));
#1057=CARTESIAN_POINT('',(-1.19674108498297,-8.01966239482294,2.));
#1058=CARTESIAN_POINT('',(16.053258915017,-8.51966239482293,2.));
#1059=CARTESIAN_POINT('Origin',(-6.94674108498296,-8.01966239482294,-7.9602041944578E-16));
#1060=CARTESIAN_POINT('',(16.053258915017,-8.01966239482293,-5.));
#1061=CARTESIAN_POINT('',(-6.94674108498296,-8.01966239482294,-5.));
#1062=CARTESIAN_POINT('',(16.053258915017,-8.01966239482293,-7.9602041944578E-16));
#1063=CARTESIAN_POINT('Origin',(-6.94674108498296,-8.01966239482294,-7.9602041944578E-16));
#1064=CARTESIAN_POINT('',(16.053258915017,-8.01966239482293,5.));
#1065=CARTESIAN_POINT('',(16.053258915017,-8.01966239482293,-7.9602041944578E-16));
#1066=CARTESIAN_POINT('',(-6.94674108498296,-8.01966239482294,5.));
#1067=CARTESIAN_POINT('Origin',(4.55325891501702,-4.97078169373185,-5.));
#1068=CARTESIAN_POINT('',(16.053258915017,1.98033760517706,-5.));
#1069=CARTESIAN_POINT('',(16.053258915017,1.98033760517706,-5.));
#1070=CARTESIAN_POINT('',(16.053258915017,-8.51966239482293,-5.));
#1071=CARTESIAN_POINT('Origin',(16.053258915017,-8.01966239482293,-7.58114685186457E-16));
#1072=CARTESIAN_POINT('',(16.053258915017,1.98033760517706,5.));
#1073=CARTESIAN_POINT('',(16.053258915017,1.98033760517706,-1.23259516440783E-31));
#1074=CARTESIAN_POINT('',(16.053258915017,-8.51966239482293,5.));
#1075=CARTESIAN_POINT('Origin',(16.053258915017,1.98033760517706,0.));
#1076=CARTESIAN_POINT('',(16.053258915017,1.98033760517706,5.));
#1077=CARTESIAN_POINT('Origin',(4.55325891501702,-4.97078169373185,5.));
#1078=CARTESIAN_POINT('Origin',(-12.,-2.89997804685105,0.0112839612717951));
#1079=CARTESIAN_POINT('',(-12.,-2.89997804685105,2.9112839612718));
#1080=CARTESIAN_POINT('',(-12.,-2.89997804685105,2.9112839612718));
#1081=CARTESIAN_POINT('Origin',(-12.,-2.89997804685105,0.0112839612717951));
#1082=CARTESIAN_POINT('Origin',(-12.,-2.89997804685105,0.0112839612717951));
#1083=CARTESIAN_POINT('',(-42.,-2.89997804685105,2.9112839612718));
#1084=CARTESIAN_POINT('Origin',(-42.,-2.89997804685105,0.0112839612717951));
#1085=CARTESIAN_POINT('',(-12.,-2.89997804685105,2.9112839612718));
#1086=CARTESIAN_POINT('Origin',(-42.,-2.89997804685105,0.0112839612717952));
#1087=UNCERTAINTY_MEASURE_WITH_UNIT(LENGTH_MEASURE(0.01),#1091,
'DISTANCE_ACCURACY_VALUE',
'Maximum model space distance between geometric entities at asserted c
onnectivities');
#1088=UNCERTAINTY_MEASURE_WITH_UNIT(LENGTH_MEASURE(0.01),#1091,
'DISTANCE_ACCURACY_VALUE',
'Maximum model space distance between geometric entities at asserted c
onnectivities');
#1089=(
GEOMETRIC_REPRESENTATION_CONTEXT(3)
GLOBAL_UNCERTAINTY_ASSIGNED_CONTEXT((#1087))
GLOBAL_UNIT_ASSIGNED_CONTEXT((#1091,#1093,#1094))
REPRESENTATION_CONTEXT('','3D')
);
#1090=(
GEOMETRIC_REPRESENTATION_CONTEXT(3)
GLOBAL_UNCERTAINTY_ASSIGNED_CONTEXT((#1088))
GLOBAL_UNIT_ASSIGNED_CONTEXT((#1091,#1093,#1094))
REPRESENTATION_CONTEXT('','3D')
);
#1091=(
LENGTH_UNIT()
NAMED_UNIT(*)
SI_UNIT(.MILLI.,.METRE.)
);
#1092=(
LENGTH_UNIT()
NAMED_UNIT(*)
SI_UNIT($,.METRE.)
);
#1093=(
NAMED_UNIT(*)
PLANE_ANGLE_UNIT()
SI_UNIT($,.RADIAN.)
);
#1094=(
NAMED_UNIT(*)
SI_UNIT($,.STERADIAN.)
SOLID_ANGLE_UNIT()
);
#1095=SHAPE_DEFINITION_REPRESENTATION(#1096,#1097);
#1096=PRODUCT_DEFINITION_SHAPE('',$,#1099);
#1097=SHAPE_REPRESENTATION('',(#688),#1089);
#1098=PRODUCT_DEFINITION_CONTEXT('part definition',#1103,'design');
#1099=PRODUCT_DEFINITION('2026-09-18-22-25-44-446',
'Piston_AutoCAD_FInal',#1100,#1098);
#1100=PRODUCT_DEFINITION_FORMATION('',$,#1105);
#1101=PRODUCT_RELATED_PRODUCT_CATEGORY('Piston_AutoCAD_FInal',
'Piston_AutoCAD_FInal',(#1105));
#1102=APPLICATION_PROTOCOL_DEFINITION('international standard',
'automotive_design',2009,#1103);
#1103=APPLICATION_CONTEXT(
'Core Data for Automotive Mechanical Design Process');
#1104=PRODUCT_CONTEXT('part definition',#1103,'mechanical');
#1105=PRODUCT('2026-09-18-22-25-44-446','Piston_AutoCAD_FInal',$,(#1104));
#1106=PRESENTATION_STYLE_ASSIGNMENT((#1107));
#1107=SURFACE_STYLE_USAGE(.BOTH.,#1108);
#1108=SURFACE_SIDE_STYLE('',(#1109));
#1109=SURFACE_STYLE_FILL_AREA(#1110);
#1110=FILL_AREA_STYLE('Steel - Satin',(#1111));
#1111=FILL_AREA_STYLE_COLOUR('Steel - Satin',#1112);
#1112=COLOUR_RGB('Steel - Satin',0.627450980392157,0.627450980392157,0.627450980392157);
ENDSEC;
END-ISO-10303-21;
