ISO-10303-21;
HEADER;
/* Generated by software containing ST-Developer
 * from STEP Tools, Inc. (www.steptools.com) 
 */

FILE_DESCRIPTION(
/* description */ (''),
/* implementation_level */ '2;1');

FILE_NAME(
/* name */ 'Piston_Ver2.step',
/* time_stamp */ '2026-09-24T00:38:14+05:30',
/* author */ (''),
/* organization */ (''),
/* preprocessor_version */ 'ST-DEVELOPER v20.2',
/* originating_system */ 'Autodesk Translation Framework v15.15.0.0',
/* authorisation */ '');

FILE_SCHEMA (('AUTOMOTIVE_DESIGN { 1 0 10303 214 3 1 1 }'));
ENDSEC;

DATA;
#10=MECHANICAL_DESIGN_GEOMETRIC_PRESENTATION_REPRESENTATION('',(#13),#826);
#11=SHAPE_REPRESENTATION_RELATIONSHIP('SRR','None',#833,#12);
#12=ADVANCED_BREP_SHAPE_REPRESENTATION('',(#14),#825);
#13=STYLED_ITEM('',(#842),#14);
#14=MANIFOLD_SOLID_BREP('Body17',#507);
#15=FACE_BOUND('',#86,.T.);
#16=FACE_BOUND('',#96,.T.);
#17=CONICAL_SURFACE('',#525,3.,0.174532925199433);
#18=PLANE('',#524);
#19=PLANE('',#530);
#20=PLANE('',#531);
#21=PLANE('',#532);
#22=PLANE('',#533);
#23=PLANE('',#534);
#24=PLANE('',#535);
#25=PLANE('',#536);
#26=PLANE('',#537);
#27=PLANE('',#538);
#28=PLANE('',#539);
#29=PLANE('',#540);
#30=PLANE('',#541);
#31=PLANE('',#542);
#32=PLANE('',#543);
#33=PLANE('',#544);
#34=PLANE('',#545);
#35=PLANE('',#546);
#36=PLANE('',#547);
#37=PLANE('',#548);
#38=PLANE('',#549);
#39=PLANE('',#550);
#40=PLANE('',#551);
#41=PLANE('',#552);
#42=FACE_OUTER_BOUND('',#69,.T.);
#43=FACE_OUTER_BOUND('',#70,.T.);
#44=FACE_OUTER_BOUND('',#71,.T.);
#45=FACE_OUTER_BOUND('',#72,.T.);
#46=FACE_OUTER_BOUND('',#73,.T.);
#47=FACE_OUTER_BOUND('',#74,.T.);
#48=FACE_OUTER_BOUND('',#75,.T.);
#49=FACE_OUTER_BOUND('',#76,.T.);
#50=FACE_OUTER_BOUND('',#77,.T.);
#51=FACE_OUTER_BOUND('',#78,.T.);
#52=FACE_OUTER_BOUND('',#79,.T.);
#53=FACE_OUTER_BOUND('',#80,.T.);
#54=FACE_OUTER_BOUND('',#81,.T.);
#55=FACE_OUTER_BOUND('',#82,.T.);
#56=FACE_OUTER_BOUND('',#83,.T.);
#57=FACE_OUTER_BOUND('',#84,.T.);
#58=FACE_OUTER_BOUND('',#85,.T.);
#59=FACE_OUTER_BOUND('',#87,.T.);
#60=FACE_OUTER_BOUND('',#88,.T.);
#61=FACE_OUTER_BOUND('',#89,.T.);
#62=FACE_OUTER_BOUND('',#90,.T.);
#63=FACE_OUTER_BOUND('',#91,.T.);
#64=FACE_OUTER_BOUND('',#92,.T.);
#65=FACE_OUTER_BOUND('',#93,.T.);
#66=FACE_OUTER_BOUND('',#94,.T.);
#67=FACE_OUTER_BOUND('',#95,.T.);
#68=FACE_OUTER_BOUND('',#97,.T.);
#69=EDGE_LOOP('',(#342,#343,#344,#345));
#70=EDGE_LOOP('',(#346));
#71=EDGE_LOOP('',(#347,#348,#349,#350));
#72=EDGE_LOOP('',(#351,#352,#353,#354));
#73=EDGE_LOOP('',(#355,#356,#357,#358));
#74=EDGE_LOOP('',(#359,#360,#361,#362));
#75=EDGE_LOOP('',(#363,#364,#365,#366));
#76=EDGE_LOOP('',(#367,#368,#369,#370));
#77=EDGE_LOOP('',(#371,#372,#373,#374));
#78=EDGE_LOOP('',(#375,#376,#377,#378));
#79=EDGE_LOOP('',(#379,#380,#381,#382));
#80=EDGE_LOOP('',(#383,#384,#385,#386));
#81=EDGE_LOOP('',(#387,#388,#389,#390));
#82=EDGE_LOOP('',(#391,#392,#393,#394));
#83=EDGE_LOOP('',(#395,#396,#397,#398));
#84=EDGE_LOOP('',(#399,#400,#401,#402));
#85=EDGE_LOOP('',(#403,#404,#405,#406,#407,#408,#409,#410));
#86=EDGE_LOOP('',(#411));
#87=EDGE_LOOP('',(#412,#413,#414,#415));
#88=EDGE_LOOP('',(#416,#417,#418,#419));
#89=EDGE_LOOP('',(#420,#421,#422,#423));
#90=EDGE_LOOP('',(#424,#425,#426,#427));
#91=EDGE_LOOP('',(#428,#429,#430,#431));
#92=EDGE_LOOP('',(#432,#433,#434,#435,#436,#437,#438,#439,#440,#441,#442,
#443,#444,#445,#446,#447));
#93=EDGE_LOOP('',(#448,#449,#450,#451));
#94=EDGE_LOOP('',(#452,#453,#454,#455,#456,#457,#458,#459,#460,#461,#462,
#463,#464,#465,#466,#467));
#95=EDGE_LOOP('',(#468,#469,#470,#471,#472,#473,#474,#475));
#96=EDGE_LOOP('',(#476));
#97=EDGE_LOOP('',(#477));
#98=LINE('',#687,#161);
#99=LINE('',#693,#162);
#100=LINE('',#698,#163);
#101=LINE('',#703,#164);
#102=LINE('',#705,#165);
#103=LINE('',#707,#166);
#104=LINE('',#708,#167);
#105=LINE('',#711,#168);
#106=LINE('',#713,#169);
#107=LINE('',#714,#170);
#108=LINE('',#717,#171);
#109=LINE('',#719,#172);
#110=LINE('',#720,#173);
#111=LINE('',#723,#174);
#112=LINE('',#725,#175);
#113=LINE('',#726,#176);
#114=LINE('',#729,#177);
#115=LINE('',#731,#178);
#116=LINE('',#732,#179);
#117=LINE('',#735,#180);
#118=LINE('',#737,#181);
#119=LINE('',#738,#182);
#120=LINE('',#741,#183);
#121=LINE('',#743,#184);
#122=LINE('',#744,#185);
#123=LINE('',#747,#186);
#124=LINE('',#749,#187);
#125=LINE('',#750,#188);
#126=LINE('',#753,#189);
#127=LINE('',#755,#190);
#128=LINE('',#756,#191);
#129=LINE('',#759,#192);
#130=LINE('',#761,#193);
#131=LINE('',#762,#194);
#132=LINE('',#765,#195);
#133=LINE('',#767,#196);
#134=LINE('',#768,#197);
#135=LINE('',#771,#198);
#136=LINE('',#773,#199);
#137=LINE('',#774,#200);
#138=LINE('',#777,#201);
#139=LINE('',#779,#202);
#140=LINE('',#781,#203);
#141=LINE('',#783,#204);
#142=LINE('',#785,#205);
#143=LINE('',#787,#206);
#144=LINE('',#788,#207);
#145=LINE('',#791,#208);
#146=LINE('',#793,#209);
#147=LINE('',#794,#210);
#148=LINE('',#797,#211);
#149=LINE('',#798,#212);
#150=LINE('',#801,#213);
#151=LINE('',#802,#214);
#152=LINE('',#805,#215);
#153=LINE('',#806,#216);
#154=LINE('',#809,#217);
#155=LINE('',#810,#218);
#156=LINE('',#813,#219);
#157=LINE('',#814,#220);
#158=LINE('',#817,#221);
#159=LINE('',#818,#222);
#160=LINE('',#820,#223);
#161=VECTOR('',#559,3.);
#162=VECTOR('',#568,3.);
#163=VECTOR('',#573,2.9);
#164=VECTOR('',#578,10.);
#165=VECTOR('',#579,10.);
#166=VECTOR('',#580,10.);
#167=VECTOR('',#581,10.);
#168=VECTOR('',#584,10.);
#169=VECTOR('',#585,10.);
#170=VECTOR('',#586,10.);
#171=VECTOR('',#589,10.);
#172=VECTOR('',#590,10.);
#173=VECTOR('',#591,10.);
#174=VECTOR('',#594,10.);
#175=VECTOR('',#595,10.);
#176=VECTOR('',#596,10.);
#177=VECTOR('',#599,10.);
#178=VECTOR('',#600,10.);
#179=VECTOR('',#601,10.);
#180=VECTOR('',#604,10.);
#181=VECTOR('',#605,10.);
#182=VECTOR('',#606,10.);
#183=VECTOR('',#609,10.);
#184=VECTOR('',#610,10.);
#185=VECTOR('',#611,10.);
#186=VECTOR('',#614,10.);
#187=VECTOR('',#615,10.);
#188=VECTOR('',#616,10.);
#189=VECTOR('',#619,10.);
#190=VECTOR('',#620,10.);
#191=VECTOR('',#621,10.);
#192=VECTOR('',#624,10.);
#193=VECTOR('',#625,10.);
#194=VECTOR('',#626,10.);
#195=VECTOR('',#629,10.);
#196=VECTOR('',#630,10.);
#197=VECTOR('',#631,10.);
#198=VECTOR('',#634,10.);
#199=VECTOR('',#635,10.);
#200=VECTOR('',#636,10.);
#201=VECTOR('',#639,10.);
#202=VECTOR('',#640,10.);
#203=VECTOR('',#641,10.);
#204=VECTOR('',#642,10.);
#205=VECTOR('',#643,10.);
#206=VECTOR('',#644,10.);
#207=VECTOR('',#645,10.);
#208=VECTOR('',#648,10.);
#209=VECTOR('',#649,10.);
#210=VECTOR('',#650,10.);
#211=VECTOR('',#653,10.);
#212=VECTOR('',#654,10.);
#213=VECTOR('',#657,10.);
#214=VECTOR('',#658,10.);
#215=VECTOR('',#661,10.);
#216=VECTOR('',#662,10.);
#217=VECTOR('',#665,10.);
#218=VECTOR('',#666,10.);
#219=VECTOR('',#669,10.);
#220=VECTOR('',#670,10.);
#221=VECTOR('',#673,10.);
#222=VECTOR('',#674,10.);
#223=VECTOR('',#677,10.);
#224=CIRCLE('',#522,3.);
#225=CIRCLE('',#523,3.);
#226=CIRCLE('',#526,3.88163490354233);
#227=CIRCLE('',#528,2.9);
#228=CIRCLE('',#529,2.9);
#229=VERTEX_POINT('',#684);
#230=VERTEX_POINT('',#686);
#231=VERTEX_POINT('',#691);
#232=VERTEX_POINT('',#695);
#233=VERTEX_POINT('',#697);
#234=VERTEX_POINT('',#701);
#235=VERTEX_POINT('',#702);
#236=VERTEX_POINT('',#704);
#237=VERTEX_POINT('',#706);
#238=VERTEX_POINT('',#710);
#239=VERTEX_POINT('',#712);
#240=VERTEX_POINT('',#716);
#241=VERTEX_POINT('',#718);
#242=VERTEX_POINT('',#722);
#243=VERTEX_POINT('',#724);
#244=VERTEX_POINT('',#728);
#245=VERTEX_POINT('',#730);
#246=VERTEX_POINT('',#734);
#247=VERTEX_POINT('',#736);
#248=VERTEX_POINT('',#740);
#249=VERTEX_POINT('',#742);
#250=VERTEX_POINT('',#746);
#251=VERTEX_POINT('',#748);
#252=VERTEX_POINT('',#752);
#253=VERTEX_POINT('',#754);
#254=VERTEX_POINT('',#758);
#255=VERTEX_POINT('',#760);
#256=VERTEX_POINT('',#764);
#257=VERTEX_POINT('',#766);
#258=VERTEX_POINT('',#770);
#259=VERTEX_POINT('',#772);
#260=VERTEX_POINT('',#776);
#261=VERTEX_POINT('',#778);
#262=VERTEX_POINT('',#780);
#263=VERTEX_POINT('',#782);
#264=VERTEX_POINT('',#784);
#265=VERTEX_POINT('',#786);
#266=VERTEX_POINT('',#790);
#267=VERTEX_POINT('',#792);
#268=VERTEX_POINT('',#796);
#269=VERTEX_POINT('',#800);
#270=VERTEX_POINT('',#804);
#271=VERTEX_POINT('',#808);
#272=VERTEX_POINT('',#812);
#273=VERTEX_POINT('',#816);
#274=EDGE_CURVE('',#229,#229,#224,.T.);
#275=EDGE_CURVE('',#229,#230,#98,.T.);
#276=EDGE_CURVE('',#230,#230,#225,.T.);
#277=EDGE_CURVE('',#231,#231,#226,.T.);
#278=EDGE_CURVE('',#231,#230,#99,.T.);
#279=EDGE_CURVE('',#232,#232,#227,.T.);
#280=EDGE_CURVE('',#232,#233,#100,.T.);
#281=EDGE_CURVE('',#233,#233,#228,.T.);
#282=EDGE_CURVE('',#234,#235,#101,.T.);
#283=EDGE_CURVE('',#236,#235,#102,.T.);
#284=EDGE_CURVE('',#237,#236,#103,.T.);
#285=EDGE_CURVE('',#234,#237,#104,.T.);
#286=EDGE_CURVE('',#238,#236,#105,.T.);
#287=EDGE_CURVE('',#239,#238,#106,.T.);
#288=EDGE_CURVE('',#237,#239,#107,.T.);
#289=EDGE_CURVE('',#240,#238,#108,.T.);
#290=EDGE_CURVE('',#241,#240,#109,.T.);
#291=EDGE_CURVE('',#239,#241,#110,.T.);
#292=EDGE_CURVE('',#242,#240,#111,.T.);
#293=EDGE_CURVE('',#243,#242,#112,.T.);
#294=EDGE_CURVE('',#241,#243,#113,.T.);
#295=EDGE_CURVE('',#244,#242,#114,.T.);
#296=EDGE_CURVE('',#245,#244,#115,.T.);
#297=EDGE_CURVE('',#243,#245,#116,.T.);
#298=EDGE_CURVE('',#246,#244,#117,.T.);
#299=EDGE_CURVE('',#247,#246,#118,.T.);
#300=EDGE_CURVE('',#245,#247,#119,.T.);
#301=EDGE_CURVE('',#248,#246,#120,.T.);
#302=EDGE_CURVE('',#249,#248,#121,.T.);
#303=EDGE_CURVE('',#247,#249,#122,.T.);
#304=EDGE_CURVE('',#250,#248,#123,.T.);
#305=EDGE_CURVE('',#251,#250,#124,.T.);
#306=EDGE_CURVE('',#249,#251,#125,.T.);
#307=EDGE_CURVE('',#252,#250,#126,.T.);
#308=EDGE_CURVE('',#253,#252,#127,.T.);
#309=EDGE_CURVE('',#251,#253,#128,.T.);
#310=EDGE_CURVE('',#254,#252,#129,.T.);
#311=EDGE_CURVE('',#255,#254,#130,.T.);
#312=EDGE_CURVE('',#253,#255,#131,.T.);
#313=EDGE_CURVE('',#256,#254,#132,.T.);
#314=EDGE_CURVE('',#257,#256,#133,.T.);
#315=EDGE_CURVE('',#255,#257,#134,.T.);
#316=EDGE_CURVE('',#258,#256,#135,.T.);
#317=EDGE_CURVE('',#259,#258,#136,.T.);
#318=EDGE_CURVE('',#257,#259,#137,.T.);
#319=EDGE_CURVE('',#260,#258,#138,.T.);
#320=EDGE_CURVE('',#260,#261,#139,.T.);
#321=EDGE_CURVE('',#262,#261,#140,.T.);
#322=EDGE_CURVE('',#263,#262,#141,.T.);
#323=EDGE_CURVE('',#264,#263,#142,.T.);
#324=EDGE_CURVE('',#264,#265,#143,.T.);
#325=EDGE_CURVE('',#259,#265,#144,.T.);
#326=EDGE_CURVE('',#266,#260,#145,.T.);
#327=EDGE_CURVE('',#266,#267,#146,.T.);
#328=EDGE_CURVE('',#261,#267,#147,.T.);
#329=EDGE_CURVE('',#268,#262,#148,.T.);
#330=EDGE_CURVE('',#267,#268,#149,.T.);
#331=EDGE_CURVE('',#268,#269,#150,.T.);
#332=EDGE_CURVE('',#263,#269,#151,.T.);
#333=EDGE_CURVE('',#269,#270,#152,.T.);
#334=EDGE_CURVE('',#270,#264,#153,.T.);
#335=EDGE_CURVE('',#265,#271,#154,.T.);
#336=EDGE_CURVE('',#270,#271,#155,.T.);
#337=EDGE_CURVE('',#271,#272,#156,.T.);
#338=EDGE_CURVE('',#272,#234,#157,.T.);
#339=EDGE_CURVE('',#272,#273,#158,.T.);
#340=EDGE_CURVE('',#235,#273,#159,.T.);
#341=EDGE_CURVE('',#273,#266,#160,.T.);
#342=ORIENTED_EDGE('',*,*,#274,.F.);
#343=ORIENTED_EDGE('',*,*,#275,.T.);
#344=ORIENTED_EDGE('',*,*,#276,.F.);
#345=ORIENTED_EDGE('',*,*,#275,.F.);
#346=ORIENTED_EDGE('',*,*,#274,.T.);
#347=ORIENTED_EDGE('',*,*,#277,.F.);
#348=ORIENTED_EDGE('',*,*,#278,.T.);
#349=ORIENTED_EDGE('',*,*,#276,.T.);
#350=ORIENTED_EDGE('',*,*,#278,.F.);
#351=ORIENTED_EDGE('',*,*,#279,.F.);
#352=ORIENTED_EDGE('',*,*,#280,.T.);
#353=ORIENTED_EDGE('',*,*,#281,.F.);
#354=ORIENTED_EDGE('',*,*,#280,.F.);
#355=ORIENTED_EDGE('',*,*,#282,.T.);
#356=ORIENTED_EDGE('',*,*,#283,.F.);
#357=ORIENTED_EDGE('',*,*,#284,.F.);
#358=ORIENTED_EDGE('',*,*,#285,.F.);
#359=ORIENTED_EDGE('',*,*,#284,.T.);
#360=ORIENTED_EDGE('',*,*,#286,.F.);
#361=ORIENTED_EDGE('',*,*,#287,.F.);
#362=ORIENTED_EDGE('',*,*,#288,.F.);
#363=ORIENTED_EDGE('',*,*,#287,.T.);
#364=ORIENTED_EDGE('',*,*,#289,.F.);
#365=ORIENTED_EDGE('',*,*,#290,.F.);
#366=ORIENTED_EDGE('',*,*,#291,.F.);
#367=ORIENTED_EDGE('',*,*,#290,.T.);
#368=ORIENTED_EDGE('',*,*,#292,.F.);
#369=ORIENTED_EDGE('',*,*,#293,.F.);
#370=ORIENTED_EDGE('',*,*,#294,.F.);
#371=ORIENTED_EDGE('',*,*,#293,.T.);
#372=ORIENTED_EDGE('',*,*,#295,.F.);
#373=ORIENTED_EDGE('',*,*,#296,.F.);
#374=ORIENTED_EDGE('',*,*,#297,.F.);
#375=ORIENTED_EDGE('',*,*,#296,.T.);
#376=ORIENTED_EDGE('',*,*,#298,.F.);
#377=ORIENTED_EDGE('',*,*,#299,.F.);
#378=ORIENTED_EDGE('',*,*,#300,.F.);
#379=ORIENTED_EDGE('',*,*,#299,.T.);
#380=ORIENTED_EDGE('',*,*,#301,.F.);
#381=ORIENTED_EDGE('',*,*,#302,.F.);
#382=ORIENTED_EDGE('',*,*,#303,.F.);
#383=ORIENTED_EDGE('',*,*,#302,.T.);
#384=ORIENTED_EDGE('',*,*,#304,.F.);
#385=ORIENTED_EDGE('',*,*,#305,.F.);
#386=ORIENTED_EDGE('',*,*,#306,.F.);
#387=ORIENTED_EDGE('',*,*,#305,.T.);
#388=ORIENTED_EDGE('',*,*,#307,.F.);
#389=ORIENTED_EDGE('',*,*,#308,.F.);
#390=ORIENTED_EDGE('',*,*,#309,.F.);
#391=ORIENTED_EDGE('',*,*,#308,.T.);
#392=ORIENTED_EDGE('',*,*,#310,.F.);
#393=ORIENTED_EDGE('',*,*,#311,.F.);
#394=ORIENTED_EDGE('',*,*,#312,.F.);
#395=ORIENTED_EDGE('',*,*,#311,.T.);
#396=ORIENTED_EDGE('',*,*,#313,.F.);
#397=ORIENTED_EDGE('',*,*,#314,.F.);
#398=ORIENTED_EDGE('',*,*,#315,.F.);
#399=ORIENTED_EDGE('',*,*,#314,.T.);
#400=ORIENTED_EDGE('',*,*,#316,.F.);
#401=ORIENTED_EDGE('',*,*,#317,.F.);
#402=ORIENTED_EDGE('',*,*,#318,.F.);
#403=ORIENTED_EDGE('',*,*,#317,.T.);
#404=ORIENTED_EDGE('',*,*,#319,.F.);
#405=ORIENTED_EDGE('',*,*,#320,.T.);
#406=ORIENTED_EDGE('',*,*,#321,.F.);
#407=ORIENTED_EDGE('',*,*,#322,.F.);
#408=ORIENTED_EDGE('',*,*,#323,.F.);
#409=ORIENTED_EDGE('',*,*,#324,.T.);
#410=ORIENTED_EDGE('',*,*,#325,.F.);
#411=ORIENTED_EDGE('',*,*,#277,.T.);
#412=ORIENTED_EDGE('',*,*,#326,.F.);
#413=ORIENTED_EDGE('',*,*,#327,.T.);
#414=ORIENTED_EDGE('',*,*,#328,.F.);
#415=ORIENTED_EDGE('',*,*,#320,.F.);
#416=ORIENTED_EDGE('',*,*,#329,.T.);
#417=ORIENTED_EDGE('',*,*,#321,.T.);
#418=ORIENTED_EDGE('',*,*,#328,.T.);
#419=ORIENTED_EDGE('',*,*,#330,.T.);
#420=ORIENTED_EDGE('',*,*,#322,.T.);
#421=ORIENTED_EDGE('',*,*,#329,.F.);
#422=ORIENTED_EDGE('',*,*,#331,.T.);
#423=ORIENTED_EDGE('',*,*,#332,.F.);
#424=ORIENTED_EDGE('',*,*,#332,.T.);
#425=ORIENTED_EDGE('',*,*,#333,.T.);
#426=ORIENTED_EDGE('',*,*,#334,.T.);
#427=ORIENTED_EDGE('',*,*,#323,.T.);
#428=ORIENTED_EDGE('',*,*,#335,.F.);
#429=ORIENTED_EDGE('',*,*,#324,.F.);
#430=ORIENTED_EDGE('',*,*,#334,.F.);
#431=ORIENTED_EDGE('',*,*,#336,.T.);
#432=ORIENTED_EDGE('',*,*,#335,.T.);
#433=ORIENTED_EDGE('',*,*,#337,.T.);
#434=ORIENTED_EDGE('',*,*,#338,.T.);
#435=ORIENTED_EDGE('',*,*,#285,.T.);
#436=ORIENTED_EDGE('',*,*,#288,.T.);
#437=ORIENTED_EDGE('',*,*,#291,.T.);
#438=ORIENTED_EDGE('',*,*,#294,.T.);
#439=ORIENTED_EDGE('',*,*,#297,.T.);
#440=ORIENTED_EDGE('',*,*,#300,.T.);
#441=ORIENTED_EDGE('',*,*,#303,.T.);
#442=ORIENTED_EDGE('',*,*,#306,.T.);
#443=ORIENTED_EDGE('',*,*,#309,.T.);
#444=ORIENTED_EDGE('',*,*,#312,.T.);
#445=ORIENTED_EDGE('',*,*,#315,.T.);
#446=ORIENTED_EDGE('',*,*,#318,.T.);
#447=ORIENTED_EDGE('',*,*,#325,.T.);
#448=ORIENTED_EDGE('',*,*,#339,.T.);
#449=ORIENTED_EDGE('',*,*,#340,.F.);
#450=ORIENTED_EDGE('',*,*,#282,.F.);
#451=ORIENTED_EDGE('',*,*,#338,.F.);
#452=ORIENTED_EDGE('',*,*,#326,.T.);
#453=ORIENTED_EDGE('',*,*,#319,.T.);
#454=ORIENTED_EDGE('',*,*,#316,.T.);
#455=ORIENTED_EDGE('',*,*,#313,.T.);
#456=ORIENTED_EDGE('',*,*,#310,.T.);
#457=ORIENTED_EDGE('',*,*,#307,.T.);
#458=ORIENTED_EDGE('',*,*,#304,.T.);
#459=ORIENTED_EDGE('',*,*,#301,.T.);
#460=ORIENTED_EDGE('',*,*,#298,.T.);
#461=ORIENTED_EDGE('',*,*,#295,.T.);
#462=ORIENTED_EDGE('',*,*,#292,.T.);
#463=ORIENTED_EDGE('',*,*,#289,.T.);
#464=ORIENTED_EDGE('',*,*,#286,.T.);
#465=ORIENTED_EDGE('',*,*,#283,.T.);
#466=ORIENTED_EDGE('',*,*,#340,.T.);
#467=ORIENTED_EDGE('',*,*,#341,.T.);
#468=ORIENTED_EDGE('',*,*,#341,.F.);
#469=ORIENTED_EDGE('',*,*,#339,.F.);
#470=ORIENTED_EDGE('',*,*,#337,.F.);
#471=ORIENTED_EDGE('',*,*,#336,.F.);
#472=ORIENTED_EDGE('',*,*,#333,.F.);
#473=ORIENTED_EDGE('',*,*,#331,.F.);
#474=ORIENTED_EDGE('',*,*,#330,.F.);
#475=ORIENTED_EDGE('',*,*,#327,.F.);
#476=ORIENTED_EDGE('',*,*,#281,.T.);
#477=ORIENTED_EDGE('',*,*,#279,.T.);
#478=CYLINDRICAL_SURFACE('',#521,3.);
#479=CYLINDRICAL_SURFACE('',#527,2.9);
#480=ADVANCED_FACE('',(#42),#478,.T.);
#481=ADVANCED_FACE('',(#43),#18,.F.);
#482=ADVANCED_FACE('',(#44),#17,.T.);
#483=ADVANCED_FACE('',(#45),#479,.T.);
#484=ADVANCED_FACE('',(#46),#19,.T.);
#485=ADVANCED_FACE('',(#47),#20,.T.);
#486=ADVANCED_FACE('',(#48),#21,.T.);
#487=ADVANCED_FACE('',(#49),#22,.T.);
#488=ADVANCED_FACE('',(#50),#23,.T.);
#489=ADVANCED_FACE('',(#51),#24,.T.);
#490=ADVANCED_FACE('',(#52),#25,.T.);
#491=ADVANCED_FACE('',(#53),#26,.T.);
#492=ADVANCED_FACE('',(#54),#27,.T.);
#493=ADVANCED_FACE('',(#55),#28,.T.);
#494=ADVANCED_FACE('',(#56),#29,.T.);
#495=ADVANCED_FACE('',(#57),#30,.T.);
#496=ADVANCED_FACE('',(#58,#15),#31,.T.);
#497=ADVANCED_FACE('',(#59),#32,.T.);
#498=ADVANCED_FACE('',(#60),#33,.T.);
#499=ADVANCED_FACE('',(#61),#34,.T.);
#500=ADVANCED_FACE('',(#62),#35,.T.);
#501=ADVANCED_FACE('',(#63),#36,.T.);
#502=ADVANCED_FACE('',(#64),#37,.T.);
#503=ADVANCED_FACE('',(#65),#38,.T.);
#504=ADVANCED_FACE('',(#66),#39,.T.);
#505=ADVANCED_FACE('',(#67,#16),#40,.T.);
#506=ADVANCED_FACE('',(#68),#41,.T.);
#507=CLOSED_SHELL('',(#480,#481,#482,#483,#484,#485,#486,#487,#488,#489,
#490,#491,#492,#493,#494,#495,#496,#497,#498,#499,#500,#501,#502,#503,#504,
#505,#506));
#508=DERIVED_UNIT_ELEMENT(#510,1.);
#509=DERIVED_UNIT_ELEMENT(#828,-3.);
#510=(
MASS_UNIT()
NAMED_UNIT(*)
SI_UNIT(.KILO.,.GRAM.)
);
#511=DERIVED_UNIT((#508,#509));
#512=MEASURE_REPRESENTATION_ITEM('density measure',
POSITIVE_RATIO_MEASURE(7850.),#511);
#513=PROPERTY_DEFINITION_REPRESENTATION(#518,#515);
#514=PROPERTY_DEFINITION_REPRESENTATION(#519,#516);
#515=REPRESENTATION('material name',(#517),#825);
#516=REPRESENTATION('density',(#512),#825);
#517=DESCRIPTIVE_REPRESENTATION_ITEM('Steel','Steel');
#518=PROPERTY_DEFINITION('material property','material name',#835);
#519=PROPERTY_DEFINITION('material property','density of part',#835);
#520=AXIS2_PLACEMENT_3D('',#682,#553,#554);
#521=AXIS2_PLACEMENT_3D('',#683,#555,#556);
#522=AXIS2_PLACEMENT_3D('',#685,#557,#558);
#523=AXIS2_PLACEMENT_3D('',#688,#560,#561);
#524=AXIS2_PLACEMENT_3D('',#689,#562,#563);
#525=AXIS2_PLACEMENT_3D('',#690,#564,#565);
#526=AXIS2_PLACEMENT_3D('',#692,#566,#567);
#527=AXIS2_PLACEMENT_3D('',#694,#569,#570);
#528=AXIS2_PLACEMENT_3D('',#696,#571,#572);
#529=AXIS2_PLACEMENT_3D('',#699,#574,#575);
#530=AXIS2_PLACEMENT_3D('',#700,#576,#577);
#531=AXIS2_PLACEMENT_3D('',#709,#582,#583);
#532=AXIS2_PLACEMENT_3D('',#715,#587,#588);
#533=AXIS2_PLACEMENT_3D('',#721,#592,#593);
#534=AXIS2_PLACEMENT_3D('',#727,#597,#598);
#535=AXIS2_PLACEMENT_3D('',#733,#602,#603);
#536=AXIS2_PLACEMENT_3D('',#739,#607,#608);
#537=AXIS2_PLACEMENT_3D('',#745,#612,#613);
#538=AXIS2_PLACEMENT_3D('',#751,#617,#618);
#539=AXIS2_PLACEMENT_3D('',#757,#622,#623);
#540=AXIS2_PLACEMENT_3D('',#763,#627,#628);
#541=AXIS2_PLACEMENT_3D('',#769,#632,#633);
#542=AXIS2_PLACEMENT_3D('',#775,#637,#638);
#543=AXIS2_PLACEMENT_3D('',#789,#646,#647);
#544=AXIS2_PLACEMENT_3D('',#795,#651,#652);
#545=AXIS2_PLACEMENT_3D('',#799,#655,#656);
#546=AXIS2_PLACEMENT_3D('',#803,#659,#660);
#547=AXIS2_PLACEMENT_3D('',#807,#663,#664);
#548=AXIS2_PLACEMENT_3D('',#811,#667,#668);
#549=AXIS2_PLACEMENT_3D('',#815,#671,#672);
#550=AXIS2_PLACEMENT_3D('',#819,#675,#676);
#551=AXIS2_PLACEMENT_3D('',#821,#678,#679);
#552=AXIS2_PLACEMENT_3D('',#822,#680,#681);
#553=DIRECTION('axis',(0.,0.,1.));
#554=DIRECTION('refdir',(1.,0.,0.));
#555=DIRECTION('center_axis',(-1.,0.,0.));
#556=DIRECTION('ref_axis',(0.,0.,-1.));
#557=DIRECTION('center_axis',(-1.,0.,0.));
#558=DIRECTION('ref_axis',(0.,0.,-1.));
#559=DIRECTION('',(1.,0.,0.));
#560=DIRECTION('center_axis',(1.,0.,0.));
#561=DIRECTION('ref_axis',(0.,0.,-1.));
#562=DIRECTION('center_axis',(1.,0.,0.));
#563=DIRECTION('ref_axis',(0.,0.,-1.));
#564=DIRECTION('center_axis',(1.,0.,0.));
#565=DIRECTION('ref_axis',(0.,0.,-1.));
#566=DIRECTION('center_axis',(1.,1.26882631385732E-15,0.));
#567=DIRECTION('ref_axis',(0.,0.,-1.));
#568=DIRECTION('',(-0.984807753012208,2.12657684957577E-17,-0.17364817766693));
#569=DIRECTION('center_axis',(1.,0.,0.));
#570=DIRECTION('ref_axis',(0.,0.,-1.));
#571=DIRECTION('center_axis',(1.,0.,0.));
#572=DIRECTION('ref_axis',(0.,0.,-1.));
#573=DIRECTION('',(-1.,0.,0.));
#574=DIRECTION('center_axis',(-1.,0.,0.));
#575=DIRECTION('ref_axis',(0.,0.,-1.));
#576=DIRECTION('center_axis',(0.939692669165748,-0.342020010403122,0.));
#577=DIRECTION('ref_axis',(0.342020010403122,0.939692669165748,1.15079161947607E-16));
#578=DIRECTION('',(0.,0.,1.));
#579=DIRECTION('',(0.342020010403122,0.939692669165748,1.15079161947607E-16));
#580=DIRECTION('',(0.,0.,1.));
#581=DIRECTION('',(-0.342020010403122,-0.939692669165748,-1.15079161947607E-16));
#582=DIRECTION('center_axis',(0.,-1.,0.));
#583=DIRECTION('ref_axis',(1.,0.,0.));
#584=DIRECTION('',(1.,0.,0.));
#585=DIRECTION('',(0.,0.,1.));
#586=DIRECTION('',(-1.,0.,0.));
#587=DIRECTION('center_axis',(-0.939692669165748,-0.342020010403122,0.));
#588=DIRECTION('ref_axis',(0.342020010403122,-0.939692669165748,-1.15079161947607E-16));
#589=DIRECTION('',(0.342020010403122,-0.939692669165748,-1.15079161947607E-16));
#590=DIRECTION('',(0.,0.,1.));
#591=DIRECTION('',(-0.342020010403122,0.939692669165748,1.15079161947607E-16));
#592=DIRECTION('center_axis',(0.,-1.,0.));
#593=DIRECTION('ref_axis',(1.,0.,0.));
#594=DIRECTION('',(1.,0.,0.));
#595=DIRECTION('',(0.,0.,1.));
#596=DIRECTION('',(-1.,0.,0.));
#597=DIRECTION('center_axis',(0.939692669165749,-0.342020010403121,0.));
#598=DIRECTION('ref_axis',(0.342020010403121,0.939692669165749,1.15079161947607E-16));
#599=DIRECTION('',(0.342020010403121,0.939692669165749,1.15079161947607E-16));
#600=DIRECTION('',(0.,0.,1.));
#601=DIRECTION('',(-0.342020010403121,-0.939692669165749,-1.15079161947607E-16));
#602=DIRECTION('center_axis',(0.,-1.,0.));
#603=DIRECTION('ref_axis',(1.,0.,0.));
#604=DIRECTION('',(1.,0.,0.));
#605=DIRECTION('',(0.,0.,1.));
#606=DIRECTION('',(-1.,0.,0.));
#607=DIRECTION('center_axis',(-0.939692669165749,-0.342020010403121,0.));
#608=DIRECTION('ref_axis',(0.342020010403121,-0.939692669165749,-1.15079161947607E-16));
#609=DIRECTION('',(0.342020010403121,-0.939692669165749,-1.15079161947607E-16));
#610=DIRECTION('',(0.,0.,1.));
#611=DIRECTION('',(-0.342020010403121,0.939692669165749,1.15079161947607E-16));
#612=DIRECTION('center_axis',(0.,-1.,0.));
#613=DIRECTION('ref_axis',(1.,0.,0.));
#614=DIRECTION('',(1.,0.,0.));
#615=DIRECTION('',(0.,0.,1.));
#616=DIRECTION('',(-1.,0.,0.));
#617=DIRECTION('center_axis',(0.939692669165748,-0.342020010403122,0.));
#618=DIRECTION('ref_axis',(0.342020010403122,0.939692669165748,1.15079161947607E-16));
#619=DIRECTION('',(0.342020010403122,0.939692669165748,1.15079161947607E-16));
#620=DIRECTION('',(0.,0.,1.));
#621=DIRECTION('',(-0.342020010403122,-0.939692669165748,-1.15079161947607E-16));
#622=DIRECTION('center_axis',(0.,-1.,0.));
#623=DIRECTION('ref_axis',(1.,0.,0.));
#624=DIRECTION('',(1.,0.,0.));
#625=DIRECTION('',(0.,0.,1.));
#626=DIRECTION('',(-1.,0.,0.));
#627=DIRECTION('center_axis',(-0.939692669165748,-0.342020010403122,0.));
#628=DIRECTION('ref_axis',(0.342020010403122,-0.939692669165748,-1.15079161947607E-16));
#629=DIRECTION('',(0.342020010403122,-0.939692669165748,-1.15079161947607E-16));
#630=DIRECTION('',(0.,0.,1.));
#631=DIRECTION('',(-0.342020010403122,0.939692669165748,1.15079161947607E-16));
#632=DIRECTION('center_axis',(0.,-1.,0.));
#633=DIRECTION('ref_axis',(1.,0.,0.));
#634=DIRECTION('',(1.,0.,0.));
#635=DIRECTION('',(0.,0.,1.));
#636=DIRECTION('',(-1.,0.,0.));
#637=DIRECTION('center_axis',(-1.,-1.26882631385732E-15,0.));
#638=DIRECTION('ref_axis',(1.26882631385732E-15,-1.,-1.22464679914735E-16));
#639=DIRECTION('',(1.26882631385732E-15,-1.,-1.22464679914735E-16));
#640=DIRECTION('',(0.,0.,1.));
#641=DIRECTION('',(1.26882631385732E-15,-1.,-1.22464679914735E-16));
#642=DIRECTION('',(0.,0.,1.));
#643=DIRECTION('',(-1.26882631385732E-15,1.,1.22464679914735E-16));
#644=DIRECTION('',(0.,0.,1.));
#645=DIRECTION('',(-1.26882631385732E-15,1.,1.22464679914735E-16));
#646=DIRECTION('center_axis',(0.,-1.,0.));
#647=DIRECTION('ref_axis',(1.,0.,0.));
#648=DIRECTION('',(-1.,0.,0.));
#649=DIRECTION('',(0.,0.,1.));
#650=DIRECTION('',(1.,0.,0.));
#651=DIRECTION('center_axis',(0.,0.,1.));
#652=DIRECTION('ref_axis',(1.,0.,0.));
#653=DIRECTION('',(-1.,0.,0.));
#654=DIRECTION('',(0.,1.,1.22464679914735E-16));
#655=DIRECTION('center_axis',(0.,1.,0.));
#656=DIRECTION('ref_axis',(-1.,0.,0.));
#657=DIRECTION('',(0.,0.,-1.));
#658=DIRECTION('',(1.,0.,0.));
#659=DIRECTION('center_axis',(0.,0.,-1.));
#660=DIRECTION('ref_axis',(-1.,0.,0.));
#661=DIRECTION('',(0.,-1.,-1.22464679914735E-16));
#662=DIRECTION('',(-1.,0.,0.));
#663=DIRECTION('center_axis',(0.,-1.,0.));
#664=DIRECTION('ref_axis',(1.,0.,0.));
#665=DIRECTION('',(1.,0.,0.));
#666=DIRECTION('',(0.,0.,1.));
#667=DIRECTION('center_axis',(0.,0.,-1.));
#668=DIRECTION('ref_axis',(-1.,0.,0.));
#669=DIRECTION('',(0.,-1.,-1.22464679914735E-16));
#670=DIRECTION('',(-1.,0.,0.));
#671=DIRECTION('center_axis',(0.,-1.,0.));
#672=DIRECTION('ref_axis',(1.,0.,0.));
#673=DIRECTION('',(0.,0.,1.));
#674=DIRECTION('',(1.,0.,0.));
#675=DIRECTION('center_axis',(0.,0.,1.));
#676=DIRECTION('ref_axis',(1.,0.,0.));
#677=DIRECTION('',(0.,1.,1.22464679914735E-16));
#678=DIRECTION('center_axis',(1.,0.,0.));
#679=DIRECTION('ref_axis',(0.,1.,1.22464679914735E-16));
#680=DIRECTION('center_axis',(1.,0.,0.));
#681=DIRECTION('ref_axis',(0.,0.,-1.));
#682=CARTESIAN_POINT('',(0.,0.,0.));
#683=CARTESIAN_POINT('Origin',(-11.931417,-3.00000004470348,0.));
#684=CARTESIAN_POINT('',(-40.931417,-3.00000004470348,3.));
#685=CARTESIAN_POINT('Origin',(-40.931417,-3.00000004470348,0.));
#686=CARTESIAN_POINT('',(-11.931417,-3.00000004470348,3.));
#687=CARTESIAN_POINT('',(-11.931417,-3.00000004470348,3.));
#688=CARTESIAN_POINT('Origin',(-11.931417,-3.00000004470348,0.));
#689=CARTESIAN_POINT('Origin',(-40.931417,-3.00000004470348,0.));
#690=CARTESIAN_POINT('Origin',(-11.931417,-3.00000004470348,0.));
#691=CARTESIAN_POINT('',(-6.931417,-3.00000004470348,3.88163490354233));
#692=CARTESIAN_POINT('Origin',(-6.931417,-3.00000004470348,0.));
#693=CARTESIAN_POINT('',(-11.931417,-3.00000004470348,3.));
#694=CARTESIAN_POINT('Origin',(7.068583,-3.00000004470348,0.));
#695=CARTESIAN_POINT('',(9.068583,-3.00000004470348,2.9));
#696=CARTESIAN_POINT('Origin',(9.068583,-3.00000004470348,0.));
#697=CARTESIAN_POINT('',(7.068583,-3.00000004470348,2.9));
#698=CARTESIAN_POINT('',(7.068583,-3.00000004470348,2.9));
#699=CARTESIAN_POINT('Origin',(7.068583,-3.00000004470348,0.));
#700=CARTESIAN_POINT('Origin',(5.294531,-11.8060276313059,-1.69919743381695E-15));
#701=CARTESIAN_POINT('',(6.52293,-8.43102763130591,-2.));
#702=CARTESIAN_POINT('',(6.52293,-8.43102763130591,2.));
#703=CARTESIAN_POINT('',(6.52293,-8.43102763130591,-1.28587913910472E-15));
#704=CARTESIAN_POINT('',(5.294531,-11.8060276313059,2.));
#705=CARTESIAN_POINT('',(5.294531,-11.8060276313059,2.));
#706=CARTESIAN_POINT('',(5.294531,-11.8060276313059,-2.));
#707=CARTESIAN_POINT('',(5.294531,-11.8060276313059,-1.69919743381695E-15));
#708=CARTESIAN_POINT('',(5.294531,-11.8060276313059,-2.));
#709=CARTESIAN_POINT('Origin',(4.130247,-11.8060276313059,-1.69919743381695E-15));
#710=CARTESIAN_POINT('',(4.130247,-11.8060276313059,2.));
#711=CARTESIAN_POINT('',(4.130247,-11.8060276313059,2.));
#712=CARTESIAN_POINT('',(4.130247,-11.8060276313059,-2.));
#713=CARTESIAN_POINT('',(4.130247,-11.8060276313059,-1.69919743381695E-15));
#714=CARTESIAN_POINT('',(4.130247,-11.8060276313059,-2.));
#715=CARTESIAN_POINT('Origin',(2.901848,-8.43102763130591,-1.28587913910472E-15));
#716=CARTESIAN_POINT('',(2.901848,-8.43102763130591,2.));
#717=CARTESIAN_POINT('',(2.901848,-8.43102763130591,2.));
#718=CARTESIAN_POINT('',(2.901848,-8.43102763130591,-2.));
#719=CARTESIAN_POINT('',(2.901848,-8.43102763130591,-1.28587913910472E-15));
#720=CARTESIAN_POINT('',(2.901848,-8.43102763130591,-2.));
#721=CARTESIAN_POINT('Origin',(1.810541,-8.43102763130591,-1.28587913910472E-15));
#722=CARTESIAN_POINT('',(1.810541,-8.43102763130591,2.));
#723=CARTESIAN_POINT('',(1.810541,-8.43102763130591,2.));
#724=CARTESIAN_POINT('',(1.810541,-8.43102763130591,-2.));
#725=CARTESIAN_POINT('',(1.810541,-8.43102763130591,-1.28587913910472E-15));
#726=CARTESIAN_POINT('',(1.810541,-8.43102763130591,-2.));
#727=CARTESIAN_POINT('Origin',(0.582142000000001,-11.8060276313059,-1.69919743381695E-15));
#728=CARTESIAN_POINT('',(0.582142000000001,-11.8060276313059,2.));
#729=CARTESIAN_POINT('',(0.582142000000001,-11.8060276313059,2.));
#730=CARTESIAN_POINT('',(0.582142000000001,-11.8060276313059,-2.));
#731=CARTESIAN_POINT('',(0.582142000000001,-11.8060276313059,-1.69919743381695E-15));
#732=CARTESIAN_POINT('',(0.582142000000001,-11.8060276313059,-2.));
#733=CARTESIAN_POINT('Origin',(-0.582142000000001,-11.8060276313059,-1.69919743381695E-15));
#734=CARTESIAN_POINT('',(-0.582142000000001,-11.8060276313059,2.));
#735=CARTESIAN_POINT('',(-0.582142000000001,-11.8060276313059,2.));
#736=CARTESIAN_POINT('',(-0.582142000000001,-11.8060276313059,-2.));
#737=CARTESIAN_POINT('',(-0.582142000000001,-11.8060276313059,-1.69919743381695E-15));
#738=CARTESIAN_POINT('',(-0.582142000000001,-11.8060276313059,-2.));
#739=CARTESIAN_POINT('Origin',(-1.810541,-8.43102763130591,-1.28587913910472E-15));
#740=CARTESIAN_POINT('',(-1.810541,-8.43102763130591,2.));
#741=CARTESIAN_POINT('',(-1.810541,-8.43102763130591,2.));
#742=CARTESIAN_POINT('',(-1.810541,-8.43102763130591,-2.));
#743=CARTESIAN_POINT('',(-1.810541,-8.43102763130591,-1.28587913910472E-15));
#744=CARTESIAN_POINT('',(-1.810541,-8.43102763130591,-2.));
#745=CARTESIAN_POINT('Origin',(-2.901848,-8.43102763130591,-1.28587913910472E-15));
#746=CARTESIAN_POINT('',(-2.901848,-8.43102763130591,2.));
#747=CARTESIAN_POINT('',(-2.901848,-8.43102763130591,2.));
#748=CARTESIAN_POINT('',(-2.901848,-8.43102763130591,-2.));
#749=CARTESIAN_POINT('',(-2.901848,-8.43102763130591,-1.28587913910472E-15));
#750=CARTESIAN_POINT('',(-2.901848,-8.43102763130591,-2.));
#751=CARTESIAN_POINT('Origin',(-4.130247,-11.8060276313059,-1.69919743381695E-15));
#752=CARTESIAN_POINT('',(-4.130247,-11.8060276313059,2.));
#753=CARTESIAN_POINT('',(-4.130247,-11.8060276313059,2.));
#754=CARTESIAN_POINT('',(-4.130247,-11.8060276313059,-2.));
#755=CARTESIAN_POINT('',(-4.130247,-11.8060276313059,-1.69919743381695E-15));
#756=CARTESIAN_POINT('',(-4.130247,-11.8060276313059,-2.));
#757=CARTESIAN_POINT('Origin',(-5.294531,-11.8060276313059,-1.69919743381695E-15));
#758=CARTESIAN_POINT('',(-5.294531,-11.8060276313059,2.));
#759=CARTESIAN_POINT('',(-5.294531,-11.8060276313059,2.));
#760=CARTESIAN_POINT('',(-5.294531,-11.8060276313059,-2.));
#761=CARTESIAN_POINT('',(-5.294531,-11.8060276313059,-1.69919743381695E-15));
#762=CARTESIAN_POINT('',(-5.294531,-11.8060276313059,-2.));
#763=CARTESIAN_POINT('Origin',(-6.52293,-8.43102763130591,-1.28587913910472E-15));
#764=CARTESIAN_POINT('',(-6.52293,-8.43102763130591,2.));
#765=CARTESIAN_POINT('',(-6.52293,-8.43102763130591,2.));
#766=CARTESIAN_POINT('',(-6.52293,-8.43102763130591,-2.));
#767=CARTESIAN_POINT('',(-6.52293,-8.43102763130591,-1.28587913910472E-15));
#768=CARTESIAN_POINT('',(-6.52293,-8.43102763130591,-2.));
#769=CARTESIAN_POINT('Origin',(-6.931417,-8.43102763130591,-1.28587913910472E-15));
#770=CARTESIAN_POINT('',(-6.931417,-8.43102763130591,2.));
#771=CARTESIAN_POINT('',(-6.931417,-8.43102763130591,2.));
#772=CARTESIAN_POINT('',(-6.931417,-8.43102763130591,-2.));
#773=CARTESIAN_POINT('',(-6.931417,-8.43102763130591,-1.28587913910472E-15));
#774=CARTESIAN_POINT('',(-6.931417,-8.43102763130591,-2.));
#775=CARTESIAN_POINT('Origin',(-6.931417,-7.93102763130591,-1.22464679914735E-15));
#776=CARTESIAN_POINT('',(-6.931417,-7.93102763130591,2.));
#777=CARTESIAN_POINT('',(-6.93141700000001,2.06897236869409,2.));
#778=CARTESIAN_POINT('',(-6.931417,-7.93102763130591,5.));
#779=CARTESIAN_POINT('',(-6.931417,-7.93102763130591,-1.22464679914735E-15));
#780=CARTESIAN_POINT('',(-6.93141700000001,2.06897236869409,5.));
#781=CARTESIAN_POINT('',(-6.93141700000001,2.06897236869409,5.));
#782=CARTESIAN_POINT('',(-6.93141700000001,2.06897236869409,-5.));
#783=CARTESIAN_POINT('',(-6.93141700000001,2.06897236869409,0.));
#784=CARTESIAN_POINT('',(-6.931417,-7.93102763130591,-5.));
#785=CARTESIAN_POINT('',(-6.93141700000001,2.06897236869409,-5.));
#786=CARTESIAN_POINT('',(-6.931417,-7.93102763130591,-2.));
#787=CARTESIAN_POINT('',(-6.931417,-7.93102763130591,-1.22464679914735E-15));
#788=CARTESIAN_POINT('',(-6.93141700000001,2.06897236869409,-2.));
#789=CARTESIAN_POINT('Origin',(-6.931417,-7.93102763130591,-1.22464679914735E-15));
#790=CARTESIAN_POINT('',(7.068583,-7.93102763130591,2.));
#791=CARTESIAN_POINT('',(-6.931417,-7.93102763130591,2.));
#792=CARTESIAN_POINT('',(7.068583,-7.93102763130591,5.));
#793=CARTESIAN_POINT('',(7.068583,-7.93102763130591,-1.22464679914735E-15));
#794=CARTESIAN_POINT('',(-6.931417,-7.93102763130591,5.));
#795=CARTESIAN_POINT('Origin',(0.0685829999999954,-4.86852763130591,5.));
#796=CARTESIAN_POINT('',(7.068583,2.06897236869409,5.));
#797=CARTESIAN_POINT('',(7.068583,2.06897236869409,5.));
#798=CARTESIAN_POINT('',(7.068583,-8.43102763130591,5.));
#799=CARTESIAN_POINT('Origin',(7.068583,2.06897236869409,0.));
#800=CARTESIAN_POINT('',(7.068583,2.06897236869409,-5.));
#801=CARTESIAN_POINT('',(7.068583,2.06897236869409,0.));
#802=CARTESIAN_POINT('',(7.068583,2.06897236869409,-5.));
#803=CARTESIAN_POINT('Origin',(0.0685829999999954,-4.86852763130591,-5.));
#804=CARTESIAN_POINT('',(7.068583,-7.93102763130591,-5.));
#805=CARTESIAN_POINT('',(7.068583,-8.43102763130591,-5.));
#806=CARTESIAN_POINT('',(-6.931417,-7.93102763130591,-5.));
#807=CARTESIAN_POINT('Origin',(-6.931417,-7.93102763130591,-1.22464679914735E-15));
#808=CARTESIAN_POINT('',(7.068583,-7.93102763130591,-2.));
#809=CARTESIAN_POINT('',(-6.931417,-7.93102763130591,-2.));
#810=CARTESIAN_POINT('',(7.068583,-7.93102763130591,-1.22464679914735E-15));
#811=CARTESIAN_POINT('Origin',(0.0685829999999954,-4.86852763130591,-2.));
#812=CARTESIAN_POINT('',(7.068583,-8.43102763130591,-2.));
#813=CARTESIAN_POINT('',(7.068583,-8.43102763130591,-2.));
#814=CARTESIAN_POINT('',(6.52293,-8.43102763130591,-2.));
#815=CARTESIAN_POINT('Origin',(6.52293,-8.43102763130591,-1.28587913910472E-15));
#816=CARTESIAN_POINT('',(7.068583,-8.43102763130591,2.));
#817=CARTESIAN_POINT('',(7.068583,-8.43102763130591,-1.28587913910472E-15));
#818=CARTESIAN_POINT('',(6.52293,-8.43102763130591,2.));
#819=CARTESIAN_POINT('Origin',(0.0685829999999954,-4.86852763130591,2.));
#820=CARTESIAN_POINT('',(7.068583,-8.43102763130591,2.));
#821=CARTESIAN_POINT('Origin',(7.068583,-8.43102763130591,-1.28587913910472E-15));
#822=CARTESIAN_POINT('Origin',(9.068583,-3.18102763130591,0.));
#823=UNCERTAINTY_MEASURE_WITH_UNIT(LENGTH_MEASURE(0.01),#827,
'DISTANCE_ACCURACY_VALUE',
'Maximum model space distance between geometric entities at asserted c
onnectivities');
#824=UNCERTAINTY_MEASURE_WITH_UNIT(LENGTH_MEASURE(0.01),#827,
'DISTANCE_ACCURACY_VALUE',
'Maximum model space distance between geometric entities at asserted c
onnectivities');
#825=(
GEOMETRIC_REPRESENTATION_CONTEXT(3)
GLOBAL_UNCERTAINTY_ASSIGNED_CONTEXT((#823))
GLOBAL_UNIT_ASSIGNED_CONTEXT((#827,#829,#830))
REPRESENTATION_CONTEXT('','3D')
);
#826=(
GEOMETRIC_REPRESENTATION_CONTEXT(3)
GLOBAL_UNCERTAINTY_ASSIGNED_CONTEXT((#824))
GLOBAL_UNIT_ASSIGNED_CONTEXT((#827,#829,#830))
REPRESENTATION_CONTEXT('','3D')
);
#827=(
LENGTH_UNIT()
NAMED_UNIT(*)
SI_UNIT(.MILLI.,.METRE.)
);
#828=(
LENGTH_UNIT()
NAMED_UNIT(*)
SI_UNIT($,.METRE.)
);
#829=(
NAMED_UNIT(*)
PLANE_ANGLE_UNIT()
SI_UNIT($,.RADIAN.)
);
#830=(
NAMED_UNIT(*)
SI_UNIT($,.STERADIAN.)
SOLID_ANGLE_UNIT()
);
#831=SHAPE_DEFINITION_REPRESENTATION(#832,#833);
#832=PRODUCT_DEFINITION_SHAPE('',$,#835);
#833=SHAPE_REPRESENTATION('',(#520),#825);
#834=PRODUCT_DEFINITION_CONTEXT('part definition',#839,'design');
#835=PRODUCT_DEFINITION('2026-09-23-20-14-10-524','Piston_AutoCAD_Ver2',
#836,#834);
#836=PRODUCT_DEFINITION_FORMATION('',$,#841);
#837=PRODUCT_RELATED_PRODUCT_CATEGORY('Piston_AutoCAD_Ver2',
'Piston_AutoCAD_Ver2',(#841));
#838=APPLICATION_PROTOCOL_DEFINITION('international standard',
'automotive_design',2009,#839);
#839=APPLICATION_CONTEXT(
'Core Data for Automotive Mechanical Design Process');
#840=PRODUCT_CONTEXT('part definition',#839,'mechanical');
#841=PRODUCT('2026-09-23-20-14-10-524','Piston_AutoCAD_Ver2',$,(#840));
#842=PRESENTATION_STYLE_ASSIGNMENT((#843));
#843=SURFACE_STYLE_USAGE(.BOTH.,#844);
#844=SURFACE_SIDE_STYLE('',(#845));
#845=SURFACE_STYLE_FILL_AREA(#846);
#846=FILL_AREA_STYLE('Steel - Satin',(#847));
#847=FILL_AREA_STYLE_COLOUR('Steel - Satin',#848);
#848=COLOUR_RGB('Steel - Satin',0.627450980392157,0.627450980392157,0.627450980392157);
ENDSEC;
END-ISO-10303-21;
