ISO-10303-21;
HEADER;
FILE_DESCRIPTION (( 'STEP AP203' ),
    '1' );
FILE_NAME ('Pitch_Bracket.STEP',
    '2026-09-21T05:42:35',
    ( '' ),
    ( '' ),
    'SwSTEP 2.0',
    'SolidWorks 2026',
    '' );
FILE_SCHEMA (( 'CONFIG_CONTROL_DESIGN' ));
ENDSEC;

DATA;
#1 = DIRECTION ( 'NONE',  ( 1.000000000000000000, 0.000000000000000000, 0.000000000000000000 ) ) ;
#2 = AXIS2_PLACEMENT_3D ( 'NONE', #651, #50, #593 ) ;
#3 = ORIENTED_EDGE ( 'NONE', *, *, #557, .T. ) ;
#4 = APPLICATION_CONTEXT ( 'configuration controlled 3d designs of mechanical parts and assemblies' ) ;
#5 = FACE_OUTER_BOUND ( 'NONE', #103, .T. ) ;
#6 = VECTOR ( 'NONE', #334, 1000.000000000000000 ) ;
#7 = EDGE_CURVE ( 'NONE', #245, #247, #723, .T. ) ;
#8 = CARTESIAN_POINT ( 'NONE',  ( 0.000000000000000000, -1.907364959113841600E-05, 16.99999999999740652 ) ) ;
#9 = ORIENTED_EDGE ( 'NONE', *, *, #248, .T. ) ;
#10 = ORIENTED_EDGE ( 'NONE', *, *, #612, .T. ) ;
#11 = ORIENTED_EDGE ( 'NONE', *, *, #465, .T. ) ;
#12 = CARTESIAN_POINT ( 'NONE',  ( 54.00000000000000711, 25.85590832631919156, -25.64341686920038299 ) ) ;
#13 = ORIENTED_EDGE ( 'NONE', *, *, #318, .F. ) ;
#14 = ADVANCED_FACE ( 'NONE', ( #427 ), #86, .F. ) ;
#15 = APPROVAL_PERSON_ORGANIZATION ( #709, #160, #713 ) ;
#16 = CARTESIAN_POINT ( 'NONE',  ( 54.00000000000000711, 25.85590832631919156, -25.64341686920038299 ) ) ;
#17 = ORIENTED_EDGE ( 'NONE', *, *, #311, .T. ) ;
#18 = CIRCLE ( 'NONE', #415, 3.002132971862067734 ) ;
#19 = CARTESIAN_POINT ( 'NONE',  ( 45.35706784268195690, -29.99077072833361512, -27.99038781608062365 ) ) ;
#20 = CARTESIAN_POINT ( 'NONE',  ( 50.00000000000000000, 26.24752494593790786, -23.00000000096333963 ) ) ;
#21 = CARTESIAN_POINT ( 'NONE',  ( 49.00000000000000711, 2.999980926350408694, 16.99999999999740652 ) ) ;
#22 = CARTESIAN_POINT ( 'NONE',  ( 54.00000000000000711, -1.907364959113841600E-05, 16.99999999999740652 ) ) ;
#23 = FACE_OUTER_BOUND ( 'NONE', #644, .T. ) ;
#24 = CIRCLE ( 'NONE', #660, 10.59999999999999964 ) ;
#25 = LINE ( 'NONE', #97, #6 ) ;
#26 = EDGE_CURVE ( 'NONE', #179, #233, #270, .T. ) ;
#27 = AXIS2_PLACEMENT_3D ( 'NONE', #730, #370, #487 ) ;
#28 = ORIENTED_EDGE ( 'NONE', *, *, #199, .T. ) ;
#29 = CARTESIAN_POINT ( 'NONE',  ( -4.000000000000000000, -30.00000000000000000, -31.00000000000000000 ) ) ;
#30 = DIRECTION ( 'NONE',  ( 1.000000000000000000, -0.000000000000000000, -0.000000000000000000 ) ) ;
#31 = EDGE_LOOP ( 'NONE', ( #251, #773, #258, #657, #304 ) ) ;
#32 = CARTESIAN_POINT ( 'NONE',  ( 50.00000000000000000, -3.000018792548654112, 40.48141220122045070 ) ) ;
#33 = CARTESIAN_POINT ( 'NONE',  ( 49.00000000000000711, 0.002113898212477687694, 40.48011304584252201 ) ) ;
#34 = LINE ( 'NONE', #39, #43 ) ;
#35 = VERTEX_POINT ( 'NONE', #193 ) ;
#36 = ADVANCED_FACE ( 'NONE', ( #430 ), #529, .F. ) ;
#37 = CARTESIAN_POINT ( 'NONE',  ( 0.03106747826556202630, -27.25748891159035026, -23.64001510587350197 ) ) ;
#38 = CARTESIAN_POINT ( 'NONE',  ( 54.00000000000000711, 2.999980926350408694, 16.99999999999740652 ) ) ;
#39 = CARTESIAN_POINT ( 'NONE',  ( -4.000000000000000000, 30.00000000000000000, -28.00000000000000000 ) ) ;
#40 = LOCAL_TIME ( 11, 12, 35.00000000000000000, #175 ) ;
#41 = AXIS2_PLACEMENT_3D ( 'NONE', #8, #197, #378 ) ;
#42 = ORIENTED_EDGE ( 'NONE', *, *, #287, .F. ) ;
#43 = VECTOR ( 'NONE', #90, 1000.000000000000000 ) ;
#44 = CARTESIAN_POINT ( 'NONE',  ( 50.00000000000000000, -19.74962558142581770, -7.596071908135664685 ) ) ;
#45 = DIRECTION ( 'NONE',  ( -1.000000000000000000, 0.000000000000000000, 0.000000000000000000 ) ) ;
#46 = CARTESIAN_POINT ( 'NONE',  ( -5.000000000000000000, -1.907364959113841600E-05, 6.399999999997405986 ) ) ;
#47 = ORIENTED_EDGE ( 'NONE', *, *, #7, .F. ) ;
#48 = CARTESIAN_POINT ( 'NONE',  ( 0.000000000000000000, -26.95565831103987975, -23.00000000934084099 ) ) ;
#49 = CARTESIAN_POINT ( 'NONE',  ( -4.000000000000000000, 30.00000000000000000, -28.00000000000000000 ) ) ;
#50 = DIRECTION ( 'NONE',  ( 1.000000000000000000, -0.000000000000000000, 0.000000000000000000 ) ) ;
#51 = CALENDAR_DATE ( 2026, 21, 9 ) ;
#52 = PRODUCT_DEFINITION_SHAPE ( 'NONE', 'NONE',  #264 ) ;
#53 = PLANE ( 'NONE',  #239 ) ;
#54 = EDGE_LOOP ( 'NONE', ( #174, #313, #760, #327 ) ) ;
#55 = LOCAL_TIME ( 11, 12, 35.00000000000000000, #172 ) ;
#56 = EDGE_CURVE ( 'NONE', #484, #731, #226, .T. ) ;
#57 = VECTOR ( 'NONE', #559, 1000.000000000000000 ) ;
#58 = PERSON_AND_ORGANIZATION ( #397, #725 ) ;
#59 = VECTOR ( 'NONE', #629, 1000.000000000000000 ) ;
#60 = FACE_OUTER_BOUND ( 'NONE', #745, .T. ) ;
#61 = ORIENTED_EDGE ( 'NONE', *, *, #67, .T. ) ;
#62 = APPROVAL_STATUS ( 'not_yet_approved' ) ;
#63 = VERTEX_POINT ( 'NONE', #20 ) ;
#64 = FACE_OUTER_BOUND ( 'NONE', #386, .T. ) ;
#65 = SHAPE_DEFINITION_REPRESENTATION ( #52, #572 ) ;
#66 = ORIENTED_EDGE ( 'NONE', *, *, #56, .T. ) ;
#67 = EDGE_CURVE ( 'NONE', #98, #663, #729, .T. ) ;
#68 = CARTESIAN_POINT ( 'NONE',  ( 54.00000000000000711, 2.999980926350407806, 40.62811631659227629 ) ) ;
#69 = APPLICATION_PROTOCOL_DEFINITION ( 'international standard', 'config_control_design', 1994, #550 ) ;
#70 = ADVANCED_FACE ( 'NONE', ( #656 ), #365, .T. ) ;
#71 = CARTESIAN_POINT ( 'NONE',  ( 46.39699346490574783, -29.82721061381186090, -27.81352938084264181 ) ) ;
#72 = VECTOR ( 'NONE', #679, 1000.000000000000000 ) ;
#73 = CARTESIAN_POINT ( 'NONE',  ( -4.000000000000000000, -30.00000000000000000, -28.00000000000000000 ) ) ;
#74 = VERTEX_POINT ( 'NONE', #326 ) ;
#75 = FACE_OUTER_BOUND ( 'NONE', #31, .T. ) ;
#76 = ORIENTED_EDGE ( 'NONE', *, *, #384, .F. ) ;
#77 = EDGE_CURVE ( 'NONE', #74, #108, #284, .T. ) ;
#78 = CARTESIAN_POINT ( 'NONE',  ( 54.00000000000000711, -22.14918791799297892, -19.77969224509664059 ) ) ;
#79 = ORIENTED_EDGE ( 'NONE', *, *, #670, .T. ) ;
#80 = EDGE_CURVE ( 'NONE', #615, #677, #448, .T. ) ;
#81 = B_SPLINE_CURVE_WITH_KNOTS ( 'NONE', 3,
 ( #158, #675, #393, #323, #738 ),
 .UNSPECIFIED., .F., .F.,
 ( 4, 1, 4 ),
 ( 0.4678970806661619242, 0.6870180333482881485, 0.8023555506606385723 ),
 .UNSPECIFIED. ) ;
#82 = CARTESIAN_POINT ( 'NONE',  ( 54.00000000000000711, 18.10019596654749563, 2.940761742406455603 ) ) ;
#83 = CARTESIAN_POINT ( 'NONE',  ( -4.000000000000000000, -4.588676366751011315, 78.42760029416511713 ) ) ;
#84 = VECTOR ( 'NONE', #643, 1000.000000000000000 ) ;
#85 = CARTESIAN_POINT ( 'NONE',  ( 5.000000000000000000, -0.000000000000000000, -28.00000000000000000 ) ) ;
#86 = CYLINDRICAL_SURFACE ( 'NONE', #27, 2.999999999999999112 ) ;
#87 = EDGE_LOOP ( 'NONE', ( #626, #229, #203, #535 ) ) ;
#88 = DIRECTION ( 'NONE',  ( 0.000000000000000000, -1.000000000000000000, 0.000000000000000000 ) ) ;
#89 = EDGE_CURVE ( 'NONE', #129, #522, #453, .T. ) ;
#90 = DIRECTION ( 'NONE',  ( 1.000000000000000000, 0.000000000000000000, 0.000000000000000000 ) ) ;
#91 = EDGE_LOOP ( 'NONE', ( #515, #242, #494, #236 ) ) ;
#92 = LINE ( 'NONE', #563, #57 ) ;
#93 = CIRCLE ( 'NONE', #254, 2.999999999999999112 ) ;
#94 = CARTESIAN_POINT ( 'NONE',  ( 4.629803649889277395, 30.00000000000000355, -28.00000000000001066 ) ) ;
#95 = FACE_OUTER_BOUND ( 'NONE', #543, .T. ) ;
#96 = FACE_OUTER_BOUND ( 'NONE', #113, .T. ) ;
#97 = CARTESIAN_POINT ( 'NONE',  ( 50.00000000000000000, -29.99999999999999645, -23.00000000000000000 ) ) ;
#98 = VERTEX_POINT ( 'NONE', #509 ) ;
#99 = EDGE_CURVE ( 'NONE', #302, #445, #619, .T. ) ;
#100 = CARTESIAN_POINT ( 'NONE',  ( 5.000000000000000888, -30.00000000000000000, -28.00000000000000000 ) ) ;
#101 = FACE_OUTER_BOUND ( 'NONE', #600, .T. ) ;
#102 = DIRECTION ( 'NONE',  ( 1.000000000000000000, -0.000000000000000000, -0.000000000000000000 ) ) ;
#103 = EDGE_LOOP ( 'NONE', ( #412, #691, #531, #665, #401 ) ) ;
#104 = CARTESIAN_POINT ( 'NONE',  ( 0.9642760633906615197, -28.50626139556037586, -25.96861274881127812 ) ) ;
#105 = CARTESIAN_POINT ( 'NONE',  ( 50.00000000000000000, 26.24752494593790786, -23.00000000096333963 ) ) ;
#106 = CARTESIAN_POINT ( 'NONE',  ( 2.395189423714717325, 29.05172170916982921, -27.27965024908147740 ) ) ;
#107 = CIRCLE ( 'NONE', #601, 10.59999999999999787 ) ;
#108 = VERTEX_POINT ( 'NONE', #684 ) ;
#109 = CARTESIAN_POINT ( 'NONE',  ( 54.00000000000000711, -5.057495306272739111E-12, 42.04251190879218569 ) ) ;
#110 = CARTESIAN_POINT ( 'NONE',  ( 3.290790454418181188, -29.73152996067461373, -27.70192276262279307 ) ) ;
#111 = EDGE_CURVE ( 'NONE', #302, #194, #107, .T. ) ;
#112 = DIRECTION ( 'NONE',  ( 1.000000000000000000, -0.000000000000000000, -0.000000000000000000 ) ) ;
#113 = EDGE_LOOP ( 'NONE', ( #695, #750, #742, #13, #648, #377 ) ) ;
#114 = PERSON_AND_ORGANIZATION_ROLE ( 'creator' ) ;
#115 = DIRECTION ( 'NONE',  ( -1.000000000000000000, 0.000000000000000000, 0.000000000000000000 ) ) ;
#116 = B_SPLINE_CURVE_WITH_KNOTS ( 'NONE', 3,
 ( #274, #44, #641, #346 ),
 .UNSPECIFIED., .F., .F.,
 ( 4, 4 ),
 ( 0.04917388213498537219, 0.3880777953917816658 ),
 .UNSPECIFIED. ) ;
#117 = AXIS2_PLACEMENT_3D ( 'NONE', #524, #183, #1 ) ;
#118 = PERSON_AND_ORGANIZATION_ROLE ( 'design_owner' ) ;
#119 = AXIS2_PLACEMENT_3D ( 'NONE', #29, #383, #439 ) ;
#120 = DIRECTION ( 'NONE',  ( 0.000000000000000000, 0.000000000000000000, 1.000000000000000000 ) ) ;
#121 = ADVANCED_FACE ( 'NONE', ( #205 ), #749, .F. ) ;
#122 = PERSON_AND_ORGANIZATION_ROLE ( 'classification_officer' ) ;
#123 = CARTESIAN_POINT ( 'NONE',  ( -2.500000000000000000, -1.907364958984029396E-05, 27.59999999999740439 ) ) ;
#124 = EDGE_CURVE ( 'NONE', #277, #233, #337, .T. ) ;
#125 = CALENDAR_DATE ( 2026, 21, 9 ) ;
#126 = CARTESIAN_POINT ( 'NONE',  ( 54.00000000000000711, 8.489121767229383053, 35.47344519425768539 ) ) ;
#127 = ORIENTED_EDGE ( 'NONE', *, *, #206, .F. ) ;
#128 = B_SPLINE_CURVE_WITH_KNOTS ( 'NONE', 3,
 ( #500, #456, #622, #400, #444, #694, #385, #281, #633, #276, #753, #106, #690, #343, #676, #145, #94, #330 ),
 .UNSPECIFIED., .F., .F.,
 ( 4, 2, 2, 2, 2, 2, 2, 2, 4 ),
 ( 8.237643173223335033E-13, 0.001085722942631842927, 0.002171445884439921620, 0.003257168826248000530, 0.004342891768056079439, 0.005428614709864157915, 0.006514337651672237259, 0.007600060593480315735, 0.008685783535288392476 ),
 .UNSPECIFIED. ) ;
#129 = VERTEX_POINT ( 'NONE', #163 ) ;
#130 = PERSON_AND_ORGANIZATION ( #397, #725 ) ;
#131 = CARTESIAN_POINT ( 'NONE',  ( 45.00000000000000000, -30.00000000000000000, -28.00000000000000000 ) ) ;
#132 = VERTEX_POINT ( 'NONE', #390 ) ;
#133 = CARTESIAN_POINT ( 'NONE',  ( 44.94600000000000506, 30.00000000000000355, -28.00000000000001421 ) ) ;
#134 = EDGE_CURVE ( 'NONE', #63, #210, #25, .T. ) ;
#135 = ORIENTED_EDGE ( 'NONE', *, *, #605, .F. ) ;
#136 = CARTESIAN_POINT ( 'NONE',  ( 44.94599999999999795, -3.000018792463426731, 40.48141220130467843 ) ) ;
#137 = CARTESIAN_POINT ( 'NONE',  ( 5.054000000000002935, -30.00000000000000000, -28.00000000000000000 ) ) ;
#138 = CC_DESIGN_APPROVAL ( #710, ( #610 ) ) ;
#139 = AXIS2_PLACEMENT_3D ( 'NONE', #306, #115, #413 ) ;
#140 = CARTESIAN_POINT ( 'NONE',  ( 54.00000000000000711, -12.69595172832823771, 30.90043107063454286 ) ) ;
#141 = EDGE_LOOP ( 'NONE', ( #198, #432 ) ) ;
#142 = ORIENTED_EDGE ( 'NONE', *, *, #134, .T. ) ;
#143 = EDGE_CURVE ( 'NONE', #435, #179, #150, .T. ) ;
#144 = CARTESIAN_POINT ( 'NONE',  ( 5.000000000000000000, -1.907365473288417929E-05, -23.00000000000000711 ) ) ;
#145 = CARTESIAN_POINT ( 'NONE',  ( 4.276321030420228375, 29.92625357849580325, -27.95969167893203888 ) ) ;
#146 = ORIENTED_EDGE ( 'NONE', *, *, #331, .F. ) ;
#147 = ORIENTED_EDGE ( 'NONE', *, *, #154, .F. ) ;
#148 = CC_DESIGN_DATE_AND_TIME_ASSIGNMENT ( #597, #230, ( #576 ) ) ;
#149 = DIRECTION ( 'NONE',  ( 0.000000000000000000, 0.000000000000000000, -1.000000000000000000 ) ) ;
#150 = LINE ( 'NONE', #381, #268 ) ;
#151 = ORIENTED_EDGE ( 'NONE', *, *, #77, .F. ) ;
#152 = CARTESIAN_POINT ( 'NONE',  ( 2.672997487403574457, -29.51291802073392390, -27.43817205648368329 ) ) ;
#153 = PLANE ( 'NONE',  #119 ) ;
#154 = EDGE_CURVE ( 'NONE', #532, #677, #34, .T. ) ;
#155 = CIRCLE ( 'NONE', #765, 2.999999999999999112 ) ;
#156 = DIRECTION ( 'NONE',  ( 1.000000000000000000, -0.000000000000000000, -0.000000000000000000 ) ) ;
#157 = CARTESIAN_POINT ( 'NONE',  ( 0.000000000000000000, 26.29596378355667952, -23.00000000094078700 ) ) ;
#158 = CARTESIAN_POINT ( 'NONE',  ( 50.00000000000000000, 2.999980926450832808, 40.62811631679329594 ) ) ;
#159 = DIRECTION ( 'NONE',  ( -1.000000000000000000, -0.000000000000000000, -0.000000000000000000 ) ) ;
#160 = APPROVAL ( #241, 'UNSPECIFIED' ) ;
#161 = FACE_OUTER_BOUND ( 'NONE', #54, .T. ) ;
#162 = CARTESIAN_POINT ( 'NONE',  ( 45.00000000000000711, 30.00000000000000000, -28.00000000000000000 ) ) ;
#163 = CARTESIAN_POINT ( 'NONE',  ( 54.00000000000000711, -30.00000000000000000, -31.00000000000000000 ) ) ;
#164 = ORIENTED_EDGE ( 'NONE', *, *, #134, .F. ) ;
#165 = CARTESIAN_POINT ( 'NONE',  ( 1.196177768178504338E-10, -27.10583460395268318, -23.32324479028941511 ) ) ;
#166 = CARTESIAN_POINT ( 'NONE',  ( 0.000000000000000000, -26.95565831103987975, -23.00000000934084099 ) ) ;
#167 = VECTOR ( 'NONE', #574, 1000.000000000000000 ) ;
#168 = CIRCLE ( 'NONE', #272, 2.999999999999999112 ) ;
#169 = EDGE_CURVE ( 'NONE', #185, #484, #744, .T. ) ;
#170 = DIRECTION ( 'NONE',  ( -0.000000000000000000, -0.000000000000000000, 1.000000000000000000 ) ) ;
#171 = PRODUCT ( 'Pitch_Bracket', 'Pitch_Bracket', '', ( #409 ) ) ;
#172 = COORDINATED_UNIVERSAL_TIME_OFFSET ( 5, 30, .AHEAD. ) ;
#173 = DIRECTION ( 'NONE',  ( 1.000000000000000000, 0.000000000000000000, 0.000000000000000000 ) ) ;
#174 = ORIENTED_EDGE ( 'NONE', *, *, #429, .F. ) ;
#175 = COORDINATED_UNIVERSAL_TIME_OFFSET ( 5, 30, .AHEAD. ) ;
#176 = CARTESIAN_POINT ( 'NONE',  ( 50.00000000000000000, -1.907364959113841600E-05, 16.99999999999740652 ) ) ;
#177 = CARTESIAN_POINT ( 'NONE',  ( 54.00000000000000711, -29.99999999999999645, -28.00000000000000000 ) ) ;
#178 = EDGE_CURVE ( 'NONE', #35, #532, #128, .T. ) ;
#179 = VERTEX_POINT ( 'NONE', #202 ) ;
#180 = COORDINATED_UNIVERSAL_TIME_OFFSET ( 5, 30, .AHEAD. ) ;
#181 = CARTESIAN_POINT ( 'NONE',  ( 54.00000000000000711, -12.69595172838363872, 30.90043107033753245 ) ) ;
#182 = ADVANCED_FACE ( 'NONE', ( #440 ), #564, .T. ) ;
#183 = DIRECTION ( 'NONE',  ( 0.000000000000000000, 0.000000000000000000, 1.000000000000000000 ) ) ;
#184 = LINE ( 'NONE', #542, #739 ) ;
#185 = VERTEX_POINT ( 'NONE', #411 ) ;
#186 = CARTESIAN_POINT ( 'NONE',  ( -2.500000000000000000, -1.907364959113841600E-05, 16.99999999999740652 ) ) ;
#187 = ORIENTED_EDGE ( 'NONE', *, *, #746, .F. ) ;
#188 = ORIENTED_EDGE ( 'NONE', *, *, #124, .T. ) ;
#189 = AXIS2_PLACEMENT_3D ( 'NONE', #520, #332, #702 ) ;
#190 = ORIENTED_EDGE ( 'NONE', *, *, #352, .F. ) ;
#191 = ADVANCED_FACE ( 'NONE', ( #640 ), #53, .F. ) ;
#192 = CARTESIAN_POINT ( 'NONE',  ( 45.88560871308511935, -29.92829215158930722, -27.92403403396177097 ) ) ;
#193 = CARTESIAN_POINT ( 'NONE',  ( 0.000000000000000000, 26.29596378355667952, -23.00000000094078700 ) ) ;
#194 = VERTEX_POINT ( 'NONE', #123 ) ;
#195 = FACE_OUTER_BOUND ( 'NONE', #457, .T. ) ;
#196 = CARTESIAN_POINT ( 'NONE',  ( -4.000000000000000000, -30.00000000000000000, -28.00000000000000000 ) ) ;
#197 = DIRECTION ( 'NONE',  ( 1.000000000000000000, 0.000000000000000000, 0.000000000000000000 ) ) ;
#198 = ORIENTED_EDGE ( 'NONE', *, *, #758, .F. ) ;
#199 = EDGE_CURVE ( 'NONE', #541, #435, #18, .T. ) ;
#200 = CIRCLE ( 'NONE', #635, 10.59999999999999787 ) ;
#201 = DIRECTION ( 'NONE',  ( 0.000000000000000000, 1.000000000000000000, 5.503541165414893258E-17 ) ) ;
#202 = CARTESIAN_POINT ( 'NONE',  ( 54.00000000000000711, -3.000019073649591306, 16.99999999999740652 ) ) ;
#203 = ORIENTED_EDGE ( 'NONE', *, *, #547, .T. ) ;
#204 = CYLINDRICAL_SURFACE ( 'NONE', #355, 5.000000000000000888 ) ;
#205 = FACE_OUTER_BOUND ( 'NONE', #317, .T. ) ;
#206 = EDGE_CURVE ( 'NONE', #98, #247, #294, .T. ) ;
#207 = CARTESIAN_POINT ( 'NONE',  ( 3.785709150885264052, -29.86442989826081984, -27.85340501299002014 ) ) ;
#208 = DIRECTION ( 'NONE',  ( 0.000000000000000000, -0.000000000000000000, -1.000000000000000000 ) ) ;
#209 = DIRECTION ( 'NONE',  ( 0.000000000000000000, 0.000000000000000000, 1.000000000000000000 ) ) ;
#210 = VERTEX_POINT ( 'NONE', #361 ) ;
#211 = LINE ( 'NONE', #392, #225 ) ;
#212 = DIRECTION ( 'NONE',  ( 1.000000000000000000, -0.000000000000000000, -0.000000000000000000 ) ) ;
#213 = DIRECTION ( 'NONE',  ( 0.000000000000000000, 0.000000000000000000, 1.000000000000000000 ) ) ;
#214 = ORIENTED_EDGE ( 'NONE', *, *, #565, .T. ) ;
#215 = CARTESIAN_POINT ( 'NONE',  ( 0.1512225484023522193, -27.56517950655337046, -24.26066132096398675 ) ) ;
#216 = CARTESIAN_POINT ( 'NONE',  ( 45.36712487263344684, 29.98165376087224843, -27.98972295589475223 ) ) ;
#217 = CARTESIAN_POINT ( 'NONE',  ( 49.00000000000000711, -1.907364959113841600E-05, 13.99999999999740652 ) ) ;
#218 = ORIENTED_EDGE ( 'NONE', *, *, #169, .F. ) ;
#219 =( LENGTH_UNIT ( ) NAMED_UNIT ( * ) SI_UNIT ( .MILLI., .METRE. ) );
#220 = CARTESIAN_POINT ( 'NONE',  ( 49.00000000000000711, -1.907364959113841600E-05, 16.99999999999740652 ) ) ;
#221 = CARTESIAN_POINT ( 'NONE',  ( 54.00000000000000711, -3.000018792548654112, 40.48141220122045780 ) ) ;
#222 = ADVANCED_FACE ( 'NONE', ( #60 ), #586, .F. ) ;
#223 =( NAMED_UNIT ( * ) PLANE_ANGLE_UNIT ( ) SI_UNIT ( $, .RADIAN. ) );
#224 = PLANE ( 'NONE',  #539 ) ;
#225 = VECTOR ( 'NONE', #398, 1000.000000000000000 ) ;
#226 = CIRCLE ( 'NONE', #662, 3.002132971862067734 ) ;
#227 = CALENDAR_DATE ( 2026, 21, 9 ) ;
#228 = CARTESIAN_POINT ( 'NONE',  ( -4.000000000000000000, -30.00000000000000000, -28.00000000000000000 ) ) ;
#229 = ORIENTED_EDGE ( 'NONE', *, *, #647, .T. ) ;
#230 = DATE_TIME_ROLE ( 'classification_date' ) ;
#231 = EDGE_CURVE ( 'NONE', #74, #277, #168, .T. ) ;
#232 = DIRECTION ( 'NONE',  ( 1.000000000000000000, 0.000000000000000000, 0.000000000000000000 ) ) ;
#233 = VERTEX_POINT ( 'NONE', #298 ) ;
#234 = COORDINATED_UNIVERSAL_TIME_OFFSET ( 5, 30, .AHEAD. ) ;
#235 = CARTESIAN_POINT ( 'NONE',  ( 49.96730861349815456, 26.57038524156079262, -23.65584050994330312 ) ) ;
#236 = ORIENTED_EDGE ( 'NONE', *, *, #547, .F. ) ;
#237 = DIRECTION ( 'NONE',  ( -1.000000000000000000, 0.000000000000000000, 0.000000000000000000 ) ) ;
#238 = LOCAL_TIME ( 11, 12, 35.00000000000000000, #770 ) ;
#239 = AXIS2_PLACEMENT_3D ( 'NONE', #109, #291, #646 ) ;
#240 = CC_DESIGN_APPROVAL ( #160, ( #576 ) ) ;
#241 = APPROVAL_STATUS ( 'not_yet_approved' ) ;
#242 = ORIENTED_EDGE ( 'NONE', *, *, #260, .T. ) ;
#243 = CIRCLE ( 'NONE', #41, 10.59999999999999964 ) ;
#244 = CARTESIAN_POINT ( 'NONE',  ( 49.03655832750713728, -28.49833700767487699, -25.96741945812616237 ) ) ;
#245 = VERTEX_POINT ( 'NONE', #357 ) ;
#246 = CARTESIAN_POINT ( 'NONE',  ( 54.00000000000000711, -29.99999999999999645, -28.00000000000000000 ) ) ;
#247 = VERTEX_POINT ( 'NONE', #521 ) ;
#248 = EDGE_CURVE ( 'NONE', #685, #129, #476, .T. ) ;
#249 = VERTEX_POINT ( 'NONE', #588 ) ;
#250 = CARTESIAN_POINT ( 'NONE',  ( 49.87824577454434660, -27.55130572096201291, -24.26862906956008814 ) ) ;
#251 = ORIENTED_EDGE ( 'NONE', *, *, #465, .F. ) ;
#252 = EDGE_CURVE ( 'NONE', #249, #663, #762, .T. ) ;
#253 = EDGE_LOOP ( 'NONE', ( #490, #492, #395, #9 ) ) ;
#254 = AXIS2_PLACEMENT_3D ( 'NONE', #176, #45, #761 ) ;
#255 = CARTESIAN_POINT ( 'NONE',  ( 54.00000000000000711, -3.000019073649589529, 40.48011304584252201 ) ) ;
#256 = AXIS2_PLACEMENT_3D ( 'NONE', #618, #88, #208 ) ;
#257 = ORIENTED_EDGE ( 'NONE', *, *, #384, .T. ) ;
#258 = ORIENTED_EDGE ( 'NONE', *, *, #80, .T. ) ;
#259 = CARTESIAN_POINT ( 'NONE',  ( 45.70982730668612248, -29.95502767634063446, -27.95253603660249553 ) ) ;
#260 = EDGE_CURVE ( 'NONE', #484, #435, #408, .T. ) ;
#261 = CARTESIAN_POINT ( 'NONE',  ( -4.000000000000000000, -30.00000000000000000, -28.00000000000000000 ) ) ;
#262 = MANIFOLD_SOLID_BREP ( 'Boss-Extrude6', #479 ) ;
#263 = CARTESIAN_POINT ( 'NONE',  ( 46.41155978896326673, 29.69365874012702378, -27.80934063019997993 ) ) ;
#264 = PRODUCT_DEFINITION ( 'UNKNOWN', '', #610, #769 ) ;
#265 = CARTESIAN_POINT ( 'NONE',  ( -4.000000000000000000, 25.85590832631919156, -25.64341686920038299 ) ) ;
#266 = B_SPLINE_CURVE_WITH_KNOTS ( 'NONE', 3,
 ( #433, #320, #250, #554, #314, #244, #310, #659, #371, #486, #604, #655, #71, #192, #259, #19, #599, #131 ),
 .UNSPECIFIED., .F., .F.,
 ( 4, 2, 2, 2, 2, 2, 2, 2, 4 ),
 ( 8.640226294790563636E-12, 0.002110142614143870055, 0.003165213916895691804, 0.004220285219647514421, 0.005275356522399336605, 0.006330427825151157921, 0.007385499127902980104, 0.007913034779278890762, 0.008440570430654803155 ),
 .UNSPECIFIED. ) ;
#267 = ORIENTED_EDGE ( 'NONE', *, *, #647, .F. ) ;
#268 = VECTOR ( 'NONE', #569, 1000.000000000000000 ) ;
#269 = CARTESIAN_POINT ( 'NONE',  ( 54.00000000000000711, -29.99999999999999645, -28.00000000000000000 ) ) ;
#270 = CIRCLE ( 'NONE', #464, 2.999999999999999112 ) ;
#271 = CARTESIAN_POINT ( 'NONE',  ( 50.00000000000000000, -3.000019073649589529, 42.04251190879218569 ) ) ;
#272 = AXIS2_PLACEMENT_3D ( 'NONE', #734, #460, #120 ) ;
#273 = ORIENTED_EDGE ( 'NONE', *, *, #497, .T. ) ;
#274 = CARTESIAN_POINT ( 'NONE',  ( 50.00000000000000000, -26.94121953867488628, -23.00000000979196813 ) ) ;
#275 = CARTESIAN_POINT ( 'NONE',  ( 54.00000000000000711, -1.907364959113841600E-05, 16.99999999999740652 ) ) ;
#276 = CARTESIAN_POINT ( 'NONE',  ( 1.635089963263568480, 28.52463675736946769, -26.71195287284226083 ) ) ;
#277 = VERTEX_POINT ( 'NONE', #405 ) ;
#278 = EDGE_CURVE ( 'NONE', #249, #685, #764, .T. ) ;
#279 = CYLINDRICAL_SURFACE ( 'NONE', #728, 10.59999999999999964 ) ;
#280 = DIRECTION ( 'NONE',  ( -1.000000000000000000, 0.000000000000000000, 0.000000000000000000 ) ) ;
#281 = CARTESIAN_POINT ( 'NONE',  ( 0.9923462404309907336, 27.98438042210399601, -26.00644917489213270 ) ) ;
#282 = CARTESIAN_POINT ( 'NONE',  ( 1.605922747945204065, -28.96358758065694161, -26.68554627547828062 ) ) ;
#283 = DIRECTION ( 'NONE',  ( 0.000000000000000000, -5.503541165414893874E-17, 1.000000000000000000 ) ) ;
#284 = LINE ( 'NONE', #625, #59 ) ;
#285 = CARTESIAN_POINT ( 'NONE',  ( 3.617331217372065755, -29.82382607276977637, -27.80808714292123796 ) ) ;
#286 = CARTESIAN_POINT ( 'NONE',  ( 49.74750251123968781, 27.07964512704470650, -24.60119945519770113 ) ) ;
#287 = EDGE_CURVE ( 'NONE', #441, #541, #431, .T. ) ;
#288 = CARTESIAN_POINT ( 'NONE',  ( -2.500000000000000000, -1.907364959113841600E-05, 16.99999999999740652 ) ) ;
#289 = ORIENTED_EDGE ( 'NONE', *, *, #99, .T. ) ;
#290 = CARTESIAN_POINT ( 'NONE',  ( 45.00000000000000711, 30.00000000000000000, -28.00000000000000000 ) ) ;
#291 = DIRECTION ( 'NONE',  ( -1.000000000000000000, 0.000000000000000000, 0.000000000000000000 ) ) ;
#292 = APPLICATION_PROTOCOL_DEFINITION ( 'international standard', 'config_control_design', 1994, #4 ) ;
#293 = CARTESIAN_POINT ( 'NONE',  ( 48.81050313558592535, 28.14989096700851690, -26.25277558562672198 ) ) ;
#294 = LINE ( 'NONE', #228, #342 ) ;
#295 = ORIENTED_EDGE ( 'NONE', *, *, #206, .T. ) ;
#296 = ADVANCED_FACE ( 'NONE', ( #471, #64 ), #224, .F. ) ;
#297 = APPROVAL_ROLE ( '' ) ;
#298 = CARTESIAN_POINT ( 'NONE',  ( 54.00000000000000711, -1.907364959113841600E-05, 13.99999999999740652 ) ) ;
#299 = EDGE_LOOP ( 'NONE', ( #519, #188, #214, #151 ) ) ;
#300 = CC_DESIGN_PERSON_AND_ORGANIZATION_ASSIGNMENT ( #536, #122, ( #576 ) ) ;
#301 = DATE_AND_TIME ( #125, #754 ) ;
#302 = VERTEX_POINT ( 'NONE', #534 ) ;
#303 = CARTESIAN_POINT ( 'NONE',  ( 0.000000000000000000, -1.907365473288417929E-05, 41.99999999999727862 ) ) ;
#304 = ORIENTED_EDGE ( 'NONE', *, *, #497, .F. ) ;
#305 = EDGE_LOOP ( 'NONE', ( #295, #360, #608, #449, #544, #737 ) ) ;
#306 = CARTESIAN_POINT ( 'NONE',  ( 50.00000000000000000, -5.057495306272739111E-12, 42.04251190879218569 ) ) ;
#307 = AXIS2_PLACEMENT_3D ( 'NONE', #186, #280, #743 ) ;
#308 = CALENDAR_DATE ( 2026, 21, 9 ) ;
#309 = ORIENTED_EDGE ( 'NONE', *, *, #311, .F. ) ;
#310 = CARTESIAN_POINT ( 'NONE',  ( 48.83999222778913918, -28.65357061187549448, -26.21840572788248380 ) ) ;
#311 = EDGE_CURVE ( 'NONE', #245, #677, #463, .T. ) ;
#312 = DIRECTION ( 'NONE',  ( 0.000000000000000000, 0.000000000000000000, -1.000000000000000000 ) ) ;
#313 = ORIENTED_EDGE ( 'NONE', *, *, #331, .T. ) ;
#314 = CARTESIAN_POINT ( 'NONE',  ( 49.37730044654709616, -28.18626599923310039, -25.43692884026015477 ) ) ;
#315 = CARTESIAN_POINT ( 'NONE',  ( 5.054000000000002935, -4.588676366751011315, 78.42760029416511713 ) ) ;
#316 = LINE ( 'NONE', #548, #552 ) ;
#317 = EDGE_LOOP ( 'NONE', ( #146, #721, #289, #475 ) ) ;
#318 = EDGE_CURVE ( 'NONE', #685, #615, #699, .T. ) ;
#319 = VERTEX_POINT ( 'NONE', #166 ) ;
#320 = CARTESIAN_POINT ( 'NONE',  ( 50.00000000000000711, -27.24313030296629634, -23.64667328604655339 ) ) ;
#321 = CARTESIAN_POINT ( 'NONE',  ( -4.000000000000000000, 30.00000000000000355, -28.00000000000001421 ) ) ;
#322 = B_SPLINE_CURVE_WITH_KNOTS ( 'NONE', 3,
 ( #162, #757, #216, #399, #632, #263, #495, #706, #642, #341, #350, #293, #466, #771, #649, #286, #645, #235, #528, #105 ),
 .UNSPECIFIED., .F., .F.,
 ( 4, 2, 2, 2, 2, 2, 2, 2, 2, 4 ),
 ( 0.000000000000000000, 0.0005466189447247711943, 0.001093237889449542389, 0.002186475778899069165, 0.003279713668348595724, 0.004372951557798122717, 0.005466189447247649276, 0.006559427336697175835, 0.007652665226146703262, 0.008745903115596229821 ),
 .UNSPECIFIED. ) ;
#323 = CARTESIAN_POINT ( 'NONE',  ( 50.00000000000000711, 23.67503357200712344, -17.66093814030681841 ) ) ;
#324 = CARTESIAN_POINT ( 'NONE',  ( -4.000000000000000000, 25.85590832631919156, -25.64341686920038299 ) ) ;
#325 = CARTESIAN_POINT ( 'NONE',  ( 54.00000000000000711, -3.000018792548654112, 40.48141220122045780 ) ) ;
#326 = CARTESIAN_POINT ( 'NONE',  ( 50.00000000000000000, 2.999980926350408694, 16.99999999999740652 ) ) ;
#327 = ORIENTED_EDGE ( 'NONE', *, *, #99, .F. ) ;
#328 = VECTOR ( 'NONE', #623, 1000.000000000000000 ) ;
#329 = DIRECTION ( 'NONE',  ( 1.000000000000000000, 0.000000000000000000, 0.000000000000000000 ) ) ;
#330 = CARTESIAN_POINT ( 'NONE',  ( 5.000000000000000888, 30.00000000000000000, -28.00000000000000000 ) ) ;
#331 = EDGE_CURVE ( 'NONE', #194, #603, #653, .T. ) ;
#332 = DIRECTION ( 'NONE',  ( 0.000000000000000000, -1.000000000000000000, 0.000000000000000000 ) ) ;
#333 = DIRECTION ( 'NONE',  ( 0.000000000000000000, 0.000000000000000000, 1.000000000000000000 ) ) ;
#334 = DIRECTION ( 'NONE',  ( -0.000000000000000000, -1.000000000000000000, -0.000000000000000000 ) ) ;
#335 = PLANE ( 'NONE',  #387 ) ;
#336 = LINE ( 'NONE', #38, #686 ) ;
#337 = LINE ( 'NONE', #217, #577 ) ;
#338 = ORIENTED_EDGE ( 'NONE', *, *, #111, .T. ) ;
#339 = EDGE_CURVE ( 'NONE', #575, #615, #669, .T. ) ;
#340 = CARTESIAN_POINT ( 'NONE',  ( 0.000000000000000000, -1.907364959113841600E-05, 16.99999999999740652 ) ) ;
#341 = CARTESIAN_POINT ( 'NONE',  ( 48.12917330486845913, 28.69280994045970701, -26.91267839940831408 ) ) ;
#342 = VECTOR ( 'NONE', #348, 1000.000000000000000 ) ;
#343 = CARTESIAN_POINT ( 'NONE',  ( 3.277194882650263708, 29.54708353864451809, -27.70533272973526095 ) ) ;
#344 = AXIS2_PLACEMENT_3D ( 'NONE', #514, #156, #759 ) ;
#345 = ORIENTED_EDGE ( 'NONE', *, *, #77, .T. ) ;
#346 = CARTESIAN_POINT ( 'NONE',  ( 50.00000000000000000, -3.000018792548654112, 40.48141220122045070 ) ) ;
#347 = CC_DESIGN_DATE_AND_TIME_ASSIGNMENT ( #301, #469, ( #264 ) ) ;
#348 = DIRECTION ( 'NONE',  ( 1.000000000000000000, 0.000000000000000000, 0.000000000000000000 ) ) ;
#349 = CYLINDRICAL_SURFACE ( 'NONE', #189, 5.000000000000000888 ) ;
#350 = CARTESIAN_POINT ( 'NONE',  ( 48.36920559124401819, 28.51320511688662407, -26.70795588440443780 ) ) ;
#351 = CARTESIAN_POINT ( 'NONE',  ( 54.00000000000000711, 8.489121770169257175, 35.47344518430645621 ) ) ;
#352 = EDGE_CURVE ( 'NONE', #210, #245, #266, .T. ) ;
#353 = CARTESIAN_POINT ( 'NONE',  ( 54.00000000000000711, -3.000018792548655444, 40.48141220122045780 ) ) ;
#354 = CARTESIAN_POINT ( 'NONE',  ( 54.00000000000000711, 0.002113898212477687694, 40.48011304584252201 ) ) ;
#355 = AXIS2_PLACEMENT_3D ( 'NONE', #144, #380, #333 ) ;
#356 = LINE ( 'NONE', #353, #488 ) ;
#357 = CARTESIAN_POINT ( 'NONE',  ( 45.00000000000000000, -30.00000000000000000, -28.00000000000000000 ) ) ;
#358 = ORIENTED_EDGE ( 'NONE', *, *, #419, .T. ) ;
#359 = APPROVAL_DATE_TIME ( #652, #160 ) ;
#360 = ORIENTED_EDGE ( 'NONE', *, *, #707, .T. ) ;
#361 = CARTESIAN_POINT ( 'NONE',  ( 50.00000000000000000, -26.94121953867488628, -23.00000000979196813 ) ) ;
#362 = PERSON_AND_ORGANIZATION ( #397, #725 ) ;
#363 = EDGE_CURVE ( 'NONE', #132, #74, #482, .T. ) ;
#364 = DIRECTION ( 'NONE',  ( 1.000000000000000000, -0.000000000000000000, -0.000000000000000000 ) ) ;
#365 = PLANE ( 'NONE',  #767 ) ;
#366 = CC_DESIGN_APPROVAL ( #763, ( #264 ) ) ;
#367 = PERSON_AND_ORGANIZATION ( #397, #725 ) ;
#368 = VECTOR ( 'NONE', #170, 1000.000000000000000 ) ;
#369 = DIRECTION ( 'NONE',  ( -0.000000000000000000, -0.000000000000000000, 1.000000000000000000 ) ) ;
#370 = DIRECTION ( 'NONE',  ( 1.000000000000000000, -0.000000000000000000, -0.000000000000000000 ) ) ;
#371 = CARTESIAN_POINT ( 'NONE',  ( 48.15284568021832001, -29.10298627271750149, -26.89410621776186616 ) ) ;
#372 = ORIENTED_EDGE ( 'NONE', *, *, #199, .F. ) ;
#373 = EDGE_CURVE ( 'NONE', #522, #98, #184, .T. ) ;
#374 = CARTESIAN_POINT ( 'NONE',  ( 54.00000000000000711, 18.10019596536132269, 2.940761746778178587 ) ) ;
#375 = CARTESIAN_POINT ( 'NONE',  ( 5.054000000000002935, 17.79265775073134037, 5.890750685273308918 ) ) ;
#376 = APPROVAL_PERSON_ORGANIZATION ( #130, #710, #297 ) ;
#377 = ORIENTED_EDGE ( 'NONE', *, *, #252, .T. ) ;
#378 = DIRECTION ( 'NONE',  ( 0.000000000000000000, 0.000000000000000000, -1.000000000000000000 ) ) ;
#379 = CARTESIAN_POINT ( 'NONE',  ( -4.000000000000000000, -4.588676366751011315, 78.42760029416511713 ) ) ;
#380 = DIRECTION ( 'NONE',  ( 0.000000000000000000, 1.000000000000000000, -0.000000000000000000 ) ) ;
#381 = CARTESIAN_POINT ( 'NONE',  ( 54.00000000000000711, -3.000019073649591306, 16.99999999999740652 ) ) ;
#382 = ORIENTED_EDGE ( 'NONE', *, *, #252, .F. ) ;
#383 = DIRECTION ( 'NONE',  ( -0.000000000000000000, 1.000000000000000000, 0.000000000000000000 ) ) ;
#384 = EDGE_CURVE ( 'NONE', #532, #247, #538, .T. ) ;
#385 = CARTESIAN_POINT ( 'NONE',  ( 0.6454662703584974626, 27.63080272874929832, -25.47751110899863392 ) ) ;
#386 = EDGE_LOOP ( 'NONE', ( #505, #358 ) ) ;
#387 = AXIS2_PLACEMENT_3D ( 'NONE', #747, #681, #406 ) ;
#388 = CARTESIAN_POINT ( 'NONE',  ( 0.000000000000000000, -18.95409108395725184, -5.777142831299174830 ) ) ;
#389 = FACE_OUTER_BOUND ( 'NONE', #546, .T. ) ;
#390 = CARTESIAN_POINT ( 'NONE',  ( 50.00000000000000000, 2.999980926450832808, 40.62811631679329594 ) ) ;
#391 = ORIENTED_EDGE ( 'NONE', *, *, #373, .F. ) ;
#392 = CARTESIAN_POINT ( 'NONE',  ( -4.000000000000000000, -30.00000000000000000, -31.00000000000000000 ) ) ;
#393 = CARTESIAN_POINT ( 'NONE',  ( 50.00000000000000711, 16.77088999329023267, 7.440351438814472473 ) ) ;
#394 = CARTESIAN_POINT ( 'NONE',  ( 54.00000000000000711, 30.00000000000000000, -28.00000000000000000 ) ) ;
#395 = ORIENTED_EDGE ( 'NONE', *, *, #278, .T. ) ;
#396 = ADVANCED_FACE ( 'NONE', ( #75 ), #717, .T. ) ;
#397 = PERSON ( 'UNSPECIFIED', 'UNSPECIFIED', 'UNSPECIFIED', ('UNSPECIFIED'), ('UNSPECIFIED'), ('UNSPECIFIED') ) ;
#398 = DIRECTION ( 'NONE',  ( 0.000000000000000000, 1.000000000000000000, 0.000000000000000000 ) ) ;
#399 = CARTESIAN_POINT ( 'NONE',  ( 45.72340515060506760, 29.91537253795845075, -27.95063640724778153 ) ) ;
#400 = CARTESIAN_POINT ( 'NONE',  ( 0.1584592314473099173, 26.93972494831379549, -24.28979969519512494 ) ) ;
#401 = ORIENTED_EDGE ( 'NONE', *, *, #287, .T. ) ;
#402 = EDGE_CURVE ( 'NONE', #603, #445, #243, .T. ) ;
#403 = VECTOR ( 'NONE', #499, 1000.000000000000000 ) ;
#404 = LOCAL_TIME ( 11, 12, 35.00000000000000000, #180 ) ;
#405 = CARTESIAN_POINT ( 'NONE',  ( 50.00000000000000000, -1.907364959113841600E-05, 13.99999999999740652 ) ) ;
#406 = DIRECTION ( 'NONE',  ( 1.000000000000000000, 0.000000000000000000, -0.000000000000000000 ) ) ;
#407 = B_SPLINE_SURFACE_WITH_KNOTS ( 'NONE', 3, 1, ( 
 ( #246, #607 ),
 ( #78, #481 ),
 ( #140, #436 ),
 ( #671, #136 ) ),
 .UNSPECIFIED., .F., .F., .F.,
 ( 4, 4 ),
 ( 2, 2 ),
 ( 0.000000000000000000, 0.3880777953929189228 ),
 ( 0.000000000000000000, 1.000000000000000000 ),
 .UNSPECIFIED. ) ;
#408 = LINE ( 'NONE', #772, #703 ) ;
#409 = MECHANICAL_CONTEXT ( 'NONE', #4, 'mechanical' ) ;
#410 = ADVANCED_FACE ( 'NONE', ( #5 ), #407, .T. ) ;
#411 = CARTESIAN_POINT ( 'NONE',  ( 50.00000000000000000, -3.000019073649591306, 16.99999999999740652 ) ) ;
#412 = ORIENTED_EDGE ( 'NONE', *, *, #612, .F. ) ;
#413 = DIRECTION ( 'NONE',  ( 0.000000000000000000, 0.000000000000000000, 1.000000000000000000 ) ) ;
#414 = ORIENTED_EDGE ( 'NONE', *, *, #363, .T. ) ;
#415 = AXIS2_PLACEMENT_3D ( 'NONE', #354, #173, #467 ) ;
#416 = APPROVAL_ROLE ( '' ) ;
#417 = FACE_OUTER_BOUND ( 'NONE', #91, .T. ) ;
#418 = DIRECTION ( 'NONE',  ( 0.000000000000000000, 0.000000000000000000, 1.000000000000000000 ) ) ;
#419 = EDGE_CURVE ( 'NONE', #319, #35, #316, .T. ) ;
#420 = APPROVAL_STATUS ( 'not_yet_approved' ) ;
#421 = DIRECTION ( 'NONE',  ( 0.000000000000000000, 1.000000000000000000, -0.000000000000000000 ) ) ;
#422 = CARTESIAN_POINT ( 'NONE',  ( 50.00000000000000000, 0.002113898212477687694, 40.48011304584252201 ) ) ;
#423 = CC_DESIGN_PERSON_AND_ORGANIZATION_ASSIGNMENT ( #58, #527, ( #610 ) ) ;
#424 =( NAMED_UNIT ( * ) SI_UNIT ( $, .STERADIAN. ) SOLID_ANGLE_UNIT ( ) );
#425 = ORIENTED_EDGE ( 'NONE', *, *, #143, .F. ) ;
#426 = CARTESIAN_POINT ( 'NONE',  ( 44.94600000000000506, 18.10019596536132269, 2.940761746778178587 ) ) ;
#427 = FACE_OUTER_BOUND ( 'NONE', #299, .T. ) ;
#428 = CARTESIAN_POINT ( 'NONE',  ( 44.94600000000000506, 8.489121767229383053, 35.47344519425768539 ) ) ;
#429 = EDGE_CURVE ( 'NONE', #194, #302, #200, .T. ) ;
#430 = FACE_OUTER_BOUND ( 'NONE', #305, .T. ) ;
#431 = B_SPLINE_CURVE_WITH_KNOTS ( 'NONE', 3,
 ( #177, #596, #181, #221 ),
 .UNSPECIFIED., .F., .F.,
 ( 4, 4 ),
 ( 0.000000000000000000, 0.3880777953917817213 ),
 .UNSPECIFIED. ) ;
#432 = ORIENTED_EDGE ( 'NONE', *, *, #402, .F. ) ;
#433 = CARTESIAN_POINT ( 'NONE',  ( 50.00000000000000000, -26.94121953867488628, -23.00000000979196813 ) ) ;
#434 = CC_DESIGN_PERSON_AND_ORGANIZATION_ASSIGNMENT ( #716, #118, ( #171 ) ) ;
#435 = VERTEX_POINT ( 'NONE', #255 ) ;
#436 = CARTESIAN_POINT ( 'NONE',  ( 44.94599999999999795, -12.69595172832823771, 30.90043107063454286 ) ) ;
#437 = CARTESIAN_POINT ( 'NONE',  ( 5.054000000000002935, -21.35786635247384169, -18.89790241950795391 ) ) ;
#438 = VECTOR ( 'NONE', #708, 1000.000000000000000 ) ;
#439 = DIRECTION ( 'NONE',  ( 0.000000000000000000, -0.000000000000000000, 1.000000000000000000 ) ) ;
#440 = FACE_OUTER_BOUND ( 'NONE', #483, .T. ) ;
#441 = VERTEX_POINT ( 'NONE', #732 ) ;
#442 = ADVANCED_FACE ( 'NONE', ( #195 ), #667, .F. ) ;
#443 = CARTESIAN_POINT ( 'NONE',  ( 5.000000000000000888, 30.00000000000000000, -28.00000000000000000 ) ) ;
#444 = CARTESIAN_POINT ( 'NONE',  ( 0.2517122127307160895, 27.10873569571062447, -24.59932530434175035 ) ) ;
#445 = VERTEX_POINT ( 'NONE', #682 ) ;
#446 = CARTESIAN_POINT ( 'NONE',  ( 0.4778691130567289114, -28.03828178523444237, -25.15678411038757645 ) ) ;
#447 = CYLINDRICAL_SURFACE ( 'NONE', #562, 3.002132971862067734 ) ;
#448 = LINE ( 'NONE', #394, #489 ) ;
#449 = ORIENTED_EDGE ( 'NONE', *, *, #178, .T. ) ;
#450 = CARTESIAN_POINT ( 'NONE',  ( 0.2408113774525496853, -27.72185235973584128, -24.56572957833770232 ) ) ;
#451 = DIRECTION ( 'NONE',  ( 0.000000000000000000, 0.000000000000000000, -1.000000000000000000 ) ) ;
#452 = AXIS2_PLACEMENT_3D ( 'NONE', #21, #201, #455 ) ;
#453 = LINE ( 'NONE', #581, #167 ) ;
#454 = FACE_OUTER_BOUND ( 'NONE', #253, .T. ) ;
#455 = DIRECTION ( 'NONE',  ( 0.000000000000000000, -5.503541165414893258E-17, 1.000000000000000000 ) ) ;
#456 = CARTESIAN_POINT ( 'NONE',  ( -0.000000000000000000, 26.45228748373580885, -23.33237628891337678 ) ) ;
#457 = EDGE_LOOP ( 'NONE', ( #338, #602 ) ) ;
#458 = DIRECTION ( 'NONE',  ( 1.000000000000000000, -0.000000000000000000, -0.000000000000000000 ) ) ;
#459 = DIRECTION ( 'NONE',  ( 1.000000000000000000, -0.000000000000000000, -0.000000000000000000 ) ) ;
#460 = DIRECTION ( 'NONE',  ( -1.000000000000000000, 0.000000000000000000, 0.000000000000000000 ) ) ;
#461 = CARTESIAN_POINT ( 'NONE',  ( 2.382680375934352224, -29.38361524403634206, -27.27273359944167552 ) ) ;
#462 = AXIS2_PLACEMENT_3D ( 'NONE', #579, #470, #775 ) ;
#463 = LINE ( 'NONE', #777, #84 ) ;
#464 = AXIS2_PLACEMENT_3D ( 'NONE', #22, #736, #312 ) ;
#465 = EDGE_CURVE ( 'NONE', #575, #132, #693, .T. ) ;
#466 = CARTESIAN_POINT ( 'NONE',  ( 49.01050167549664849, 27.96666473545722909, -26.00259787259602007 ) ) ;
#467 = DIRECTION ( 'NONE',  ( 0.000000000000000000, 0.000000000000000000, 1.000000000000000000 ) ) ;
#468 = ORIENTED_EDGE ( 'NONE', *, *, #419, .F. ) ;
#469 = DATE_TIME_ROLE ( 'creation_date' ) ;
#470 = DIRECTION ( 'NONE',  ( 0.000000000000000000, -1.000000000000000000, 7.388054191177636804E-17 ) ) ;
#471 = FACE_BOUND ( 'NONE', #141, .T. ) ;
#472 = ORIENTED_EDGE ( 'NONE', *, *, #318, .T. ) ;
#473 = SECURITY_CLASSIFICATION_LEVEL ( 'unclassified' ) ;
#474 = CARTESIAN_POINT ( 'NONE',  ( 54.00000000000000711, 30.00000000000000000, -28.00000000000000000 ) ) ;
#475 = ORIENTED_EDGE ( 'NONE', *, *, #758, .T. ) ;
#476 = LINE ( 'NONE', #526, #438 ) ;
#477 = VECTOR ( 'NONE', #112, 1000.000000000000000 ) ;
#478 = ADVANCED_FACE ( 'NONE', ( #503 ), #153, .F. ) ;
#479 = CLOSED_SHELL ( 'NONE', ( #14, #733, #121, #410, #191, #396, #182, #478, #222, #523, #696, #70, #36, #296, #724, #506, #658, #636, #585, #533, #442 ) ) ;
#480 = VECTOR ( 'NONE', #715, 1000.000000000000000 ) ;
#481 = CARTESIAN_POINT ( 'NONE',  ( 44.94599999999999795, -22.14918791799297892, -19.77969224509664059 ) ) ;
#482 = LINE ( 'NONE', #718, #594 ) ;
#483 = EDGE_LOOP ( 'NONE', ( #549, #218, #267, #726, #650, #273, #142, #741 ) ) ;
#484 = VERTEX_POINT ( 'NONE', #678 ) ;
#485 = ORIENTED_EDGE ( 'NONE', *, *, #248, .F. ) ;
#486 = CARTESIAN_POINT ( 'NONE',  ( 47.62516525040314264, -29.37658466868008844, -27.26766991771373938 ) ) ;
#487 = DIRECTION ( 'NONE',  ( 0.000000000000000000, 0.000000000000000000, -1.000000000000000000 ) ) ;
#488 = VECTOR ( 'NONE', #591, 1000.000000000000000 ) ;
#489 = VECTOR ( 'NONE', #159, 1000.000000000000000 ) ;
#490 = ORIENTED_EDGE ( 'NONE', *, *, #89, .T. ) ;
#491 = CARTESIAN_POINT ( 'NONE',  ( 44.94600000000000506, 2.999980922036498576, 40.62811632093865910 ) ) ;
#492 = ORIENTED_EDGE ( 'NONE', *, *, #746, .T. ) ;
#493 = DIRECTION ( 'NONE',  ( -0.000000000000000000, -1.000000000000000000, 0.000000000000000000 ) ) ;
#494 = ORIENTED_EDGE ( 'NONE', *, *, #143, .T. ) ;
#495 = CARTESIAN_POINT ( 'NONE',  ( 46.72682144471971810, 29.54438095735302028, -27.70379420681948091 ) ) ;
#496 = DIRECTION ( 'NONE',  ( 0.000000000000000000, 0.000000000000000000, 1.000000000000000000 ) ) ;
#497 = EDGE_CURVE ( 'NONE', #132, #63, #81, .T. ) ;
#498 = ORIENTED_EDGE ( 'NONE', *, *, #7, .T. ) ;
#499 = DIRECTION ( 'NONE',  ( -1.000000000000000000, -0.000000000000000000, -0.000000000000000000 ) ) ;
#500 = CARTESIAN_POINT ( 'NONE',  ( 0.000000000000000000, 26.29596378355667952, -23.00000000094078700 ) ) ;
#501 = ORIENTED_EDGE ( 'NONE', *, *, #26, .F. ) ;
#502 = CARTESIAN_POINT ( 'NONE',  ( 54.00000000000000711, 30.00000000000000000, -31.00000000000000000 ) ) ;
#503 = FACE_OUTER_BOUND ( 'NONE', #620, .T. ) ;
#504 = DIRECTION ( 'NONE',  ( 0.000000000000000000, 7.388054191177636804E-17, 1.000000000000000000 ) ) ;
#505 = ORIENTED_EDGE ( 'NONE', *, *, #719, .F. ) ;
#506 = ADVANCED_FACE ( 'NONE', ( #23 ), #204, .F. ) ;
#507 = DIRECTION ( 'NONE',  ( 0.000000000000000000, 0.000000000000000000, -1.000000000000000000 ) ) ;
#508 = PLANE ( 'NONE',  #256 ) ;
#509 = CARTESIAN_POINT ( 'NONE',  ( -4.000000000000000000, -30.00000000000000000, -28.00000000000000000 ) ) ;
#510 =( GEOMETRIC_REPRESENTATION_CONTEXT ( 3 ) GLOBAL_UNCERTAINTY_ASSIGNED_CONTEXT ( ( #589 ) ) GLOBAL_UNIT_ASSIGNED_CONTEXT ( ( #219, #223, #424 ) ) REPRESENTATION_CONTEXT ( 'NONE', 'WORKASPACE' ) );
#511 = CC_DESIGN_SECURITY_CLASSIFICATION ( #576, ( #610 ) ) ;
#512 = CARTESIAN_POINT ( 'NONE',  ( 1.162563031684737513, -28.66195359845498913, -26.22134898075558240 ) ) ;
#513 = CARTESIAN_POINT ( 'NONE',  ( 0.000000000000000000, -1.907364958984029396E-05, 27.59999999999740439 ) ) ;
#514 = CARTESIAN_POINT ( 'NONE',  ( -5.000000000000000000, -1.907364959113841600E-05, 16.99999999999740652 ) ) ;
#515 = ORIENTED_EDGE ( 'NONE', *, *, #169, .T. ) ;
#516 = DIRECTION ( 'NONE',  ( 0.000000000000000000, 0.000000000000000000, -1.000000000000000000 ) ) ;
#517 = PLANE ( 'NONE',  #462 ) ;
#518 = DIRECTION ( 'NONE',  ( 1.000000000000000000, 0.000000000000000000, -0.000000000000000000 ) ) ;
#519 = ORIENTED_EDGE ( 'NONE', *, *, #231, .T. ) ;
#520 = CARTESIAN_POINT ( 'NONE',  ( 45.00000000000000711, 0.000000000000000000, -23.00000000000000000 ) ) ;
#521 = CARTESIAN_POINT ( 'NONE',  ( 5.000000000000000888, -30.00000000000000000, -28.00000000000000000 ) ) ;
#522 = VERTEX_POINT ( 'NONE', #556 ) ;
#523 = ADVANCED_FACE ( 'NONE', ( #96 ), #508, .F. ) ;
#524 = CARTESIAN_POINT ( 'NONE',  ( 0.000000000000000000, 0.000000000000000000, 0.000000000000000000 ) ) ;
#525 = VECTOR ( 'NONE', #624, 1000.000000000000000 ) ;
#526 = CARTESIAN_POINT ( 'NONE',  ( 54.00000000000000711, -30.00000000000000000, -31.00000000000000000 ) ) ;
#527 = PERSON_AND_ORGANIZATION_ROLE ( 'design_supplier' ) ;
#528 = CARTESIAN_POINT ( 'NONE',  ( 49.99999999998615152, 26.40728251949387584, -23.33156790304585471 ) ) ;
#529 = B_SPLINE_SURFACE_WITH_KNOTS ( 'NONE', 3, 1, ( 
 ( #196, #137 ),
 ( #606, #437 ),
 ( #83, #315 ),
 ( #668, #375 ),
 ( #265, #611 ),
 ( #321, #740 ) ),
 .UNSPECIFIED., .F., .F., .F.,
 ( 4, 1, 1, 4 ),
 ( 2, 2 ),
 ( 0.000000000000000000, 0.4280197268307365244, 0.6870180333482881485, 0.8560394536613387118 ),
 ( 0.000000000000000000, 1.000000000000000000 ),
 .UNSPECIFIED. ) ;
#530 = CARTESIAN_POINT ( 'NONE',  ( -4.000000000000000000, 30.00000000000000000, -31.00000000000000000 ) ) ;
#531 = ORIENTED_EDGE ( 'NONE', *, *, #352, .T. ) ;
#532 = VERTEX_POINT ( 'NONE', #443 ) ;
#533 = ADVANCED_FACE ( 'NONE', ( #389 ), #621, .F. ) ;
#534 = CARTESIAN_POINT ( 'NONE',  ( -2.500000000000000000, -1.907364959113841600E-05, 6.399999999997405986 ) ) ;
#535 = ORIENTED_EDGE ( 'NONE', *, *, #26, .T. ) ;
#536 = PERSON_AND_ORGANIZATION ( #397, #725 ) ;
#537 = PRODUCT_RELATED_PRODUCT_CATEGORY ( 'detail', '', ( #171 ) ) ;
#538 = LINE ( 'NONE', #85, #687 ) ;
#539 = AXIS2_PLACEMENT_3D ( 'NONE', #303, #237, #418 ) ;
#540 = CALENDAR_DATE ( 2026, 21, 9 ) ;
#541 = VERTEX_POINT ( 'NONE', #325 ) ;
#542 = CARTESIAN_POINT ( 'NONE',  ( -4.000000000000000000, -30.00000000000000000, -31.00000000000000000 ) ) ;
#543 = EDGE_LOOP ( 'NONE', ( #190, #164, #135, #309 ) ) ;
#544 = ORIENTED_EDGE ( 'NONE', *, *, #570, .F. ) ;
#545 = CARTESIAN_POINT ( 'NONE',  ( 54.00000000000000711, 30.00000000000000355, -28.00000000000001421 ) ) ;
#546 = EDGE_LOOP ( 'NONE', ( #11, #414, #345, #666 ) ) ;
#547 = EDGE_CURVE ( 'NONE', #185, #179, #92, .T. ) ;
#548 = CARTESIAN_POINT ( 'NONE',  ( 0.000000000000000000, -1.907365473288417929E-05, -23.00000000000000711 ) ) ;
#549 = ORIENTED_EDGE ( 'NONE', *, *, #56, .F. ) ;
#550 = APPLICATION_CONTEXT ( 'configuration controlled 3d designs of mechanical parts and assemblies' ) ;
#551 = CC_DESIGN_PERSON_AND_ORGANIZATION_ASSIGNMENT ( #367, #114, ( #264 ) ) ;
#552 = VECTOR ( 'NONE', #421, 1000.000000000000000 ) ;
#553 = ORIENTED_EDGE ( 'NONE', *, *, #670, .F. ) ;
#554 = CARTESIAN_POINT ( 'NONE',  ( 49.52228373736169686, -28.02881398351052411, -25.15653082218691594 ) ) ;
#555 = DIRECTION ( 'NONE',  ( -1.000000000000000000, 0.000000000000000000, 0.000000000000000000 ) ) ;
#556 = CARTESIAN_POINT ( 'NONE',  ( -4.000000000000000000, -30.00000000000000000, -31.00000000000000000 ) ) ;
#557 = EDGE_CURVE ( 'NONE', #441, #245, #567, .T. ) ;
#558 = CARTESIAN_POINT ( 'NONE',  ( -4.000000000000000000, 30.00000000000000000, -28.00000000000000000 ) ) ;
#559 = DIRECTION ( 'NONE',  ( 1.000000000000000000, -0.000000000000000000, -0.000000000000000000 ) ) ;
#560 = CARTESIAN_POINT ( 'NONE',  ( 0.000000000000000000, 0.000000000000000000, -28.00000000000000000 ) ) ;
#561 = ORIENTED_EDGE ( 'NONE', *, *, #260, .F. ) ;
#562 = AXIS2_PLACEMENT_3D ( 'NONE', #33, #212, #451 ) ;
#563 = CARTESIAN_POINT ( 'NONE',  ( 49.00000000000000711, -3.000019073649591306, 16.99999999999740652 ) ) ;
#564 = PLANE ( 'NONE',  #139 ) ;
#565 = EDGE_CURVE ( 'NONE', #233, #108, #155, .T. ) ;
#566 = CARTESIAN_POINT ( 'NONE',  ( 54.00000000000000711, -30.00000000000000000, -31.00000000000000000 ) ) ;
#567 = LINE ( 'NONE', #269, #525 ) ;
#568 = B_SPLINE_CURVE_WITH_KNOTS ( 'NONE', 3,
 ( #100, #697, #627, #207, #285, #110, #583, #152, #461, #637, #282, #512, #104, #571, #446, #450, #215, #37, #165, #48 ),
 .UNSPECIFIED., .F., .F.,
 ( 4, 2, 2, 2, 2, 2, 2, 2, 2, 4 ),
 ( 0.000000000000000000, 0.001054364869935112787, 0.001581547304902668205, 0.002108729739870223406, 0.003163094609805334675, 0.004217459479740444210, 0.005271824349675553745, 0.006326189219610664147, 0.007380554089545773681, 0.008434918959480883216 ),
 .UNSPECIFIED. ) ;
#569 = DIRECTION ( 'NONE',  ( -0.000000000000000000, -7.388054191177636804E-17, -1.000000000000000000 ) ) ;
#570 = EDGE_CURVE ( 'NONE', #663, #532, #628, .T. ) ;
#571 = CARTESIAN_POINT ( 'NONE',  ( 0.6228419042780086734, -28.19505387129329677, -25.43725590572303474 ) ) ;
#572 = ADVANCED_BREP_SHAPE_REPRESENTATION ( 'Pitch_Bracket', ( #262, #117 ), #510 ) ;
#573 = CARTESIAN_POINT ( 'NONE',  ( -4.000000000000000000, 30.00000000000000000, -28.00000000000000000 ) ) ;
#574 = DIRECTION ( 'NONE',  ( -1.000000000000000000, -0.000000000000000000, -0.000000000000000000 ) ) ;
#575 = VERTEX_POINT ( 'NONE', #752 ) ;
#576 = SECURITY_CLASSIFICATION ( '', '', #473 ) ;
#577 = VECTOR ( 'NONE', #102, 1000.000000000000000 ) ;
#578 = DIRECTION ( 'NONE',  ( 1.000000000000000000, 0.000000000000000000, 0.000000000000000000 ) ) ;
#579 = CARTESIAN_POINT ( 'NONE',  ( 49.00000000000000711, -3.000019073649591306, 16.99999999999740652 ) ) ;
#580 = VECTOR ( 'NONE', #504, 1000.000000000000000 ) ;
#581 = CARTESIAN_POINT ( 'NONE',  ( -4.000000000000000000, -30.00000000000000000, -31.00000000000000000 ) ) ;
#582 = ORIENTED_EDGE ( 'NONE', *, *, #595, .F. ) ;
#583 = CARTESIAN_POINT ( 'NONE',  ( 3.132821684959572472, -29.68003627683136258, -27.64130618619248025 ) ) ;
#584 = CYLINDRICAL_SURFACE ( 'NONE', #701, 2.999999999999999112 ) ;
#585 = ADVANCED_FACE ( 'NONE', ( #101 ), #447, .F. ) ;
#586 = PLANE ( 'NONE',  #2 ) ;
#587 = CARTESIAN_POINT ( 'NONE',  ( -5.000000000000000000, -1.907364959113841600E-05, 16.99999999999740652 ) ) ;
#588 = CARTESIAN_POINT ( 'NONE',  ( -4.000000000000000000, 30.00000000000000000, -31.00000000000000000 ) ) ;
#589 = UNCERTAINTY_MEASURE_WITH_UNIT (LENGTH_MEASURE( 1.000000000000000082E-05 ), #219, 'distance_accuracy_value', 'NONE');
#590 = PERSON_AND_ORGANIZATION ( #397, #725 ) ;
#591 = DIRECTION ( 'NONE',  ( 1.000000000000000000, 0.000000000000000000, 0.000000000000000000 ) ) ;
#592 = VECTOR ( 'NONE', #329, 1000.000000000000000 ) ;
#593 = DIRECTION ( 'NONE',  ( 0.000000000000000000, 0.000000000000000000, -1.000000000000000000 ) ) ;
#594 = VECTOR ( 'NONE', #664, 1000.000000000000000 ) ;
#595 = EDGE_CURVE ( 'NONE', #108, #575, #336, .T. ) ;
#596 = CARTESIAN_POINT ( 'NONE',  ( 54.00000000000000711, -22.14918791801598275, -19.77969224512072444 ) ) ;
#597 = DATE_AND_TIME ( #308, #238 ) ;
#598 = CARTESIAN_POINT ( 'NONE',  ( -5.000000000000000000, -1.907364958984029396E-05, 27.59999999999740439 ) ) ;
#599 = CARTESIAN_POINT ( 'NONE',  ( 45.17927496640761831, -29.99999999999999645, -28.00000000000000000 ) ) ;
#600 = EDGE_LOOP ( 'NONE', ( #10, #28, #561, #66 ) ) ;
#601 = AXIS2_PLACEMENT_3D ( 'NONE', #288, #30, #209 ) ;
#602 = ORIENTED_EDGE ( 'NONE', *, *, #429, .T. ) ;
#603 = VERTEX_POINT ( 'NONE', #513 ) ;
#604 = CARTESIAN_POINT ( 'NONE',  ( 47.33848522730882991, -29.50564919554718202, -27.43236171739874152 ) ) ;
#605 = EDGE_CURVE ( 'NONE', #677, #63, #322, .T. ) ;
#606 = CARTESIAN_POINT ( 'NONE',  ( -4.000000000000000000, -21.35786635247384169, -18.89790241950795391 ) ) ;
#607 = CARTESIAN_POINT ( 'NONE',  ( 44.94599999999999795, -29.99999999999999645, -28.00000000000000000 ) ) ;
#608 = ORIENTED_EDGE ( 'NONE', *, *, #719, .T. ) ;
#609 = CARTESIAN_POINT ( 'NONE',  ( 54.00000000000000711, 30.00000000000000000, -28.00000000000000000 ) ) ;
#610 = PRODUCT_DEFINITION_FORMATION_WITH_SPECIFIED_SOURCE ( 'ANY', '', #171, .NOT_KNOWN. ) ;
#611 = CARTESIAN_POINT ( 'NONE',  ( 5.054000000000002935, 25.85590832631919156, -25.64341686920038299 ) ) ;
#612 = EDGE_CURVE ( 'NONE', #731, #541, #356, .T. ) ;
#613 = CARTESIAN_POINT ( 'NONE',  ( -2.500000000000000000, -1.907364959113841600E-05, 16.99999999999740652 ) ) ;
#614 = CARTESIAN_POINT ( 'NONE',  ( -4.000000000000000000, 17.79265775073134037, 5.890750685273308918 ) ) ;
#615 = VERTEX_POINT ( 'NONE', #474 ) ;
#616 = CC_DESIGN_PERSON_AND_ORGANIZATION_ASSIGNMENT ( #590, #720, ( #610 ) ) ;
#617 = B_SPLINE_CURVE_WITH_KNOTS ( 'NONE', 3,
 ( #756, #388, #751, #692, #688, #157 ),
 .UNSPECIFIED., .F., .F.,
 ( 4, 1, 1, 4 ),
 ( 0.04911530758175274014, 0.4280197268307365799, 0.6870180333482881485, 0.8023633474810848432 ),
 .UNSPECIFIED. ) ;
#618 = CARTESIAN_POINT ( 'NONE',  ( -4.000000000000000000, 30.00000000000000000, -31.00000000000000000 ) ) ;
#619 = LINE ( 'NONE', #46, #72 ) ;
#620 = EDGE_LOOP ( 'NONE', ( #3, #498, #127, #391, #680, #79 ) ) ;
#621 = PLANE ( 'NONE',  #452 ) ;
#622 = CARTESIAN_POINT ( 'NONE',  ( 0.03284340629110337612, 26.61180152569801649, -23.65685283044029674 ) ) ;
#623 = DIRECTION ( 'NONE',  ( -0.000000000000000000, -0.000000000000000000, 1.000000000000000000 ) ) ;
#624 = DIRECTION ( 'NONE',  ( -1.000000000000000000, -0.000000000000000000, -0.000000000000000000 ) ) ;
#625 = CARTESIAN_POINT ( 'NONE',  ( 49.00000000000000711, 2.999980926350408694, 16.99999999999740652 ) ) ;
#626 = ORIENTED_EDGE ( 'NONE', *, *, #124, .F. ) ;
#627 = CARTESIAN_POINT ( 'NONE',  ( 4.294213392502321369, -29.96335394762332172, -27.96205957341491199 ) ) ;
#628 = LINE ( 'NONE', #573, #592 ) ;
#629 = DIRECTION ( 'NONE',  ( 1.000000000000000000, -0.000000000000000000, -0.000000000000000000 ) ) ;
#630 = EDGE_LOOP ( 'NONE', ( #372, #42, #553, #485, #472, #712, #582, #755, #501, #425 ) ) ;
#631 = LINE ( 'NONE', #566, #328 ) ;
#632 = CARTESIAN_POINT ( 'NONE',  ( 45.89922834988259126, 29.86722980749431500, -27.92158033141236118 ) ) ;
#633 = CARTESIAN_POINT ( 'NONE',  ( 1.191761061632174545, 28.16439360088967803, -26.25553833855947516 ) ) ;
#634 = EDGE_LOOP ( 'NONE', ( #47, #17, #147, #257 ) ) ;
#635 = AXIS2_PLACEMENT_3D ( 'NONE', #613, #364, #722 ) ;
#636 = ADVANCED_FACE ( 'NONE', ( #417 ), #517, .F. ) ;
#637 = CARTESIAN_POINT ( 'NONE',  ( 1.849227971048617913, -29.10880943403580901, -26.89605570390035183 ) ) ;
#638 = DIRECTION ( 'NONE',  ( 0.000000000000000000, 0.000000000000000000, -1.000000000000000000 ) ) ;
#639 = VECTOR ( 'NONE', #661, 1000.000000000000000 ) ;
#640 = FACE_OUTER_BOUND ( 'NONE', #630, .T. ) ;
#641 = CARTESIAN_POINT ( 'NONE',  ( 50.00000000000000000, -11.46736645749965611, 32.11445063667711963 ) ) ;
#642 = CARTESIAN_POINT ( 'NONE',  ( 47.60920116462737894, 29.04562826295964229, -27.27701380774074025 ) ) ;
#643 = DIRECTION ( 'NONE',  ( 0.000000000000000000, 1.000000000000000000, -0.000000000000000000 ) ) ;
#644 = EDGE_LOOP ( 'NONE', ( #776, #76, #673, #468 ) ) ;
#645 = CARTESIAN_POINT ( 'NONE',  ( 49.84167737158228562, 26.90578208975952990, -24.28935715212025315 ) ) ;
#646 = DIRECTION ( 'NONE',  ( 0.000000000000000000, 0.000000000000000000, 1.000000000000000000 ) ) ;
#647 = EDGE_CURVE ( 'NONE', #277, #185, #93, .T. ) ;
#648 = ORIENTED_EDGE ( 'NONE', *, *, #278, .F. ) ;
#649 = CARTESIAN_POINT ( 'NONE',  ( 49.50435220917947277, 27.43111892611469926, -25.19395327325188205 ) ) ;
#650 = ORIENTED_EDGE ( 'NONE', *, *, #363, .F. ) ;
#651 = CARTESIAN_POINT ( 'NONE',  ( -4.000000000000000000, -30.00000000000000000, -31.00000000000000000 ) ) ;
#652 = DATE_AND_TIME ( #540, #404 ) ;
#653 = LINE ( 'NONE', #598, #477 ) ;
#654 = APPROVAL_DATE_TIME ( #705, #710 ) ;
#655 = CARTESIAN_POINT ( 'NONE',  ( 46.72040456938852060, -29.73236169247369887, -27.70686218938164558 ) ) ;
#656 = FACE_OUTER_BOUND ( 'NONE', #634, .T. ) ;
#657 = ORIENTED_EDGE ( 'NONE', *, *, #605, .T. ) ;
#658 = ADVANCED_FACE ( 'NONE', ( #698 ), #584, .F. ) ;
#659 = CARTESIAN_POINT ( 'NONE',  ( 48.39547239907604848, -28.95760225842830948, -26.68435108612906248 ) ) ;
#660 = AXIS2_PLACEMENT_3D ( 'NONE', #340, #578, #516 ) ;
#661 = DIRECTION ( 'NONE',  ( -1.000000000000000000, -0.000000000000000000, -0.000000000000000000 ) ) ;
#662 = AXIS2_PLACEMENT_3D ( 'NONE', #422, #555, #496 ) ;
#663 = VERTEX_POINT ( 'NONE', #49 ) ;
#664 = DIRECTION ( 'NONE',  ( 0.000000000000000000, 5.503541165414893258E-17, -1.000000000000000000 ) ) ;
#665 = ORIENTED_EDGE ( 'NONE', *, *, #557, .F. ) ;
#666 = ORIENTED_EDGE ( 'NONE', *, *, #595, .T. ) ;
#667 = PLANE ( 'NONE',  #307 ) ;
#668 = CARTESIAN_POINT ( 'NONE',  ( -4.000000000000000000, 17.79265775073134037, 5.890750685273308918 ) ) ;
#669 = B_SPLINE_CURVE_WITH_KNOTS ( 'NONE', 3,
 ( #68, #351, #82, #12, #609 ),
 .UNSPECIFIED., .F., .F.,
 ( 4, 1, 4 ),
 ( 0.4678970806667867022, 0.6870180333482881485, 0.8560394536613387118 ),
 .UNSPECIFIED. ) ;
#670 = EDGE_CURVE ( 'NONE', #129, #441, #631, .T. ) ;
#671 = CARTESIAN_POINT ( 'NONE',  ( 54.00000000000000711, -3.000018792463426731, 40.48141220130467843 ) ) ;
#672 = CARTESIAN_POINT ( 'NONE',  ( -4.000000000000000000, -21.35786635247384169, -18.89790241950795391 ) ) ;
#673 = ORIENTED_EDGE ( 'NONE', *, *, #178, .F. ) ;
#674 = VECTOR ( 'NONE', #232, 1000.000000000000000 ) ;
#675 = CARTESIAN_POINT ( 'NONE',  ( 50.00000000000000711, 8.489121770138318368, 35.47344518441119021 ) ) ;
#676 = CARTESIAN_POINT ( 'NONE',  ( 3.593083986169146371, 29.69595459092955636, -27.81070058630820085 ) ) ;
#677 = VERTEX_POINT ( 'NONE', #290 ) ;
#678 = CARTESIAN_POINT ( 'NONE',  ( 50.00000000000000000, -3.000019073649589529, 40.48011304584252201 ) ) ;
#679 = DIRECTION ( 'NONE',  ( 1.000000000000000000, -0.000000000000000000, -0.000000000000000000 ) ) ;
#680 = ORIENTED_EDGE ( 'NONE', *, *, #89, .F. ) ;
#681 = DIRECTION ( 'NONE',  ( 0.000000000000000000, 0.000000000000000000, 1.000000000000000000 ) ) ;
#682 = CARTESIAN_POINT ( 'NONE',  ( 0.000000000000000000, -1.907364959113841600E-05, 6.399999999997405986 ) ) ;
#683 = EDGE_CURVE ( 'NONE', #210, #731, #116, .T. ) ;
#684 = CARTESIAN_POINT ( 'NONE',  ( 54.00000000000000711, 2.999980926350408694, 16.99999999999740652 ) ) ;
#685 = VERTEX_POINT ( 'NONE', #502 ) ;
#686 = VECTOR ( 'NONE', #283, 1000.000000000000000 ) ;
#687 = VECTOR ( 'NONE', #493, 1000.000000000000000 ) ;
#688 = CARTESIAN_POINT ( 'NONE',  ( 0.000000000000000000, 23.78436985289130590, -17.65983552864207695 ) ) ;
#689 = CARTESIAN_POINT ( 'NONE',  ( 54.00000000000000711, 2.999980926350404697, 40.62811631688761338 ) ) ;
#690 = CARTESIAN_POINT ( 'NONE',  ( 2.675570190651941349, 29.22429235744746023, -27.43905841719822902 ) ) ;
#691 = ORIENTED_EDGE ( 'NONE', *, *, #683, .F. ) ;
#692 = CARTESIAN_POINT ( 'NONE',  ( 0.000000000000000000, 16.38928450501527223, 10.43901726917344419 ) ) ;
#693 = LINE ( 'NONE', #689, #403 ) ;
#694 = CARTESIAN_POINT ( 'NONE',  ( 0.4966126251082674803, 27.45609356251564748, -25.19626512322722078 ) ) ;
#695 = ORIENTED_EDGE ( 'NONE', *, *, #570, .T. ) ;
#696 = ADVANCED_FACE ( 'NONE', ( #454 ), #335, .F. ) ;
#697 = CARTESIAN_POINT ( 'NONE',  ( 4.641991702454417279, -30.00000000000000711, -28.00000000000000000 ) ) ;
#698 = FACE_OUTER_BOUND ( 'NONE', #87, .T. ) ;
#699 = LINE ( 'NONE', #704, #368 ) ;
#700 = APPROVAL_PERSON_ORGANIZATION ( #362, #763, #416 ) ;
#701 = AXIS2_PLACEMENT_3D ( 'NONE', #220, #459, #638 ) ;
#702 = DIRECTION ( 'NONE',  ( 0.000000000000000000, 0.000000000000000000, -1.000000000000000000 ) ) ;
#703 = VECTOR ( 'NONE', #711, 1000.000000000000000 ) ;
#704 = CARTESIAN_POINT ( 'NONE',  ( 54.00000000000000711, 30.00000000000000000, -31.00000000000000000 ) ) ;
#705 = DATE_AND_TIME ( #227, #40 ) ;
#706 = CARTESIAN_POINT ( 'NONE',  ( 47.32653848049825029, 29.22078740913546824, -27.43788361055280944 ) ) ;
#707 = EDGE_CURVE ( 'NONE', #247, #319, #568, .T. ) ;
#708 = DIRECTION ( 'NONE',  ( -0.000000000000000000, -1.000000000000000000, -0.000000000000000000 ) ) ;
#709 = PERSON_AND_ORGANIZATION ( #397, #725 ) ;
#710 = APPROVAL ( #420, 'UNSPECIFIED' ) ;
#711 = DIRECTION ( 'NONE',  ( 1.000000000000000000, -0.000000000000000000, -0.000000000000000000 ) ) ;
#712 = ORIENTED_EDGE ( 'NONE', *, *, #339, .F. ) ;
#713 = APPROVAL_ROLE ( '' ) ;
#714 = ORIENTED_EDGE ( 'NONE', *, *, #373, .T. ) ;
#715 = DIRECTION ( 'NONE',  ( -0.000000000000000000, -0.000000000000000000, 1.000000000000000000 ) ) ;
#716 = PERSON_AND_ORGANIZATION ( #397, #725 ) ;
#717 = B_SPLINE_SURFACE_WITH_KNOTS ( 'NONE', 3, 1, ( 
 ( #735, #491 ),
 ( #126, #428 ),
 ( #374, #426 ),
 ( #16, #727 ),
 ( #545, #133 ) ),
 .UNSPECIFIED., .F., .F., .F.,
 ( 4, 1, 4 ),
 ( 2, 2 ),
 ( 0.4678970806074234101, 0.6870180333482881485, 0.8560394536613387118 ),
 ( 0.000000000000000000, 1.000000000000000000 ),
 .UNSPECIFIED. ) ;
#718 = CARTESIAN_POINT ( 'NONE',  ( 50.00000000000000000, 2.999980926350407806, 42.04251190879218569 ) ) ;
#719 = EDGE_CURVE ( 'NONE', #319, #35, #617, .T. ) ;
#720 = PERSON_AND_ORGANIZATION_ROLE ( 'creator' ) ;
#721 = ORIENTED_EDGE ( 'NONE', *, *, #111, .F. ) ;
#722 = DIRECTION ( 'NONE',  ( 0.000000000000000000, 0.000000000000000000, 1.000000000000000000 ) ) ;
#723 = LINE ( 'NONE', #73, #639 ) ;
#724 = ADVANCED_FACE ( 'NONE', ( #95 ), #349, .F. ) ;
#725 = ORGANIZATION ( 'UNSPECIFIED', 'UNSPECIFIED', '' ) ;
#726 = ORIENTED_EDGE ( 'NONE', *, *, #231, .F. ) ;
#727 = CARTESIAN_POINT ( 'NONE',  ( 44.94600000000000506, 25.85590832631919156, -25.64341686920038299 ) ) ;
#728 = AXIS2_PLACEMENT_3D ( 'NONE', #587, #458, #507 ) ;
#729 = B_SPLINE_CURVE_WITH_KNOTS ( 'NONE', 3,
 ( #261, #672, #379, #614, #324, #558 ),
 .UNSPECIFIED., .F., .F.,
 ( 4, 1, 1, 4 ),
 ( 0.000000000000000000, 0.4280197268307365244, 0.6870180333482881485, 0.8560394536613387118 ),
 .UNSPECIFIED. ) ;
#730 = CARTESIAN_POINT ( 'NONE',  ( 49.00000000000000711, -1.907364959113841600E-05, 16.99999999999740652 ) ) ;
#731 = VERTEX_POINT ( 'NONE', #32 ) ;
#732 = CARTESIAN_POINT ( 'NONE',  ( 54.00000000000000711, -29.99999999999999645, -28.00000000000000000 ) ) ;
#733 = ADVANCED_FACE ( 'NONE', ( #161 ), #279, .F. ) ;
#734 = CARTESIAN_POINT ( 'NONE',  ( 50.00000000000000000, -1.907364959113841600E-05, 16.99999999999740652 ) ) ;
#735 = CARTESIAN_POINT ( 'NONE',  ( 54.00000000000000711, 2.999980922036498576, 40.62811632093865910 ) ) ;
#736 = DIRECTION ( 'NONE',  ( 1.000000000000000000, 0.000000000000000000, 0.000000000000000000 ) ) ;
#737 = ORIENTED_EDGE ( 'NONE', *, *, #67, .F. ) ;
#738 = CARTESIAN_POINT ( 'NONE',  ( 50.00000000000000000, 26.24752494593790786, -23.00000000096333963 ) ) ;
#739 = VECTOR ( 'NONE', #369, 1000.000000000000000 ) ;
#740 = CARTESIAN_POINT ( 'NONE',  ( 5.054000000000002935, 30.00000000000000355, -28.00000000000001421 ) ) ;
#741 = ORIENTED_EDGE ( 'NONE', *, *, #683, .T. ) ;
#742 = ORIENTED_EDGE ( 'NONE', *, *, #80, .F. ) ;
#743 = DIRECTION ( 'NONE',  ( 0.000000000000000000, 0.000000000000000000, 1.000000000000000000 ) ) ;
#744 = LINE ( 'NONE', #271, #580 ) ;
#745 = EDGE_LOOP ( 'NONE', ( #714, #61, #382, #187 ) ) ;
#746 = EDGE_CURVE ( 'NONE', #522, #249, #211, .T. ) ;
#747 = CARTESIAN_POINT ( 'NONE',  ( 0.000000000000000000, 0.000000000000000000, -31.00000000000000000 ) ) ;
#748 = DIRECTION ( 'NONE',  ( 1.000000000000000000, 0.000000000000000000, 0.000000000000000000 ) ) ;
#749 = CYLINDRICAL_SURFACE ( 'NONE', #344, 10.59999999999999964 ) ;
#750 = ORIENTED_EDGE ( 'NONE', *, *, #154, .T. ) ;
#751 = CARTESIAN_POINT ( 'NONE',  ( 0.000000000000000000, -3.304546173255271668, 74.26579482560374856 ) ) ;
#752 = CARTESIAN_POINT ( 'NONE',  ( 54.00000000000000711, 2.999980926350407806, 40.62811631659227629 ) ) ;
#753 = CARTESIAN_POINT ( 'NONE',  ( 1.875668636528029065, 28.70255102656677337, -26.91650327767209561 ) ) ;
#754 = LOCAL_TIME ( 11, 12, 35.00000000000000000, #234 ) ;
#755 = ORIENTED_EDGE ( 'NONE', *, *, #565, .F. ) ;
#756 = CARTESIAN_POINT ( 'NONE',  ( 0.000000000000000000, -26.95565831103987975, -23.00000000934084099 ) ) ;
#757 = CARTESIAN_POINT ( 'NONE',  ( 45.18560024082167104, 30.00000000000000711, -28.00000000000000355 ) ) ;
#758 = EDGE_CURVE ( 'NONE', #445, #603, #24, .T. ) ;
#759 = DIRECTION ( 'NONE',  ( 0.000000000000000000, 0.000000000000000000, -1.000000000000000000 ) ) ;
#760 = ORIENTED_EDGE ( 'NONE', *, *, #402, .T. ) ;
#761 = DIRECTION ( 'NONE',  ( 0.000000000000000000, 0.000000000000000000, 1.000000000000000000 ) ) ;
#762 = LINE ( 'NONE', #530, #480 ) ;
#763 = APPROVAL ( #62, 'UNSPECIFIED' ) ;
#764 = LINE ( 'NONE', #768, #674 ) ;
#765 = AXIS2_PLACEMENT_3D ( 'NONE', #275, #748, #149 ) ;
#766 = DATE_AND_TIME ( #51, #55 ) ;
#767 = AXIS2_PLACEMENT_3D ( 'NONE', #560, #213, #518 ) ;
#768 = CARTESIAN_POINT ( 'NONE',  ( -4.000000000000000000, 30.00000000000000000, -31.00000000000000000 ) ) ;
#769 = DESIGN_CONTEXT ( 'detailed design', #550, 'design' ) ;
#770 = COORDINATED_UNIVERSAL_TIME_OFFSET ( 5, 30, .AHEAD. ) ;
#771 = CARTESIAN_POINT ( 'NONE',  ( 49.35639398828092084, 27.60811297344891813, -25.47417644733544151 ) ) ;
#772 = CARTESIAN_POINT ( 'NONE',  ( 49.00000000000000711, -3.000019073649589529, 40.48011304584252201 ) ) ;
#773 = ORIENTED_EDGE ( 'NONE', *, *, #339, .T. ) ;
#774 = APPROVAL_DATE_TIME ( #766, #763 ) ;
#775 = DIRECTION ( 'NONE',  ( 0.000000000000000000, -7.388054191177636804E-17, -1.000000000000000000 ) ) ;
#776 = ORIENTED_EDGE ( 'NONE', *, *, #707, .F. ) ;
#777 = CARTESIAN_POINT ( 'NONE',  ( 45.00000000000000711, 30.00000000000000000, -28.00000000000000000 ) ) ;
ENDSEC;
END-ISO-10303-21;
