ISO-10303-21;
HEADER;
FILE_DESCRIPTION (( 'STEP AP203' ),
    '1' );
FILE_NAME ('Servo_Mount.STEP',
    '2026-09-20T13:05:29',
    ( '' ),
    ( '' ),
    'SwSTEP 2.0',
    'SolidWorks 2026',
    '' );
FILE_SCHEMA (( 'CONFIG_CONTROL_DESIGN' ));
ENDSEC;

DATA;
#1 = PLANE ( 'NONE',  #745 ) ;
#2 = CARTESIAN_POINT ( 'NONE',  ( 0.000000000000000000, 2.999999999999992450, 0.000000000000000000 ) ) ;
#3 = LINE ( 'NONE', #667, #267 ) ;
#4 = AXIS2_PLACEMENT_3D ( 'NONE', #1067, #411, #1056 ) ;
#5 = EDGE_LOOP ( 'NONE', ( #454, #178, #996, #10, #184 ) ) ;
#6 = CLOSED_SHELL ( 'NONE', ( #254, #117, #323, #674, #470, #791, #915, #87, #66, #420, #311, #913, #690, #50, #392, #1082, #906, #942, #1119, #986, #590, #850, #41, #452, #176, #958, #642, #203, #217, #524, #1133, #74, #330, #782, #363, #831 ) ) ;
#7 = CARTESIAN_POINT ( 'NONE',  ( -22.74999999999999289, 23.00000000000000000, 9.000000000000001776 ) ) ;
#8 = CARTESIAN_POINT ( 'NONE',  ( 22.75000000000000355, 23.00000000000000000, -22.00000000000000711 ) ) ;
#9 = CARTESIAN_POINT ( 'NONE',  ( -20.09999999999999076, 23.00000000000000000, -9.000000000000001776 ) ) ;
#10 = ORIENTED_EDGE ( 'NONE', *, *, #76, .T. ) ;
#11 = CARTESIAN_POINT ( 'NONE',  ( 22.75000000000000355, 23.00000000000000000, -22.00000000000000711 ) ) ;
#12 = VERTEX_POINT ( 'NONE', #535 ) ;
#13 = EDGE_CURVE ( 'NONE', #1171, #451, #60, .T. ) ;
#14 = CARTESIAN_POINT ( 'NONE',  ( 22.85000000000000497, -2.500000000000000888, -1.000000000000000444 ) ) ;
#15 = CARTESIAN_POINT ( 'NONE',  ( -22.74999999999999645, -4.000000000000002665, -9.000000000000001776 ) ) ;
#16 = ORIENTED_EDGE ( 'NONE', *, *, #1163, .F. ) ;
#17 = DIRECTION ( 'NONE',  ( 0.000000000000000000, 0.000000000000000000, -1.000000000000000000 ) ) ;
#18 = DIRECTION ( 'NONE',  ( -1.000000000000000000, 0.000000000000000000, 0.000000000000000000 ) ) ;
#19 = LINE ( 'NONE', #865, #505 ) ;
#20 = VERTEX_POINT ( 'NONE', #714 ) ;
#21 = CARTESIAN_POINT ( 'NONE',  ( 28.75000000000000355, 2.999999999999999112, 6.999999999999998224 ) ) ;
#22 = AXIS2_PLACEMENT_3D ( 'NONE', #359, #614, #995 ) ;
#23 = CARTESIAN_POINT ( 'NONE',  ( 22.85000000000000497, -4.000000000000000000, 9.000000000000001776 ) ) ;
#24 = DIRECTION ( 'NONE',  ( -0.000000000000000000, 1.000000000000000000, 1.301042606982605321E-16 ) ) ;
#25 = ORIENTED_EDGE ( 'NONE', *, *, #780, .F. ) ;
#26 = EDGE_CURVE ( 'NONE', #592, #805, #348, .T. ) ;
#27 = LINE ( 'NONE', #132, #652 ) ;
#28 = DIRECTION ( 'NONE',  ( 0.000000000000000000, -1.000000000000000000, 0.000000000000000000 ) ) ;
#29 = FACE_OUTER_BOUND ( 'NONE', #1077, .T. ) ;
#30 = ORIENTED_EDGE ( 'NONE', *, *, #517, .F. ) ;
#31 = APPROVAL_PERSON_ORGANIZATION ( #536, #205, #630 ) ;
#32 = PLANE ( 'NONE',  #944 ) ;
#33 = EDGE_CURVE ( 'NONE', #1173, #646, #1080, .T. ) ;
#34 = CIRCLE ( 'NONE', #412, 2.200000000000000622 ) ;
#35 = CC_DESIGN_DATE_AND_TIME_ASSIGNMENT ( #908, #611, ( #485 ) ) ;
#36 = DIRECTION ( 'NONE',  ( -0.000000000000000000, 1.084202172485504434E-16, 1.000000000000000000 ) ) ;
#37 = DIRECTION ( 'NONE',  ( 1.000000000000000000, 0.000000000000000000, 0.000000000000000000 ) ) ;
#38 = ORIENTED_EDGE ( 'NONE', *, *, #506, .T. ) ;
#39 = DIRECTION ( 'NONE',  ( -1.000000000000000000, -0.000000000000000000, -0.000000000000000000 ) ) ;
#40 = VECTOR ( 'NONE', #1027, 1000.000000000000000 ) ;
#41 = ADVANCED_FACE ( 'NONE', ( #1152 ), #343, .F. ) ;
#42 = DIRECTION ( 'NONE',  ( 0.000000000000000000, -0.000000000000000000, 1.000000000000000000 ) ) ;
#43 = VECTOR ( 'NONE', #402, 1000.000000000000000 ) ;
#44 = CARTESIAN_POINT ( 'NONE',  ( 22.85000000000000497, -1.000000000000002220, -5.000000000000000000 ) ) ;
#45 = CARTESIAN_POINT ( 'NONE',  ( 22.85000000000000853, 2.999999999999992450, 9.000000000000005329 ) ) ;
#46 = ORIENTED_EDGE ( 'NONE', *, *, #1125, .F. ) ;
#47 = DIRECTION ( 'NONE',  ( -1.000000000000000000, 0.000000000000000000, 0.000000000000000000 ) ) ;
#48 = EDGE_LOOP ( 'NONE', ( #1184, #187 ) ) ;
#49 = ORIENTED_EDGE ( 'NONE', *, *, #175, .T. ) ;
#50 = ADVANCED_FACE ( 'NONE', ( #708 ), #887, .T. ) ;
#51 = CARTESIAN_POINT ( 'NONE',  ( 25.05000000000000426, 8.000000000000000000, 7.000000000000000888 ) ) ;
#52 = ORIENTED_EDGE ( 'NONE', *, *, #625, .F. ) ;
#53 = CIRCLE ( 'NONE', #73, 2.200000000000000622 ) ;
#54 = DIRECTION ( 'NONE',  ( 0.000000000000000000, 0.000000000000000000, 1.000000000000000000 ) ) ;
#55 = EDGE_LOOP ( 'NONE', ( #604, #622, #358, #725, #778 ) ) ;
#56 = PERSON_AND_ORGANIZATION_ROLE ( 'creator' ) ;
#57 = DIRECTION ( 'NONE',  ( -0.000000000000000000, -0.000000000000000000, 1.000000000000000000 ) ) ;
#58 = ORIENTED_EDGE ( 'NONE', *, *, #1020, .F. ) ;
#59 = CARTESIAN_POINT ( 'NONE',  ( -22.74999999999999289, 23.00000000000000000, 9.000000000000001776 ) ) ;
#60 = LINE ( 'NONE', #1167, #927 ) ;
#61 = APPROVAL_STATUS ( 'not_yet_approved' ) ;
#62 = CIRCLE ( 'NONE', #457, 2.750000000000000888 ) ;
#63 = DIRECTION ( 'NONE',  ( -1.000000000000000000, 0.000000000000000000, 0.000000000000000000 ) ) ;
#64 = ORIENTED_EDGE ( 'NONE', *, *, #110, .T. ) ;
#65 = CARTESIAN_POINT ( 'NONE',  ( -22.74999999999999645, -2.500000000000000888, -1.000000000000000444 ) ) ;
#66 = ADVANCED_FACE ( 'NONE', ( #694, #1063 ), #240, .F. ) ;
#67 = DIRECTION ( 'NONE',  ( 0.000000000000000000, 1.000000000000000000, 0.000000000000000000 ) ) ;
#68 = COORDINATED_UNIVERSAL_TIME_OFFSET ( 5, 30, .AHEAD. ) ;
#69 = DIRECTION ( 'NONE',  ( -1.000000000000000000, 0.000000000000000000, 0.000000000000000000 ) ) ;
#70 = ORIENTED_EDGE ( 'NONE', *, *, #679, .F. ) ;
#71 = CARTESIAN_POINT ( 'NONE',  ( 0.000000000000000000, 23.00000000000000000, 0.000000000000000000 ) ) ;
#72 = ORIENTED_EDGE ( 'NONE', *, *, #1020, .T. ) ;
#73 = AXIS2_PLACEMENT_3D ( 'NONE', #280, #98, #474 ) ;
#74 = ADVANCED_FACE ( 'NONE', ( #795 ), #334, .T. ) ;
#75 = DIRECTION ( 'NONE',  ( 0.000000000000000000, 0.000000000000000000, 1.000000000000000000 ) ) ;
#76 = EDGE_CURVE ( 'NONE', #691, #12, #465, .T. ) ;
#77 = DIRECTION ( 'NONE',  ( -1.000000000000000000, 0.000000000000000000, 0.000000000000000000 ) ) ;
#78 = ORIENTED_EDGE ( 'NONE', *, *, #574, .F. ) ;
#79 = CARTESIAN_POINT ( 'NONE',  ( 22.75000000000000355, -2.449293598294706513E-15, -22.00000000000000711 ) ) ;
#80 = ORIENTED_EDGE ( 'NONE', *, *, #1026, .F. ) ;
#81 = PLANE ( 'NONE',  #772 ) ;
#82 = VERTEX_POINT ( 'NONE', #384 ) ;
#83 = VECTOR ( 'NONE', #1097, 1000.000000000000000 ) ;
#84 = CARTESIAN_POINT ( 'NONE',  ( 22.75000000000000355, -2.449293598294706513E-15, -22.00000000000000711 ) ) ;
#85 = ORIENTED_EDGE ( 'NONE', *, *, #229, .F. ) ;
#86 = DIRECTION ( 'NONE',  ( 0.000000000000000000, -1.000000000000000000, 0.000000000000000000 ) ) ;
#87 = ADVANCED_FACE ( 'NONE', ( #103 ), #650, .T. ) ;
#88 = CARTESIAN_POINT ( 'NONE',  ( 22.75000000000000711, 23.00000000000000000, 9.000000000000001776 ) ) ;
#89 = VERTEX_POINT ( 'NONE', #950 ) ;
#90 = FACE_OUTER_BOUND ( 'NONE', #1013, .T. ) ;
#91 = LOCAL_TIME ( 18, 35, 29.00000000000000000, #266 ) ;
#92 = APPLICATION_CONTEXT ( 'configuration controlled 3d designs of mechanical parts and assemblies' ) ;
#93 = LINE ( 'NONE', #929, #279 ) ;
#94 = DIRECTION ( 'NONE',  ( 0.000000000000000000, -1.000000000000000000, 0.000000000000000000 ) ) ;
#95 = EDGE_LOOP ( 'NONE', ( #360, #283 ) ) ;
#96 = CYLINDRICAL_SURFACE ( 'NONE', #305, 2.200000000000000622 ) ;
#97 = EDGE_CURVE ( 'NONE', #815, #893, #1189, .T. ) ;
#98 = DIRECTION ( 'NONE',  ( 0.000000000000000000, 0.000000000000000000, 1.000000000000000000 ) ) ;
#99 = LINE ( 'NONE', #88, #706 ) ;
#100 = VECTOR ( 'NONE', #94, 1000.000000000000000 ) ;
#101 = ORIENTED_EDGE ( 'NONE', *, *, #679, .T. ) ;
#102 = VECTOR ( 'NONE', #192, 1000.000000000000000 ) ;
#103 = FACE_OUTER_BOUND ( 'NONE', #827, .T. ) ;
#104 = EDGE_CURVE ( 'NONE', #660, #969, #115, .T. ) ;
#105 = ORIENTED_EDGE ( 'NONE', *, *, #1074, .F. ) ;
#106 = CARTESIAN_POINT ( 'NONE',  ( -19.74999999999999289, 0.000000000000000000, -22.00000000000000000 ) ) ;
#107 = DIRECTION ( 'NONE',  ( 0.000000000000000000, 0.000000000000000000, 1.000000000000000000 ) ) ;
#108 = ORIENTED_EDGE ( 'NONE', *, *, #506, .F. ) ;
#109 = CARTESIAN_POINT ( 'NONE',  ( 28.75000000000000355, 2.999999999999999112, 6.999999999999998224 ) ) ;
#110 = EDGE_CURVE ( 'NONE', #374, #89, #943, .T. ) ;
#111 = CARTESIAN_POINT ( 'NONE',  ( -9.399999999999996803, 12.92999999999999972, -34.04999999999999716 ) ) ;
#112 = VECTOR ( 'NONE', #226, 1000.000000000000000 ) ;
#113 = CARTESIAN_POINT ( 'NONE',  ( -22.74999999999999645, -2.500000000000000888, 5.000000000000000000 ) ) ;
#114 = EDGE_LOOP ( 'NONE', ( #228, #972 ) ) ;
#115 = LINE ( 'NONE', #477, #1003 ) ;
#116 = CARTESIAN_POINT ( 'NONE',  ( 27.25000000000000355, 18.00000000000000355, 7.000000000000000888 ) ) ;
#117 = ADVANCED_FACE ( 'NONE', ( #843 ), #96, .F. ) ;
#118 = VECTOR ( 'NONE', #458, 1000.000000000000000 ) ;
#119 = LINE ( 'NONE', #1148, #599 ) ;
#120 = ORIENTED_EDGE ( 'NONE', *, *, #824, .F. ) ;
#121 = CARTESIAN_POINT ( 'NONE',  ( 22.75000000000000355, 3.000000000000000000, 9.000000000000001776 ) ) ;
#122 = CIRCLE ( 'NONE', #1000, 20.19352582509083049 ) ;
#123 = AXIS2_PLACEMENT_3D ( 'NONE', #121, #47, #216 ) ;
#124 =( NAMED_UNIT ( * ) PLANE_ANGLE_UNIT ( ) SI_UNIT ( $, .RADIAN. ) );
#125 = EDGE_CURVE ( 'NONE', #1015, #607, #375, .T. ) ;
#126 = CARTESIAN_POINT ( 'NONE',  ( -20.09999999999999076, 2.649999999999992362, 9.000000000000001776 ) ) ;
#127 = EDGE_LOOP ( 'NONE', ( #469, #1142, #1083, #251 ) ) ;
#128 = CARTESIAN_POINT ( 'NONE',  ( 22.85000000000000142, 2.999999999999996447, 8.999999999999998224 ) ) ;
#129 = CARTESIAN_POINT ( 'NONE',  ( 22.75000000000000355, 3.000000000000000000, 9.000000000000001776 ) ) ;
#130 = LINE ( 'NONE', #501, #197 ) ;
#131 = ORIENTED_EDGE ( 'NONE', *, *, #517, .T. ) ;
#132 = CARTESIAN_POINT ( 'NONE',  ( 27.25000000000000355, 8.000000000000000000, 7.000000000000000888 ) ) ;
#133 = EDGE_CURVE ( 'NONE', #12, #635, #849, .T. ) ;
#134 = DIRECTION ( 'NONE',  ( 0.000000000000000000, 0.000000000000000000, -1.000000000000000000 ) ) ;
#135 = LINE ( 'NONE', #775, #618 ) ;
#136 = LINE ( 'NONE', #859, #720 ) ;
#137 = ORIENTED_EDGE ( 'NONE', *, *, #13, .F. ) ;
#138 = FACE_OUTER_BOUND ( 'NONE', #664, .T. ) ;
#139 = ORIENTED_EDGE ( 'NONE', *, *, #166, .F. ) ;
#140 = VECTOR ( 'NONE', #817, 1000.000000000000000 ) ;
#141 = EDGE_CURVE ( 'NONE', #994, #597, #294, .T. ) ;
#142 = AXIS2_PLACEMENT_3D ( 'NONE', #1135, #423, #968 ) ;
#143 = CARTESIAN_POINT ( 'NONE',  ( -19.74999999999999289, 23.00000000000000000, -22.00000000000000000 ) ) ;
#144 = DIRECTION ( 'NONE',  ( 1.000000000000000000, 0.000000000000000000, 0.000000000000000000 ) ) ;
#145 = ORIENTED_EDGE ( 'NONE', *, *, #698, .F. ) ;
#146 = DIRECTION ( 'NONE',  ( 0.000000000000000000, 1.000000000000000000, -0.000000000000000000 ) ) ;
#147 = EDGE_CURVE ( 'NONE', #172, #870, #1040, .T. ) ;
#148 = DIRECTION ( 'NONE',  ( 1.000000000000000000, 0.000000000000000000, -0.000000000000000000 ) ) ;
#149 = DATE_AND_TIME ( #888, #91 ) ;
#150 = CARTESIAN_POINT ( 'NONE',  ( -9.399999999999996803, 12.92999999999999972, -34.04999999999999716 ) ) ;
#151 = ORIENTED_EDGE ( 'NONE', *, *, #750, .T. ) ;
#152 = DIRECTION ( 'NONE',  ( 1.000000000000000000, 0.000000000000000000, 0.000000000000000000 ) ) ;
#153 = VECTOR ( 'NONE', #36, 1000.000000000000000 ) ;
#154 = ORIENTED_EDGE ( 'NONE', *, *, #486, .F. ) ;
#155 = PERSON_AND_ORGANIZATION_ROLE ( 'classification_officer' ) ;
#156 = DIRECTION ( 'NONE',  ( 0.000000000000000000, -1.000000000000000000, 0.000000000000000000 ) ) ;
#157 = ORIENTED_EDGE ( 'NONE', *, *, #166, .T. ) ;
#158 = LINE ( 'NONE', #904, #1052 ) ;
#159 = AXIS2_PLACEMENT_3D ( 'NONE', #508, #496, #500 ) ;
#160 = DIRECTION ( 'NONE',  ( -1.000000000000000000, 0.000000000000000000, -0.000000000000000000 ) ) ;
#161 = PERSON_AND_ORGANIZATION ( #1181, #563 ) ;
#162 = VECTOR ( 'NONE', #841, 1000.000000000000000 ) ;
#163 = AXIS2_PLACEMENT_3D ( 'NONE', #490, #17, #198 ) ;
#164 = CARTESIAN_POINT ( 'NONE',  ( -22.74999999999999645, -2.500000000000000888, 0.9999999999999997780 ) ) ;
#165 = ORIENTED_EDGE ( 'NONE', *, *, #713, .T. ) ;
#166 = EDGE_CURVE ( 'NONE', #931, #1075, #856, .T. ) ;
#167 = LINE ( 'NONE', #826, #844 ) ;
#168 = ORIENTED_EDGE ( 'NONE', *, *, #341, .T. ) ;
#169 = CC_DESIGN_PERSON_AND_ORGANIZATION_ASSIGNMENT ( #695, #247, ( #774 ) ) ;
#170 = COORDINATED_UNIVERSAL_TIME_OFFSET ( 5, 30, .AHEAD. ) ;
#171 = LINE ( 'NONE', #1180, #783 ) ;
#172 = VERTEX_POINT ( 'NONE', #7 ) ;
#173 = CARTESIAN_POINT ( 'NONE',  ( 28.75000000000000355, 23.00000000000000000, 9.000000000000001776 ) ) ;
#174 = ORIENTED_EDGE ( 'NONE', *, *, #1062, .F. ) ;
#175 = EDGE_CURVE ( 'NONE', #82, #364, #1030, .T. ) ;
#176 = ADVANCED_FACE ( 'NONE', ( #1019 ), #300, .F. ) ;
#177 = CARTESIAN_POINT ( 'NONE',  ( 27.25000000000000355, 8.000000000000000000, 7.000000000000000888 ) ) ;
#178 = ORIENTED_EDGE ( 'NONE', *, *, #273, .F. ) ;
#179 = DIRECTION ( 'NONE',  ( 0.000000000000000000, 0.000000000000000000, 1.000000000000000000 ) ) ;
#180 = ORIENTED_EDGE ( 'NONE', *, *, #822, .T. ) ;
#181 = AXIS2_PLACEMENT_3D ( 'NONE', #947, #1113, #751 ) ;
#182 = EDGE_CURVE ( 'NONE', #721, #838, #188, .T. ) ;
#183 = LINE ( 'NONE', #1196, #329 ) ;
#184 = ORIENTED_EDGE ( 'NONE', *, *, #133, .T. ) ;
#185 = AXIS2_PLACEMENT_3D ( 'NONE', #984, #1156, #230 ) ;
#186 = DIRECTION ( 'NONE',  ( 0.000000000000000000, -1.000000000000000000, 0.000000000000000000 ) ) ;
#187 = ORIENTED_EDGE ( 'NONE', *, *, #879, .T. ) ;
#188 = LINE ( 'NONE', #665, #534 ) ;
#189 = LINE ( 'NONE', #830, #561 ) ;
#190 = DIRECTION ( 'NONE',  ( 0.000000000000000000, 0.000000000000000000, -1.000000000000000000 ) ) ;
#191 = EDGE_LOOP ( 'NONE', ( #1198, #1095, #85, #332 ) ) ;
#192 = DIRECTION ( 'NONE',  ( -0.000000000000000000, -0.000000000000000000, -1.000000000000000000 ) ) ;
#193 = LOCAL_TIME ( 18, 35, 29.00000000000000000, #335 ) ;
#194 = CARTESIAN_POINT ( 'NONE',  ( 21.25000000000000355, 2.649999999999992362, 9.000000000000001776 ) ) ;
#195 = CARTESIAN_POINT ( 'NONE',  ( 22.85000000000000497, -4.000000000000000000, 9.000000000000001776 ) ) ;
#196 = ORIENTED_EDGE ( 'NONE', *, *, #270, .F. ) ;
#197 = VECTOR ( 'NONE', #399, 1000.000000000000000 ) ;
#198 = DIRECTION ( 'NONE',  ( -1.000000000000000000, 0.000000000000000000, -0.000000000000000000 ) ) ;
#199 = DIRECTION ( 'NONE',  ( 0.000000000000000000, 0.000000000000000000, -1.000000000000000000 ) ) ;
#200 = CARTESIAN_POINT ( 'NONE',  ( 27.25000000000000355, 18.00000000000000355, 9.000000000000001776 ) ) ;
#201 = VECTOR ( 'NONE', #107, 1000.000000000000000 ) ;
#202 = VERTEX_POINT ( 'NONE', #932 ) ;
#203 = ADVANCED_FACE ( 'NONE', ( #90 ), #1, .T. ) ;
#204 = CARTESIAN_POINT ( 'NONE',  ( -22.74999999999999645, 3.000000000000000000, 9.000000000000001776 ) ) ;
#205 = APPROVAL ( #61, 'UNSPECIFIED' ) ;
#206 = APPLICATION_CONTEXT ( 'configuration controlled 3d designs of mechanical parts and assemblies' ) ;
#207 = CARTESIAN_POINT ( 'NONE',  ( -22.74999999999999645, -1.000000000000002220, -5.000000000000000000 ) ) ;
#208 = CARTESIAN_POINT ( 'NONE',  ( -12.14999999999999680, 12.92999999999999972, -34.04999999999999716 ) ) ;
#209 = ORIENTED_EDGE ( 'NONE', *, *, #376, .T. ) ;
#210 = DIRECTION ( 'NONE',  ( -0.000000000000000000, -0.000000000000000000, 1.000000000000000000 ) ) ;
#211 = EDGE_CURVE ( 'NONE', #277, #601, #926, .T. ) ;
#212 = DIRECTION ( 'NONE',  ( -1.000000000000000000, 0.000000000000000000, 0.000000000000000000 ) ) ;
#213 = VECTOR ( 'NONE', #680, 1000.000000000000000 ) ;
#214 = DIRECTION ( 'NONE',  ( -1.927470528863118802E-16, 0.000000000000000000, -1.000000000000000000 ) ) ;
#215 = VERTEX_POINT ( 'NONE', #471 ) ;
#216 = DIRECTION ( 'NONE',  ( 0.000000000000000000, 0.000000000000000000, 1.000000000000000000 ) ) ;
#217 = ADVANCED_FACE ( 'NONE', ( #1138 ), #885, .T. ) ;
#218 = MANIFOLD_SOLID_BREP ( 'Boss-Extrude27', #6 ) ;
#219 = CARTESIAN_POINT ( 'NONE',  ( 22.85000000000000497, -2.500000000000000888, -5.000000000000000000 ) ) ;
#220 = VECTOR ( 'NONE', #811, 1000.000000000000000 ) ;
#221 = DIRECTION ( 'NONE',  ( -0.000000000000000000, -0.000000000000000000, 1.000000000000000000 ) ) ;
#222 = EDGE_LOOP ( 'NONE', ( #1068, #70, #912, #1101, #168, #672, #555, #405, #416, #732, #456, #755, #1136, #196, #351 ) ) ;
#223 = CARTESIAN_POINT ( 'NONE',  ( -20.09999999999999076, 2.649999999999992362, -19.34999999999999787 ) ) ;
#224 = AXIS2_PLACEMENT_3D ( 'NONE', #797, #63, #443 ) ;
#225 = CIRCLE ( 'NONE', #185, 2.200000000000000622 ) ;
#226 = DIRECTION ( 'NONE',  ( -0.000000000000000000, -0.000000000000000000, 1.000000000000000000 ) ) ;
#227 = LINE ( 'NONE', #1005, #621 ) ;
#228 = ORIENTED_EDGE ( 'NONE', *, *, #1009, .F. ) ;
#229 = EDGE_CURVE ( 'NONE', #597, #395, #581, .T. ) ;
#230 = DIRECTION ( 'NONE',  ( 1.000000000000000000, 0.000000000000000000, 0.000000000000000000 ) ) ;
#231 = ADVANCED_BREP_SHAPE_REPRESENTATION ( 'Servo_Mount', ( #218, #737 ), #990 ) ;
#232 = ORIENTED_EDGE ( 'NONE', *, *, #504, .T. ) ;
#233 = LINE ( 'NONE', #768, #371 ) ;
#234 = AXIS2_PLACEMENT_3D ( 'NONE', #386, #199, #570 ) ;
#235 = CARTESIAN_POINT ( 'NONE',  ( 22.85000000000000853, 3.000000000000000000, -9.014200008959544874 ) ) ;
#236 = ORIENTED_EDGE ( 'NONE', *, *, #757, .F. ) ;
#237 = EDGE_CURVE ( 'NONE', #601, #277, #225, .T. ) ;
#238 = PLANE ( 'NONE',  #123 ) ;
#239 = VERTEX_POINT ( 'NONE', #867 ) ;
#240 = PLANE ( 'NONE',  #246 ) ;
#241 = DIRECTION ( 'NONE',  ( 1.000000000000000000, 0.000000000000000000, 0.000000000000000000 ) ) ;
#242 = ORIENTED_EDGE ( 'NONE', *, *, #1089, .F. ) ;
#243 = CARTESIAN_POINT ( 'NONE',  ( -9.399999999999996803, 12.92999999999999972, -34.04999999999999716 ) ) ;
#244 = AXIS2_PLACEMENT_3D ( 'NONE', #1035, #1086, #284 ) ;
#245 = ORIENTED_EDGE ( 'NONE', *, *, #713, .F. ) ;
#246 = AXIS2_PLACEMENT_3D ( 'NONE', #143, #985, #148 ) ;
#247 = PERSON_AND_ORGANIZATION_ROLE ( 'creator' ) ;
#248 = CARTESIAN_POINT ( 'NONE',  ( 25.05000000000000426, 18.00000000000000355, 7.000000000000000888 ) ) ;
#249 = ORIENTED_EDGE ( 'NONE', *, *, #432, .F. ) ;
#250 = CARTESIAN_POINT ( 'NONE',  ( 28.75000000000000355, 23.00000000000000000, 7.000000000000000888 ) ) ;
#251 = ORIENTED_EDGE ( 'NONE', *, *, #727, .T. ) ;
#252 = ORIENTED_EDGE ( 'NONE', *, *, #651, .F. ) ;
#253 = DATE_AND_TIME ( #447, #956 ) ;
#254 = ADVANCED_FACE ( 'NONE', ( #767 ), #316, .F. ) ;
#255 = LINE ( 'NONE', #448, #140 ) ;
#256 = VERTEX_POINT ( 'NONE', #1150 ) ;
#257 = FACE_OUTER_BOUND ( 'NONE', #275, .T. ) ;
#258 = DIRECTION ( 'NONE',  ( -0.000000000000000000, -0.000000000000000000, 1.000000000000000000 ) ) ;
#259 = APPROVAL_STATUS ( 'not_yet_approved' ) ;
#260 = EDGE_CURVE ( 'NONE', #728, #805, #62, .T. ) ;
#261 = AXIS2_PLACEMENT_3D ( 'NONE', #724, #917, #77 ) ;
#262 = FACE_OUTER_BOUND ( 'NONE', #433, .T. ) ;
#263 = ORIENTED_EDGE ( 'NONE', *, *, #76, .F. ) ;
#264 = CARTESIAN_POINT ( 'NONE',  ( 22.85000000000000497, -2.500000000000000888, 0.9999999999999997780 ) ) ;
#265 = CC_DESIGN_PERSON_AND_ORGANIZATION_ASSIGNMENT ( #602, #155, ( #485 ) ) ;
#266 = COORDINATED_UNIVERSAL_TIME_OFFSET ( 5, 30, .AHEAD. ) ;
#267 = VECTOR ( 'NONE', #752, 1000.000000000000000 ) ;
#268 = DIRECTION ( 'NONE',  ( 0.000000000000000000, 0.000000000000000000, 1.000000000000000000 ) ) ;
#269 = EDGE_LOOP ( 'NONE', ( #78, #249, #613, #319 ) ) ;
#270 = EDGE_CURVE ( 'NONE', #446, #812, #692, .T. ) ;
#271 = FACE_OUTER_BOUND ( 'NONE', #5, .T. ) ;
#272 = ORIENTED_EDGE ( 'NONE', *, *, #340, .T. ) ;
#273 = EDGE_CURVE ( 'NONE', #1173, #697, #593, .T. ) ;
#274 = DIRECTION ( 'NONE',  ( -0.000000000000000000, -1.000000000000000000, -0.000000000000000000 ) ) ;
#275 = EDGE_LOOP ( 'NONE', ( #572, #30, #1151, #120, #787, #108, #701, #949, #151, #410 ) ) ;
#276 = CARTESIAN_POINT ( 'NONE',  ( -20.09999999999999076, 2.649999999999992362, -19.34999999999999787 ) ) ;
#277 = VERTEX_POINT ( 'NONE', #417 ) ;
#278 = EDGE_CURVE ( 'NONE', #1049, #1028, #27, .T. ) ;
#279 = VECTOR ( 'NONE', #467, 1000.000000000000000 ) ;
#280 = CARTESIAN_POINT ( 'NONE',  ( 25.05000000000000426, 8.000000000000000000, 9.000000000000001776 ) ) ;
#281 = EDGE_LOOP ( 'NONE', ( #1071, #1093, #1132, #459 ) ) ;
#282 = CARTESIAN_POINT ( 'NONE',  ( -22.74999999999999645, -4.000000000000000888, -1.000000000000000888 ) ) ;
#283 = ORIENTED_EDGE ( 'NONE', *, *, #211, .F. ) ;
#284 = DIRECTION ( 'NONE',  ( 0.000000000000000000, 0.000000000000000000, 1.000000000000000000 ) ) ;
#285 = LINE ( 'NONE', #380, #953 ) ;
#286 = VECTOR ( 'NONE', #1007, 1000.000000000000000 ) ;
#287 = DIRECTION ( 'NONE',  ( 0.000000000000000000, -0.000000000000000000, 1.000000000000000000 ) ) ;
#288 = ORIENTED_EDGE ( 'NONE', *, *, #104, .T. ) ;
#289 = DIRECTION ( 'NONE',  ( 1.000000000000000000, 0.000000000000000000, -0.000000000000000000 ) ) ;
#290 = DESIGN_CONTEXT ( 'detailed design', #206, 'design' ) ;
#291 = LINE ( 'NONE', #645, #700 ) ;
#292 = FACE_OUTER_BOUND ( 'NONE', #1055, .T. ) ;
#293 = ORIENTED_EDGE ( 'NONE', *, *, #13, .T. ) ;
#294 = LINE ( 'NONE', #669, #1146 ) ;
#295 = FACE_OUTER_BOUND ( 'NONE', #900, .T. ) ;
#296 = EDGE_CURVE ( 'NONE', #239, #1162, #321, .T. ) ;
#297 = CARTESIAN_POINT ( 'NONE',  ( -22.74999999999999289, 23.00000000000000000, -22.00000000000000000 ) ) ;
#298 = ORIENTED_EDGE ( 'NONE', *, *, #125, .F. ) ;
#299 = VECTOR ( 'NONE', #308, 1000.000000000000000 ) ;
#300 = PLANE ( 'NONE',  #244 ) ;
#301 = CARTESIAN_POINT ( 'NONE',  ( 22.85000000000000142, 8.000000000000000000, 9.000000000000001776 ) ) ;
#302 = LINE ( 'NONE', #460, #361 ) ;
#303 = CIRCLE ( 'NONE', #473, 2.750000000000000888 ) ;
#304 = ORIENTED_EDGE ( 'NONE', *, *, #658, .F. ) ;
#305 = AXIS2_PLACEMENT_3D ( 'NONE', #760, #568, #1123 ) ;
#306 = DIRECTION ( 'NONE',  ( -1.000000000000000000, -0.000000000000000000, -0.000000000000000000 ) ) ;
#307 = LINE ( 'NONE', #1042, #408 ) ;
#308 = DIRECTION ( 'NONE',  ( -1.000000000000000000, 0.000000000000000000, 0.000000000000000000 ) ) ;
#309 = ORIENTED_EDGE ( 'NONE', *, *, #413, .T. ) ;
#310 = CARTESIAN_POINT ( 'NONE',  ( 25.05000000000000426, 8.000000000000000000, 7.000000000000000888 ) ) ;
#311 = ADVANCED_FACE ( 'NONE', ( #138 ), #238, .F. ) ;
#312 = DIRECTION ( 'NONE',  ( 0.000000000000000000, 0.000000000000000000, -1.000000000000000000 ) ) ;
#313 = VECTOR ( 'NONE', #763, 1000.000000000000000 ) ;
#314 = CARTESIAN_POINT ( 'NONE',  ( 22.85000000000000497, -4.000000000000000888, 1.000000000000000000 ) ) ;
#315 = ORIENTED_EDGE ( 'NONE', *, *, #1199, .T. ) ;
#316 = CYLINDRICAL_SURFACE ( 'NONE', #862, 2.200000000000000622 ) ;
#317 = LINE ( 'NONE', #219, #466 ) ;
#318 = CARTESIAN_POINT ( 'NONE',  ( 22.85000000000000497, -4.000000000000000888, -1.000000000000000888 ) ) ;
#319 = ORIENTED_EDGE ( 'NONE', *, *, #480, .T. ) ;
#320 = DIRECTION ( 'NONE',  ( 0.000000000000000000, -1.000000000000000000, 2.168404344971008621E-16 ) ) ;
#321 = CIRCLE ( 'NONE', #1144, 2.200000000000000622 ) ;
#322 = FACE_OUTER_BOUND ( 'NONE', #902, .T. ) ;
#323 = ADVANCED_FACE ( 'NONE', ( #598 ), #426, .T. ) ;
#324 = DIRECTION ( 'NONE',  ( 0.000000000000000000, 0.000000000000000000, 1.000000000000000000 ) ) ;
#325 = EDGE_LOOP ( 'NONE', ( #513, #1103, #479, #736, #288, #502 ) ) ;
#326 = DIRECTION ( 'NONE',  ( -0.000000000000000000, 2.168404344971008868E-16, 1.000000000000000000 ) ) ;
#327 = VERTEX_POINT ( 'NONE', #976 ) ;
#328 = APPLICATION_PROTOCOL_DEFINITION ( 'international standard', 'config_control_design', 1994, #92 ) ;
#329 = VECTOR ( 'NONE', #552, 1000.000000000000000 ) ;
#330 = ADVANCED_FACE ( 'NONE', ( #503 ), #511, .T. ) ;
#331 = DIRECTION ( 'NONE',  ( 0.000000000000000000, -2.891205793294678326E-16, 1.000000000000000000 ) ) ;
#332 = ORIENTED_EDGE ( 'NONE', *, *, #141, .F. ) ;
#333 = DIRECTION ( 'NONE',  ( -1.000000000000000000, 0.000000000000000000, 0.000000000000000000 ) ) ;
#334 = PLANE ( 'NONE',  #608 ) ;
#335 = COORDINATED_UNIVERSAL_TIME_OFFSET ( 5, 30, .AHEAD. ) ;
#336 = DIRECTION ( 'NONE',  ( 0.000000000000000000, 0.000000000000000000, -1.000000000000000000 ) ) ;
#337 = VERTEX_POINT ( 'NONE', #406 ) ;
#338 = LINE ( 'NONE', #173, #342 ) ;
#339 = EDGE_LOOP ( 'NONE', ( #1157, #961, #610, #174 ) ) ;
#340 = EDGE_CURVE ( 'NONE', #461, #975, #1134, .T. ) ;
#341 = EDGE_CURVE ( 'NONE', #668, #655, #1046, .T. ) ;
#342 = VECTOR ( 'NONE', #919, 1000.000000000000000 ) ;
#343 = PLANE ( 'NONE',  #514 ) ;
#344 = LINE ( 'NONE', #710, #220 ) ;
#345 = ORIENTED_EDGE ( 'NONE', *, *, #133, .F. ) ;
#346 = DIRECTION ( 'NONE',  ( -0.000000000000000000, -0.000000000000000000, -1.000000000000000000 ) ) ;
#347 = EDGE_CURVE ( 'NONE', #994, #660, #1050, .T. ) ;
#348 = LINE ( 'NONE', #978, #685 ) ;
#349 = DIRECTION ( 'NONE',  ( 1.000000000000000000, 0.000000000000000000, 0.000000000000000000 ) ) ;
#350 = DIRECTION ( 'NONE',  ( -1.000000000000000000, 0.000000000000000000, 0.000000000000000000 ) ) ;
#351 = ORIENTED_EDGE ( 'NONE', *, *, #1185, .F. ) ;
#352 = LINE ( 'NONE', #59, #551 ) ;
#353 = VECTOR ( 'NONE', #414, 1000.000000000000000 ) ;
#354 = ORIENTED_EDGE ( 'NONE', *, *, #951, .F. ) ;
#355 = APPLICATION_PROTOCOL_DEFINITION ( 'international standard', 'config_control_design', 1994, #206 ) ;
#356 = AXIS2_PLACEMENT_3D ( 'NONE', #492, #324, #241 ) ;
#357 = DIRECTION ( 'NONE',  ( 0.000000000000000000, 0.000000000000000000, 1.000000000000000000 ) ) ;
#358 = ORIENTED_EDGE ( 'NONE', *, *, #633, .F. ) ;
#359 = CARTESIAN_POINT ( 'NONE',  ( -22.74999999999999645, 3.000000000000000000, 9.000000000000001776 ) ) ;
#360 = ORIENTED_EDGE ( 'NONE', *, *, #237, .F. ) ;
#361 = VECTOR ( 'NONE', #1193, 1000.000000000000000 ) ;
#362 = DIRECTION ( 'NONE',  ( -0.000000000000000000, -0.000000000000000000, -1.000000000000000000 ) ) ;
#363 = ADVANCED_FACE ( 'NONE', ( #871 ), #32, .T. ) ;
#364 = VERTEX_POINT ( 'NONE', #264 ) ;
#365 = PLANE ( 'NONE',  #418 ) ;
#366 = ORIENTED_EDGE ( 'NONE', *, *, #546, .F. ) ;
#367 = DIRECTION ( 'NONE',  ( 1.000000000000000000, -0.000000000000000000, -0.000000000000000000 ) ) ;
#368 = ORIENTED_EDGE ( 'NONE', *, *, #1105, .T. ) ;
#369 = CARTESIAN_POINT ( 'NONE',  ( 22.85000000000000497, -4.000000000000000000, 9.000000000000001776 ) ) ;
#370 = EDGE_LOOP ( 'NONE', ( #105, #427, #886, #1090 ) ) ;
#371 = VECTOR ( 'NONE', #1037, 1000.000000000000000 ) ;
#372 = CARTESIAN_POINT ( 'NONE',  ( -19.74999999999999289, 0.000000000000000000, -22.00000000000000000 ) ) ;
#373 = CARTESIAN_POINT ( 'NONE',  ( 22.85000000000000497, -4.000000000000000888, -1.000000000000000888 ) ) ;
#374 = VERTEX_POINT ( 'NONE', #65 ) ;
#375 = LINE ( 'NONE', #11, #43 ) ;
#376 = EDGE_CURVE ( 'NONE', #668, #12, #158, .T. ) ;
#377 = VECTOR ( 'NONE', #557, 1000.000000000000000 ) ;
#378 = AXIS2_PLACEMENT_3D ( 'NONE', #248, #981, #144 ) ;
#379 = VECTOR ( 'NONE', #659, 1000.000000000000000 ) ;
#380 = CARTESIAN_POINT ( 'NONE',  ( -19.74999999999999289, 23.00000000000000000, -19.34999999999999787 ) ) ;
#381 = AXIS2_PLACEMENT_3D ( 'NONE', #647, #1115, #1197 ) ;
#382 = LINE ( 'NONE', #747, #40 ) ;
#383 = EDGE_LOOP ( 'NONE', ( #918, #759, #848, #580 ) ) ;
#384 = CARTESIAN_POINT ( 'NONE',  ( 22.85000000000000497, -2.500000000000000888, 5.000000000000000000 ) ) ;
#385 = EDGE_CURVE ( 'NONE', #607, #327, #819, .T. ) ;
#386 = CARTESIAN_POINT ( 'NONE',  ( -9.399999999999996803, 12.92999999999999972, -34.04999999999999716 ) ) ;
#387 = DIRECTION ( 'NONE',  ( 0.000000000000000000, -1.000000000000000000, 1.084202172485504311E-16 ) ) ;
#388 = ORIENTED_EDGE ( 'NONE', *, *, #945, .T. ) ;
#389 = CARTESIAN_POINT ( 'NONE',  ( 22.85000000000000497, -2.500000000000000888, -5.000000000000000000 ) ) ;
#390 = ORIENTED_EDGE ( 'NONE', *, *, #574, .T. ) ;
#391 = LINE ( 'NONE', #756, #914 ) ;
#392 = ADVANCED_FACE ( 'NONE', ( #807, #1092, #271 ), #634, .F. ) ;
#393 = EDGE_CURVE ( 'NONE', #975, #1192, #528, .T. ) ;
#394 = CARTESIAN_POINT ( 'NONE',  ( 19.96100640936368720, 3.000000000000000000, -29.00000000000000000 ) ) ;
#395 = VERTEX_POINT ( 'NONE', #733 ) ;
#396 = DIRECTION ( 'NONE',  ( 0.000000000000000000, 0.000000000000000000, -1.000000000000000000 ) ) ;
#397 = CARTESIAN_POINT ( 'NONE',  ( 22.85000000000000497, 0.000000000000000000, -9.000000000000001776 ) ) ;
#398 = EDGE_CURVE ( 'NONE', #691, #1173, #1177, .T. ) ;
#399 = DIRECTION ( 'NONE',  ( -0.000000000000000000, 1.000000000000000000, -0.000000000000000000 ) ) ;
#400 = VECTOR ( 'NONE', #326, 1000.000000000000000 ) ;
#401 = ORIENTED_EDGE ( 'NONE', *, *, #141, .T. ) ;
#402 = DIRECTION ( 'NONE',  ( 0.000000000000000000, -1.000000000000000000, 0.000000000000000000 ) ) ;
#403 = FACE_OUTER_BOUND ( 'NONE', #616, .T. ) ;
#404 = FACE_OUTER_BOUND ( 'NONE', #191, .T. ) ;
#405 = ORIENTED_EDGE ( 'NONE', *, *, #175, .F. ) ;
#406 = CARTESIAN_POINT ( 'NONE',  ( -22.74999999999999645, 0.000000000000000000, -9.000000000000001776 ) ) ;
#407 = CARTESIAN_POINT ( 'NONE',  ( 22.85000000000000142, 18.00000000000000355, 7.000000000000000888 ) ) ;
#408 = VECTOR ( 'NONE', #212, 1000.000000000000000 ) ;
#409 = DIRECTION ( 'NONE',  ( 1.927470528863118802E-16, 0.000000000000000000, 1.000000000000000000 ) ) ;
#410 = ORIENTED_EDGE ( 'NONE', *, *, #504, .F. ) ;
#411 = DIRECTION ( 'NONE',  ( 0.000000000000000000, 1.000000000000000000, -0.000000000000000000 ) ) ;
#412 = AXIS2_PLACEMENT_3D ( 'NONE', #1054, #1141, #37 ) ;
#413 = EDGE_CURVE ( 'NONE', #646, #1044, #338, .T. ) ;
#414 = DIRECTION ( 'NONE',  ( -1.000000000000000000, 1.224646799147353207E-16, -0.000000000000000000 ) ) ;
#415 = PLANE ( 'NONE',  #1129 ) ;
#416 = ORIENTED_EDGE ( 'NONE', *, *, #977, .F. ) ;
#417 = CARTESIAN_POINT ( 'NONE',  ( 22.85000000000000142, 18.00000000000000355, 9.000000000000001776 ) ) ;
#418 = AXIS2_PLACEMENT_3D ( 'NONE', #276, #1172, #1012 ) ;
#419 = VECTOR ( 'NONE', #306, 1000.000000000000000 ) ;
#420 = ADVANCED_FACE ( 'NONE', ( #440 ), #455, .T. ) ;
#421 = ORIENTED_EDGE ( 'NONE', *, *, #600, .T. ) ;
#422 = DIRECTION ( 'NONE',  ( -1.000000000000000000, 0.000000000000000000, 0.000000000000000000 ) ) ;
#423 = DIRECTION ( 'NONE',  ( 1.224646799147353454E-16, 1.000000000000000000, 0.000000000000000000 ) ) ;
#424 = CC_DESIGN_DATE_AND_TIME_ASSIGNMENT ( #149, #894, ( #853 ) ) ;
#425 = EDGE_LOOP ( 'NONE', ( #877, #157, #677, #802 ) ) ;
#426 = CYLINDRICAL_SURFACE ( 'NONE', #1018, 2.750000000000000000 ) ;
#427 = ORIENTED_EDGE ( 'NONE', *, *, #723, .F. ) ;
#428 = PRODUCT_DEFINITION_SHAPE ( 'NONE', 'NONE',  #853 ) ;
#429 = ORIENTED_EDGE ( 'NONE', *, *, #814, .T. ) ;
#430 = FACE_OUTER_BOUND ( 'NONE', #567, .T. ) ;
#431 = CC_DESIGN_APPROVAL ( #1029, ( #485 ) ) ;
#432 = EDGE_CURVE ( 'NONE', #812, #464, #1002, .T. ) ;
#433 = EDGE_LOOP ( 'NONE', ( #1149, #543, #1008, #401 ) ) ;
#434 = LINE ( 'NONE', #799, #1001 ) ;
#435 = ORIENTED_EDGE ( 'NONE', *, *, #970, .F. ) ;
#436 = APPROVAL_ROLE ( '' ) ;
#437 = DIRECTION ( 'NONE',  ( 1.000000000000000000, 0.000000000000000000, 0.000000000000000000 ) ) ;
#438 = ORIENTED_EDGE ( 'NONE', *, *, #432, .T. ) ;
#439 = EDGE_CURVE ( 'NONE', #20, #975, #167, .T. ) ;
#440 = FACE_OUTER_BOUND ( 'NONE', #553, .T. ) ;
#441 = AXIS2_PLACEMENT_3D ( 'NONE', #726, #179, #152 ) ;
#442 = DIRECTION ( 'NONE',  ( 0.000000000000000000, 1.301042606982605321E-16, 1.000000000000000000 ) ) ;
#443 = DIRECTION ( 'NONE',  ( 0.000000000000000000, 0.000000000000000000, 1.000000000000000000 ) ) ;
#444 = ORIENTED_EDGE ( 'NONE', *, *, #229, .T. ) ;
#445 = DIRECTION ( 'NONE',  ( 1.000000000000000000, 0.000000000000000000, 0.000000000000000000 ) ) ;
#446 = VERTEX_POINT ( 'NONE', #719 ) ;
#447 = CALENDAR_DATE ( 2026, 20, 9 ) ;
#448 = CARTESIAN_POINT ( 'NONE',  ( -22.74999999999999645, -2.500000000000000888, 5.000000000000000000 ) ) ;
#449 = ORIENTED_EDGE ( 'NONE', *, *, #1009, .T. ) ;
#450 = FACE_BOUND ( 'NONE', #114, .T. ) ;
#451 = VERTEX_POINT ( 'NONE', #549 ) ;
#452 = ADVANCED_FACE ( 'NONE', ( #1188 ), #365, .F. ) ;
#453 = CARTESIAN_POINT ( 'NONE',  ( -22.74999999999999645, 2.999999999999996447, 9.000000000000001776 ) ) ;
#454 = ORIENTED_EDGE ( 'NONE', *, *, #780, .T. ) ;
#455 = PLANE ( 'NONE',  #493 ) ;
#456 = ORIENTED_EDGE ( 'NONE', *, *, #1145, .F. ) ;
#457 = AXIS2_PLACEMENT_3D ( 'NONE', #515, #495, #333 ) ;
#458 = DIRECTION ( 'NONE',  ( -0.000000000000000000, 1.000000000000000000, -0.000000000000000000 ) ) ;
#459 = ORIENTED_EDGE ( 'NONE', *, *, #898, .F. ) ;
#460 = CARTESIAN_POINT ( 'NONE',  ( 22.85000000000000497, -1.000000000000002220, -5.000000000000000000 ) ) ;
#461 = VERTEX_POINT ( 'NONE', #539 ) ;
#462 = CYLINDRICAL_SURFACE ( 'NONE', #181, 2.200000000000000622 ) ;
#463 = DIRECTION ( 'NONE',  ( -1.000000000000000000, 0.000000000000000000, 0.000000000000000000 ) ) ;
#464 = VERTEX_POINT ( 'NONE', #640 ) ;
#465 = LINE ( 'NONE', #21, #419 ) ;
#466 = VECTOR ( 'NONE', #1053, 1000.000000000000000 ) ;
#467 = DIRECTION ( 'NONE',  ( 0.000000000000000000, 0.000000000000000000, -1.000000000000000000 ) ) ;
#468 = CARTESIAN_POINT ( 'NONE',  ( 22.85000000000000497, -4.000000000000000000, 9.000000000000001776 ) ) ;
#469 = ORIENTED_EDGE ( 'NONE', *, *, #858, .F. ) ;
#470 = ADVANCED_FACE ( 'NONE', ( #450, #1078, #257 ), #924, .F. ) ;
#471 = CARTESIAN_POINT ( 'NONE',  ( 21.25000000000001421, 23.00000000000000000, -19.34999999999999787 ) ) ;
#472 = CC_DESIGN_PERSON_AND_ORGANIZATION_ASSIGNMENT ( #803, #796, ( #774 ) ) ;
#473 = AXIS2_PLACEMENT_3D ( 'NONE', #899, #533, #1164 ) ;
#474 = DIRECTION ( 'NONE',  ( 1.000000000000000000, 0.000000000000000000, 0.000000000000000000 ) ) ;
#475 = FACE_OUTER_BOUND ( 'NONE', #127, .T. ) ;
#476 = ORIENTED_EDGE ( 'NONE', *, *, #773, .T. ) ;
#477 = CARTESIAN_POINT ( 'NONE',  ( -20.09999999999999076, 2.649999999999992362, 9.000000000000001776 ) ) ;
#478 = EDGE_CURVE ( 'NONE', #1075, #1028, #1169, .T. ) ;
#479 = ORIENTED_EDGE ( 'NONE', *, *, #992, .T. ) ;
#480 = EDGE_CURVE ( 'NONE', #1039, #374, #434, .T. ) ;
#481 = CARTESIAN_POINT ( 'NONE',  ( -22.74999999999999289, 0.000000000000000000, -22.00000000000000000 ) ) ;
#482 = DIRECTION ( 'NONE',  ( -0.000000000000000000, -0.000000000000000000, 1.000000000000000000 ) ) ;
#483 = ORIENTED_EDGE ( 'NONE', *, *, #644, .F. ) ;
#484 = DIRECTION ( 'NONE',  ( -1.000000000000000000, -0.000000000000000000, -0.000000000000000000 ) ) ;
#485 = SECURITY_CLASSIFICATION ( '', '', #709 ) ;
#486 = EDGE_CURVE ( 'NONE', #805, #728, #303, .T. ) ;
#487 = CARTESIAN_POINT ( 'NONE',  ( 28.75000000000000355, 23.00000000000000000, 7.000000000000000888 ) ) ;
#488 = LINE ( 'NONE', #869, #938 ) ;
#489 = ORIENTED_EDGE ( 'NONE', *, *, #546, .T. ) ;
#490 = CARTESIAN_POINT ( 'NONE',  ( -9.399999999999996803, 12.92999999999999972, -34.04999999999999716 ) ) ;
#491 =( LENGTH_UNIT ( ) NAMED_UNIT ( * ) SI_UNIT ( .MILLI., .METRE. ) );
#492 = CARTESIAN_POINT ( 'NONE',  ( 25.05000000000000426, 18.00000000000000355, 7.000000000000000888 ) ) ;
#493 = AXIS2_PLACEMENT_3D ( 'NONE', #71, #989, #627 ) ;
#494 = ORIENTED_EDGE ( 'NONE', *, *, #270, .T. ) ;
#495 = DIRECTION ( 'NONE',  ( 0.000000000000000000, 0.000000000000000000, -1.000000000000000000 ) ) ;
#496 = DIRECTION ( 'NONE',  ( 1.000000000000000000, 0.000000000000000000, 0.000000000000000000 ) ) ;
#497 = LINE ( 'NONE', #235, #980 ) ;
#498 = ORIENTED_EDGE ( 'NONE', *, *, #864, .F. ) ;
#499 = DIRECTION ( 'NONE',  ( -0.000000000000000000, -0.000000000000000000, 1.000000000000000000 ) ) ;
#500 = DIRECTION ( 'NONE',  ( 0.000000000000000000, 0.000000000000000000, -1.000000000000000000 ) ) ;
#501 = CARTESIAN_POINT ( 'NONE',  ( -20.09999999999999076, 2.999999999999992450, 9.000000000000001776 ) ) ;
#502 = ORIENTED_EDGE ( 'NONE', *, *, #740, .F. ) ;
#503 = FACE_OUTER_BOUND ( 'NONE', #560, .T. ) ;
#504 = EDGE_CURVE ( 'NONE', #172, #202, #352, .T. ) ;
#505 = VECTOR ( 'NONE', #24, 1000.000000000000000 ) ;
#506 = EDGE_CURVE ( 'NONE', #256, #646, #99, .T. ) ;
#507 = ORIENTED_EDGE ( 'NONE', *, *, #921, .F. ) ;
#508 = CARTESIAN_POINT ( 'NONE',  ( 28.75000000000000355, 0.000000000000000000, 0.000000000000000000 ) ) ;
#509 = DIRECTION ( 'NONE',  ( 0.000000000000000000, 0.000000000000000000, -1.000000000000000000 ) ) ;
#510 = ORIENTED_EDGE ( 'NONE', *, *, #951, .T. ) ;
#511 = PLANE ( 'NONE',  #682 ) ;
#512 = VECTOR ( 'NONE', #854, 1000.000000000000000 ) ;
#513 = ORIENTED_EDGE ( 'NONE', *, *, #393, .F. ) ;
#514 = AXIS2_PLACEMENT_3D ( 'NONE', #594, #134, #160 ) ;
#515 = CARTESIAN_POINT ( 'NONE',  ( -9.399999999999996803, 12.92999999999999972, -22.00000000000000000 ) ) ;
#516 = PERSON_AND_ORGANIZATION ( #1181, #563 ) ;
#517 = EDGE_CURVE ( 'NONE', #655, #870, #1022, .T. ) ;
#518 = LINE ( 'NONE', #895, #681 ) ;
#519 = ORIENTED_EDGE ( 'NONE', *, *, #1034, .T. ) ;
#520 = DIRECTION ( 'NONE',  ( -0.000000000000000000, -0.000000000000000000, 1.000000000000000000 ) ) ;
#521 = PRODUCT ( 'Servo_Mount', 'Servo_Mount', '', ( #1087 ) ) ;
#522 = CARTESIAN_POINT ( 'NONE',  ( 28.75000000000000355, 23.00000000000000000, 9.000000000000001776 ) ) ;
#523 = CALENDAR_DATE ( 2026, 20, 9 ) ;
#524 = ADVANCED_FACE ( 'NONE', ( #475 ), #940, .T. ) ;
#525 = PLANE ( 'NONE',  #261 ) ;
#526 = AXIS2_PLACEMENT_3D ( 'NONE', #575, #28, #1147 ) ;
#527 = VERTEX_POINT ( 'NONE', #15 ) ;
#528 = LINE ( 'NONE', #620, #286 ) ;
#529 = ORIENTED_EDGE ( 'NONE', *, *, #182, .T. ) ;
#530 = COORDINATED_UNIVERSAL_TIME_OFFSET ( 5, 30, .AHEAD. ) ;
#531 = PLANE ( 'NONE',  #224 ) ;
#532 = ORIENTED_EDGE ( 'NONE', *, *, #1105, .F. ) ;
#533 = DIRECTION ( 'NONE',  ( 0.000000000000000000, 0.000000000000000000, -1.000000000000000000 ) ) ;
#534 = VECTOR ( 'NONE', #556, 1000.000000000000000 ) ;
#535 = CARTESIAN_POINT ( 'NONE',  ( 22.85000000000000853, 2.999999999999992450, 6.999999999999971578 ) ) ;
#536 = PERSON_AND_ORGANIZATION ( #1181, #563 ) ;
#537 = CARTESIAN_POINT ( 'NONE',  ( -20.09999999999999076, 2.999999999999992450, -9.000000000000001776 ) ) ;
#538 = ORIENTED_EDGE ( 'NONE', *, *, #658, .T. ) ;
#539 = CARTESIAN_POINT ( 'NONE',  ( -22.74999999999999289, 2.649999999999992362, -9.000000000000001776 ) ) ;
#540 = ORIENTED_EDGE ( 'NONE', *, *, #633, .T. ) ;
#541 = EDGE_CURVE ( 'NONE', #812, #1039, #576, .T. ) ;
#542 = CARTESIAN_POINT ( 'NONE',  ( 22.75000000000000000, 3.000000000000000000, -9.000000000000001776 ) ) ;
#543 = ORIENTED_EDGE ( 'NONE', *, *, #750, .F. ) ;
#544 = DIRECTION ( 'NONE',  ( 0.000000000000000000, -1.301042606982605321E-16, 1.000000000000000000 ) ) ;
#545 = ORIENTED_EDGE ( 'NONE', *, *, #872, .T. ) ;
#546 = EDGE_CURVE ( 'NONE', #1015, #834, #935, .T. ) ;
#547 = LINE ( 'NONE', #372, #353 ) ;
#548 = ORIENTED_EDGE ( 'NONE', *, *, #26, .F. ) ;
#549 = CARTESIAN_POINT ( 'NONE',  ( -22.74999999999999645, -1.000000000000000888, 5.000000000000000000 ) ) ;
#550 = ORIENTED_EDGE ( 'NONE', *, *, #1199, .F. ) ;
#551 = VECTOR ( 'NONE', #445, 1000.000000000000000 ) ;
#552 = DIRECTION ( 'NONE',  ( 0.000000000000000000, -1.000000000000000000, 0.000000000000000000 ) ) ;
#553 = EDGE_LOOP ( 'NONE', ( #58, #165, #38, #988, #1122, #1006, #489, #1116 ) ) ;
#554 = DIRECTION ( 'NONE',  ( 1.000000000000000000, -0.000000000000000000, 1.156482317317870344E-15 ) ) ;
#555 = ORIENTED_EDGE ( 'NONE', *, *, #945, .F. ) ;
#556 = DIRECTION ( 'NONE',  ( -0.000000000000000000, -0.000000000000000000, -1.000000000000000000 ) ) ;
#557 = DIRECTION ( 'NONE',  ( -0.000000000000000000, -0.000000000000000000, -1.000000000000000000 ) ) ;
#558 = EDGE_CURVE ( 'NONE', #910, #999, #1121, .T. ) ;
#559 = LINE ( 'NONE', #282, #162 ) ;
#560 = EDGE_LOOP ( 'NONE', ( #1109, #1073, #1060, #180 ) ) ;
#561 = VECTOR ( 'NONE', #367, 1000.000000000000000 ) ;
#562 = DIRECTION ( 'NONE',  ( 0.000000000000000000, 0.000000000000000000, 1.000000000000000000 ) ) ;
#563 = ORGANIZATION ( 'UNSPECIFIED', 'UNSPECIFIED', '' ) ;
#564 = CARTESIAN_POINT ( 'NONE',  ( -22.74999999999999289, 2.649999999999992362, -19.34999999999999787 ) ) ;
#565 = VECTOR ( 'NONE', #998, 1000.000000000000000 ) ;
#566 = CARTESIAN_POINT ( 'NONE',  ( 22.85000000000000497, -4.000000000000002665, -9.000000000000001776 ) ) ;
#567 = EDGE_LOOP ( 'NONE', ( #925, #519, #748, #390, #64, #649, #293, #991, #529, #538, #545, #753, #52, #1023, #272, #832, #770, #946 ) ) ;
#568 = DIRECTION ( 'NONE',  ( -0.000000000000000000, -0.000000000000000000, 1.000000000000000000 ) ) ;
#569 = VECTOR ( 'NONE', #482, 1000.000000000000000 ) ;
#570 = DIRECTION ( 'NONE',  ( -1.000000000000000000, 0.000000000000000000, 0.000000000000000000 ) ) ;
#571 = LINE ( 'NONE', #948, #201 ) ;
#572 = ORIENTED_EDGE ( 'NONE', *, *, #147, .T. ) ;
#573 = DIRECTION ( 'NONE',  ( -0.000000000000000000, -0.000000000000000000, -1.000000000000000000 ) ) ;
#574 = EDGE_CURVE ( 'NONE', #464, #374, #559, .T. ) ;
#575 = CARTESIAN_POINT ( 'NONE',  ( 62.75000000000000000, 3.000000000000000000, 9.000000000000001776 ) ) ;
#576 = LINE ( 'NONE', #373, #379 ) ;
#577 = ORIENTED_EDGE ( 'NONE', *, *, #398, .T. ) ;
#578 = DIRECTION ( 'NONE',  ( 0.000000000000000000, -0.000000000000000000, 1.000000000000000000 ) ) ;
#579 = CARTESIAN_POINT ( 'NONE',  ( 22.75000000000000711, 23.00000000000000000, 6.999999999999999112 ) ) ;
#580 = ORIENTED_EDGE ( 'NONE', *, *, #651, .T. ) ;
#581 = LINE ( 'NONE', #788, #606 ) ;
#582 = DIRECTION ( 'NONE',  ( 0.000000000000000000, -1.301042606982605074E-16, -1.000000000000000000 ) ) ;
#583 = EDGE_CURVE ( 'NONE', #446, #527, #742, .T. ) ;
#584 = VECTOR ( 'NONE', #1094, 1000.000000000000000 ) ;
#585 = CARTESIAN_POINT ( 'NONE',  ( 22.85000000000000497, -4.000000000000000888, -1.000000000000000888 ) ) ;
#586 = VECTOR ( 'NONE', #678, 1000.000000000000000 ) ;
#587 = VERTEX_POINT ( 'NONE', #837 ) ;
#588 = DIRECTION ( 'NONE',  ( -0.000000000000000000, -0.000000000000000000, 1.000000000000000000 ) ) ;
#589 = LINE ( 'NONE', #1124, #1195 ) ;
#590 = ADVANCED_FACE ( 'NONE', ( #1016 ), #1126, .F. ) ;
#591 = CARTESIAN_POINT ( 'NONE',  ( -22.74999999999999645, -4.000000000000000888, 1.000000000000000000 ) ) ;
#592 = VERTEX_POINT ( 'NONE', #930 ) ;
#593 = LINE ( 'NONE', #963, #1069 ) ;
#594 = CARTESIAN_POINT ( 'NONE',  ( -19.74999999999999289, 2.999999999999992450, -19.34999999999999787 ) ) ;
#595 = DIRECTION ( 'NONE',  ( -0.000000000000000000, -0.000000000000000000, 1.000000000000000000 ) ) ;
#596 = CARTESIAN_POINT ( 'NONE',  ( 21.25000000000000355, 2.649999999999992362, -19.34999999999999787 ) ) ;
#597 = VERTEX_POINT ( 'NONE', #9 ) ;
#598 = FACE_OUTER_BOUND ( 'NONE', #809, .T. ) ;
#599 = VECTOR ( 'NONE', #676, 1000.000000000000000 ) ;
#600 = EDGE_CURVE ( 'NONE', #766, #728, #654, .T. ) ;
#601 = VERTEX_POINT ( 'NONE', #200 ) ;
#602 = PERSON_AND_ORGANIZATION ( #1181, #563 ) ;
#603 = CYLINDRICAL_SURFACE ( 'NONE', #378, 2.200000000000000622 ) ;
#604 = ORIENTED_EDGE ( 'NONE', *, *, #1034, .F. ) ;
#605 = DIRECTION ( 'NONE',  ( -0.000000000000000000, -0.000000000000000000, 1.000000000000000000 ) ) ;
#606 = VECTOR ( 'NONE', #39, 1000.000000000000000 ) ;
#607 = VERTEX_POINT ( 'NONE', #84 ) ;
#608 = AXIS2_PLACEMENT_3D ( 'NONE', #389, #578, #289 ) ;
#609 = EDGE_CURVE ( 'NONE', #834, #1033, #1032, .T. ) ;
#610 = ORIENTED_EDGE ( 'NONE', *, *, #928, .T. ) ;
#611 = DATE_TIME_ROLE ( 'classification_date' ) ;
#612 = FACE_OUTER_BOUND ( 'NONE', #1187, .T. ) ;
#613 = ORIENTED_EDGE ( 'NONE', *, *, #541, .T. ) ;
#614 = DIRECTION ( 'NONE',  ( 0.000000000000000000, 0.000000000000000000, -1.000000000000000000 ) ) ;
#615 = EDGE_LOOP ( 'NONE', ( #72, #686, #855, #1190 ) ) ;
#616 = EDGE_LOOP ( 'NONE', ( #345, #890, #703, #368 ) ) ;
#617 = DIRECTION ( 'NONE',  ( -0.000000000000000000, 1.084202172485504434E-16, 1.000000000000000000 ) ) ;
#618 = VECTOR ( 'NONE', #18, 1000.000000000000000 ) ;
#619 = ORIENTED_EDGE ( 'NONE', *, *, #864, .T. ) ;
#620 = CARTESIAN_POINT ( 'NONE',  ( -20.09999999999999076, 2.649999999999992362, -19.34999999999999787 ) ) ;
#621 = VECTOR ( 'NONE', #1088, 1000.000000000000000 ) ;
#622 = ORIENTED_EDGE ( 'NONE', *, *, #903, .F. ) ;
#623 = CARTESIAN_POINT ( 'NONE',  ( 0.000000000000000000, 0.000000000000000000, 0.000000000000000000 ) ) ;
#624 = LINE ( 'NONE', #453, #565 ) ;
#625 = EDGE_CURVE ( 'NONE', #395, #172, #3, .T. ) ;
#626 = ORIENTED_EDGE ( 'NONE', *, *, #773, .F. ) ;
#627 = DIRECTION ( 'NONE',  ( 0.000000000000000000, -0.000000000000000000, 1.000000000000000000 ) ) ;
#628 = VECTOR ( 'NONE', #463, 1000.000000000000000 ) ;
#629 = VECTOR ( 'NONE', #484, 1000.000000000000000 ) ;
#630 = APPROVAL_ROLE ( '' ) ;
#631 = DIRECTION ( 'NONE',  ( 1.000000000000000000, 0.000000000000000000, 0.000000000000000000 ) ) ;
#632 = ORIENTED_EDGE ( 'NONE', *, *, #260, .T. ) ;
#633 = EDGE_CURVE ( 'NONE', #999, #327, #382, .T. ) ;
#634 = PLANE ( 'NONE',  #808 ) ;
#635 = VERTEX_POINT ( 'NONE', #847 ) ;
#636 = CC_DESIGN_PERSON_AND_ORGANIZATION_ASSIGNMENT ( #161, #56, ( #853 ) ) ;
#637 = CARTESIAN_POINT ( 'NONE',  ( 21.25000000000001421, 2.999999999999992450, -19.34999999999999787 ) ) ;
#638 = ORIENTED_EDGE ( 'NONE', *, *, #609, .F. ) ;
#639 = APPROVAL_PERSON_ORGANIZATION ( #516, #1029, #436 ) ;
#640 = CARTESIAN_POINT ( 'NONE',  ( -22.74999999999999645, -4.000000000000000888, -1.000000000000000888 ) ) ;
#641 = ORIENTED_EDGE ( 'NONE', *, *, #1112, .T. ) ;
#642 = ADVANCED_FACE ( 'NONE', ( #292 ), #758, .T. ) ;
#643 = VECTOR ( 'NONE', #595, 1000.000000000000000 ) ;
#644 = EDGE_CURVE ( 'NONE', #597, #202, #571, .T. ) ;
#645 = CARTESIAN_POINT ( 'NONE',  ( 22.85000000000000497, -4.000000000000000888, 1.000000000000000000 ) ) ;
#646 = VERTEX_POINT ( 'NONE', #1102 ) ;
#647 = CARTESIAN_POINT ( 'NONE',  ( 22.85000000000000497, -2.500000000000000888, 5.000000000000000000 ) ) ;
#648 = AXIS2_PLACEMENT_3D ( 'NONE', #2, #86, #846 ) ;
#649 = ORIENTED_EDGE ( 'NONE', *, *, #1096, .T. ) ;
#650 = PLANE ( 'NONE',  #163 ) ;
#651 = EDGE_CURVE ( 'NONE', #587, #1171, #302, .T. ) ;
#652 = VECTOR ( 'NONE', #520, 1000.000000000000000 ) ;
#653 = CARTESIAN_POINT ( 'NONE',  ( -22.74999999999999645, 0.000000000000000000, -9.000000000000001776 ) ) ;
#654 = LINE ( 'NONE', #208, #569 ) ;
#655 = VERTEX_POINT ( 'NONE', #369 ) ;
#656 = DIRECTION ( 'NONE',  ( 0.000000000000000000, 1.000000000000000000, -1.445602896647339163E-16 ) ) ;
#657 = LINE ( 'NONE', #637, #118 ) ;
#658 = EDGE_CURVE ( 'NONE', #838, #1098, #738, .T. ) ;
#659 = DIRECTION ( 'NONE',  ( 0.000000000000000000, 1.000000000000000000, 2.891205793294678326E-16 ) ) ;
#660 = VERTEX_POINT ( 'NONE', #126 ) ;
#661 = DIRECTION ( 'NONE',  ( -0.000000000000000000, 1.000000000000000000, -0.000000000000000000 ) ) ;
#662 = DIRECTION ( 'NONE',  ( -0.000000000000000000, -1.000000000000000000, 1.445602896647339163E-16 ) ) ;
#663 = DIRECTION ( 'NONE',  ( 0.000000000000000000, -1.084202172485504311E-16, -1.000000000000000000 ) ) ;
#664 = EDGE_LOOP ( 'NONE', ( #532, #793, #842, #298, #145, #25 ) ) ;
#665 = CARTESIAN_POINT ( 'NONE',  ( -22.74999999999999645, -2.500000000000000888, 0.9999999999999997780 ) ) ;
#666 = PLANE ( 'NONE',  #717 ) ;
#667 = CARTESIAN_POINT ( 'NONE',  ( -22.74999999999999645, 23.00000000000000000, -9.000000000000001776 ) ) ;
#668 = VERTEX_POINT ( 'NONE', #45 ) ;
#669 = CARTESIAN_POINT ( 'NONE',  ( -20.09999999999999076, 2.999999999999992450, -9.000000000000001776 ) ) ;
#670 = PLANE ( 'NONE',  #159 ) ;
#671 = DIRECTION ( 'NONE',  ( -0.000000000000000000, -1.000000000000000000, 1.445602896647339163E-16 ) ) ;
#672 = ORIENTED_EDGE ( 'NONE', *, *, #1112, .F. ) ;
#673 = CARTESIAN_POINT ( 'NONE',  ( -22.74999999999999289, 2.649999999999992362, -9.000000000000001776 ) ) ;
#674 = ADVANCED_FACE ( 'NONE', ( #964 ), #1043, .F. ) ;
#675 = LINE ( 'NONE', #407, #643 ) ;
#676 = DIRECTION ( 'NONE',  ( -1.927470528863118802E-16, -0.000000000000000000, -1.000000000000000000 ) ) ;
#677 = ORIENTED_EDGE ( 'NONE', *, *, #478, .T. ) ;
#678 = DIRECTION ( 'NONE',  ( -0.000000000000000000, -1.000000000000000000, 0.000000000000000000 ) ) ;
#679 = EDGE_CURVE ( 'NONE', #815, #910, #497, .T. ) ;
#680 = DIRECTION ( 'NONE',  ( 0.000000000000000000, -1.000000000000000000, 0.000000000000000000 ) ) ;
#681 = VECTOR ( 'NONE', #362, 1000.000000000000000 ) ;
#682 = AXIS2_PLACEMENT_3D ( 'NONE', #794, #146, #54 ) ;
#683 = DIRECTION ( 'NONE',  ( 0.000000000000000000, 0.000000000000000000, -1.000000000000000000 ) ) ;
#684 = APPROVAL ( #259, 'UNSPECIFIED' ) ;
#685 = VECTOR ( 'NONE', #880, 1000.000000000000000 ) ;
#686 = ORIENTED_EDGE ( 'NONE', *, *, #439, .T. ) ;
#687 = DIRECTION ( 'NONE',  ( 0.000000000000000000, -2.168404344971008621E-16, -1.000000000000000000 ) ) ;
#688 = DIRECTION ( 'NONE',  ( 0.000000000000000000, -1.000000000000000000, 1.301042606982605074E-16 ) ) ;
#689 = LINE ( 'NONE', #1059, #299 ) ;
#690 = ADVANCED_FACE ( 'NONE', ( #29 ), #415, .F. ) ;
#691 = VERTEX_POINT ( 'NONE', #875 ) ;
#692 = LINE ( 'NONE', #779, #400 ) ;
#693 = CIRCLE ( 'NONE', #234, 2.750000000000000888 ) ;
#694 = FACE_BOUND ( 'NONE', #1011, .T. ) ;
#695 = PERSON_AND_ORGANIZATION ( #1181, #563 ) ;
#696 = DIRECTION ( 'NONE',  ( 0.000000000000000000, -1.000000000000000000, -2.891205793294678326E-16 ) ) ;
#697 = VERTEX_POINT ( 'NONE', #579 ) ;
#698 = EDGE_CURVE ( 'NONE', #697, #1015, #119, .T. ) ;
#699 = DIRECTION ( 'NONE',  ( 1.000000000000000000, 0.000000000000000000, 0.000000000000000000 ) ) ;
#700 = VECTOR ( 'NONE', #662, 1000.000000000000000 ) ;
#701 = ORIENTED_EDGE ( 'NONE', *, *, #1125, .T. ) ;
#702 = DIRECTION ( 'NONE',  ( -0.000000000000000000, -0.000000000000000000, 1.000000000000000000 ) ) ;
#703 = ORIENTED_EDGE ( 'NONE', *, *, #97, .T. ) ;
#704 = AXIS2_PLACEMENT_3D ( 'NONE', #537, #69, #357 ) ;
#705 = DIRECTION ( 'NONE',  ( -1.000000000000000000, 0.000000000000000000, 0.000000000000000000 ) ) ;
#706 = VECTOR ( 'NONE', #554, 1000.000000000000000 ) ;
#707 = ORIENTED_EDGE ( 'NONE', *, *, #583, .F. ) ;
#708 = FACE_OUTER_BOUND ( 'NONE', #897, .T. ) ;
#709 = SECURITY_CLASSIFICATION_LEVEL ( 'unclassified' ) ;
#710 = CARTESIAN_POINT ( 'NONE',  ( -22.74999999999999645, -4.000000000000000888, -1.000000000000000888 ) ) ;
#711 = EDGE_LOOP ( 'NONE', ( #309, #476, #577, #1178 ) ) ;
#712 = DIRECTION ( 'NONE',  ( -1.000000000000000000, 0.000000000000000000, 0.000000000000000000 ) ) ;
#713 = EDGE_CURVE ( 'NONE', #215, #256, #488, .T. ) ;
#714 = CARTESIAN_POINT ( 'NONE',  ( -22.74999999999999289, 23.00000000000000000, -19.34999999999999787 ) ) ;
#715 = CALENDAR_DATE ( 2026, 20, 9 ) ;
#716 = FACE_OUTER_BOUND ( 'NONE', #55, .T. ) ;
#717 = AXIS2_PLACEMENT_3D ( 'NONE', #44, #688, #582 ) ;
#718 = ORIENTED_EDGE ( 'NONE', *, *, #740, .T. ) ;
#719 = CARTESIAN_POINT ( 'NONE',  ( 22.85000000000000497, -4.000000000000002665, -9.000000000000001776 ) ) ;
#720 = VECTOR ( 'NONE', #509, 1000.000000000000000 ) ;
#721 = VERTEX_POINT ( 'NONE', #113 ) ;
#722 = SHAPE_DEFINITION_REPRESENTATION ( #428, #231 ) ;
#723 = EDGE_CURVE ( 'NONE', #1162, #239, #1139, .T. ) ;
#724 = CARTESIAN_POINT ( 'NONE',  ( 22.85000000000000497, 0.000000000000000000, -9.000000000000001776 ) ) ;
#725 = ORIENTED_EDGE ( 'NONE', *, *, #1185, .T. ) ;
#726 = CARTESIAN_POINT ( 'NONE',  ( 25.05000000000000426, 8.000000000000000000, 9.000000000000001776 ) ) ;
#727 = EDGE_CURVE ( 'NONE', #82, #721, #689, .T. ) ;
#728 = VERTEX_POINT ( 'NONE', #960 ) ;
#729 = AXIS2_PLACEMENT_3D ( 'NONE', #195, #387, #663 ) ;
#730 = VECTOR ( 'NONE', #210, 1000.000000000000000 ) ;
#731 = LINE ( 'NONE', #1161, #1108 ) ;
#732 = ORIENTED_EDGE ( 'NONE', *, *, #814, .F. ) ;
#733 = CARTESIAN_POINT ( 'NONE',  ( -22.74999999999999645, 23.00000000000000000, -9.000000000000001776 ) ) ;
#734 = ORIENTED_EDGE ( 'NONE', *, *, #278, .T. ) ;
#735 = CARTESIAN_POINT ( 'NONE',  ( -20.09999999999999076, 2.649999999999992362, -9.000000000000005329 ) ) ;
#736 = ORIENTED_EDGE ( 'NONE', *, *, #347, .T. ) ;
#737 = AXIS2_PLACEMENT_3D ( 'NONE', #623, #75, #349 ) ;
#738 = LINE ( 'NONE', #591, #1036 ) ;
#739 = ORIENTED_EDGE ( 'NONE', *, *, #727, .F. ) ;
#740 = EDGE_CURVE ( 'NONE', #1192, #969, #776, .T. ) ;
#741 = LINE ( 'NONE', #840, #1166 ) ;
#742 = LINE ( 'NONE', #566, #628 ) ;
#743 = EDGE_LOOP ( 'NONE', ( #923, #739, #49, #315 ) ) ;
#744 = CARTESIAN_POINT ( 'NONE',  ( 22.85000000000000497, -4.000000000000000888, 1.000000000000000000 ) ) ;
#745 = AXIS2_PLACEMENT_3D ( 'NONE', #744, #1111, #656 ) ;
#746 = DIRECTION ( 'NONE',  ( 1.224646799147353454E-16, 1.000000000000000000, 0.000000000000000000 ) ) ;
#747 = CARTESIAN_POINT ( 'NONE',  ( 22.85000000000000497, 0.000000000000000000, -9.000000000000001776 ) ) ;
#748 = ORIENTED_EDGE ( 'NONE', *, *, #921, .T. ) ;
#749 = DIRECTION ( 'NONE',  ( -0.000000000000000000, -1.000000000000000000, -0.000000000000000000 ) ) ;
#750 = EDGE_CURVE ( 'NONE', #660, #202, #130, .T. ) ;
#751 = DIRECTION ( 'NONE',  ( 1.000000000000000000, 0.000000000000000000, 0.000000000000000000 ) ) ;
#752 = DIRECTION ( 'NONE',  ( 1.927470528863118802E-16, 0.000000000000000000, 1.000000000000000000 ) ) ;
#753 = ORIENTED_EDGE ( 'NONE', *, *, #147, .F. ) ;
#754 = DIRECTION ( 'NONE',  ( 1.000000000000000000, 0.000000000000000000, 0.000000000000000000 ) ) ;
#755 = ORIENTED_EDGE ( 'NONE', *, *, #1104, .F. ) ;
#756 = CARTESIAN_POINT ( 'NONE',  ( -22.74999999999999645, 3.000000000000000000, -9.000000000000001776 ) ) ;
#757 = EDGE_CURVE ( 'NONE', #1049, #931, #34, .T. ) ;
#758 = PLANE ( 'NONE',  #729 ) ;
#759 = ORIENTED_EDGE ( 'NONE', *, *, #822, .F. ) ;
#760 = CARTESIAN_POINT ( 'NONE',  ( 25.05000000000000426, 18.00000000000000355, 7.000000000000000888 ) ) ;
#761 = CIRCLE ( 'NONE', #806, 2.200000000000000622 ) ;
#762 = VECTOR ( 'NONE', #712, 1000.000000000000000 ) ;
#763 = DIRECTION ( 'NONE',  ( 0.000000000000000000, -1.000000000000000000, 0.000000000000000000 ) ) ;
#764 = AXIS2_PLACEMENT_3D ( 'NONE', #907, #67, #42 ) ;
#765 = FACE_OUTER_BOUND ( 'NONE', #269, .T. ) ;
#766 = VERTEX_POINT ( 'NONE', #974 ) ;
#767 = FACE_OUTER_BOUND ( 'NONE', #425, .T. ) ;
#768 = CARTESIAN_POINT ( 'NONE',  ( 22.85000000000000497, -2.500000000000000888, -5.000000000000000000 ) ) ;
#769 = PLANE ( 'NONE',  #1084 ) ;
#770 = ORIENTED_EDGE ( 'NONE', *, *, #1058, .T. ) ;
#771 = DIRECTION ( 'NONE',  ( 0.000000000000000000, 0.000000000000000000, -1.000000000000000000 ) ) ;
#772 = AXIS2_PLACEMENT_3D ( 'NONE', #106, #746, #939 ) ;
#773 = EDGE_CURVE ( 'NONE', #1044, #691, #136, .T. ) ;
#774 = PRODUCT_DEFINITION_FORMATION_WITH_SPECIFIED_SOURCE ( 'ANY', '', #521, .NOT_KNOWN. ) ;
#775 = CARTESIAN_POINT ( 'NONE',  ( 22.85000000000000497, -1.000000000000000888, 5.000000000000000000 ) ) ;
#776 = LINE ( 'NONE', #596, #876 ) ;
#777 = VECTOR ( 'NONE', #350, 1000.000000000000000 ) ;
#778 = ORIENTED_EDGE ( 'NONE', *, *, #583, .T. ) ;
#779 = CARTESIAN_POINT ( 'NONE',  ( 22.85000000000000497, -4.000000000000000888, -1.000000000000000888 ) ) ;
#780 = EDGE_CURVE ( 'NONE', #635, #697, #19, .T. ) ;
#781 = LINE ( 'NONE', #129, #112 ) ;
#782 = ADVANCED_FACE ( 'NONE', ( #765 ), #883, .T. ) ;
#783 = VECTOR ( 'NONE', #617, 1000.000000000000000 ) ;
#784 = AXIS2_PLACEMENT_3D ( 'NONE', #394, #186, #190 ) ;
#785 = DIRECTION ( 'NONE',  ( 0.000000000000000000, -1.000000000000000000, 0.000000000000000000 ) ) ;
#786 = VECTOR ( 'NONE', #749, 1000.000000000000000 ) ;
#787 = ORIENTED_EDGE ( 'NONE', *, *, #413, .F. ) ;
#788 = CARTESIAN_POINT ( 'NONE',  ( -22.74999999999999645, 23.00000000000000000, -9.000000000000001776 ) ) ;
#789 = VERTEX_POINT ( 'NONE', #314 ) ;
#790 = APPROVAL_DATE_TIME ( #1174, #205 ) ;
#791 = ADVANCED_FACE ( 'NONE', ( #404 ), #769, .T. ) ;
#792 = CARTESIAN_POINT ( 'NONE',  ( 21.25000000000000000, 23.00000000000000000, -9.000000000000001776 ) ) ;
#793 = ORIENTED_EDGE ( 'NONE', *, *, #1089, .T. ) ;
#794 = CARTESIAN_POINT ( 'NONE',  ( 22.85000000000000497, -2.500000000000000888, -5.000000000000000000 ) ) ;
#795 = FACE_OUTER_BOUND ( 'NONE', #383, .T. ) ;
#796 = PERSON_AND_ORGANIZATION_ROLE ( 'design_supplier' ) ;
#797 = CARTESIAN_POINT ( 'NONE',  ( -22.74999999999999645, 3.000000000000000000, 9.000000000000001776 ) ) ;
#798 = VERTEX_POINT ( 'NONE', #1131 ) ;
#799 = CARTESIAN_POINT ( 'NONE',  ( 22.85000000000000497, -2.500000000000000888, -1.000000000000000444 ) ) ;
#800 = ORIENTED_EDGE ( 'NONE', *, *, #1062, .T. ) ;
#801 = VECTOR ( 'NONE', #1191, 1000.000000000000000 ) ;
#802 = ORIENTED_EDGE ( 'NONE', *, *, #278, .F. ) ;
#803 = PERSON_AND_ORGANIZATION ( #1181, #563 ) ;
#804 = CARTESIAN_POINT ( 'NONE',  ( 22.85000000000000853, 2.999999999999992450, -9.014200008959548427 ) ) ;
#805 = VERTEX_POINT ( 'NONE', #1048 ) ;
#806 = AXIS2_PLACEMENT_3D ( 'NONE', #51, #268, #631 ) ;
#807 = FACE_BOUND ( 'NONE', #48, .T. ) ;
#808 = AXIS2_PLACEMENT_3D ( 'NONE', #250, #544, #1072 ) ;
#809 = EDGE_LOOP ( 'NONE', ( #80, #421, #632, #548 ) ) ;
#810 = PERSON_AND_ORGANIZATION_ROLE ( 'design_owner' ) ;
#811 = DIRECTION ( 'NONE',  ( -0.000000000000000000, 2.168404344971008868E-16, 1.000000000000000000 ) ) ;
#812 = VERTEX_POINT ( 'NONE', #585 ) ;
#813 = DIRECTION ( 'NONE',  ( -0.000000000000000000, -0.000000000000000000, 1.000000000000000000 ) ) ;
#814 = EDGE_CURVE ( 'NONE', #587, #920, #227, .T. ) ;
#815 = VERTEX_POINT ( 'NONE', #804 ) ;
#816 = PRODUCT_RELATED_PRODUCT_CATEGORY ( 'detail', '', ( #521 ) ) ;
#817 = DIRECTION ( 'NONE',  ( -0.000000000000000000, -1.000000000000000000, -0.000000000000000000 ) ) ;
#818 = ORIENTED_EDGE ( 'NONE', *, *, #625, .T. ) ;
#819 = LINE ( 'NONE', #79, #828 ) ;
#820 = ORIENTED_EDGE ( 'NONE', *, *, #97, .F. ) ;
#821 = AXIS2_PLACEMENT_3D ( 'NONE', #318, #331, #696 ) ;
#822 = EDGE_CURVE ( 'NONE', #798, #89, #909, .T. ) ;
#823 = CARTESIAN_POINT ( 'NONE',  ( -22.74999999999999289, 23.00000000000000000, -22.00000000000000000 ) ) ;
#824 = EDGE_CURVE ( 'NONE', #1044, #668, #624, .T. ) ;
#825 = ORIENTED_EDGE ( 'NONE', *, *, #486, .T. ) ;
#826 = CARTESIAN_POINT ( 'NONE',  ( -22.74999999999999289, 23.00000000000000000, -19.34999999999999787 ) ) ;
#827 = EDGE_LOOP ( 'NONE', ( #1127, #941 ) ) ;
#828 = VECTOR ( 'NONE', #813, 1000.000000000000000 ) ;
#829 = VECTOR ( 'NONE', #258, 1000.000000000000000 ) ;
#830 = CARTESIAN_POINT ( 'NONE',  ( -22.74999999999999289, 2.649999999999992362, -9.000000000000001776 ) ) ;
#831 = ADVANCED_FACE ( 'NONE', ( #716 ), #525, .T. ) ;
#832 = ORIENTED_EDGE ( 'NONE', *, *, #439, .F. ) ;
#833 = CARTESIAN_POINT ( 'NONE',  ( 22.85000000000000497, -5.216995364367725831E-15, -22.00000000000000000 ) ) ;
#834 = VERTEX_POINT ( 'NONE', #823 ) ;
#835 = LINE ( 'NONE', #1025, #801 ) ;
#836 = LOCAL_TIME ( 18, 35, 29.00000000000000000, #170 ) ;
#837 = CARTESIAN_POINT ( 'NONE',  ( 22.85000000000000497, -1.000000000000002220, -5.000000000000000000 ) ) ;
#838 = VERTEX_POINT ( 'NONE', #164 ) ;
#839 = CARTESIAN_POINT ( 'NONE',  ( -22.74999999999999645, -2.500000000000000888, -5.000000000000000000 ) ) ;
#840 = CARTESIAN_POINT ( 'NONE',  ( 22.85000000000000497, -4.000000000000000888, 1.000000000000000000 ) ) ;
#841 = DIRECTION ( 'NONE',  ( 0.000000000000000000, 1.000000000000000000, 2.891205793294678326E-16 ) ) ;
#842 = ORIENTED_EDGE ( 'NONE', *, *, #385, .F. ) ;
#843 = FACE_OUTER_BOUND ( 'NONE', #281, .T. ) ;
#844 = VECTOR ( 'NONE', #1085, 1000.000000000000000 ) ;
#845 = AXIS2_PLACEMENT_3D ( 'NONE', #957, #1117, #396 ) ;
#846 = DIRECTION ( 'NONE',  ( 0.000000000000000000, -0.000000000000000000, -1.000000000000000000 ) ) ;
#847 = CARTESIAN_POINT ( 'NONE',  ( 22.75000000000000355, 2.999999999999999112, 6.999999999999998224 ) ) ;
#848 = ORIENTED_EDGE ( 'NONE', *, *, #1145, .T. ) ;
#849 = LINE ( 'NONE', #109, #629 ) ;
#850 = ADVANCED_FACE ( 'NONE', ( #262 ), #1081, .F. ) ;
#851 = ORIENTED_EDGE ( 'NONE', *, *, #125, .T. ) ;
#852 = LINE ( 'NONE', #653, #377 ) ;
#853 = PRODUCT_DEFINITION ( 'UNKNOWN', '', #774, #290 ) ;
#854 = DIRECTION ( 'NONE',  ( -1.000000000000000000, 0.000000000000000000, 0.000000000000000000 ) ) ;
#855 = ORIENTED_EDGE ( 'NONE', *, *, #393, .T. ) ;
#856 = LINE ( 'NONE', #1128, #730 ) ;
#857 = LINE ( 'NONE', #397, #313 ) ;
#858 = EDGE_CURVE ( 'NONE', #451, #721, #255, .T. ) ;
#859 = CARTESIAN_POINT ( 'NONE',  ( 28.75000000000000355, 2.999999999999999112, 8.999999999999998224 ) ) ;
#860 = ORIENTED_EDGE ( 'NONE', *, *, #296, .T. ) ;
#861 = CARTESIAN_POINT ( 'NONE',  ( 22.85000000000000497, -2.500000000000000888, 0.9999999999999997780 ) ) ;
#862 = AXIS2_PLACEMENT_3D ( 'NONE', #310, #499, #971 ) ;
#863 = DIRECTION ( 'NONE',  ( 0.000000000000000000, 1.000000000000000000, 0.000000000000000000 ) ) ;
#864 = EDGE_CURVE ( 'NONE', #910, #327, #122, .T. ) ;
#865 = CARTESIAN_POINT ( 'NONE',  ( 22.75000000000000355, 23.00000000000000000, 7.000000000000000888 ) ) ;
#866 = EDGE_LOOP ( 'NONE', ( #626, #1176, #209, #263 ) ) ;
#867 = CARTESIAN_POINT ( 'NONE',  ( 22.85000000000000142, 18.00000000000000355, 7.000000000000000888 ) ) ;
#868 = CARTESIAN_POINT ( 'NONE',  ( 22.75000000000000355, 23.00000000000000000, -9.000000000000001776 ) ) ;
#869 = CARTESIAN_POINT ( 'NONE',  ( 21.25000000000000000, 23.00000000000000000, -9.000000000000001776 ) ) ;
#870 = VERTEX_POINT ( 'NONE', #1076 ) ;
#871 = FACE_OUTER_BOUND ( 'NONE', #1182, .T. ) ;
#872 = EDGE_CURVE ( 'NONE', #1098, #870, #171, .T. ) ;
#873 = CC_DESIGN_APPROVAL ( #205, ( #774 ) ) ;
#874 = LINE ( 'NONE', #1047, #892 ) ;
#875 = CARTESIAN_POINT ( 'NONE',  ( 28.75000000000000355, 2.999999999999992450, 6.999999999999998224 ) ) ;
#876 = VECTOR ( 'NONE', #221, 1000.000000000000000 ) ;
#877 = ORIENTED_EDGE ( 'NONE', *, *, #879, .F. ) ;
#878 = DIRECTION ( 'NONE',  ( 1.000000000000000000, 0.000000000000000000, 0.000000000000000000 ) ) ;
#879 = EDGE_CURVE ( 'NONE', #931, #1049, #761, .T. ) ;
#880 = DIRECTION ( 'NONE',  ( -0.000000000000000000, -0.000000000000000000, 1.000000000000000000 ) ) ;
#881 = LINE ( 'NONE', #868, #213 ) ;
#882 = VECTOR ( 'NONE', #287, 1000.000000000000000 ) ;
#883 = PLANE ( 'NONE',  #821 ) ;
#884 = EDGE_LOOP ( 'NONE', ( #366, #851, #800, #638 ) ) ;
#885 = PLANE ( 'NONE',  #4 ) ;
#886 = ORIENTED_EDGE ( 'NONE', *, *, #898, .T. ) ;
#887 = PLANE ( 'NONE',  #764 ) ;
#888 = CALENDAR_DATE ( 2026, 20, 9 ) ;
#889 = CARTESIAN_POINT ( 'NONE',  ( 22.85000000000000853, 0.000000000000000000, -9.014200008959544874 ) ) ;
#890 = ORIENTED_EDGE ( 'NONE', *, *, #896, .T. ) ;
#891 = DIRECTION ( 'NONE',  ( 0.000000000000000000, 0.000000000000000000, 1.000000000000000000 ) ) ;
#892 = VECTOR ( 'NONE', #863, 1000.000000000000000 ) ;
#893 = VERTEX_POINT ( 'NONE', #542 ) ;
#894 = DATE_TIME_ROLE ( 'creation_date' ) ;
#895 = CARTESIAN_POINT ( 'NONE',  ( 22.85000000000000853, 2.999999999999992450, -39.00000000000000000 ) ) ;
#896 = EDGE_CURVE ( 'NONE', #12, #815, #518, .T. ) ;
#897 = EDGE_LOOP ( 'NONE', ( #483, #444, #818, #232 ) ) ;
#898 = EDGE_CURVE ( 'NONE', #1162, #601, #731, .T. ) ;
#899 = CARTESIAN_POINT ( 'NONE',  ( -9.399999999999996803, 12.92999999999999972, -22.00000000000000000 ) ) ;
#900 = EDGE_LOOP ( 'NONE', ( #139, #236, #734, #449 ) ) ;
#901 = LINE ( 'NONE', #993, #584 ) ;
#902 = EDGE_LOOP ( 'NONE', ( #137, #252, #429, #1165 ) ) ;
#903 = EDGE_CURVE ( 'NONE', #327, #337, #901, .T. ) ;
#904 = CARTESIAN_POINT ( 'NONE',  ( 22.85000000000000853, 2.999999999999992450, -39.00000000000000000 ) ) ;
#905 = VECTOR ( 'NONE', #588, 1000.000000000000000 ) ;
#906 = ADVANCED_FACE ( 'NONE', ( #1070 ), #603, .F. ) ;
#907 = CARTESIAN_POINT ( 'NONE',  ( 0.000000000000000000, 23.00000000000000000, 0.000000000000000000 ) ) ;
#908 = DATE_AND_TIME ( #715, #1158 ) ;
#909 = LINE ( 'NONE', #1175, #777 ) ;
#910 = VERTEX_POINT ( 'NONE', #889 ) ;
#911 = CARTESIAN_POINT ( 'NONE',  ( 28.75000000000000355, 23.00000000000000000, 7.000000000000000888 ) ) ;
#912 = ORIENTED_EDGE ( 'NONE', *, *, #896, .F. ) ;
#913 = ADVANCED_FACE ( 'NONE', ( #430 ), #531, .T. ) ;
#914 = VECTOR ( 'NONE', #274, 1000.000000000000000 ) ;
#915 = ADVANCED_FACE ( 'NONE', ( #612 ), #987, .T. ) ;
#916 = APPROVAL_STATUS ( 'not_yet_approved' ) ;
#917 = DIRECTION ( 'NONE',  ( -0.000000000000000000, 0.000000000000000000, -1.000000000000000000 ) ) ;
#918 = ORIENTED_EDGE ( 'NONE', *, *, #1096, .F. ) ;
#919 = DIRECTION ( 'NONE',  ( 0.000000000000000000, -1.000000000000000000, -1.734723475976807094E-16 ) ) ;
#920 = VERTEX_POINT ( 'NONE', #1170 ) ;
#921 = EDGE_CURVE ( 'NONE', #527, #464, #344, .T. ) ;
#922 = FACE_OUTER_BOUND ( 'NONE', #339, .T. ) ;
#923 = ORIENTED_EDGE ( 'NONE', *, *, #182, .F. ) ;
#924 = PLANE ( 'NONE',  #22 ) ;
#925 = ORIENTED_EDGE ( 'NONE', *, *, #928, .F. ) ;
#926 = CIRCLE ( 'NONE', #1051, 2.200000000000000622 ) ;
#927 = VECTOR ( 'NONE', #442, 1000.000000000000000 ) ;
#928 = EDGE_CURVE ( 'NONE', #337, #1033, #852, .T. ) ;
#929 = CARTESIAN_POINT ( 'NONE',  ( -22.74999999999999289, 23.00000000000000000, -19.34999999999999787 ) ) ;
#930 = CARTESIAN_POINT ( 'NONE',  ( -6.649999999999996803, 12.92999999999999972, -34.04999999999999716 ) ) ;
#931 = VERTEX_POINT ( 'NONE', #1118 ) ;
#932 = CARTESIAN_POINT ( 'NONE',  ( -20.09999999999999076, 23.00000000000000000, 9.000000000000001776 ) ) ;
#933 = FACE_OUTER_BOUND ( 'NONE', #866, .T. ) ;
#934 = AXIS2_PLACEMENT_3D ( 'NONE', #111, #312, #422 ) ;
#935 = LINE ( 'NONE', #1038, #1091 ) ;
#936 = ORIENTED_EDGE ( 'NONE', *, *, #600, .F. ) ;
#937 = DIRECTION ( 'NONE',  ( 1.000000000000000000, 0.000000000000000000, 0.000000000000000000 ) ) ;
#938 = VECTOR ( 'NONE', #409, 1000.000000000000000 ) ;
#939 = DIRECTION ( 'NONE',  ( -1.000000000000000000, 1.224646799147353454E-16, 0.000000000000000000 ) ) ;
#940 = PLANE ( 'NONE',  #381 ) ;
#941 = ORIENTED_EDGE ( 'NONE', *, *, #1026, .T. ) ;
#942 = ADVANCED_FACE ( 'NONE', ( #295 ), #462, .F. ) ;
#943 = LINE ( 'NONE', #839, #102 ) ;
#944 = AXIS2_PLACEMENT_3D ( 'NONE', #1143, #320, #687 ) ;
#945 = EDGE_CURVE ( 'NONE', #364, #789, #291, .T. ) ;
#946 = ORIENTED_EDGE ( 'NONE', *, *, #609, .T. ) ;
#947 = CARTESIAN_POINT ( 'NONE',  ( 25.05000000000000426, 8.000000000000000000, 7.000000000000000888 ) ) ;
#948 = CARTESIAN_POINT ( 'NONE',  ( -20.09999999999999076, 23.00000000000000000, -9.000000000000001776 ) ) ;
#949 = ORIENTED_EDGE ( 'NONE', *, *, #104, .F. ) ;
#950 = CARTESIAN_POINT ( 'NONE',  ( -22.74999999999999645, -2.500000000000000888, -5.000000000000000000 ) ) ;
#951 = EDGE_CURVE ( 'NONE', #789, #1098, #741, .T. ) ;
#952 = DIRECTION ( 'NONE',  ( -0.000000000000000000, -1.000000000000000000, -0.000000000000000000 ) ) ;
#953 = VECTOR ( 'NONE', #1014, 1000.000000000000000 ) ;
#954 = DIRECTION ( 'NONE',  ( -1.000000000000000000, 0.000000000000000000, -0.000000000000000000 ) ) ;
#955 = EDGE_LOOP ( 'NONE', ( #820, #101, #619, #242 ) ) ;
#956 = LOCAL_TIME ( 18, 35, 29.00000000000000000, #68 ) ;
#957 = CARTESIAN_POINT ( 'NONE',  ( 19.96100640936368720, 3.000000000000000000, -29.00000000000000000 ) ) ;
#958 = ADVANCED_FACE ( 'NONE', ( #933 ), #1106, .T. ) ;
#959 = UNCERTAINTY_MEASURE_WITH_UNIT (LENGTH_MEASURE( 1.000000000000000082E-05 ), #491, 'distance_accuracy_value', 'NONE');
#960 = CARTESIAN_POINT ( 'NONE',  ( -12.14999999999999680, 12.92999999999999972, -22.00000000000000000 ) ) ;
#961 = ORIENTED_EDGE ( 'NONE', *, *, #903, .T. ) ;
#962 = AXIS2_PLACEMENT_3D ( 'NONE', #150, #57, #437 ) ;
#963 = CARTESIAN_POINT ( 'NONE',  ( 28.75000000000000355, 23.00000000000000000, 7.000000000000000888 ) ) ;
#964 = FACE_OUTER_BOUND ( 'NONE', #1017, .T. ) ;
#965 = EDGE_LOOP ( 'NONE', ( #983, #860 ) ) ;
#966 = DIRECTION ( 'NONE',  ( -1.000000000000000000, -0.000000000000000000, -0.000000000000000000 ) ) ;
#967 = FACE_OUTER_BOUND ( 'NONE', #711, .T. ) ;
#968 = DIRECTION ( 'NONE',  ( -1.000000000000000000, 1.224646799147353454E-16, 0.000000000000000000 ) ) ;
#969 = VERTEX_POINT ( 'NONE', #194 ) ;
#970 = EDGE_CURVE ( 'NONE', #1192, #215, #657, .T. ) ;
#971 = DIRECTION ( 'NONE',  ( 1.000000000000000000, 0.000000000000000000, 0.000000000000000000 ) ) ;
#972 = ORIENTED_EDGE ( 'NONE', *, *, #478, .F. ) ;
#973 = PLANE ( 'NONE',  #526 ) ;
#974 = CARTESIAN_POINT ( 'NONE',  ( -12.14999999999999680, 12.92999999999999972, -34.04999999999999716 ) ) ;
#975 = VERTEX_POINT ( 'NONE', #564 ) ;
#976 = CARTESIAN_POINT ( 'NONE',  ( 22.74999999999999645, 0.000000000000000000, -9.000000000000001776 ) ) ;
#977 = EDGE_CURVE ( 'NONE', #920, #82, #835, .T. ) ;
#978 = CARTESIAN_POINT ( 'NONE',  ( -6.649999999999996803, 12.92999999999999972, -34.04999999999999716 ) ) ;
#979 = APPROVAL_DATE_TIME ( #253, #1029 ) ;
#980 = VECTOR ( 'NONE', #785, 1000.000000000000000 ) ;
#981 = DIRECTION ( 'NONE',  ( -0.000000000000000000, -0.000000000000000000, 1.000000000000000000 ) ) ;
#982 = VECTOR ( 'NONE', #573, 1000.000000000000000 ) ;
#983 = ORIENTED_EDGE ( 'NONE', *, *, #723, .T. ) ;
#984 = CARTESIAN_POINT ( 'NONE',  ( 25.05000000000000426, 18.00000000000000355, 9.000000000000001776 ) ) ;
#985 = DIRECTION ( 'NONE',  ( 0.000000000000000000, 0.000000000000000000, 1.000000000000000000 ) ) ;
#986 = ADVANCED_FACE ( 'NONE', ( #922 ), #81, .F. ) ;
#987 = CYLINDRICAL_SURFACE ( 'NONE', #962, 2.750000000000000000 ) ;
#988 = ORIENTED_EDGE ( 'NONE', *, *, #33, .F. ) ;
#989 = DIRECTION ( 'NONE',  ( 0.000000000000000000, 1.000000000000000000, 0.000000000000000000 ) ) ;
#990 =( GEOMETRIC_REPRESENTATION_CONTEXT ( 3 ) GLOBAL_UNCERTAINTY_ASSIGNED_CONTEXT ( ( #959 ) ) GLOBAL_UNIT_ASSIGNED_CONTEXT ( ( #491, #124, #1064 ) ) REPRESENTATION_CONTEXT ( 'NONE', 'WORKASPACE' ) );
#991 = ORIENTED_EDGE ( 'NONE', *, *, #858, .T. ) ;
#992 = EDGE_CURVE ( 'NONE', #461, #994, #189, .T. ) ;
#993 = CARTESIAN_POINT ( 'NONE',  ( 22.85000000000000497, 0.000000000000000000, -9.000000000000001776 ) ) ;
#994 = VERTEX_POINT ( 'NONE', #735 ) ;
#995 = DIRECTION ( 'NONE',  ( -1.000000000000000000, 0.000000000000000000, -0.000000000000000000 ) ) ;
#996 = ORIENTED_EDGE ( 'NONE', *, *, #398, .F. ) ;
#997 = CALENDAR_DATE ( 2026, 20, 9 ) ;
#998 = DIRECTION ( 'NONE',  ( -1.000000000000000000, 0.000000000000000000, 0.000000000000000000 ) ) ;
#999 = VERTEX_POINT ( 'NONE', #1031 ) ;
#1000 = AXIS2_PLACEMENT_3D ( 'NONE', #1186, #156, #336 ) ;
#1001 = VECTOR ( 'NONE', #705, 1000.000000000000000 ) ;
#1002 = LINE ( 'NONE', #1183, #762 ) ;
#1003 = VECTOR ( 'NONE', #754, 1000.000000000000000 ) ;
#1004 = PERSON_AND_ORGANIZATION ( #1181, #563 ) ;
#1005 = CARTESIAN_POINT ( 'NONE',  ( 22.85000000000000497, -1.000000000000002220, -5.000000000000000000 ) ) ;
#1006 = ORIENTED_EDGE ( 'NONE', *, *, #698, .T. ) ;
#1007 = DIRECTION ( 'NONE',  ( 1.000000000000000000, 0.000000000000000000, 0.000000000000000000 ) ) ;
#1008 = ORIENTED_EDGE ( 'NONE', *, *, #347, .F. ) ;
#1009 = EDGE_CURVE ( 'NONE', #1028, #1075, #53, .T. ) ;
#1010 = CARTESIAN_POINT ( 'NONE',  ( 28.75000000000000355, 2.999999999999992450, 9.000000000000001776 ) ) ;
#1011 = EDGE_LOOP ( 'NONE', ( #154, #1159 ) ) ;
#1012 = DIRECTION ( 'NONE',  ( 0.000000000000000000, -0.000000000000000000, -1.000000000000000000 ) ) ;
#1013 = EDGE_LOOP ( 'NONE', ( #304, #550, #388, #510 ) ) ;
#1014 = DIRECTION ( 'NONE',  ( -1.000000000000000000, -0.000000000000000000, -0.000000000000000000 ) ) ;
#1015 = VERTEX_POINT ( 'NONE', #8 ) ;
#1016 = FACE_OUTER_BOUND ( 'NONE', #955, .T. ) ;
#1017 = EDGE_LOOP ( 'NONE', ( #1155, #540, #498 ) ) ;
#1018 = AXIS2_PLACEMENT_3D ( 'NONE', #243, #605, #878 ) ;
#1019 = FACE_OUTER_BOUND ( 'NONE', #222, .T. ) ;
#1020 = EDGE_CURVE ( 'NONE', #215, #20, #285, .T. ) ;
#1021 = CARTESIAN_POINT ( 'NONE',  ( 27.25000000000000355, 8.000000000000000000, 9.000000000000001776 ) ) ;
#1022 = LINE ( 'NONE', #468, #512 ) ;
#1023 = ORIENTED_EDGE ( 'NONE', *, *, #1041, .T. ) ;
#1024 = CARTESIAN_POINT ( 'NONE',  ( 25.05000000000000426, 18.00000000000000355, 9.000000000000001776 ) ) ;
#1025 = CARTESIAN_POINT ( 'NONE',  ( 22.85000000000000497, -2.500000000000000888, 5.000000000000000000 ) ) ;
#1026 = EDGE_CURVE ( 'NONE', #766, #592, #693, .T. ) ;
#1027 = DIRECTION ( 'NONE',  ( -1.000000000000000000, 0.000000000000000000, 0.000000000000000000 ) ) ;
#1028 = VERTEX_POINT ( 'NONE', #1021 ) ;
#1029 = APPROVAL ( #916, 'UNSPECIFIED' ) ;
#1030 = LINE ( 'NONE', #861, #982 ) ;
#1031 = CARTESIAN_POINT ( 'NONE',  ( 22.85000000000000497, 0.000000000000000000, -9.000000000000001776 ) ) ;
#1032 = LINE ( 'NONE', #297, #100 ) ;
#1033 = VERTEX_POINT ( 'NONE', #481 ) ;
#1034 = EDGE_CURVE ( 'NONE', #337, #527, #183, .T. ) ;
#1035 = CARTESIAN_POINT ( 'NONE',  ( 22.85000000000000853, 2.999999999999992450, -39.00000000000000000 ) ) ;
#1036 = VECTOR ( 'NONE', #671, 1000.000000000000000 ) ;
#1037 = DIRECTION ( 'NONE',  ( 0.000000000000000000, 1.000000000000000000, 0.000000000000000000 ) ) ;
#1038 = CARTESIAN_POINT ( 'NONE',  ( -19.74999999999999289, 23.00000000000000000, -22.00000000000000000 ) ) ;
#1039 = VERTEX_POINT ( 'NONE', #14 ) ;
#1040 = LINE ( 'NONE', #204, #786 ) ;
#1041 = EDGE_CURVE ( 'NONE', #395, #461, #391, .T. ) ;
#1042 = CARTESIAN_POINT ( 'NONE',  ( 22.85000000000000497, -2.500000000000000888, 0.9999999999999997780 ) ) ;
#1043 = PLANE ( 'NONE',  #142 ) ;
#1044 = VERTEX_POINT ( 'NONE', #1010 ) ;
#1045 = CC_DESIGN_APPROVAL ( #684, ( #853 ) ) ;
#1046 = LINE ( 'NONE', #128, #586 ) ;
#1047 = CARTESIAN_POINT ( 'NONE',  ( -22.74999999999999645, -2.500000000000000888, -5.000000000000000000 ) ) ;
#1048 = CARTESIAN_POINT ( 'NONE',  ( -6.649999999999996803, 12.92999999999999972, -22.00000000000000000 ) ) ;
#1049 = VERTEX_POINT ( 'NONE', #177 ) ;
#1050 = LINE ( 'NONE', #223, #905 ) ;
#1051 = AXIS2_PLACEMENT_3D ( 'NONE', #1024, #562, #937 ) ;
#1052 = VECTOR ( 'NONE', #346, 1000.000000000000000 ) ;
#1053 = DIRECTION ( 'NONE',  ( -0.000000000000000000, -0.000000000000000000, -1.000000000000000000 ) ) ;
#1054 = CARTESIAN_POINT ( 'NONE',  ( 25.05000000000000426, 8.000000000000000000, 7.000000000000000888 ) ) ;
#1055 = EDGE_LOOP ( 'NONE', ( #1066, #354, #641, #131 ) ) ;
#1056 = DIRECTION ( 'NONE',  ( 0.000000000000000000, 0.000000000000000000, 1.000000000000000000 ) ) ;
#1057 = LINE ( 'NONE', #23, #153 ) ;
#1058 = EDGE_CURVE ( 'NONE', #20, #834, #93, .T. ) ;
#1059 = CARTESIAN_POINT ( 'NONE',  ( 22.85000000000000497, -2.500000000000000888, 5.000000000000000000 ) ) ;
#1060 = ORIENTED_EDGE ( 'NONE', *, *, #1104, .T. ) ;
#1061 = CARTESIAN_POINT ( 'NONE',  ( 25.05000000000000426, 18.00000000000000355, 7.000000000000000888 ) ) ;
#1062 = EDGE_CURVE ( 'NONE', #607, #1033, #547, .T. ) ;
#1063 = FACE_OUTER_BOUND ( 'NONE', #884, .T. ) ;
#1064 =( NAMED_UNIT ( * ) SI_UNIT ( $, .STERADIAN. ) SOLID_ANGLE_UNIT ( ) );
#1065 = CARTESIAN_POINT ( 'NONE',  ( -22.74999999999999645, 3.000000000000000000, -9.000000000000001776 ) ) ;
#1066 = ORIENTED_EDGE ( 'NONE', *, *, #872, .F. ) ;
#1067 = CARTESIAN_POINT ( 'NONE',  ( 22.85000000000000497, -2.500000000000000888, 0.9999999999999997780 ) ) ;
#1068 = ORIENTED_EDGE ( 'NONE', *, *, #558, .F. ) ;
#1069 = VECTOR ( 'NONE', #966, 1000.000000000000000 ) ;
#1070 = FACE_OUTER_BOUND ( 'NONE', #370, .T. ) ;
#1071 = ORIENTED_EDGE ( 'NONE', *, *, #296, .F. ) ;
#1072 = DIRECTION ( 'NONE',  ( 0.000000000000000000, -1.000000000000000000, -1.301042606982605321E-16 ) ) ;
#1073 = ORIENTED_EDGE ( 'NONE', *, *, #480, .F. ) ;
#1074 = EDGE_CURVE ( 'NONE', #239, #277, #675, .T. ) ;
#1075 = VERTEX_POINT ( 'NONE', #301 ) ;
#1076 = CARTESIAN_POINT ( 'NONE',  ( -22.74999999999999645, -4.000000000000000000, 9.000000000000001776 ) ) ;
#1077 = EDGE_LOOP ( 'NONE', ( #435, #718, #46, #245 ) ) ;
#1078 = FACE_BOUND ( 'NONE', #95, .T. ) ;
#1079 = APPROVAL_PERSON_ORGANIZATION ( #1004, #684, #1153 ) ;
#1080 = LINE ( 'NONE', #522, #829 ) ;
#1081 = PLANE ( 'NONE',  #704 ) ;
#1082 = ADVANCED_FACE ( 'NONE', ( #967 ), #670, .T. ) ;
#1083 = ORIENTED_EDGE ( 'NONE', *, *, #977, .T. ) ;
#1084 = AXIS2_PLACEMENT_3D ( 'NONE', #1065, #683, #954 ) ;
#1085 = DIRECTION ( 'NONE',  ( 0.000000000000000000, -1.000000000000000000, 0.000000000000000000 ) ) ;
#1086 = DIRECTION ( 'NONE',  ( -1.000000000000000000, 0.000000000000000000, 0.000000000000000000 ) ) ;
#1087 = MECHANICAL_CONTEXT ( 'NONE', #92, 'mechanical' ) ;
#1088 = DIRECTION ( 'NONE',  ( 0.000000000000000000, 1.301042606982605321E-16, 1.000000000000000000 ) ) ;
#1089 = EDGE_CURVE ( 'NONE', #893, #327, #881, .T. ) ;
#1090 = ORIENTED_EDGE ( 'NONE', *, *, #237, .T. ) ;
#1091 = VECTOR ( 'NONE', #1107, 1000.000000000000000 ) ;
#1092 = FACE_BOUND ( 'NONE', #965, .T. ) ;
#1093 = ORIENTED_EDGE ( 'NONE', *, *, #1074, .T. ) ;
#1094 = DIRECTION ( 'NONE',  ( -1.000000000000000000, 0.000000000000000000, 0.000000000000000000 ) ) ;
#1095 = ORIENTED_EDGE ( 'NONE', *, *, #1041, .F. ) ;
#1096 = EDGE_CURVE ( 'NONE', #89, #1171, #874, .T. ) ;
#1097 = DIRECTION ( 'NONE',  ( -0.000000000000000000, 1.000000000000000000, 1.301042606982605321E-16 ) ) ;
#1098 = VERTEX_POINT ( 'NONE', #1140 ) ;
#1099 = CC_DESIGN_SECURITY_CLASSIFICATION ( #485, ( #774 ) ) ;
#1100 = DIRECTION ( 'NONE',  ( -1.000000000000000000, 0.000000000000000000, 0.000000000000000000 ) ) ;
#1101 = ORIENTED_EDGE ( 'NONE', *, *, #376, .F. ) ;
#1102 = CARTESIAN_POINT ( 'NONE',  ( 28.75000000000000355, 23.00000000000000000, 9.000000000000001776 ) ) ;
#1103 = ORIENTED_EDGE ( 'NONE', *, *, #340, .F. ) ;
#1104 = EDGE_CURVE ( 'NONE', #1039, #798, #317, .T. ) ;
#1105 = EDGE_CURVE ( 'NONE', #893, #635, #781, .T. ) ;
#1106 = PLANE ( 'NONE',  #648 ) ;
#1107 = DIRECTION ( 'NONE',  ( -1.000000000000000000, -0.000000000000000000, -0.000000000000000000 ) ) ;
#1108 = VECTOR ( 'NONE', #702, 1000.000000000000000 ) ;
#1109 = ORIENTED_EDGE ( 'NONE', *, *, #110, .F. ) ;
#1110 = VECTOR ( 'NONE', #771, 1000.000000000000000 ) ;
#1111 = DIRECTION ( 'NONE',  ( 0.000000000000000000, -1.445602896647339163E-16, -1.000000000000000000 ) ) ;
#1112 = EDGE_CURVE ( 'NONE', #789, #655, #1057, .T. ) ;
#1113 = DIRECTION ( 'NONE',  ( -0.000000000000000000, -0.000000000000000000, 1.000000000000000000 ) ) ;
#1114 = CC_DESIGN_PERSON_AND_ORGANIZATION_ASSIGNMENT ( #1160, #810, ( #521 ) ) ;
#1115 = DIRECTION ( 'NONE',  ( 0.000000000000000000, 0.000000000000000000, -1.000000000000000000 ) ) ;
#1116 = ORIENTED_EDGE ( 'NONE', *, *, #1058, .F. ) ;
#1117 = DIRECTION ( 'NONE',  ( 0.000000000000000000, -1.000000000000000000, 0.000000000000000000 ) ) ;
#1118 = CARTESIAN_POINT ( 'NONE',  ( 22.85000000000000142, 8.000000000000000000, 7.000000000000000888 ) ) ;
#1119 = ADVANCED_FACE ( 'NONE', ( #403 ), #973, .F. ) ;
#1120 = EDGE_CURVE ( 'NONE', #920, #451, #135, .T. ) ;
#1121 = LINE ( 'NONE', #833, #882 ) ;
#1122 = ORIENTED_EDGE ( 'NONE', *, *, #273, .T. ) ;
#1123 = DIRECTION ( 'NONE',  ( 1.000000000000000000, 0.000000000000000000, 0.000000000000000000 ) ) ;
#1124 = CARTESIAN_POINT ( 'NONE',  ( 21.25000000000000355, 23.00000000000000000, 9.000000000000000000 ) ) ;
#1125 = EDGE_CURVE ( 'NONE', #256, #969, #589, .T. ) ;
#1126 = CYLINDRICAL_SURFACE ( 'NONE', #784, 20.19352582509083049 ) ;
#1127 = ORIENTED_EDGE ( 'NONE', *, *, #1163, .T. ) ;
#1128 = CARTESIAN_POINT ( 'NONE',  ( 22.85000000000000142, 8.000000000000000000, 7.000000000000000888 ) ) ;
#1129 = AXIS2_PLACEMENT_3D ( 'NONE', #792, #1154, #214 ) ;
#1130 = CARTESIAN_POINT ( 'NONE',  ( 21.25000000000000355, 2.649999999999992362, -19.34999999999999787 ) ) ;
#1131 = CARTESIAN_POINT ( 'NONE',  ( 22.85000000000000497, -2.500000000000000888, -5.000000000000000000 ) ) ;
#1132 = ORIENTED_EDGE ( 'NONE', *, *, #211, .T. ) ;
#1133 = ADVANCED_FACE ( 'NONE', ( #322 ), #666, .T. ) ;
#1134 = LINE ( 'NONE', #673, #1110 ) ;
#1135 = CARTESIAN_POINT ( 'NONE',  ( -19.74999999999999289, 0.000000000000000000, -22.00000000000000000 ) ) ;
#1136 = ORIENTED_EDGE ( 'NONE', *, *, #541, .F. ) ;
#1137 = CIRCLE ( 'NONE', #934, 2.750000000000000888 ) ;
#1138 = FACE_OUTER_BOUND ( 'NONE', #743, .T. ) ;
#1139 = CIRCLE ( 'NONE', #356, 2.200000000000000622 ) ;
#1140 = CARTESIAN_POINT ( 'NONE',  ( -22.74999999999999645, -4.000000000000000888, 1.000000000000000000 ) ) ;
#1141 = DIRECTION ( 'NONE',  ( 0.000000000000000000, 0.000000000000000000, 1.000000000000000000 ) ) ;
#1142 = ORIENTED_EDGE ( 'NONE', *, *, #1120, .F. ) ;
#1143 = CARTESIAN_POINT ( 'NONE',  ( 22.85000000000000497, -4.000000000000000888, -1.000000000000000888 ) ) ;
#1144 = AXIS2_PLACEMENT_3D ( 'NONE', #1061, #891, #699 ) ;
#1145 = EDGE_CURVE ( 'NONE', #798, #587, #233, .T. ) ;
#1146 = VECTOR ( 'NONE', #661, 1000.000000000000000 ) ;
#1147 = DIRECTION ( 'NONE',  ( 0.000000000000000000, -0.000000000000000000, -1.000000000000000000 ) ) ;
#1148 = CARTESIAN_POINT ( 'NONE',  ( 22.75000000000000355, 23.00000000000000000, -9.000000000000001776 ) ) ;
#1149 = ORIENTED_EDGE ( 'NONE', *, *, #644, .T. ) ;
#1150 = CARTESIAN_POINT ( 'NONE',  ( 21.25000000000000355, 23.00000000000000000, 9.000000000000000000 ) ) ;
#1151 = ORIENTED_EDGE ( 'NONE', *, *, #341, .F. ) ;
#1152 = FACE_OUTER_BOUND ( 'NONE', #615, .T. ) ;
#1153 = APPROVAL_ROLE ( '' ) ;
#1154 = DIRECTION ( 'NONE',  ( 1.000000000000000000, 0.000000000000000000, -1.927470528863118802E-16 ) ) ;
#1155 = ORIENTED_EDGE ( 'NONE', *, *, #558, .T. ) ;
#1156 = DIRECTION ( 'NONE',  ( 0.000000000000000000, 0.000000000000000000, 1.000000000000000000 ) ) ;
#1157 = ORIENTED_EDGE ( 'NONE', *, *, #385, .T. ) ;
#1158 = LOCAL_TIME ( 18, 35, 29.00000000000000000, #530 ) ;
#1159 = ORIENTED_EDGE ( 'NONE', *, *, #260, .F. ) ;
#1160 = PERSON_AND_ORGANIZATION ( #1181, #563 ) ;
#1161 = CARTESIAN_POINT ( 'NONE',  ( 27.25000000000000355, 18.00000000000000355, 7.000000000000000888 ) ) ;
#1162 = VERTEX_POINT ( 'NONE', #116 ) ;
#1163 = EDGE_CURVE ( 'NONE', #592, #766, #1137, .T. ) ;
#1164 = DIRECTION ( 'NONE',  ( -1.000000000000000000, 0.000000000000000000, 0.000000000000000000 ) ) ;
#1165 = ORIENTED_EDGE ( 'NONE', *, *, #1120, .T. ) ;
#1166 = VECTOR ( 'NONE', #1100, 1000.000000000000000 ) ;
#1167 = CARTESIAN_POINT ( 'NONE',  ( -22.74999999999999645, -1.000000000000002220, -5.000000000000000000 ) ) ;
#1168 = DATE_AND_TIME ( #523, #836 ) ;
#1169 = CIRCLE ( 'NONE', #441, 2.200000000000000622 ) ;
#1170 = CARTESIAN_POINT ( 'NONE',  ( 22.85000000000000497, -1.000000000000000888, 5.000000000000000000 ) ) ;
#1171 = VERTEX_POINT ( 'NONE', #207 ) ;
#1172 = DIRECTION ( 'NONE',  ( 0.000000000000000000, -1.000000000000000000, 0.000000000000000000 ) ) ;
#1173 = VERTEX_POINT ( 'NONE', #487 ) ;
#1174 = DATE_AND_TIME ( #997, #193 ) ;
#1175 = CARTESIAN_POINT ( 'NONE',  ( 22.85000000000000497, -2.500000000000000888, -5.000000000000000000 ) ) ;
#1176 = ORIENTED_EDGE ( 'NONE', *, *, #824, .T. ) ;
#1177 = LINE ( 'NONE', #911, #83 ) ;
#1178 = ORIENTED_EDGE ( 'NONE', *, *, #33, .T. ) ;
#1179 = APPROVAL_DATE_TIME ( #1168, #684 ) ;
#1180 = CARTESIAN_POINT ( 'NONE',  ( -22.74999999999999645, -4.000000000000000000, 9.000000000000001776 ) ) ;
#1181 = PERSON ( 'UNSPECIFIED', 'UNSPECIFIED', 'UNSPECIFIED', ('UNSPECIFIED'), ('UNSPECIFIED'), ('UNSPECIFIED') ) ;
#1182 = EDGE_LOOP ( 'NONE', ( #507, #707, #494, #438 ) ) ;
#1183 = CARTESIAN_POINT ( 'NONE',  ( 22.85000000000000497, -4.000000000000000888, -1.000000000000000888 ) ) ;
#1184 = ORIENTED_EDGE ( 'NONE', *, *, #757, .T. ) ;
#1185 = EDGE_CURVE ( 'NONE', #999, #446, #857, .T. ) ;
#1186 = CARTESIAN_POINT ( 'NONE',  ( 19.96100640936368720, 0.000000000000000000, -29.00000000000000000 ) ) ;
#1187 = EDGE_LOOP ( 'NONE', ( #936, #16, #1194, #825 ) ) ;
#1188 = FACE_OUTER_BOUND ( 'NONE', #325, .T. ) ;
#1189 = CIRCLE ( 'NONE', #845, 20.19352582509083049 ) ;
#1190 = ORIENTED_EDGE ( 'NONE', *, *, #970, .T. ) ;
#1191 = DIRECTION ( 'NONE',  ( -0.000000000000000000, -1.000000000000000000, -0.000000000000000000 ) ) ;
#1192 = VERTEX_POINT ( 'NONE', #1130 ) ;
#1193 = DIRECTION ( 'NONE',  ( -1.000000000000000000, 0.000000000000000000, 0.000000000000000000 ) ) ;
#1194 = ORIENTED_EDGE ( 'NONE', *, *, #26, .T. ) ;
#1195 = VECTOR ( 'NONE', #952, 1000.000000000000000 ) ;
#1196 = CARTESIAN_POINT ( 'NONE',  ( -22.74999999999999645, 0.000000000000000000, -9.000000000000001776 ) ) ;
#1197 = DIRECTION ( 'NONE',  ( -1.000000000000000000, 0.000000000000000000, -0.000000000000000000 ) ) ;
#1198 = ORIENTED_EDGE ( 'NONE', *, *, #992, .F. ) ;
#1199 = EDGE_CURVE ( 'NONE', #364, #838, #307, .T. ) ;
ENDSEC;
END-ISO-10303-21;
