ISO-10303-21;
HEADER;
/* Generated by software containing ST-Developer
 * from STEP Tools, Inc. (www.steptools.com) 
 */

FILE_DESCRIPTION(
/* description */ (''),
/* implementation_level */ '2;1');

FILE_NAME(
/* name */ 'Shooting_Enclosure_Final_Part1.step',
/* time_stamp */ '2026-09-22T17:57:53+05:30',
/* author */ (''),
/* organization */ (''),
/* preprocessor_version */ 'ST-DEVELOPER v20.2',
/* originating_system */ 'Autodesk Translation Framework v15.15.0.0',
/* authorisation */ '');

FILE_SCHEMA (('AUTOMOTIVE_DESIGN { 1 0 10303 214 3 1 1 }'));
ENDSEC;

DATA;
#10=MECHANICAL_DESIGN_GEOMETRIC_PRESENTATION_REPRESENTATION('',(#13),#1789);
#11=SHAPE_REPRESENTATION_RELATIONSHIP('SRR','None',#1796,#12);
#12=ADVANCED_BREP_SHAPE_REPRESENTATION('',(#14),#1788);
#13=STYLED_ITEM('',(#1805),#14);
#14=MANIFOLD_SOLID_BREP('Body1',#1094);
#15=CYLINDRICAL_SURFACE('',#1111,1.25);
#16=CYLINDRICAL_SURFACE('',#1113,6.);
#17=CYLINDRICAL_SURFACE('',#1118,2.25);
#18=CYLINDRICAL_SURFACE('',#1122,0.5);
#19=CYLINDRICAL_SURFACE('',#1137,2.25);
#20=CYLINDRICAL_SURFACE('',#1141,0.5);
#21=CYLINDRICAL_SURFACE('',#1146,1.5);
#22=CYLINDRICAL_SURFACE('',#1156,2.9);
#23=CYLINDRICAL_SURFACE('',#1158,1.25);
#24=CYLINDRICAL_SURFACE('',#1160,2.25);
#25=CYLINDRICAL_SURFACE('',#1162,1.25);
#26=CYLINDRICAL_SURFACE('',#1168,5.);
#27=FACE_BOUND('',#94,.T.);
#28=FACE_BOUND('',#98,.T.);
#29=FACE_BOUND('',#106,.T.);
#30=FACE_BOUND('',#107,.T.);
#31=FACE_BOUND('',#108,.T.);
#32=FACE_BOUND('',#123,.T.);
#33=FACE_BOUND('',#124,.T.);
#34=FACE_BOUND('',#152,.T.);
#35=FACE_BOUND('',#156,.T.);
#36=FACE_BOUND('',#158,.T.);
#37=FACE_OUTER_BOUND('',#93,.T.);
#38=FACE_OUTER_BOUND('',#95,.T.);
#39=FACE_OUTER_BOUND('',#96,.T.);
#40=FACE_OUTER_BOUND('',#97,.T.);
#41=FACE_OUTER_BOUND('',#99,.T.);
#42=FACE_OUTER_BOUND('',#100,.T.);
#43=FACE_OUTER_BOUND('',#101,.T.);
#44=FACE_OUTER_BOUND('',#102,.T.);
#45=FACE_OUTER_BOUND('',#103,.T.);
#46=FACE_OUTER_BOUND('',#104,.T.);
#47=FACE_OUTER_BOUND('',#105,.T.);
#48=FACE_OUTER_BOUND('',#109,.T.);
#49=FACE_OUTER_BOUND('',#110,.T.);
#50=FACE_OUTER_BOUND('',#111,.T.);
#51=FACE_OUTER_BOUND('',#112,.T.);
#52=FACE_OUTER_BOUND('',#113,.T.);
#53=FACE_OUTER_BOUND('',#114,.T.);
#54=FACE_OUTER_BOUND('',#115,.T.);
#55=FACE_OUTER_BOUND('',#116,.T.);
#56=FACE_OUTER_BOUND('',#117,.T.);
#57=FACE_OUTER_BOUND('',#118,.T.);
#58=FACE_OUTER_BOUND('',#119,.T.);
#59=FACE_OUTER_BOUND('',#120,.T.);
#60=FACE_OUTER_BOUND('',#121,.T.);
#61=FACE_OUTER_BOUND('',#122,.T.);
#62=FACE_OUTER_BOUND('',#125,.T.);
#63=FACE_OUTER_BOUND('',#126,.T.);
#64=FACE_OUTER_BOUND('',#127,.T.);
#65=FACE_OUTER_BOUND('',#128,.T.);
#66=FACE_OUTER_BOUND('',#129,.T.);
#67=FACE_OUTER_BOUND('',#130,.T.);
#68=FACE_OUTER_BOUND('',#131,.T.);
#69=FACE_OUTER_BOUND('',#132,.T.);
#70=FACE_OUTER_BOUND('',#133,.T.);
#71=FACE_OUTER_BOUND('',#134,.T.);
#72=FACE_OUTER_BOUND('',#135,.T.);
#73=FACE_OUTER_BOUND('',#136,.T.);
#74=FACE_OUTER_BOUND('',#137,.T.);
#75=FACE_OUTER_BOUND('',#138,.T.);
#76=FACE_OUTER_BOUND('',#139,.T.);
#77=FACE_OUTER_BOUND('',#140,.T.);
#78=FACE_OUTER_BOUND('',#141,.T.);
#79=FACE_OUTER_BOUND('',#142,.T.);
#80=FACE_OUTER_BOUND('',#143,.T.);
#81=FACE_OUTER_BOUND('',#144,.T.);
#82=FACE_OUTER_BOUND('',#145,.T.);
#83=FACE_OUTER_BOUND('',#146,.T.);
#84=FACE_OUTER_BOUND('',#147,.T.);
#85=FACE_OUTER_BOUND('',#148,.T.);
#86=FACE_OUTER_BOUND('',#149,.T.);
#87=FACE_OUTER_BOUND('',#150,.T.);
#88=FACE_OUTER_BOUND('',#151,.T.);
#89=FACE_OUTER_BOUND('',#153,.T.);
#90=FACE_OUTER_BOUND('',#154,.T.);
#91=FACE_OUTER_BOUND('',#155,.T.);
#92=FACE_OUTER_BOUND('',#157,.T.);
#93=EDGE_LOOP('',(#690,#691));
#94=EDGE_LOOP('',(#692));
#95=EDGE_LOOP('',(#693,#694,#695,#696));
#96=EDGE_LOOP('',(#697,#698,#699,#700));
#97=EDGE_LOOP('',(#701,#702));
#98=EDGE_LOOP('',(#703));
#99=EDGE_LOOP('',(#704,#705,#706,#707));
#100=EDGE_LOOP('',(#708,#709,#710,#711));
#101=EDGE_LOOP('',(#712,#713,#714,#715));
#102=EDGE_LOOP('',(#716,#717,#718,#719));
#103=EDGE_LOOP('',(#720,#721,#722,#723));
#104=EDGE_LOOP('',(#724,#725,#726,#727,#728,#729));
#105=EDGE_LOOP('',(#730,#731,#732,#733,#734,#735,#736,#737,#738,#739));
#106=EDGE_LOOP('',(#740));
#107=EDGE_LOOP('',(#741));
#108=EDGE_LOOP('',(#742));
#109=EDGE_LOOP('',(#743,#744,#745,#746));
#110=EDGE_LOOP('',(#747,#748,#749,#750));
#111=EDGE_LOOP('',(#751,#752,#753,#754));
#112=EDGE_LOOP('',(#755,#756,#757,#758));
#113=EDGE_LOOP('',(#759,#760,#761,#762));
#114=EDGE_LOOP('',(#763,#764,#765,#766));
#115=EDGE_LOOP('',(#767,#768,#769,#770));
#116=EDGE_LOOP('',(#771,#772,#773,#774));
#117=EDGE_LOOP('',(#775,#776,#777,#778));
#118=EDGE_LOOP('',(#779,#780,#781,#782));
#119=EDGE_LOOP('',(#783,#784,#785,#786));
#120=EDGE_LOOP('',(#787,#788,#789,#790));
#121=EDGE_LOOP('',(#791,#792,#793,#794));
#122=EDGE_LOOP('',(#795,#796,#797,#798,#799,#800,#801,#802,#803,#804,#805,
#806,#807,#808,#809,#810,#811));
#123=EDGE_LOOP('',(#812));
#124=EDGE_LOOP('',(#813));
#125=EDGE_LOOP('',(#814,#815,#816,#817,#818));
#126=EDGE_LOOP('',(#819,#820,#821,#822));
#127=EDGE_LOOP('',(#823,#824,#825,#826));
#128=EDGE_LOOP('',(#827,#828,#829,#830));
#129=EDGE_LOOP('',(#831,#832,#833,#834,#835,#836));
#130=EDGE_LOOP('',(#837,#838,#839,#840));
#131=EDGE_LOOP('',(#841,#842,#843,#844));
#132=EDGE_LOOP('',(#845,#846,#847,#848));
#133=EDGE_LOOP('',(#849,#850,#851,#852));
#134=EDGE_LOOP('',(#853,#854,#855,#856));
#135=EDGE_LOOP('',(#857,#858,#859,#860,#861,#862));
#136=EDGE_LOOP('',(#863,#864,#865,#866,#867));
#137=EDGE_LOOP('',(#868,#869,#870,#871));
#138=EDGE_LOOP('',(#872,#873,#874,#875,#876,#877));
#139=EDGE_LOOP('',(#878,#879,#880,#881,#882,#883));
#140=EDGE_LOOP('',(#884,#885,#886,#887));
#141=EDGE_LOOP('',(#888,#889,#890,#891,#892,#893));
#142=EDGE_LOOP('',(#894,#895,#896,#897));
#143=EDGE_LOOP('',(#898,#899,#900,#901,#902,#903));
#144=EDGE_LOOP('',(#904,#905,#906,#907));
#145=EDGE_LOOP('',(#908,#909,#910,#911,#912,#913));
#146=EDGE_LOOP('',(#914,#915,#916,#917));
#147=EDGE_LOOP('',(#918,#919,#920,#921));
#148=EDGE_LOOP('',(#922,#923,#924,#925));
#149=EDGE_LOOP('',(#926,#927,#928,#929));
#150=EDGE_LOOP('',(#930,#931,#932,#933));
#151=EDGE_LOOP('',(#934,#935,#936,#937));
#152=EDGE_LOOP('',(#938,#939,#940,#941));
#153=EDGE_LOOP('',(#942,#943,#944,#945));
#154=EDGE_LOOP('',(#946,#947));
#155=EDGE_LOOP('',(#948));
#156=EDGE_LOOP('',(#949));
#157=EDGE_LOOP('',(#950,#951,#952,#953,#954,#955,#956,#957,#958,#959,#960,
#961,#962,#963,#964,#965,#966,#967,#968,#969,#970,#971,#972,#973,#974,#975,
#976,#977,#978,#979,#980,#981,#982,#983,#984,#985,#986,#987,#988,#989,#990,
#991,#992));
#158=EDGE_LOOP('',(#993));
#159=CIRCLE('',#1109,6.);
#160=CIRCLE('',#1110,1.25);
#161=CIRCLE('',#1112,1.25);
#162=CIRCLE('',#1114,6.);
#163=CIRCLE('',#1119,2.25);
#164=CIRCLE('',#1120,2.25);
#165=CIRCLE('',#1123,0.5);
#166=CIRCLE('',#1124,0.5);
#167=CIRCLE('',#1126,2.9);
#168=CIRCLE('',#1128,1.25);
#169=CIRCLE('',#1129,1.5);
#170=CIRCLE('',#1130,1.25);
#171=CIRCLE('',#1138,2.25);
#172=CIRCLE('',#1139,2.25);
#173=CIRCLE('',#1142,0.5);
#174=CIRCLE('',#1143,0.5);
#175=CIRCLE('',#1147,1.5);
#176=CIRCLE('',#1150,2.25);
#177=CIRCLE('',#1157,2.9);
#178=CIRCLE('',#1159,1.25);
#179=CIRCLE('',#1161,2.25);
#180=CIRCLE('',#1163,1.25);
#181=CIRCLE('',#1166,5.);
#182=CIRCLE('',#1169,5.);
#183=LINE('',#1482,#311);
#184=LINE('',#1488,#312);
#185=LINE('',#1492,#313);
#186=LINE('',#1494,#314);
#187=LINE('',#1497,#315);
#188=LINE('',#1501,#316);
#189=LINE('',#1503,#317);
#190=LINE('',#1505,#318);
#191=LINE('',#1506,#319);
#192=LINE('',#1510,#320);
#193=LINE('',#1512,#321);
#194=LINE('',#1514,#322);
#195=LINE('',#1515,#323);
#196=LINE('',#1521,#324);
#197=LINE('',#1524,#325);
#198=LINE('',#1527,#326);
#199=LINE('',#1529,#327);
#200=LINE('',#1530,#328);
#201=LINE('',#1537,#329);
#202=LINE('',#1541,#330);
#203=LINE('',#1543,#331);
#204=LINE('',#1545,#332);
#205=LINE('',#1546,#333);
#206=LINE('',#1550,#334);
#207=LINE('',#1552,#335);
#208=LINE('',#1554,#336);
#209=LINE('',#1556,#337);
#210=LINE('',#1558,#338);
#211=LINE('',#1560,#339);
#212=LINE('',#1562,#340);
#213=LINE('',#1564,#341);
#214=LINE('',#1566,#342);
#215=LINE('',#1567,#343);
#216=LINE('',#1576,#344);
#217=LINE('',#1578,#345);
#218=LINE('',#1579,#346);
#219=LINE('',#1582,#347);
#220=LINE('',#1584,#348);
#221=LINE('',#1585,#349);
#222=LINE('',#1588,#350);
#223=LINE('',#1590,#351);
#224=LINE('',#1591,#352);
#225=LINE('',#1592,#353);
#226=LINE('',#1595,#354);
#227=LINE('',#1597,#355);
#228=LINE('',#1598,#356);
#229=LINE('',#1601,#357);
#230=LINE('',#1603,#358);
#231=LINE('',#1604,#359);
#232=LINE('',#1607,#360);
#233=LINE('',#1609,#361);
#234=LINE('',#1610,#362);
#235=LINE('',#1615,#363);
#236=LINE('',#1619,#364);
#237=LINE('',#1621,#365);
#238=LINE('',#1622,#366);
#239=LINE('',#1628,#367);
#240=LINE('',#1630,#368);
#241=LINE('',#1631,#369);
#242=LINE('',#1633,#370);
#243=LINE('',#1634,#371);
#244=LINE('',#1637,#372);
#245=LINE('',#1641,#373);
#246=LINE('',#1642,#374);
#247=LINE('',#1645,#375);
#248=LINE('',#1646,#376);
#249=LINE('',#1652,#377);
#250=LINE('',#1654,#378);
#251=LINE('',#1656,#379);
#252=LINE('',#1658,#380);
#253=LINE('',#1659,#381);
#254=LINE('',#1662,#382);
#255=LINE('',#1664,#383);
#256=LINE('',#1665,#384);
#257=LINE('',#1668,#385);
#258=LINE('',#1670,#386);
#259=LINE('',#1671,#387);
#260=LINE('',#1675,#388);
#261=LINE('',#1677,#389);
#262=LINE('',#1679,#390);
#263=LINE('',#1680,#391);
#264=LINE('',#1682,#392);
#265=LINE('',#1683,#393);
#266=LINE('',#1686,#394);
#267=LINE('',#1689,#395);
#268=LINE('',#1692,#396);
#269=LINE('',#1697,#397);
#270=LINE('',#1700,#398);
#271=LINE('',#1705,#399);
#272=LINE('',#1706,#400);
#273=LINE('',#1707,#401);
#274=LINE('',#1711,#402);
#275=LINE('',#1712,#403);
#276=LINE('',#1714,#404);
#277=LINE('',#1718,#405);
#278=LINE('',#1719,#406);
#279=LINE('',#1720,#407);
#280=LINE('',#1723,#408);
#281=LINE('',#1725,#409);
#282=LINE('',#1729,#410);
#283=LINE('',#1730,#411);
#284=LINE('',#1733,#412);
#285=LINE('',#1734,#413);
#286=LINE('',#1735,#414);
#287=LINE('',#1738,#415);
#288=LINE('',#1739,#416);
#289=LINE('',#1742,#417);
#290=LINE('',#1743,#418);
#291=LINE('',#1746,#419);
#292=LINE('',#1747,#420);
#293=LINE('',#1750,#421);
#294=LINE('',#1751,#422);
#295=LINE('',#1753,#423);
#296=LINE('',#1756,#424);
#297=LINE('',#1757,#425);
#298=LINE('',#1760,#426);
#299=LINE('',#1761,#427);
#300=LINE('',#1764,#428);
#301=LINE('',#1765,#429);
#302=LINE('',#1768,#430);
#303=LINE('',#1769,#431);
#304=LINE('',#1772,#432);
#305=LINE('',#1773,#433);
#306=LINE('',#1776,#434);
#307=LINE('',#1777,#435);
#308=LINE('',#1779,#436);
#309=LINE('',#1781,#437);
#310=LINE('',#1783,#438);
#311=VECTOR('',#1192,10.);
#312=VECTOR('',#1199,1.25);
#313=VECTOR('',#1204,10.);
#314=VECTOR('',#1205,10.);
#315=VECTOR('',#1210,10.);
#316=VECTOR('',#1213,10.);
#317=VECTOR('',#1214,10.);
#318=VECTOR('',#1215,10.);
#319=VECTOR('',#1216,10.);
#320=VECTOR('',#1219,10.);
#321=VECTOR('',#1220,10.);
#322=VECTOR('',#1221,10.);
#323=VECTOR('',#1222,10.);
#324=VECTOR('',#1227,10.);
#325=VECTOR('',#1230,10.);
#326=VECTOR('',#1233,10.);
#327=VECTOR('',#1234,10.);
#328=VECTOR('',#1235,10.);
#329=VECTOR('',#1244,10.);
#330=VECTOR('',#1247,10.);
#331=VECTOR('',#1248,10.);
#332=VECTOR('',#1249,10.);
#333=VECTOR('',#1250,10.);
#334=VECTOR('',#1253,10.);
#335=VECTOR('',#1254,10.);
#336=VECTOR('',#1255,10.);
#337=VECTOR('',#1256,10.);
#338=VECTOR('',#1257,10.);
#339=VECTOR('',#1258,10.);
#340=VECTOR('',#1259,10.);
#341=VECTOR('',#1260,10.);
#342=VECTOR('',#1261,10.);
#343=VECTOR('',#1262,10.);
#344=VECTOR('',#1271,10.);
#345=VECTOR('',#1272,10.);
#346=VECTOR('',#1273,10.);
#347=VECTOR('',#1276,10.);
#348=VECTOR('',#1277,10.);
#349=VECTOR('',#1278,10.);
#350=VECTOR('',#1281,10.);
#351=VECTOR('',#1282,10.);
#352=VECTOR('',#1283,10.);
#353=VECTOR('',#1284,10.);
#354=VECTOR('',#1287,10.);
#355=VECTOR('',#1288,10.);
#356=VECTOR('',#1289,10.);
#357=VECTOR('',#1292,10.);
#358=VECTOR('',#1293,10.);
#359=VECTOR('',#1294,10.);
#360=VECTOR('',#1297,10.);
#361=VECTOR('',#1298,10.);
#362=VECTOR('',#1299,10.);
#363=VECTOR('',#1304,10.);
#364=VECTOR('',#1309,10.);
#365=VECTOR('',#1310,10.);
#366=VECTOR('',#1311,10.);
#367=VECTOR('',#1320,10.);
#368=VECTOR('',#1321,10.);
#369=VECTOR('',#1322,10.);
#370=VECTOR('',#1325,10.);
#371=VECTOR('',#1326,10.);
#372=VECTOR('',#1329,1.5);
#373=VECTOR('',#1334,10.);
#374=VECTOR('',#1335,10.);
#375=VECTOR('',#1338,10.);
#376=VECTOR('',#1339,10.);
#377=VECTOR('',#1344,10.);
#378=VECTOR('',#1345,10.);
#379=VECTOR('',#1346,10.);
#380=VECTOR('',#1347,10.);
#381=VECTOR('',#1348,10.);
#382=VECTOR('',#1351,10.);
#383=VECTOR('',#1352,10.);
#384=VECTOR('',#1353,10.);
#385=VECTOR('',#1356,10.);
#386=VECTOR('',#1357,10.);
#387=VECTOR('',#1358,10.);
#388=VECTOR('',#1361,10.);
#389=VECTOR('',#1362,10.);
#390=VECTOR('',#1363,10.);
#391=VECTOR('',#1364,10.);
#392=VECTOR('',#1367,10.);
#393=VECTOR('',#1368,10.);
#394=VECTOR('',#1371,10.);
#395=VECTOR('',#1374,10.);
#396=VECTOR('',#1377,1.25);
#397=VECTOR('',#1384,1.25);
#398=VECTOR('',#1387,1.25);
#399=VECTOR('',#1392,10.);
#400=VECTOR('',#1393,10.);
#401=VECTOR('',#1394,10.);
#402=VECTOR('',#1397,10.);
#403=VECTOR('',#1398,10.);
#404=VECTOR('',#1399,10.);
#405=VECTOR('',#1404,10.);
#406=VECTOR('',#1405,10.);
#407=VECTOR('',#1406,10.);
#408=VECTOR('',#1409,10.);
#409=VECTOR('',#1410,10.);
#410=VECTOR('',#1415,10.);
#411=VECTOR('',#1416,10.);
#412=VECTOR('',#1419,10.);
#413=VECTOR('',#1420,10.);
#414=VECTOR('',#1421,10.);
#415=VECTOR('',#1424,10.);
#416=VECTOR('',#1425,10.);
#417=VECTOR('',#1428,10.);
#418=VECTOR('',#1429,10.);
#419=VECTOR('',#1432,10.);
#420=VECTOR('',#1433,10.);
#421=VECTOR('',#1436,10.);
#422=VECTOR('',#1437,10.);
#423=VECTOR('',#1440,10.);
#424=VECTOR('',#1443,10.);
#425=VECTOR('',#1444,10.);
#426=VECTOR('',#1447,10.);
#427=VECTOR('',#1448,10.);
#428=VECTOR('',#1451,10.);
#429=VECTOR('',#1452,10.);
#430=VECTOR('',#1455,10.);
#431=VECTOR('',#1456,10.);
#432=VECTOR('',#1459,10.);
#433=VECTOR('',#1460,10.);
#434=VECTOR('',#1463,10.);
#435=VECTOR('',#1464,10.);
#436=VECTOR('',#1467,10.);
#437=VECTOR('',#1470,10.);
#438=VECTOR('',#1473,10.);
#439=VERTEX_POINT('',#1480);
#440=VERTEX_POINT('',#1481);
#441=VERTEX_POINT('',#1484);
#442=VERTEX_POINT('',#1487);
#443=VERTEX_POINT('',#1491);
#444=VERTEX_POINT('',#1493);
#445=VERTEX_POINT('',#1499);
#446=VERTEX_POINT('',#1500);
#447=VERTEX_POINT('',#1502);
#448=VERTEX_POINT('',#1504);
#449=VERTEX_POINT('',#1508);
#450=VERTEX_POINT('',#1509);
#451=VERTEX_POINT('',#1511);
#452=VERTEX_POINT('',#1513);
#453=VERTEX_POINT('',#1517);
#454=VERTEX_POINT('',#1518);
#455=VERTEX_POINT('',#1520);
#456=VERTEX_POINT('',#1522);
#457=VERTEX_POINT('',#1526);
#458=VERTEX_POINT('',#1528);
#459=VERTEX_POINT('',#1535);
#460=VERTEX_POINT('',#1536);
#461=VERTEX_POINT('',#1538);
#462=VERTEX_POINT('',#1540);
#463=VERTEX_POINT('',#1542);
#464=VERTEX_POINT('',#1544);
#465=VERTEX_POINT('',#1548);
#466=VERTEX_POINT('',#1549);
#467=VERTEX_POINT('',#1551);
#468=VERTEX_POINT('',#1553);
#469=VERTEX_POINT('',#1555);
#470=VERTEX_POINT('',#1557);
#471=VERTEX_POINT('',#1559);
#472=VERTEX_POINT('',#1561);
#473=VERTEX_POINT('',#1563);
#474=VERTEX_POINT('',#1565);
#475=VERTEX_POINT('',#1568);
#476=VERTEX_POINT('',#1570);
#477=VERTEX_POINT('',#1572);
#478=VERTEX_POINT('',#1575);
#479=VERTEX_POINT('',#1577);
#480=VERTEX_POINT('',#1581);
#481=VERTEX_POINT('',#1583);
#482=VERTEX_POINT('',#1587);
#483=VERTEX_POINT('',#1589);
#484=VERTEX_POINT('',#1594);
#485=VERTEX_POINT('',#1596);
#486=VERTEX_POINT('',#1600);
#487=VERTEX_POINT('',#1602);
#488=VERTEX_POINT('',#1606);
#489=VERTEX_POINT('',#1608);
#490=VERTEX_POINT('',#1612);
#491=VERTEX_POINT('',#1614);
#492=VERTEX_POINT('',#1618);
#493=VERTEX_POINT('',#1620);
#494=VERTEX_POINT('',#1627);
#495=VERTEX_POINT('',#1629);
#496=VERTEX_POINT('',#1636);
#497=VERTEX_POINT('',#1640);
#498=VERTEX_POINT('',#1644);
#499=VERTEX_POINT('',#1647);
#500=VERTEX_POINT('',#1650);
#501=VERTEX_POINT('',#1651);
#502=VERTEX_POINT('',#1653);
#503=VERTEX_POINT('',#1655);
#504=VERTEX_POINT('',#1657);
#505=VERTEX_POINT('',#1661);
#506=VERTEX_POINT('',#1663);
#507=VERTEX_POINT('',#1667);
#508=VERTEX_POINT('',#1669);
#509=VERTEX_POINT('',#1673);
#510=VERTEX_POINT('',#1674);
#511=VERTEX_POINT('',#1676);
#512=VERTEX_POINT('',#1678);
#513=VERTEX_POINT('',#1685);
#514=VERTEX_POINT('',#1687);
#515=VERTEX_POINT('',#1691);
#516=VERTEX_POINT('',#1695);
#517=VERTEX_POINT('',#1699);
#518=VERTEX_POINT('',#1703);
#519=VERTEX_POINT('',#1704);
#520=VERTEX_POINT('',#1709);
#521=VERTEX_POINT('',#1710);
#522=VERTEX_POINT('',#1713);
#523=VERTEX_POINT('',#1717);
#524=VERTEX_POINT('',#1722);
#525=VERTEX_POINT('',#1724);
#526=VERTEX_POINT('',#1728);
#527=VERTEX_POINT('',#1732);
#528=VERTEX_POINT('',#1737);
#529=VERTEX_POINT('',#1741);
#530=VERTEX_POINT('',#1745);
#531=VERTEX_POINT('',#1749);
#532=VERTEX_POINT('',#1755);
#533=VERTEX_POINT('',#1759);
#534=VERTEX_POINT('',#1763);
#535=VERTEX_POINT('',#1767);
#536=VERTEX_POINT('',#1771);
#537=VERTEX_POINT('',#1775);
#538=EDGE_CURVE('',#439,#440,#183,.T.);
#539=EDGE_CURVE('',#439,#440,#159,.T.);
#540=EDGE_CURVE('',#441,#441,#160,.T.);
#541=EDGE_CURVE('',#441,#442,#184,.T.);
#542=EDGE_CURVE('',#442,#442,#161,.T.);
#543=EDGE_CURVE('',#440,#443,#185,.T.);
#544=EDGE_CURVE('',#444,#439,#186,.T.);
#545=EDGE_CURVE('',#443,#444,#162,.T.);
#546=EDGE_CURVE('',#443,#444,#187,.T.);
#547=EDGE_CURVE('',#445,#446,#188,.T.);
#548=EDGE_CURVE('',#447,#445,#189,.T.);
#549=EDGE_CURVE('',#447,#448,#190,.T.);
#550=EDGE_CURVE('',#446,#448,#191,.T.);
#551=EDGE_CURVE('',#449,#450,#192,.T.);
#552=EDGE_CURVE('',#449,#451,#193,.T.);
#553=EDGE_CURVE('',#451,#452,#194,.T.);
#554=EDGE_CURVE('',#452,#450,#195,.T.);
#555=EDGE_CURVE('',#453,#454,#163,.T.);
#556=EDGE_CURVE('',#455,#453,#196,.T.);
#557=EDGE_CURVE('',#455,#456,#164,.T.);
#558=EDGE_CURVE('',#454,#456,#197,.T.);
#559=EDGE_CURVE('',#454,#457,#198,.T.);
#560=EDGE_CURVE('',#456,#458,#199,.T.);
#561=EDGE_CURVE('',#457,#458,#200,.T.);
#562=EDGE_CURVE('',#457,#445,#165,.T.);
#563=EDGE_CURVE('',#458,#447,#166,.T.);
#564=EDGE_CURVE('',#459,#460,#201,.T.);
#565=EDGE_CURVE('',#459,#461,#167,.T.);
#566=EDGE_CURVE('',#462,#461,#202,.T.);
#567=EDGE_CURVE('',#463,#462,#203,.T.);
#568=EDGE_CURVE('',#463,#464,#204,.T.);
#569=EDGE_CURVE('',#464,#460,#205,.T.);
#570=EDGE_CURVE('',#465,#466,#206,.F.);
#571=EDGE_CURVE('',#466,#467,#207,.F.);
#572=EDGE_CURVE('',#467,#468,#208,.F.);
#573=EDGE_CURVE('',#468,#469,#209,.F.);
#574=EDGE_CURVE('',#469,#470,#210,.F.);
#575=EDGE_CURVE('',#470,#471,#211,.F.);
#576=EDGE_CURVE('',#471,#472,#212,.F.);
#577=EDGE_CURVE('',#472,#473,#213,.F.);
#578=EDGE_CURVE('',#473,#474,#214,.F.);
#579=EDGE_CURVE('',#474,#465,#215,.F.);
#580=EDGE_CURVE('',#475,#475,#168,.T.);
#581=EDGE_CURVE('',#476,#476,#169,.T.);
#582=EDGE_CURVE('',#477,#477,#170,.T.);
#583=EDGE_CURVE('',#478,#453,#216,.T.);
#584=EDGE_CURVE('',#479,#478,#217,.T.);
#585=EDGE_CURVE('',#479,#455,#218,.T.);
#586=EDGE_CURVE('',#480,#478,#219,.T.);
#587=EDGE_CURVE('',#481,#480,#220,.T.);
#588=EDGE_CURVE('',#481,#479,#221,.T.);
#589=EDGE_CURVE('',#482,#449,#222,.T.);
#590=EDGE_CURVE('',#483,#482,#223,.T.);
#591=EDGE_CURVE('',#483,#451,#224,.T.);
#592=EDGE_CURVE('',#449,#451,#225,.T.);
#593=EDGE_CURVE('',#484,#449,#226,.T.);
#594=EDGE_CURVE('',#484,#485,#227,.T.);
#595=EDGE_CURVE('',#485,#451,#228,.T.);
#596=EDGE_CURVE('',#486,#480,#229,.T.);
#597=EDGE_CURVE('',#487,#486,#230,.T.);
#598=EDGE_CURVE('',#487,#481,#231,.T.);
#599=EDGE_CURVE('',#488,#482,#232,.T.);
#600=EDGE_CURVE('',#489,#488,#233,.T.);
#601=EDGE_CURVE('',#489,#483,#234,.T.);
#602=EDGE_CURVE('',#490,#484,#171,.T.);
#603=EDGE_CURVE('',#491,#490,#235,.T.);
#604=EDGE_CURVE('',#491,#485,#172,.T.);
#605=EDGE_CURVE('',#492,#486,#236,.T.);
#606=EDGE_CURVE('',#493,#492,#237,.T.);
#607=EDGE_CURVE('',#493,#487,#238,.T.);
#608=EDGE_CURVE('',#446,#488,#173,.T.);
#609=EDGE_CURVE('',#448,#489,#174,.T.);
#610=EDGE_CURVE('',#494,#492,#239,.T.);
#611=EDGE_CURVE('',#495,#494,#240,.T.);
#612=EDGE_CURVE('',#495,#493,#241,.T.);
#613=EDGE_CURVE('',#460,#494,#242,.T.);
#614=EDGE_CURVE('',#464,#495,#243,.T.);
#615=EDGE_CURVE('',#476,#496,#244,.T.);
#616=EDGE_CURVE('',#496,#496,#175,.T.);
#617=EDGE_CURVE('',#497,#491,#245,.T.);
#618=EDGE_CURVE('',#451,#497,#246,.T.);
#619=EDGE_CURVE('',#498,#463,#247,.T.);
#620=EDGE_CURVE('',#452,#498,#248,.T.);
#621=EDGE_CURVE('',#499,#499,#176,.T.);
#622=EDGE_CURVE('',#500,#501,#249,.T.);
#623=EDGE_CURVE('',#502,#501,#250,.T.);
#624=EDGE_CURVE('',#503,#502,#251,.T.);
#625=EDGE_CURVE('',#503,#504,#252,.T.);
#626=EDGE_CURVE('',#500,#504,#253,.T.);
#627=EDGE_CURVE('',#505,#500,#254,.T.);
#628=EDGE_CURVE('',#504,#506,#255,.T.);
#629=EDGE_CURVE('',#506,#505,#256,.T.);
#630=EDGE_CURVE('',#507,#505,#257,.T.);
#631=EDGE_CURVE('',#506,#508,#258,.T.);
#632=EDGE_CURVE('',#507,#508,#259,.T.);
#633=EDGE_CURVE('',#509,#510,#260,.T.);
#634=EDGE_CURVE('',#510,#511,#261,.T.);
#635=EDGE_CURVE('',#512,#511,#262,.T.);
#636=EDGE_CURVE('',#509,#512,#263,.T.);
#637=EDGE_CURVE('',#507,#512,#264,.T.);
#638=EDGE_CURVE('',#511,#501,#265,.T.);
#639=EDGE_CURVE('',#513,#459,#266,.T.);
#640=EDGE_CURVE('',#514,#513,#177,.T.);
#641=EDGE_CURVE('',#461,#514,#267,.T.);
#642=EDGE_CURVE('',#475,#515,#268,.T.);
#643=EDGE_CURVE('',#515,#515,#178,.T.);
#644=EDGE_CURVE('',#516,#516,#179,.T.);
#645=EDGE_CURVE('',#516,#499,#269,.T.);
#646=EDGE_CURVE('',#477,#517,#270,.T.);
#647=EDGE_CURVE('',#517,#517,#180,.T.);
#648=EDGE_CURVE('',#518,#519,#271,.T.);
#649=EDGE_CURVE('',#467,#518,#272,.F.);
#650=EDGE_CURVE('',#519,#466,#273,.T.);
#651=EDGE_CURVE('',#520,#521,#274,.T.);
#652=EDGE_CURVE('',#468,#520,#275,.F.);
#653=EDGE_CURVE('',#522,#518,#276,.T.);
#654=EDGE_CURVE('',#522,#521,#181,.T.);
#655=EDGE_CURVE('',#519,#523,#277,.T.);
#656=EDGE_CURVE('',#465,#502,#278,.F.);
#657=EDGE_CURVE('',#502,#523,#279,.F.);
#658=EDGE_CURVE('',#521,#524,#280,.T.);
#659=EDGE_CURVE('',#525,#522,#281,.T.);
#660=EDGE_CURVE('',#524,#525,#182,.T.);
#661=EDGE_CURVE('',#523,#526,#282,.T.);
#662=EDGE_CURVE('',#510,#526,#283,.T.);
#663=EDGE_CURVE('',#524,#527,#284,.T.);
#664=EDGE_CURVE('',#450,#525,#285,.T.);
#665=EDGE_CURVE('',#498,#527,#286,.T.);
#666=EDGE_CURVE('',#526,#528,#287,.T.);
#667=EDGE_CURVE('',#528,#509,#288,.T.);
#668=EDGE_CURVE('',#528,#529,#289,.T.);
#669=EDGE_CURVE('',#508,#529,#290,.T.);
#670=EDGE_CURVE('',#449,#530,#291,.T.);
#671=EDGE_CURVE('',#530,#497,#292,.T.);
#672=EDGE_CURVE('',#529,#531,#293,.T.);
#673=EDGE_CURVE('',#531,#503,#294,.T.);
#674=EDGE_CURVE('',#530,#490,#295,.T.);
#675=EDGE_CURVE('',#531,#532,#296,.T.);
#676=EDGE_CURVE('',#474,#532,#297,.F.);
#677=EDGE_CURVE('',#532,#533,#298,.T.);
#678=EDGE_CURVE('',#473,#533,#299,.T.);
#679=EDGE_CURVE('',#533,#534,#300,.T.);
#680=EDGE_CURVE('',#472,#534,#301,.F.);
#681=EDGE_CURVE('',#534,#535,#302,.T.);
#682=EDGE_CURVE('',#471,#535,#303,.T.);
#683=EDGE_CURVE('',#535,#536,#304,.T.);
#684=EDGE_CURVE('',#470,#536,#305,.F.);
#685=EDGE_CURVE('',#536,#537,#306,.T.);
#686=EDGE_CURVE('',#469,#537,#307,.F.);
#687=EDGE_CURVE('',#537,#520,#308,.T.);
#688=EDGE_CURVE('',#527,#462,#309,.T.);
#689=EDGE_CURVE('',#514,#513,#310,.T.);
#690=ORIENTED_EDGE('',*,*,#538,.F.);
#691=ORIENTED_EDGE('',*,*,#539,.T.);
#692=ORIENTED_EDGE('',*,*,#540,.T.);
#693=ORIENTED_EDGE('',*,*,#540,.F.);
#694=ORIENTED_EDGE('',*,*,#541,.T.);
#695=ORIENTED_EDGE('',*,*,#542,.F.);
#696=ORIENTED_EDGE('',*,*,#541,.F.);
#697=ORIENTED_EDGE('',*,*,#543,.F.);
#698=ORIENTED_EDGE('',*,*,#539,.F.);
#699=ORIENTED_EDGE('',*,*,#544,.F.);
#700=ORIENTED_EDGE('',*,*,#545,.F.);
#701=ORIENTED_EDGE('',*,*,#546,.F.);
#702=ORIENTED_EDGE('',*,*,#545,.T.);
#703=ORIENTED_EDGE('',*,*,#542,.T.);
#704=ORIENTED_EDGE('',*,*,#547,.F.);
#705=ORIENTED_EDGE('',*,*,#548,.F.);
#706=ORIENTED_EDGE('',*,*,#549,.T.);
#707=ORIENTED_EDGE('',*,*,#550,.F.);
#708=ORIENTED_EDGE('',*,*,#551,.F.);
#709=ORIENTED_EDGE('',*,*,#552,.T.);
#710=ORIENTED_EDGE('',*,*,#553,.T.);
#711=ORIENTED_EDGE('',*,*,#554,.T.);
#712=ORIENTED_EDGE('',*,*,#555,.F.);
#713=ORIENTED_EDGE('',*,*,#556,.F.);
#714=ORIENTED_EDGE('',*,*,#557,.T.);
#715=ORIENTED_EDGE('',*,*,#558,.F.);
#716=ORIENTED_EDGE('',*,*,#559,.F.);
#717=ORIENTED_EDGE('',*,*,#558,.T.);
#718=ORIENTED_EDGE('',*,*,#560,.T.);
#719=ORIENTED_EDGE('',*,*,#561,.F.);
#720=ORIENTED_EDGE('',*,*,#562,.F.);
#721=ORIENTED_EDGE('',*,*,#561,.T.);
#722=ORIENTED_EDGE('',*,*,#563,.T.);
#723=ORIENTED_EDGE('',*,*,#548,.T.);
#724=ORIENTED_EDGE('',*,*,#564,.F.);
#725=ORIENTED_EDGE('',*,*,#565,.T.);
#726=ORIENTED_EDGE('',*,*,#566,.F.);
#727=ORIENTED_EDGE('',*,*,#567,.F.);
#728=ORIENTED_EDGE('',*,*,#568,.T.);
#729=ORIENTED_EDGE('',*,*,#569,.T.);
#730=ORIENTED_EDGE('',*,*,#570,.T.);
#731=ORIENTED_EDGE('',*,*,#571,.T.);
#732=ORIENTED_EDGE('',*,*,#572,.T.);
#733=ORIENTED_EDGE('',*,*,#573,.T.);
#734=ORIENTED_EDGE('',*,*,#574,.T.);
#735=ORIENTED_EDGE('',*,*,#575,.T.);
#736=ORIENTED_EDGE('',*,*,#576,.T.);
#737=ORIENTED_EDGE('',*,*,#577,.T.);
#738=ORIENTED_EDGE('',*,*,#578,.T.);
#739=ORIENTED_EDGE('',*,*,#579,.T.);
#740=ORIENTED_EDGE('',*,*,#580,.T.);
#741=ORIENTED_EDGE('',*,*,#581,.T.);
#742=ORIENTED_EDGE('',*,*,#582,.T.);
#743=ORIENTED_EDGE('',*,*,#583,.F.);
#744=ORIENTED_EDGE('',*,*,#584,.F.);
#745=ORIENTED_EDGE('',*,*,#585,.T.);
#746=ORIENTED_EDGE('',*,*,#556,.T.);
#747=ORIENTED_EDGE('',*,*,#586,.F.);
#748=ORIENTED_EDGE('',*,*,#587,.F.);
#749=ORIENTED_EDGE('',*,*,#588,.T.);
#750=ORIENTED_EDGE('',*,*,#584,.T.);
#751=ORIENTED_EDGE('',*,*,#589,.F.);
#752=ORIENTED_EDGE('',*,*,#590,.F.);
#753=ORIENTED_EDGE('',*,*,#591,.T.);
#754=ORIENTED_EDGE('',*,*,#592,.F.);
#755=ORIENTED_EDGE('',*,*,#593,.F.);
#756=ORIENTED_EDGE('',*,*,#594,.T.);
#757=ORIENTED_EDGE('',*,*,#595,.T.);
#758=ORIENTED_EDGE('',*,*,#552,.F.);
#759=ORIENTED_EDGE('',*,*,#596,.F.);
#760=ORIENTED_EDGE('',*,*,#597,.F.);
#761=ORIENTED_EDGE('',*,*,#598,.T.);
#762=ORIENTED_EDGE('',*,*,#587,.T.);
#763=ORIENTED_EDGE('',*,*,#599,.F.);
#764=ORIENTED_EDGE('',*,*,#600,.F.);
#765=ORIENTED_EDGE('',*,*,#601,.T.);
#766=ORIENTED_EDGE('',*,*,#590,.T.);
#767=ORIENTED_EDGE('',*,*,#602,.F.);
#768=ORIENTED_EDGE('',*,*,#603,.F.);
#769=ORIENTED_EDGE('',*,*,#604,.T.);
#770=ORIENTED_EDGE('',*,*,#594,.F.);
#771=ORIENTED_EDGE('',*,*,#605,.F.);
#772=ORIENTED_EDGE('',*,*,#606,.F.);
#773=ORIENTED_EDGE('',*,*,#607,.T.);
#774=ORIENTED_EDGE('',*,*,#597,.T.);
#775=ORIENTED_EDGE('',*,*,#608,.F.);
#776=ORIENTED_EDGE('',*,*,#550,.T.);
#777=ORIENTED_EDGE('',*,*,#609,.T.);
#778=ORIENTED_EDGE('',*,*,#600,.T.);
#779=ORIENTED_EDGE('',*,*,#610,.F.);
#780=ORIENTED_EDGE('',*,*,#611,.F.);
#781=ORIENTED_EDGE('',*,*,#612,.T.);
#782=ORIENTED_EDGE('',*,*,#606,.T.);
#783=ORIENTED_EDGE('',*,*,#613,.F.);
#784=ORIENTED_EDGE('',*,*,#569,.F.);
#785=ORIENTED_EDGE('',*,*,#614,.T.);
#786=ORIENTED_EDGE('',*,*,#611,.T.);
#787=ORIENTED_EDGE('',*,*,#581,.F.);
#788=ORIENTED_EDGE('',*,*,#615,.T.);
#789=ORIENTED_EDGE('',*,*,#616,.F.);
#790=ORIENTED_EDGE('',*,*,#615,.F.);
#791=ORIENTED_EDGE('',*,*,#604,.F.);
#792=ORIENTED_EDGE('',*,*,#617,.F.);
#793=ORIENTED_EDGE('',*,*,#618,.F.);
#794=ORIENTED_EDGE('',*,*,#595,.F.);
#795=ORIENTED_EDGE('',*,*,#591,.F.);
#796=ORIENTED_EDGE('',*,*,#601,.F.);
#797=ORIENTED_EDGE('',*,*,#609,.F.);
#798=ORIENTED_EDGE('',*,*,#549,.F.);
#799=ORIENTED_EDGE('',*,*,#563,.F.);
#800=ORIENTED_EDGE('',*,*,#560,.F.);
#801=ORIENTED_EDGE('',*,*,#557,.F.);
#802=ORIENTED_EDGE('',*,*,#585,.F.);
#803=ORIENTED_EDGE('',*,*,#588,.F.);
#804=ORIENTED_EDGE('',*,*,#598,.F.);
#805=ORIENTED_EDGE('',*,*,#607,.F.);
#806=ORIENTED_EDGE('',*,*,#612,.F.);
#807=ORIENTED_EDGE('',*,*,#614,.F.);
#808=ORIENTED_EDGE('',*,*,#568,.F.);
#809=ORIENTED_EDGE('',*,*,#619,.F.);
#810=ORIENTED_EDGE('',*,*,#620,.F.);
#811=ORIENTED_EDGE('',*,*,#553,.F.);
#812=ORIENTED_EDGE('',*,*,#616,.T.);
#813=ORIENTED_EDGE('',*,*,#621,.F.);
#814=ORIENTED_EDGE('',*,*,#622,.T.);
#815=ORIENTED_EDGE('',*,*,#623,.F.);
#816=ORIENTED_EDGE('',*,*,#624,.F.);
#817=ORIENTED_EDGE('',*,*,#625,.T.);
#818=ORIENTED_EDGE('',*,*,#626,.F.);
#819=ORIENTED_EDGE('',*,*,#627,.T.);
#820=ORIENTED_EDGE('',*,*,#626,.T.);
#821=ORIENTED_EDGE('',*,*,#628,.T.);
#822=ORIENTED_EDGE('',*,*,#629,.T.);
#823=ORIENTED_EDGE('',*,*,#630,.T.);
#824=ORIENTED_EDGE('',*,*,#629,.F.);
#825=ORIENTED_EDGE('',*,*,#631,.T.);
#826=ORIENTED_EDGE('',*,*,#632,.F.);
#827=ORIENTED_EDGE('',*,*,#633,.T.);
#828=ORIENTED_EDGE('',*,*,#634,.T.);
#829=ORIENTED_EDGE('',*,*,#635,.F.);
#830=ORIENTED_EDGE('',*,*,#636,.F.);
#831=ORIENTED_EDGE('',*,*,#622,.F.);
#832=ORIENTED_EDGE('',*,*,#627,.F.);
#833=ORIENTED_EDGE('',*,*,#630,.F.);
#834=ORIENTED_EDGE('',*,*,#637,.T.);
#835=ORIENTED_EDGE('',*,*,#635,.T.);
#836=ORIENTED_EDGE('',*,*,#638,.T.);
#837=ORIENTED_EDGE('',*,*,#639,.F.);
#838=ORIENTED_EDGE('',*,*,#640,.F.);
#839=ORIENTED_EDGE('',*,*,#641,.F.);
#840=ORIENTED_EDGE('',*,*,#565,.F.);
#841=ORIENTED_EDGE('',*,*,#580,.F.);
#842=ORIENTED_EDGE('',*,*,#642,.T.);
#843=ORIENTED_EDGE('',*,*,#643,.F.);
#844=ORIENTED_EDGE('',*,*,#642,.F.);
#845=ORIENTED_EDGE('',*,*,#644,.F.);
#846=ORIENTED_EDGE('',*,*,#645,.T.);
#847=ORIENTED_EDGE('',*,*,#621,.T.);
#848=ORIENTED_EDGE('',*,*,#645,.F.);
#849=ORIENTED_EDGE('',*,*,#582,.F.);
#850=ORIENTED_EDGE('',*,*,#646,.T.);
#851=ORIENTED_EDGE('',*,*,#647,.F.);
#852=ORIENTED_EDGE('',*,*,#646,.F.);
#853=ORIENTED_EDGE('',*,*,#648,.F.);
#854=ORIENTED_EDGE('',*,*,#649,.F.);
#855=ORIENTED_EDGE('',*,*,#571,.F.);
#856=ORIENTED_EDGE('',*,*,#650,.F.);
#857=ORIENTED_EDGE('',*,*,#651,.F.);
#858=ORIENTED_EDGE('',*,*,#652,.F.);
#859=ORIENTED_EDGE('',*,*,#572,.F.);
#860=ORIENTED_EDGE('',*,*,#649,.T.);
#861=ORIENTED_EDGE('',*,*,#653,.F.);
#862=ORIENTED_EDGE('',*,*,#654,.T.);
#863=ORIENTED_EDGE('',*,*,#655,.F.);
#864=ORIENTED_EDGE('',*,*,#650,.T.);
#865=ORIENTED_EDGE('',*,*,#570,.F.);
#866=ORIENTED_EDGE('',*,*,#656,.T.);
#867=ORIENTED_EDGE('',*,*,#657,.T.);
#868=ORIENTED_EDGE('',*,*,#658,.F.);
#869=ORIENTED_EDGE('',*,*,#654,.F.);
#870=ORIENTED_EDGE('',*,*,#659,.F.);
#871=ORIENTED_EDGE('',*,*,#660,.F.);
#872=ORIENTED_EDGE('',*,*,#661,.F.);
#873=ORIENTED_EDGE('',*,*,#657,.F.);
#874=ORIENTED_EDGE('',*,*,#623,.T.);
#875=ORIENTED_EDGE('',*,*,#638,.F.);
#876=ORIENTED_EDGE('',*,*,#634,.F.);
#877=ORIENTED_EDGE('',*,*,#662,.T.);
#878=ORIENTED_EDGE('',*,*,#663,.F.);
#879=ORIENTED_EDGE('',*,*,#660,.T.);
#880=ORIENTED_EDGE('',*,*,#664,.F.);
#881=ORIENTED_EDGE('',*,*,#554,.F.);
#882=ORIENTED_EDGE('',*,*,#620,.T.);
#883=ORIENTED_EDGE('',*,*,#665,.T.);
#884=ORIENTED_EDGE('',*,*,#666,.F.);
#885=ORIENTED_EDGE('',*,*,#662,.F.);
#886=ORIENTED_EDGE('',*,*,#633,.F.);
#887=ORIENTED_EDGE('',*,*,#667,.F.);
#888=ORIENTED_EDGE('',*,*,#668,.F.);
#889=ORIENTED_EDGE('',*,*,#667,.T.);
#890=ORIENTED_EDGE('',*,*,#636,.T.);
#891=ORIENTED_EDGE('',*,*,#637,.F.);
#892=ORIENTED_EDGE('',*,*,#632,.T.);
#893=ORIENTED_EDGE('',*,*,#669,.T.);
#894=ORIENTED_EDGE('',*,*,#670,.F.);
#895=ORIENTED_EDGE('',*,*,#592,.T.);
#896=ORIENTED_EDGE('',*,*,#618,.T.);
#897=ORIENTED_EDGE('',*,*,#671,.F.);
#898=ORIENTED_EDGE('',*,*,#672,.F.);
#899=ORIENTED_EDGE('',*,*,#669,.F.);
#900=ORIENTED_EDGE('',*,*,#631,.F.);
#901=ORIENTED_EDGE('',*,*,#628,.F.);
#902=ORIENTED_EDGE('',*,*,#625,.F.);
#903=ORIENTED_EDGE('',*,*,#673,.F.);
#904=ORIENTED_EDGE('',*,*,#674,.F.);
#905=ORIENTED_EDGE('',*,*,#671,.T.);
#906=ORIENTED_EDGE('',*,*,#617,.T.);
#907=ORIENTED_EDGE('',*,*,#603,.T.);
#908=ORIENTED_EDGE('',*,*,#675,.F.);
#909=ORIENTED_EDGE('',*,*,#673,.T.);
#910=ORIENTED_EDGE('',*,*,#624,.T.);
#911=ORIENTED_EDGE('',*,*,#656,.F.);
#912=ORIENTED_EDGE('',*,*,#579,.F.);
#913=ORIENTED_EDGE('',*,*,#676,.T.);
#914=ORIENTED_EDGE('',*,*,#677,.F.);
#915=ORIENTED_EDGE('',*,*,#676,.F.);
#916=ORIENTED_EDGE('',*,*,#578,.F.);
#917=ORIENTED_EDGE('',*,*,#678,.T.);
#918=ORIENTED_EDGE('',*,*,#679,.F.);
#919=ORIENTED_EDGE('',*,*,#678,.F.);
#920=ORIENTED_EDGE('',*,*,#577,.F.);
#921=ORIENTED_EDGE('',*,*,#680,.T.);
#922=ORIENTED_EDGE('',*,*,#681,.F.);
#923=ORIENTED_EDGE('',*,*,#680,.F.);
#924=ORIENTED_EDGE('',*,*,#576,.F.);
#925=ORIENTED_EDGE('',*,*,#682,.T.);
#926=ORIENTED_EDGE('',*,*,#683,.F.);
#927=ORIENTED_EDGE('',*,*,#682,.F.);
#928=ORIENTED_EDGE('',*,*,#575,.F.);
#929=ORIENTED_EDGE('',*,*,#684,.T.);
#930=ORIENTED_EDGE('',*,*,#685,.F.);
#931=ORIENTED_EDGE('',*,*,#684,.F.);
#932=ORIENTED_EDGE('',*,*,#574,.F.);
#933=ORIENTED_EDGE('',*,*,#686,.T.);
#934=ORIENTED_EDGE('',*,*,#687,.F.);
#935=ORIENTED_EDGE('',*,*,#686,.F.);
#936=ORIENTED_EDGE('',*,*,#573,.F.);
#937=ORIENTED_EDGE('',*,*,#652,.T.);
#938=ORIENTED_EDGE('',*,*,#544,.T.);
#939=ORIENTED_EDGE('',*,*,#538,.T.);
#940=ORIENTED_EDGE('',*,*,#543,.T.);
#941=ORIENTED_EDGE('',*,*,#546,.T.);
#942=ORIENTED_EDGE('',*,*,#688,.F.);
#943=ORIENTED_EDGE('',*,*,#665,.F.);
#944=ORIENTED_EDGE('',*,*,#619,.T.);
#945=ORIENTED_EDGE('',*,*,#567,.T.);
#946=ORIENTED_EDGE('',*,*,#689,.F.);
#947=ORIENTED_EDGE('',*,*,#640,.T.);
#948=ORIENTED_EDGE('',*,*,#644,.T.);
#949=ORIENTED_EDGE('',*,*,#647,.T.);
#950=ORIENTED_EDGE('',*,*,#648,.T.);
#951=ORIENTED_EDGE('',*,*,#655,.T.);
#952=ORIENTED_EDGE('',*,*,#661,.T.);
#953=ORIENTED_EDGE('',*,*,#666,.T.);
#954=ORIENTED_EDGE('',*,*,#668,.T.);
#955=ORIENTED_EDGE('',*,*,#672,.T.);
#956=ORIENTED_EDGE('',*,*,#675,.T.);
#957=ORIENTED_EDGE('',*,*,#677,.T.);
#958=ORIENTED_EDGE('',*,*,#679,.T.);
#959=ORIENTED_EDGE('',*,*,#681,.T.);
#960=ORIENTED_EDGE('',*,*,#683,.T.);
#961=ORIENTED_EDGE('',*,*,#685,.T.);
#962=ORIENTED_EDGE('',*,*,#687,.T.);
#963=ORIENTED_EDGE('',*,*,#651,.T.);
#964=ORIENTED_EDGE('',*,*,#658,.T.);
#965=ORIENTED_EDGE('',*,*,#663,.T.);
#966=ORIENTED_EDGE('',*,*,#688,.T.);
#967=ORIENTED_EDGE('',*,*,#566,.T.);
#968=ORIENTED_EDGE('',*,*,#641,.T.);
#969=ORIENTED_EDGE('',*,*,#689,.T.);
#970=ORIENTED_EDGE('',*,*,#639,.T.);
#971=ORIENTED_EDGE('',*,*,#564,.T.);
#972=ORIENTED_EDGE('',*,*,#613,.T.);
#973=ORIENTED_EDGE('',*,*,#610,.T.);
#974=ORIENTED_EDGE('',*,*,#605,.T.);
#975=ORIENTED_EDGE('',*,*,#596,.T.);
#976=ORIENTED_EDGE('',*,*,#586,.T.);
#977=ORIENTED_EDGE('',*,*,#583,.T.);
#978=ORIENTED_EDGE('',*,*,#555,.T.);
#979=ORIENTED_EDGE('',*,*,#559,.T.);
#980=ORIENTED_EDGE('',*,*,#562,.T.);
#981=ORIENTED_EDGE('',*,*,#547,.T.);
#982=ORIENTED_EDGE('',*,*,#608,.T.);
#983=ORIENTED_EDGE('',*,*,#599,.T.);
#984=ORIENTED_EDGE('',*,*,#589,.T.);
#985=ORIENTED_EDGE('',*,*,#670,.T.);
#986=ORIENTED_EDGE('',*,*,#674,.T.);
#987=ORIENTED_EDGE('',*,*,#602,.T.);
#988=ORIENTED_EDGE('',*,*,#593,.T.);
#989=ORIENTED_EDGE('',*,*,#551,.T.);
#990=ORIENTED_EDGE('',*,*,#664,.T.);
#991=ORIENTED_EDGE('',*,*,#659,.T.);
#992=ORIENTED_EDGE('',*,*,#653,.T.);
#993=ORIENTED_EDGE('',*,*,#643,.T.);
#994=PLANE('',#1108);
#995=PLANE('',#1115);
#996=PLANE('',#1116);
#997=PLANE('',#1117);
#998=PLANE('',#1121);
#999=PLANE('',#1125);
#1000=PLANE('',#1127);
#1001=PLANE('',#1131);
#1002=PLANE('',#1132);
#1003=PLANE('',#1133);
#1004=PLANE('',#1134);
#1005=PLANE('',#1135);
#1006=PLANE('',#1136);
#1007=PLANE('',#1140);
#1008=PLANE('',#1144);
#1009=PLANE('',#1145);
#1010=PLANE('',#1148);
#1011=PLANE('',#1149);
#1012=PLANE('',#1151);
#1013=PLANE('',#1152);
#1014=PLANE('',#1153);
#1015=PLANE('',#1154);
#1016=PLANE('',#1155);
#1017=PLANE('',#1164);
#1018=PLANE('',#1165);
#1019=PLANE('',#1167);
#1020=PLANE('',#1170);
#1021=PLANE('',#1171);
#1022=PLANE('',#1172);
#1023=PLANE('',#1173);
#1024=PLANE('',#1174);
#1025=PLANE('',#1175);
#1026=PLANE('',#1176);
#1027=PLANE('',#1177);
#1028=PLANE('',#1178);
#1029=PLANE('',#1179);
#1030=PLANE('',#1180);
#1031=PLANE('',#1181);
#1032=PLANE('',#1182);
#1033=PLANE('',#1183);
#1034=PLANE('',#1184);
#1035=PLANE('',#1185);
#1036=PLANE('',#1186);
#1037=PLANE('',#1187);
#1038=ADVANCED_FACE('',(#37,#27),#994,.F.);
#1039=ADVANCED_FACE('',(#38),#15,.F.);
#1040=ADVANCED_FACE('',(#39),#16,.T.);
#1041=ADVANCED_FACE('',(#40,#28),#995,.T.);
#1042=ADVANCED_FACE('',(#41),#996,.T.);
#1043=ADVANCED_FACE('',(#42),#997,.F.);
#1044=ADVANCED_FACE('',(#43),#17,.T.);
#1045=ADVANCED_FACE('',(#44),#998,.T.);
#1046=ADVANCED_FACE('',(#45),#18,.T.);
#1047=ADVANCED_FACE('',(#46),#999,.F.);
#1048=ADVANCED_FACE('',(#47,#29,#30,#31),#1000,.F.);
#1049=ADVANCED_FACE('',(#48),#1001,.F.);
#1050=ADVANCED_FACE('',(#49),#1002,.F.);
#1051=ADVANCED_FACE('',(#50),#1003,.T.);
#1052=ADVANCED_FACE('',(#51),#1004,.F.);
#1053=ADVANCED_FACE('',(#52),#1005,.F.);
#1054=ADVANCED_FACE('',(#53),#1006,.T.);
#1055=ADVANCED_FACE('',(#54),#19,.T.);
#1056=ADVANCED_FACE('',(#55),#1007,.F.);
#1057=ADVANCED_FACE('',(#56),#20,.T.);
#1058=ADVANCED_FACE('',(#57),#1008,.F.);
#1059=ADVANCED_FACE('',(#58),#1009,.F.);
#1060=ADVANCED_FACE('',(#59),#21,.F.);
#1061=ADVANCED_FACE('',(#60),#1010,.T.);
#1062=ADVANCED_FACE('',(#61,#32,#33),#1011,.T.);
#1063=ADVANCED_FACE('',(#62),#1012,.T.);
#1064=ADVANCED_FACE('',(#63),#1013,.F.);
#1065=ADVANCED_FACE('',(#64),#1014,.T.);
#1066=ADVANCED_FACE('',(#65),#1015,.T.);
#1067=ADVANCED_FACE('',(#66),#1016,.T.);
#1068=ADVANCED_FACE('',(#67),#22,.T.);
#1069=ADVANCED_FACE('',(#68),#23,.F.);
#1070=ADVANCED_FACE('',(#69),#24,.T.);
#1071=ADVANCED_FACE('',(#70),#25,.F.);
#1072=ADVANCED_FACE('',(#71),#1017,.T.);
#1073=ADVANCED_FACE('',(#72),#1018,.T.);
#1074=ADVANCED_FACE('',(#73),#1019,.T.);
#1075=ADVANCED_FACE('',(#74),#26,.F.);
#1076=ADVANCED_FACE('',(#75),#1020,.F.);
#1077=ADVANCED_FACE('',(#76),#1021,.F.);
#1078=ADVANCED_FACE('',(#77),#1022,.T.);
#1079=ADVANCED_FACE('',(#78),#1023,.T.);
#1080=ADVANCED_FACE('',(#79),#1024,.T.);
#1081=ADVANCED_FACE('',(#80),#1025,.T.);
#1082=ADVANCED_FACE('',(#81),#1026,.T.);
#1083=ADVANCED_FACE('',(#82),#1027,.T.);
#1084=ADVANCED_FACE('',(#83),#1028,.T.);
#1085=ADVANCED_FACE('',(#84),#1029,.T.);
#1086=ADVANCED_FACE('',(#85),#1030,.T.);
#1087=ADVANCED_FACE('',(#86),#1031,.T.);
#1088=ADVANCED_FACE('',(#87),#1032,.T.);
#1089=ADVANCED_FACE('',(#88,#34),#1033,.T.);
#1090=ADVANCED_FACE('',(#89),#1034,.F.);
#1091=ADVANCED_FACE('',(#90),#1035,.F.);
#1092=ADVANCED_FACE('',(#91,#35),#1036,.T.);
#1093=ADVANCED_FACE('',(#92,#36),#1037,.T.);
#1094=CLOSED_SHELL('',(#1038,#1039,#1040,#1041,#1042,#1043,#1044,#1045,
#1046,#1047,#1048,#1049,#1050,#1051,#1052,#1053,#1054,#1055,#1056,#1057,
#1058,#1059,#1060,#1061,#1062,#1063,#1064,#1065,#1066,#1067,#1068,#1069,
#1070,#1071,#1072,#1073,#1074,#1075,#1076,#1077,#1078,#1079,#1080,#1081,
#1082,#1083,#1084,#1085,#1086,#1087,#1088,#1089,#1090,#1091,#1092,#1093));
#1095=DERIVED_UNIT_ELEMENT(#1097,1.);
#1096=DERIVED_UNIT_ELEMENT(#1791,-3.);
#1097=(
MASS_UNIT()
NAMED_UNIT(*)
SI_UNIT(.KILO.,.GRAM.)
);
#1098=DERIVED_UNIT((#1095,#1096));
#1099=MEASURE_REPRESENTATION_ITEM('density measure',
POSITIVE_RATIO_MEASURE(7850.),#1098);
#1100=PROPERTY_DEFINITION_REPRESENTATION(#1105,#1102);
#1101=PROPERTY_DEFINITION_REPRESENTATION(#1106,#1103);
#1102=REPRESENTATION('material name',(#1104),#1788);
#1103=REPRESENTATION('density',(#1099),#1788);
#1104=DESCRIPTIVE_REPRESENTATION_ITEM('Steel','Steel');
#1105=PROPERTY_DEFINITION('material property','material name',#1798);
#1106=PROPERTY_DEFINITION('material property','density of part',#1798);
#1107=AXIS2_PLACEMENT_3D('',#1478,#1188,#1189);
#1108=AXIS2_PLACEMENT_3D('',#1479,#1190,#1191);
#1109=AXIS2_PLACEMENT_3D('',#1483,#1193,#1194);
#1110=AXIS2_PLACEMENT_3D('',#1485,#1195,#1196);
#1111=AXIS2_PLACEMENT_3D('',#1486,#1197,#1198);
#1112=AXIS2_PLACEMENT_3D('',#1489,#1200,#1201);
#1113=AXIS2_PLACEMENT_3D('',#1490,#1202,#1203);
#1114=AXIS2_PLACEMENT_3D('',#1495,#1206,#1207);
#1115=AXIS2_PLACEMENT_3D('',#1496,#1208,#1209);
#1116=AXIS2_PLACEMENT_3D('',#1498,#1211,#1212);
#1117=AXIS2_PLACEMENT_3D('',#1507,#1217,#1218);
#1118=AXIS2_PLACEMENT_3D('',#1516,#1223,#1224);
#1119=AXIS2_PLACEMENT_3D('',#1519,#1225,#1226);
#1120=AXIS2_PLACEMENT_3D('',#1523,#1228,#1229);
#1121=AXIS2_PLACEMENT_3D('',#1525,#1231,#1232);
#1122=AXIS2_PLACEMENT_3D('',#1531,#1236,#1237);
#1123=AXIS2_PLACEMENT_3D('',#1532,#1238,#1239);
#1124=AXIS2_PLACEMENT_3D('',#1533,#1240,#1241);
#1125=AXIS2_PLACEMENT_3D('',#1534,#1242,#1243);
#1126=AXIS2_PLACEMENT_3D('',#1539,#1245,#1246);
#1127=AXIS2_PLACEMENT_3D('',#1547,#1251,#1252);
#1128=AXIS2_PLACEMENT_3D('',#1569,#1263,#1264);
#1129=AXIS2_PLACEMENT_3D('',#1571,#1265,#1266);
#1130=AXIS2_PLACEMENT_3D('',#1573,#1267,#1268);
#1131=AXIS2_PLACEMENT_3D('',#1574,#1269,#1270);
#1132=AXIS2_PLACEMENT_3D('',#1580,#1274,#1275);
#1133=AXIS2_PLACEMENT_3D('',#1586,#1279,#1280);
#1134=AXIS2_PLACEMENT_3D('',#1593,#1285,#1286);
#1135=AXIS2_PLACEMENT_3D('',#1599,#1290,#1291);
#1136=AXIS2_PLACEMENT_3D('',#1605,#1295,#1296);
#1137=AXIS2_PLACEMENT_3D('',#1611,#1300,#1301);
#1138=AXIS2_PLACEMENT_3D('',#1613,#1302,#1303);
#1139=AXIS2_PLACEMENT_3D('',#1616,#1305,#1306);
#1140=AXIS2_PLACEMENT_3D('',#1617,#1307,#1308);
#1141=AXIS2_PLACEMENT_3D('',#1623,#1312,#1313);
#1142=AXIS2_PLACEMENT_3D('',#1624,#1314,#1315);
#1143=AXIS2_PLACEMENT_3D('',#1625,#1316,#1317);
#1144=AXIS2_PLACEMENT_3D('',#1626,#1318,#1319);
#1145=AXIS2_PLACEMENT_3D('',#1632,#1323,#1324);
#1146=AXIS2_PLACEMENT_3D('',#1635,#1327,#1328);
#1147=AXIS2_PLACEMENT_3D('',#1638,#1330,#1331);
#1148=AXIS2_PLACEMENT_3D('',#1639,#1332,#1333);
#1149=AXIS2_PLACEMENT_3D('',#1643,#1336,#1337);
#1150=AXIS2_PLACEMENT_3D('',#1648,#1340,#1341);
#1151=AXIS2_PLACEMENT_3D('',#1649,#1342,#1343);
#1152=AXIS2_PLACEMENT_3D('',#1660,#1349,#1350);
#1153=AXIS2_PLACEMENT_3D('',#1666,#1354,#1355);
#1154=AXIS2_PLACEMENT_3D('',#1672,#1359,#1360);
#1155=AXIS2_PLACEMENT_3D('',#1681,#1365,#1366);
#1156=AXIS2_PLACEMENT_3D('',#1684,#1369,#1370);
#1157=AXIS2_PLACEMENT_3D('',#1688,#1372,#1373);
#1158=AXIS2_PLACEMENT_3D('',#1690,#1375,#1376);
#1159=AXIS2_PLACEMENT_3D('',#1693,#1378,#1379);
#1160=AXIS2_PLACEMENT_3D('',#1694,#1380,#1381);
#1161=AXIS2_PLACEMENT_3D('',#1696,#1382,#1383);
#1162=AXIS2_PLACEMENT_3D('',#1698,#1385,#1386);
#1163=AXIS2_PLACEMENT_3D('',#1701,#1388,#1389);
#1164=AXIS2_PLACEMENT_3D('',#1702,#1390,#1391);
#1165=AXIS2_PLACEMENT_3D('',#1708,#1395,#1396);
#1166=AXIS2_PLACEMENT_3D('',#1715,#1400,#1401);
#1167=AXIS2_PLACEMENT_3D('',#1716,#1402,#1403);
#1168=AXIS2_PLACEMENT_3D('',#1721,#1407,#1408);
#1169=AXIS2_PLACEMENT_3D('',#1726,#1411,#1412);
#1170=AXIS2_PLACEMENT_3D('',#1727,#1413,#1414);
#1171=AXIS2_PLACEMENT_3D('',#1731,#1417,#1418);
#1172=AXIS2_PLACEMENT_3D('',#1736,#1422,#1423);
#1173=AXIS2_PLACEMENT_3D('',#1740,#1426,#1427);
#1174=AXIS2_PLACEMENT_3D('',#1744,#1430,#1431);
#1175=AXIS2_PLACEMENT_3D('',#1748,#1434,#1435);
#1176=AXIS2_PLACEMENT_3D('',#1752,#1438,#1439);
#1177=AXIS2_PLACEMENT_3D('',#1754,#1441,#1442);
#1178=AXIS2_PLACEMENT_3D('',#1758,#1445,#1446);
#1179=AXIS2_PLACEMENT_3D('',#1762,#1449,#1450);
#1180=AXIS2_PLACEMENT_3D('',#1766,#1453,#1454);
#1181=AXIS2_PLACEMENT_3D('',#1770,#1457,#1458);
#1182=AXIS2_PLACEMENT_3D('',#1774,#1461,#1462);
#1183=AXIS2_PLACEMENT_3D('',#1778,#1465,#1466);
#1184=AXIS2_PLACEMENT_3D('',#1780,#1468,#1469);
#1185=AXIS2_PLACEMENT_3D('',#1782,#1471,#1472);
#1186=AXIS2_PLACEMENT_3D('',#1784,#1474,#1475);
#1187=AXIS2_PLACEMENT_3D('',#1785,#1476,#1477);
#1188=DIRECTION('axis',(0.,0.,1.));
#1189=DIRECTION('refdir',(1.,0.,0.));
#1190=DIRECTION('center_axis',(0.,0.,1.));
#1191=DIRECTION('ref_axis',(1.,0.,0.));
#1192=DIRECTION('',(1.,0.,0.));
#1193=DIRECTION('center_axis',(0.,0.,-1.));
#1194=DIRECTION('ref_axis',(1.,0.,0.));
#1195=DIRECTION('center_axis',(0.,0.,1.));
#1196=DIRECTION('ref_axis',(1.,0.,0.));
#1197=DIRECTION('center_axis',(0.,0.,-1.));
#1198=DIRECTION('ref_axis',(1.,0.,0.));
#1199=DIRECTION('',(0.,0.,1.));
#1200=DIRECTION('center_axis',(0.,0.,-1.));
#1201=DIRECTION('ref_axis',(1.,0.,0.));
#1202=DIRECTION('center_axis',(0.,0.,-1.));
#1203=DIRECTION('ref_axis',(1.,0.,0.));
#1204=DIRECTION('',(0.,0.,1.));
#1205=DIRECTION('',(0.,0.,-1.));
#1206=DIRECTION('center_axis',(0.,0.,1.));
#1207=DIRECTION('ref_axis',(1.,0.,0.));
#1208=DIRECTION('center_axis',(0.,0.,1.));
#1209=DIRECTION('ref_axis',(1.,0.,0.));
#1210=DIRECTION('',(-1.,0.,0.));
#1211=DIRECTION('center_axis',(1.,0.,0.));
#1212=DIRECTION('ref_axis',(0.,1.,0.));
#1213=DIRECTION('',(0.,1.,0.));
#1214=DIRECTION('',(0.,0.,1.));
#1215=DIRECTION('',(0.,1.,0.));
#1216=DIRECTION('',(0.,0.,-1.));
#1217=DIRECTION('center_axis',(0.,-1.,0.));
#1218=DIRECTION('ref_axis',(1.,0.,0.));
#1219=DIRECTION('',(-1.,0.,0.));
#1220=DIRECTION('',(0.,0.,-1.));
#1221=DIRECTION('',(-1.,0.,0.));
#1222=DIRECTION('',(0.,0.,1.));
#1223=DIRECTION('center_axis',(0.,0.,1.));
#1224=DIRECTION('ref_axis',(1.,0.,0.));
#1225=DIRECTION('center_axis',(0.,0.,1.));
#1226=DIRECTION('ref_axis',(1.,0.,0.));
#1227=DIRECTION('',(0.,0.,1.));
#1228=DIRECTION('center_axis',(0.,0.,1.));
#1229=DIRECTION('ref_axis',(1.,0.,0.));
#1230=DIRECTION('',(0.,0.,-1.));
#1231=DIRECTION('center_axis',(-2.19134751146495E-8,-1.,0.));
#1232=DIRECTION('ref_axis',(1.,-2.19134751146495E-8,0.));
#1233=DIRECTION('',(1.,-2.19134751146495E-8,0.));
#1234=DIRECTION('',(1.,-2.19134751146495E-8,0.));
#1235=DIRECTION('',(0.,0.,-1.));
#1236=DIRECTION('center_axis',(0.,0.,1.));
#1237=DIRECTION('ref_axis',(0.707106773438964,-0.707106788934131,0.));
#1238=DIRECTION('center_axis',(0.,0.,1.));
#1239=DIRECTION('ref_axis',(0.707106773438964,-0.707106788934131,0.));
#1240=DIRECTION('center_axis',(0.,0.,1.));
#1241=DIRECTION('ref_axis',(0.707106773438964,-0.707106788934131,0.));
#1242=DIRECTION('center_axis',(1.,0.,0.));
#1243=DIRECTION('ref_axis',(0.,1.,0.));
#1244=DIRECTION('',(0.,-1.,0.));
#1245=DIRECTION('center_axis',(1.,0.,0.));
#1246=DIRECTION('ref_axis',(0.,0.,-1.));
#1247=DIRECTION('',(0.,-1.,0.));
#1248=DIRECTION('',(0.,0.,1.));
#1249=DIRECTION('',(0.,-1.,0.));
#1250=DIRECTION('',(0.,0.,1.));
#1251=DIRECTION('center_axis',(0.,0.,1.));
#1252=DIRECTION('ref_axis',(1.,0.,0.));
#1253=DIRECTION('',(0.499999999999999,-0.866025403784439,0.));
#1254=DIRECTION('',(1.,0.,0.));
#1255=DIRECTION('',(0.,-1.,0.));
#1256=DIRECTION('',(-1.,0.,0.));
#1257=DIRECTION('',(0.,1.,0.));
#1258=DIRECTION('',(1.,0.,0.));
#1259=DIRECTION('',(0.,1.,0.));
#1260=DIRECTION('',(1.,0.,0.));
#1261=DIRECTION('',(0.,1.,0.));
#1262=DIRECTION('',(1.,1.38348285443961E-15,0.));
#1263=DIRECTION('center_axis',(0.,0.,1.));
#1264=DIRECTION('ref_axis',(1.,0.,0.));
#1265=DIRECTION('center_axis',(0.,0.,1.));
#1266=DIRECTION('ref_axis',(1.,0.,0.));
#1267=DIRECTION('center_axis',(0.,0.,1.));
#1268=DIRECTION('ref_axis',(1.,0.,0.));
#1269=DIRECTION('center_axis',(-0.866025403784439,-0.499999999999999,0.));
#1270=DIRECTION('ref_axis',(0.499999999999999,-0.866025403784439,0.));
#1271=DIRECTION('',(-0.499999999999999,0.866025403784439,0.));
#1272=DIRECTION('',(0.,0.,1.));
#1273=DIRECTION('',(-0.499999999999999,0.866025403784439,0.));
#1274=DIRECTION('center_axis',(1.38348285443961E-15,-1.,0.));
#1275=DIRECTION('ref_axis',(1.,1.38348285443961E-15,0.));
#1276=DIRECTION('',(-1.,-1.38348285443961E-15,0.));
#1277=DIRECTION('',(0.,0.,1.));
#1278=DIRECTION('',(-1.,-1.38348285443961E-15,0.));
#1279=DIRECTION('center_axis',(-1.,0.,0.));
#1280=DIRECTION('ref_axis',(0.,-1.,0.));
#1281=DIRECTION('',(0.,-1.,0.));
#1282=DIRECTION('',(0.,0.,1.));
#1283=DIRECTION('',(0.,-1.,0.));
#1284=DIRECTION('',(0.,0.,-1.));
#1285=DIRECTION('center_axis',(-0.866025403784439,-0.499999999999999,0.));
#1286=DIRECTION('ref_axis',(0.499999999999999,-0.866025403784439,0.));
#1287=DIRECTION('',(-0.499999999999999,0.866025403784439,0.));
#1288=DIRECTION('',(0.,0.,-1.));
#1289=DIRECTION('',(-0.499999999999999,0.866025403784439,0.));
#1290=DIRECTION('center_axis',(1.,0.,0.));
#1291=DIRECTION('ref_axis',(0.,1.,0.));
#1292=DIRECTION('',(0.,-1.,0.));
#1293=DIRECTION('',(0.,0.,1.));
#1294=DIRECTION('',(0.,-1.,0.));
#1295=DIRECTION('center_axis',(0.,1.,0.));
#1296=DIRECTION('ref_axis',(-1.,0.,0.));
#1297=DIRECTION('',(-1.,0.,0.));
#1298=DIRECTION('',(0.,0.,1.));
#1299=DIRECTION('',(-1.,0.,0.));
#1300=DIRECTION('center_axis',(0.,0.,1.));
#1301=DIRECTION('ref_axis',(-0.981529002922588,0.191313398437721,0.));
#1302=DIRECTION('center_axis',(0.,0.,1.));
#1303=DIRECTION('ref_axis',(1.,0.,0.));
#1304=DIRECTION('',(0.,0.,1.));
#1305=DIRECTION('center_axis',(0.,0.,1.));
#1306=DIRECTION('ref_axis',(1.,0.,0.));
#1307=DIRECTION('center_axis',(0.,-1.,0.));
#1308=DIRECTION('ref_axis',(1.,0.,0.));
#1309=DIRECTION('',(-1.,0.,0.));
#1310=DIRECTION('',(0.,0.,1.));
#1311=DIRECTION('',(-1.,0.,0.));
#1312=DIRECTION('center_axis',(0.,0.,1.));
#1313=DIRECTION('ref_axis',(0.707106781186548,0.707106781186548,0.));
#1314=DIRECTION('center_axis',(0.,0.,1.));
#1315=DIRECTION('ref_axis',(0.707106781186548,0.707106781186548,0.));
#1316=DIRECTION('center_axis',(0.,0.,1.));
#1317=DIRECTION('ref_axis',(0.707106781186548,0.707106781186548,0.));
#1318=DIRECTION('center_axis',(1.,0.,0.));
#1319=DIRECTION('ref_axis',(0.,1.,0.));
#1320=DIRECTION('',(0.,-1.,0.));
#1321=DIRECTION('',(0.,0.,1.));
#1322=DIRECTION('',(0.,-1.,0.));
#1323=DIRECTION('center_axis',(0.,-1.,0.));
#1324=DIRECTION('ref_axis',(1.,0.,0.));
#1325=DIRECTION('',(-1.,0.,0.));
#1326=DIRECTION('',(-1.,0.,0.));
#1327=DIRECTION('center_axis',(0.,0.,-1.));
#1328=DIRECTION('ref_axis',(1.,0.,0.));
#1329=DIRECTION('',(0.,0.,1.));
#1330=DIRECTION('center_axis',(0.,0.,-1.));
#1331=DIRECTION('ref_axis',(1.,0.,0.));
#1332=DIRECTION('center_axis',(0.,0.,1.));
#1333=DIRECTION('ref_axis',(1.,0.,0.));
#1334=DIRECTION('',(1.,-2.19134751146495E-8,0.));
#1335=DIRECTION('',(0.514497742535215,-0.8574917334448,0.));
#1336=DIRECTION('center_axis',(0.,0.,1.));
#1337=DIRECTION('ref_axis',(1.,0.,0.));
#1338=DIRECTION('',(1.,0.,0.));
#1339=DIRECTION('',(0.,1.,0.));
#1340=DIRECTION('center_axis',(0.,0.,1.));
#1341=DIRECTION('ref_axis',(1.,0.,0.));
#1342=DIRECTION('center_axis',(0.,0.,-1.));
#1343=DIRECTION('ref_axis',(1.,0.,0.));
#1344=DIRECTION('',(0.,1.,0.));
#1345=DIRECTION('',(-1.,0.,0.));
#1346=DIRECTION('',(-1.,-1.38348285443961E-15,0.));
#1347=DIRECTION('',(0.,-1.,0.));
#1348=DIRECTION('',(1.,0.,0.));
#1349=DIRECTION('center_axis',(0.,-1.,0.));
#1350=DIRECTION('ref_axis',(1.,0.,0.));
#1351=DIRECTION('',(0.,0.,1.));
#1352=DIRECTION('',(0.,0.,-1.));
#1353=DIRECTION('',(-1.,0.,0.));
#1354=DIRECTION('center_axis',(0.,0.,-1.));
#1355=DIRECTION('ref_axis',(1.,0.,0.));
#1356=DIRECTION('',(0.,1.,0.));
#1357=DIRECTION('',(0.,-1.,0.));
#1358=DIRECTION('',(1.,0.,0.));
#1359=DIRECTION('center_axis',(0.,0.,-1.));
#1360=DIRECTION('ref_axis',(0.,1.,0.));
#1361=DIRECTION('',(0.,1.,0.));
#1362=DIRECTION('',(1.,0.,0.));
#1363=DIRECTION('',(0.,1.,0.));
#1364=DIRECTION('',(1.,0.,0.));
#1365=DIRECTION('center_axis',(1.,0.,0.));
#1366=DIRECTION('ref_axis',(0.,0.,-1.));
#1367=DIRECTION('',(0.,0.,-1.));
#1368=DIRECTION('',(0.,0.,1.));
#1369=DIRECTION('center_axis',(-1.,0.,0.));
#1370=DIRECTION('ref_axis',(0.,0.,-1.));
#1371=DIRECTION('',(1.,0.,0.));
#1372=DIRECTION('center_axis',(-1.,0.,0.));
#1373=DIRECTION('ref_axis',(0.,0.,-1.));
#1374=DIRECTION('',(-1.,0.,0.));
#1375=DIRECTION('center_axis',(0.,0.,1.));
#1376=DIRECTION('ref_axis',(1.,0.,0.));
#1377=DIRECTION('',(0.,0.,1.));
#1378=DIRECTION('center_axis',(0.,0.,-1.));
#1379=DIRECTION('ref_axis',(1.,0.,0.));
#1380=DIRECTION('center_axis',(0.,0.,1.));
#1381=DIRECTION('ref_axis',(1.,0.,0.));
#1382=DIRECTION('center_axis',(0.,0.,1.));
#1383=DIRECTION('ref_axis',(1.,0.,0.));
#1384=DIRECTION('',(0.,0.,-1.));
#1385=DIRECTION('center_axis',(0.,0.,1.));
#1386=DIRECTION('ref_axis',(1.,0.,0.));
#1387=DIRECTION('',(0.,0.,1.));
#1388=DIRECTION('center_axis',(0.,0.,-1.));
#1389=DIRECTION('ref_axis',(1.,0.,0.));
#1390=DIRECTION('center_axis',(0.,-1.,0.));
#1391=DIRECTION('ref_axis',(1.,0.,0.));
#1392=DIRECTION('',(1.,0.,0.));
#1393=DIRECTION('',(0.,0.,-1.));
#1394=DIRECTION('',(0.,0.,-1.));
#1395=DIRECTION('center_axis',(-1.,0.,0.));
#1396=DIRECTION('ref_axis',(0.,-1.,0.));
#1397=DIRECTION('',(0.,-1.,0.));
#1398=DIRECTION('',(0.,0.,-1.));
#1399=DIRECTION('',(0.,-1.,0.));
#1400=DIRECTION('center_axis',(1.,0.,0.));
#1401=DIRECTION('ref_axis',(0.,-1.,0.));
#1402=DIRECTION('center_axis',(-0.866025403784439,-0.499999999999999,0.));
#1403=DIRECTION('ref_axis',(0.499999999999999,-0.866025403784439,0.));
#1404=DIRECTION('',(0.499999999999999,-0.866025403784439,0.));
#1405=DIRECTION('',(0.,0.,-1.));
#1406=DIRECTION('',(0.,0.,-1.));
#1407=DIRECTION('center_axis',(1.,0.,0.));
#1408=DIRECTION('ref_axis',(0.,-1.,0.));
#1409=DIRECTION('',(1.,0.,0.));
#1410=DIRECTION('',(-1.,0.,0.));
#1411=DIRECTION('center_axis',(-1.,0.,0.));
#1412=DIRECTION('ref_axis',(0.,-1.,0.));
#1413=DIRECTION('center_axis',(0.,-1.,0.));
#1414=DIRECTION('ref_axis',(1.,0.,0.));
#1415=DIRECTION('',(-1.,0.,0.));
#1416=DIRECTION('',(0.,0.,1.));
#1417=DIRECTION('center_axis',(-1.,0.,0.));
#1418=DIRECTION('ref_axis',(0.,-1.,0.));
#1419=DIRECTION('',(0.,1.,0.));
#1420=DIRECTION('',(0.,1.,0.));
#1421=DIRECTION('',(0.,0.,1.));
#1422=DIRECTION('center_axis',(-1.,0.,0.));
#1423=DIRECTION('ref_axis',(0.,0.,-1.));
#1424=DIRECTION('',(0.,-1.,0.));
#1425=DIRECTION('',(0.,0.,-1.));
#1426=DIRECTION('center_axis',(0.,-1.,0.));
#1427=DIRECTION('ref_axis',(0.,0.,-1.));
#1428=DIRECTION('',(1.,0.,0.));
#1429=DIRECTION('',(0.,0.,1.));
#1430=DIRECTION('center_axis',(-0.8574917334448,-0.514497742535215,0.));
#1431=DIRECTION('ref_axis',(0.514497742535215,-0.8574917334448,0.));
#1432=DIRECTION('',(0.514497742535215,-0.8574917334448,0.));
#1433=DIRECTION('',(0.,0.,-1.));
#1434=DIRECTION('center_axis',(1.,0.,0.));
#1435=DIRECTION('ref_axis',(0.,0.,1.));
#1436=DIRECTION('',(0.,1.,0.));
#1437=DIRECTION('',(0.,0.,-1.));
#1438=DIRECTION('center_axis',(-2.19134751146495E-8,-1.,0.));
#1439=DIRECTION('ref_axis',(1.,-2.19134751146495E-8,0.));
#1440=DIRECTION('',(1.,-2.19134751146495E-8,0.));
#1441=DIRECTION('center_axis',(1.38348285443961E-15,-1.,0.));
#1442=DIRECTION('ref_axis',(1.,1.38348285443961E-15,0.));
#1443=DIRECTION('',(1.,1.38348285443961E-15,0.));
#1444=DIRECTION('',(0.,0.,-1.));
#1445=DIRECTION('center_axis',(1.,0.,0.));
#1446=DIRECTION('ref_axis',(0.,1.,0.));
#1447=DIRECTION('',(0.,1.,0.));
#1448=DIRECTION('',(0.,0.,1.));
#1449=DIRECTION('center_axis',(0.,-1.,0.));
#1450=DIRECTION('ref_axis',(1.,0.,0.));
#1451=DIRECTION('',(1.,0.,0.));
#1452=DIRECTION('',(0.,0.,-1.));
#1453=DIRECTION('center_axis',(1.,0.,0.));
#1454=DIRECTION('ref_axis',(0.,1.,0.));
#1455=DIRECTION('',(0.,1.,0.));
#1456=DIRECTION('',(0.,0.,1.));
#1457=DIRECTION('center_axis',(0.,-1.,0.));
#1458=DIRECTION('ref_axis',(1.,0.,0.));
#1459=DIRECTION('',(1.,0.,0.));
#1460=DIRECTION('',(0.,0.,-1.));
#1461=DIRECTION('center_axis',(1.,0.,0.));
#1462=DIRECTION('ref_axis',(0.,1.,0.));
#1463=DIRECTION('',(0.,1.,0.));
#1464=DIRECTION('',(0.,0.,-1.));
#1465=DIRECTION('center_axis',(0.,1.,0.));
#1466=DIRECTION('ref_axis',(-1.,0.,0.));
#1467=DIRECTION('',(-1.,0.,0.));
#1468=DIRECTION('center_axis',(0.,1.,0.));
#1469=DIRECTION('ref_axis',(-1.,0.,0.));
#1470=DIRECTION('',(1.,0.,0.));
#1471=DIRECTION('center_axis',(1.,0.,0.));
#1472=DIRECTION('ref_axis',(0.,0.,-1.));
#1473=DIRECTION('',(0.,-1.,0.));
#1474=DIRECTION('center_axis',(0.,0.,1.));
#1475=DIRECTION('ref_axis',(1.,0.,0.));
#1476=DIRECTION('center_axis',(0.,0.,1.));
#1477=DIRECTION('ref_axis',(1.,0.,0.));
#1478=CARTESIAN_POINT('',(0.,0.,0.));
#1479=CARTESIAN_POINT('Origin',(-26.,4.9579537445916,-6.));
#1480=CARTESIAN_POINT('',(-31.9998526742251,2.,-6.));
#1481=CARTESIAN_POINT('',(-20.0001473257749,2.,-6.));
#1482=CARTESIAN_POINT('',(-13.,2.,-6.));
#1483=CARTESIAN_POINT('Origin',(-26.,1.9579537445916,-6.));
#1484=CARTESIAN_POINT('',(-27.25,4.9579537445916,-6.));
#1485=CARTESIAN_POINT('Origin',(-26.,4.9579537445916,-6.));
#1486=CARTESIAN_POINT('Origin',(-26.,4.9579537445916,-4.));
#1487=CARTESIAN_POINT('',(-27.25,4.9579537445916,-4.));
#1488=CARTESIAN_POINT('',(-27.25,4.9579537445916,-4.));
#1489=CARTESIAN_POINT('Origin',(-26.,4.9579537445916,-4.));
#1490=CARTESIAN_POINT('Origin',(-26.,1.9579537445916,-4.));
#1491=CARTESIAN_POINT('',(-20.0001473257749,2.,-4.));
#1492=CARTESIAN_POINT('',(-20.0001473257749,2.,-4.));
#1493=CARTESIAN_POINT('',(-31.9998526742251,2.,-4.));
#1494=CARTESIAN_POINT('',(-31.9998526742251,2.,-4.));
#1495=CARTESIAN_POINT('Origin',(-26.,1.9579537445916,-4.));
#1496=CARTESIAN_POINT('Origin',(-26.,4.9579537445916,-4.));
#1497=CARTESIAN_POINT('',(-13.,2.,-4.));
#1498=CARTESIAN_POINT('Origin',(-32.0000008493662,-12.0000001788139,0.));
#1499=CARTESIAN_POINT('',(-32.0000008493662,-11.5000001678572,0.));
#1500=CARTESIAN_POINT('',(-32.0000008493662,-11.0000001639128,0.));
#1501=CARTESIAN_POINT('',(-32.0000008493662,-17.000000089407,0.));
#1502=CARTESIAN_POINT('',(-32.0000008493662,-11.5000001678572,-6.));
#1503=CARTESIAN_POINT('',(-32.0000008493662,-11.5000001678572,0.));
#1504=CARTESIAN_POINT('',(-32.0000008493662,-11.0000001639128,-6.));
#1505=CARTESIAN_POINT('',(-32.0000008493662,-16.250000089407,-6.));
#1506=CARTESIAN_POINT('',(-32.0000008493662,-11.0000001639128,0.));
#1507=CARTESIAN_POINT('Origin',(-55.,-11.,0.));
#1508=CARTESIAN_POINT('',(-53.,-11.,0.));
#1509=CARTESIAN_POINT('',(-55.,-11.,0.));
#1510=CARTESIAN_POINT('',(-41.7085481156726,-11.,0.));
#1511=CARTESIAN_POINT('',(-53.,-11.,-6.));
#1512=CARTESIAN_POINT('',(-53.,-11.,0.));
#1513=CARTESIAN_POINT('',(-55.,-11.,-6.));
#1514=CARTESIAN_POINT('',(-41.25,-11.,-6.));
#1515=CARTESIAN_POINT('',(-55.,-11.,0.));
#1516=CARTESIAN_POINT('Origin',(-49.,-13.5,0.));
#1517=CARTESIAN_POINT('',(-50.7173095345894,-14.9537358640442,0.));
#1518=CARTESIAN_POINT('',(-47.322949157269,-11.9999998430349,0.));
#1519=CARTESIAN_POINT('Origin',(-49.,-13.5,0.));
#1520=CARTESIAN_POINT('',(-50.7173095345894,-14.9537358640442,-6.));
#1521=CARTESIAN_POINT('',(-50.7173095345894,-14.9537358640442,0.));
#1522=CARTESIAN_POINT('',(-47.322949157269,-11.9999998430349,-6.));
#1523=CARTESIAN_POINT('Origin',(-49.,-13.5,-6.));
#1524=CARTESIAN_POINT('',(-47.322949157269,-11.9999998430349,0.));
#1525=CARTESIAN_POINT('Origin',(-52.3999982699752,-11.9999997317791,0.));
#1526=CARTESIAN_POINT('',(-32.5000008603229,-12.0000001678572,0.));
#1527=CARTESIAN_POINT('',(-40.4085471410929,-11.9999999945535,0.));
#1528=CARTESIAN_POINT('',(-32.5000008603229,-12.0000001678572,-6.));
#1529=CARTESIAN_POINT('',(-39.9499990418553,-12.0000000046018,-6.));
#1530=CARTESIAN_POINT('',(-32.5000008603229,-12.0000001678572,0.));
#1531=CARTESIAN_POINT('Origin',(-32.5000008493662,-11.5000001678572,0.));
#1532=CARTESIAN_POINT('Origin',(-32.5000008493662,-11.5000001678572,0.));
#1533=CARTESIAN_POINT('Origin',(-32.5000008493662,-11.5000001678572,-6.));
#1534=CARTESIAN_POINT('Origin',(0.,-11.,0.));
#1535=CARTESIAN_POINT('',(0.,-8.39827534923789,0.));
#1536=CARTESIAN_POINT('',(0.,-11.,0.));
#1537=CARTESIAN_POINT('',(0.,-16.5,0.));
#1538=CARTESIAN_POINT('',(0.,-2.60172465076211,0.));
#1539=CARTESIAN_POINT('Origin',(0.,-5.5,0.1));
#1540=CARTESIAN_POINT('',(0.,0.,0.));
#1541=CARTESIAN_POINT('',(0.,-16.5,0.));
#1542=CARTESIAN_POINT('',(0.,0.,-6.));
#1543=CARTESIAN_POINT('',(0.,0.,0.));
#1544=CARTESIAN_POINT('',(0.,-11.,-6.));
#1545=CARTESIAN_POINT('',(0.,-15.75,-6.));
#1546=CARTESIAN_POINT('',(0.,-11.,0.));
#1547=CARTESIAN_POINT('Origin',(-14.,-36.,-8.));
#1548=CARTESIAN_POINT('',(-36.8341924626905,-43.,-8.));
#1549=CARTESIAN_POINT('',(-54.1547005383793,-13.,-8.));
#1550=CARTESIAN_POINT('',(-40.8274864357365,-36.0834119491258,-8.));
#1551=CARTESIAN_POINT('',(-57.,-13.,-8.));
#1552=CARTESIAN_POINT('',(-40.25,-13.,-8.));
#1553=CARTESIAN_POINT('',(-57.,2.,-8.));
#1554=CARTESIAN_POINT('',(-57.,-15.75,-8.));
#1555=CARTESIAN_POINT('',(2.,2.,-8.));
#1556=CARTESIAN_POINT('',(-41.25,2.,-8.));
#1557=CARTESIAN_POINT('',(2.,-13.,-8.));
#1558=CARTESIAN_POINT('',(2.,-10.25,-8.));
#1559=CARTESIAN_POINT('',(-6.,-13.,-8.));
#1560=CARTESIAN_POINT('',(-13.75,-13.,-8.));
#1561=CARTESIAN_POINT('',(-6.,-27.,-8.));
#1562=CARTESIAN_POINT('',(-6.,-15.75,-8.));
#1563=CARTESIAN_POINT('',(-8.,-27.,-8.));
#1564=CARTESIAN_POINT('',(-17.75,-27.,-8.));
#1565=CARTESIAN_POINT('',(-8.,-43.,-8.));
#1566=CARTESIAN_POINT('',(-8.,-22.75,-8.));
#1567=CARTESIAN_POINT('',(-18.75,-43.,-8.));
#1568=CARTESIAN_POINT('',(-50.25,-13.5,-8.));
#1569=CARTESIAN_POINT('Origin',(-49.,-13.5,-8.));
#1570=CARTESIAN_POINT('',(-20.5,-22.25,-8.));
#1571=CARTESIAN_POINT('Origin',(-19.,-22.25,-8.));
#1572=CARTESIAN_POINT('',(-15.25,-36.,-8.));
#1573=CARTESIAN_POINT('Origin',(-14.,-36.,-8.));
#1574=CARTESIAN_POINT('Origin',(-53.,-11.,0.));
#1575=CARTESIAN_POINT('',(-35.6794919243113,-41.,0.));
#1576=CARTESIAN_POINT('',(-47.545567168511,-20.4473547906108,0.));
#1577=CARTESIAN_POINT('',(-35.6794919243113,-41.,-6.));
#1578=CARTESIAN_POINT('',(-35.6794919243113,-41.,0.));
#1579=CARTESIAN_POINT('',(-47.755689666012,-20.0834119491258,-6.));
#1580=CARTESIAN_POINT('Origin',(-35.6794919243113,-41.,0.));
#1581=CARTESIAN_POINT('',(-10.,-41.,0.));
#1582=CARTESIAN_POINT('',(-32.0482940778283,-41.,0.));
#1583=CARTESIAN_POINT('',(-10.,-41.,-6.));
#1584=CARTESIAN_POINT('',(-10.,-41.,0.));
#1585=CARTESIAN_POINT('',(-31.5897459621556,-41.,-6.));
#1586=CARTESIAN_POINT('Origin',(-53.0000011622906,-10.5000001639128,0.));
#1587=CARTESIAN_POINT('',(-53.0000011622906,-10.5000001639128,0.));
#1588=CARTESIAN_POINT('',(-53.0000011622906,-16.2500000819564,0.));
#1589=CARTESIAN_POINT('',(-53.0000011622906,-10.5000001639128,-6.));
#1590=CARTESIAN_POINT('',(-53.0000011622906,-10.5000001639128,0.));
#1591=CARTESIAN_POINT('',(-53.0000011622906,-15.5000000819564,-6.));
#1592=CARTESIAN_POINT('',(-53.,-11.,0.));
#1593=CARTESIAN_POINT('Origin',(-53.,-11.,0.));
#1594=CARTESIAN_POINT('',(-51.1176269559495,-14.2603657510936,0.));
#1595=CARTESIAN_POINT('',(-47.545567168511,-20.4473547906108,0.));
#1596=CARTESIAN_POINT('',(-51.1176269559495,-14.2603657510936,-6.));
#1597=CARTESIAN_POINT('',(-51.1176269559495,-14.2603657510936,0.));
#1598=CARTESIAN_POINT('',(-47.755689666012,-20.0834119491258,-6.));
#1599=CARTESIAN_POINT('Origin',(-10.,-41.,0.));
#1600=CARTESIAN_POINT('',(-10.,-25.,0.));
#1601=CARTESIAN_POINT('',(-10.,-31.5,0.));
#1602=CARTESIAN_POINT('',(-10.,-25.,-6.));
#1603=CARTESIAN_POINT('',(-10.,-25.,0.));
#1604=CARTESIAN_POINT('',(-10.,-30.75,-6.));
#1605=CARTESIAN_POINT('Origin',(-32.0000008493662,-10.5000001639128,0.));
#1606=CARTESIAN_POINT('',(-32.5000008493662,-10.5000001639128,0.));
#1607=CARTESIAN_POINT('',(-30.2085485403557,-10.5000001639128,0.));
#1608=CARTESIAN_POINT('',(-32.5000008493662,-10.5000001639128,-6.));
#1609=CARTESIAN_POINT('',(-32.5000008493662,-10.5000001639128,0.));
#1610=CARTESIAN_POINT('',(-29.7500004246831,-10.5000001639128,-6.));
#1611=CARTESIAN_POINT('Origin',(-49.,-13.5,0.));
#1612=CARTESIAN_POINT('',(-50.6770507769905,-11.9999997695349,0.));
#1613=CARTESIAN_POINT('Origin',(-49.,-13.5,0.));
#1614=CARTESIAN_POINT('',(-50.6770507769905,-11.9999997695349,-6.));
#1615=CARTESIAN_POINT('',(-50.6770507769905,-11.9999997695349,0.));
#1616=CARTESIAN_POINT('Origin',(-49.,-13.5,-6.));
#1617=CARTESIAN_POINT('Origin',(-10.,-25.,0.));
#1618=CARTESIAN_POINT('',(-8.,-25.,0.));
#1619=CARTESIAN_POINT('',(-19.2085481156726,-25.,0.));
#1620=CARTESIAN_POINT('',(-8.,-25.,-6.));
#1621=CARTESIAN_POINT('',(-8.,-25.,0.));
#1622=CARTESIAN_POINT('',(-18.75,-25.,-6.));
#1623=CARTESIAN_POINT('Origin',(-32.5000008493662,-11.0000001639128,0.));
#1624=CARTESIAN_POINT('Origin',(-32.5000008493662,-11.0000001639128,0.));
#1625=CARTESIAN_POINT('Origin',(-32.5000008493662,-11.0000001639128,-6.));
#1626=CARTESIAN_POINT('Origin',(-8.,-25.,0.));
#1627=CARTESIAN_POINT('',(-8.,-11.,0.));
#1628=CARTESIAN_POINT('',(-8.,-23.5,0.));
#1629=CARTESIAN_POINT('',(-8.,-11.,-6.));
#1630=CARTESIAN_POINT('',(-8.,-11.,0.));
#1631=CARTESIAN_POINT('',(-8.,-22.75,-6.));
#1632=CARTESIAN_POINT('Origin',(-8.,-11.,0.));
#1633=CARTESIAN_POINT('',(-18.2085481156726,-11.,0.));
#1634=CARTESIAN_POINT('',(-17.75,-11.,-6.));
#1635=CARTESIAN_POINT('Origin',(-19.,-22.25,-6.));
#1636=CARTESIAN_POINT('',(-20.5,-22.25,-6.));
#1637=CARTESIAN_POINT('',(-20.5,-22.25,-6.));
#1638=CARTESIAN_POINT('Origin',(-19.,-22.25,-6.));
#1639=CARTESIAN_POINT('Origin',(-27.5,-20.5,-6.));
#1640=CARTESIAN_POINT('',(-52.3999982699752,-11.9999997317791,-6.));
#1641=CARTESIAN_POINT('',(-39.9499990418553,-12.0000000046018,-6.));
#1642=CARTESIAN_POINT('',(-47.529381559198,-20.1176516104629,-6.));
#1643=CARTESIAN_POINT('Origin',(-27.5,-20.5,-6.));
#1644=CARTESIAN_POINT('',(-55.,0.,-6.));
#1645=CARTESIAN_POINT('',(-13.75,0.,-6.));
#1646=CARTESIAN_POINT('',(-55.,-10.25,-6.));
#1647=CARTESIAN_POINT('',(-16.25,-36.,-6.));
#1648=CARTESIAN_POINT('Origin',(-14.,-36.,-6.));
#1649=CARTESIAN_POINT('Origin',(-58.8341924626906,-43.,-0.900000000000001));
#1650=CARTESIAN_POINT('',(-57.8341924626906,-44.6,-0.900000000000001));
#1651=CARTESIAN_POINT('',(-57.8341924626906,-43.0000006407499,-0.900000000000001));
#1652=CARTESIAN_POINT('',(-57.8341924626906,-43.7500001601875,-0.900000000000001));
#1653=CARTESIAN_POINT('',(-36.8341924626905,-43.,-0.900000000000001));
#1654=CARTESIAN_POINT('',(-8.83419246269057,-43.,-0.900000000000001));
#1655=CARTESIAN_POINT('',(-8.83419246269057,-43.,-0.900000000000001));
#1656=CARTESIAN_POINT('',(-47.2568421935009,-43.,-0.900000000000001));
#1657=CARTESIAN_POINT('',(-8.83419246269057,-44.6,-0.900000000000001));
#1658=CARTESIAN_POINT('',(-8.83419246269057,-43.,-0.900000000000001));
#1659=CARTESIAN_POINT('',(-8.83419246269057,-44.6,-0.900000000000001));
#1660=CARTESIAN_POINT('Origin',(-33.8341924626906,-44.6,-5.55111512312578E-16));
#1661=CARTESIAN_POINT('',(-57.8341924626906,-44.6,-4.9));
#1662=CARTESIAN_POINT('',(-57.8341924626906,-44.6,-0.0250000186264518));
#1663=CARTESIAN_POINT('',(-8.83419246269057,-44.6,-4.9));
#1664=CARTESIAN_POINT('',(-8.83419246269057,-44.6,4.9));
#1665=CARTESIAN_POINT('',(-8.83419246269057,-44.6,-4.9));
#1666=CARTESIAN_POINT('Origin',(-58.8341924626906,-44.6,-4.9));
#1667=CARTESIAN_POINT('',(-57.8341924626906,-46.,-4.9));
#1668=CARTESIAN_POINT('',(-57.8341924626906,-44.5500001601875,-4.9));
#1669=CARTESIAN_POINT('',(-8.83419246269057,-46.,-4.9));
#1670=CARTESIAN_POINT('',(-8.83419246269057,-44.6,-4.9));
#1671=CARTESIAN_POINT('',(-8.83419246269057,-46.,-4.9));
#1672=CARTESIAN_POINT('Origin',(-58.8341924626906,-46.,-5.00000007450581));
#1673=CARTESIAN_POINT('',(-58.8341924626906,-46.,-5.00000007450581));
#1674=CARTESIAN_POINT('',(-58.8341924626906,-43.0000006407499,-5.00000007450581));
#1675=CARTESIAN_POINT('',(-58.8341924626906,-46.,-5.00000007450581));
#1676=CARTESIAN_POINT('',(-57.8341924626906,-43.0000006407499,-5.00000007450581));
#1677=CARTESIAN_POINT('',(-58.8341924626906,-43.0000006407499,-5.00000007450581));
#1678=CARTESIAN_POINT('',(-57.8341924626906,-46.,-5.00000007450581));
#1679=CARTESIAN_POINT('',(-57.8341924626906,-46.,-5.00000007450581));
#1680=CARTESIAN_POINT('',(-58.8341924626906,-46.,-5.00000007450581));
#1681=CARTESIAN_POINT('Origin',(-57.8341924626906,-44.500000320375,-0.050000037252903));
#1682=CARTESIAN_POINT('',(-57.8341924626906,-46.,4.9));
#1683=CARTESIAN_POINT('',(-57.8341924626906,-43.0000006407499,-5.00000007450581));
#1684=CARTESIAN_POINT('Origin',(2.,-5.5,0.1));
#1685=CARTESIAN_POINT('',(-2.,-8.39827534923789,0.));
#1686=CARTESIAN_POINT('',(2.,-8.39827534923789,0.));
#1687=CARTESIAN_POINT('',(-2.,-2.60172465076211,0.));
#1688=CARTESIAN_POINT('Origin',(-2.,-5.5,0.1));
#1689=CARTESIAN_POINT('',(2.,-2.60172465076211,0.));
#1690=CARTESIAN_POINT('Origin',(-49.,-13.5,0.));
#1691=CARTESIAN_POINT('',(-50.25,-13.5,0.));
#1692=CARTESIAN_POINT('',(-50.25,-13.5,0.));
#1693=CARTESIAN_POINT('Origin',(-49.,-13.5,0.));
#1694=CARTESIAN_POINT('Origin',(-14.,-36.,0.));
#1695=CARTESIAN_POINT('',(-16.25,-36.,0.));
#1696=CARTESIAN_POINT('Origin',(-14.,-36.,0.));
#1697=CARTESIAN_POINT('',(-16.25,-36.,0.));
#1698=CARTESIAN_POINT('Origin',(-14.,-36.,0.));
#1699=CARTESIAN_POINT('',(-15.25,-36.,0.));
#1700=CARTESIAN_POINT('',(-15.25,-36.,0.));
#1701=CARTESIAN_POINT('Origin',(-14.,-36.,0.));
#1702=CARTESIAN_POINT('Origin',(-55.,-13.,0.));
#1703=CARTESIAN_POINT('',(-57.,-13.,0.));
#1704=CARTESIAN_POINT('',(-54.1547005383793,-13.,0.));
#1705=CARTESIAN_POINT('',(-41.7085481156726,-13.,0.));
#1706=CARTESIAN_POINT('',(-57.,-13.,0.));
#1707=CARTESIAN_POINT('',(-54.1547005383793,-13.,0.));
#1708=CARTESIAN_POINT('Origin',(-57.,0.,0.));
#1709=CARTESIAN_POINT('',(-57.,2.,0.));
#1710=CARTESIAN_POINT('',(-57.,-0.5,0.));
#1711=CARTESIAN_POINT('',(-57.,-11.,0.));
#1712=CARTESIAN_POINT('',(-57.,2.,0.));
#1713=CARTESIAN_POINT('',(-57.,-10.5,2.31296463463574E-16));
#1714=CARTESIAN_POINT('',(-57.,-11.,0.));
#1715=CARTESIAN_POINT('Origin',(-57.,-5.5,2.31296463463574E-16));
#1716=CARTESIAN_POINT('Origin',(-54.7320508075689,-12.,0.));
#1717=CARTESIAN_POINT('',(-36.8341924626905,-43.,0.));
#1718=CARTESIAN_POINT('',(-49.2776179760798,-21.4473547906108,0.));
#1719=CARTESIAN_POINT('',(-36.8341924626905,-43.,0.));
#1720=CARTESIAN_POINT('',(-36.8341924626905,-43.,0.));
#1721=CARTESIAN_POINT('Origin',(-55.9,-5.5,2.31296463463574E-16));
#1722=CARTESIAN_POINT('',(-55.,-0.5,-3.81026936110102E-16));
#1723=CARTESIAN_POINT('',(-55.9,-0.5,0.));
#1724=CARTESIAN_POINT('',(-55.,-10.5,0.));
#1725=CARTESIAN_POINT('',(-55.9,-10.5,0.));
#1726=CARTESIAN_POINT('Origin',(-55.,-5.5,2.31296463463574E-16));
#1727=CARTESIAN_POINT('Origin',(-33.8341924626906,-43.,-5.55111512312578E-16));
#1728=CARTESIAN_POINT('',(-58.8341924626906,-43.0000006407499,0.));
#1729=CARTESIAN_POINT('',(-31.1256443470179,-43.,0.));
#1730=CARTESIAN_POINT('',(-58.8341924626906,-43.0000006407499,-5.00000007450581));
#1731=CARTESIAN_POINT('Origin',(-55.,0.,0.));
#1732=CARTESIAN_POINT('',(-55.,0.,0.));
#1733=CARTESIAN_POINT('',(-55.,-11.,0.));
#1734=CARTESIAN_POINT('',(-55.,-11.,0.));
#1735=CARTESIAN_POINT('',(-55.,0.,0.));
#1736=CARTESIAN_POINT('Origin',(-58.8341924626906,-43.,0.9));
#1737=CARTESIAN_POINT('',(-58.8341924626906,-46.,0.));
#1738=CARTESIAN_POINT('',(-58.8341924626906,-32.5,0.));
#1739=CARTESIAN_POINT('',(-58.8341924626906,-46.,-4.9));
#1740=CARTESIAN_POINT('Origin',(-33.8341924626906,-46.,-5.55111512312578E-16));
#1741=CARTESIAN_POINT('',(-8.83419246269057,-46.,0.));
#1742=CARTESIAN_POINT('',(-31.1256443470179,-46.,0.));
#1743=CARTESIAN_POINT('',(-8.83419246269057,-46.,4.9));
#1744=CARTESIAN_POINT('Origin',(-53.0000011622906,-11.0000001639128,0.));
#1745=CARTESIAN_POINT('',(-52.3999982699752,-11.9999997317791,0.));
#1746=CARTESIAN_POINT('',(-47.3198797095363,-20.4668195258381,0.));
#1747=CARTESIAN_POINT('',(-52.3999982699752,-11.9999997317791,0.));
#1748=CARTESIAN_POINT('Origin',(-8.83419246269057,-43.,-0.900000000000001));
#1749=CARTESIAN_POINT('',(-8.83419246269057,-43.,0.));
#1750=CARTESIAN_POINT('',(-8.83419246269057,-32.5,0.));
#1751=CARTESIAN_POINT('',(-8.83419246269057,-43.,-0.45));
#1752=CARTESIAN_POINT('Origin',(-52.3999982699752,-11.9999997317791,0.));
#1753=CARTESIAN_POINT('',(-40.4085471410929,-11.9999999945535,0.));
#1754=CARTESIAN_POINT('Origin',(-35.6794919243113,-43.,0.));
#1755=CARTESIAN_POINT('',(-8.,-43.,0.));
#1756=CARTESIAN_POINT('',(-32.0482940778283,-43.,0.));
#1757=CARTESIAN_POINT('',(-8.,-43.,0.));
#1758=CARTESIAN_POINT('Origin',(-8.,-41.,0.));
#1759=CARTESIAN_POINT('',(-8.,-27.,0.));
#1760=CARTESIAN_POINT('',(-8.,-31.5,0.));
#1761=CARTESIAN_POINT('',(-8.,-27.,0.));
#1762=CARTESIAN_POINT('Origin',(-10.,-27.,0.));
#1763=CARTESIAN_POINT('',(-6.,-27.,0.));
#1764=CARTESIAN_POINT('',(-19.2085481156726,-27.,0.));
#1765=CARTESIAN_POINT('',(-6.,-27.,0.));
#1766=CARTESIAN_POINT('Origin',(-6.,-25.,0.));
#1767=CARTESIAN_POINT('',(-6.,-13.,0.));
#1768=CARTESIAN_POINT('',(-6.,-23.5,0.));
#1769=CARTESIAN_POINT('',(-6.,-13.,0.));
#1770=CARTESIAN_POINT('Origin',(-8.,-13.,0.));
#1771=CARTESIAN_POINT('',(2.,-13.,0.));
#1772=CARTESIAN_POINT('',(-18.2085481156726,-13.,0.));
#1773=CARTESIAN_POINT('',(2.,-13.,0.));
#1774=CARTESIAN_POINT('Origin',(2.,-11.,0.));
#1775=CARTESIAN_POINT('',(2.,2.,0.));
#1776=CARTESIAN_POINT('',(2.,-16.5,0.));
#1777=CARTESIAN_POINT('',(2.,2.,0.));
#1778=CARTESIAN_POINT('Origin',(0.,2.,0.));
#1779=CARTESIAN_POINT('',(-14.2085481156726,2.,0.));
#1780=CARTESIAN_POINT('Origin',(0.,0.,0.));
#1781=CARTESIAN_POINT('',(-14.2085481156726,0.,0.));
#1782=CARTESIAN_POINT('Origin',(-2.,-5.5,0.1));
#1783=CARTESIAN_POINT('',(-2.,-13.75,0.));
#1784=CARTESIAN_POINT('Origin',(-28.4170962313453,-22.,0.));
#1785=CARTESIAN_POINT('Origin',(-28.4170962313453,-22.,0.));
#1786=UNCERTAINTY_MEASURE_WITH_UNIT(LENGTH_MEASURE(0.01),#1790,
'DISTANCE_ACCURACY_VALUE',
'Maximum model space distance between geometric entities at asserted c
onnectivities');
#1787=UNCERTAINTY_MEASURE_WITH_UNIT(LENGTH_MEASURE(0.01),#1790,
'DISTANCE_ACCURACY_VALUE',
'Maximum model space distance between geometric entities at asserted c
onnectivities');
#1788=(
GEOMETRIC_REPRESENTATION_CONTEXT(3)
GLOBAL_UNCERTAINTY_ASSIGNED_CONTEXT((#1786))
GLOBAL_UNIT_ASSIGNED_CONTEXT((#1790,#1792,#1793))
REPRESENTATION_CONTEXT('','3D')
);
#1789=(
GEOMETRIC_REPRESENTATION_CONTEXT(3)
GLOBAL_UNCERTAINTY_ASSIGNED_CONTEXT((#1787))
GLOBAL_UNIT_ASSIGNED_CONTEXT((#1790,#1792,#1793))
REPRESENTATION_CONTEXT('','3D')
);
#1790=(
LENGTH_UNIT()
NAMED_UNIT(*)
SI_UNIT(.MILLI.,.METRE.)
);
#1791=(
LENGTH_UNIT()
NAMED_UNIT(*)
SI_UNIT($,.METRE.)
);
#1792=(
NAMED_UNIT(*)
PLANE_ANGLE_UNIT()
SI_UNIT($,.RADIAN.)
);
#1793=(
NAMED_UNIT(*)
SI_UNIT($,.STERADIAN.)
SOLID_ANGLE_UNIT()
);
#1794=SHAPE_DEFINITION_REPRESENTATION(#1795,#1796);
#1795=PRODUCT_DEFINITION_SHAPE('',$,#1798);
#1796=SHAPE_REPRESENTATION('',(#1107),#1788);
#1797=PRODUCT_DEFINITION_CONTEXT('part definition',#1802,'design');
#1798=PRODUCT_DEFINITION('2026-09-19-00-45-12-406',
'Shooting_Enclosure_1',#1799,#1797);
#1799=PRODUCT_DEFINITION_FORMATION('',$,#1804);
#1800=PRODUCT_RELATED_PRODUCT_CATEGORY('Shooting_Enclosure_1',
'Shooting_Enclosure_1',(#1804));
#1801=APPLICATION_PROTOCOL_DEFINITION('international standard',
'automotive_design',2009,#1802);
#1802=APPLICATION_CONTEXT(
'Core Data for Automotive Mechanical Design Process');
#1803=PRODUCT_CONTEXT('part definition',#1802,'mechanical');
#1804=PRODUCT('2026-09-19-00-45-12-406','Shooting_Enclosure_1',$,(#1803));
#1805=PRESENTATION_STYLE_ASSIGNMENT((#1806));
#1806=SURFACE_STYLE_USAGE(.BOTH.,#1807);
#1807=SURFACE_SIDE_STYLE('',(#1808));
#1808=SURFACE_STYLE_FILL_AREA(#1809);
#1809=FILL_AREA_STYLE('Steel - Satin',(#1810));
#1810=FILL_AREA_STYLE_COLOUR('Steel - Satin',#1811);
#1811=COLOUR_RGB('Steel - Satin',0.627450980392157,0.627450980392157,0.627450980392157);
ENDSEC;
END-ISO-10303-21;
