ISO-10303-21;
HEADER;
/* Generated by software containing ST-Developer
 * from STEP Tools, Inc. (www.steptools.com) 
 */

FILE_DESCRIPTION(
/* description */ (''),
/* implementation_level */ '2;1');

FILE_NAME(
/* name */ 'Shooting_Enclosure_Ver3_Part2.step',
/* time_stamp */ '2026-09-24T11:59:41+05:30',
/* author */ (''),
/* organization */ (''),
/* preprocessor_version */ 'ST-DEVELOPER v20.2',
/* originating_system */ 'Autodesk Translation Framework v15.15.0.0',
/* authorisation */ '');

FILE_SCHEMA (('AUTOMOTIVE_DESIGN { 1 0 10303 214 3 1 1 }'));
ENDSEC;

DATA;
#10=MECHANICAL_DESIGN_GEOMETRIC_PRESENTATION_REPRESENTATION('',(#13),#1758);
#11=SHAPE_REPRESENTATION_RELATIONSHIP('SRR','None',#1765,#12);
#12=ADVANCED_BREP_SHAPE_REPRESENTATION('',(#14),#1757);
#13=STYLED_ITEM('',(#1774),#14);
#14=MANIFOLD_SOLID_BREP('Body1',#1071);
#15=CYLINDRICAL_SURFACE('',#1095,0.5);
#16=CYLINDRICAL_SURFACE('',#1099,0.5);
#17=CYLINDRICAL_SURFACE('',#1103,2.25);
#18=CYLINDRICAL_SURFACE('',#1106,2.25);
#19=CYLINDRICAL_SURFACE('',#1115,1.5);
#20=CYLINDRICAL_SURFACE('',#1127,6.);
#21=CYLINDRICAL_SURFACE('',#1129,1.25);
#22=CYLINDRICAL_SURFACE('',#1132,2.25);
#23=CYLINDRICAL_SURFACE('',#1134,1.25);
#24=CYLINDRICAL_SURFACE('',#1136,1.25);
#25=CYLINDRICAL_SURFACE('',#1142,5.);
#26=CYLINDRICAL_SURFACE('',#1148,4.5);
#27=CYLINDRICAL_SURFACE('',#1161,2.9);
#28=FACE_BOUND('',#121,.T.);
#29=FACE_BOUND('',#122,.T.);
#30=FACE_BOUND('',#123,.T.);
#31=FACE_BOUND('',#143,.T.);
#32=FACE_BOUND('',#144,.T.);
#33=FACE_BOUND('',#150,.T.);
#34=FACE_BOUND('',#154,.T.);
#35=FACE_BOUND('',#176,.T.);
#36=FACE_BOUND('',#181,.T.);
#37=FACE_BOUND('',#183,.T.);
#38=CIRCLE('',#1087,1.25);
#39=CIRCLE('',#1088,1.25);
#40=CIRCLE('',#1089,1.5);
#41=CIRCLE('',#1096,0.5);
#42=CIRCLE('',#1097,0.5);
#43=CIRCLE('',#1100,0.5);
#44=CIRCLE('',#1101,0.5);
#45=CIRCLE('',#1104,2.25);
#46=CIRCLE('',#1105,2.25);
#47=CIRCLE('',#1107,2.25);
#48=CIRCLE('',#1108,2.25);
#49=CIRCLE('',#1113,2.9);
#50=CIRCLE('',#1116,1.5);
#51=CIRCLE('',#1119,2.25);
#52=CIRCLE('',#1125,6.);
#53=CIRCLE('',#1126,1.25);
#54=CIRCLE('',#1128,6.);
#55=CIRCLE('',#1130,1.25);
#56=CIRCLE('',#1133,2.25);
#57=CIRCLE('',#1135,1.25);
#58=CIRCLE('',#1137,1.25);
#59=CIRCLE('',#1140,5.);
#60=CIRCLE('',#1143,5.);
#61=CIRCLE('',#1146,4.5);
#62=CIRCLE('',#1149,4.50000000000001);
#63=CIRCLE('',#1162,2.9);
#64=FACE_OUTER_BOUND('',#119,.T.);
#65=FACE_OUTER_BOUND('',#120,.T.);
#66=FACE_OUTER_BOUND('',#124,.T.);
#67=FACE_OUTER_BOUND('',#125,.T.);
#68=FACE_OUTER_BOUND('',#126,.T.);
#69=FACE_OUTER_BOUND('',#127,.T.);
#70=FACE_OUTER_BOUND('',#128,.T.);
#71=FACE_OUTER_BOUND('',#129,.T.);
#72=FACE_OUTER_BOUND('',#130,.T.);
#73=FACE_OUTER_BOUND('',#131,.T.);
#74=FACE_OUTER_BOUND('',#132,.T.);
#75=FACE_OUTER_BOUND('',#133,.T.);
#76=FACE_OUTER_BOUND('',#134,.T.);
#77=FACE_OUTER_BOUND('',#135,.T.);
#78=FACE_OUTER_BOUND('',#136,.T.);
#79=FACE_OUTER_BOUND('',#137,.T.);
#80=FACE_OUTER_BOUND('',#138,.T.);
#81=FACE_OUTER_BOUND('',#139,.T.);
#82=FACE_OUTER_BOUND('',#140,.T.);
#83=FACE_OUTER_BOUND('',#141,.T.);
#84=FACE_OUTER_BOUND('',#142,.T.);
#85=FACE_OUTER_BOUND('',#145,.T.);
#86=FACE_OUTER_BOUND('',#146,.T.);
#87=FACE_OUTER_BOUND('',#147,.T.);
#88=FACE_OUTER_BOUND('',#148,.T.);
#89=FACE_OUTER_BOUND('',#149,.T.);
#90=FACE_OUTER_BOUND('',#151,.T.);
#91=FACE_OUTER_BOUND('',#152,.T.);
#92=FACE_OUTER_BOUND('',#153,.T.);
#93=FACE_OUTER_BOUND('',#155,.T.);
#94=FACE_OUTER_BOUND('',#156,.T.);
#95=FACE_OUTER_BOUND('',#157,.T.);
#96=FACE_OUTER_BOUND('',#158,.T.);
#97=FACE_OUTER_BOUND('',#159,.T.);
#98=FACE_OUTER_BOUND('',#160,.T.);
#99=FACE_OUTER_BOUND('',#161,.T.);
#100=FACE_OUTER_BOUND('',#162,.T.);
#101=FACE_OUTER_BOUND('',#163,.T.);
#102=FACE_OUTER_BOUND('',#164,.T.);
#103=FACE_OUTER_BOUND('',#165,.T.);
#104=FACE_OUTER_BOUND('',#166,.T.);
#105=FACE_OUTER_BOUND('',#167,.T.);
#106=FACE_OUTER_BOUND('',#168,.T.);
#107=FACE_OUTER_BOUND('',#169,.T.);
#108=FACE_OUTER_BOUND('',#170,.T.);
#109=FACE_OUTER_BOUND('',#171,.T.);
#110=FACE_OUTER_BOUND('',#172,.T.);
#111=FACE_OUTER_BOUND('',#173,.T.);
#112=FACE_OUTER_BOUND('',#174,.T.);
#113=FACE_OUTER_BOUND('',#175,.T.);
#114=FACE_OUTER_BOUND('',#177,.T.);
#115=FACE_OUTER_BOUND('',#178,.T.);
#116=FACE_OUTER_BOUND('',#179,.T.);
#117=FACE_OUTER_BOUND('',#180,.T.);
#118=FACE_OUTER_BOUND('',#182,.T.);
#119=EDGE_LOOP('',(#676,#677,#678,#679));
#120=EDGE_LOOP('',(#680,#681,#682,#683,#684,#685));
#121=EDGE_LOOP('',(#686));
#122=EDGE_LOOP('',(#687));
#123=EDGE_LOOP('',(#688));
#124=EDGE_LOOP('',(#689,#690,#691,#692));
#125=EDGE_LOOP('',(#693,#694,#695,#696));
#126=EDGE_LOOP('',(#697,#698,#699,#700));
#127=EDGE_LOOP('',(#701,#702,#703,#704));
#128=EDGE_LOOP('',(#705,#706,#707,#708));
#129=EDGE_LOOP('',(#709,#710,#711,#712));
#130=EDGE_LOOP('',(#713,#714,#715,#716));
#131=EDGE_LOOP('',(#717,#718,#719,#720));
#132=EDGE_LOOP('',(#721,#722,#723,#724));
#133=EDGE_LOOP('',(#725,#726,#727,#728));
#134=EDGE_LOOP('',(#729,#730,#731,#732));
#135=EDGE_LOOP('',(#733,#734,#735,#736));
#136=EDGE_LOOP('',(#737,#738,#739,#740));
#137=EDGE_LOOP('',(#741,#742,#743,#744));
#138=EDGE_LOOP('',(#745,#746,#747,#748,#749,#750));
#139=EDGE_LOOP('',(#751,#752,#753,#754));
#140=EDGE_LOOP('',(#755,#756,#757,#758));
#141=EDGE_LOOP('',(#759,#760,#761,#762));
#142=EDGE_LOOP('',(#763,#764,#765,#766,#767,#768,#769,#770,#771,#772,#773,
#774,#775,#776,#777,#778,#779));
#143=EDGE_LOOP('',(#780));
#144=EDGE_LOOP('',(#781));
#145=EDGE_LOOP('',(#782,#783,#784,#785,#786));
#146=EDGE_LOOP('',(#787,#788,#789,#790));
#147=EDGE_LOOP('',(#791,#792,#793,#794));
#148=EDGE_LOOP('',(#795,#796,#797,#798));
#149=EDGE_LOOP('',(#799,#800));
#150=EDGE_LOOP('',(#801));
#151=EDGE_LOOP('',(#802,#803,#804,#805));
#152=EDGE_LOOP('',(#806,#807,#808,#809));
#153=EDGE_LOOP('',(#810,#811));
#154=EDGE_LOOP('',(#812));
#155=EDGE_LOOP('',(#813,#814,#815,#816));
#156=EDGE_LOOP('',(#817,#818,#819,#820));
#157=EDGE_LOOP('',(#821,#822,#823,#824));
#158=EDGE_LOOP('',(#825,#826,#827,#828));
#159=EDGE_LOOP('',(#829,#830,#831,#832,#833,#834));
#160=EDGE_LOOP('',(#835,#836,#837,#838,#839));
#161=EDGE_LOOP('',(#840,#841,#842,#843));
#162=EDGE_LOOP('',(#844,#845,#846,#847));
#163=EDGE_LOOP('',(#848,#849,#850,#851));
#164=EDGE_LOOP('',(#852,#853,#854,#855,#856,#857,#858,#859));
#165=EDGE_LOOP('',(#860,#861,#862,#863));
#166=EDGE_LOOP('',(#864,#865,#866,#867));
#167=EDGE_LOOP('',(#868,#869,#870,#871,#872,#873));
#168=EDGE_LOOP('',(#874,#875,#876,#877));
#169=EDGE_LOOP('',(#878,#879,#880,#881,#882,#883));
#170=EDGE_LOOP('',(#884,#885,#886,#887));
#171=EDGE_LOOP('',(#888,#889,#890,#891,#892,#893));
#172=EDGE_LOOP('',(#894,#895,#896,#897));
#173=EDGE_LOOP('',(#898,#899,#900,#901,#902,#903));
#174=EDGE_LOOP('',(#904,#905,#906,#907));
#175=EDGE_LOOP('',(#908,#909,#910,#911));
#176=EDGE_LOOP('',(#912,#913,#914,#915));
#177=EDGE_LOOP('',(#916,#917,#918,#919));
#178=EDGE_LOOP('',(#920,#921,#922,#923));
#179=EDGE_LOOP('',(#924,#925));
#180=EDGE_LOOP('',(#926,#927,#928,#929,#930,#931,#932,#933,#934,#935,#936,
#937,#938,#939,#940,#941,#942,#943,#944,#945,#946,#947,#948,#949,#950,#951,
#952,#953,#954,#955,#956,#957,#958,#959,#960,#961,#962,#963,#964,#965,#966,
#967,#968,#969,#970));
#181=EDGE_LOOP('',(#971));
#182=EDGE_LOOP('',(#972));
#183=EDGE_LOOP('',(#973));
#184=LINE('',#1457,#307);
#185=LINE('',#1459,#308);
#186=LINE('',#1461,#309);
#187=LINE('',#1462,#310);
#188=LINE('',#1466,#311);
#189=LINE('',#1468,#312);
#190=LINE('',#1470,#313);
#191=LINE('',#1472,#314);
#192=LINE('',#1474,#315);
#193=LINE('',#1475,#316);
#194=LINE('',#1484,#317);
#195=LINE('',#1486,#318);
#196=LINE('',#1487,#319);
#197=LINE('',#1488,#320);
#198=LINE('',#1492,#321);
#199=LINE('',#1494,#322);
#200=LINE('',#1496,#323);
#201=LINE('',#1497,#324);
#202=LINE('',#1500,#325);
#203=LINE('',#1502,#326);
#204=LINE('',#1503,#327);
#205=LINE('',#1506,#328);
#206=LINE('',#1508,#329);
#207=LINE('',#1509,#330);
#208=LINE('',#1512,#331);
#209=LINE('',#1514,#332);
#210=LINE('',#1515,#333);
#211=LINE('',#1520,#334);
#212=LINE('',#1524,#335);
#213=LINE('',#1526,#336);
#214=LINE('',#1527,#337);
#215=LINE('',#1532,#338);
#216=LINE('',#1536,#339);
#217=LINE('',#1538,#340);
#218=LINE('',#1539,#341);
#219=LINE('',#1544,#342);
#220=LINE('',#1550,#343);
#221=LINE('',#1554,#344);
#222=LINE('',#1556,#345);
#223=LINE('',#1557,#346);
#224=LINE('',#1560,#347);
#225=LINE('',#1562,#348);
#226=LINE('',#1563,#349);
#227=LINE('',#1566,#350);
#228=LINE('',#1568,#351);
#229=LINE('',#1569,#352);
#230=LINE('',#1572,#353);
#231=LINE('',#1576,#354);
#232=LINE('',#1578,#355);
#233=LINE('',#1579,#356);
#234=LINE('',#1581,#357);
#235=LINE('',#1582,#358);
#236=LINE('',#1585,#359);
#237=LINE('',#1589,#360);
#238=LINE('',#1590,#361);
#239=LINE('',#1593,#362);
#240=LINE('',#1594,#363);
#241=LINE('',#1600,#364);
#242=LINE('',#1602,#365);
#243=LINE('',#1604,#366);
#244=LINE('',#1606,#367);
#245=LINE('',#1607,#368);
#246=LINE('',#1610,#369);
#247=LINE('',#1612,#370);
#248=LINE('',#1613,#371);
#249=LINE('',#1616,#372);
#250=LINE('',#1618,#373);
#251=LINE('',#1619,#374);
#252=LINE('',#1623,#375);
#253=LINE('',#1625,#376);
#254=LINE('',#1627,#377);
#255=LINE('',#1628,#378);
#256=LINE('',#1632,#379);
#257=LINE('',#1638,#380);
#258=LINE('',#1641,#381);
#259=LINE('',#1645,#382);
#260=LINE('',#1647,#383);
#261=LINE('',#1651,#384);
#262=LINE('',#1654,#385);
#263=LINE('',#1658,#386);
#264=LINE('',#1663,#387);
#265=LINE('',#1664,#388);
#266=LINE('',#1665,#389);
#267=LINE('',#1669,#390);
#268=LINE('',#1670,#391);
#269=LINE('',#1672,#392);
#270=LINE('',#1676,#393);
#271=LINE('',#1677,#394);
#272=LINE('',#1678,#395);
#273=LINE('',#1681,#396);
#274=LINE('',#1683,#397);
#275=LINE('',#1687,#398);
#276=LINE('',#1688,#399);
#277=LINE('',#1691,#400);
#278=LINE('',#1693,#401);
#279=LINE('',#1697,#402);
#280=LINE('',#1698,#403);
#281=LINE('',#1699,#404);
#282=LINE('',#1702,#405);
#283=LINE('',#1704,#406);
#284=LINE('',#1708,#407);
#285=LINE('',#1709,#408);
#286=LINE('',#1712,#409);
#287=LINE('',#1713,#410);
#288=LINE('',#1714,#411);
#289=LINE('',#1717,#412);
#290=LINE('',#1718,#413);
#291=LINE('',#1721,#414);
#292=LINE('',#1722,#415);
#293=LINE('',#1725,#416);
#294=LINE('',#1726,#417);
#295=LINE('',#1729,#418);
#296=LINE('',#1730,#419);
#297=LINE('',#1732,#420);
#298=LINE('',#1735,#421);
#299=LINE('',#1736,#422);
#300=LINE('',#1739,#423);
#301=LINE('',#1740,#424);
#302=LINE('',#1742,#425);
#303=LINE('',#1744,#426);
#304=LINE('',#1747,#427);
#305=LINE('',#1750,#428);
#306=LINE('',#1752,#429);
#307=VECTOR('',#1170,10.);
#308=VECTOR('',#1171,10.);
#309=VECTOR('',#1172,10.);
#310=VECTOR('',#1173,10.);
#311=VECTOR('',#1176,10.);
#312=VECTOR('',#1177,10.);
#313=VECTOR('',#1178,10.);
#314=VECTOR('',#1179,10.);
#315=VECTOR('',#1180,10.);
#316=VECTOR('',#1181,10.);
#317=VECTOR('',#1190,10.);
#318=VECTOR('',#1191,10.);
#319=VECTOR('',#1192,10.);
#320=VECTOR('',#1193,10.);
#321=VECTOR('',#1196,10.);
#322=VECTOR('',#1197,10.);
#323=VECTOR('',#1198,10.);
#324=VECTOR('',#1199,10.);
#325=VECTOR('',#1202,10.);
#326=VECTOR('',#1203,10.);
#327=VECTOR('',#1204,10.);
#328=VECTOR('',#1207,10.);
#329=VECTOR('',#1208,10.);
#330=VECTOR('',#1209,10.);
#331=VECTOR('',#1212,10.);
#332=VECTOR('',#1213,10.);
#333=VECTOR('',#1214,10.);
#334=VECTOR('',#1219,10.);
#335=VECTOR('',#1224,10.);
#336=VECTOR('',#1225,10.);
#337=VECTOR('',#1226,10.);
#338=VECTOR('',#1231,10.);
#339=VECTOR('',#1236,10.);
#340=VECTOR('',#1237,10.);
#341=VECTOR('',#1238,10.);
#342=VECTOR('',#1243,10.);
#343=VECTOR('',#1250,10.);
#344=VECTOR('',#1255,10.);
#345=VECTOR('',#1256,10.);
#346=VECTOR('',#1257,10.);
#347=VECTOR('',#1260,10.);
#348=VECTOR('',#1261,10.);
#349=VECTOR('',#1262,10.);
#350=VECTOR('',#1265,10.);
#351=VECTOR('',#1266,10.);
#352=VECTOR('',#1267,10.);
#353=VECTOR('',#1270,10.);
#354=VECTOR('',#1273,10.);
#355=VECTOR('',#1274,10.);
#356=VECTOR('',#1275,10.);
#357=VECTOR('',#1278,10.);
#358=VECTOR('',#1279,10.);
#359=VECTOR('',#1282,1.5);
#360=VECTOR('',#1287,10.);
#361=VECTOR('',#1288,10.);
#362=VECTOR('',#1291,10.);
#363=VECTOR('',#1292,10.);
#364=VECTOR('',#1297,10.);
#365=VECTOR('',#1298,10.);
#366=VECTOR('',#1299,10.);
#367=VECTOR('',#1300,10.);
#368=VECTOR('',#1301,10.);
#369=VECTOR('',#1304,10.);
#370=VECTOR('',#1305,10.);
#371=VECTOR('',#1306,10.);
#372=VECTOR('',#1309,10.);
#373=VECTOR('',#1310,10.);
#374=VECTOR('',#1311,10.);
#375=VECTOR('',#1314,10.);
#376=VECTOR('',#1315,10.);
#377=VECTOR('',#1316,10.);
#378=VECTOR('',#1317,10.);
#379=VECTOR('',#1320,10.);
#380=VECTOR('',#1327,10.);
#381=VECTOR('',#1330,10.);
#382=VECTOR('',#1335,1.25);
#383=VECTOR('',#1338,10.);
#384=VECTOR('',#1343,1.25);
#385=VECTOR('',#1346,1.25);
#386=VECTOR('',#1351,1.25);
#387=VECTOR('',#1356,10.);
#388=VECTOR('',#1357,10.);
#389=VECTOR('',#1358,10.);
#390=VECTOR('',#1361,10.);
#391=VECTOR('',#1362,10.);
#392=VECTOR('',#1363,10.);
#393=VECTOR('',#1368,10.);
#394=VECTOR('',#1369,10.);
#395=VECTOR('',#1370,10.);
#396=VECTOR('',#1373,10.);
#397=VECTOR('',#1374,10.);
#398=VECTOR('',#1379,10.);
#399=VECTOR('',#1380,10.);
#400=VECTOR('',#1383,10.);
#401=VECTOR('',#1384,10.);
#402=VECTOR('',#1389,10.);
#403=VECTOR('',#1390,10.);
#404=VECTOR('',#1391,10.);
#405=VECTOR('',#1394,10.);
#406=VECTOR('',#1395,10.);
#407=VECTOR('',#1400,10.);
#408=VECTOR('',#1401,10.);
#409=VECTOR('',#1404,10.);
#410=VECTOR('',#1405,10.);
#411=VECTOR('',#1406,10.);
#412=VECTOR('',#1409,10.);
#413=VECTOR('',#1410,10.);
#414=VECTOR('',#1413,10.);
#415=VECTOR('',#1414,10.);
#416=VECTOR('',#1417,10.);
#417=VECTOR('',#1418,10.);
#418=VECTOR('',#1421,10.);
#419=VECTOR('',#1422,10.);
#420=VECTOR('',#1425,10.);
#421=VECTOR('',#1428,10.);
#422=VECTOR('',#1429,10.);
#423=VECTOR('',#1432,10.);
#424=VECTOR('',#1433,10.);
#425=VECTOR('',#1436,10.);
#426=VECTOR('',#1439,10.);
#427=VECTOR('',#1442,10.);
#428=VECTOR('',#1445,10.);
#429=VECTOR('',#1448,10.);
#430=VERTEX_POINT('',#1455);
#431=VERTEX_POINT('',#1456);
#432=VERTEX_POINT('',#1458);
#433=VERTEX_POINT('',#1460);
#434=VERTEX_POINT('',#1464);
#435=VERTEX_POINT('',#1465);
#436=VERTEX_POINT('',#1467);
#437=VERTEX_POINT('',#1469);
#438=VERTEX_POINT('',#1471);
#439=VERTEX_POINT('',#1473);
#440=VERTEX_POINT('',#1476);
#441=VERTEX_POINT('',#1478);
#442=VERTEX_POINT('',#1480);
#443=VERTEX_POINT('',#1483);
#444=VERTEX_POINT('',#1485);
#445=VERTEX_POINT('',#1490);
#446=VERTEX_POINT('',#1491);
#447=VERTEX_POINT('',#1493);
#448=VERTEX_POINT('',#1495);
#449=VERTEX_POINT('',#1499);
#450=VERTEX_POINT('',#1501);
#451=VERTEX_POINT('',#1505);
#452=VERTEX_POINT('',#1507);
#453=VERTEX_POINT('',#1511);
#454=VERTEX_POINT('',#1513);
#455=VERTEX_POINT('',#1517);
#456=VERTEX_POINT('',#1519);
#457=VERTEX_POINT('',#1523);
#458=VERTEX_POINT('',#1525);
#459=VERTEX_POINT('',#1529);
#460=VERTEX_POINT('',#1531);
#461=VERTEX_POINT('',#1535);
#462=VERTEX_POINT('',#1537);
#463=VERTEX_POINT('',#1541);
#464=VERTEX_POINT('',#1543);
#465=VERTEX_POINT('',#1547);
#466=VERTEX_POINT('',#1549);
#467=VERTEX_POINT('',#1553);
#468=VERTEX_POINT('',#1555);
#469=VERTEX_POINT('',#1559);
#470=VERTEX_POINT('',#1561);
#471=VERTEX_POINT('',#1565);
#472=VERTEX_POINT('',#1567);
#473=VERTEX_POINT('',#1571);
#474=VERTEX_POINT('',#1573);
#475=VERTEX_POINT('',#1575);
#476=VERTEX_POINT('',#1577);
#477=VERTEX_POINT('',#1584);
#478=VERTEX_POINT('',#1588);
#479=VERTEX_POINT('',#1592);
#480=VERTEX_POINT('',#1595);
#481=VERTEX_POINT('',#1598);
#482=VERTEX_POINT('',#1599);
#483=VERTEX_POINT('',#1601);
#484=VERTEX_POINT('',#1603);
#485=VERTEX_POINT('',#1605);
#486=VERTEX_POINT('',#1609);
#487=VERTEX_POINT('',#1611);
#488=VERTEX_POINT('',#1615);
#489=VERTEX_POINT('',#1617);
#490=VERTEX_POINT('',#1621);
#491=VERTEX_POINT('',#1622);
#492=VERTEX_POINT('',#1624);
#493=VERTEX_POINT('',#1626);
#494=VERTEX_POINT('',#1630);
#495=VERTEX_POINT('',#1631);
#496=VERTEX_POINT('',#1634);
#497=VERTEX_POINT('',#1637);
#498=VERTEX_POINT('',#1639);
#499=VERTEX_POINT('',#1643);
#500=VERTEX_POINT('',#1649);
#501=VERTEX_POINT('',#1653);
#502=VERTEX_POINT('',#1657);
#503=VERTEX_POINT('',#1661);
#504=VERTEX_POINT('',#1662);
#505=VERTEX_POINT('',#1667);
#506=VERTEX_POINT('',#1668);
#507=VERTEX_POINT('',#1671);
#508=VERTEX_POINT('',#1675);
#509=VERTEX_POINT('',#1680);
#510=VERTEX_POINT('',#1682);
#511=VERTEX_POINT('',#1686);
#512=VERTEX_POINT('',#1690);
#513=VERTEX_POINT('',#1692);
#514=VERTEX_POINT('',#1696);
#515=VERTEX_POINT('',#1701);
#516=VERTEX_POINT('',#1703);
#517=VERTEX_POINT('',#1707);
#518=VERTEX_POINT('',#1711);
#519=VERTEX_POINT('',#1716);
#520=VERTEX_POINT('',#1720);
#521=VERTEX_POINT('',#1724);
#522=VERTEX_POINT('',#1728);
#523=VERTEX_POINT('',#1734);
#524=VERTEX_POINT('',#1738);
#525=VERTEX_POINT('',#1746);
#526=VERTEX_POINT('',#1748);
#527=EDGE_CURVE('',#430,#431,#184,.T.);
#528=EDGE_CURVE('',#430,#432,#185,.T.);
#529=EDGE_CURVE('',#432,#433,#186,.T.);
#530=EDGE_CURVE('',#431,#433,#187,.T.);
#531=EDGE_CURVE('',#434,#435,#188,.F.);
#532=EDGE_CURVE('',#435,#436,#189,.F.);
#533=EDGE_CURVE('',#436,#437,#190,.F.);
#534=EDGE_CURVE('',#437,#438,#191,.F.);
#535=EDGE_CURVE('',#438,#439,#192,.F.);
#536=EDGE_CURVE('',#439,#434,#193,.F.);
#537=EDGE_CURVE('',#440,#440,#38,.T.);
#538=EDGE_CURVE('',#441,#441,#39,.T.);
#539=EDGE_CURVE('',#442,#442,#40,.T.);
#540=EDGE_CURVE('',#443,#431,#194,.T.);
#541=EDGE_CURVE('',#444,#443,#195,.T.);
#542=EDGE_CURVE('',#433,#444,#196,.T.);
#543=EDGE_CURVE('',#431,#433,#197,.T.);
#544=EDGE_CURVE('',#445,#446,#198,.T.);
#545=EDGE_CURVE('',#447,#445,#199,.T.);
#546=EDGE_CURVE('',#448,#447,#200,.T.);
#547=EDGE_CURVE('',#448,#446,#201,.T.);
#548=EDGE_CURVE('',#446,#449,#202,.T.);
#549=EDGE_CURVE('',#450,#448,#203,.T.);
#550=EDGE_CURVE('',#450,#449,#204,.T.);
#551=EDGE_CURVE('',#449,#451,#205,.T.);
#552=EDGE_CURVE('',#452,#450,#206,.T.);
#553=EDGE_CURVE('',#451,#452,#207,.T.);
#554=EDGE_CURVE('',#453,#443,#208,.T.);
#555=EDGE_CURVE('',#454,#453,#209,.T.);
#556=EDGE_CURVE('',#444,#454,#210,.T.);
#557=EDGE_CURVE('',#455,#453,#41,.T.);
#558=EDGE_CURVE('',#455,#456,#211,.T.);
#559=EDGE_CURVE('',#456,#454,#42,.T.);
#560=EDGE_CURVE('',#457,#455,#212,.T.);
#561=EDGE_CURVE('',#458,#457,#213,.T.);
#562=EDGE_CURVE('',#456,#458,#214,.T.);
#563=EDGE_CURVE('',#459,#457,#43,.T.);
#564=EDGE_CURVE('',#459,#460,#215,.T.);
#565=EDGE_CURVE('',#460,#458,#44,.T.);
#566=EDGE_CURVE('',#461,#459,#216,.T.);
#567=EDGE_CURVE('',#461,#462,#217,.T.);
#568=EDGE_CURVE('',#460,#462,#218,.T.);
#569=EDGE_CURVE('',#463,#430,#45,.T.);
#570=EDGE_CURVE('',#464,#463,#219,.T.);
#571=EDGE_CURVE('',#432,#464,#46,.T.);
#572=EDGE_CURVE('',#465,#461,#47,.T.);
#573=EDGE_CURVE('',#466,#465,#220,.T.);
#574=EDGE_CURVE('',#462,#466,#48,.T.);
#575=EDGE_CURVE('',#431,#467,#221,.T.);
#576=EDGE_CURVE('',#433,#468,#222,.T.);
#577=EDGE_CURVE('',#468,#467,#223,.T.);
#578=EDGE_CURVE('',#469,#465,#224,.T.);
#579=EDGE_CURVE('',#470,#469,#225,.T.);
#580=EDGE_CURVE('',#470,#466,#226,.T.);
#581=EDGE_CURVE('',#471,#469,#227,.T.);
#582=EDGE_CURVE('',#472,#471,#228,.T.);
#583=EDGE_CURVE('',#472,#470,#229,.T.);
#584=EDGE_CURVE('',#473,#445,#230,.T.);
#585=EDGE_CURVE('',#473,#474,#49,.T.);
#586=EDGE_CURVE('',#475,#474,#231,.T.);
#587=EDGE_CURVE('',#476,#475,#232,.T.);
#588=EDGE_CURVE('',#476,#447,#233,.T.);
#589=EDGE_CURVE('',#451,#471,#234,.T.);
#590=EDGE_CURVE('',#452,#472,#235,.T.);
#591=EDGE_CURVE('',#442,#477,#236,.T.);
#592=EDGE_CURVE('',#477,#477,#50,.T.);
#593=EDGE_CURVE('',#478,#433,#237,.T.);
#594=EDGE_CURVE('',#464,#478,#238,.T.);
#595=EDGE_CURVE('',#479,#476,#239,.T.);
#596=EDGE_CURVE('',#468,#479,#240,.T.);
#597=EDGE_CURVE('',#480,#480,#51,.T.);
#598=EDGE_CURVE('',#481,#482,#241,.T.);
#599=EDGE_CURVE('',#483,#482,#242,.T.);
#600=EDGE_CURVE('',#484,#483,#243,.T.);
#601=EDGE_CURVE('',#484,#485,#244,.T.);
#602=EDGE_CURVE('',#481,#485,#245,.T.);
#603=EDGE_CURVE('',#486,#481,#246,.T.);
#604=EDGE_CURVE('',#485,#487,#247,.T.);
#605=EDGE_CURVE('',#487,#486,#248,.T.);
#606=EDGE_CURVE('',#488,#486,#249,.T.);
#607=EDGE_CURVE('',#487,#489,#250,.T.);
#608=EDGE_CURVE('',#488,#489,#251,.T.);
#609=EDGE_CURVE('',#490,#491,#252,.T.);
#610=EDGE_CURVE('',#491,#492,#253,.T.);
#611=EDGE_CURVE('',#493,#492,#254,.T.);
#612=EDGE_CURVE('',#490,#493,#255,.T.);
#613=EDGE_CURVE('',#494,#495,#256,.T.);
#614=EDGE_CURVE('',#494,#495,#52,.T.);
#615=EDGE_CURVE('',#496,#496,#53,.T.);
#616=EDGE_CURVE('',#497,#494,#257,.T.);
#617=EDGE_CURVE('',#498,#497,#54,.T.);
#618=EDGE_CURVE('',#495,#498,#258,.T.);
#619=EDGE_CURVE('',#499,#499,#55,.T.);
#620=EDGE_CURVE('',#499,#496,#259,.T.);
#621=EDGE_CURVE('',#498,#497,#260,.T.);
#622=EDGE_CURVE('',#500,#500,#56,.T.);
#623=EDGE_CURVE('',#500,#480,#261,.T.);
#624=EDGE_CURVE('',#441,#501,#262,.T.);
#625=EDGE_CURVE('',#501,#501,#57,.T.);
#626=EDGE_CURVE('',#440,#502,#263,.T.);
#627=EDGE_CURVE('',#502,#502,#58,.T.);
#628=EDGE_CURVE('',#503,#504,#264,.T.);
#629=EDGE_CURVE('',#436,#503,#265,.F.);
#630=EDGE_CURVE('',#504,#435,#266,.T.);
#631=EDGE_CURVE('',#505,#506,#267,.T.);
#632=EDGE_CURVE('',#437,#505,#268,.F.);
#633=EDGE_CURVE('',#507,#503,#269,.T.);
#634=EDGE_CURVE('',#507,#506,#59,.T.);
#635=EDGE_CURVE('',#504,#508,#270,.T.);
#636=EDGE_CURVE('',#434,#483,#271,.F.);
#637=EDGE_CURVE('',#483,#508,#272,.F.);
#638=EDGE_CURVE('',#506,#509,#273,.T.);
#639=EDGE_CURVE('',#510,#507,#274,.T.);
#640=EDGE_CURVE('',#509,#510,#60,.T.);
#641=EDGE_CURVE('',#508,#511,#275,.T.);
#642=EDGE_CURVE('',#482,#511,#276,.T.);
#643=EDGE_CURVE('',#509,#512,#277,.T.);
#644=EDGE_CURVE('',#513,#510,#278,.T.);
#645=EDGE_CURVE('',#513,#512,#61,.T.);
#646=EDGE_CURVE('',#511,#514,#279,.T.);
#647=EDGE_CURVE('',#488,#493,#280,.T.);
#648=EDGE_CURVE('',#492,#514,#281,.T.);
#649=EDGE_CURVE('',#512,#515,#282,.T.);
#650=EDGE_CURVE('',#516,#513,#283,.T.);
#651=EDGE_CURVE('',#515,#516,#62,.T.);
#652=EDGE_CURVE('',#514,#517,#284,.T.);
#653=EDGE_CURVE('',#491,#517,#285,.T.);
#654=EDGE_CURVE('',#515,#518,#286,.T.);
#655=EDGE_CURVE('',#467,#516,#287,.T.);
#656=EDGE_CURVE('',#479,#518,#288,.T.);
#657=EDGE_CURVE('',#517,#519,#289,.T.);
#658=EDGE_CURVE('',#519,#490,#290,.T.);
#659=EDGE_CURVE('',#519,#520,#291,.T.);
#660=EDGE_CURVE('',#489,#520,#292,.T.);
#661=EDGE_CURVE('',#431,#521,#293,.T.);
#662=EDGE_CURVE('',#521,#478,#294,.T.);
#663=EDGE_CURVE('',#520,#522,#295,.T.);
#664=EDGE_CURVE('',#522,#484,#296,.T.);
#665=EDGE_CURVE('',#521,#463,#297,.T.);
#666=EDGE_CURVE('',#522,#523,#298,.T.);
#667=EDGE_CURVE('',#439,#523,#299,.F.);
#668=EDGE_CURVE('',#523,#524,#300,.T.);
#669=EDGE_CURVE('',#438,#524,#301,.F.);
#670=EDGE_CURVE('',#524,#505,#302,.T.);
#671=EDGE_CURVE('',#518,#475,#303,.T.);
#672=EDGE_CURVE('',#525,#473,#304,.T.);
#673=EDGE_CURVE('',#526,#525,#63,.T.);
#674=EDGE_CURVE('',#474,#526,#305,.T.);
#675=EDGE_CURVE('',#526,#525,#306,.T.);
#676=ORIENTED_EDGE('',*,*,#527,.F.);
#677=ORIENTED_EDGE('',*,*,#528,.T.);
#678=ORIENTED_EDGE('',*,*,#529,.T.);
#679=ORIENTED_EDGE('',*,*,#530,.F.);
#680=ORIENTED_EDGE('',*,*,#531,.T.);
#681=ORIENTED_EDGE('',*,*,#532,.T.);
#682=ORIENTED_EDGE('',*,*,#533,.T.);
#683=ORIENTED_EDGE('',*,*,#534,.T.);
#684=ORIENTED_EDGE('',*,*,#535,.T.);
#685=ORIENTED_EDGE('',*,*,#536,.T.);
#686=ORIENTED_EDGE('',*,*,#537,.T.);
#687=ORIENTED_EDGE('',*,*,#538,.T.);
#688=ORIENTED_EDGE('',*,*,#539,.T.);
#689=ORIENTED_EDGE('',*,*,#540,.F.);
#690=ORIENTED_EDGE('',*,*,#541,.F.);
#691=ORIENTED_EDGE('',*,*,#542,.F.);
#692=ORIENTED_EDGE('',*,*,#543,.F.);
#693=ORIENTED_EDGE('',*,*,#544,.F.);
#694=ORIENTED_EDGE('',*,*,#545,.F.);
#695=ORIENTED_EDGE('',*,*,#546,.F.);
#696=ORIENTED_EDGE('',*,*,#547,.T.);
#697=ORIENTED_EDGE('',*,*,#548,.F.);
#698=ORIENTED_EDGE('',*,*,#547,.F.);
#699=ORIENTED_EDGE('',*,*,#549,.F.);
#700=ORIENTED_EDGE('',*,*,#550,.T.);
#701=ORIENTED_EDGE('',*,*,#551,.F.);
#702=ORIENTED_EDGE('',*,*,#550,.F.);
#703=ORIENTED_EDGE('',*,*,#552,.F.);
#704=ORIENTED_EDGE('',*,*,#553,.F.);
#705=ORIENTED_EDGE('',*,*,#554,.F.);
#706=ORIENTED_EDGE('',*,*,#555,.F.);
#707=ORIENTED_EDGE('',*,*,#556,.F.);
#708=ORIENTED_EDGE('',*,*,#541,.T.);
#709=ORIENTED_EDGE('',*,*,#557,.F.);
#710=ORIENTED_EDGE('',*,*,#558,.T.);
#711=ORIENTED_EDGE('',*,*,#559,.T.);
#712=ORIENTED_EDGE('',*,*,#555,.T.);
#713=ORIENTED_EDGE('',*,*,#560,.F.);
#714=ORIENTED_EDGE('',*,*,#561,.F.);
#715=ORIENTED_EDGE('',*,*,#562,.F.);
#716=ORIENTED_EDGE('',*,*,#558,.F.);
#717=ORIENTED_EDGE('',*,*,#563,.F.);
#718=ORIENTED_EDGE('',*,*,#564,.T.);
#719=ORIENTED_EDGE('',*,*,#565,.T.);
#720=ORIENTED_EDGE('',*,*,#561,.T.);
#721=ORIENTED_EDGE('',*,*,#566,.F.);
#722=ORIENTED_EDGE('',*,*,#567,.T.);
#723=ORIENTED_EDGE('',*,*,#568,.F.);
#724=ORIENTED_EDGE('',*,*,#564,.F.);
#725=ORIENTED_EDGE('',*,*,#569,.F.);
#726=ORIENTED_EDGE('',*,*,#570,.F.);
#727=ORIENTED_EDGE('',*,*,#571,.F.);
#728=ORIENTED_EDGE('',*,*,#528,.F.);
#729=ORIENTED_EDGE('',*,*,#572,.F.);
#730=ORIENTED_EDGE('',*,*,#573,.F.);
#731=ORIENTED_EDGE('',*,*,#574,.F.);
#732=ORIENTED_EDGE('',*,*,#567,.F.);
#733=ORIENTED_EDGE('',*,*,#575,.F.);
#734=ORIENTED_EDGE('',*,*,#530,.T.);
#735=ORIENTED_EDGE('',*,*,#576,.T.);
#736=ORIENTED_EDGE('',*,*,#577,.T.);
#737=ORIENTED_EDGE('',*,*,#578,.F.);
#738=ORIENTED_EDGE('',*,*,#579,.F.);
#739=ORIENTED_EDGE('',*,*,#580,.T.);
#740=ORIENTED_EDGE('',*,*,#573,.T.);
#741=ORIENTED_EDGE('',*,*,#581,.F.);
#742=ORIENTED_EDGE('',*,*,#582,.F.);
#743=ORIENTED_EDGE('',*,*,#583,.T.);
#744=ORIENTED_EDGE('',*,*,#579,.T.);
#745=ORIENTED_EDGE('',*,*,#584,.F.);
#746=ORIENTED_EDGE('',*,*,#585,.T.);
#747=ORIENTED_EDGE('',*,*,#586,.F.);
#748=ORIENTED_EDGE('',*,*,#587,.F.);
#749=ORIENTED_EDGE('',*,*,#588,.T.);
#750=ORIENTED_EDGE('',*,*,#545,.T.);
#751=ORIENTED_EDGE('',*,*,#589,.F.);
#752=ORIENTED_EDGE('',*,*,#553,.T.);
#753=ORIENTED_EDGE('',*,*,#590,.T.);
#754=ORIENTED_EDGE('',*,*,#582,.T.);
#755=ORIENTED_EDGE('',*,*,#539,.F.);
#756=ORIENTED_EDGE('',*,*,#591,.T.);
#757=ORIENTED_EDGE('',*,*,#592,.F.);
#758=ORIENTED_EDGE('',*,*,#591,.F.);
#759=ORIENTED_EDGE('',*,*,#593,.T.);
#760=ORIENTED_EDGE('',*,*,#529,.F.);
#761=ORIENTED_EDGE('',*,*,#571,.T.);
#762=ORIENTED_EDGE('',*,*,#594,.T.);
#763=ORIENTED_EDGE('',*,*,#546,.T.);
#764=ORIENTED_EDGE('',*,*,#588,.F.);
#765=ORIENTED_EDGE('',*,*,#595,.F.);
#766=ORIENTED_EDGE('',*,*,#596,.F.);
#767=ORIENTED_EDGE('',*,*,#576,.F.);
#768=ORIENTED_EDGE('',*,*,#542,.T.);
#769=ORIENTED_EDGE('',*,*,#556,.T.);
#770=ORIENTED_EDGE('',*,*,#559,.F.);
#771=ORIENTED_EDGE('',*,*,#562,.T.);
#772=ORIENTED_EDGE('',*,*,#565,.F.);
#773=ORIENTED_EDGE('',*,*,#568,.T.);
#774=ORIENTED_EDGE('',*,*,#574,.T.);
#775=ORIENTED_EDGE('',*,*,#580,.F.);
#776=ORIENTED_EDGE('',*,*,#583,.F.);
#777=ORIENTED_EDGE('',*,*,#590,.F.);
#778=ORIENTED_EDGE('',*,*,#552,.T.);
#779=ORIENTED_EDGE('',*,*,#549,.T.);
#780=ORIENTED_EDGE('',*,*,#592,.T.);
#781=ORIENTED_EDGE('',*,*,#597,.T.);
#782=ORIENTED_EDGE('',*,*,#598,.T.);
#783=ORIENTED_EDGE('',*,*,#599,.F.);
#784=ORIENTED_EDGE('',*,*,#600,.F.);
#785=ORIENTED_EDGE('',*,*,#601,.T.);
#786=ORIENTED_EDGE('',*,*,#602,.F.);
#787=ORIENTED_EDGE('',*,*,#603,.T.);
#788=ORIENTED_EDGE('',*,*,#602,.T.);
#789=ORIENTED_EDGE('',*,*,#604,.T.);
#790=ORIENTED_EDGE('',*,*,#605,.T.);
#791=ORIENTED_EDGE('',*,*,#606,.T.);
#792=ORIENTED_EDGE('',*,*,#605,.F.);
#793=ORIENTED_EDGE('',*,*,#607,.T.);
#794=ORIENTED_EDGE('',*,*,#608,.F.);
#795=ORIENTED_EDGE('',*,*,#609,.T.);
#796=ORIENTED_EDGE('',*,*,#610,.T.);
#797=ORIENTED_EDGE('',*,*,#611,.F.);
#798=ORIENTED_EDGE('',*,*,#612,.F.);
#799=ORIENTED_EDGE('',*,*,#613,.F.);
#800=ORIENTED_EDGE('',*,*,#614,.T.);
#801=ORIENTED_EDGE('',*,*,#615,.T.);
#802=ORIENTED_EDGE('',*,*,#616,.F.);
#803=ORIENTED_EDGE('',*,*,#617,.F.);
#804=ORIENTED_EDGE('',*,*,#618,.F.);
#805=ORIENTED_EDGE('',*,*,#614,.F.);
#806=ORIENTED_EDGE('',*,*,#619,.F.);
#807=ORIENTED_EDGE('',*,*,#620,.T.);
#808=ORIENTED_EDGE('',*,*,#615,.F.);
#809=ORIENTED_EDGE('',*,*,#620,.F.);
#810=ORIENTED_EDGE('',*,*,#621,.F.);
#811=ORIENTED_EDGE('',*,*,#617,.T.);
#812=ORIENTED_EDGE('',*,*,#619,.T.);
#813=ORIENTED_EDGE('',*,*,#622,.F.);
#814=ORIENTED_EDGE('',*,*,#623,.T.);
#815=ORIENTED_EDGE('',*,*,#597,.F.);
#816=ORIENTED_EDGE('',*,*,#623,.F.);
#817=ORIENTED_EDGE('',*,*,#538,.F.);
#818=ORIENTED_EDGE('',*,*,#624,.T.);
#819=ORIENTED_EDGE('',*,*,#625,.F.);
#820=ORIENTED_EDGE('',*,*,#624,.F.);
#821=ORIENTED_EDGE('',*,*,#537,.F.);
#822=ORIENTED_EDGE('',*,*,#626,.T.);
#823=ORIENTED_EDGE('',*,*,#627,.F.);
#824=ORIENTED_EDGE('',*,*,#626,.F.);
#825=ORIENTED_EDGE('',*,*,#628,.F.);
#826=ORIENTED_EDGE('',*,*,#629,.F.);
#827=ORIENTED_EDGE('',*,*,#532,.F.);
#828=ORIENTED_EDGE('',*,*,#630,.F.);
#829=ORIENTED_EDGE('',*,*,#631,.F.);
#830=ORIENTED_EDGE('',*,*,#632,.F.);
#831=ORIENTED_EDGE('',*,*,#533,.F.);
#832=ORIENTED_EDGE('',*,*,#629,.T.);
#833=ORIENTED_EDGE('',*,*,#633,.F.);
#834=ORIENTED_EDGE('',*,*,#634,.T.);
#835=ORIENTED_EDGE('',*,*,#635,.F.);
#836=ORIENTED_EDGE('',*,*,#630,.T.);
#837=ORIENTED_EDGE('',*,*,#531,.F.);
#838=ORIENTED_EDGE('',*,*,#636,.T.);
#839=ORIENTED_EDGE('',*,*,#637,.T.);
#840=ORIENTED_EDGE('',*,*,#638,.F.);
#841=ORIENTED_EDGE('',*,*,#634,.F.);
#842=ORIENTED_EDGE('',*,*,#639,.F.);
#843=ORIENTED_EDGE('',*,*,#640,.F.);
#844=ORIENTED_EDGE('',*,*,#641,.F.);
#845=ORIENTED_EDGE('',*,*,#637,.F.);
#846=ORIENTED_EDGE('',*,*,#599,.T.);
#847=ORIENTED_EDGE('',*,*,#642,.T.);
#848=ORIENTED_EDGE('',*,*,#643,.F.);
#849=ORIENTED_EDGE('',*,*,#640,.T.);
#850=ORIENTED_EDGE('',*,*,#644,.F.);
#851=ORIENTED_EDGE('',*,*,#645,.T.);
#852=ORIENTED_EDGE('',*,*,#646,.F.);
#853=ORIENTED_EDGE('',*,*,#642,.F.);
#854=ORIENTED_EDGE('',*,*,#598,.F.);
#855=ORIENTED_EDGE('',*,*,#603,.F.);
#856=ORIENTED_EDGE('',*,*,#606,.F.);
#857=ORIENTED_EDGE('',*,*,#647,.T.);
#858=ORIENTED_EDGE('',*,*,#611,.T.);
#859=ORIENTED_EDGE('',*,*,#648,.T.);
#860=ORIENTED_EDGE('',*,*,#649,.F.);
#861=ORIENTED_EDGE('',*,*,#645,.F.);
#862=ORIENTED_EDGE('',*,*,#650,.F.);
#863=ORIENTED_EDGE('',*,*,#651,.F.);
#864=ORIENTED_EDGE('',*,*,#652,.F.);
#865=ORIENTED_EDGE('',*,*,#648,.F.);
#866=ORIENTED_EDGE('',*,*,#610,.F.);
#867=ORIENTED_EDGE('',*,*,#653,.T.);
#868=ORIENTED_EDGE('',*,*,#654,.F.);
#869=ORIENTED_EDGE('',*,*,#651,.T.);
#870=ORIENTED_EDGE('',*,*,#655,.F.);
#871=ORIENTED_EDGE('',*,*,#577,.F.);
#872=ORIENTED_EDGE('',*,*,#596,.T.);
#873=ORIENTED_EDGE('',*,*,#656,.T.);
#874=ORIENTED_EDGE('',*,*,#657,.F.);
#875=ORIENTED_EDGE('',*,*,#653,.F.);
#876=ORIENTED_EDGE('',*,*,#609,.F.);
#877=ORIENTED_EDGE('',*,*,#658,.F.);
#878=ORIENTED_EDGE('',*,*,#659,.F.);
#879=ORIENTED_EDGE('',*,*,#658,.T.);
#880=ORIENTED_EDGE('',*,*,#612,.T.);
#881=ORIENTED_EDGE('',*,*,#647,.F.);
#882=ORIENTED_EDGE('',*,*,#608,.T.);
#883=ORIENTED_EDGE('',*,*,#660,.T.);
#884=ORIENTED_EDGE('',*,*,#661,.F.);
#885=ORIENTED_EDGE('',*,*,#543,.T.);
#886=ORIENTED_EDGE('',*,*,#593,.F.);
#887=ORIENTED_EDGE('',*,*,#662,.F.);
#888=ORIENTED_EDGE('',*,*,#663,.F.);
#889=ORIENTED_EDGE('',*,*,#660,.F.);
#890=ORIENTED_EDGE('',*,*,#607,.F.);
#891=ORIENTED_EDGE('',*,*,#604,.F.);
#892=ORIENTED_EDGE('',*,*,#601,.F.);
#893=ORIENTED_EDGE('',*,*,#664,.F.);
#894=ORIENTED_EDGE('',*,*,#665,.F.);
#895=ORIENTED_EDGE('',*,*,#662,.T.);
#896=ORIENTED_EDGE('',*,*,#594,.F.);
#897=ORIENTED_EDGE('',*,*,#570,.T.);
#898=ORIENTED_EDGE('',*,*,#666,.F.);
#899=ORIENTED_EDGE('',*,*,#664,.T.);
#900=ORIENTED_EDGE('',*,*,#600,.T.);
#901=ORIENTED_EDGE('',*,*,#636,.F.);
#902=ORIENTED_EDGE('',*,*,#536,.F.);
#903=ORIENTED_EDGE('',*,*,#667,.T.);
#904=ORIENTED_EDGE('',*,*,#668,.F.);
#905=ORIENTED_EDGE('',*,*,#667,.F.);
#906=ORIENTED_EDGE('',*,*,#535,.F.);
#907=ORIENTED_EDGE('',*,*,#669,.T.);
#908=ORIENTED_EDGE('',*,*,#670,.F.);
#909=ORIENTED_EDGE('',*,*,#669,.F.);
#910=ORIENTED_EDGE('',*,*,#534,.F.);
#911=ORIENTED_EDGE('',*,*,#632,.T.);
#912=ORIENTED_EDGE('',*,*,#618,.T.);
#913=ORIENTED_EDGE('',*,*,#621,.T.);
#914=ORIENTED_EDGE('',*,*,#616,.T.);
#915=ORIENTED_EDGE('',*,*,#613,.T.);
#916=ORIENTED_EDGE('',*,*,#671,.F.);
#917=ORIENTED_EDGE('',*,*,#656,.F.);
#918=ORIENTED_EDGE('',*,*,#595,.T.);
#919=ORIENTED_EDGE('',*,*,#587,.T.);
#920=ORIENTED_EDGE('',*,*,#672,.F.);
#921=ORIENTED_EDGE('',*,*,#673,.F.);
#922=ORIENTED_EDGE('',*,*,#674,.F.);
#923=ORIENTED_EDGE('',*,*,#585,.F.);
#924=ORIENTED_EDGE('',*,*,#675,.F.);
#925=ORIENTED_EDGE('',*,*,#673,.T.);
#926=ORIENTED_EDGE('',*,*,#628,.T.);
#927=ORIENTED_EDGE('',*,*,#635,.T.);
#928=ORIENTED_EDGE('',*,*,#641,.T.);
#929=ORIENTED_EDGE('',*,*,#646,.T.);
#930=ORIENTED_EDGE('',*,*,#652,.T.);
#931=ORIENTED_EDGE('',*,*,#657,.T.);
#932=ORIENTED_EDGE('',*,*,#659,.T.);
#933=ORIENTED_EDGE('',*,*,#663,.T.);
#934=ORIENTED_EDGE('',*,*,#666,.T.);
#935=ORIENTED_EDGE('',*,*,#668,.T.);
#936=ORIENTED_EDGE('',*,*,#670,.T.);
#937=ORIENTED_EDGE('',*,*,#631,.T.);
#938=ORIENTED_EDGE('',*,*,#638,.T.);
#939=ORIENTED_EDGE('',*,*,#643,.T.);
#940=ORIENTED_EDGE('',*,*,#649,.T.);
#941=ORIENTED_EDGE('',*,*,#654,.T.);
#942=ORIENTED_EDGE('',*,*,#671,.T.);
#943=ORIENTED_EDGE('',*,*,#586,.T.);
#944=ORIENTED_EDGE('',*,*,#674,.T.);
#945=ORIENTED_EDGE('',*,*,#675,.T.);
#946=ORIENTED_EDGE('',*,*,#672,.T.);
#947=ORIENTED_EDGE('',*,*,#584,.T.);
#948=ORIENTED_EDGE('',*,*,#544,.T.);
#949=ORIENTED_EDGE('',*,*,#548,.T.);
#950=ORIENTED_EDGE('',*,*,#551,.T.);
#951=ORIENTED_EDGE('',*,*,#589,.T.);
#952=ORIENTED_EDGE('',*,*,#581,.T.);
#953=ORIENTED_EDGE('',*,*,#578,.T.);
#954=ORIENTED_EDGE('',*,*,#572,.T.);
#955=ORIENTED_EDGE('',*,*,#566,.T.);
#956=ORIENTED_EDGE('',*,*,#563,.T.);
#957=ORIENTED_EDGE('',*,*,#560,.T.);
#958=ORIENTED_EDGE('',*,*,#557,.T.);
#959=ORIENTED_EDGE('',*,*,#554,.T.);
#960=ORIENTED_EDGE('',*,*,#540,.T.);
#961=ORIENTED_EDGE('',*,*,#661,.T.);
#962=ORIENTED_EDGE('',*,*,#665,.T.);
#963=ORIENTED_EDGE('',*,*,#569,.T.);
#964=ORIENTED_EDGE('',*,*,#527,.T.);
#965=ORIENTED_EDGE('',*,*,#575,.T.);
#966=ORIENTED_EDGE('',*,*,#655,.T.);
#967=ORIENTED_EDGE('',*,*,#650,.T.);
#968=ORIENTED_EDGE('',*,*,#644,.T.);
#969=ORIENTED_EDGE('',*,*,#639,.T.);
#970=ORIENTED_EDGE('',*,*,#633,.T.);
#971=ORIENTED_EDGE('',*,*,#627,.T.);
#972=ORIENTED_EDGE('',*,*,#622,.T.);
#973=ORIENTED_EDGE('',*,*,#625,.T.);
#974=PLANE('',#1085);
#975=PLANE('',#1086);
#976=PLANE('',#1090);
#977=PLANE('',#1091);
#978=PLANE('',#1092);
#979=PLANE('',#1093);
#980=PLANE('',#1094);
#981=PLANE('',#1098);
#982=PLANE('',#1102);
#983=PLANE('',#1109);
#984=PLANE('',#1110);
#985=PLANE('',#1111);
#986=PLANE('',#1112);
#987=PLANE('',#1114);
#988=PLANE('',#1117);
#989=PLANE('',#1118);
#990=PLANE('',#1120);
#991=PLANE('',#1121);
#992=PLANE('',#1122);
#993=PLANE('',#1123);
#994=PLANE('',#1124);
#995=PLANE('',#1131);
#996=PLANE('',#1138);
#997=PLANE('',#1139);
#998=PLANE('',#1141);
#999=PLANE('',#1144);
#1000=PLANE('',#1145);
#1001=PLANE('',#1147);
#1002=PLANE('',#1150);
#1003=PLANE('',#1151);
#1004=PLANE('',#1152);
#1005=PLANE('',#1153);
#1006=PLANE('',#1154);
#1007=PLANE('',#1155);
#1008=PLANE('',#1156);
#1009=PLANE('',#1157);
#1010=PLANE('',#1158);
#1011=PLANE('',#1159);
#1012=PLANE('',#1160);
#1013=PLANE('',#1163);
#1014=PLANE('',#1164);
#1015=PLANE('',#1165);
#1016=ADVANCED_FACE('',(#64),#974,.F.);
#1017=ADVANCED_FACE('',(#65,#28,#29,#30),#975,.T.);
#1018=ADVANCED_FACE('',(#66),#976,.T.);
#1019=ADVANCED_FACE('',(#67),#977,.T.);
#1020=ADVANCED_FACE('',(#68),#978,.T.);
#1021=ADVANCED_FACE('',(#69),#979,.T.);
#1022=ADVANCED_FACE('',(#70),#980,.T.);
#1023=ADVANCED_FACE('',(#71),#15,.T.);
#1024=ADVANCED_FACE('',(#72),#981,.T.);
#1025=ADVANCED_FACE('',(#73),#16,.T.);
#1026=ADVANCED_FACE('',(#74),#982,.T.);
#1027=ADVANCED_FACE('',(#75),#17,.T.);
#1028=ADVANCED_FACE('',(#76),#18,.T.);
#1029=ADVANCED_FACE('',(#77),#983,.F.);
#1030=ADVANCED_FACE('',(#78),#984,.F.);
#1031=ADVANCED_FACE('',(#79),#985,.F.);
#1032=ADVANCED_FACE('',(#80),#986,.F.);
#1033=ADVANCED_FACE('',(#81),#987,.F.);
#1034=ADVANCED_FACE('',(#82),#19,.F.);
#1035=ADVANCED_FACE('',(#83),#988,.T.);
#1036=ADVANCED_FACE('',(#84,#31,#32),#989,.T.);
#1037=ADVANCED_FACE('',(#85),#990,.T.);
#1038=ADVANCED_FACE('',(#86),#991,.F.);
#1039=ADVANCED_FACE('',(#87),#992,.T.);
#1040=ADVANCED_FACE('',(#88),#993,.T.);
#1041=ADVANCED_FACE('',(#89,#33),#994,.T.);
#1042=ADVANCED_FACE('',(#90),#20,.T.);
#1043=ADVANCED_FACE('',(#91),#21,.F.);
#1044=ADVANCED_FACE('',(#92,#34),#995,.F.);
#1045=ADVANCED_FACE('',(#93),#22,.T.);
#1046=ADVANCED_FACE('',(#94),#23,.F.);
#1047=ADVANCED_FACE('',(#95),#24,.F.);
#1048=ADVANCED_FACE('',(#96),#996,.T.);
#1049=ADVANCED_FACE('',(#97),#997,.T.);
#1050=ADVANCED_FACE('',(#98),#998,.T.);
#1051=ADVANCED_FACE('',(#99),#25,.T.);
#1052=ADVANCED_FACE('',(#100),#999,.F.);
#1053=ADVANCED_FACE('',(#101),#1000,.T.);
#1054=ADVANCED_FACE('',(#102),#1001,.T.);
#1055=ADVANCED_FACE('',(#103),#26,.F.);
#1056=ADVANCED_FACE('',(#104),#1002,.T.);
#1057=ADVANCED_FACE('',(#105),#1003,.F.);
#1058=ADVANCED_FACE('',(#106),#1004,.T.);
#1059=ADVANCED_FACE('',(#107),#1005,.T.);
#1060=ADVANCED_FACE('',(#108),#1006,.T.);
#1061=ADVANCED_FACE('',(#109),#1007,.T.);
#1062=ADVANCED_FACE('',(#110),#1008,.T.);
#1063=ADVANCED_FACE('',(#111),#1009,.T.);
#1064=ADVANCED_FACE('',(#112),#1010,.T.);
#1065=ADVANCED_FACE('',(#113,#35),#1011,.T.);
#1066=ADVANCED_FACE('',(#114),#1012,.F.);
#1067=ADVANCED_FACE('',(#115),#27,.T.);
#1068=ADVANCED_FACE('',(#116),#1013,.F.);
#1069=ADVANCED_FACE('',(#117,#36),#1014,.T.);
#1070=ADVANCED_FACE('',(#118,#37),#1015,.T.);
#1071=CLOSED_SHELL('',(#1016,#1017,#1018,#1019,#1020,#1021,#1022,#1023,
#1024,#1025,#1026,#1027,#1028,#1029,#1030,#1031,#1032,#1033,#1034,#1035,
#1036,#1037,#1038,#1039,#1040,#1041,#1042,#1043,#1044,#1045,#1046,#1047,
#1048,#1049,#1050,#1051,#1052,#1053,#1054,#1055,#1056,#1057,#1058,#1059,
#1060,#1061,#1062,#1063,#1064,#1065,#1066,#1067,#1068,#1069,#1070));
#1072=DERIVED_UNIT_ELEMENT(#1074,1.);
#1073=DERIVED_UNIT_ELEMENT(#1760,-3.);
#1074=(
MASS_UNIT()
NAMED_UNIT(*)
SI_UNIT(.KILO.,.GRAM.)
);
#1075=DERIVED_UNIT((#1072,#1073));
#1076=MEASURE_REPRESENTATION_ITEM('density measure',
POSITIVE_RATIO_MEASURE(7850.),#1075);
#1077=PROPERTY_DEFINITION_REPRESENTATION(#1082,#1079);
#1078=PROPERTY_DEFINITION_REPRESENTATION(#1083,#1080);
#1079=REPRESENTATION('material name',(#1081),#1757);
#1080=REPRESENTATION('density',(#1076),#1757);
#1081=DESCRIPTIVE_REPRESENTATION_ITEM('Steel','Steel');
#1082=PROPERTY_DEFINITION('material property','material name',#1767);
#1083=PROPERTY_DEFINITION('material property','density of part',#1767);
#1084=AXIS2_PLACEMENT_3D('',#1453,#1166,#1167);
#1085=AXIS2_PLACEMENT_3D('',#1454,#1168,#1169);
#1086=AXIS2_PLACEMENT_3D('',#1463,#1174,#1175);
#1087=AXIS2_PLACEMENT_3D('',#1477,#1182,#1183);
#1088=AXIS2_PLACEMENT_3D('',#1479,#1184,#1185);
#1089=AXIS2_PLACEMENT_3D('',#1481,#1186,#1187);
#1090=AXIS2_PLACEMENT_3D('',#1482,#1188,#1189);
#1091=AXIS2_PLACEMENT_3D('',#1489,#1194,#1195);
#1092=AXIS2_PLACEMENT_3D('',#1498,#1200,#1201);
#1093=AXIS2_PLACEMENT_3D('',#1504,#1205,#1206);
#1094=AXIS2_PLACEMENT_3D('',#1510,#1210,#1211);
#1095=AXIS2_PLACEMENT_3D('',#1516,#1215,#1216);
#1096=AXIS2_PLACEMENT_3D('',#1518,#1217,#1218);
#1097=AXIS2_PLACEMENT_3D('',#1521,#1220,#1221);
#1098=AXIS2_PLACEMENT_3D('',#1522,#1222,#1223);
#1099=AXIS2_PLACEMENT_3D('',#1528,#1227,#1228);
#1100=AXIS2_PLACEMENT_3D('',#1530,#1229,#1230);
#1101=AXIS2_PLACEMENT_3D('',#1533,#1232,#1233);
#1102=AXIS2_PLACEMENT_3D('',#1534,#1234,#1235);
#1103=AXIS2_PLACEMENT_3D('',#1540,#1239,#1240);
#1104=AXIS2_PLACEMENT_3D('',#1542,#1241,#1242);
#1105=AXIS2_PLACEMENT_3D('',#1545,#1244,#1245);
#1106=AXIS2_PLACEMENT_3D('',#1546,#1246,#1247);
#1107=AXIS2_PLACEMENT_3D('',#1548,#1248,#1249);
#1108=AXIS2_PLACEMENT_3D('',#1551,#1251,#1252);
#1109=AXIS2_PLACEMENT_3D('',#1552,#1253,#1254);
#1110=AXIS2_PLACEMENT_3D('',#1558,#1258,#1259);
#1111=AXIS2_PLACEMENT_3D('',#1564,#1263,#1264);
#1112=AXIS2_PLACEMENT_3D('',#1570,#1268,#1269);
#1113=AXIS2_PLACEMENT_3D('',#1574,#1271,#1272);
#1114=AXIS2_PLACEMENT_3D('',#1580,#1276,#1277);
#1115=AXIS2_PLACEMENT_3D('',#1583,#1280,#1281);
#1116=AXIS2_PLACEMENT_3D('',#1586,#1283,#1284);
#1117=AXIS2_PLACEMENT_3D('',#1587,#1285,#1286);
#1118=AXIS2_PLACEMENT_3D('',#1591,#1289,#1290);
#1119=AXIS2_PLACEMENT_3D('',#1596,#1293,#1294);
#1120=AXIS2_PLACEMENT_3D('',#1597,#1295,#1296);
#1121=AXIS2_PLACEMENT_3D('',#1608,#1302,#1303);
#1122=AXIS2_PLACEMENT_3D('',#1614,#1307,#1308);
#1123=AXIS2_PLACEMENT_3D('',#1620,#1312,#1313);
#1124=AXIS2_PLACEMENT_3D('',#1629,#1318,#1319);
#1125=AXIS2_PLACEMENT_3D('',#1633,#1321,#1322);
#1126=AXIS2_PLACEMENT_3D('',#1635,#1323,#1324);
#1127=AXIS2_PLACEMENT_3D('',#1636,#1325,#1326);
#1128=AXIS2_PLACEMENT_3D('',#1640,#1328,#1329);
#1129=AXIS2_PLACEMENT_3D('',#1642,#1331,#1332);
#1130=AXIS2_PLACEMENT_3D('',#1644,#1333,#1334);
#1131=AXIS2_PLACEMENT_3D('',#1646,#1336,#1337);
#1132=AXIS2_PLACEMENT_3D('',#1648,#1339,#1340);
#1133=AXIS2_PLACEMENT_3D('',#1650,#1341,#1342);
#1134=AXIS2_PLACEMENT_3D('',#1652,#1344,#1345);
#1135=AXIS2_PLACEMENT_3D('',#1655,#1347,#1348);
#1136=AXIS2_PLACEMENT_3D('',#1656,#1349,#1350);
#1137=AXIS2_PLACEMENT_3D('',#1659,#1352,#1353);
#1138=AXIS2_PLACEMENT_3D('',#1660,#1354,#1355);
#1139=AXIS2_PLACEMENT_3D('',#1666,#1359,#1360);
#1140=AXIS2_PLACEMENT_3D('',#1673,#1364,#1365);
#1141=AXIS2_PLACEMENT_3D('',#1674,#1366,#1367);
#1142=AXIS2_PLACEMENT_3D('',#1679,#1371,#1372);
#1143=AXIS2_PLACEMENT_3D('',#1684,#1375,#1376);
#1144=AXIS2_PLACEMENT_3D('',#1685,#1377,#1378);
#1145=AXIS2_PLACEMENT_3D('',#1689,#1381,#1382);
#1146=AXIS2_PLACEMENT_3D('',#1694,#1385,#1386);
#1147=AXIS2_PLACEMENT_3D('',#1695,#1387,#1388);
#1148=AXIS2_PLACEMENT_3D('',#1700,#1392,#1393);
#1149=AXIS2_PLACEMENT_3D('',#1705,#1396,#1397);
#1150=AXIS2_PLACEMENT_3D('',#1706,#1398,#1399);
#1151=AXIS2_PLACEMENT_3D('',#1710,#1402,#1403);
#1152=AXIS2_PLACEMENT_3D('',#1715,#1407,#1408);
#1153=AXIS2_PLACEMENT_3D('',#1719,#1411,#1412);
#1154=AXIS2_PLACEMENT_3D('',#1723,#1415,#1416);
#1155=AXIS2_PLACEMENT_3D('',#1727,#1419,#1420);
#1156=AXIS2_PLACEMENT_3D('',#1731,#1423,#1424);
#1157=AXIS2_PLACEMENT_3D('',#1733,#1426,#1427);
#1158=AXIS2_PLACEMENT_3D('',#1737,#1430,#1431);
#1159=AXIS2_PLACEMENT_3D('',#1741,#1434,#1435);
#1160=AXIS2_PLACEMENT_3D('',#1743,#1437,#1438);
#1161=AXIS2_PLACEMENT_3D('',#1745,#1440,#1441);
#1162=AXIS2_PLACEMENT_3D('',#1749,#1443,#1444);
#1163=AXIS2_PLACEMENT_3D('',#1751,#1446,#1447);
#1164=AXIS2_PLACEMENT_3D('',#1753,#1449,#1450);
#1165=AXIS2_PLACEMENT_3D('',#1754,#1451,#1452);
#1166=DIRECTION('axis',(0.,0.,1.));
#1167=DIRECTION('refdir',(1.,0.,0.));
#1168=DIRECTION('center_axis',(-0.866025403784439,-0.499999999999999,0.));
#1169=DIRECTION('ref_axis',(0.499999999999999,-0.866025403784439,0.));
#1170=DIRECTION('',(-0.499999999999999,0.866025403784439,0.));
#1171=DIRECTION('',(0.,0.,-1.));
#1172=DIRECTION('',(-0.499999999999999,0.866025403784439,0.));
#1173=DIRECTION('',(0.,0.,-1.));
#1174=DIRECTION('center_axis',(0.,0.,-1.));
#1175=DIRECTION('ref_axis',(-1.,0.,0.));
#1176=DIRECTION('',(0.499999999999999,-0.866025403784439,0.));
#1177=DIRECTION('',(1.,0.,0.));
#1178=DIRECTION('',(0.,-1.,0.));
#1179=DIRECTION('',(-1.,0.,0.));
#1180=DIRECTION('',(0.,1.,0.));
#1181=DIRECTION('',(1.,9.95729896136709E-16,0.));
#1182=DIRECTION('center_axis',(0.,0.,1.));
#1183=DIRECTION('ref_axis',(1.,0.,0.));
#1184=DIRECTION('center_axis',(0.,0.,1.));
#1185=DIRECTION('ref_axis',(1.,0.,0.));
#1186=DIRECTION('center_axis',(0.,0.,1.));
#1187=DIRECTION('ref_axis',(1.,0.,0.));
#1188=DIRECTION('center_axis',(-1.,0.,0.));
#1189=DIRECTION('ref_axis',(0.,-1.,0.));
#1190=DIRECTION('',(0.,-1.,0.));
#1191=DIRECTION('',(0.,0.,1.));
#1192=DIRECTION('',(0.,1.,0.));
#1193=DIRECTION('',(0.,0.,-1.));
#1194=DIRECTION('center_axis',(0.,1.,0.));
#1195=DIRECTION('ref_axis',(-1.,0.,0.));
#1196=DIRECTION('',(-1.,0.,0.));
#1197=DIRECTION('',(0.,0.,1.));
#1198=DIRECTION('',(1.,0.,0.));
#1199=DIRECTION('',(0.,0.,1.));
#1200=DIRECTION('center_axis',(-1.,0.,0.));
#1201=DIRECTION('ref_axis',(0.,-1.,0.));
#1202=DIRECTION('',(0.,-1.,0.));
#1203=DIRECTION('',(0.,1.,0.));
#1204=DIRECTION('',(0.,0.,1.));
#1205=DIRECTION('center_axis',(0.,-1.,0.));
#1206=DIRECTION('ref_axis',(1.,0.,0.));
#1207=DIRECTION('',(1.,0.,0.));
#1208=DIRECTION('',(-1.,0.,0.));
#1209=DIRECTION('',(0.,0.,-1.));
#1210=DIRECTION('center_axis',(0.,1.,0.));
#1211=DIRECTION('ref_axis',(-1.,0.,0.));
#1212=DIRECTION('',(-1.,0.,0.));
#1213=DIRECTION('',(0.,0.,1.));
#1214=DIRECTION('',(1.,0.,0.));
#1215=DIRECTION('center_axis',(0.,0.,1.));
#1216=DIRECTION('ref_axis',(0.707106781186551,0.707106781186544,0.));
#1217=DIRECTION('center_axis',(0.,0.,1.));
#1218=DIRECTION('ref_axis',(0.707106781186551,0.707106781186544,0.));
#1219=DIRECTION('',(0.,0.,-1.));
#1220=DIRECTION('center_axis',(0.,0.,1.));
#1221=DIRECTION('ref_axis',(0.707106781186551,0.707106781186544,0.));
#1222=DIRECTION('center_axis',(1.,0.,0.));
#1223=DIRECTION('ref_axis',(0.,1.,0.));
#1224=DIRECTION('',(0.,1.,0.));
#1225=DIRECTION('',(0.,0.,1.));
#1226=DIRECTION('',(0.,-1.,0.));
#1227=DIRECTION('center_axis',(0.,0.,1.));
#1228=DIRECTION('ref_axis',(0.707106773438961,-0.707106788934134,0.));
#1229=DIRECTION('center_axis',(0.,0.,1.));
#1230=DIRECTION('ref_axis',(0.707106773438961,-0.707106788934134,0.));
#1231=DIRECTION('',(0.,0.,-1.));
#1232=DIRECTION('center_axis',(0.,0.,1.));
#1233=DIRECTION('ref_axis',(0.707106773438961,-0.707106788934134,0.));
#1234=DIRECTION('center_axis',(-2.19134751819802E-8,-1.,0.));
#1235=DIRECTION('ref_axis',(1.,-2.19134751819802E-8,0.));
#1236=DIRECTION('',(1.,-2.19134751819802E-8,0.));
#1237=DIRECTION('',(0.,0.,-1.));
#1238=DIRECTION('',(-1.,2.19134751819802E-8,0.));
#1239=DIRECTION('center_axis',(0.,0.,1.));
#1240=DIRECTION('ref_axis',(-0.981529002922588,0.191313398437722,0.));
#1241=DIRECTION('center_axis',(0.,0.,1.));
#1242=DIRECTION('ref_axis',(1.,0.,0.));
#1243=DIRECTION('',(0.,0.,1.));
#1244=DIRECTION('center_axis',(0.,0.,-1.));
#1245=DIRECTION('ref_axis',(1.,0.,0.));
#1246=DIRECTION('center_axis',(0.,0.,1.));
#1247=DIRECTION('ref_axis',(1.,0.,0.));
#1248=DIRECTION('center_axis',(0.,0.,1.));
#1249=DIRECTION('ref_axis',(1.,0.,0.));
#1250=DIRECTION('',(0.,0.,1.));
#1251=DIRECTION('center_axis',(0.,0.,-1.));
#1252=DIRECTION('ref_axis',(1.,0.,0.));
#1253=DIRECTION('center_axis',(0.,-1.,0.));
#1254=DIRECTION('ref_axis',(1.,0.,0.));
#1255=DIRECTION('',(-1.,0.,0.));
#1256=DIRECTION('',(-1.,0.,0.));
#1257=DIRECTION('',(0.,0.,1.));
#1258=DIRECTION('center_axis',(-0.866025403784439,-0.499999999999999,0.));
#1259=DIRECTION('ref_axis',(0.499999999999999,-0.866025403784439,0.));
#1260=DIRECTION('',(-0.499999999999999,0.866025403784439,0.));
#1261=DIRECTION('',(0.,0.,1.));
#1262=DIRECTION('',(-0.499999999999999,0.866025403784439,0.));
#1263=DIRECTION('center_axis',(9.95729896136709E-16,-1.,0.));
#1264=DIRECTION('ref_axis',(1.,9.95729896136709E-16,0.));
#1265=DIRECTION('',(-1.,-9.95729896136709E-16,0.));
#1266=DIRECTION('',(0.,0.,1.));
#1267=DIRECTION('',(-1.,-9.95729896136709E-16,0.));
#1268=DIRECTION('center_axis',(1.,0.,0.));
#1269=DIRECTION('ref_axis',(0.,1.,0.));
#1270=DIRECTION('',(0.,-1.,0.));
#1271=DIRECTION('center_axis',(1.,0.,0.));
#1272=DIRECTION('ref_axis',(0.,0.,-1.));
#1273=DIRECTION('',(0.,-1.,0.));
#1274=DIRECTION('',(0.,0.,1.));
#1275=DIRECTION('',(0.,-1.,0.));
#1276=DIRECTION('center_axis',(1.,0.,0.));
#1277=DIRECTION('ref_axis',(0.,1.,0.));
#1278=DIRECTION('',(0.,-1.,0.));
#1279=DIRECTION('',(0.,-1.,0.));
#1280=DIRECTION('center_axis',(0.,0.,-1.));
#1281=DIRECTION('ref_axis',(1.,0.,0.));
#1282=DIRECTION('',(0.,0.,1.));
#1283=DIRECTION('center_axis',(0.,0.,-1.));
#1284=DIRECTION('ref_axis',(1.,0.,0.));
#1285=DIRECTION('center_axis',(0.,0.,1.));
#1286=DIRECTION('ref_axis',(1.,0.,0.));
#1287=DIRECTION('',(-0.514497742535215,0.8574917334448,0.));
#1288=DIRECTION('',(-1.,2.19134751819802E-8,0.));
#1289=DIRECTION('center_axis',(0.,0.,1.));
#1290=DIRECTION('ref_axis',(1.,0.,0.));
#1291=DIRECTION('',(1.,0.,0.));
#1292=DIRECTION('',(0.,1.,0.));
#1293=DIRECTION('center_axis',(0.,0.,-1.));
#1294=DIRECTION('ref_axis',(1.,0.,0.));
#1295=DIRECTION('center_axis',(0.,0.,-1.));
#1296=DIRECTION('ref_axis',(1.,1.38348285443961E-15,0.));
#1297=DIRECTION('',(0.,1.,0.));
#1298=DIRECTION('',(-1.,-1.38348285443961E-15,0.));
#1299=DIRECTION('',(-1.,-9.95729896136709E-16,0.));
#1300=DIRECTION('',(1.38777878078144E-15,-1.,0.));
#1301=DIRECTION('',(1.,1.38348285443961E-15,0.));
#1302=DIRECTION('center_axis',(1.38348285443961E-15,-1.,0.));
#1303=DIRECTION('ref_axis',(1.,1.38348285443961E-15,0.));
#1304=DIRECTION('',(0.,0.,1.));
#1305=DIRECTION('',(0.,0.,-1.));
#1306=DIRECTION('',(-1.,-1.38348285443961E-15,0.));
#1307=DIRECTION('center_axis',(0.,0.,-1.));
#1308=DIRECTION('ref_axis',(1.,1.38348285443961E-15,0.));
#1309=DIRECTION('',(0.,1.,0.));
#1310=DIRECTION('',(1.58603289232166E-15,-1.,0.));
#1311=DIRECTION('',(1.,1.38348285443961E-15,0.));
#1312=DIRECTION('center_axis',(0.,0.,-1.));
#1313=DIRECTION('ref_axis',(0.,1.,0.));
#1314=DIRECTION('',(0.,1.,0.));
#1315=DIRECTION('',(1.,0.,0.));
#1316=DIRECTION('',(0.,1.,0.));
#1317=DIRECTION('',(1.,0.,0.));
#1318=DIRECTION('center_axis',(0.,0.,1.));
#1319=DIRECTION('ref_axis',(1.,0.,0.));
#1320=DIRECTION('',(-1.,0.,0.));
#1321=DIRECTION('center_axis',(0.,0.,1.));
#1322=DIRECTION('ref_axis',(1.,0.,0.));
#1323=DIRECTION('center_axis',(0.,0.,-1.));
#1324=DIRECTION('ref_axis',(1.,0.,0.));
#1325=DIRECTION('center_axis',(0.,0.,-1.));
#1326=DIRECTION('ref_axis',(1.,0.,0.));
#1327=DIRECTION('',(0.,0.,1.));
#1328=DIRECTION('center_axis',(0.,0.,-1.));
#1329=DIRECTION('ref_axis',(1.,0.,0.));
#1330=DIRECTION('',(0.,0.,-1.));
#1331=DIRECTION('center_axis',(0.,0.,-1.));
#1332=DIRECTION('ref_axis',(1.,0.,0.));
#1333=DIRECTION('center_axis',(0.,0.,1.));
#1334=DIRECTION('ref_axis',(1.,0.,0.));
#1335=DIRECTION('',(0.,0.,1.));
#1336=DIRECTION('center_axis',(0.,0.,1.));
#1337=DIRECTION('ref_axis',(1.,0.,0.));
#1338=DIRECTION('',(1.,0.,0.));
#1339=DIRECTION('center_axis',(0.,0.,1.));
#1340=DIRECTION('ref_axis',(1.,0.,0.));
#1341=DIRECTION('center_axis',(0.,0.,1.));
#1342=DIRECTION('ref_axis',(1.,0.,0.));
#1343=DIRECTION('',(0.,0.,-1.));
#1344=DIRECTION('center_axis',(0.,0.,1.));
#1345=DIRECTION('ref_axis',(1.,0.,0.));
#1346=DIRECTION('',(0.,0.,1.));
#1347=DIRECTION('center_axis',(0.,0.,-1.));
#1348=DIRECTION('ref_axis',(1.,0.,0.));
#1349=DIRECTION('center_axis',(0.,0.,1.));
#1350=DIRECTION('ref_axis',(1.,0.,0.));
#1351=DIRECTION('',(0.,0.,1.));
#1352=DIRECTION('center_axis',(0.,0.,-1.));
#1353=DIRECTION('ref_axis',(1.,0.,0.));
#1354=DIRECTION('center_axis',(0.,-1.,0.));
#1355=DIRECTION('ref_axis',(1.,0.,0.));
#1356=DIRECTION('',(1.,0.,0.));
#1357=DIRECTION('',(0.,0.,-1.));
#1358=DIRECTION('',(0.,0.,-1.));
#1359=DIRECTION('center_axis',(-1.,0.,0.));
#1360=DIRECTION('ref_axis',(0.,-1.,0.));
#1361=DIRECTION('',(0.,-1.,0.));
#1362=DIRECTION('',(0.,0.,-1.));
#1363=DIRECTION('',(0.,-1.,0.));
#1364=DIRECTION('center_axis',(1.,0.,0.));
#1365=DIRECTION('ref_axis',(0.,0.,1.));
#1366=DIRECTION('center_axis',(-0.866025403784439,-0.499999999999999,0.));
#1367=DIRECTION('ref_axis',(0.499999999999999,-0.866025403784439,0.));
#1368=DIRECTION('',(0.499999999999999,-0.866025403784439,0.));
#1369=DIRECTION('',(0.,0.,-1.));
#1370=DIRECTION('',(0.,0.,-1.));
#1371=DIRECTION('center_axis',(-1.,0.,0.));
#1372=DIRECTION('ref_axis',(0.,1.22464679914735E-16,-1.));
#1373=DIRECTION('',(-1.,0.,0.));
#1374=DIRECTION('',(1.,0.,0.));
#1375=DIRECTION('center_axis',(-1.,0.,0.));
#1376=DIRECTION('ref_axis',(0.,0.,1.));
#1377=DIRECTION('center_axis',(1.38348285443961E-15,-1.,0.));
#1378=DIRECTION('ref_axis',(1.,1.38348285443961E-15,0.));
#1379=DIRECTION('',(-1.,-1.38348285443961E-15,0.));
#1380=DIRECTION('',(0.,0.,1.));
#1381=DIRECTION('center_axis',(-1.,0.,0.));
#1382=DIRECTION('ref_axis',(0.,0.,1.));
#1383=DIRECTION('',(0.,-1.,0.));
#1384=DIRECTION('',(0.,-1.,0.));
#1385=DIRECTION('center_axis',(1.,0.,0.));
#1386=DIRECTION('ref_axis',(0.,0.,1.));
#1387=DIRECTION('center_axis',(1.,0.,0.));
#1388=DIRECTION('ref_axis',(0.,0.,-1.));
#1389=DIRECTION('',(0.,1.,0.));
#1390=DIRECTION('',(0.,0.,-1.));
#1391=DIRECTION('',(0.,0.,1.));
#1392=DIRECTION('center_axis',(1.,0.,0.));
#1393=DIRECTION('ref_axis',(0.,-1.,0.));
#1394=DIRECTION('',(1.,0.,0.));
#1395=DIRECTION('',(-1.,0.,0.));
#1396=DIRECTION('center_axis',(-1.,0.,0.));
#1397=DIRECTION('ref_axis',(0.,-1.,0.));
#1398=DIRECTION('center_axis',(0.,1.,0.));
#1399=DIRECTION('ref_axis',(0.,0.,1.));
#1400=DIRECTION('',(-1.,0.,0.));
#1401=DIRECTION('',(0.,0.,1.));
#1402=DIRECTION('center_axis',(-1.,0.,0.));
#1403=DIRECTION('ref_axis',(0.,-1.,0.));
#1404=DIRECTION('',(0.,1.,0.));
#1405=DIRECTION('',(0.,1.,0.));
#1406=DIRECTION('',(0.,0.,1.));
#1407=DIRECTION('center_axis',(-1.,-1.38777878078144E-15,0.));
#1408=DIRECTION('ref_axis',(0.,0.,-1.));
#1409=DIRECTION('',(1.38777878078144E-15,-1.,0.));
#1410=DIRECTION('',(0.,0.,-1.));
#1411=DIRECTION('center_axis',(1.58603289232166E-15,-1.,0.));
#1412=DIRECTION('ref_axis',(0.,0.,-1.));
#1413=DIRECTION('',(1.,1.58603289232166E-15,0.));
#1414=DIRECTION('',(0.,0.,1.));
#1415=DIRECTION('center_axis',(-0.8574917334448,-0.514497742535215,0.));
#1416=DIRECTION('ref_axis',(0.514497742535215,-0.8574917334448,0.));
#1417=DIRECTION('',(0.514497742535215,-0.8574917334448,0.));
#1418=DIRECTION('',(0.,0.,-1.));
#1419=DIRECTION('center_axis',(1.,1.38777878078144E-15,0.));
#1420=DIRECTION('ref_axis',(0.,0.,1.));
#1421=DIRECTION('',(-1.38777878078144E-15,1.,0.));
#1422=DIRECTION('',(0.,0.,-1.));
#1423=DIRECTION('center_axis',(-2.19134751819802E-8,-1.,0.));
#1424=DIRECTION('ref_axis',(1.,-2.19134751819802E-8,0.));
#1425=DIRECTION('',(1.,-2.19134751819802E-8,0.));
#1426=DIRECTION('center_axis',(9.95729896136709E-16,-1.,0.));
#1427=DIRECTION('ref_axis',(1.,9.95729896136709E-16,0.));
#1428=DIRECTION('',(1.,9.95729896136709E-16,0.));
#1429=DIRECTION('',(0.,0.,-1.));
#1430=DIRECTION('center_axis',(1.,0.,0.));
#1431=DIRECTION('ref_axis',(0.,1.,0.));
#1432=DIRECTION('',(0.,1.,0.));
#1433=DIRECTION('',(0.,0.,-1.));
#1434=DIRECTION('center_axis',(0.,1.,0.));
#1435=DIRECTION('ref_axis',(-1.,0.,0.));
#1436=DIRECTION('',(-1.,0.,0.));
#1437=DIRECTION('center_axis',(0.,1.,0.));
#1438=DIRECTION('ref_axis',(-1.,0.,0.));
#1439=DIRECTION('',(1.,0.,0.));
#1440=DIRECTION('center_axis',(-1.,0.,0.));
#1441=DIRECTION('ref_axis',(0.,0.,-1.));
#1442=DIRECTION('',(1.,0.,0.));
#1443=DIRECTION('center_axis',(-1.,0.,0.));
#1444=DIRECTION('ref_axis',(0.,0.,-1.));
#1445=DIRECTION('',(-1.,0.,0.));
#1446=DIRECTION('center_axis',(1.,0.,0.));
#1447=DIRECTION('ref_axis',(0.,0.,-1.));
#1448=DIRECTION('',(0.,-1.,0.));
#1449=DIRECTION('center_axis',(0.,0.,1.));
#1450=DIRECTION('ref_axis',(1.,0.,0.));
#1451=DIRECTION('center_axis',(0.,0.,1.));
#1452=DIRECTION('ref_axis',(1.,0.,0.));
#1453=CARTESIAN_POINT('',(0.,0.,0.));
#1454=CARTESIAN_POINT('Origin',(-53.,-13.,0.));
#1455=CARTESIAN_POINT('',(-51.1176269559495,-16.2603657510936,0.));
#1456=CARTESIAN_POINT('',(-53.,-13.,0.));
#1457=CARTESIAN_POINT('',(-48.6049039027125,-20.6125297446496,0.));
#1458=CARTESIAN_POINT('',(-51.1176269559495,-16.2603657510936,-8.));
#1459=CARTESIAN_POINT('',(-51.1176269559495,-16.2603657510936,0.));
#1460=CARTESIAN_POINT('',(-53.0000011622906,-13.0000001639128,-8.));
#1461=CARTESIAN_POINT('',(-47.9721960169581,-21.7084119491258,-8.));
#1462=CARTESIAN_POINT('',(-53.,-13.,0.));
#1463=CARTESIAN_POINT('Origin',(-27.5,-21.5,-10.));
#1464=CARTESIAN_POINT('',(-36.8341924626905,-45.,-10.));
#1465=CARTESIAN_POINT('',(-54.1547005383793,-15.,-10.));
#1466=CARTESIAN_POINT('',(-41.0439927866826,-37.7084119491258,-10.));
#1467=CARTESIAN_POINT('',(-57.,-15.,-10.));
#1468=CARTESIAN_POINT('',(-40.25,-15.,-10.));
#1469=CARTESIAN_POINT('',(-57.,2.,-10.));
#1470=CARTESIAN_POINT('',(-57.,-17.25,-10.));
#1471=CARTESIAN_POINT('',(2.,2.,-10.));
#1472=CARTESIAN_POINT('',(-41.25,2.,-10.));
#1473=CARTESIAN_POINT('',(2.,-45.,-10.));
#1474=CARTESIAN_POINT('',(2.,-10.75,-10.));
#1475=CARTESIAN_POINT('',(-13.75,-45.,-10.));
#1476=CARTESIAN_POINT('',(-50.25,-15.5,-10.));
#1477=CARTESIAN_POINT('Origin',(-49.,-15.5,-10.));
#1478=CARTESIAN_POINT('',(-9.25,-38.,-10.));
#1479=CARTESIAN_POINT('Origin',(-8.,-38.,-10.));
#1480=CARTESIAN_POINT('',(-20.5,-24.25,-10.));
#1481=CARTESIAN_POINT('Origin',(-19.,-24.25,-10.));
#1482=CARTESIAN_POINT('Origin',(-53.0000011622906,-12.5000001639128,0.));
#1483=CARTESIAN_POINT('',(-53.0000011622906,-12.5000001639128,0.));
#1484=CARTESIAN_POINT('',(-53.0000011622906,-16.2605116458085,0.));
#1485=CARTESIAN_POINT('',(-53.0000011622906,-12.5000001639128,-8.));
#1486=CARTESIAN_POINT('',(-53.0000011622906,-12.5000001639128,0.));
#1487=CARTESIAN_POINT('',(-53.0000011622906,-13.0000001639128,-8.));
#1488=CARTESIAN_POINT('',(-53.,-13.,0.));
#1489=CARTESIAN_POINT('Origin',(0.,-13.,0.));
#1490=CARTESIAN_POINT('',(0.,-13.,0.));
#1491=CARTESIAN_POINT('',(-5.,-13.,0.));
#1492=CARTESIAN_POINT('',(-15.,-13.,0.));
#1493=CARTESIAN_POINT('',(0.,-13.,-8.));
#1494=CARTESIAN_POINT('',(0.,-13.,0.));
#1495=CARTESIAN_POINT('',(-5.,-13.,-8.));
#1496=CARTESIAN_POINT('',(0.,-13.,-8.));
#1497=CARTESIAN_POINT('',(-5.,-13.,0.));
#1498=CARTESIAN_POINT('Origin',(-5.,-13.,0.));
#1499=CARTESIAN_POINT('',(-5.,-14.0000002086163,0.));
#1500=CARTESIAN_POINT('',(-5.,-16.5105115638521,0.));
#1501=CARTESIAN_POINT('',(-5.,-14.0000002086163,-8.));
#1502=CARTESIAN_POINT('',(-5.,-13.,-8.));
#1503=CARTESIAN_POINT('',(-5.,-14.0000002086163,0.));
#1504=CARTESIAN_POINT('Origin',(-5.,-14.0000002086163,0.));
#1505=CARTESIAN_POINT('',(0.,-14.0000002086163,0.));
#1506=CARTESIAN_POINT('',(-17.5,-14.0000002086163,0.));
#1507=CARTESIAN_POINT('',(0.,-14.0000002086163,-8.));
#1508=CARTESIAN_POINT('',(-5.,-14.0000002086163,-8.));
#1509=CARTESIAN_POINT('',(0.,-14.0000002086163,0.));
#1510=CARTESIAN_POINT('Origin',(-43.0000011622906,-12.5000001639128,0.));
#1511=CARTESIAN_POINT('',(-43.5000011622906,-12.5000001639128,0.));
#1512=CARTESIAN_POINT('',(-36.5000005811453,-12.5000001639128,0.));
#1513=CARTESIAN_POINT('',(-43.5000011622906,-12.5000001639128,-8.));
#1514=CARTESIAN_POINT('',(-43.5000011622906,-12.5000001639128,0.));
#1515=CARTESIAN_POINT('',(-53.0000011622906,-12.5000001639128,-8.));
#1516=CARTESIAN_POINT('Origin',(-43.5000011622906,-13.0000001639128,0.));
#1517=CARTESIAN_POINT('',(-43.0000011622906,-13.0000001639128,0.));
#1518=CARTESIAN_POINT('Origin',(-43.5000011622906,-13.0000001639128,0.));
#1519=CARTESIAN_POINT('',(-43.0000011622906,-13.0000001639128,-8.));
#1520=CARTESIAN_POINT('',(-43.0000011622906,-13.0000001639128,0.));
#1521=CARTESIAN_POINT('Origin',(-43.5000011622906,-13.0000001639128,-8.));
#1522=CARTESIAN_POINT('Origin',(-43.0000011622906,-13.9999999377657,0.));
#1523=CARTESIAN_POINT('',(-43.0000011622906,-13.499999926809,0.));
#1524=CARTESIAN_POINT('',(-43.0000011622906,-17.010511532735,0.));
#1525=CARTESIAN_POINT('',(-43.0000011622906,-13.499999926809,-8.));
#1526=CARTESIAN_POINT('',(-43.0000011622906,-13.499999926809,0.));
#1527=CARTESIAN_POINT('',(-43.0000011622906,-12.5000001639128,-8.));
#1528=CARTESIAN_POINT('Origin',(-43.5000011622906,-13.499999926809,0.));
#1529=CARTESIAN_POINT('',(-43.5000011732473,-13.999999926809,0.));
#1530=CARTESIAN_POINT('Origin',(-43.5000011622906,-13.499999926809,0.));
#1531=CARTESIAN_POINT('',(-43.5000011732473,-13.999999926809,-8.));
#1532=CARTESIAN_POINT('',(-43.5000011732473,-13.999999926809,0.));
#1533=CARTESIAN_POINT('Origin',(-43.5000011622906,-13.499999926809,-8.));
#1534=CARTESIAN_POINT('Origin',(-52.3999982699752,-13.9999997317791,0.));
#1535=CARTESIAN_POINT('',(-47.322949157269,-13.9999998430349,0.));
#1536=CARTESIAN_POINT('',(-41.1999990690168,-13.99999997721,0.));
#1537=CARTESIAN_POINT('',(-47.322949157269,-13.9999998430349,-8.));
#1538=CARTESIAN_POINT('',(-47.322949157269,-13.9999998430349,0.));
#1539=CARTESIAN_POINT('',(-52.3999982699752,-13.9999997317791,-8.));
#1540=CARTESIAN_POINT('Origin',(-49.,-15.5,0.));
#1541=CARTESIAN_POINT('',(-50.6770507769905,-13.9999997695349,0.));
#1542=CARTESIAN_POINT('Origin',(-49.,-15.5,0.));
#1543=CARTESIAN_POINT('',(-50.6770507769905,-13.9999997695349,-8.));
#1544=CARTESIAN_POINT('',(-50.6770507769905,-13.9999997695349,0.));
#1545=CARTESIAN_POINT('Origin',(-49.,-15.5,-8.));
#1546=CARTESIAN_POINT('Origin',(-49.,-15.5,0.));
#1547=CARTESIAN_POINT('',(-50.7173095345894,-16.9537358640441,0.));
#1548=CARTESIAN_POINT('Origin',(-49.,-15.5,0.));
#1549=CARTESIAN_POINT('',(-50.7173095345894,-16.9537358640441,-8.));
#1550=CARTESIAN_POINT('',(-50.7173095345894,-16.9537358640441,0.));
#1551=CARTESIAN_POINT('Origin',(-49.,-15.5,-8.));
#1552=CARTESIAN_POINT('Origin',(-55.,-13.,0.));
#1553=CARTESIAN_POINT('',(-55.,-13.,0.));
#1554=CARTESIAN_POINT('',(-42.5,-13.,0.));
#1555=CARTESIAN_POINT('',(-55.,-13.,-8.));
#1556=CARTESIAN_POINT('',(-41.25,-13.,-8.));
#1557=CARTESIAN_POINT('',(-55.,-13.,0.));
#1558=CARTESIAN_POINT('Origin',(-53.,-13.,0.));
#1559=CARTESIAN_POINT('',(-35.6794919243113,-43.,0.));
#1560=CARTESIAN_POINT('',(-48.6049039027125,-20.6125297446496,0.));
#1561=CARTESIAN_POINT('',(-35.6794919243113,-43.,-8.));
#1562=CARTESIAN_POINT('',(-35.6794919243113,-43.,0.));
#1563=CARTESIAN_POINT('',(-47.9721960169581,-21.7084119491258,-8.));
#1564=CARTESIAN_POINT('Origin',(-35.6794919243113,-43.,0.));
#1565=CARTESIAN_POINT('',(0.,-43.,0.));
#1566=CARTESIAN_POINT('',(-32.8397459621556,-43.,0.));
#1567=CARTESIAN_POINT('',(0.,-43.,-8.));
#1568=CARTESIAN_POINT('',(0.,-43.,0.));
#1569=CARTESIAN_POINT('',(-31.5897459621556,-43.,-8.));
#1570=CARTESIAN_POINT('Origin',(0.,-43.,0.));
#1571=CARTESIAN_POINT('',(0.,-9.4,0.));
#1572=CARTESIAN_POINT('',(0.,-31.5105115638521,0.));
#1573=CARTESIAN_POINT('',(0.,-3.6,0.));
#1574=CARTESIAN_POINT('Origin',(0.,-6.5,0.));
#1575=CARTESIAN_POINT('',(0.,0.,0.));
#1576=CARTESIAN_POINT('',(0.,-31.5105115638521,0.));
#1577=CARTESIAN_POINT('',(0.,0.,-8.));
#1578=CARTESIAN_POINT('',(0.,0.,0.));
#1579=CARTESIAN_POINT('',(0.,-32.25,-8.));
#1580=CARTESIAN_POINT('Origin',(0.,-43.,0.));
#1581=CARTESIAN_POINT('',(0.,-31.5105115638521,0.));
#1582=CARTESIAN_POINT('',(0.,-32.25,-8.));
#1583=CARTESIAN_POINT('Origin',(-19.,-24.25,-8.));
#1584=CARTESIAN_POINT('',(-20.5,-24.25,-8.));
#1585=CARTESIAN_POINT('',(-20.5,-24.25,-8.));
#1586=CARTESIAN_POINT('Origin',(-19.,-24.25,-8.));
#1587=CARTESIAN_POINT('Origin',(-27.5,-21.5,-8.));
#1588=CARTESIAN_POINT('',(-52.3999982699752,-13.9999997317791,-8.));
#1589=CARTESIAN_POINT('',(-52.3999982699752,-13.9999997317791,-8.));
#1590=CARTESIAN_POINT('',(-52.3999982699752,-13.9999997317791,-8.));
#1591=CARTESIAN_POINT('Origin',(-27.5,-21.5,-8.));
#1592=CARTESIAN_POINT('',(-55.,0.,-8.));
#1593=CARTESIAN_POINT('',(-13.75,0.,-8.));
#1594=CARTESIAN_POINT('',(-55.,-10.75,-8.));
#1595=CARTESIAN_POINT('',(-10.25,-38.,-8.));
#1596=CARTESIAN_POINT('Origin',(-8.,-38.,-8.));
#1597=CARTESIAN_POINT('Origin',(-58.8341924626905,-45.,-0.85));
#1598=CARTESIAN_POINT('',(-57.8341924626906,-46.6,-0.85));
#1599=CARTESIAN_POINT('',(-57.8341924626906,-45.,-0.85));
#1600=CARTESIAN_POINT('',(-57.8341924626906,-45.2500001601875,-0.85));
#1601=CARTESIAN_POINT('',(-36.8341924626905,-45.,-0.85));
#1602=CARTESIAN_POINT('',(-8.83419246269051,-45.,-0.85));
#1603=CARTESIAN_POINT('',(-8.83419246269051,-45.,-0.85));
#1604=CARTESIAN_POINT('',(-47.2568421935009,-45.,-0.85));
#1605=CARTESIAN_POINT('',(-8.8341924626905,-46.6,-0.85));
#1606=CARTESIAN_POINT('',(-8.83419246269051,-45.,-0.85));
#1607=CARTESIAN_POINT('',(-8.8341924626905,-46.6,-0.85));
#1608=CARTESIAN_POINT('Origin',(-33.8341924626905,-46.6,0.));
#1609=CARTESIAN_POINT('',(-57.8341924626906,-46.6,-4.8));
#1610=CARTESIAN_POINT('',(-57.8341924626906,-46.6,-0.0500000186264515));
#1611=CARTESIAN_POINT('',(-8.8341924626905,-46.6,-4.8));
#1612=CARTESIAN_POINT('',(-8.8341924626905,-46.6,4.8));
#1613=CARTESIAN_POINT('',(-8.8341924626905,-46.6,-4.8));
#1614=CARTESIAN_POINT('Origin',(-58.8341924626905,-46.6,-4.8));
#1615=CARTESIAN_POINT('',(-57.8341924626906,-48.,-4.8));
#1616=CARTESIAN_POINT('',(-57.8341924626906,-46.0500001601875,-4.8));
#1617=CARTESIAN_POINT('',(-8.8341924626905,-48.,-4.8));
#1618=CARTESIAN_POINT('',(-8.8341924626905,-46.6,-4.8));
#1619=CARTESIAN_POINT('',(-8.8341924626905,-48.,-4.8));
#1620=CARTESIAN_POINT('Origin',(-58.8341924626906,-48.,-5.00000007450581));
#1621=CARTESIAN_POINT('',(-58.8341924626906,-48.,-5.00000007450581));
#1622=CARTESIAN_POINT('',(-58.8341924626906,-43.0000006407499,-5.00000007450581));
#1623=CARTESIAN_POINT('',(-58.8341924626906,-48.,-5.00000007450581));
#1624=CARTESIAN_POINT('',(-57.8341924626906,-43.0000006407499,-5.00000007450581));
#1625=CARTESIAN_POINT('',(-58.8341924626906,-43.0000006407499,-5.00000007450581));
#1626=CARTESIAN_POINT('',(-57.8341924626906,-48.,-5.00000007450581));
#1627=CARTESIAN_POINT('',(-57.8341924626906,-48.,-5.00000007450581));
#1628=CARTESIAN_POINT('',(-58.8341924626906,-48.,-5.00000007450581));
#1629=CARTESIAN_POINT('Origin',(-26.,4.9579537445916,-6.));
#1630=CARTESIAN_POINT('',(-20.0001473257749,2.,-6.));
#1631=CARTESIAN_POINT('',(-31.9998526742251,2.,-6.));
#1632=CARTESIAN_POINT('',(-13.,2.,-6.));
#1633=CARTESIAN_POINT('Origin',(-26.,1.9579537445916,-6.));
#1634=CARTESIAN_POINT('',(-27.25,4.9579537445916,-6.));
#1635=CARTESIAN_POINT('Origin',(-26.,4.9579537445916,-6.));
#1636=CARTESIAN_POINT('Origin',(-26.,1.9579537445916,-6.));
#1637=CARTESIAN_POINT('',(-20.0001473257749,2.,-8.));
#1638=CARTESIAN_POINT('',(-20.0001473257749,2.,-6.));
#1639=CARTESIAN_POINT('',(-31.9998526742251,2.,-8.));
#1640=CARTESIAN_POINT('Origin',(-26.,1.9579537445916,-8.));
#1641=CARTESIAN_POINT('',(-31.9998526742251,2.,-6.));
#1642=CARTESIAN_POINT('Origin',(-26.,4.9579537445916,-6.));
#1643=CARTESIAN_POINT('',(-27.25,4.9579537445916,-8.));
#1644=CARTESIAN_POINT('Origin',(-26.,4.9579537445916,-8.));
#1645=CARTESIAN_POINT('',(-27.25,4.9579537445916,-6.));
#1646=CARTESIAN_POINT('Origin',(-26.,4.9579537445916,-8.));
#1647=CARTESIAN_POINT('',(-13.,2.,-8.));
#1648=CARTESIAN_POINT('Origin',(-8.,-38.,0.));
#1649=CARTESIAN_POINT('',(-10.25,-38.,0.));
#1650=CARTESIAN_POINT('Origin',(-8.,-38.,0.));
#1651=CARTESIAN_POINT('',(-10.25,-38.,0.));
#1652=CARTESIAN_POINT('Origin',(-8.,-38.,0.));
#1653=CARTESIAN_POINT('',(-9.25,-38.,0.));
#1654=CARTESIAN_POINT('',(-9.25,-38.,0.));
#1655=CARTESIAN_POINT('Origin',(-8.,-38.,0.));
#1656=CARTESIAN_POINT('Origin',(-49.,-15.5,0.));
#1657=CARTESIAN_POINT('',(-50.25,-15.5,0.));
#1658=CARTESIAN_POINT('',(-50.25,-15.5,0.));
#1659=CARTESIAN_POINT('Origin',(-49.,-15.5,0.));
#1660=CARTESIAN_POINT('Origin',(-55.,-15.,0.));
#1661=CARTESIAN_POINT('',(-57.,-15.,0.));
#1662=CARTESIAN_POINT('',(-54.1547005383792,-15.,0.));
#1663=CARTESIAN_POINT('',(-42.5,-15.,0.));
#1664=CARTESIAN_POINT('',(-57.,-15.,0.));
#1665=CARTESIAN_POINT('',(-54.1547005383792,-15.,0.));
#1666=CARTESIAN_POINT('Origin',(-57.,0.,0.));
#1667=CARTESIAN_POINT('',(-57.,2.,0.));
#1668=CARTESIAN_POINT('',(-57.,-1.5,0.));
#1669=CARTESIAN_POINT('',(-57.,-10.0105115638521,0.));
#1670=CARTESIAN_POINT('',(-57.,2.,0.));
#1671=CARTESIAN_POINT('',(-57.,-11.5,0.));
#1672=CARTESIAN_POINT('',(-57.,-10.0105115638521,0.));
#1673=CARTESIAN_POINT('Origin',(-57.,-6.5,0.));
#1674=CARTESIAN_POINT('Origin',(-54.7320508075689,-14.,0.));
#1675=CARTESIAN_POINT('',(-36.8341924626905,-45.,0.));
#1676=CARTESIAN_POINT('',(-50.3369547102814,-21.6125297446496,0.));
#1677=CARTESIAN_POINT('',(-36.8341924626905,-45.,0.));
#1678=CARTESIAN_POINT('',(-36.8341924626905,-45.,0.));
#1679=CARTESIAN_POINT('Origin',(-57.,-6.5,0.));
#1680=CARTESIAN_POINT('',(-62.,-1.5,0.));
#1681=CARTESIAN_POINT('',(-57.,-1.5,0.));
#1682=CARTESIAN_POINT('',(-62.,-11.5,0.));
#1683=CARTESIAN_POINT('',(-57.,-11.5,0.));
#1684=CARTESIAN_POINT('Origin',(-62.,-6.5,0.));
#1685=CARTESIAN_POINT('Origin',(-33.8341924626905,-45.,0.));
#1686=CARTESIAN_POINT('',(-57.8341924626906,-45.,0.));
#1687=CARTESIAN_POINT('',(-31.9170962313452,-45.,0.));
#1688=CARTESIAN_POINT('',(-57.8341924626906,-45.,-0.0500000186264515));
#1689=CARTESIAN_POINT('Origin',(-62.,-6.5,0.));
#1690=CARTESIAN_POINT('',(-62.,-2.,0.));
#1691=CARTESIAN_POINT('',(-62.,-13.2605115638521,0.));
#1692=CARTESIAN_POINT('',(-62.,-11.,0.));
#1693=CARTESIAN_POINT('',(-62.,-13.2605115638521,0.));
#1694=CARTESIAN_POINT('Origin',(-62.,-6.5,0.));
#1695=CARTESIAN_POINT('Origin',(-57.8341924626906,-45.500000320375,-0.100000037252903));
#1696=CARTESIAN_POINT('',(-57.8341924626906,-43.0000006407499,0.));
#1697=CARTESIAN_POINT('',(-57.8341924626906,-32.7605117240396,0.));
#1698=CARTESIAN_POINT('',(-57.8341924626906,-48.,4.8));
#1699=CARTESIAN_POINT('',(-57.8341924626906,-43.0000006407499,-5.00000007450581));
#1700=CARTESIAN_POINT('Origin',(-55.9,-6.5,0.));
#1701=CARTESIAN_POINT('',(-55.,-2.,-5.51091059616309E-16));
#1702=CARTESIAN_POINT('',(-55.9,-2.,0.));
#1703=CARTESIAN_POINT('',(-55.,-11.,0.));
#1704=CARTESIAN_POINT('',(-55.9,-11.,0.));
#1705=CARTESIAN_POINT('Origin',(-55.,-6.5,0.));
#1706=CARTESIAN_POINT('Origin',(-58.8341924626906,-43.0000006407499,-5.00000007450581));
#1707=CARTESIAN_POINT('',(-58.8341924626906,-43.0000006407499,0.));
#1708=CARTESIAN_POINT('',(-44.4170962313453,-43.0000006407499,0.));
#1709=CARTESIAN_POINT('',(-58.8341924626906,-43.0000006407499,-5.00000007450581));
#1710=CARTESIAN_POINT('Origin',(-55.,0.,0.));
#1711=CARTESIAN_POINT('',(-55.,0.,0.));
#1712=CARTESIAN_POINT('',(-55.,-10.0105115638521,0.));
#1713=CARTESIAN_POINT('',(-55.,-10.0105115638521,0.));
#1714=CARTESIAN_POINT('',(-55.,0.,0.));
#1715=CARTESIAN_POINT('Origin',(-58.8341924626905,-45.,0.85));
#1716=CARTESIAN_POINT('',(-58.8341924626905,-48.,0.));
#1717=CARTESIAN_POINT('',(-58.8341924626905,-32.5105115638522,0.));
#1718=CARTESIAN_POINT('',(-58.8341924626905,-48.,-4.8));
#1719=CARTESIAN_POINT('Origin',(-33.8341924626905,-48.,0.));
#1720=CARTESIAN_POINT('',(-8.8341924626905,-48.,0.));
#1721=CARTESIAN_POINT('',(-31.9170962313452,-48.,0.));
#1722=CARTESIAN_POINT('',(-8.8341924626905,-48.,4.8));
#1723=CARTESIAN_POINT('Origin',(-53.0000011622906,-13.0000001639128,0.));
#1724=CARTESIAN_POINT('',(-52.3999982699752,-13.9999997317791,0.));
#1725=CARTESIAN_POINT('',(-48.4071009533116,-20.6547936375048,0.));
#1726=CARTESIAN_POINT('',(-52.3999982699752,-13.9999997317791,0.));
#1727=CARTESIAN_POINT('Origin',(-8.83419246269051,-45.,-0.85));
#1728=CARTESIAN_POINT('',(-8.83419246269051,-45.,0.));
#1729=CARTESIAN_POINT('',(-8.83419246269052,-32.5105115638521,0.));
#1730=CARTESIAN_POINT('',(-8.83419246269051,-45.,-0.425));
#1731=CARTESIAN_POINT('Origin',(-52.3999982699752,-13.9999997317791,0.));
#1732=CARTESIAN_POINT('',(-41.1999990690168,-13.99999997721,0.));
#1733=CARTESIAN_POINT('Origin',(-35.6794919243113,-45.,0.));
#1734=CARTESIAN_POINT('',(2.,-45.,0.));
#1735=CARTESIAN_POINT('',(-32.8397459621556,-45.,0.));
#1736=CARTESIAN_POINT('',(2.,-45.,0.));
#1737=CARTESIAN_POINT('Origin',(2.,-43.,0.));
#1738=CARTESIAN_POINT('',(2.,2.,0.));
#1739=CARTESIAN_POINT('',(2.,-31.5105115638521,0.));
#1740=CARTESIAN_POINT('',(2.,2.,0.));
#1741=CARTESIAN_POINT('Origin',(0.,2.,0.));
#1742=CARTESIAN_POINT('',(-15.,2.,0.));
#1743=CARTESIAN_POINT('Origin',(0.,0.,0.));
#1744=CARTESIAN_POINT('',(-15.,0.,0.));
#1745=CARTESIAN_POINT('Origin',(2.,-6.5,0.));
#1746=CARTESIAN_POINT('',(-2.,-9.4,0.));
#1747=CARTESIAN_POINT('',(2.,-9.4,0.));
#1748=CARTESIAN_POINT('',(-2.,-3.6,0.));
#1749=CARTESIAN_POINT('Origin',(-2.,-6.5,0.));
#1750=CARTESIAN_POINT('',(2.,-3.6,0.));
#1751=CARTESIAN_POINT('Origin',(-2.,-6.5,0.));
#1752=CARTESIAN_POINT('',(-2.,-13.2605115638521,0.));
#1753=CARTESIAN_POINT('Origin',(-30.,-20.0210231277042,0.));
#1754=CARTESIAN_POINT('Origin',(-30.,-20.0210231277042,0.));
#1755=UNCERTAINTY_MEASURE_WITH_UNIT(LENGTH_MEASURE(0.01),#1759,
'DISTANCE_ACCURACY_VALUE',
'Maximum model space distance between geometric entities at asserted c
onnectivities');
#1756=UNCERTAINTY_MEASURE_WITH_UNIT(LENGTH_MEASURE(0.01),#1759,
'DISTANCE_ACCURACY_VALUE',
'Maximum model space distance between geometric entities at asserted c
onnectivities');
#1757=(
GEOMETRIC_REPRESENTATION_CONTEXT(3)
GLOBAL_UNCERTAINTY_ASSIGNED_CONTEXT((#1755))
GLOBAL_UNIT_ASSIGNED_CONTEXT((#1759,#1761,#1762))
REPRESENTATION_CONTEXT('','3D')
);
#1758=(
GEOMETRIC_REPRESENTATION_CONTEXT(3)
GLOBAL_UNCERTAINTY_ASSIGNED_CONTEXT((#1756))
GLOBAL_UNIT_ASSIGNED_CONTEXT((#1759,#1761,#1762))
REPRESENTATION_CONTEXT('','3D')
);
#1759=(
LENGTH_UNIT()
NAMED_UNIT(*)
SI_UNIT(.MILLI.,.METRE.)
);
#1760=(
LENGTH_UNIT()
NAMED_UNIT(*)
SI_UNIT($,.METRE.)
);
#1761=(
NAMED_UNIT(*)
PLANE_ANGLE_UNIT()
SI_UNIT($,.RADIAN.)
);
#1762=(
NAMED_UNIT(*)
SI_UNIT($,.STERADIAN.)
SOLID_ANGLE_UNIT()
);
#1763=SHAPE_DEFINITION_REPRESENTATION(#1764,#1765);
#1764=PRODUCT_DEFINITION_SHAPE('',$,#1767);
#1765=SHAPE_REPRESENTATION('',(#1084),#1757);
#1766=PRODUCT_DEFINITION_CONTEXT('part definition',#1771,'design');
#1767=PRODUCT_DEFINITION('2026-09-24-00-25-59-238',
'Shooting_Enclosure_Ver2',#1768,#1766);
#1768=PRODUCT_DEFINITION_FORMATION('',$,#1773);
#1769=PRODUCT_RELATED_PRODUCT_CATEGORY('Shooting_Enclosure_Ver2',
'Shooting_Enclosure_Ver2',(#1773));
#1770=APPLICATION_PROTOCOL_DEFINITION('international standard',
'automotive_design',2009,#1771);
#1771=APPLICATION_CONTEXT(
'Core Data for Automotive Mechanical Design Process');
#1772=PRODUCT_CONTEXT('part definition',#1771,'mechanical');
#1773=PRODUCT('2026-09-24-00-25-59-238','Shooting_Enclosure_Ver2',$,(#1772));
#1774=PRESENTATION_STYLE_ASSIGNMENT((#1775));
#1775=SURFACE_STYLE_USAGE(.BOTH.,#1776);
#1776=SURFACE_SIDE_STYLE('',(#1777));
#1777=SURFACE_STYLE_FILL_AREA(#1778);
#1778=FILL_AREA_STYLE('Steel - Satin',(#1779));
#1779=FILL_AREA_STYLE_COLOUR('Steel - Satin',#1780);
#1780=COLOUR_RGB('Steel - Satin',0.627450980392157,0.627450980392157,0.627450980392157);
ENDSEC;
END-ISO-10303-21;
