ISO-10303-21;
HEADER;
/* Generated by software containing ST-Developer
 * from STEP Tools, Inc. (www.steptools.com) 
 */

FILE_DESCRIPTION(
/* description */ (''),
/* implementation_level */ '2;1');

FILE_NAME(
/* name */ 'Shooting_Enclosure_Ver2_Part2.step',
/* time_stamp */ '2026-09-24T09:50:33+05:30',
/* author */ (''),
/* organization */ (''),
/* preprocessor_version */ 'ST-DEVELOPER v20.2',
/* originating_system */ 'Autodesk Translation Framework v15.15.0.0',
/* authorisation */ '');

FILE_SCHEMA (('AUTOMOTIVE_DESIGN { 1 0 10303 214 3 1 1 }'));
ENDSEC;

DATA;
#10=MECHANICAL_DESIGN_GEOMETRIC_PRESENTATION_REPRESENTATION('',(#13),#2042);
#11=SHAPE_REPRESENTATION_RELATIONSHIP('SRR','None',#2049,#12);
#12=ADVANCED_BREP_SHAPE_REPRESENTATION('',(#14),#2041);
#13=STYLED_ITEM('',(#2058),#14);
#14=MANIFOLD_SOLID_BREP('Body14',#1251);
#15=CYLINDRICAL_SURFACE('',#1282,2.25);
#16=CYLINDRICAL_SURFACE('',#1285,0.5);
#17=CYLINDRICAL_SURFACE('',#1288,0.5);
#18=CYLINDRICAL_SURFACE('',#1291,2.25);
#19=CYLINDRICAL_SURFACE('',#1296,4.5);
#20=CYLINDRICAL_SURFACE('',#1304,1.25);
#21=CYLINDRICAL_SURFACE('',#1306,6.);
#22=CYLINDRICAL_SURFACE('',#1309,2.9);
#23=CYLINDRICAL_SURFACE('',#1321,1.25);
#24=CYLINDRICAL_SURFACE('',#1324,1.25);
#25=CYLINDRICAL_SURFACE('',#1336,4.);
#26=CYLINDRICAL_SURFACE('',#1343,1.25);
#27=CYLINDRICAL_SURFACE('',#1355,1.25);
#28=CYLINDRICAL_SURFACE('',#1356,2.25);
#29=FACE_BOUND('',#109,.T.);
#30=FACE_BOUND('',#111,.T.);
#31=FACE_BOUND('',#132,.T.);
#32=FACE_BOUND('',#136,.T.);
#33=FACE_BOUND('',#152,.T.);
#34=FACE_BOUND('',#153,.T.);
#35=FACE_BOUND('',#156,.T.);
#36=FACE_BOUND('',#157,.T.);
#37=FACE_BOUND('',#165,.T.);
#38=FACE_BOUND('',#166,.T.);
#39=FACE_BOUND('',#176,.T.);
#40=FACE_BOUND('',#181,.T.);
#41=FACE_BOUND('',#182,.T.);
#42=FACE_BOUND('',#183,.T.);
#43=FACE_BOUND('',#184,.T.);
#44=FACE_OUTER_BOUND('',#108,.T.);
#45=FACE_OUTER_BOUND('',#110,.T.);
#46=FACE_OUTER_BOUND('',#112,.T.);
#47=FACE_OUTER_BOUND('',#113,.T.);
#48=FACE_OUTER_BOUND('',#114,.T.);
#49=FACE_OUTER_BOUND('',#115,.T.);
#50=FACE_OUTER_BOUND('',#116,.T.);
#51=FACE_OUTER_BOUND('',#117,.T.);
#52=FACE_OUTER_BOUND('',#118,.T.);
#53=FACE_OUTER_BOUND('',#119,.T.);
#54=FACE_OUTER_BOUND('',#120,.T.);
#55=FACE_OUTER_BOUND('',#121,.T.);
#56=FACE_OUTER_BOUND('',#122,.T.);
#57=FACE_OUTER_BOUND('',#123,.T.);
#58=FACE_OUTER_BOUND('',#124,.T.);
#59=FACE_OUTER_BOUND('',#125,.T.);
#60=FACE_OUTER_BOUND('',#126,.T.);
#61=FACE_OUTER_BOUND('',#127,.T.);
#62=FACE_OUTER_BOUND('',#128,.T.);
#63=FACE_OUTER_BOUND('',#129,.T.);
#64=FACE_OUTER_BOUND('',#130,.T.);
#65=FACE_OUTER_BOUND('',#131,.T.);
#66=FACE_OUTER_BOUND('',#133,.T.);
#67=FACE_OUTER_BOUND('',#134,.T.);
#68=FACE_OUTER_BOUND('',#135,.T.);
#69=FACE_OUTER_BOUND('',#137,.T.);
#70=FACE_OUTER_BOUND('',#138,.T.);
#71=FACE_OUTER_BOUND('',#139,.T.);
#72=FACE_OUTER_BOUND('',#140,.T.);
#73=FACE_OUTER_BOUND('',#141,.T.);
#74=FACE_OUTER_BOUND('',#142,.T.);
#75=FACE_OUTER_BOUND('',#143,.T.);
#76=FACE_OUTER_BOUND('',#144,.T.);
#77=FACE_OUTER_BOUND('',#145,.T.);
#78=FACE_OUTER_BOUND('',#146,.T.);
#79=FACE_OUTER_BOUND('',#147,.T.);
#80=FACE_OUTER_BOUND('',#148,.T.);
#81=FACE_OUTER_BOUND('',#149,.T.);
#82=FACE_OUTER_BOUND('',#150,.T.);
#83=FACE_OUTER_BOUND('',#151,.T.);
#84=FACE_OUTER_BOUND('',#154,.T.);
#85=FACE_OUTER_BOUND('',#155,.T.);
#86=FACE_OUTER_BOUND('',#158,.T.);
#87=FACE_OUTER_BOUND('',#159,.T.);
#88=FACE_OUTER_BOUND('',#160,.T.);
#89=FACE_OUTER_BOUND('',#161,.T.);
#90=FACE_OUTER_BOUND('',#162,.T.);
#91=FACE_OUTER_BOUND('',#163,.T.);
#92=FACE_OUTER_BOUND('',#164,.T.);
#93=FACE_OUTER_BOUND('',#167,.T.);
#94=FACE_OUTER_BOUND('',#168,.T.);
#95=FACE_OUTER_BOUND('',#169,.T.);
#96=FACE_OUTER_BOUND('',#170,.T.);
#97=FACE_OUTER_BOUND('',#171,.T.);
#98=FACE_OUTER_BOUND('',#172,.T.);
#99=FACE_OUTER_BOUND('',#173,.T.);
#100=FACE_OUTER_BOUND('',#174,.T.);
#101=FACE_OUTER_BOUND('',#175,.T.);
#102=FACE_OUTER_BOUND('',#177,.T.);
#103=FACE_OUTER_BOUND('',#178,.T.);
#104=FACE_OUTER_BOUND('',#179,.T.);
#105=FACE_OUTER_BOUND('',#180,.T.);
#106=FACE_OUTER_BOUND('',#185,.T.);
#107=FACE_OUTER_BOUND('',#186,.T.);
#108=EDGE_LOOP('',(#791,#792,#793,#794,#795,#796,#797,#798,#799,#800,#801,
#802,#803,#804,#805,#806,#807,#808,#809,#810,#811,#812,#813,#814,#815,#816,
#817,#818,#819,#820,#821,#822,#823,#824,#825,#826,#827,#828,#829,#830,#831,
#832,#833,#834,#835));
#109=EDGE_LOOP('',(#836));
#110=EDGE_LOOP('',(#837));
#111=EDGE_LOOP('',(#838));
#112=EDGE_LOOP('',(#839,#840,#841,#842));
#113=EDGE_LOOP('',(#843,#844,#845,#846));
#114=EDGE_LOOP('',(#847,#848,#849,#850));
#115=EDGE_LOOP('',(#851,#852,#853,#854,#855,#856));
#116=EDGE_LOOP('',(#857,#858,#859,#860));
#117=EDGE_LOOP('',(#861,#862,#863,#864));
#118=EDGE_LOOP('',(#865,#866,#867,#868));
#119=EDGE_LOOP('',(#869,#870,#871,#872));
#120=EDGE_LOOP('',(#873,#874,#875,#876));
#121=EDGE_LOOP('',(#877,#878,#879,#880));
#122=EDGE_LOOP('',(#881,#882,#883,#884));
#123=EDGE_LOOP('',(#885,#886,#887,#888));
#124=EDGE_LOOP('',(#889,#890,#891,#892));
#125=EDGE_LOOP('',(#893,#894,#895,#896));
#126=EDGE_LOOP('',(#897,#898,#899,#900));
#127=EDGE_LOOP('',(#901,#902,#903,#904));
#128=EDGE_LOOP('',(#905,#906,#907,#908));
#129=EDGE_LOOP('',(#909,#910,#911,#912));
#130=EDGE_LOOP('',(#913,#914,#915,#916));
#131=EDGE_LOOP('',(#917,#918));
#132=EDGE_LOOP('',(#919));
#133=EDGE_LOOP('',(#920,#921,#922,#923));
#134=EDGE_LOOP('',(#924,#925,#926,#927));
#135=EDGE_LOOP('',(#928,#929));
#136=EDGE_LOOP('',(#930));
#137=EDGE_LOOP('',(#931,#932,#933,#934));
#138=EDGE_LOOP('',(#935,#936));
#139=EDGE_LOOP('',(#937,#938,#939,#940,#941,#942));
#140=EDGE_LOOP('',(#943,#944,#945,#946));
#141=EDGE_LOOP('',(#947,#948,#949,#950));
#142=EDGE_LOOP('',(#951,#952,#953,#954,#955,#956));
#143=EDGE_LOOP('',(#957,#958,#959,#960));
#144=EDGE_LOOP('',(#961,#962,#963,#964));
#145=EDGE_LOOP('',(#965,#966,#967,#968,#969));
#146=EDGE_LOOP('',(#970,#971,#972,#973,#974,#975));
#147=EDGE_LOOP('',(#976,#977,#978,#979));
#148=EDGE_LOOP('',(#980,#981,#982,#983));
#149=EDGE_LOOP('',(#984,#985,#986,#987));
#150=EDGE_LOOP('',(#988,#989,#990,#991));
#151=EDGE_LOOP('',(#992,#993,#994,#995));
#152=EDGE_LOOP('',(#996));
#153=EDGE_LOOP('',(#997));
#154=EDGE_LOOP('',(#998,#999,#1000,#1001));
#155=EDGE_LOOP('',(#1002,#1003,#1004,#1005));
#156=EDGE_LOOP('',(#1006));
#157=EDGE_LOOP('',(#1007));
#158=EDGE_LOOP('',(#1008,#1009,#1010,#1011));
#159=EDGE_LOOP('',(#1012,#1013,#1014,#1015));
#160=EDGE_LOOP('',(#1016,#1017,#1018,#1019));
#161=EDGE_LOOP('',(#1020,#1021,#1022,#1023));
#162=EDGE_LOOP('',(#1024,#1025,#1026,#1027));
#163=EDGE_LOOP('',(#1028,#1029,#1030,#1031));
#164=EDGE_LOOP('',(#1032,#1033,#1034,#1035,#1036,#1037,#1038,#1039,#1040,
#1041,#1042,#1043,#1044,#1045,#1046,#1047,#1048));
#165=EDGE_LOOP('',(#1049,#1050,#1051,#1052));
#166=EDGE_LOOP('',(#1053));
#167=EDGE_LOOP('',(#1054,#1055,#1056,#1057));
#168=EDGE_LOOP('',(#1058,#1059,#1060,#1061));
#169=EDGE_LOOP('',(#1062,#1063,#1064,#1065,#1066,#1067));
#170=EDGE_LOOP('',(#1068,#1069,#1070,#1071));
#171=EDGE_LOOP('',(#1072,#1073,#1074,#1075));
#172=EDGE_LOOP('',(#1076,#1077,#1078,#1079));
#173=EDGE_LOOP('',(#1080,#1081,#1082,#1083));
#174=EDGE_LOOP('',(#1084,#1085,#1086,#1087,#1088,#1089));
#175=EDGE_LOOP('',(#1090,#1091,#1092,#1093));
#176=EDGE_LOOP('',(#1094,#1095,#1096,#1097));
#177=EDGE_LOOP('',(#1098,#1099,#1100,#1101));
#178=EDGE_LOOP('',(#1102,#1103,#1104,#1105,#1106,#1107));
#179=EDGE_LOOP('',(#1108,#1109,#1110,#1111,#1112));
#180=EDGE_LOOP('',(#1113,#1114,#1115,#1116,#1117,#1118));
#181=EDGE_LOOP('',(#1119,#1120,#1121,#1122));
#182=EDGE_LOOP('',(#1123,#1124,#1125,#1126));
#183=EDGE_LOOP('',(#1127));
#184=EDGE_LOOP('',(#1128));
#185=EDGE_LOOP('',(#1129,#1130,#1131,#1132));
#186=EDGE_LOOP('',(#1133,#1134,#1135,#1136));
#187=CIRCLE('',#1266,2.25);
#188=CIRCLE('',#1267,0.5);
#189=CIRCLE('',#1268,0.5);
#190=CIRCLE('',#1269,2.25);
#191=CIRCLE('',#1270,1.25);
#192=CIRCLE('',#1272,2.25);
#193=CIRCLE('',#1273,1.25);
#194=CIRCLE('',#1278,2.9);
#195=CIRCLE('',#1283,2.25);
#196=CIRCLE('',#1286,0.5);
#197=CIRCLE('',#1289,0.5);
#198=CIRCLE('',#1292,2.25);
#199=CIRCLE('',#1297,4.5);
#200=CIRCLE('',#1298,4.5);
#201=CIRCLE('',#1300,4.);
#202=CIRCLE('',#1302,6.);
#203=CIRCLE('',#1303,1.25);
#204=CIRCLE('',#1305,1.25);
#205=CIRCLE('',#1307,6.);
#206=CIRCLE('',#1310,2.9);
#207=CIRCLE('',#1322,1.25);
#208=CIRCLE('',#1323,1.25);
#209=CIRCLE('',#1325,1.25);
#210=CIRCLE('',#1326,1.25);
#211=CIRCLE('',#1337,4.);
#212=CIRCLE('',#1339,2.25);
#213=CIRCLE('',#1344,1.25);
#214=CIRCLE('',#1354,1.25);
#215=LINE('',#1692,#360);
#216=LINE('',#1694,#361);
#217=LINE('',#1696,#362);
#218=LINE('',#1698,#363);
#219=LINE('',#1700,#364);
#220=LINE('',#1702,#365);
#221=LINE('',#1704,#366);
#222=LINE('',#1706,#367);
#223=LINE('',#1710,#368);
#224=LINE('',#1711,#369);
#225=LINE('',#1713,#370);
#226=LINE('',#1715,#371);
#227=LINE('',#1719,#372);
#228=LINE('',#1723,#373);
#229=LINE('',#1727,#374);
#230=LINE('',#1729,#375);
#231=LINE('',#1731,#376);
#232=LINE('',#1733,#377);
#233=LINE('',#1735,#378);
#234=LINE('',#1737,#379);
#235=LINE('',#1739,#380);
#236=LINE('',#1741,#381);
#237=LINE('',#1743,#382);
#238=LINE('',#1745,#383);
#239=LINE('',#1747,#384);
#240=LINE('',#1749,#385);
#241=LINE('',#1751,#386);
#242=LINE('',#1753,#387);
#243=LINE('',#1755,#388);
#244=LINE('',#1757,#389);
#245=LINE('',#1759,#390);
#246=LINE('',#1761,#391);
#247=LINE('',#1763,#392);
#248=LINE('',#1765,#393);
#249=LINE('',#1767,#394);
#250=LINE('',#1769,#395);
#251=LINE('',#1771,#396);
#252=LINE('',#1773,#397);
#253=LINE('',#1775,#398);
#254=LINE('',#1777,#399);
#255=LINE('',#1778,#400);
#256=LINE('',#1788,#401);
#257=LINE('',#1790,#402);
#258=LINE('',#1791,#403);
#259=LINE('',#1794,#404);
#260=LINE('',#1795,#405);
#261=LINE('',#1798,#406);
#262=LINE('',#1799,#407);
#263=LINE('',#1802,#408);
#264=LINE('',#1803,#409);
#265=LINE('',#1807,#410);
#266=LINE('',#1808,#411);
#267=LINE('',#1811,#412);
#268=LINE('',#1812,#413);
#269=LINE('',#1815,#414);
#270=LINE('',#1816,#415);
#271=LINE('',#1819,#416);
#272=LINE('',#1823,#417);
#273=LINE('',#1824,#418);
#274=LINE('',#1827,#419);
#275=LINE('',#1831,#420);
#276=LINE('',#1832,#421);
#277=LINE('',#1835,#422);
#278=LINE('',#1839,#423);
#279=LINE('',#1840,#424);
#280=LINE('',#1843,#425);
#281=LINE('',#1846,#426);
#282=LINE('',#1849,#427);
#283=LINE('',#1850,#428);
#284=LINE('',#1852,#429);
#285=LINE('',#1853,#430);
#286=LINE('',#1856,#431);
#287=LINE('',#1857,#432);
#288=LINE('',#1866,#433);
#289=LINE('',#1872,#434);
#290=LINE('',#1876,#435);
#291=LINE('',#1878,#436);
#292=LINE('',#1881,#437);
#293=LINE('',#1887,#438);
#294=LINE('',#1889,#439);
#295=LINE('',#1891,#440);
#296=LINE('',#1893,#441);
#297=LINE('',#1894,#442);
#298=LINE('',#1897,#443);
#299=LINE('',#1898,#444);
#300=LINE('',#1901,#445);
#301=LINE('',#1903,#446);
#302=LINE('',#1904,#447);
#303=LINE('',#1908,#448);
#304=LINE('',#1909,#449);
#305=LINE('',#1910,#450);
#306=LINE('',#1912,#451);
#307=LINE('',#1913,#452);
#308=LINE('',#1917,#453);
#309=LINE('',#1919,#454);
#310=LINE('',#1920,#455);
#311=LINE('',#1922,#456);
#312=LINE('',#1924,#457);
#313=LINE('',#1929,#458);
#314=LINE('',#1935,#459);
#315=LINE('',#1940,#460);
#316=LINE('',#1942,#461);
#317=LINE('',#1944,#462);
#318=LINE('',#1945,#463);
#319=LINE('',#1948,#464);
#320=LINE('',#1950,#465);
#321=LINE('',#1951,#466);
#322=LINE('',#1954,#467);
#323=LINE('',#1956,#468);
#324=LINE('',#1957,#469);
#325=LINE('',#1959,#470);
#326=LINE('',#1960,#471);
#327=LINE('',#1965,#472);
#328=LINE('',#1967,#473);
#329=LINE('',#1969,#474);
#330=LINE('',#1970,#475);
#331=LINE('',#1973,#476);
#332=LINE('',#1975,#477);
#333=LINE('',#1976,#478);
#334=LINE('',#1979,#479);
#335=LINE('',#1981,#480);
#336=LINE('',#1982,#481);
#337=LINE('',#1984,#482);
#338=LINE('',#1985,#483);
#339=LINE('',#1990,#484);
#340=LINE('',#1991,#485);
#341=LINE('',#1996,#486);
#342=LINE('',#1997,#487);
#343=LINE('',#1999,#488);
#344=LINE('',#2003,#489);
#345=LINE('',#2006,#490);
#346=LINE('',#2010,#491);
#347=LINE('',#2012,#492);
#348=LINE('',#2013,#493);
#349=LINE('',#2016,#494);
#350=LINE('',#2017,#495);
#351=LINE('',#2020,#496);
#352=LINE('',#2021,#497);
#353=LINE('',#2024,#498);
#354=LINE('',#2025,#499);
#355=LINE('',#2028,#500);
#356=LINE('',#2029,#501);
#357=LINE('',#2031,#502);
#358=LINE('',#2036,#503);
#359=LINE('',#2038,#504);
#360=VECTOR('',#1361,10.);
#361=VECTOR('',#1362,10.);
#362=VECTOR('',#1363,10.);
#363=VECTOR('',#1364,10.);
#364=VECTOR('',#1365,10.);
#365=VECTOR('',#1366,10.);
#366=VECTOR('',#1367,10.);
#367=VECTOR('',#1368,10.);
#368=VECTOR('',#1371,10.);
#369=VECTOR('',#1372,10.);
#370=VECTOR('',#1373,10.);
#371=VECTOR('',#1374,10.);
#372=VECTOR('',#1377,10.);
#373=VECTOR('',#1380,10.);
#374=VECTOR('',#1383,10.);
#375=VECTOR('',#1384,10.);
#376=VECTOR('',#1385,10.);
#377=VECTOR('',#1386,10.);
#378=VECTOR('',#1387,10.);
#379=VECTOR('',#1388,10.);
#380=VECTOR('',#1389,10.);
#381=VECTOR('',#1390,10.);
#382=VECTOR('',#1391,10.);
#383=VECTOR('',#1392,10.);
#384=VECTOR('',#1393,10.);
#385=VECTOR('',#1394,10.);
#386=VECTOR('',#1395,10.);
#387=VECTOR('',#1396,10.);
#388=VECTOR('',#1397,10.);
#389=VECTOR('',#1398,10.);
#390=VECTOR('',#1399,10.);
#391=VECTOR('',#1400,10.);
#392=VECTOR('',#1401,10.);
#393=VECTOR('',#1402,10.);
#394=VECTOR('',#1403,10.);
#395=VECTOR('',#1404,10.);
#396=VECTOR('',#1405,10.);
#397=VECTOR('',#1406,10.);
#398=VECTOR('',#1407,10.);
#399=VECTOR('',#1408,10.);
#400=VECTOR('',#1409,10.);
#401=VECTOR('',#1420,10.);
#402=VECTOR('',#1421,10.);
#403=VECTOR('',#1422,10.);
#404=VECTOR('',#1425,10.);
#405=VECTOR('',#1426,10.);
#406=VECTOR('',#1429,10.);
#407=VECTOR('',#1430,10.);
#408=VECTOR('',#1433,10.);
#409=VECTOR('',#1434,10.);
#410=VECTOR('',#1439,10.);
#411=VECTOR('',#1440,10.);
#412=VECTOR('',#1443,10.);
#413=VECTOR('',#1444,10.);
#414=VECTOR('',#1447,10.);
#415=VECTOR('',#1448,10.);
#416=VECTOR('',#1451,10.);
#417=VECTOR('',#1456,10.);
#418=VECTOR('',#1457,10.);
#419=VECTOR('',#1460,10.);
#420=VECTOR('',#1465,10.);
#421=VECTOR('',#1466,10.);
#422=VECTOR('',#1469,10.);
#423=VECTOR('',#1474,10.);
#424=VECTOR('',#1475,10.);
#425=VECTOR('',#1478,10.);
#426=VECTOR('',#1481,10.);
#427=VECTOR('',#1484,10.);
#428=VECTOR('',#1485,10.);
#429=VECTOR('',#1488,10.);
#430=VECTOR('',#1489,10.);
#431=VECTOR('',#1492,10.);
#432=VECTOR('',#1493,10.);
#433=VECTOR('',#1506,10.);
#434=VECTOR('',#1513,1.25);
#435=VECTOR('',#1518,10.);
#436=VECTOR('',#1519,10.);
#437=VECTOR('',#1524,10.);
#438=VECTOR('',#1533,10.);
#439=VECTOR('',#1534,10.);
#440=VECTOR('',#1535,10.);
#441=VECTOR('',#1536,10.);
#442=VECTOR('',#1537,10.);
#443=VECTOR('',#1540,10.);
#444=VECTOR('',#1541,10.);
#445=VECTOR('',#1544,10.);
#446=VECTOR('',#1545,10.);
#447=VECTOR('',#1546,10.);
#448=VECTOR('',#1549,10.);
#449=VECTOR('',#1550,10.);
#450=VECTOR('',#1551,10.);
#451=VECTOR('',#1554,10.);
#452=VECTOR('',#1555,10.);
#453=VECTOR('',#1560,10.);
#454=VECTOR('',#1561,10.);
#455=VECTOR('',#1562,10.);
#456=VECTOR('',#1565,10.);
#457=VECTOR('',#1568,10.);
#458=VECTOR('',#1573,1.25);
#459=VECTOR('',#1580,1.25);
#460=VECTOR('',#1585,10.);
#461=VECTOR('',#1586,10.);
#462=VECTOR('',#1587,10.);
#463=VECTOR('',#1588,10.);
#464=VECTOR('',#1591,10.);
#465=VECTOR('',#1592,10.);
#466=VECTOR('',#1593,10.);
#467=VECTOR('',#1596,10.);
#468=VECTOR('',#1597,10.);
#469=VECTOR('',#1598,10.);
#470=VECTOR('',#1601,10.);
#471=VECTOR('',#1602,10.);
#472=VECTOR('',#1607,10.);
#473=VECTOR('',#1608,10.);
#474=VECTOR('',#1609,10.);
#475=VECTOR('',#1610,10.);
#476=VECTOR('',#1613,10.);
#477=VECTOR('',#1614,10.);
#478=VECTOR('',#1615,10.);
#479=VECTOR('',#1618,10.);
#480=VECTOR('',#1619,10.);
#481=VECTOR('',#1620,10.);
#482=VECTOR('',#1623,10.);
#483=VECTOR('',#1624,10.);
#484=VECTOR('',#1631,10.);
#485=VECTOR('',#1632,10.);
#486=VECTOR('',#1637,10.);
#487=VECTOR('',#1638,10.);
#488=VECTOR('',#1641,10.);
#489=VECTOR('',#1646,1.25);
#490=VECTOR('',#1651,10.);
#491=VECTOR('',#1656,10.);
#492=VECTOR('',#1657,10.);
#493=VECTOR('',#1658,10.);
#494=VECTOR('',#1661,10.);
#495=VECTOR('',#1662,10.);
#496=VECTOR('',#1665,10.);
#497=VECTOR('',#1666,10.);
#498=VECTOR('',#1669,10.);
#499=VECTOR('',#1670,10.);
#500=VECTOR('',#1673,10.);
#501=VECTOR('',#1674,10.);
#502=VECTOR('',#1677,10.);
#503=VECTOR('',#1684,1.25);
#504=VECTOR('',#1687,1.25);
#505=VERTEX_POINT('',#1690);
#506=VERTEX_POINT('',#1691);
#507=VERTEX_POINT('',#1693);
#508=VERTEX_POINT('',#1695);
#509=VERTEX_POINT('',#1697);
#510=VERTEX_POINT('',#1699);
#511=VERTEX_POINT('',#1701);
#512=VERTEX_POINT('',#1703);
#513=VERTEX_POINT('',#1705);
#514=VERTEX_POINT('',#1707);
#515=VERTEX_POINT('',#1709);
#516=VERTEX_POINT('',#1712);
#517=VERTEX_POINT('',#1714);
#518=VERTEX_POINT('',#1716);
#519=VERTEX_POINT('',#1718);
#520=VERTEX_POINT('',#1720);
#521=VERTEX_POINT('',#1722);
#522=VERTEX_POINT('',#1724);
#523=VERTEX_POINT('',#1726);
#524=VERTEX_POINT('',#1728);
#525=VERTEX_POINT('',#1730);
#526=VERTEX_POINT('',#1732);
#527=VERTEX_POINT('',#1734);
#528=VERTEX_POINT('',#1736);
#529=VERTEX_POINT('',#1738);
#530=VERTEX_POINT('',#1740);
#531=VERTEX_POINT('',#1742);
#532=VERTEX_POINT('',#1744);
#533=VERTEX_POINT('',#1746);
#534=VERTEX_POINT('',#1748);
#535=VERTEX_POINT('',#1750);
#536=VERTEX_POINT('',#1752);
#537=VERTEX_POINT('',#1754);
#538=VERTEX_POINT('',#1756);
#539=VERTEX_POINT('',#1758);
#540=VERTEX_POINT('',#1760);
#541=VERTEX_POINT('',#1762);
#542=VERTEX_POINT('',#1764);
#543=VERTEX_POINT('',#1766);
#544=VERTEX_POINT('',#1768);
#545=VERTEX_POINT('',#1770);
#546=VERTEX_POINT('',#1772);
#547=VERTEX_POINT('',#1774);
#548=VERTEX_POINT('',#1776);
#549=VERTEX_POINT('',#1779);
#550=VERTEX_POINT('',#1782);
#551=VERTEX_POINT('',#1784);
#552=VERTEX_POINT('',#1787);
#553=VERTEX_POINT('',#1789);
#554=VERTEX_POINT('',#1793);
#555=VERTEX_POINT('',#1797);
#556=VERTEX_POINT('',#1801);
#557=VERTEX_POINT('',#1806);
#558=VERTEX_POINT('',#1810);
#559=VERTEX_POINT('',#1814);
#560=VERTEX_POINT('',#1818);
#561=VERTEX_POINT('',#1822);
#562=VERTEX_POINT('',#1826);
#563=VERTEX_POINT('',#1830);
#564=VERTEX_POINT('',#1834);
#565=VERTEX_POINT('',#1838);
#566=VERTEX_POINT('',#1842);
#567=VERTEX_POINT('',#1844);
#568=VERTEX_POINT('',#1848);
#569=VERTEX_POINT('',#1855);
#570=VERTEX_POINT('',#1864);
#571=VERTEX_POINT('',#1865);
#572=VERTEX_POINT('',#1868);
#573=VERTEX_POINT('',#1871);
#574=VERTEX_POINT('',#1875);
#575=VERTEX_POINT('',#1877);
#576=VERTEX_POINT('',#1886);
#577=VERTEX_POINT('',#1888);
#578=VERTEX_POINT('',#1890);
#579=VERTEX_POINT('',#1892);
#580=VERTEX_POINT('',#1896);
#581=VERTEX_POINT('',#1900);
#582=VERTEX_POINT('',#1902);
#583=VERTEX_POINT('',#1906);
#584=VERTEX_POINT('',#1907);
#585=VERTEX_POINT('',#1916);
#586=VERTEX_POINT('',#1918);
#587=VERTEX_POINT('',#1926);
#588=VERTEX_POINT('',#1928);
#589=VERTEX_POINT('',#1932);
#590=VERTEX_POINT('',#1934);
#591=VERTEX_POINT('',#1938);
#592=VERTEX_POINT('',#1939);
#593=VERTEX_POINT('',#1941);
#594=VERTEX_POINT('',#1943);
#595=VERTEX_POINT('',#1947);
#596=VERTEX_POINT('',#1949);
#597=VERTEX_POINT('',#1953);
#598=VERTEX_POINT('',#1955);
#599=VERTEX_POINT('',#1963);
#600=VERTEX_POINT('',#1964);
#601=VERTEX_POINT('',#1966);
#602=VERTEX_POINT('',#1968);
#603=VERTEX_POINT('',#1972);
#604=VERTEX_POINT('',#1974);
#605=VERTEX_POINT('',#1978);
#606=VERTEX_POINT('',#1980);
#607=VERTEX_POINT('',#1989);
#608=VERTEX_POINT('',#1992);
#609=VERTEX_POINT('',#1995);
#610=VERTEX_POINT('',#2002);
#611=VERTEX_POINT('',#2009);
#612=VERTEX_POINT('',#2011);
#613=VERTEX_POINT('',#2015);
#614=VERTEX_POINT('',#2019);
#615=VERTEX_POINT('',#2023);
#616=VERTEX_POINT('',#2027);
#617=VERTEX_POINT('',#2033);
#618=EDGE_CURVE('',#505,#506,#215,.T.);
#619=EDGE_CURVE('',#507,#505,#216,.T.);
#620=EDGE_CURVE('',#508,#507,#217,.T.);
#621=EDGE_CURVE('',#509,#508,#218,.T.);
#622=EDGE_CURVE('',#510,#509,#219,.T.);
#623=EDGE_CURVE('',#511,#510,#220,.T.);
#624=EDGE_CURVE('',#512,#511,#221,.T.);
#625=EDGE_CURVE('',#513,#512,#222,.T.);
#626=EDGE_CURVE('',#514,#513,#187,.T.);
#627=EDGE_CURVE('',#515,#514,#223,.T.);
#628=EDGE_CURVE('',#512,#515,#224,.T.);
#629=EDGE_CURVE('',#516,#512,#225,.T.);
#630=EDGE_CURVE('',#517,#516,#226,.T.);
#631=EDGE_CURVE('',#518,#517,#188,.T.);
#632=EDGE_CURVE('',#519,#518,#227,.T.);
#633=EDGE_CURVE('',#520,#519,#189,.T.);
#634=EDGE_CURVE('',#521,#520,#228,.T.);
#635=EDGE_CURVE('',#522,#521,#190,.T.);
#636=EDGE_CURVE('',#523,#522,#229,.T.);
#637=EDGE_CURVE('',#524,#523,#230,.T.);
#638=EDGE_CURVE('',#525,#524,#231,.T.);
#639=EDGE_CURVE('',#526,#525,#232,.T.);
#640=EDGE_CURVE('',#527,#526,#233,.T.);
#641=EDGE_CURVE('',#528,#527,#234,.T.);
#642=EDGE_CURVE('',#529,#528,#235,.T.);
#643=EDGE_CURVE('',#530,#529,#236,.T.);
#644=EDGE_CURVE('',#531,#530,#237,.T.);
#645=EDGE_CURVE('',#532,#531,#238,.T.);
#646=EDGE_CURVE('',#533,#532,#239,.T.);
#647=EDGE_CURVE('',#534,#533,#240,.T.);
#648=EDGE_CURVE('',#535,#534,#241,.T.);
#649=EDGE_CURVE('',#536,#535,#242,.T.);
#650=EDGE_CURVE('',#537,#536,#243,.T.);
#651=EDGE_CURVE('',#538,#537,#244,.T.);
#652=EDGE_CURVE('',#539,#538,#245,.T.);
#653=EDGE_CURVE('',#540,#539,#246,.T.);
#654=EDGE_CURVE('',#541,#540,#247,.T.);
#655=EDGE_CURVE('',#542,#541,#248,.T.);
#656=EDGE_CURVE('',#543,#542,#249,.T.);
#657=EDGE_CURVE('',#544,#543,#250,.T.);
#658=EDGE_CURVE('',#545,#544,#251,.T.);
#659=EDGE_CURVE('',#546,#545,#252,.T.);
#660=EDGE_CURVE('',#547,#546,#253,.T.);
#661=EDGE_CURVE('',#548,#547,#254,.T.);
#662=EDGE_CURVE('',#506,#548,#255,.T.);
#663=EDGE_CURVE('',#549,#549,#191,.T.);
#664=EDGE_CURVE('',#550,#550,#192,.T.);
#665=EDGE_CURVE('',#551,#551,#193,.T.);
#666=EDGE_CURVE('',#527,#552,#256,.T.);
#667=EDGE_CURVE('',#553,#552,#257,.T.);
#668=EDGE_CURVE('',#528,#553,#258,.T.);
#669=EDGE_CURVE('',#526,#554,#259,.T.);
#670=EDGE_CURVE('',#552,#554,#260,.T.);
#671=EDGE_CURVE('',#555,#525,#261,.T.);
#672=EDGE_CURVE('',#554,#555,#262,.T.);
#673=EDGE_CURVE('',#553,#556,#263,.T.);
#674=EDGE_CURVE('',#533,#556,#264,.T.);
#675=EDGE_CURVE('',#532,#529,#194,.T.);
#676=EDGE_CURVE('',#524,#557,#265,.T.);
#677=EDGE_CURVE('',#557,#555,#266,.T.);
#678=EDGE_CURVE('',#523,#558,#267,.T.);
#679=EDGE_CURVE('',#558,#557,#268,.T.);
#680=EDGE_CURVE('',#522,#559,#269,.T.);
#681=EDGE_CURVE('',#559,#558,#270,.T.);
#682=EDGE_CURVE('',#560,#521,#271,.T.);
#683=EDGE_CURVE('',#559,#560,#195,.F.);
#684=EDGE_CURVE('',#561,#520,#272,.T.);
#685=EDGE_CURVE('',#560,#561,#273,.T.);
#686=EDGE_CURVE('',#519,#562,#274,.T.);
#687=EDGE_CURVE('',#562,#561,#196,.T.);
#688=EDGE_CURVE('',#563,#518,#275,.T.);
#689=EDGE_CURVE('',#562,#563,#276,.T.);
#690=EDGE_CURVE('',#517,#564,#277,.T.);
#691=EDGE_CURVE('',#564,#563,#197,.T.);
#692=EDGE_CURVE('',#516,#565,#278,.T.);
#693=EDGE_CURVE('',#564,#565,#279,.T.);
#694=EDGE_CURVE('',#566,#513,#280,.T.);
#695=EDGE_CURVE('',#567,#566,#198,.F.);
#696=EDGE_CURVE('',#514,#567,#281,.T.);
#697=EDGE_CURVE('',#568,#512,#282,.T.);
#698=EDGE_CURVE('',#565,#568,#283,.T.);
#699=EDGE_CURVE('',#568,#512,#284,.T.);
#700=EDGE_CURVE('',#568,#566,#285,.T.);
#701=EDGE_CURVE('',#511,#569,#286,.T.);
#702=EDGE_CURVE('',#569,#568,#287,.T.);
#703=EDGE_CURVE('',#508,#537,#199,.T.);
#704=EDGE_CURVE('',#538,#507,#200,.T.);
#705=EDGE_CURVE('',#536,#509,#201,.T.);
#706=EDGE_CURVE('',#570,#571,#288,.T.);
#707=EDGE_CURVE('',#570,#571,#202,.T.);
#708=EDGE_CURVE('',#572,#572,#203,.T.);
#709=EDGE_CURVE('',#572,#573,#289,.T.);
#710=EDGE_CURVE('',#573,#573,#204,.T.);
#711=EDGE_CURVE('',#571,#574,#290,.T.);
#712=EDGE_CURVE('',#575,#570,#291,.T.);
#713=EDGE_CURVE('',#574,#575,#205,.T.);
#714=EDGE_CURVE('',#574,#575,#292,.T.);
#715=EDGE_CURVE('',#530,#531,#206,.T.);
#716=EDGE_CURVE('',#546,#576,#293,.T.);
#717=EDGE_CURVE('',#576,#577,#294,.T.);
#718=EDGE_CURVE('',#578,#577,#295,.T.);
#719=EDGE_CURVE('',#579,#578,#296,.T.);
#720=EDGE_CURVE('',#547,#579,#297,.T.);
#721=EDGE_CURVE('',#545,#580,#298,.T.);
#722=EDGE_CURVE('',#580,#576,#299,.T.);
#723=EDGE_CURVE('',#577,#581,#300,.T.);
#724=EDGE_CURVE('',#581,#582,#301,.T.);
#725=EDGE_CURVE('',#582,#578,#302,.T.);
#726=EDGE_CURVE('',#583,#584,#303,.T.);
#727=EDGE_CURVE('',#581,#583,#304,.T.);
#728=EDGE_CURVE('',#580,#584,#305,.T.);
#729=EDGE_CURVE('',#543,#583,#306,.T.);
#730=EDGE_CURVE('',#584,#544,#307,.T.);
#731=EDGE_CURVE('',#585,#582,#308,.T.);
#732=EDGE_CURVE('',#586,#585,#309,.T.);
#733=EDGE_CURVE('',#579,#586,#310,.T.);
#734=EDGE_CURVE('',#585,#542,#311,.T.);
#735=EDGE_CURVE('',#548,#586,#312,.F.);
#736=EDGE_CURVE('',#587,#587,#207,.T.);
#737=EDGE_CURVE('',#587,#588,#313,.T.);
#738=EDGE_CURVE('',#588,#588,#208,.T.);
#739=EDGE_CURVE('',#589,#589,#209,.T.);
#740=EDGE_CURVE('',#589,#590,#314,.T.);
#741=EDGE_CURVE('',#590,#590,#210,.T.);
#742=EDGE_CURVE('',#591,#592,#315,.T.);
#743=EDGE_CURVE('',#591,#593,#316,.T.);
#744=EDGE_CURVE('',#594,#593,#317,.T.);
#745=EDGE_CURVE('',#592,#594,#318,.T.);
#746=EDGE_CURVE('',#592,#595,#319,.T.);
#747=EDGE_CURVE('',#596,#594,#320,.T.);
#748=EDGE_CURVE('',#595,#596,#321,.T.);
#749=EDGE_CURVE('',#595,#597,#322,.T.);
#750=EDGE_CURVE('',#598,#596,#323,.T.);
#751=EDGE_CURVE('',#597,#598,#324,.T.);
#752=EDGE_CURVE('',#597,#591,#325,.T.);
#753=EDGE_CURVE('',#593,#598,#326,.T.);
#754=EDGE_CURVE('',#599,#600,#327,.T.);
#755=EDGE_CURVE('',#599,#601,#328,.T.);
#756=EDGE_CURVE('',#602,#601,#329,.T.);
#757=EDGE_CURVE('',#600,#602,#330,.T.);
#758=EDGE_CURVE('',#603,#599,#331,.T.);
#759=EDGE_CURVE('',#603,#604,#332,.T.);
#760=EDGE_CURVE('',#601,#604,#333,.T.);
#761=EDGE_CURVE('',#605,#603,#334,.T.);
#762=EDGE_CURVE('',#605,#606,#335,.T.);
#763=EDGE_CURVE('',#604,#606,#336,.T.);
#764=EDGE_CURVE('',#600,#605,#337,.T.);
#765=EDGE_CURVE('',#606,#602,#338,.T.);
#766=EDGE_CURVE('',#510,#535,#211,.T.);
#767=EDGE_CURVE('',#607,#569,#339,.T.);
#768=EDGE_CURVE('',#556,#607,#340,.T.);
#769=EDGE_CURVE('',#608,#608,#212,.F.);
#770=EDGE_CURVE('',#568,#609,#341,.T.);
#771=EDGE_CURVE('',#609,#567,#342,.T.);
#772=EDGE_CURVE('',#534,#607,#343,.T.);
#773=EDGE_CURVE('',#549,#610,#344,.T.);
#774=EDGE_CURVE('',#610,#610,#213,.T.);
#775=EDGE_CURVE('',#609,#515,#345,.T.);
#776=EDGE_CURVE('',#611,#506,#346,.T.);
#777=EDGE_CURVE('',#612,#611,#347,.F.);
#778=EDGE_CURVE('',#505,#612,#348,.F.);
#779=EDGE_CURVE('',#613,#612,#349,.F.);
#780=EDGE_CURVE('',#539,#613,#350,.F.);
#781=EDGE_CURVE('',#614,#613,#351,.F.);
#782=EDGE_CURVE('',#540,#614,#352,.F.);
#783=EDGE_CURVE('',#615,#614,#353,.F.);
#784=EDGE_CURVE('',#541,#615,#354,.F.);
#785=EDGE_CURVE('',#616,#615,#355,.F.);
#786=EDGE_CURVE('',#586,#616,#356,.F.);
#787=EDGE_CURVE('',#611,#616,#357,.F.);
#788=EDGE_CURVE('',#617,#617,#214,.T.);
#789=EDGE_CURVE('',#551,#617,#358,.T.);
#790=EDGE_CURVE('',#608,#550,#359,.T.);
#791=ORIENTED_EDGE('',*,*,#618,.F.);
#792=ORIENTED_EDGE('',*,*,#619,.F.);
#793=ORIENTED_EDGE('',*,*,#620,.F.);
#794=ORIENTED_EDGE('',*,*,#621,.F.);
#795=ORIENTED_EDGE('',*,*,#622,.F.);
#796=ORIENTED_EDGE('',*,*,#623,.F.);
#797=ORIENTED_EDGE('',*,*,#624,.F.);
#798=ORIENTED_EDGE('',*,*,#625,.F.);
#799=ORIENTED_EDGE('',*,*,#626,.F.);
#800=ORIENTED_EDGE('',*,*,#627,.F.);
#801=ORIENTED_EDGE('',*,*,#628,.F.);
#802=ORIENTED_EDGE('',*,*,#629,.F.);
#803=ORIENTED_EDGE('',*,*,#630,.F.);
#804=ORIENTED_EDGE('',*,*,#631,.F.);
#805=ORIENTED_EDGE('',*,*,#632,.F.);
#806=ORIENTED_EDGE('',*,*,#633,.F.);
#807=ORIENTED_EDGE('',*,*,#634,.F.);
#808=ORIENTED_EDGE('',*,*,#635,.F.);
#809=ORIENTED_EDGE('',*,*,#636,.F.);
#810=ORIENTED_EDGE('',*,*,#637,.F.);
#811=ORIENTED_EDGE('',*,*,#638,.F.);
#812=ORIENTED_EDGE('',*,*,#639,.F.);
#813=ORIENTED_EDGE('',*,*,#640,.F.);
#814=ORIENTED_EDGE('',*,*,#641,.F.);
#815=ORIENTED_EDGE('',*,*,#642,.F.);
#816=ORIENTED_EDGE('',*,*,#643,.F.);
#817=ORIENTED_EDGE('',*,*,#644,.F.);
#818=ORIENTED_EDGE('',*,*,#645,.F.);
#819=ORIENTED_EDGE('',*,*,#646,.F.);
#820=ORIENTED_EDGE('',*,*,#647,.F.);
#821=ORIENTED_EDGE('',*,*,#648,.F.);
#822=ORIENTED_EDGE('',*,*,#649,.F.);
#823=ORIENTED_EDGE('',*,*,#650,.F.);
#824=ORIENTED_EDGE('',*,*,#651,.F.);
#825=ORIENTED_EDGE('',*,*,#652,.F.);
#826=ORIENTED_EDGE('',*,*,#653,.F.);
#827=ORIENTED_EDGE('',*,*,#654,.F.);
#828=ORIENTED_EDGE('',*,*,#655,.F.);
#829=ORIENTED_EDGE('',*,*,#656,.F.);
#830=ORIENTED_EDGE('',*,*,#657,.F.);
#831=ORIENTED_EDGE('',*,*,#658,.F.);
#832=ORIENTED_EDGE('',*,*,#659,.F.);
#833=ORIENTED_EDGE('',*,*,#660,.F.);
#834=ORIENTED_EDGE('',*,*,#661,.F.);
#835=ORIENTED_EDGE('',*,*,#662,.F.);
#836=ORIENTED_EDGE('',*,*,#663,.F.);
#837=ORIENTED_EDGE('',*,*,#664,.F.);
#838=ORIENTED_EDGE('',*,*,#665,.F.);
#839=ORIENTED_EDGE('',*,*,#641,.T.);
#840=ORIENTED_EDGE('',*,*,#666,.T.);
#841=ORIENTED_EDGE('',*,*,#667,.F.);
#842=ORIENTED_EDGE('',*,*,#668,.F.);
#843=ORIENTED_EDGE('',*,*,#640,.T.);
#844=ORIENTED_EDGE('',*,*,#669,.T.);
#845=ORIENTED_EDGE('',*,*,#670,.F.);
#846=ORIENTED_EDGE('',*,*,#666,.F.);
#847=ORIENTED_EDGE('',*,*,#639,.T.);
#848=ORIENTED_EDGE('',*,*,#671,.F.);
#849=ORIENTED_EDGE('',*,*,#672,.F.);
#850=ORIENTED_EDGE('',*,*,#669,.F.);
#851=ORIENTED_EDGE('',*,*,#642,.T.);
#852=ORIENTED_EDGE('',*,*,#668,.T.);
#853=ORIENTED_EDGE('',*,*,#673,.T.);
#854=ORIENTED_EDGE('',*,*,#674,.F.);
#855=ORIENTED_EDGE('',*,*,#646,.T.);
#856=ORIENTED_EDGE('',*,*,#675,.T.);
#857=ORIENTED_EDGE('',*,*,#638,.T.);
#858=ORIENTED_EDGE('',*,*,#676,.T.);
#859=ORIENTED_EDGE('',*,*,#677,.T.);
#860=ORIENTED_EDGE('',*,*,#671,.T.);
#861=ORIENTED_EDGE('',*,*,#637,.T.);
#862=ORIENTED_EDGE('',*,*,#678,.T.);
#863=ORIENTED_EDGE('',*,*,#679,.T.);
#864=ORIENTED_EDGE('',*,*,#676,.F.);
#865=ORIENTED_EDGE('',*,*,#636,.T.);
#866=ORIENTED_EDGE('',*,*,#680,.T.);
#867=ORIENTED_EDGE('',*,*,#681,.T.);
#868=ORIENTED_EDGE('',*,*,#678,.F.);
#869=ORIENTED_EDGE('',*,*,#635,.T.);
#870=ORIENTED_EDGE('',*,*,#682,.F.);
#871=ORIENTED_EDGE('',*,*,#683,.F.);
#872=ORIENTED_EDGE('',*,*,#680,.F.);
#873=ORIENTED_EDGE('',*,*,#634,.T.);
#874=ORIENTED_EDGE('',*,*,#684,.F.);
#875=ORIENTED_EDGE('',*,*,#685,.F.);
#876=ORIENTED_EDGE('',*,*,#682,.T.);
#877=ORIENTED_EDGE('',*,*,#633,.T.);
#878=ORIENTED_EDGE('',*,*,#686,.T.);
#879=ORIENTED_EDGE('',*,*,#687,.T.);
#880=ORIENTED_EDGE('',*,*,#684,.T.);
#881=ORIENTED_EDGE('',*,*,#632,.T.);
#882=ORIENTED_EDGE('',*,*,#688,.F.);
#883=ORIENTED_EDGE('',*,*,#689,.F.);
#884=ORIENTED_EDGE('',*,*,#686,.F.);
#885=ORIENTED_EDGE('',*,*,#631,.T.);
#886=ORIENTED_EDGE('',*,*,#690,.T.);
#887=ORIENTED_EDGE('',*,*,#691,.T.);
#888=ORIENTED_EDGE('',*,*,#688,.T.);
#889=ORIENTED_EDGE('',*,*,#630,.T.);
#890=ORIENTED_EDGE('',*,*,#692,.T.);
#891=ORIENTED_EDGE('',*,*,#693,.F.);
#892=ORIENTED_EDGE('',*,*,#690,.F.);
#893=ORIENTED_EDGE('',*,*,#626,.T.);
#894=ORIENTED_EDGE('',*,*,#694,.F.);
#895=ORIENTED_EDGE('',*,*,#695,.F.);
#896=ORIENTED_EDGE('',*,*,#696,.F.);
#897=ORIENTED_EDGE('',*,*,#629,.T.);
#898=ORIENTED_EDGE('',*,*,#697,.F.);
#899=ORIENTED_EDGE('',*,*,#698,.F.);
#900=ORIENTED_EDGE('',*,*,#692,.F.);
#901=ORIENTED_EDGE('',*,*,#625,.T.);
#902=ORIENTED_EDGE('',*,*,#699,.F.);
#903=ORIENTED_EDGE('',*,*,#700,.T.);
#904=ORIENTED_EDGE('',*,*,#694,.T.);
#905=ORIENTED_EDGE('',*,*,#624,.T.);
#906=ORIENTED_EDGE('',*,*,#701,.T.);
#907=ORIENTED_EDGE('',*,*,#702,.T.);
#908=ORIENTED_EDGE('',*,*,#699,.T.);
#909=ORIENTED_EDGE('',*,*,#651,.T.);
#910=ORIENTED_EDGE('',*,*,#703,.F.);
#911=ORIENTED_EDGE('',*,*,#620,.T.);
#912=ORIENTED_EDGE('',*,*,#704,.F.);
#913=ORIENTED_EDGE('',*,*,#650,.T.);
#914=ORIENTED_EDGE('',*,*,#705,.T.);
#915=ORIENTED_EDGE('',*,*,#621,.T.);
#916=ORIENTED_EDGE('',*,*,#703,.T.);
#917=ORIENTED_EDGE('',*,*,#706,.F.);
#918=ORIENTED_EDGE('',*,*,#707,.T.);
#919=ORIENTED_EDGE('',*,*,#708,.T.);
#920=ORIENTED_EDGE('',*,*,#708,.F.);
#921=ORIENTED_EDGE('',*,*,#709,.T.);
#922=ORIENTED_EDGE('',*,*,#710,.F.);
#923=ORIENTED_EDGE('',*,*,#709,.F.);
#924=ORIENTED_EDGE('',*,*,#711,.F.);
#925=ORIENTED_EDGE('',*,*,#707,.F.);
#926=ORIENTED_EDGE('',*,*,#712,.F.);
#927=ORIENTED_EDGE('',*,*,#713,.F.);
#928=ORIENTED_EDGE('',*,*,#714,.F.);
#929=ORIENTED_EDGE('',*,*,#713,.T.);
#930=ORIENTED_EDGE('',*,*,#710,.T.);
#931=ORIENTED_EDGE('',*,*,#643,.T.);
#932=ORIENTED_EDGE('',*,*,#675,.F.);
#933=ORIENTED_EDGE('',*,*,#645,.T.);
#934=ORIENTED_EDGE('',*,*,#715,.F.);
#935=ORIENTED_EDGE('',*,*,#644,.T.);
#936=ORIENTED_EDGE('',*,*,#715,.T.);
#937=ORIENTED_EDGE('',*,*,#660,.T.);
#938=ORIENTED_EDGE('',*,*,#716,.T.);
#939=ORIENTED_EDGE('',*,*,#717,.T.);
#940=ORIENTED_EDGE('',*,*,#718,.F.);
#941=ORIENTED_EDGE('',*,*,#719,.F.);
#942=ORIENTED_EDGE('',*,*,#720,.F.);
#943=ORIENTED_EDGE('',*,*,#659,.T.);
#944=ORIENTED_EDGE('',*,*,#721,.T.);
#945=ORIENTED_EDGE('',*,*,#722,.T.);
#946=ORIENTED_EDGE('',*,*,#716,.F.);
#947=ORIENTED_EDGE('',*,*,#718,.T.);
#948=ORIENTED_EDGE('',*,*,#723,.T.);
#949=ORIENTED_EDGE('',*,*,#724,.T.);
#950=ORIENTED_EDGE('',*,*,#725,.T.);
#951=ORIENTED_EDGE('',*,*,#726,.F.);
#952=ORIENTED_EDGE('',*,*,#727,.F.);
#953=ORIENTED_EDGE('',*,*,#723,.F.);
#954=ORIENTED_EDGE('',*,*,#717,.F.);
#955=ORIENTED_EDGE('',*,*,#722,.F.);
#956=ORIENTED_EDGE('',*,*,#728,.T.);
#957=ORIENTED_EDGE('',*,*,#657,.T.);
#958=ORIENTED_EDGE('',*,*,#729,.T.);
#959=ORIENTED_EDGE('',*,*,#726,.T.);
#960=ORIENTED_EDGE('',*,*,#730,.T.);
#961=ORIENTED_EDGE('',*,*,#658,.T.);
#962=ORIENTED_EDGE('',*,*,#730,.F.);
#963=ORIENTED_EDGE('',*,*,#728,.F.);
#964=ORIENTED_EDGE('',*,*,#721,.F.);
#965=ORIENTED_EDGE('',*,*,#719,.T.);
#966=ORIENTED_EDGE('',*,*,#725,.F.);
#967=ORIENTED_EDGE('',*,*,#731,.F.);
#968=ORIENTED_EDGE('',*,*,#732,.F.);
#969=ORIENTED_EDGE('',*,*,#733,.F.);
#970=ORIENTED_EDGE('',*,*,#656,.T.);
#971=ORIENTED_EDGE('',*,*,#734,.F.);
#972=ORIENTED_EDGE('',*,*,#731,.T.);
#973=ORIENTED_EDGE('',*,*,#724,.F.);
#974=ORIENTED_EDGE('',*,*,#727,.T.);
#975=ORIENTED_EDGE('',*,*,#729,.F.);
#976=ORIENTED_EDGE('',*,*,#661,.T.);
#977=ORIENTED_EDGE('',*,*,#720,.T.);
#978=ORIENTED_EDGE('',*,*,#733,.T.);
#979=ORIENTED_EDGE('',*,*,#735,.F.);
#980=ORIENTED_EDGE('',*,*,#736,.F.);
#981=ORIENTED_EDGE('',*,*,#737,.T.);
#982=ORIENTED_EDGE('',*,*,#738,.F.);
#983=ORIENTED_EDGE('',*,*,#737,.F.);
#984=ORIENTED_EDGE('',*,*,#739,.F.);
#985=ORIENTED_EDGE('',*,*,#740,.T.);
#986=ORIENTED_EDGE('',*,*,#741,.F.);
#987=ORIENTED_EDGE('',*,*,#740,.F.);
#988=ORIENTED_EDGE('',*,*,#742,.F.);
#989=ORIENTED_EDGE('',*,*,#743,.T.);
#990=ORIENTED_EDGE('',*,*,#744,.F.);
#991=ORIENTED_EDGE('',*,*,#745,.F.);
#992=ORIENTED_EDGE('',*,*,#746,.F.);
#993=ORIENTED_EDGE('',*,*,#745,.T.);
#994=ORIENTED_EDGE('',*,*,#747,.F.);
#995=ORIENTED_EDGE('',*,*,#748,.F.);
#996=ORIENTED_EDGE('',*,*,#738,.T.);
#997=ORIENTED_EDGE('',*,*,#741,.T.);
#998=ORIENTED_EDGE('',*,*,#749,.F.);
#999=ORIENTED_EDGE('',*,*,#748,.T.);
#1000=ORIENTED_EDGE('',*,*,#750,.F.);
#1001=ORIENTED_EDGE('',*,*,#751,.F.);
#1002=ORIENTED_EDGE('',*,*,#752,.F.);
#1003=ORIENTED_EDGE('',*,*,#751,.T.);
#1004=ORIENTED_EDGE('',*,*,#753,.F.);
#1005=ORIENTED_EDGE('',*,*,#743,.F.);
#1006=ORIENTED_EDGE('',*,*,#736,.T.);
#1007=ORIENTED_EDGE('',*,*,#739,.T.);
#1008=ORIENTED_EDGE('',*,*,#753,.T.);
#1009=ORIENTED_EDGE('',*,*,#750,.T.);
#1010=ORIENTED_EDGE('',*,*,#747,.T.);
#1011=ORIENTED_EDGE('',*,*,#744,.T.);
#1012=ORIENTED_EDGE('',*,*,#754,.F.);
#1013=ORIENTED_EDGE('',*,*,#755,.T.);
#1014=ORIENTED_EDGE('',*,*,#756,.F.);
#1015=ORIENTED_EDGE('',*,*,#757,.F.);
#1016=ORIENTED_EDGE('',*,*,#758,.F.);
#1017=ORIENTED_EDGE('',*,*,#759,.T.);
#1018=ORIENTED_EDGE('',*,*,#760,.F.);
#1019=ORIENTED_EDGE('',*,*,#755,.F.);
#1020=ORIENTED_EDGE('',*,*,#761,.F.);
#1021=ORIENTED_EDGE('',*,*,#762,.T.);
#1022=ORIENTED_EDGE('',*,*,#763,.F.);
#1023=ORIENTED_EDGE('',*,*,#759,.F.);
#1024=ORIENTED_EDGE('',*,*,#764,.F.);
#1025=ORIENTED_EDGE('',*,*,#757,.T.);
#1026=ORIENTED_EDGE('',*,*,#765,.F.);
#1027=ORIENTED_EDGE('',*,*,#762,.F.);
#1028=ORIENTED_EDGE('',*,*,#649,.T.);
#1029=ORIENTED_EDGE('',*,*,#766,.F.);
#1030=ORIENTED_EDGE('',*,*,#622,.T.);
#1031=ORIENTED_EDGE('',*,*,#705,.F.);
#1032=ORIENTED_EDGE('',*,*,#667,.T.);
#1033=ORIENTED_EDGE('',*,*,#670,.T.);
#1034=ORIENTED_EDGE('',*,*,#672,.T.);
#1035=ORIENTED_EDGE('',*,*,#677,.F.);
#1036=ORIENTED_EDGE('',*,*,#679,.F.);
#1037=ORIENTED_EDGE('',*,*,#681,.F.);
#1038=ORIENTED_EDGE('',*,*,#683,.T.);
#1039=ORIENTED_EDGE('',*,*,#685,.T.);
#1040=ORIENTED_EDGE('',*,*,#687,.F.);
#1041=ORIENTED_EDGE('',*,*,#689,.T.);
#1042=ORIENTED_EDGE('',*,*,#691,.F.);
#1043=ORIENTED_EDGE('',*,*,#693,.T.);
#1044=ORIENTED_EDGE('',*,*,#698,.T.);
#1045=ORIENTED_EDGE('',*,*,#702,.F.);
#1046=ORIENTED_EDGE('',*,*,#767,.F.);
#1047=ORIENTED_EDGE('',*,*,#768,.F.);
#1048=ORIENTED_EDGE('',*,*,#673,.F.);
#1049=ORIENTED_EDGE('',*,*,#756,.T.);
#1050=ORIENTED_EDGE('',*,*,#760,.T.);
#1051=ORIENTED_EDGE('',*,*,#763,.T.);
#1052=ORIENTED_EDGE('',*,*,#765,.T.);
#1053=ORIENTED_EDGE('',*,*,#769,.T.);
#1054=ORIENTED_EDGE('',*,*,#770,.T.);
#1055=ORIENTED_EDGE('',*,*,#771,.T.);
#1056=ORIENTED_EDGE('',*,*,#695,.T.);
#1057=ORIENTED_EDGE('',*,*,#700,.F.);
#1058=ORIENTED_EDGE('',*,*,#647,.T.);
#1059=ORIENTED_EDGE('',*,*,#674,.T.);
#1060=ORIENTED_EDGE('',*,*,#768,.T.);
#1061=ORIENTED_EDGE('',*,*,#772,.F.);
#1062=ORIENTED_EDGE('',*,*,#648,.T.);
#1063=ORIENTED_EDGE('',*,*,#772,.T.);
#1064=ORIENTED_EDGE('',*,*,#767,.T.);
#1065=ORIENTED_EDGE('',*,*,#701,.F.);
#1066=ORIENTED_EDGE('',*,*,#623,.T.);
#1067=ORIENTED_EDGE('',*,*,#766,.T.);
#1068=ORIENTED_EDGE('',*,*,#663,.T.);
#1069=ORIENTED_EDGE('',*,*,#773,.T.);
#1070=ORIENTED_EDGE('',*,*,#774,.F.);
#1071=ORIENTED_EDGE('',*,*,#773,.F.);
#1072=ORIENTED_EDGE('',*,*,#628,.T.);
#1073=ORIENTED_EDGE('',*,*,#775,.F.);
#1074=ORIENTED_EDGE('',*,*,#770,.F.);
#1075=ORIENTED_EDGE('',*,*,#697,.T.);
#1076=ORIENTED_EDGE('',*,*,#627,.T.);
#1077=ORIENTED_EDGE('',*,*,#696,.T.);
#1078=ORIENTED_EDGE('',*,*,#771,.F.);
#1079=ORIENTED_EDGE('',*,*,#775,.T.);
#1080=ORIENTED_EDGE('',*,*,#618,.T.);
#1081=ORIENTED_EDGE('',*,*,#776,.F.);
#1082=ORIENTED_EDGE('',*,*,#777,.F.);
#1083=ORIENTED_EDGE('',*,*,#778,.F.);
#1084=ORIENTED_EDGE('',*,*,#652,.T.);
#1085=ORIENTED_EDGE('',*,*,#704,.T.);
#1086=ORIENTED_EDGE('',*,*,#619,.T.);
#1087=ORIENTED_EDGE('',*,*,#778,.T.);
#1088=ORIENTED_EDGE('',*,*,#779,.F.);
#1089=ORIENTED_EDGE('',*,*,#780,.F.);
#1090=ORIENTED_EDGE('',*,*,#653,.T.);
#1091=ORIENTED_EDGE('',*,*,#780,.T.);
#1092=ORIENTED_EDGE('',*,*,#781,.F.);
#1093=ORIENTED_EDGE('',*,*,#782,.F.);
#1094=ORIENTED_EDGE('',*,*,#712,.T.);
#1095=ORIENTED_EDGE('',*,*,#706,.T.);
#1096=ORIENTED_EDGE('',*,*,#711,.T.);
#1097=ORIENTED_EDGE('',*,*,#714,.T.);
#1098=ORIENTED_EDGE('',*,*,#654,.T.);
#1099=ORIENTED_EDGE('',*,*,#782,.T.);
#1100=ORIENTED_EDGE('',*,*,#783,.F.);
#1101=ORIENTED_EDGE('',*,*,#784,.F.);
#1102=ORIENTED_EDGE('',*,*,#655,.T.);
#1103=ORIENTED_EDGE('',*,*,#784,.T.);
#1104=ORIENTED_EDGE('',*,*,#785,.F.);
#1105=ORIENTED_EDGE('',*,*,#786,.F.);
#1106=ORIENTED_EDGE('',*,*,#732,.T.);
#1107=ORIENTED_EDGE('',*,*,#734,.T.);
#1108=ORIENTED_EDGE('',*,*,#662,.T.);
#1109=ORIENTED_EDGE('',*,*,#735,.T.);
#1110=ORIENTED_EDGE('',*,*,#786,.T.);
#1111=ORIENTED_EDGE('',*,*,#787,.F.);
#1112=ORIENTED_EDGE('',*,*,#776,.T.);
#1113=ORIENTED_EDGE('',*,*,#787,.T.);
#1114=ORIENTED_EDGE('',*,*,#785,.T.);
#1115=ORIENTED_EDGE('',*,*,#783,.T.);
#1116=ORIENTED_EDGE('',*,*,#781,.T.);
#1117=ORIENTED_EDGE('',*,*,#779,.T.);
#1118=ORIENTED_EDGE('',*,*,#777,.T.);
#1119=ORIENTED_EDGE('',*,*,#742,.T.);
#1120=ORIENTED_EDGE('',*,*,#746,.T.);
#1121=ORIENTED_EDGE('',*,*,#749,.T.);
#1122=ORIENTED_EDGE('',*,*,#752,.T.);
#1123=ORIENTED_EDGE('',*,*,#754,.T.);
#1124=ORIENTED_EDGE('',*,*,#764,.T.);
#1125=ORIENTED_EDGE('',*,*,#761,.T.);
#1126=ORIENTED_EDGE('',*,*,#758,.T.);
#1127=ORIENTED_EDGE('',*,*,#774,.T.);
#1128=ORIENTED_EDGE('',*,*,#788,.T.);
#1129=ORIENTED_EDGE('',*,*,#665,.T.);
#1130=ORIENTED_EDGE('',*,*,#789,.T.);
#1131=ORIENTED_EDGE('',*,*,#788,.F.);
#1132=ORIENTED_EDGE('',*,*,#789,.F.);
#1133=ORIENTED_EDGE('',*,*,#769,.F.);
#1134=ORIENTED_EDGE('',*,*,#790,.T.);
#1135=ORIENTED_EDGE('',*,*,#664,.T.);
#1136=ORIENTED_EDGE('',*,*,#790,.F.);
#1137=PLANE('',#1265);
#1138=PLANE('',#1271);
#1139=PLANE('',#1274);
#1140=PLANE('',#1275);
#1141=PLANE('',#1276);
#1142=PLANE('',#1277);
#1143=PLANE('',#1279);
#1144=PLANE('',#1280);
#1145=PLANE('',#1281);
#1146=PLANE('',#1284);
#1147=PLANE('',#1287);
#1148=PLANE('',#1290);
#1149=PLANE('',#1293);
#1150=PLANE('',#1294);
#1151=PLANE('',#1295);
#1152=PLANE('',#1299);
#1153=PLANE('',#1301);
#1154=PLANE('',#1308);
#1155=PLANE('',#1311);
#1156=PLANE('',#1312);
#1157=PLANE('',#1313);
#1158=PLANE('',#1314);
#1159=PLANE('',#1315);
#1160=PLANE('',#1316);
#1161=PLANE('',#1317);
#1162=PLANE('',#1318);
#1163=PLANE('',#1319);
#1164=PLANE('',#1320);
#1165=PLANE('',#1327);
#1166=PLANE('',#1328);
#1167=PLANE('',#1329);
#1168=PLANE('',#1330);
#1169=PLANE('',#1331);
#1170=PLANE('',#1332);
#1171=PLANE('',#1333);
#1172=PLANE('',#1334);
#1173=PLANE('',#1335);
#1174=PLANE('',#1338);
#1175=PLANE('',#1340);
#1176=PLANE('',#1341);
#1177=PLANE('',#1342);
#1178=PLANE('',#1345);
#1179=PLANE('',#1346);
#1180=PLANE('',#1347);
#1181=PLANE('',#1348);
#1182=PLANE('',#1349);
#1183=PLANE('',#1350);
#1184=PLANE('',#1351);
#1185=PLANE('',#1352);
#1186=PLANE('',#1353);
#1187=ADVANCED_FACE('',(#44,#29),#1137,.F.);
#1188=ADVANCED_FACE('',(#45,#30),#1138,.F.);
#1189=ADVANCED_FACE('',(#46),#1139,.T.);
#1190=ADVANCED_FACE('',(#47),#1140,.T.);
#1191=ADVANCED_FACE('',(#48),#1141,.T.);
#1192=ADVANCED_FACE('',(#49),#1142,.F.);
#1193=ADVANCED_FACE('',(#50),#1143,.F.);
#1194=ADVANCED_FACE('',(#51),#1144,.F.);
#1195=ADVANCED_FACE('',(#52),#1145,.F.);
#1196=ADVANCED_FACE('',(#53),#15,.T.);
#1197=ADVANCED_FACE('',(#54),#1146,.T.);
#1198=ADVANCED_FACE('',(#55),#16,.T.);
#1199=ADVANCED_FACE('',(#56),#1147,.T.);
#1200=ADVANCED_FACE('',(#57),#17,.T.);
#1201=ADVANCED_FACE('',(#58),#1148,.T.);
#1202=ADVANCED_FACE('',(#59),#18,.T.);
#1203=ADVANCED_FACE('',(#60),#1149,.T.);
#1204=ADVANCED_FACE('',(#61),#1150,.F.);
#1205=ADVANCED_FACE('',(#62),#1151,.F.);
#1206=ADVANCED_FACE('',(#63),#19,.T.);
#1207=ADVANCED_FACE('',(#64),#1152,.T.);
#1208=ADVANCED_FACE('',(#65,#31),#1153,.F.);
#1209=ADVANCED_FACE('',(#66),#20,.F.);
#1210=ADVANCED_FACE('',(#67),#21,.T.);
#1211=ADVANCED_FACE('',(#68,#32),#1154,.T.);
#1212=ADVANCED_FACE('',(#69),#22,.T.);
#1213=ADVANCED_FACE('',(#70),#1155,.F.);
#1214=ADVANCED_FACE('',(#71),#1156,.T.);
#1215=ADVANCED_FACE('',(#72),#1157,.T.);
#1216=ADVANCED_FACE('',(#73),#1158,.F.);
#1217=ADVANCED_FACE('',(#74),#1159,.T.);
#1218=ADVANCED_FACE('',(#75),#1160,.T.);
#1219=ADVANCED_FACE('',(#76),#1161,.T.);
#1220=ADVANCED_FACE('',(#77),#1162,.T.);
#1221=ADVANCED_FACE('',(#78),#1163,.T.);
#1222=ADVANCED_FACE('',(#79),#1164,.F.);
#1223=ADVANCED_FACE('',(#80),#23,.F.);
#1224=ADVANCED_FACE('',(#81),#24,.F.);
#1225=ADVANCED_FACE('',(#82),#1165,.T.);
#1226=ADVANCED_FACE('',(#83,#33,#34),#1166,.T.);
#1227=ADVANCED_FACE('',(#84),#1167,.T.);
#1228=ADVANCED_FACE('',(#85,#35,#36),#1168,.T.);
#1229=ADVANCED_FACE('',(#86),#1169,.T.);
#1230=ADVANCED_FACE('',(#87),#1170,.F.);
#1231=ADVANCED_FACE('',(#88),#1171,.F.);
#1232=ADVANCED_FACE('',(#89),#1172,.F.);
#1233=ADVANCED_FACE('',(#90),#1173,.F.);
#1234=ADVANCED_FACE('',(#91),#25,.F.);
#1235=ADVANCED_FACE('',(#92,#37,#38),#1174,.F.);
#1236=ADVANCED_FACE('',(#93),#1175,.F.);
#1237=ADVANCED_FACE('',(#94),#1176,.F.);
#1238=ADVANCED_FACE('',(#95),#1177,.F.);
#1239=ADVANCED_FACE('',(#96),#26,.F.);
#1240=ADVANCED_FACE('',(#97),#1178,.T.);
#1241=ADVANCED_FACE('',(#98),#1179,.T.);
#1242=ADVANCED_FACE('',(#99),#1180,.T.);
#1243=ADVANCED_FACE('',(#100),#1181,.T.);
#1244=ADVANCED_FACE('',(#101,#39),#1182,.T.);
#1245=ADVANCED_FACE('',(#102),#1183,.T.);
#1246=ADVANCED_FACE('',(#103),#1184,.T.);
#1247=ADVANCED_FACE('',(#104),#1185,.T.);
#1248=ADVANCED_FACE('',(#105,#40,#41,#42,#43),#1186,.T.);
#1249=ADVANCED_FACE('',(#106),#27,.F.);
#1250=ADVANCED_FACE('',(#107),#28,.T.);
#1251=CLOSED_SHELL('',(#1187,#1188,#1189,#1190,#1191,#1192,#1193,#1194,
#1195,#1196,#1197,#1198,#1199,#1200,#1201,#1202,#1203,#1204,#1205,#1206,
#1207,#1208,#1209,#1210,#1211,#1212,#1213,#1214,#1215,#1216,#1217,#1218,
#1219,#1220,#1221,#1222,#1223,#1224,#1225,#1226,#1227,#1228,#1229,#1230,
#1231,#1232,#1233,#1234,#1235,#1236,#1237,#1238,#1239,#1240,#1241,#1242,
#1243,#1244,#1245,#1246,#1247,#1248,#1249,#1250));
#1252=DERIVED_UNIT_ELEMENT(#1254,1.);
#1253=DERIVED_UNIT_ELEMENT(#2044,-3.);
#1254=(
MASS_UNIT()
NAMED_UNIT(*)
SI_UNIT(.KILO.,.GRAM.)
);
#1255=DERIVED_UNIT((#1252,#1253));
#1256=MEASURE_REPRESENTATION_ITEM('density measure',
POSITIVE_RATIO_MEASURE(7850.),#1255);
#1257=PROPERTY_DEFINITION_REPRESENTATION(#1262,#1259);
#1258=PROPERTY_DEFINITION_REPRESENTATION(#1263,#1260);
#1259=REPRESENTATION('material name',(#1261),#2041);
#1260=REPRESENTATION('density',(#1256),#2041);
#1261=DESCRIPTIVE_REPRESENTATION_ITEM('Steel','Steel');
#1262=PROPERTY_DEFINITION('material property','material name',#2051);
#1263=PROPERTY_DEFINITION('material property','density of part',#2051);
#1264=AXIS2_PLACEMENT_3D('',#1688,#1357,#1358);
#1265=AXIS2_PLACEMENT_3D('',#1689,#1359,#1360);
#1266=AXIS2_PLACEMENT_3D('',#1708,#1369,#1370);
#1267=AXIS2_PLACEMENT_3D('',#1717,#1375,#1376);
#1268=AXIS2_PLACEMENT_3D('',#1721,#1378,#1379);
#1269=AXIS2_PLACEMENT_3D('',#1725,#1381,#1382);
#1270=AXIS2_PLACEMENT_3D('',#1780,#1410,#1411);
#1271=AXIS2_PLACEMENT_3D('',#1781,#1412,#1413);
#1272=AXIS2_PLACEMENT_3D('',#1783,#1414,#1415);
#1273=AXIS2_PLACEMENT_3D('',#1785,#1416,#1417);
#1274=AXIS2_PLACEMENT_3D('',#1786,#1418,#1419);
#1275=AXIS2_PLACEMENT_3D('',#1792,#1423,#1424);
#1276=AXIS2_PLACEMENT_3D('',#1796,#1427,#1428);
#1277=AXIS2_PLACEMENT_3D('',#1800,#1431,#1432);
#1278=AXIS2_PLACEMENT_3D('',#1804,#1435,#1436);
#1279=AXIS2_PLACEMENT_3D('',#1805,#1437,#1438);
#1280=AXIS2_PLACEMENT_3D('',#1809,#1441,#1442);
#1281=AXIS2_PLACEMENT_3D('',#1813,#1445,#1446);
#1282=AXIS2_PLACEMENT_3D('',#1817,#1449,#1450);
#1283=AXIS2_PLACEMENT_3D('',#1820,#1452,#1453);
#1284=AXIS2_PLACEMENT_3D('',#1821,#1454,#1455);
#1285=AXIS2_PLACEMENT_3D('',#1825,#1458,#1459);
#1286=AXIS2_PLACEMENT_3D('',#1828,#1461,#1462);
#1287=AXIS2_PLACEMENT_3D('',#1829,#1463,#1464);
#1288=AXIS2_PLACEMENT_3D('',#1833,#1467,#1468);
#1289=AXIS2_PLACEMENT_3D('',#1836,#1470,#1471);
#1290=AXIS2_PLACEMENT_3D('',#1837,#1472,#1473);
#1291=AXIS2_PLACEMENT_3D('',#1841,#1476,#1477);
#1292=AXIS2_PLACEMENT_3D('',#1845,#1479,#1480);
#1293=AXIS2_PLACEMENT_3D('',#1847,#1482,#1483);
#1294=AXIS2_PLACEMENT_3D('',#1851,#1486,#1487);
#1295=AXIS2_PLACEMENT_3D('',#1854,#1490,#1491);
#1296=AXIS2_PLACEMENT_3D('',#1858,#1494,#1495);
#1297=AXIS2_PLACEMENT_3D('',#1859,#1496,#1497);
#1298=AXIS2_PLACEMENT_3D('',#1860,#1498,#1499);
#1299=AXIS2_PLACEMENT_3D('',#1861,#1500,#1501);
#1300=AXIS2_PLACEMENT_3D('',#1862,#1502,#1503);
#1301=AXIS2_PLACEMENT_3D('',#1863,#1504,#1505);
#1302=AXIS2_PLACEMENT_3D('',#1867,#1507,#1508);
#1303=AXIS2_PLACEMENT_3D('',#1869,#1509,#1510);
#1304=AXIS2_PLACEMENT_3D('',#1870,#1511,#1512);
#1305=AXIS2_PLACEMENT_3D('',#1873,#1514,#1515);
#1306=AXIS2_PLACEMENT_3D('',#1874,#1516,#1517);
#1307=AXIS2_PLACEMENT_3D('',#1879,#1520,#1521);
#1308=AXIS2_PLACEMENT_3D('',#1880,#1522,#1523);
#1309=AXIS2_PLACEMENT_3D('',#1882,#1525,#1526);
#1310=AXIS2_PLACEMENT_3D('',#1883,#1527,#1528);
#1311=AXIS2_PLACEMENT_3D('',#1884,#1529,#1530);
#1312=AXIS2_PLACEMENT_3D('',#1885,#1531,#1532);
#1313=AXIS2_PLACEMENT_3D('',#1895,#1538,#1539);
#1314=AXIS2_PLACEMENT_3D('',#1899,#1542,#1543);
#1315=AXIS2_PLACEMENT_3D('',#1905,#1547,#1548);
#1316=AXIS2_PLACEMENT_3D('',#1911,#1552,#1553);
#1317=AXIS2_PLACEMENT_3D('',#1914,#1556,#1557);
#1318=AXIS2_PLACEMENT_3D('',#1915,#1558,#1559);
#1319=AXIS2_PLACEMENT_3D('',#1921,#1563,#1564);
#1320=AXIS2_PLACEMENT_3D('',#1923,#1566,#1567);
#1321=AXIS2_PLACEMENT_3D('',#1925,#1569,#1570);
#1322=AXIS2_PLACEMENT_3D('',#1927,#1571,#1572);
#1323=AXIS2_PLACEMENT_3D('',#1930,#1574,#1575);
#1324=AXIS2_PLACEMENT_3D('',#1931,#1576,#1577);
#1325=AXIS2_PLACEMENT_3D('',#1933,#1578,#1579);
#1326=AXIS2_PLACEMENT_3D('',#1936,#1581,#1582);
#1327=AXIS2_PLACEMENT_3D('',#1937,#1583,#1584);
#1328=AXIS2_PLACEMENT_3D('',#1946,#1589,#1590);
#1329=AXIS2_PLACEMENT_3D('',#1952,#1594,#1595);
#1330=AXIS2_PLACEMENT_3D('',#1958,#1599,#1600);
#1331=AXIS2_PLACEMENT_3D('',#1961,#1603,#1604);
#1332=AXIS2_PLACEMENT_3D('',#1962,#1605,#1606);
#1333=AXIS2_PLACEMENT_3D('',#1971,#1611,#1612);
#1334=AXIS2_PLACEMENT_3D('',#1977,#1616,#1617);
#1335=AXIS2_PLACEMENT_3D('',#1983,#1621,#1622);
#1336=AXIS2_PLACEMENT_3D('',#1986,#1625,#1626);
#1337=AXIS2_PLACEMENT_3D('',#1987,#1627,#1628);
#1338=AXIS2_PLACEMENT_3D('',#1988,#1629,#1630);
#1339=AXIS2_PLACEMENT_3D('',#1993,#1633,#1634);
#1340=AXIS2_PLACEMENT_3D('',#1994,#1635,#1636);
#1341=AXIS2_PLACEMENT_3D('',#1998,#1639,#1640);
#1342=AXIS2_PLACEMENT_3D('',#2000,#1642,#1643);
#1343=AXIS2_PLACEMENT_3D('',#2001,#1644,#1645);
#1344=AXIS2_PLACEMENT_3D('',#2004,#1647,#1648);
#1345=AXIS2_PLACEMENT_3D('',#2005,#1649,#1650);
#1346=AXIS2_PLACEMENT_3D('',#2007,#1652,#1653);
#1347=AXIS2_PLACEMENT_3D('',#2008,#1654,#1655);
#1348=AXIS2_PLACEMENT_3D('',#2014,#1659,#1660);
#1349=AXIS2_PLACEMENT_3D('',#2018,#1663,#1664);
#1350=AXIS2_PLACEMENT_3D('',#2022,#1667,#1668);
#1351=AXIS2_PLACEMENT_3D('',#2026,#1671,#1672);
#1352=AXIS2_PLACEMENT_3D('',#2030,#1675,#1676);
#1353=AXIS2_PLACEMENT_3D('',#2032,#1678,#1679);
#1354=AXIS2_PLACEMENT_3D('',#2034,#1680,#1681);
#1355=AXIS2_PLACEMENT_3D('',#2035,#1682,#1683);
#1356=AXIS2_PLACEMENT_3D('',#2037,#1685,#1686);
#1357=DIRECTION('axis',(0.,0.,1.));
#1358=DIRECTION('refdir',(1.,0.,0.));
#1359=DIRECTION('center_axis',(0.,0.,1.));
#1360=DIRECTION('ref_axis',(1.,0.,0.));
#1361=DIRECTION('',(1.,0.,0.));
#1362=DIRECTION('',(0.,-1.,0.));
#1363=DIRECTION('',(1.,0.,0.));
#1364=DIRECTION('',(0.,-1.,0.));
#1365=DIRECTION('',(-1.,0.,0.));
#1366=DIRECTION('',(0.,1.,0.));
#1367=DIRECTION('',(-1.,0.,0.));
#1368=DIRECTION('',(-0.499999999999999,0.866025403784439,0.));
#1369=DIRECTION('center_axis',(0.,0.,1.));
#1370=DIRECTION('ref_axis',(1.,0.,0.));
#1371=DIRECTION('',(1.,-2.19134751819802E-8,0.));
#1372=DIRECTION('',(0.514497742535215,-0.8574917334448,0.));
#1373=DIRECTION('',(0.,-1.,0.));
#1374=DIRECTION('',(-1.,0.,0.));
#1375=DIRECTION('center_axis',(0.,0.,1.));
#1376=DIRECTION('ref_axis',(0.707106781186551,0.707106781186544,0.));
#1377=DIRECTION('',(0.,1.,0.));
#1378=DIRECTION('center_axis',(0.,0.,1.));
#1379=DIRECTION('ref_axis',(0.707106773438961,-0.707106788934134,0.));
#1380=DIRECTION('',(1.,-2.19134751819802E-8,0.));
#1381=DIRECTION('center_axis',(0.,0.,1.));
#1382=DIRECTION('ref_axis',(1.,0.,0.));
#1383=DIRECTION('',(-0.499999999999999,0.866025403784439,0.));
#1384=DIRECTION('',(-1.,-9.95729896136709E-16,0.));
#1385=DIRECTION('',(0.,-1.,0.));
#1386=DIRECTION('',(1.,0.,0.));
#1387=DIRECTION('',(0.,-1.,0.));
#1388=DIRECTION('',(-1.,0.,0.));
#1389=DIRECTION('',(0.,-1.,0.));
#1390=DIRECTION('',(1.,0.,0.));
#1391=DIRECTION('',(0.,-1.,0.));
#1392=DIRECTION('',(-1.,0.,0.));
#1393=DIRECTION('',(0.,-1.,0.));
#1394=DIRECTION('',(1.,0.,0.));
#1395=DIRECTION('',(0.,1.,0.));
#1396=DIRECTION('',(1.,0.,0.));
#1397=DIRECTION('',(0.,-1.,0.));
#1398=DIRECTION('',(-1.,0.,0.));
#1399=DIRECTION('',(0.,-1.,0.));
#1400=DIRECTION('',(-1.,0.,0.));
#1401=DIRECTION('',(0.,1.,0.));
#1402=DIRECTION('',(1.,9.95729896136709E-16,0.));
#1403=DIRECTION('',(-1.38777878078144E-15,1.,0.));
#1404=DIRECTION('',(1.,1.58603289232166E-15,0.));
#1405=DIRECTION('',(1.38777878078144E-15,-1.,0.));
#1406=DIRECTION('',(-1.,0.,0.));
#1407=DIRECTION('',(0.,1.,0.));
#1408=DIRECTION('',(-1.,-1.38348285443961E-15,0.));
#1409=DIRECTION('',(0.499999999999999,-0.866025403784439,0.));
#1410=DIRECTION('center_axis',(0.,0.,-1.));
#1411=DIRECTION('ref_axis',(1.,0.,0.));
#1412=DIRECTION('center_axis',(0.,0.,1.));
#1413=DIRECTION('ref_axis',(1.,0.,0.));
#1414=DIRECTION('center_axis',(0.,0.,1.));
#1415=DIRECTION('ref_axis',(1.,0.,0.));
#1416=DIRECTION('center_axis',(0.,0.,-1.));
#1417=DIRECTION('ref_axis',(1.,0.,0.));
#1418=DIRECTION('center_axis',(0.,1.,0.));
#1419=DIRECTION('ref_axis',(-1.,0.,0.));
#1420=DIRECTION('',(0.,0.,1.));
#1421=DIRECTION('',(-1.,0.,0.));
#1422=DIRECTION('',(0.,0.,1.));
#1423=DIRECTION('center_axis',(-1.,0.,0.));
#1424=DIRECTION('ref_axis',(0.,-1.,0.));
#1425=DIRECTION('',(0.,0.,1.));
#1426=DIRECTION('',(0.,-1.,0.));
#1427=DIRECTION('center_axis',(0.,-1.,0.));
#1428=DIRECTION('ref_axis',(1.,0.,0.));
#1429=DIRECTION('',(0.,0.,-1.));
#1430=DIRECTION('',(1.,0.,0.));
#1431=DIRECTION('center_axis',(1.,0.,0.));
#1432=DIRECTION('ref_axis',(0.,1.,0.));
#1433=DIRECTION('',(0.,1.,0.));
#1434=DIRECTION('',(0.,0.,1.));
#1435=DIRECTION('center_axis',(1.,0.,0.));
#1436=DIRECTION('ref_axis',(0.,0.,-1.));
#1437=DIRECTION('center_axis',(1.,0.,0.));
#1438=DIRECTION('ref_axis',(0.,1.,0.));
#1439=DIRECTION('',(0.,0.,1.));
#1440=DIRECTION('',(0.,1.,0.));
#1441=DIRECTION('center_axis',(9.95729896136709E-16,-1.,0.));
#1442=DIRECTION('ref_axis',(1.,9.95729896136709E-16,0.));
#1443=DIRECTION('',(0.,0.,1.));
#1444=DIRECTION('',(1.,9.95729896136709E-16,0.));
#1445=DIRECTION('center_axis',(-0.866025403784439,-0.499999999999999,0.));
#1446=DIRECTION('ref_axis',(0.499999999999999,-0.866025403784439,0.));
#1447=DIRECTION('',(0.,0.,1.));
#1448=DIRECTION('',(0.499999999999999,-0.866025403784439,0.));
#1449=DIRECTION('center_axis',(0.,0.,1.));
#1450=DIRECTION('ref_axis',(1.,0.,0.));
#1451=DIRECTION('',(0.,0.,-1.));
#1452=DIRECTION('center_axis',(0.,0.,-1.));
#1453=DIRECTION('ref_axis',(1.,0.,0.));
#1454=DIRECTION('center_axis',(-2.19134751819802E-8,-1.,0.));
#1455=DIRECTION('ref_axis',(1.,-2.19134751819802E-8,0.));
#1456=DIRECTION('',(0.,0.,-1.));
#1457=DIRECTION('',(1.,-2.19134751819802E-8,0.));
#1458=DIRECTION('center_axis',(0.,0.,1.));
#1459=DIRECTION('ref_axis',(0.707106773438961,-0.707106788934134,0.));
#1460=DIRECTION('',(0.,0.,1.));
#1461=DIRECTION('center_axis',(0.,0.,-1.));
#1462=DIRECTION('ref_axis',(0.707106773438961,-0.707106788934134,0.));
#1463=DIRECTION('center_axis',(1.,0.,0.));
#1464=DIRECTION('ref_axis',(0.,1.,0.));
#1465=DIRECTION('',(0.,0.,-1.));
#1466=DIRECTION('',(0.,1.,0.));
#1467=DIRECTION('center_axis',(0.,0.,1.));
#1468=DIRECTION('ref_axis',(0.707106781186551,0.707106781186544,0.));
#1469=DIRECTION('',(0.,0.,1.));
#1470=DIRECTION('center_axis',(0.,0.,-1.));
#1471=DIRECTION('ref_axis',(0.707106781186551,0.707106781186544,0.));
#1472=DIRECTION('center_axis',(0.,1.,0.));
#1473=DIRECTION('ref_axis',(-1.,0.,0.));
#1474=DIRECTION('',(0.,0.,1.));
#1475=DIRECTION('',(-1.,0.,0.));
#1476=DIRECTION('center_axis',(0.,0.,1.));
#1477=DIRECTION('ref_axis',(-0.981529002922588,0.191313398437722,0.));
#1478=DIRECTION('',(0.,0.,-1.));
#1479=DIRECTION('center_axis',(0.,0.,-1.));
#1480=DIRECTION('ref_axis',(1.,0.,0.));
#1481=DIRECTION('',(0.,0.,1.));
#1482=DIRECTION('center_axis',(-1.,0.,0.));
#1483=DIRECTION('ref_axis',(0.,-1.,0.));
#1484=DIRECTION('',(0.,0.,-1.));
#1485=DIRECTION('',(0.,-1.,0.));
#1486=DIRECTION('center_axis',(-0.866025403784439,-0.499999999999999,0.));
#1487=DIRECTION('ref_axis',(0.499999999999999,-0.866025403784439,0.));
#1488=DIRECTION('',(0.,0.,-1.));
#1489=DIRECTION('',(0.499999999999999,-0.866025403784439,0.));
#1490=DIRECTION('center_axis',(0.,-1.,0.));
#1491=DIRECTION('ref_axis',(1.,0.,0.));
#1492=DIRECTION('',(0.,0.,1.));
#1493=DIRECTION('',(1.,0.,0.));
#1494=DIRECTION('center_axis',(-1.,0.,0.));
#1495=DIRECTION('ref_axis',(0.,0.,1.));
#1496=DIRECTION('center_axis',(-1.,0.,0.));
#1497=DIRECTION('ref_axis',(0.,0.,1.));
#1498=DIRECTION('center_axis',(1.,0.,0.));
#1499=DIRECTION('ref_axis',(0.,0.,1.));
#1500=DIRECTION('center_axis',(-1.,0.,0.));
#1501=DIRECTION('ref_axis',(0.,0.,1.));
#1502=DIRECTION('center_axis',(1.,0.,0.));
#1503=DIRECTION('ref_axis',(0.,0.,1.));
#1504=DIRECTION('center_axis',(0.,0.,1.));
#1505=DIRECTION('ref_axis',(1.,0.,0.));
#1506=DIRECTION('',(1.,0.,0.));
#1507=DIRECTION('center_axis',(0.,0.,-1.));
#1508=DIRECTION('ref_axis',(1.,0.,0.));
#1509=DIRECTION('center_axis',(0.,0.,1.));
#1510=DIRECTION('ref_axis',(1.,0.,0.));
#1511=DIRECTION('center_axis',(0.,0.,-1.));
#1512=DIRECTION('ref_axis',(1.,0.,0.));
#1513=DIRECTION('',(0.,0.,1.));
#1514=DIRECTION('center_axis',(0.,0.,-1.));
#1515=DIRECTION('ref_axis',(1.,0.,0.));
#1516=DIRECTION('center_axis',(0.,0.,-1.));
#1517=DIRECTION('ref_axis',(1.,0.,0.));
#1518=DIRECTION('',(0.,0.,1.));
#1519=DIRECTION('',(0.,0.,-1.));
#1520=DIRECTION('center_axis',(0.,0.,1.));
#1521=DIRECTION('ref_axis',(1.,0.,0.));
#1522=DIRECTION('center_axis',(0.,0.,1.));
#1523=DIRECTION('ref_axis',(1.,0.,0.));
#1524=DIRECTION('',(-1.,0.,0.));
#1525=DIRECTION('center_axis',(-1.,0.,0.));
#1526=DIRECTION('ref_axis',(0.,-1.22464679914735E-16,1.));
#1527=DIRECTION('center_axis',(-1.,0.,0.));
#1528=DIRECTION('ref_axis',(0.,0.,-1.));
#1529=DIRECTION('center_axis',(1.,0.,0.));
#1530=DIRECTION('ref_axis',(0.,0.,-1.));
#1531=DIRECTION('center_axis',(1.,0.,0.));
#1532=DIRECTION('ref_axis',(0.,0.,-1.));
#1533=DIRECTION('',(0.,0.,1.));
#1534=DIRECTION('',(0.,-1.,-1.11022316690025E-16));
#1535=DIRECTION('',(0.,0.,1.));
#1536=DIRECTION('',(0.,-1.,0.));
#1537=DIRECTION('',(0.,0.,1.));
#1538=DIRECTION('center_axis',(0.,1.,0.));
#1539=DIRECTION('ref_axis',(0.,0.,1.));
#1540=DIRECTION('',(0.,0.,1.));
#1541=DIRECTION('',(1.,0.,0.));
#1542=DIRECTION('center_axis',(1.38348285443961E-15,-1.,0.));
#1543=DIRECTION('ref_axis',(1.,1.38348285443961E-15,0.));
#1544=DIRECTION('',(1.,1.38348285443961E-15,0.));
#1545=DIRECTION('',(0.,0.,-1.));
#1546=DIRECTION('',(-1.,-1.38348285443961E-15,0.));
#1547=DIRECTION('center_axis',(0.,0.,1.));
#1548=DIRECTION('ref_axis',(-1.,-1.38348285443961E-15,0.));
#1549=DIRECTION('',(-1.,-1.38348285443961E-15,0.));
#1550=DIRECTION('',(1.58603289232166E-15,-1.,0.));
#1551=DIRECTION('',(1.58603289232166E-15,-1.,0.));
#1552=DIRECTION('center_axis',(1.58603289232166E-15,-1.,0.));
#1553=DIRECTION('ref_axis',(0.,0.,-1.));
#1554=DIRECTION('',(0.,0.,1.));
#1555=DIRECTION('',(0.,0.,-1.));
#1556=DIRECTION('center_axis',(-1.,-1.38777878078144E-15,0.));
#1557=DIRECTION('ref_axis',(0.,0.,-1.));
#1558=DIRECTION('center_axis',(0.,0.,1.));
#1559=DIRECTION('ref_axis',(-1.,-1.38348285443961E-15,0.));
#1560=DIRECTION('',(1.38777878078144E-15,-1.,0.));
#1561=DIRECTION('',(1.,9.95729896136709E-16,0.));
#1562=DIRECTION('',(1.,1.38348285443961E-15,0.));
#1563=DIRECTION('center_axis',(1.,1.38777878078144E-15,0.));
#1564=DIRECTION('ref_axis',(0.,0.,1.));
#1565=DIRECTION('',(0.,0.,-1.));
#1566=DIRECTION('center_axis',(1.38348285443961E-15,-1.,0.));
#1567=DIRECTION('ref_axis',(1.,1.38348285443961E-15,0.));
#1568=DIRECTION('',(0.,0.,-1.));
#1569=DIRECTION('center_axis',(-1.,0.,0.));
#1570=DIRECTION('ref_axis',(0.,0.,-1.));
#1571=DIRECTION('center_axis',(-1.,0.,0.));
#1572=DIRECTION('ref_axis',(0.,0.,-1.));
#1573=DIRECTION('',(-1.,0.,0.));
#1574=DIRECTION('center_axis',(1.,0.,0.));
#1575=DIRECTION('ref_axis',(0.,0.,-1.));
#1576=DIRECTION('center_axis',(-1.,0.,0.));
#1577=DIRECTION('ref_axis',(0.,0.,-1.));
#1578=DIRECTION('center_axis',(-1.,0.,0.));
#1579=DIRECTION('ref_axis',(0.,0.,-1.));
#1580=DIRECTION('',(-1.,0.,0.));
#1581=DIRECTION('center_axis',(1.,0.,0.));
#1582=DIRECTION('ref_axis',(0.,0.,-1.));
#1583=DIRECTION('center_axis',(0.,-1.,0.));
#1584=DIRECTION('ref_axis',(1.,0.,0.));
#1585=DIRECTION('',(-1.,0.,0.));
#1586=DIRECTION('',(0.,0.,1.));
#1587=DIRECTION('',(1.,0.,0.));
#1588=DIRECTION('',(0.,0.,1.));
#1589=DIRECTION('center_axis',(-1.,0.,0.));
#1590=DIRECTION('ref_axis',(0.,-1.,0.));
#1591=DIRECTION('',(0.,1.,0.));
#1592=DIRECTION('',(0.,-1.,0.));
#1593=DIRECTION('',(0.,0.,1.));
#1594=DIRECTION('center_axis',(0.,1.,0.));
#1595=DIRECTION('ref_axis',(-1.,0.,0.));
#1596=DIRECTION('',(1.,0.,0.));
#1597=DIRECTION('',(-1.,0.,0.));
#1598=DIRECTION('',(0.,0.,1.));
#1599=DIRECTION('center_axis',(1.,0.,0.));
#1600=DIRECTION('ref_axis',(0.,1.,0.));
#1601=DIRECTION('',(0.,-1.,0.));
#1602=DIRECTION('',(0.,1.,0.));
#1603=DIRECTION('center_axis',(0.,0.,1.));
#1604=DIRECTION('ref_axis',(1.,0.,0.));
#1605=DIRECTION('center_axis',(-5.79246795456603E-16,1.,0.));
#1606=DIRECTION('ref_axis',(1.,5.79246795456603E-16,0.));
#1607=DIRECTION('',(1.,5.79246795456603E-16,0.));
#1608=DIRECTION('',(0.,0.,-1.));
#1609=DIRECTION('',(-1.,-5.79246795456603E-16,0.));
#1610=DIRECTION('',(0.,0.,-1.));
#1611=DIRECTION('center_axis',(-1.,6.34413156928661E-16,0.));
#1612=DIRECTION('ref_axis',(6.34413156928661E-16,1.,0.));
#1613=DIRECTION('',(6.34413156928661E-16,1.,0.));
#1614=DIRECTION('',(0.,0.,-1.));
#1615=DIRECTION('',(-6.34413156928661E-16,-1.,0.));
#1616=DIRECTION('center_axis',(0.,-1.,0.));
#1617=DIRECTION('ref_axis',(-1.,0.,0.));
#1618=DIRECTION('',(-1.,0.,0.));
#1619=DIRECTION('',(0.,0.,-1.));
#1620=DIRECTION('',(1.,0.,0.));
#1621=DIRECTION('center_axis',(1.,0.,0.));
#1622=DIRECTION('ref_axis',(0.,-1.,0.));
#1623=DIRECTION('',(0.,-1.,0.));
#1624=DIRECTION('',(0.,1.,0.));
#1625=DIRECTION('center_axis',(1.,0.,0.));
#1626=DIRECTION('ref_axis',(0.,-1.,0.));
#1627=DIRECTION('center_axis',(-1.,0.,0.));
#1628=DIRECTION('ref_axis',(0.,-1.,0.));
#1629=DIRECTION('center_axis',(0.,0.,1.));
#1630=DIRECTION('ref_axis',(1.,0.,0.));
#1631=DIRECTION('',(0.,-1.,0.));
#1632=DIRECTION('',(-1.,0.,0.));
#1633=DIRECTION('center_axis',(0.,0.,-1.));
#1634=DIRECTION('ref_axis',(1.,0.,0.));
#1635=DIRECTION('center_axis',(0.,0.,1.));
#1636=DIRECTION('ref_axis',(1.,0.,0.));
#1637=DIRECTION('',(0.514497742535215,-0.8574917334448,0.));
#1638=DIRECTION('',(1.,-2.19134751819802E-8,0.));
#1639=DIRECTION('center_axis',(0.,1.,0.));
#1640=DIRECTION('ref_axis',(-1.,0.,0.));
#1641=DIRECTION('',(0.,0.,1.));
#1642=DIRECTION('center_axis',(-1.,0.,0.));
#1643=DIRECTION('ref_axis',(0.,-1.,0.));
#1644=DIRECTION('center_axis',(0.,0.,1.));
#1645=DIRECTION('ref_axis',(1.,0.,0.));
#1646=DIRECTION('',(0.,0.,1.));
#1647=DIRECTION('center_axis',(0.,0.,-1.));
#1648=DIRECTION('ref_axis',(1.,0.,0.));
#1649=DIRECTION('center_axis',(-0.8574917334448,-0.514497742535215,0.));
#1650=DIRECTION('ref_axis',(0.514497742535215,-0.8574917334448,0.));
#1651=DIRECTION('',(0.,0.,-1.));
#1652=DIRECTION('center_axis',(-2.19134751819802E-8,-1.,0.));
#1653=DIRECTION('ref_axis',(1.,-2.19134751819802E-8,0.));
#1654=DIRECTION('center_axis',(0.,-1.,0.));
#1655=DIRECTION('ref_axis',(1.,0.,0.));
#1656=DIRECTION('',(0.,0.,-1.));
#1657=DIRECTION('',(-1.,0.,0.));
#1658=DIRECTION('',(0.,0.,-1.));
#1659=DIRECTION('center_axis',(-1.,0.,0.));
#1660=DIRECTION('ref_axis',(0.,-1.,0.));
#1661=DIRECTION('',(0.,1.,0.));
#1662=DIRECTION('',(0.,0.,-1.));
#1663=DIRECTION('center_axis',(0.,1.,0.));
#1664=DIRECTION('ref_axis',(-1.,0.,0.));
#1665=DIRECTION('',(1.,0.,0.));
#1666=DIRECTION('',(0.,0.,-1.));
#1667=DIRECTION('center_axis',(1.,0.,0.));
#1668=DIRECTION('ref_axis',(0.,1.,0.));
#1669=DIRECTION('',(0.,-1.,0.));
#1670=DIRECTION('',(0.,0.,-1.));
#1671=DIRECTION('center_axis',(9.95729896136709E-16,-1.,0.));
#1672=DIRECTION('ref_axis',(1.,9.95729896136709E-16,0.));
#1673=DIRECTION('',(-1.,-9.95729896136709E-16,0.));
#1674=DIRECTION('',(0.,0.,-1.));
#1675=DIRECTION('center_axis',(-0.866025403784439,-0.499999999999999,0.));
#1676=DIRECTION('ref_axis',(0.499999999999999,-0.866025403784439,0.));
#1677=DIRECTION('',(-0.499999999999999,0.866025403784439,0.));
#1678=DIRECTION('center_axis',(0.,0.,1.));
#1679=DIRECTION('ref_axis',(1.,0.,0.));
#1680=DIRECTION('center_axis',(0.,0.,-1.));
#1681=DIRECTION('ref_axis',(1.,0.,0.));
#1682=DIRECTION('center_axis',(0.,0.,1.));
#1683=DIRECTION('ref_axis',(1.,0.,0.));
#1684=DIRECTION('',(0.,0.,1.));
#1685=DIRECTION('center_axis',(0.,0.,1.));
#1686=DIRECTION('ref_axis',(1.,0.,0.));
#1687=DIRECTION('',(0.,0.,-1.));
#1688=CARTESIAN_POINT('',(0.,0.,0.));
#1689=CARTESIAN_POINT('Origin',(-30.,-20.0210231277042,0.));
#1690=CARTESIAN_POINT('',(-57.,-15.,0.));
#1691=CARTESIAN_POINT('',(-54.1547005383792,-15.,0.));
#1692=CARTESIAN_POINT('',(-42.5,-15.,0.));
#1693=CARTESIAN_POINT('',(-57.,-11.,0.));
#1694=CARTESIAN_POINT('',(-57.,-10.0105115638521,0.));
#1695=CARTESIAN_POINT('',(-62.,-11.,0.));
#1696=CARTESIAN_POINT('',(-57.,-11.,0.));
#1697=CARTESIAN_POINT('',(-62.,-10.5,0.));
#1698=CARTESIAN_POINT('',(-62.,-13.2605115638521,0.));
#1699=CARTESIAN_POINT('',(-55.,-10.5,0.));
#1700=CARTESIAN_POINT('',(-55.9,-10.5,0.));
#1701=CARTESIAN_POINT('',(-55.,-13.,0.));
#1702=CARTESIAN_POINT('',(-55.,-10.0105115638521,0.));
#1703=CARTESIAN_POINT('',(-53.,-13.,0.));
#1704=CARTESIAN_POINT('',(-42.5,-13.,0.));
#1705=CARTESIAN_POINT('',(-51.1176269559495,-16.2603657510936,0.));
#1706=CARTESIAN_POINT('',(-48.6049039027125,-20.6125297446496,0.));
#1707=CARTESIAN_POINT('',(-50.6770507769905,-13.9999997695349,0.));
#1708=CARTESIAN_POINT('Origin',(-49.,-15.5,0.));
#1709=CARTESIAN_POINT('',(-52.3999982699752,-13.9999997317791,0.));
#1710=CARTESIAN_POINT('',(-41.1999990690168,-13.99999997721,0.));
#1711=CARTESIAN_POINT('',(-48.4071009533116,-20.6547936375048,0.));
#1712=CARTESIAN_POINT('',(-53.0000011622906,-12.5000001639128,0.));
#1713=CARTESIAN_POINT('',(-53.0000011622906,-16.2605116458085,0.));
#1714=CARTESIAN_POINT('',(-43.5000011622906,-12.5000001639128,0.));
#1715=CARTESIAN_POINT('',(-36.5000005811453,-12.5000001639128,0.));
#1716=CARTESIAN_POINT('',(-43.0000011622906,-13.0000001639128,0.));
#1717=CARTESIAN_POINT('Origin',(-43.5000011622906,-13.0000001639128,0.));
#1718=CARTESIAN_POINT('',(-43.0000011622906,-13.499999926809,0.));
#1719=CARTESIAN_POINT('',(-43.0000011622906,-17.010511532735,0.));
#1720=CARTESIAN_POINT('',(-43.5000011732473,-13.999999926809,0.));
#1721=CARTESIAN_POINT('Origin',(-43.5000011622906,-13.499999926809,0.));
#1722=CARTESIAN_POINT('',(-47.322949157269,-13.9999998430349,0.));
#1723=CARTESIAN_POINT('',(-41.1999990690168,-13.99999997721,0.));
#1724=CARTESIAN_POINT('',(-50.7173095345894,-16.9537358640441,0.));
#1725=CARTESIAN_POINT('Origin',(-49.,-15.5,0.));
#1726=CARTESIAN_POINT('',(-35.6794919243113,-43.,0.));
#1727=CARTESIAN_POINT('',(-48.6049039027125,-20.6125297446496,0.));
#1728=CARTESIAN_POINT('',(0.,-43.,0.));
#1729=CARTESIAN_POINT('',(-32.8397459621556,-43.,0.));
#1730=CARTESIAN_POINT('',(0.,-14.0000002086163,0.));
#1731=CARTESIAN_POINT('',(0.,-31.5105115638521,0.));
#1732=CARTESIAN_POINT('',(-5.,-14.0000002086163,0.));
#1733=CARTESIAN_POINT('',(-17.5,-14.0000002086163,0.));
#1734=CARTESIAN_POINT('',(-5.,-13.,0.));
#1735=CARTESIAN_POINT('',(-5.,-16.5105115638521,0.));
#1736=CARTESIAN_POINT('',(0.,-13.,0.));
#1737=CARTESIAN_POINT('',(-15.,-13.,0.));
#1738=CARTESIAN_POINT('',(0.,-7.5,0.));
#1739=CARTESIAN_POINT('',(0.,-31.5105115638521,0.));
#1740=CARTESIAN_POINT('',(-2.,-7.5,0.));
#1741=CARTESIAN_POINT('',(2.,-7.5,0.));
#1742=CARTESIAN_POINT('',(-2.,-3.5,0.));
#1743=CARTESIAN_POINT('',(-2.,-12.7605115638521,0.));
#1744=CARTESIAN_POINT('',(0.,-3.5,0.));
#1745=CARTESIAN_POINT('',(2.,-3.5,0.));
#1746=CARTESIAN_POINT('',(0.,0.,0.));
#1747=CARTESIAN_POINT('',(0.,-31.5105115638521,0.));
#1748=CARTESIAN_POINT('',(-55.,0.,0.));
#1749=CARTESIAN_POINT('',(-15.,0.,0.));
#1750=CARTESIAN_POINT('',(-55.,-2.5,-4.89858719658941E-16));
#1751=CARTESIAN_POINT('',(-55.,-10.0105115638521,0.));
#1752=CARTESIAN_POINT('',(-62.,-2.5,0.));
#1753=CARTESIAN_POINT('',(-55.9,-2.5,0.));
#1754=CARTESIAN_POINT('',(-62.,-2.,0.));
#1755=CARTESIAN_POINT('',(-62.,-13.2605115638521,0.));
#1756=CARTESIAN_POINT('',(-57.,-2.,0.));
#1757=CARTESIAN_POINT('',(-57.,-2.,0.));
#1758=CARTESIAN_POINT('',(-57.,2.,0.));
#1759=CARTESIAN_POINT('',(-57.,-10.0105115638521,0.));
#1760=CARTESIAN_POINT('',(2.,2.,0.));
#1761=CARTESIAN_POINT('',(-15.,2.,0.));
#1762=CARTESIAN_POINT('',(2.,-45.,0.));
#1763=CARTESIAN_POINT('',(2.,-31.5105115638521,0.));
#1764=CARTESIAN_POINT('',(-8.83419246269051,-45.,0.));
#1765=CARTESIAN_POINT('',(-32.8397459621556,-45.,0.));
#1766=CARTESIAN_POINT('',(-8.8341924626905,-48.,0.));
#1767=CARTESIAN_POINT('',(-8.83419246269052,-32.5105115638521,0.));
#1768=CARTESIAN_POINT('',(-58.8341924626905,-48.,0.));
#1769=CARTESIAN_POINT('',(-31.9170962313452,-48.,0.));
#1770=CARTESIAN_POINT('',(-58.8341924626906,-43.0000006407499,0.));
#1771=CARTESIAN_POINT('',(-58.8341924626905,-32.5105115638522,0.));
#1772=CARTESIAN_POINT('',(-57.8341924626906,-43.0000006407499,0.));
#1773=CARTESIAN_POINT('',(-44.4170962313453,-43.0000006407499,0.));
#1774=CARTESIAN_POINT('',(-57.8341924626906,-45.,0.));
#1775=CARTESIAN_POINT('',(-57.8341924626906,-32.7605117240396,0.));
#1776=CARTESIAN_POINT('',(-36.8341924626905,-45.,0.));
#1777=CARTESIAN_POINT('',(-31.9170962313452,-45.,0.));
#1778=CARTESIAN_POINT('',(-50.3369547102814,-21.6125297446496,0.));
#1779=CARTESIAN_POINT('',(-50.25,-15.5,0.));
#1780=CARTESIAN_POINT('Origin',(-49.,-15.5,0.));
#1781=CARTESIAN_POINT('Origin',(-30.,-20.0210231277042,0.));
#1782=CARTESIAN_POINT('',(-10.25,-38.,0.));
#1783=CARTESIAN_POINT('Origin',(-8.,-38.,0.));
#1784=CARTESIAN_POINT('',(-9.25,-38.,0.));
#1785=CARTESIAN_POINT('Origin',(-8.,-38.,0.));
#1786=CARTESIAN_POINT('Origin',(0.,-13.,0.));
#1787=CARTESIAN_POINT('',(-5.,-13.,8.));
#1788=CARTESIAN_POINT('',(-5.,-13.,0.));
#1789=CARTESIAN_POINT('',(0.,-13.,8.));
#1790=CARTESIAN_POINT('',(0.,-13.,8.));
#1791=CARTESIAN_POINT('',(0.,-13.,0.));
#1792=CARTESIAN_POINT('Origin',(-5.,-13.,0.));
#1793=CARTESIAN_POINT('',(-5.,-14.0000002086163,8.));
#1794=CARTESIAN_POINT('',(-5.,-14.0000002086163,0.));
#1795=CARTESIAN_POINT('',(-5.,-13.,8.));
#1796=CARTESIAN_POINT('Origin',(-5.,-14.0000002086163,0.));
#1797=CARTESIAN_POINT('',(0.,-14.0000002086163,8.));
#1798=CARTESIAN_POINT('',(0.,-14.0000002086163,0.));
#1799=CARTESIAN_POINT('',(-5.,-14.0000002086163,8.));
#1800=CARTESIAN_POINT('Origin',(0.,-43.,0.));
#1801=CARTESIAN_POINT('',(0.,0.,8.));
#1802=CARTESIAN_POINT('',(0.,-32.25,8.));
#1803=CARTESIAN_POINT('',(0.,0.,0.));
#1804=CARTESIAN_POINT('Origin',(0.,-5.5,2.1));
#1805=CARTESIAN_POINT('Origin',(0.,-43.,0.));
#1806=CARTESIAN_POINT('',(0.,-43.,8.));
#1807=CARTESIAN_POINT('',(0.,-43.,0.));
#1808=CARTESIAN_POINT('',(0.,-32.25,8.));
#1809=CARTESIAN_POINT('Origin',(-35.6794919243113,-43.,0.));
#1810=CARTESIAN_POINT('',(-35.6794919243113,-43.,8.));
#1811=CARTESIAN_POINT('',(-35.6794919243113,-43.,0.));
#1812=CARTESIAN_POINT('',(-31.5897459621556,-43.,8.));
#1813=CARTESIAN_POINT('Origin',(-53.,-13.,0.));
#1814=CARTESIAN_POINT('',(-50.7173095345894,-16.9537358640441,8.));
#1815=CARTESIAN_POINT('',(-50.7173095345894,-16.9537358640441,0.));
#1816=CARTESIAN_POINT('',(-47.9721960169581,-21.7084119491258,8.));
#1817=CARTESIAN_POINT('Origin',(-49.,-15.5,0.));
#1818=CARTESIAN_POINT('',(-47.322949157269,-13.9999998430349,8.));
#1819=CARTESIAN_POINT('',(-47.322949157269,-13.9999998430349,0.));
#1820=CARTESIAN_POINT('Origin',(-49.,-15.5,8.));
#1821=CARTESIAN_POINT('Origin',(-52.3999982699752,-13.9999997317791,0.));
#1822=CARTESIAN_POINT('',(-43.5000011732473,-13.999999926809,8.));
#1823=CARTESIAN_POINT('',(-43.5000011732473,-13.999999926809,0.));
#1824=CARTESIAN_POINT('',(-52.3999982699752,-13.9999997317791,8.));
#1825=CARTESIAN_POINT('Origin',(-43.5000011622906,-13.499999926809,0.));
#1826=CARTESIAN_POINT('',(-43.0000011622906,-13.499999926809,8.));
#1827=CARTESIAN_POINT('',(-43.0000011622906,-13.499999926809,0.));
#1828=CARTESIAN_POINT('Origin',(-43.5000011622906,-13.499999926809,8.));
#1829=CARTESIAN_POINT('Origin',(-43.0000011622906,-13.9999999377657,0.));
#1830=CARTESIAN_POINT('',(-43.0000011622906,-13.0000001639128,8.));
#1831=CARTESIAN_POINT('',(-43.0000011622906,-13.0000001639128,0.));
#1832=CARTESIAN_POINT('',(-43.0000011622906,-12.5000001639128,8.));
#1833=CARTESIAN_POINT('Origin',(-43.5000011622906,-13.0000001639128,0.));
#1834=CARTESIAN_POINT('',(-43.5000011622906,-12.5000001639128,8.));
#1835=CARTESIAN_POINT('',(-43.5000011622906,-12.5000001639128,0.));
#1836=CARTESIAN_POINT('Origin',(-43.5000011622906,-13.0000001639128,8.));
#1837=CARTESIAN_POINT('Origin',(-43.0000011622906,-12.5000001639128,0.));
#1838=CARTESIAN_POINT('',(-53.0000011622906,-12.5000001639128,8.));
#1839=CARTESIAN_POINT('',(-53.0000011622906,-12.5000001639128,0.));
#1840=CARTESIAN_POINT('',(-53.0000011622906,-12.5000001639128,8.));
#1841=CARTESIAN_POINT('Origin',(-49.,-15.5,0.));
#1842=CARTESIAN_POINT('',(-51.1176269559495,-16.2603657510936,8.));
#1843=CARTESIAN_POINT('',(-51.1176269559495,-16.2603657510936,0.));
#1844=CARTESIAN_POINT('',(-50.6770507769905,-13.9999997695349,8.));
#1845=CARTESIAN_POINT('Origin',(-49.,-15.5,8.));
#1846=CARTESIAN_POINT('',(-50.6770507769905,-13.9999997695349,0.));
#1847=CARTESIAN_POINT('Origin',(-53.0000011622906,-12.5000001639128,0.));
#1848=CARTESIAN_POINT('',(-53.0000011622906,-13.0000001639128,8.));
#1849=CARTESIAN_POINT('',(-53.,-13.,0.));
#1850=CARTESIAN_POINT('',(-53.0000011622906,-13.0000001639128,8.));
#1851=CARTESIAN_POINT('Origin',(-53.,-13.,0.));
#1852=CARTESIAN_POINT('',(-53.,-13.,0.));
#1853=CARTESIAN_POINT('',(-47.9721960169581,-21.7084119491258,8.));
#1854=CARTESIAN_POINT('Origin',(-55.,-13.,0.));
#1855=CARTESIAN_POINT('',(-55.,-13.,8.));
#1856=CARTESIAN_POINT('',(-55.,-13.,0.));
#1857=CARTESIAN_POINT('',(-41.25,-13.,8.));
#1858=CARTESIAN_POINT('Origin',(-57.,-6.5,0.));
#1859=CARTESIAN_POINT('Origin',(-62.,-6.5,0.));
#1860=CARTESIAN_POINT('Origin',(-57.,-6.5,0.));
#1861=CARTESIAN_POINT('Origin',(-62.,-6.5,0.));
#1862=CARTESIAN_POINT('Origin',(-62.,-6.5,0.));
#1863=CARTESIAN_POINT('Origin',(-26.,4.9579537445916,6.));
#1864=CARTESIAN_POINT('',(-31.9998526742251,2.,6.));
#1865=CARTESIAN_POINT('',(-20.0001473257749,2.,6.));
#1866=CARTESIAN_POINT('',(-13.,2.,6.));
#1867=CARTESIAN_POINT('Origin',(-26.,1.9579537445916,6.));
#1868=CARTESIAN_POINT('',(-27.25,4.9579537445916,6.));
#1869=CARTESIAN_POINT('Origin',(-26.,4.9579537445916,6.));
#1870=CARTESIAN_POINT('Origin',(-26.,4.9579537445916,8.));
#1871=CARTESIAN_POINT('',(-27.25,4.9579537445916,8.));
#1872=CARTESIAN_POINT('',(-27.25,4.9579537445916,8.));
#1873=CARTESIAN_POINT('Origin',(-26.,4.9579537445916,8.));
#1874=CARTESIAN_POINT('Origin',(-26.,1.9579537445916,8.));
#1875=CARTESIAN_POINT('',(-20.0001473257749,2.,8.));
#1876=CARTESIAN_POINT('',(-20.0001473257749,2.,8.));
#1877=CARTESIAN_POINT('',(-31.9998526742251,2.,8.));
#1878=CARTESIAN_POINT('',(-31.9998526742251,2.,8.));
#1879=CARTESIAN_POINT('Origin',(-26.,1.9579537445916,8.));
#1880=CARTESIAN_POINT('Origin',(-26.,4.9579537445916,8.));
#1881=CARTESIAN_POINT('',(-13.,2.,8.));
#1882=CARTESIAN_POINT('Origin',(2.,-5.5,2.1));
#1883=CARTESIAN_POINT('Origin',(-2.,-5.5,2.1));
#1884=CARTESIAN_POINT('Origin',(-2.,-5.5,2.1));
#1885=CARTESIAN_POINT('Origin',(-57.8341924626906,-45.500000320375,-0.100000037252903));
#1886=CARTESIAN_POINT('',(-57.8341924626906,-43.0000006407499,4.8));
#1887=CARTESIAN_POINT('',(-57.8341924626906,-43.0000006407499,-5.00000007450581));
#1888=CARTESIAN_POINT('',(-57.8341924626906,-46.6,4.8));
#1889=CARTESIAN_POINT('',(-57.8341924626906,-43.0000006407499,4.8));
#1890=CARTESIAN_POINT('',(-57.8341924626906,-46.6,0.85));
#1891=CARTESIAN_POINT('',(-57.8341924626906,-46.6,-0.0500000186264515));
#1892=CARTESIAN_POINT('',(-57.8341924626906,-45.,0.85));
#1893=CARTESIAN_POINT('',(-57.8341924626906,-45.2500001601875,0.85));
#1894=CARTESIAN_POINT('',(-57.8341924626906,-45.,-0.0500000186264515));
#1895=CARTESIAN_POINT('Origin',(-58.8341924626906,-43.0000006407499,-5.00000007450581));
#1896=CARTESIAN_POINT('',(-58.8341924626906,-43.0000006407499,4.8));
#1897=CARTESIAN_POINT('',(-58.8341924626906,-43.0000006407499,-5.00000007450581));
#1898=CARTESIAN_POINT('',(-58.8341924626906,-43.0000006407499,4.8));
#1899=CARTESIAN_POINT('Origin',(-33.8341924626905,-46.6,0.));
#1900=CARTESIAN_POINT('',(-8.8341924626905,-46.6,4.8));
#1901=CARTESIAN_POINT('',(-58.8341924626905,-46.6,4.8));
#1902=CARTESIAN_POINT('',(-8.8341924626905,-46.6,0.85));
#1903=CARTESIAN_POINT('',(-8.8341924626905,-46.6,4.8));
#1904=CARTESIAN_POINT('',(-58.8341924626905,-46.6,0.85));
#1905=CARTESIAN_POINT('Origin',(-8.8341924626905,-46.6,4.8));
#1906=CARTESIAN_POINT('',(-8.8341924626905,-48.,4.8));
#1907=CARTESIAN_POINT('',(-58.8341924626905,-48.,4.8));
#1908=CARTESIAN_POINT('',(-58.8341924626905,-48.,4.8));
#1909=CARTESIAN_POINT('',(-8.8341924626905,-46.6,4.8));
#1910=CARTESIAN_POINT('',(-58.8341924626905,-46.6,4.8));
#1911=CARTESIAN_POINT('Origin',(-33.8341924626905,-48.,0.));
#1912=CARTESIAN_POINT('',(-8.8341924626905,-48.,4.8));
#1913=CARTESIAN_POINT('',(-58.8341924626905,-48.,-4.8));
#1914=CARTESIAN_POINT('Origin',(-58.8341924626905,-45.,0.85));
#1915=CARTESIAN_POINT('Origin',(-8.8341924626905,-45.,0.85));
#1916=CARTESIAN_POINT('',(-8.83419246269051,-45.,0.85));
#1917=CARTESIAN_POINT('',(-8.83419246269051,-45.,0.85));
#1918=CARTESIAN_POINT('',(-36.8341924626905,-45.,0.85));
#1919=CARTESIAN_POINT('',(-22.2568421935009,-45.,0.85));
#1920=CARTESIAN_POINT('',(-58.8341924626905,-45.,0.85));
#1921=CARTESIAN_POINT('Origin',(-8.83419246269051,-45.,-0.85));
#1922=CARTESIAN_POINT('',(-8.83419246269051,-45.,-0.425));
#1923=CARTESIAN_POINT('Origin',(-33.8341924626905,-45.,0.));
#1924=CARTESIAN_POINT('',(-36.8341924626905,-45.,0.));
#1925=CARTESIAN_POINT('Origin',(-25.35,-15.,20.));
#1926=CARTESIAN_POINT('',(-25.35,-15.,21.25));
#1927=CARTESIAN_POINT('Origin',(-25.35,-15.,20.));
#1928=CARTESIAN_POINT('',(-27.35,-15.,21.25));
#1929=CARTESIAN_POINT('',(-25.35,-15.,21.25));
#1930=CARTESIAN_POINT('Origin',(-27.3500000298023,-15.,20.));
#1931=CARTESIAN_POINT('Origin',(-25.35,-33.5,20.));
#1932=CARTESIAN_POINT('',(-25.35,-33.5,21.25));
#1933=CARTESIAN_POINT('Origin',(-25.35,-33.5,20.));
#1934=CARTESIAN_POINT('',(-27.35,-33.5,21.25));
#1935=CARTESIAN_POINT('',(-25.35,-33.5,21.25));
#1936=CARTESIAN_POINT('Origin',(-27.3500000298023,-33.5,20.));
#1937=CARTESIAN_POINT('Origin',(-27.3500000298023,-37.25,10.));
#1938=CARTESIAN_POINT('',(-25.35,-37.25,10.));
#1939=CARTESIAN_POINT('',(-27.3500000298023,-37.25,10.));
#1940=CARTESIAN_POINT('',(-27.4250000149012,-37.25,10.));
#1941=CARTESIAN_POINT('',(-25.35,-37.25,30.));
#1942=CARTESIAN_POINT('',(-25.35,-37.25,10.));
#1943=CARTESIAN_POINT('',(-27.3500000298023,-37.25,30.));
#1944=CARTESIAN_POINT('',(-27.3500000298023,-37.25,30.));
#1945=CARTESIAN_POINT('',(-27.3500000298023,-37.25,10.));
#1946=CARTESIAN_POINT('Origin',(-27.3500000298023,-11.25,10.));
#1947=CARTESIAN_POINT('',(-27.3500000298023,-11.25,10.));
#1948=CARTESIAN_POINT('',(-27.3500000298023,-16.375,10.));
#1949=CARTESIAN_POINT('',(-27.3500000298023,-11.25,30.));
#1950=CARTESIAN_POINT('',(-27.3500000298023,-11.25,30.));
#1951=CARTESIAN_POINT('',(-27.3500000298023,-11.25,10.));
#1952=CARTESIAN_POINT('Origin',(-25.35,-11.25,10.));
#1953=CARTESIAN_POINT('',(-25.35,-11.25,10.));
#1954=CARTESIAN_POINT('',(-26.425,-11.25,10.));
#1955=CARTESIAN_POINT('',(-25.35,-11.25,30.));
#1956=CARTESIAN_POINT('',(-25.35,-11.25,30.));
#1957=CARTESIAN_POINT('',(-25.35,-11.25,10.));
#1958=CARTESIAN_POINT('Origin',(-25.35,-37.25,10.));
#1959=CARTESIAN_POINT('',(-25.35,-29.375,10.));
#1960=CARTESIAN_POINT('',(-25.35,-37.25,30.));
#1961=CARTESIAN_POINT('Origin',(-26.3500000149012,-24.25,30.));
#1962=CARTESIAN_POINT('Origin',(-24.75,-17.25,10.));
#1963=CARTESIAN_POINT('',(-24.75,-17.25,10.));
#1964=CARTESIAN_POINT('',(-13.25,-17.25,10.));
#1965=CARTESIAN_POINT('',(-26.125,-17.25,10.));
#1966=CARTESIAN_POINT('',(-24.75,-17.25,8.));
#1967=CARTESIAN_POINT('',(-24.75,-17.25,10.));
#1968=CARTESIAN_POINT('',(-13.25,-17.25,8.));
#1969=CARTESIAN_POINT('',(-26.125,-17.25,8.));
#1970=CARTESIAN_POINT('',(-13.25,-17.25,10.));
#1971=CARTESIAN_POINT('Origin',(-24.75,-31.25,10.));
#1972=CARTESIAN_POINT('',(-24.75,-31.25,10.));
#1973=CARTESIAN_POINT('',(-24.75,-26.375,10.));
#1974=CARTESIAN_POINT('',(-24.75,-31.25,8.));
#1975=CARTESIAN_POINT('',(-24.75,-31.25,10.));
#1976=CARTESIAN_POINT('',(-24.75,-26.375,8.));
#1977=CARTESIAN_POINT('Origin',(-13.25,-31.25,10.));
#1978=CARTESIAN_POINT('',(-13.25,-31.25,10.));
#1979=CARTESIAN_POINT('',(-20.375,-31.25,10.));
#1980=CARTESIAN_POINT('',(-13.25,-31.25,8.));
#1981=CARTESIAN_POINT('',(-13.25,-31.25,10.));
#1982=CARTESIAN_POINT('',(-20.375,-31.25,8.));
#1983=CARTESIAN_POINT('Origin',(-13.25,-17.25,10.));
#1984=CARTESIAN_POINT('',(-13.25,-19.375,10.));
#1985=CARTESIAN_POINT('',(-13.25,-19.375,8.));
#1986=CARTESIAN_POINT('Origin',(-55.9,-6.5,0.));
#1987=CARTESIAN_POINT('Origin',(-55.,-6.5,0.));
#1988=CARTESIAN_POINT('Origin',(-27.5,-21.5,8.));
#1989=CARTESIAN_POINT('',(-55.,0.,8.));
#1990=CARTESIAN_POINT('',(-55.,-10.75,8.));
#1991=CARTESIAN_POINT('',(-13.75,0.,8.));
#1992=CARTESIAN_POINT('',(-10.25,-38.,8.));
#1993=CARTESIAN_POINT('Origin',(-8.,-38.,8.));
#1994=CARTESIAN_POINT('Origin',(-27.5,-21.5,8.));
#1995=CARTESIAN_POINT('',(-52.3999982699752,-13.9999997317791,8.));
#1996=CARTESIAN_POINT('',(-52.3999982699752,-13.9999997317791,8.));
#1997=CARTESIAN_POINT('',(-52.3999982699752,-13.9999997317791,8.));
#1998=CARTESIAN_POINT('Origin',(0.,0.,0.));
#1999=CARTESIAN_POINT('',(-55.,0.,0.));
#2000=CARTESIAN_POINT('Origin',(-55.,0.,0.));
#2001=CARTESIAN_POINT('Origin',(-49.,-15.5,0.));
#2002=CARTESIAN_POINT('',(-50.25,-15.5,10.));
#2003=CARTESIAN_POINT('',(-50.25,-15.5,0.));
#2004=CARTESIAN_POINT('Origin',(-49.,-15.5,10.));
#2005=CARTESIAN_POINT('Origin',(-53.0000011622906,-13.0000001639128,0.));
#2006=CARTESIAN_POINT('',(-52.3999982699752,-13.9999997317791,0.));
#2007=CARTESIAN_POINT('Origin',(-52.3999982699752,-13.9999997317791,0.));
#2008=CARTESIAN_POINT('Origin',(-55.,-15.,0.));
#2009=CARTESIAN_POINT('',(-54.1547005383793,-15.,10.));
#2010=CARTESIAN_POINT('',(-54.1547005383792,-15.,0.));
#2011=CARTESIAN_POINT('',(-57.,-15.,10.));
#2012=CARTESIAN_POINT('',(-41.25,-15.,10.));
#2013=CARTESIAN_POINT('',(-57.,-15.,0.));
#2014=CARTESIAN_POINT('Origin',(-57.,0.,0.));
#2015=CARTESIAN_POINT('',(-57.,2.,10.));
#2016=CARTESIAN_POINT('',(-57.,-10.75,10.));
#2017=CARTESIAN_POINT('',(-57.,2.,0.));
#2018=CARTESIAN_POINT('Origin',(0.,2.,0.));
#2019=CARTESIAN_POINT('',(2.,2.,10.));
#2020=CARTESIAN_POINT('',(-13.75,2.,10.));
#2021=CARTESIAN_POINT('',(2.,2.,0.));
#2022=CARTESIAN_POINT('Origin',(2.,-43.,0.));
#2023=CARTESIAN_POINT('',(2.,-45.,10.));
#2024=CARTESIAN_POINT('',(2.,-32.25,10.));
#2025=CARTESIAN_POINT('',(2.,-45.,0.));
#2026=CARTESIAN_POINT('Origin',(-35.6794919243113,-45.,0.));
#2027=CARTESIAN_POINT('',(-36.8341924626905,-45.,10.));
#2028=CARTESIAN_POINT('',(-31.5897459621556,-45.,10.));
#2029=CARTESIAN_POINT('',(-36.8341924626905,-45.,0.));
#2030=CARTESIAN_POINT('Origin',(-54.7320508075689,-14.,0.));
#2031=CARTESIAN_POINT('',(-49.704246824527,-22.7084119491258,10.));
#2032=CARTESIAN_POINT('Origin',(-27.5,-21.5,10.));
#2033=CARTESIAN_POINT('',(-9.25,-38.,10.));
#2034=CARTESIAN_POINT('Origin',(-8.,-38.,10.));
#2035=CARTESIAN_POINT('Origin',(-8.,-38.,0.));
#2036=CARTESIAN_POINT('',(-9.25,-38.,0.));
#2037=CARTESIAN_POINT('Origin',(-8.,-38.,0.));
#2038=CARTESIAN_POINT('',(-10.25,-38.,0.));
#2039=UNCERTAINTY_MEASURE_WITH_UNIT(LENGTH_MEASURE(0.01),#2043,
'DISTANCE_ACCURACY_VALUE',
'Maximum model space distance between geometric entities at asserted c
onnectivities');
#2040=UNCERTAINTY_MEASURE_WITH_UNIT(LENGTH_MEASURE(0.01),#2043,
'DISTANCE_ACCURACY_VALUE',
'Maximum model space distance between geometric entities at asserted c
onnectivities');
#2041=(
GEOMETRIC_REPRESENTATION_CONTEXT(3)
GLOBAL_UNCERTAINTY_ASSIGNED_CONTEXT((#2039))
GLOBAL_UNIT_ASSIGNED_CONTEXT((#2043,#2045,#2046))
REPRESENTATION_CONTEXT('','3D')
);
#2042=(
GEOMETRIC_REPRESENTATION_CONTEXT(3)
GLOBAL_UNCERTAINTY_ASSIGNED_CONTEXT((#2040))
GLOBAL_UNIT_ASSIGNED_CONTEXT((#2043,#2045,#2046))
REPRESENTATION_CONTEXT('','3D')
);
#2043=(
LENGTH_UNIT()
NAMED_UNIT(*)
SI_UNIT(.MILLI.,.METRE.)
);
#2044=(
LENGTH_UNIT()
NAMED_UNIT(*)
SI_UNIT($,.METRE.)
);
#2045=(
NAMED_UNIT(*)
PLANE_ANGLE_UNIT()
SI_UNIT($,.RADIAN.)
);
#2046=(
NAMED_UNIT(*)
SI_UNIT($,.STERADIAN.)
SOLID_ANGLE_UNIT()
);
#2047=SHAPE_DEFINITION_REPRESENTATION(#2048,#2049);
#2048=PRODUCT_DEFINITION_SHAPE('',$,#2051);
#2049=SHAPE_REPRESENTATION('',(#1264),#2041);
#2050=PRODUCT_DEFINITION_CONTEXT('part definition',#2055,'design');
#2051=PRODUCT_DEFINITION('2026-09-24-00-25-59-238',
'Shooting_Enclosure_Ver2',#2052,#2050);
#2052=PRODUCT_DEFINITION_FORMATION('',$,#2057);
#2053=PRODUCT_RELATED_PRODUCT_CATEGORY('Shooting_Enclosure_Ver2',
'Shooting_Enclosure_Ver2',(#2057));
#2054=APPLICATION_PROTOCOL_DEFINITION('international standard',
'automotive_design',2009,#2055);
#2055=APPLICATION_CONTEXT(
'Core Data for Automotive Mechanical Design Process');
#2056=PRODUCT_CONTEXT('part definition',#2055,'mechanical');
#2057=PRODUCT('2026-09-24-00-25-59-238','Shooting_Enclosure_Ver2',$,(#2056));
#2058=PRESENTATION_STYLE_ASSIGNMENT((#2059));
#2059=SURFACE_STYLE_USAGE(.BOTH.,#2060);
#2060=SURFACE_SIDE_STYLE('',(#2061));
#2061=SURFACE_STYLE_FILL_AREA(#2062);
#2062=FILL_AREA_STYLE('Steel - Satin',(#2063));
#2063=FILL_AREA_STYLE_COLOUR('Steel - Satin',#2064);
#2064=COLOUR_RGB('Steel - Satin',0.627450980392157,0.627450980392157,0.627450980392157);
ENDSEC;
END-ISO-10303-21;
