ISO-10303-21;
HEADER;
/* Generated by software containing ST-Developer
 * from STEP Tools, Inc. (www.steptools.com) 
 */

FILE_DESCRIPTION(
/* description */ (''),
/* implementation_level */ '2;1');

FILE_NAME(
/* name */ 'Shooting_Enclosure_Final_Part2.step',
/* time_stamp */ '2026-09-22T17:58:32+05:30',
/* author */ (''),
/* organization */ (''),
/* preprocessor_version */ 'ST-DEVELOPER v20.2',
/* originating_system */ 'Autodesk Translation Framework v15.15.0.0',
/* authorisation */ '');

FILE_SCHEMA (('AUTOMOTIVE_DESIGN { 1 0 10303 214 3 1 1 }'));
ENDSEC;

DATA;
#10=MECHANICAL_DESIGN_GEOMETRIC_PRESENTATION_REPRESENTATION('',(#13),#2073);
#11=SHAPE_REPRESENTATION_RELATIONSHIP('SRR','None',#2080,#12);
#12=ADVANCED_BREP_SHAPE_REPRESENTATION('',(#14),#2072);
#13=STYLED_ITEM('',(#2089),#14);
#14=MANIFOLD_SOLID_BREP('Body11',#1274);
#15=CYLINDRICAL_SURFACE('',#1291,1.25);
#16=CYLINDRICAL_SURFACE('',#1293,6.);
#17=CYLINDRICAL_SURFACE('',#1305,2.9);
#18=CYLINDRICAL_SURFACE('',#1315,2.25);
#19=CYLINDRICAL_SURFACE('',#1318,0.5);
#20=CYLINDRICAL_SURFACE('',#1321,0.5);
#21=CYLINDRICAL_SURFACE('',#1324,2.25);
#22=CYLINDRICAL_SURFACE('',#1338,1.25);
#23=CYLINDRICAL_SURFACE('',#1341,1.25);
#24=CYLINDRICAL_SURFACE('',#1353,5.);
#25=CYLINDRICAL_SURFACE('',#1359,1.25);
#26=CYLINDRICAL_SURFACE('',#1361,2.25);
#27=CYLINDRICAL_SURFACE('',#1367,1.25);
#28=FACE_BOUND('',#109,.T.);
#29=FACE_BOUND('',#113,.T.);
#30=FACE_BOUND('',#115,.T.);
#31=FACE_BOUND('',#117,.T.);
#32=FACE_BOUND('',#149,.T.);
#33=FACE_BOUND('',#150,.T.);
#34=FACE_BOUND('',#153,.T.);
#35=FACE_BOUND('',#154,.T.);
#36=FACE_BOUND('',#162,.T.);
#37=FACE_BOUND('',#163,.T.);
#38=FACE_BOUND('',#171,.T.);
#39=FACE_BOUND('',#172,.T.);
#40=FACE_BOUND('',#173,.T.);
#41=FACE_BOUND('',#174,.T.);
#42=FACE_BOUND('',#180,.T.);
#43=FACE_OUTER_BOUND('',#108,.T.);
#44=FACE_OUTER_BOUND('',#110,.T.);
#45=FACE_OUTER_BOUND('',#111,.T.);
#46=FACE_OUTER_BOUND('',#112,.T.);
#47=FACE_OUTER_BOUND('',#114,.T.);
#48=FACE_OUTER_BOUND('',#116,.T.);
#49=FACE_OUTER_BOUND('',#118,.T.);
#50=FACE_OUTER_BOUND('',#119,.T.);
#51=FACE_OUTER_BOUND('',#120,.T.);
#52=FACE_OUTER_BOUND('',#121,.T.);
#53=FACE_OUTER_BOUND('',#122,.T.);
#54=FACE_OUTER_BOUND('',#123,.T.);
#55=FACE_OUTER_BOUND('',#124,.T.);
#56=FACE_OUTER_BOUND('',#125,.T.);
#57=FACE_OUTER_BOUND('',#126,.T.);
#58=FACE_OUTER_BOUND('',#127,.T.);
#59=FACE_OUTER_BOUND('',#128,.T.);
#60=FACE_OUTER_BOUND('',#129,.T.);
#61=FACE_OUTER_BOUND('',#130,.T.);
#62=FACE_OUTER_BOUND('',#131,.T.);
#63=FACE_OUTER_BOUND('',#132,.T.);
#64=FACE_OUTER_BOUND('',#133,.T.);
#65=FACE_OUTER_BOUND('',#134,.T.);
#66=FACE_OUTER_BOUND('',#135,.T.);
#67=FACE_OUTER_BOUND('',#136,.T.);
#68=FACE_OUTER_BOUND('',#137,.T.);
#69=FACE_OUTER_BOUND('',#138,.T.);
#70=FACE_OUTER_BOUND('',#139,.T.);
#71=FACE_OUTER_BOUND('',#140,.T.);
#72=FACE_OUTER_BOUND('',#141,.T.);
#73=FACE_OUTER_BOUND('',#142,.T.);
#74=FACE_OUTER_BOUND('',#143,.T.);
#75=FACE_OUTER_BOUND('',#144,.T.);
#76=FACE_OUTER_BOUND('',#145,.T.);
#77=FACE_OUTER_BOUND('',#146,.T.);
#78=FACE_OUTER_BOUND('',#147,.T.);
#79=FACE_OUTER_BOUND('',#148,.T.);
#80=FACE_OUTER_BOUND('',#151,.T.);
#81=FACE_OUTER_BOUND('',#152,.T.);
#82=FACE_OUTER_BOUND('',#155,.T.);
#83=FACE_OUTER_BOUND('',#156,.T.);
#84=FACE_OUTER_BOUND('',#157,.T.);
#85=FACE_OUTER_BOUND('',#158,.T.);
#86=FACE_OUTER_BOUND('',#159,.T.);
#87=FACE_OUTER_BOUND('',#160,.T.);
#88=FACE_OUTER_BOUND('',#161,.T.);
#89=FACE_OUTER_BOUND('',#164,.T.);
#90=FACE_OUTER_BOUND('',#165,.T.);
#91=FACE_OUTER_BOUND('',#166,.T.);
#92=FACE_OUTER_BOUND('',#167,.T.);
#93=FACE_OUTER_BOUND('',#168,.T.);
#94=FACE_OUTER_BOUND('',#169,.T.);
#95=FACE_OUTER_BOUND('',#170,.T.);
#96=FACE_OUTER_BOUND('',#175,.T.);
#97=FACE_OUTER_BOUND('',#176,.T.);
#98=FACE_OUTER_BOUND('',#177,.T.);
#99=FACE_OUTER_BOUND('',#178,.T.);
#100=FACE_OUTER_BOUND('',#179,.T.);
#101=FACE_OUTER_BOUND('',#181,.T.);
#102=FACE_OUTER_BOUND('',#182,.T.);
#103=FACE_OUTER_BOUND('',#183,.T.);
#104=FACE_OUTER_BOUND('',#184,.T.);
#105=FACE_OUTER_BOUND('',#185,.T.);
#106=FACE_OUTER_BOUND('',#186,.T.);
#107=FACE_OUTER_BOUND('',#187,.T.);
#108=EDGE_LOOP('',(#805,#806));
#109=EDGE_LOOP('',(#807));
#110=EDGE_LOOP('',(#808,#809,#810,#811));
#111=EDGE_LOOP('',(#812,#813,#814,#815));
#112=EDGE_LOOP('',(#816,#817));
#113=EDGE_LOOP('',(#818));
#114=EDGE_LOOP('',(#819));
#115=EDGE_LOOP('',(#820));
#116=EDGE_LOOP('',(#821,#822,#823,#824,#825,#826,#827,#828,#829,#830,#831,
#832,#833,#834,#835,#836,#837,#838,#839,#840,#841,#842,#843,#844,#845,#846,
#847,#848,#849,#850,#851,#852,#853,#854,#855,#856,#857,#858,#859,#860,#861,
#862,#863));
#117=EDGE_LOOP('',(#864));
#118=EDGE_LOOP('',(#865,#866,#867,#868));
#119=EDGE_LOOP('',(#869,#870,#871,#872,#873,#874));
#120=EDGE_LOOP('',(#875,#876,#877,#878));
#121=EDGE_LOOP('',(#879,#880,#881,#882));
#122=EDGE_LOOP('',(#883,#884,#885,#886));
#123=EDGE_LOOP('',(#887,#888,#889,#890));
#124=EDGE_LOOP('',(#891,#892,#893,#894));
#125=EDGE_LOOP('',(#895,#896,#897,#898));
#126=EDGE_LOOP('',(#899,#900,#901,#902));
#127=EDGE_LOOP('',(#903,#904,#905,#906));
#128=EDGE_LOOP('',(#907,#908,#909,#910));
#129=EDGE_LOOP('',(#911,#912,#913,#914));
#130=EDGE_LOOP('',(#915,#916,#917,#918));
#131=EDGE_LOOP('',(#919,#920,#921,#922));
#132=EDGE_LOOP('',(#923,#924,#925,#926));
#133=EDGE_LOOP('',(#927,#928,#929,#930));
#134=EDGE_LOOP('',(#931,#932,#933,#934));
#135=EDGE_LOOP('',(#935,#936,#937,#938));
#136=EDGE_LOOP('',(#939,#940));
#137=EDGE_LOOP('',(#941,#942,#943,#944));
#138=EDGE_LOOP('',(#945,#946,#947,#948));
#139=EDGE_LOOP('',(#949,#950,#951,#952,#953,#954));
#140=EDGE_LOOP('',(#955,#956,#957,#958));
#141=EDGE_LOOP('',(#959,#960,#961,#962));
#142=EDGE_LOOP('',(#963,#964,#965,#966,#967));
#143=EDGE_LOOP('',(#968,#969,#970,#971,#972,#973));
#144=EDGE_LOOP('',(#974,#975,#976,#977,#978,#979));
#145=EDGE_LOOP('',(#980,#981,#982,#983));
#146=EDGE_LOOP('',(#984,#985,#986,#987));
#147=EDGE_LOOP('',(#988,#989,#990,#991));
#148=EDGE_LOOP('',(#992,#993,#994,#995));
#149=EDGE_LOOP('',(#996));
#150=EDGE_LOOP('',(#997));
#151=EDGE_LOOP('',(#998,#999,#1000,#1001));
#152=EDGE_LOOP('',(#1002,#1003,#1004,#1005));
#153=EDGE_LOOP('',(#1006));
#154=EDGE_LOOP('',(#1007));
#155=EDGE_LOOP('',(#1008,#1009,#1010,#1011));
#156=EDGE_LOOP('',(#1012,#1013,#1014,#1015));
#157=EDGE_LOOP('',(#1016,#1017,#1018,#1019));
#158=EDGE_LOOP('',(#1020,#1021,#1022,#1023));
#159=EDGE_LOOP('',(#1024,#1025,#1026,#1027));
#160=EDGE_LOOP('',(#1028,#1029,#1030,#1031));
#161=EDGE_LOOP('',(#1032,#1033,#1034,#1035,#1036,#1037,#1038,#1039,#1040,
#1041,#1042,#1043,#1044,#1045,#1046,#1047,#1048));
#162=EDGE_LOOP('',(#1049,#1050,#1051,#1052));
#163=EDGE_LOOP('',(#1053));
#164=EDGE_LOOP('',(#1054,#1055,#1056,#1057));
#165=EDGE_LOOP('',(#1058,#1059,#1060,#1061));
#166=EDGE_LOOP('',(#1062,#1063,#1064,#1065));
#167=EDGE_LOOP('',(#1066,#1067,#1068,#1069));
#168=EDGE_LOOP('',(#1070,#1071,#1072,#1073,#1074,#1075));
#169=EDGE_LOOP('',(#1076,#1077,#1078,#1079));
#170=EDGE_LOOP('',(#1080,#1081,#1082,#1083,#1084,#1085,#1086,#1087,#1088,
#1089));
#171=EDGE_LOOP('',(#1090,#1091,#1092,#1093));
#172=EDGE_LOOP('',(#1094,#1095,#1096,#1097));
#173=EDGE_LOOP('',(#1098));
#174=EDGE_LOOP('',(#1099));
#175=EDGE_LOOP('',(#1100,#1101,#1102,#1103));
#176=EDGE_LOOP('',(#1104,#1105,#1106,#1107));
#177=EDGE_LOOP('',(#1108,#1109,#1110,#1111));
#178=EDGE_LOOP('',(#1112,#1113,#1114,#1115,#1116,#1117));
#179=EDGE_LOOP('',(#1118,#1119,#1120,#1121));
#180=EDGE_LOOP('',(#1122,#1123,#1124,#1125));
#181=EDGE_LOOP('',(#1126,#1127,#1128,#1129));
#182=EDGE_LOOP('',(#1130,#1131,#1132,#1133));
#183=EDGE_LOOP('',(#1134,#1135,#1136,#1137));
#184=EDGE_LOOP('',(#1138,#1139,#1140,#1141));
#185=EDGE_LOOP('',(#1142,#1143,#1144,#1145));
#186=EDGE_LOOP('',(#1146,#1147,#1148,#1149,#1150,#1151));
#187=EDGE_LOOP('',(#1152,#1153,#1154,#1155,#1156));
#188=CIRCLE('',#1289,6.);
#189=CIRCLE('',#1290,1.25);
#190=CIRCLE('',#1292,1.25);
#191=CIRCLE('',#1294,6.);
#192=CIRCLE('',#1297,2.25);
#193=CIRCLE('',#1298,1.25);
#194=CIRCLE('',#1300,2.25);
#195=CIRCLE('',#1301,0.5);
#196=CIRCLE('',#1302,0.5);
#197=CIRCLE('',#1303,2.25);
#198=CIRCLE('',#1304,1.25);
#199=CIRCLE('',#1306,2.9);
#200=CIRCLE('',#1307,2.9);
#201=CIRCLE('',#1316,2.25);
#202=CIRCLE('',#1319,0.5);
#203=CIRCLE('',#1322,0.5);
#204=CIRCLE('',#1325,2.25);
#205=CIRCLE('',#1339,1.25);
#206=CIRCLE('',#1340,1.25);
#207=CIRCLE('',#1342,1.25);
#208=CIRCLE('',#1343,1.25);
#209=CIRCLE('',#1354,5.);
#210=CIRCLE('',#1355,5.);
#211=CIRCLE('',#1357,2.25);
#212=CIRCLE('',#1360,1.25);
#213=CIRCLE('',#1366,1.25);
#214=LINE('',#1717,#364);
#215=LINE('',#1723,#365);
#216=LINE('',#1727,#366);
#217=LINE('',#1729,#367);
#218=LINE('',#1732,#368);
#219=LINE('',#1741,#369);
#220=LINE('',#1743,#370);
#221=LINE('',#1745,#371);
#222=LINE('',#1747,#372);
#223=LINE('',#1749,#373);
#224=LINE('',#1751,#374);
#225=LINE('',#1755,#375);
#226=LINE('',#1756,#376);
#227=LINE('',#1758,#377);
#228=LINE('',#1760,#378);
#229=LINE('',#1764,#379);
#230=LINE('',#1768,#380);
#231=LINE('',#1772,#381);
#232=LINE('',#1774,#382);
#233=LINE('',#1776,#383);
#234=LINE('',#1778,#384);
#235=LINE('',#1780,#385);
#236=LINE('',#1782,#386);
#237=LINE('',#1784,#387);
#238=LINE('',#1786,#388);
#239=LINE('',#1788,#389);
#240=LINE('',#1790,#390);
#241=LINE('',#1792,#391);
#242=LINE('',#1794,#392);
#243=LINE('',#1796,#393);
#244=LINE('',#1798,#394);
#245=LINE('',#1800,#395);
#246=LINE('',#1802,#396);
#247=LINE('',#1804,#397);
#248=LINE('',#1806,#398);
#249=LINE('',#1808,#399);
#250=LINE('',#1810,#400);
#251=LINE('',#1812,#401);
#252=LINE('',#1814,#402);
#253=LINE('',#1816,#403);
#254=LINE('',#1818,#404);
#255=LINE('',#1820,#405);
#256=LINE('',#1822,#406);
#257=LINE('',#1823,#407);
#258=LINE('',#1831,#408);
#259=LINE('',#1833,#409);
#260=LINE('',#1834,#410);
#261=LINE('',#1837,#411);
#262=LINE('',#1838,#412);
#263=LINE('',#1841,#413);
#264=LINE('',#1842,#414);
#265=LINE('',#1845,#415);
#266=LINE('',#1846,#416);
#267=LINE('',#1849,#417);
#268=LINE('',#1850,#418);
#269=LINE('',#1853,#419);
#270=LINE('',#1854,#420);
#271=LINE('',#1857,#421);
#272=LINE('',#1858,#422);
#273=LINE('',#1861,#423);
#274=LINE('',#1865,#424);
#275=LINE('',#1866,#425);
#276=LINE('',#1869,#426);
#277=LINE('',#1873,#427);
#278=LINE('',#1874,#428);
#279=LINE('',#1877,#429);
#280=LINE('',#1881,#430);
#281=LINE('',#1882,#431);
#282=LINE('',#1885,#432);
#283=LINE('',#1888,#433);
#284=LINE('',#1891,#434);
#285=LINE('',#1892,#435);
#286=LINE('',#1894,#436);
#287=LINE('',#1895,#437);
#288=LINE('',#1898,#438);
#289=LINE('',#1899,#439);
#290=LINE('',#1904,#440);
#291=LINE('',#1906,#441);
#292=LINE('',#1908,#442);
#293=LINE('',#1909,#443);
#294=LINE('',#1912,#444);
#295=LINE('',#1914,#445);
#296=LINE('',#1915,#446);
#297=LINE('',#1919,#447);
#298=LINE('',#1920,#448);
#299=LINE('',#1922,#449);
#300=LINE('',#1923,#450);
#301=LINE('',#1925,#451);
#302=LINE('',#1926,#452);
#303=LINE('',#1928,#453);
#304=LINE('',#1931,#454);
#305=LINE('',#1933,#455);
#306=LINE('',#1934,#456);
#307=LINE('',#1936,#457);
#308=LINE('',#1938,#458);
#309=LINE('',#1943,#459);
#310=LINE('',#1949,#460);
#311=LINE('',#1954,#461);
#312=LINE('',#1956,#462);
#313=LINE('',#1958,#463);
#314=LINE('',#1959,#464);
#315=LINE('',#1962,#465);
#316=LINE('',#1964,#466);
#317=LINE('',#1965,#467);
#318=LINE('',#1968,#468);
#319=LINE('',#1970,#469);
#320=LINE('',#1971,#470);
#321=LINE('',#1973,#471);
#322=LINE('',#1974,#472);
#323=LINE('',#1979,#473);
#324=LINE('',#1981,#474);
#325=LINE('',#1983,#475);
#326=LINE('',#1984,#476);
#327=LINE('',#1987,#477);
#328=LINE('',#1989,#478);
#329=LINE('',#1990,#479);
#330=LINE('',#1993,#480);
#331=LINE('',#1995,#481);
#332=LINE('',#1996,#482);
#333=LINE('',#1998,#483);
#334=LINE('',#1999,#484);
#335=LINE('',#2005,#485);
#336=LINE('',#2006,#486);
#337=LINE('',#2011,#487);
#338=LINE('',#2012,#488);
#339=LINE('',#2015,#489);
#340=LINE('',#2018,#490);
#341=LINE('',#2020,#491);
#342=LINE('',#2023,#492);
#343=LINE('',#2027,#493);
#344=LINE('',#2029,#494);
#345=LINE('',#2031,#495);
#346=LINE('',#2033,#496);
#347=LINE('',#2035,#497);
#348=LINE('',#2037,#498);
#349=LINE('',#2039,#499);
#350=LINE('',#2041,#500);
#351=LINE('',#2043,#501);
#352=LINE('',#2044,#502);
#353=LINE('',#2048,#503);
#354=LINE('',#2051,#504);
#355=LINE('',#2052,#505);
#356=LINE('',#2054,#506);
#357=LINE('',#2056,#507);
#358=LINE('',#2058,#508);
#359=LINE('',#2060,#509);
#360=LINE('',#2062,#510);
#361=LINE('',#2064,#511);
#362=LINE('',#2066,#512);
#363=LINE('',#2068,#513);
#364=VECTOR('',#1383,10.);
#365=VECTOR('',#1390,1.25);
#366=VECTOR('',#1395,10.);
#367=VECTOR('',#1396,10.);
#368=VECTOR('',#1401,10.);
#369=VECTOR('',#1410,10.);
#370=VECTOR('',#1411,10.);
#371=VECTOR('',#1412,10.);
#372=VECTOR('',#1413,10.);
#373=VECTOR('',#1414,10.);
#374=VECTOR('',#1415,10.);
#375=VECTOR('',#1418,10.);
#376=VECTOR('',#1419,10.);
#377=VECTOR('',#1420,10.);
#378=VECTOR('',#1421,10.);
#379=VECTOR('',#1424,10.);
#380=VECTOR('',#1427,10.);
#381=VECTOR('',#1430,10.);
#382=VECTOR('',#1431,10.);
#383=VECTOR('',#1432,10.);
#384=VECTOR('',#1433,10.);
#385=VECTOR('',#1434,10.);
#386=VECTOR('',#1435,10.);
#387=VECTOR('',#1436,10.);
#388=VECTOR('',#1437,10.);
#389=VECTOR('',#1438,10.);
#390=VECTOR('',#1439,10.);
#391=VECTOR('',#1440,10.);
#392=VECTOR('',#1441,10.);
#393=VECTOR('',#1442,10.);
#394=VECTOR('',#1443,10.);
#395=VECTOR('',#1444,10.);
#396=VECTOR('',#1445,10.);
#397=VECTOR('',#1446,10.);
#398=VECTOR('',#1447,10.);
#399=VECTOR('',#1448,10.);
#400=VECTOR('',#1449,10.);
#401=VECTOR('',#1450,10.);
#402=VECTOR('',#1451,10.);
#403=VECTOR('',#1452,10.);
#404=VECTOR('',#1453,10.);
#405=VECTOR('',#1454,10.);
#406=VECTOR('',#1455,10.);
#407=VECTOR('',#1456,10.);
#408=VECTOR('',#1467,10.);
#409=VECTOR('',#1468,10.);
#410=VECTOR('',#1469,10.);
#411=VECTOR('',#1472,10.);
#412=VECTOR('',#1473,10.);
#413=VECTOR('',#1476,10.);
#414=VECTOR('',#1477,10.);
#415=VECTOR('',#1480,10.);
#416=VECTOR('',#1481,10.);
#417=VECTOR('',#1484,10.);
#418=VECTOR('',#1485,10.);
#419=VECTOR('',#1488,10.);
#420=VECTOR('',#1489,10.);
#421=VECTOR('',#1492,10.);
#422=VECTOR('',#1493,10.);
#423=VECTOR('',#1496,10.);
#424=VECTOR('',#1501,10.);
#425=VECTOR('',#1502,10.);
#426=VECTOR('',#1505,10.);
#427=VECTOR('',#1510,10.);
#428=VECTOR('',#1511,10.);
#429=VECTOR('',#1514,10.);
#430=VECTOR('',#1519,10.);
#431=VECTOR('',#1520,10.);
#432=VECTOR('',#1523,10.);
#433=VECTOR('',#1526,10.);
#434=VECTOR('',#1529,10.);
#435=VECTOR('',#1530,10.);
#436=VECTOR('',#1533,10.);
#437=VECTOR('',#1534,10.);
#438=VECTOR('',#1537,10.);
#439=VECTOR('',#1538,10.);
#440=VECTOR('',#1543,10.);
#441=VECTOR('',#1544,10.);
#442=VECTOR('',#1545,10.);
#443=VECTOR('',#1546,10.);
#444=VECTOR('',#1549,10.);
#445=VECTOR('',#1550,10.);
#446=VECTOR('',#1551,10.);
#447=VECTOR('',#1554,10.);
#448=VECTOR('',#1555,10.);
#449=VECTOR('',#1556,10.);
#450=VECTOR('',#1557,10.);
#451=VECTOR('',#1560,10.);
#452=VECTOR('',#1561,10.);
#453=VECTOR('',#1564,10.);
#454=VECTOR('',#1567,10.);
#455=VECTOR('',#1568,10.);
#456=VECTOR('',#1569,10.);
#457=VECTOR('',#1572,10.);
#458=VECTOR('',#1575,10.);
#459=VECTOR('',#1580,1.25);
#460=VECTOR('',#1587,1.25);
#461=VECTOR('',#1592,10.);
#462=VECTOR('',#1593,10.);
#463=VECTOR('',#1594,10.);
#464=VECTOR('',#1595,10.);
#465=VECTOR('',#1598,10.);
#466=VECTOR('',#1599,10.);
#467=VECTOR('',#1600,10.);
#468=VECTOR('',#1603,10.);
#469=VECTOR('',#1604,10.);
#470=VECTOR('',#1605,10.);
#471=VECTOR('',#1608,10.);
#472=VECTOR('',#1609,10.);
#473=VECTOR('',#1614,10.);
#474=VECTOR('',#1615,10.);
#475=VECTOR('',#1616,10.);
#476=VECTOR('',#1617,10.);
#477=VECTOR('',#1620,10.);
#478=VECTOR('',#1621,10.);
#479=VECTOR('',#1622,10.);
#480=VECTOR('',#1625,10.);
#481=VECTOR('',#1626,10.);
#482=VECTOR('',#1627,10.);
#483=VECTOR('',#1630,10.);
#484=VECTOR('',#1631,10.);
#485=VECTOR('',#1640,10.);
#486=VECTOR('',#1641,10.);
#487=VECTOR('',#1646,10.);
#488=VECTOR('',#1647,10.);
#489=VECTOR('',#1650,1.25);
#490=VECTOR('',#1655,1.25);
#491=VECTOR('',#1658,10.);
#492=VECTOR('',#1663,10.);
#493=VECTOR('',#1666,10.);
#494=VECTOR('',#1667,10.);
#495=VECTOR('',#1668,10.);
#496=VECTOR('',#1669,10.);
#497=VECTOR('',#1670,10.);
#498=VECTOR('',#1671,10.);
#499=VECTOR('',#1672,10.);
#500=VECTOR('',#1673,10.);
#501=VECTOR('',#1674,10.);
#502=VECTOR('',#1675,10.);
#503=VECTOR('',#1680,1.25);
#504=VECTOR('',#1685,10.);
#505=VECTOR('',#1686,10.);
#506=VECTOR('',#1689,10.);
#507=VECTOR('',#1692,10.);
#508=VECTOR('',#1695,10.);
#509=VECTOR('',#1698,10.);
#510=VECTOR('',#1701,10.);
#511=VECTOR('',#1704,10.);
#512=VECTOR('',#1707,10.);
#513=VECTOR('',#1710,10.);
#514=VERTEX_POINT('',#1715);
#515=VERTEX_POINT('',#1716);
#516=VERTEX_POINT('',#1719);
#517=VERTEX_POINT('',#1722);
#518=VERTEX_POINT('',#1726);
#519=VERTEX_POINT('',#1728);
#520=VERTEX_POINT('',#1734);
#521=VERTEX_POINT('',#1736);
#522=VERTEX_POINT('',#1739);
#523=VERTEX_POINT('',#1740);
#524=VERTEX_POINT('',#1742);
#525=VERTEX_POINT('',#1744);
#526=VERTEX_POINT('',#1746);
#527=VERTEX_POINT('',#1748);
#528=VERTEX_POINT('',#1750);
#529=VERTEX_POINT('',#1752);
#530=VERTEX_POINT('',#1754);
#531=VERTEX_POINT('',#1757);
#532=VERTEX_POINT('',#1759);
#533=VERTEX_POINT('',#1761);
#534=VERTEX_POINT('',#1763);
#535=VERTEX_POINT('',#1765);
#536=VERTEX_POINT('',#1767);
#537=VERTEX_POINT('',#1769);
#538=VERTEX_POINT('',#1771);
#539=VERTEX_POINT('',#1773);
#540=VERTEX_POINT('',#1775);
#541=VERTEX_POINT('',#1777);
#542=VERTEX_POINT('',#1779);
#543=VERTEX_POINT('',#1781);
#544=VERTEX_POINT('',#1783);
#545=VERTEX_POINT('',#1785);
#546=VERTEX_POINT('',#1787);
#547=VERTEX_POINT('',#1789);
#548=VERTEX_POINT('',#1791);
#549=VERTEX_POINT('',#1793);
#550=VERTEX_POINT('',#1795);
#551=VERTEX_POINT('',#1797);
#552=VERTEX_POINT('',#1799);
#553=VERTEX_POINT('',#1801);
#554=VERTEX_POINT('',#1803);
#555=VERTEX_POINT('',#1805);
#556=VERTEX_POINT('',#1807);
#557=VERTEX_POINT('',#1809);
#558=VERTEX_POINT('',#1811);
#559=VERTEX_POINT('',#1813);
#560=VERTEX_POINT('',#1815);
#561=VERTEX_POINT('',#1817);
#562=VERTEX_POINT('',#1819);
#563=VERTEX_POINT('',#1821);
#564=VERTEX_POINT('',#1824);
#565=VERTEX_POINT('',#1830);
#566=VERTEX_POINT('',#1832);
#567=VERTEX_POINT('',#1836);
#568=VERTEX_POINT('',#1840);
#569=VERTEX_POINT('',#1844);
#570=VERTEX_POINT('',#1848);
#571=VERTEX_POINT('',#1852);
#572=VERTEX_POINT('',#1856);
#573=VERTEX_POINT('',#1860);
#574=VERTEX_POINT('',#1864);
#575=VERTEX_POINT('',#1868);
#576=VERTEX_POINT('',#1872);
#577=VERTEX_POINT('',#1876);
#578=VERTEX_POINT('',#1880);
#579=VERTEX_POINT('',#1884);
#580=VERTEX_POINT('',#1886);
#581=VERTEX_POINT('',#1890);
#582=VERTEX_POINT('',#1897);
#583=VERTEX_POINT('',#1902);
#584=VERTEX_POINT('',#1903);
#585=VERTEX_POINT('',#1905);
#586=VERTEX_POINT('',#1907);
#587=VERTEX_POINT('',#1911);
#588=VERTEX_POINT('',#1913);
#589=VERTEX_POINT('',#1917);
#590=VERTEX_POINT('',#1918);
#591=VERTEX_POINT('',#1921);
#592=VERTEX_POINT('',#1930);
#593=VERTEX_POINT('',#1932);
#594=VERTEX_POINT('',#1940);
#595=VERTEX_POINT('',#1942);
#596=VERTEX_POINT('',#1946);
#597=VERTEX_POINT('',#1948);
#598=VERTEX_POINT('',#1952);
#599=VERTEX_POINT('',#1953);
#600=VERTEX_POINT('',#1955);
#601=VERTEX_POINT('',#1957);
#602=VERTEX_POINT('',#1961);
#603=VERTEX_POINT('',#1963);
#604=VERTEX_POINT('',#1967);
#605=VERTEX_POINT('',#1969);
#606=VERTEX_POINT('',#1977);
#607=VERTEX_POINT('',#1978);
#608=VERTEX_POINT('',#1980);
#609=VERTEX_POINT('',#1982);
#610=VERTEX_POINT('',#1986);
#611=VERTEX_POINT('',#1988);
#612=VERTEX_POINT('',#1992);
#613=VERTEX_POINT('',#1994);
#614=VERTEX_POINT('',#2004);
#615=VERTEX_POINT('',#2007);
#616=VERTEX_POINT('',#2010);
#617=VERTEX_POINT('',#2014);
#618=VERTEX_POINT('',#2025);
#619=VERTEX_POINT('',#2026);
#620=VERTEX_POINT('',#2028);
#621=VERTEX_POINT('',#2030);
#622=VERTEX_POINT('',#2032);
#623=VERTEX_POINT('',#2034);
#624=VERTEX_POINT('',#2036);
#625=VERTEX_POINT('',#2038);
#626=VERTEX_POINT('',#2040);
#627=VERTEX_POINT('',#2042);
#628=VERTEX_POINT('',#2045);
#629=EDGE_CURVE('',#514,#515,#214,.T.);
#630=EDGE_CURVE('',#514,#515,#188,.T.);
#631=EDGE_CURVE('',#516,#516,#189,.T.);
#632=EDGE_CURVE('',#516,#517,#215,.T.);
#633=EDGE_CURVE('',#517,#517,#190,.T.);
#634=EDGE_CURVE('',#515,#518,#216,.T.);
#635=EDGE_CURVE('',#519,#514,#217,.T.);
#636=EDGE_CURVE('',#518,#519,#191,.T.);
#637=EDGE_CURVE('',#518,#519,#218,.T.);
#638=EDGE_CURVE('',#520,#520,#192,.T.);
#639=EDGE_CURVE('',#521,#521,#193,.T.);
#640=EDGE_CURVE('',#522,#523,#219,.T.);
#641=EDGE_CURVE('',#524,#522,#220,.T.);
#642=EDGE_CURVE('',#525,#524,#221,.T.);
#643=EDGE_CURVE('',#526,#525,#222,.T.);
#644=EDGE_CURVE('',#527,#526,#223,.T.);
#645=EDGE_CURVE('',#528,#527,#224,.T.);
#646=EDGE_CURVE('',#529,#528,#194,.T.);
#647=EDGE_CURVE('',#530,#529,#225,.T.);
#648=EDGE_CURVE('',#527,#530,#226,.T.);
#649=EDGE_CURVE('',#531,#527,#227,.T.);
#650=EDGE_CURVE('',#532,#531,#228,.T.);
#651=EDGE_CURVE('',#533,#532,#195,.T.);
#652=EDGE_CURVE('',#534,#533,#229,.T.);
#653=EDGE_CURVE('',#535,#534,#196,.T.);
#654=EDGE_CURVE('',#536,#535,#230,.T.);
#655=EDGE_CURVE('',#537,#536,#197,.T.);
#656=EDGE_CURVE('',#538,#537,#231,.T.);
#657=EDGE_CURVE('',#539,#538,#232,.T.);
#658=EDGE_CURVE('',#540,#539,#233,.T.);
#659=EDGE_CURVE('',#541,#540,#234,.T.);
#660=EDGE_CURVE('',#542,#541,#235,.T.);
#661=EDGE_CURVE('',#543,#542,#236,.T.);
#662=EDGE_CURVE('',#544,#543,#237,.T.);
#663=EDGE_CURVE('',#545,#544,#238,.T.);
#664=EDGE_CURVE('',#546,#545,#239,.T.);
#665=EDGE_CURVE('',#547,#546,#240,.T.);
#666=EDGE_CURVE('',#548,#547,#241,.T.);
#667=EDGE_CURVE('',#549,#548,#242,.T.);
#668=EDGE_CURVE('',#550,#549,#243,.T.);
#669=EDGE_CURVE('',#551,#550,#244,.T.);
#670=EDGE_CURVE('',#552,#551,#245,.T.);
#671=EDGE_CURVE('',#553,#552,#246,.T.);
#672=EDGE_CURVE('',#554,#553,#247,.T.);
#673=EDGE_CURVE('',#555,#554,#248,.T.);
#674=EDGE_CURVE('',#556,#555,#249,.T.);
#675=EDGE_CURVE('',#557,#556,#250,.T.);
#676=EDGE_CURVE('',#558,#557,#251,.T.);
#677=EDGE_CURVE('',#559,#558,#252,.T.);
#678=EDGE_CURVE('',#560,#559,#253,.T.);
#679=EDGE_CURVE('',#561,#560,#254,.T.);
#680=EDGE_CURVE('',#562,#561,#255,.T.);
#681=EDGE_CURVE('',#563,#562,#256,.T.);
#682=EDGE_CURVE('',#523,#563,#257,.T.);
#683=EDGE_CURVE('',#564,#564,#198,.T.);
#684=EDGE_CURVE('',#547,#544,#199,.T.);
#685=EDGE_CURVE('',#545,#546,#200,.T.);
#686=EDGE_CURVE('',#543,#565,#258,.T.);
#687=EDGE_CURVE('',#565,#566,#259,.T.);
#688=EDGE_CURVE('',#548,#566,#260,.T.);
#689=EDGE_CURVE('',#542,#567,#261,.T.);
#690=EDGE_CURVE('',#567,#565,#262,.T.);
#691=EDGE_CURVE('',#541,#568,#263,.T.);
#692=EDGE_CURVE('',#568,#567,#264,.T.);
#693=EDGE_CURVE('',#540,#569,#265,.T.);
#694=EDGE_CURVE('',#569,#568,#266,.T.);
#695=EDGE_CURVE('',#539,#570,#267,.T.);
#696=EDGE_CURVE('',#570,#569,#268,.T.);
#697=EDGE_CURVE('',#538,#571,#269,.T.);
#698=EDGE_CURVE('',#571,#570,#270,.T.);
#699=EDGE_CURVE('',#537,#572,#271,.T.);
#700=EDGE_CURVE('',#572,#571,#272,.T.);
#701=EDGE_CURVE('',#573,#536,#273,.T.);
#702=EDGE_CURVE('',#573,#572,#201,.T.);
#703=EDGE_CURVE('',#574,#535,#274,.T.);
#704=EDGE_CURVE('',#574,#573,#275,.T.);
#705=EDGE_CURVE('',#534,#575,#276,.T.);
#706=EDGE_CURVE('',#575,#574,#202,.T.);
#707=EDGE_CURVE('',#576,#533,#277,.T.);
#708=EDGE_CURVE('',#576,#575,#278,.T.);
#709=EDGE_CURVE('',#532,#577,#279,.T.);
#710=EDGE_CURVE('',#577,#576,#203,.T.);
#711=EDGE_CURVE('',#531,#578,#280,.T.);
#712=EDGE_CURVE('',#578,#577,#281,.T.);
#713=EDGE_CURVE('',#579,#528,#282,.T.);
#714=EDGE_CURVE('',#579,#580,#204,.T.);
#715=EDGE_CURVE('',#529,#580,#283,.T.);
#716=EDGE_CURVE('',#581,#527,#284,.T.);
#717=EDGE_CURVE('',#581,#579,#285,.T.);
#718=EDGE_CURVE('',#581,#527,#286,.T.);
#719=EDGE_CURVE('',#581,#578,#287,.T.);
#720=EDGE_CURVE('',#526,#582,#288,.T.);
#721=EDGE_CURVE('',#582,#581,#289,.T.);
#722=EDGE_CURVE('',#583,#584,#290,.T.);
#723=EDGE_CURVE('',#585,#583,#291,.T.);
#724=EDGE_CURVE('',#585,#586,#292,.T.);
#725=EDGE_CURVE('',#586,#584,#293,.T.);
#726=EDGE_CURVE('',#584,#587,#294,.T.);
#727=EDGE_CURVE('',#587,#588,#295,.T.);
#728=EDGE_CURVE('',#588,#583,#296,.T.);
#729=EDGE_CURVE('',#589,#590,#297,.T.);
#730=EDGE_CURVE('',#587,#589,#298,.T.);
#731=EDGE_CURVE('',#591,#586,#299,.T.);
#732=EDGE_CURVE('',#591,#590,#300,.T.);
#733=EDGE_CURVE('',#560,#589,#301,.T.);
#734=EDGE_CURVE('',#590,#561,#302,.T.);
#735=EDGE_CURVE('',#562,#591,#303,.T.);
#736=EDGE_CURVE('',#592,#588,#304,.T.);
#737=EDGE_CURVE('',#593,#592,#305,.T.);
#738=EDGE_CURVE('',#585,#593,#306,.T.);
#739=EDGE_CURVE('',#592,#559,#307,.T.);
#740=EDGE_CURVE('',#563,#593,#308,.F.);
#741=EDGE_CURVE('',#594,#594,#205,.T.);
#742=EDGE_CURVE('',#594,#595,#309,.T.);
#743=EDGE_CURVE('',#595,#595,#206,.T.);
#744=EDGE_CURVE('',#596,#596,#207,.T.);
#745=EDGE_CURVE('',#596,#597,#310,.T.);
#746=EDGE_CURVE('',#597,#597,#208,.T.);
#747=EDGE_CURVE('',#598,#599,#311,.T.);
#748=EDGE_CURVE('',#598,#600,#312,.T.);
#749=EDGE_CURVE('',#601,#600,#313,.T.);
#750=EDGE_CURVE('',#599,#601,#314,.T.);
#751=EDGE_CURVE('',#599,#602,#315,.T.);
#752=EDGE_CURVE('',#603,#601,#316,.T.);
#753=EDGE_CURVE('',#602,#603,#317,.T.);
#754=EDGE_CURVE('',#602,#604,#318,.T.);
#755=EDGE_CURVE('',#605,#603,#319,.T.);
#756=EDGE_CURVE('',#604,#605,#320,.T.);
#757=EDGE_CURVE('',#604,#598,#321,.T.);
#758=EDGE_CURVE('',#600,#605,#322,.T.);
#759=EDGE_CURVE('',#606,#607,#323,.T.);
#760=EDGE_CURVE('',#606,#608,#324,.T.);
#761=EDGE_CURVE('',#609,#608,#325,.T.);
#762=EDGE_CURVE('',#607,#609,#326,.T.);
#763=EDGE_CURVE('',#610,#606,#327,.T.);
#764=EDGE_CURVE('',#610,#611,#328,.T.);
#765=EDGE_CURVE('',#608,#611,#329,.T.);
#766=EDGE_CURVE('',#612,#610,#330,.T.);
#767=EDGE_CURVE('',#612,#613,#331,.T.);
#768=EDGE_CURVE('',#611,#613,#332,.T.);
#769=EDGE_CURVE('',#607,#612,#333,.T.);
#770=EDGE_CURVE('',#613,#609,#334,.T.);
#771=EDGE_CURVE('',#525,#550,#209,.T.);
#772=EDGE_CURVE('',#551,#524,#210,.T.);
#773=EDGE_CURVE('',#614,#582,#335,.T.);
#774=EDGE_CURVE('',#566,#614,#336,.T.);
#775=EDGE_CURVE('',#615,#615,#211,.T.);
#776=EDGE_CURVE('',#616,#581,#337,.T.);
#777=EDGE_CURVE('',#580,#616,#338,.T.);
#778=EDGE_CURVE('',#521,#617,#339,.T.);
#779=EDGE_CURVE('',#617,#617,#212,.T.);
#780=EDGE_CURVE('',#615,#520,#340,.T.);
#781=EDGE_CURVE('',#549,#614,#341,.T.);
#782=EDGE_CURVE('',#616,#530,#342,.T.);
#783=EDGE_CURVE('',#618,#619,#343,.F.);
#784=EDGE_CURVE('',#619,#620,#344,.F.);
#785=EDGE_CURVE('',#620,#621,#345,.F.);
#786=EDGE_CURVE('',#621,#622,#346,.F.);
#787=EDGE_CURVE('',#622,#623,#347,.F.);
#788=EDGE_CURVE('',#623,#624,#348,.F.);
#789=EDGE_CURVE('',#624,#625,#349,.F.);
#790=EDGE_CURVE('',#625,#626,#350,.F.);
#791=EDGE_CURVE('',#626,#627,#351,.F.);
#792=EDGE_CURVE('',#627,#618,#352,.F.);
#793=EDGE_CURVE('',#628,#628,#213,.T.);
#794=EDGE_CURVE('',#564,#628,#353,.T.);
#795=EDGE_CURVE('',#618,#523,#354,.T.);
#796=EDGE_CURVE('',#522,#627,#355,.F.);
#797=EDGE_CURVE('',#552,#626,#356,.F.);
#798=EDGE_CURVE('',#553,#625,#357,.F.);
#799=EDGE_CURVE('',#554,#624,#358,.F.);
#800=EDGE_CURVE('',#555,#623,#359,.T.);
#801=EDGE_CURVE('',#556,#622,#360,.F.);
#802=EDGE_CURVE('',#557,#621,#361,.T.);
#803=EDGE_CURVE('',#558,#620,#362,.F.);
#804=EDGE_CURVE('',#593,#619,#363,.F.);
#805=ORIENTED_EDGE('',*,*,#629,.F.);
#806=ORIENTED_EDGE('',*,*,#630,.T.);
#807=ORIENTED_EDGE('',*,*,#631,.T.);
#808=ORIENTED_EDGE('',*,*,#631,.F.);
#809=ORIENTED_EDGE('',*,*,#632,.T.);
#810=ORIENTED_EDGE('',*,*,#633,.F.);
#811=ORIENTED_EDGE('',*,*,#632,.F.);
#812=ORIENTED_EDGE('',*,*,#634,.F.);
#813=ORIENTED_EDGE('',*,*,#630,.F.);
#814=ORIENTED_EDGE('',*,*,#635,.F.);
#815=ORIENTED_EDGE('',*,*,#636,.F.);
#816=ORIENTED_EDGE('',*,*,#637,.F.);
#817=ORIENTED_EDGE('',*,*,#636,.T.);
#818=ORIENTED_EDGE('',*,*,#633,.T.);
#819=ORIENTED_EDGE('',*,*,#638,.F.);
#820=ORIENTED_EDGE('',*,*,#639,.F.);
#821=ORIENTED_EDGE('',*,*,#640,.F.);
#822=ORIENTED_EDGE('',*,*,#641,.F.);
#823=ORIENTED_EDGE('',*,*,#642,.F.);
#824=ORIENTED_EDGE('',*,*,#643,.F.);
#825=ORIENTED_EDGE('',*,*,#644,.F.);
#826=ORIENTED_EDGE('',*,*,#645,.F.);
#827=ORIENTED_EDGE('',*,*,#646,.F.);
#828=ORIENTED_EDGE('',*,*,#647,.F.);
#829=ORIENTED_EDGE('',*,*,#648,.F.);
#830=ORIENTED_EDGE('',*,*,#649,.F.);
#831=ORIENTED_EDGE('',*,*,#650,.F.);
#832=ORIENTED_EDGE('',*,*,#651,.F.);
#833=ORIENTED_EDGE('',*,*,#652,.F.);
#834=ORIENTED_EDGE('',*,*,#653,.F.);
#835=ORIENTED_EDGE('',*,*,#654,.F.);
#836=ORIENTED_EDGE('',*,*,#655,.F.);
#837=ORIENTED_EDGE('',*,*,#656,.F.);
#838=ORIENTED_EDGE('',*,*,#657,.F.);
#839=ORIENTED_EDGE('',*,*,#658,.F.);
#840=ORIENTED_EDGE('',*,*,#659,.F.);
#841=ORIENTED_EDGE('',*,*,#660,.F.);
#842=ORIENTED_EDGE('',*,*,#661,.F.);
#843=ORIENTED_EDGE('',*,*,#662,.F.);
#844=ORIENTED_EDGE('',*,*,#663,.F.);
#845=ORIENTED_EDGE('',*,*,#664,.F.);
#846=ORIENTED_EDGE('',*,*,#665,.F.);
#847=ORIENTED_EDGE('',*,*,#666,.F.);
#848=ORIENTED_EDGE('',*,*,#667,.F.);
#849=ORIENTED_EDGE('',*,*,#668,.F.);
#850=ORIENTED_EDGE('',*,*,#669,.F.);
#851=ORIENTED_EDGE('',*,*,#670,.F.);
#852=ORIENTED_EDGE('',*,*,#671,.F.);
#853=ORIENTED_EDGE('',*,*,#672,.F.);
#854=ORIENTED_EDGE('',*,*,#673,.F.);
#855=ORIENTED_EDGE('',*,*,#674,.F.);
#856=ORIENTED_EDGE('',*,*,#675,.F.);
#857=ORIENTED_EDGE('',*,*,#676,.F.);
#858=ORIENTED_EDGE('',*,*,#677,.F.);
#859=ORIENTED_EDGE('',*,*,#678,.F.);
#860=ORIENTED_EDGE('',*,*,#679,.F.);
#861=ORIENTED_EDGE('',*,*,#680,.F.);
#862=ORIENTED_EDGE('',*,*,#681,.F.);
#863=ORIENTED_EDGE('',*,*,#682,.F.);
#864=ORIENTED_EDGE('',*,*,#683,.F.);
#865=ORIENTED_EDGE('',*,*,#663,.T.);
#866=ORIENTED_EDGE('',*,*,#684,.F.);
#867=ORIENTED_EDGE('',*,*,#665,.T.);
#868=ORIENTED_EDGE('',*,*,#685,.F.);
#869=ORIENTED_EDGE('',*,*,#662,.T.);
#870=ORIENTED_EDGE('',*,*,#686,.T.);
#871=ORIENTED_EDGE('',*,*,#687,.T.);
#872=ORIENTED_EDGE('',*,*,#688,.F.);
#873=ORIENTED_EDGE('',*,*,#666,.T.);
#874=ORIENTED_EDGE('',*,*,#684,.T.);
#875=ORIENTED_EDGE('',*,*,#661,.T.);
#876=ORIENTED_EDGE('',*,*,#689,.T.);
#877=ORIENTED_EDGE('',*,*,#690,.T.);
#878=ORIENTED_EDGE('',*,*,#686,.F.);
#879=ORIENTED_EDGE('',*,*,#660,.T.);
#880=ORIENTED_EDGE('',*,*,#691,.T.);
#881=ORIENTED_EDGE('',*,*,#692,.T.);
#882=ORIENTED_EDGE('',*,*,#689,.F.);
#883=ORIENTED_EDGE('',*,*,#659,.T.);
#884=ORIENTED_EDGE('',*,*,#693,.T.);
#885=ORIENTED_EDGE('',*,*,#694,.T.);
#886=ORIENTED_EDGE('',*,*,#691,.F.);
#887=ORIENTED_EDGE('',*,*,#658,.T.);
#888=ORIENTED_EDGE('',*,*,#695,.T.);
#889=ORIENTED_EDGE('',*,*,#696,.T.);
#890=ORIENTED_EDGE('',*,*,#693,.F.);
#891=ORIENTED_EDGE('',*,*,#657,.T.);
#892=ORIENTED_EDGE('',*,*,#697,.T.);
#893=ORIENTED_EDGE('',*,*,#698,.T.);
#894=ORIENTED_EDGE('',*,*,#695,.F.);
#895=ORIENTED_EDGE('',*,*,#656,.T.);
#896=ORIENTED_EDGE('',*,*,#699,.T.);
#897=ORIENTED_EDGE('',*,*,#700,.T.);
#898=ORIENTED_EDGE('',*,*,#697,.F.);
#899=ORIENTED_EDGE('',*,*,#655,.T.);
#900=ORIENTED_EDGE('',*,*,#701,.F.);
#901=ORIENTED_EDGE('',*,*,#702,.T.);
#902=ORIENTED_EDGE('',*,*,#699,.F.);
#903=ORIENTED_EDGE('',*,*,#654,.T.);
#904=ORIENTED_EDGE('',*,*,#703,.F.);
#905=ORIENTED_EDGE('',*,*,#704,.T.);
#906=ORIENTED_EDGE('',*,*,#701,.T.);
#907=ORIENTED_EDGE('',*,*,#653,.T.);
#908=ORIENTED_EDGE('',*,*,#705,.T.);
#909=ORIENTED_EDGE('',*,*,#706,.T.);
#910=ORIENTED_EDGE('',*,*,#703,.T.);
#911=ORIENTED_EDGE('',*,*,#652,.T.);
#912=ORIENTED_EDGE('',*,*,#707,.F.);
#913=ORIENTED_EDGE('',*,*,#708,.T.);
#914=ORIENTED_EDGE('',*,*,#705,.F.);
#915=ORIENTED_EDGE('',*,*,#651,.T.);
#916=ORIENTED_EDGE('',*,*,#709,.T.);
#917=ORIENTED_EDGE('',*,*,#710,.T.);
#918=ORIENTED_EDGE('',*,*,#707,.T.);
#919=ORIENTED_EDGE('',*,*,#650,.T.);
#920=ORIENTED_EDGE('',*,*,#711,.T.);
#921=ORIENTED_EDGE('',*,*,#712,.T.);
#922=ORIENTED_EDGE('',*,*,#709,.F.);
#923=ORIENTED_EDGE('',*,*,#646,.T.);
#924=ORIENTED_EDGE('',*,*,#713,.F.);
#925=ORIENTED_EDGE('',*,*,#714,.T.);
#926=ORIENTED_EDGE('',*,*,#715,.F.);
#927=ORIENTED_EDGE('',*,*,#645,.T.);
#928=ORIENTED_EDGE('',*,*,#716,.F.);
#929=ORIENTED_EDGE('',*,*,#717,.T.);
#930=ORIENTED_EDGE('',*,*,#713,.T.);
#931=ORIENTED_EDGE('',*,*,#649,.T.);
#932=ORIENTED_EDGE('',*,*,#718,.F.);
#933=ORIENTED_EDGE('',*,*,#719,.T.);
#934=ORIENTED_EDGE('',*,*,#711,.F.);
#935=ORIENTED_EDGE('',*,*,#644,.T.);
#936=ORIENTED_EDGE('',*,*,#720,.T.);
#937=ORIENTED_EDGE('',*,*,#721,.T.);
#938=ORIENTED_EDGE('',*,*,#716,.T.);
#939=ORIENTED_EDGE('',*,*,#664,.T.);
#940=ORIENTED_EDGE('',*,*,#685,.T.);
#941=ORIENTED_EDGE('',*,*,#722,.F.);
#942=ORIENTED_EDGE('',*,*,#723,.F.);
#943=ORIENTED_EDGE('',*,*,#724,.T.);
#944=ORIENTED_EDGE('',*,*,#725,.T.);
#945=ORIENTED_EDGE('',*,*,#722,.T.);
#946=ORIENTED_EDGE('',*,*,#726,.T.);
#947=ORIENTED_EDGE('',*,*,#727,.T.);
#948=ORIENTED_EDGE('',*,*,#728,.T.);
#949=ORIENTED_EDGE('',*,*,#729,.F.);
#950=ORIENTED_EDGE('',*,*,#730,.F.);
#951=ORIENTED_EDGE('',*,*,#726,.F.);
#952=ORIENTED_EDGE('',*,*,#725,.F.);
#953=ORIENTED_EDGE('',*,*,#731,.F.);
#954=ORIENTED_EDGE('',*,*,#732,.T.);
#955=ORIENTED_EDGE('',*,*,#679,.T.);
#956=ORIENTED_EDGE('',*,*,#733,.T.);
#957=ORIENTED_EDGE('',*,*,#729,.T.);
#958=ORIENTED_EDGE('',*,*,#734,.T.);
#959=ORIENTED_EDGE('',*,*,#680,.T.);
#960=ORIENTED_EDGE('',*,*,#734,.F.);
#961=ORIENTED_EDGE('',*,*,#732,.F.);
#962=ORIENTED_EDGE('',*,*,#735,.F.);
#963=ORIENTED_EDGE('',*,*,#723,.T.);
#964=ORIENTED_EDGE('',*,*,#728,.F.);
#965=ORIENTED_EDGE('',*,*,#736,.F.);
#966=ORIENTED_EDGE('',*,*,#737,.F.);
#967=ORIENTED_EDGE('',*,*,#738,.F.);
#968=ORIENTED_EDGE('',*,*,#678,.T.);
#969=ORIENTED_EDGE('',*,*,#739,.F.);
#970=ORIENTED_EDGE('',*,*,#736,.T.);
#971=ORIENTED_EDGE('',*,*,#727,.F.);
#972=ORIENTED_EDGE('',*,*,#730,.T.);
#973=ORIENTED_EDGE('',*,*,#733,.F.);
#974=ORIENTED_EDGE('',*,*,#681,.T.);
#975=ORIENTED_EDGE('',*,*,#735,.T.);
#976=ORIENTED_EDGE('',*,*,#731,.T.);
#977=ORIENTED_EDGE('',*,*,#724,.F.);
#978=ORIENTED_EDGE('',*,*,#738,.T.);
#979=ORIENTED_EDGE('',*,*,#740,.F.);
#980=ORIENTED_EDGE('',*,*,#741,.F.);
#981=ORIENTED_EDGE('',*,*,#742,.T.);
#982=ORIENTED_EDGE('',*,*,#743,.F.);
#983=ORIENTED_EDGE('',*,*,#742,.F.);
#984=ORIENTED_EDGE('',*,*,#744,.F.);
#985=ORIENTED_EDGE('',*,*,#745,.T.);
#986=ORIENTED_EDGE('',*,*,#746,.F.);
#987=ORIENTED_EDGE('',*,*,#745,.F.);
#988=ORIENTED_EDGE('',*,*,#747,.F.);
#989=ORIENTED_EDGE('',*,*,#748,.T.);
#990=ORIENTED_EDGE('',*,*,#749,.F.);
#991=ORIENTED_EDGE('',*,*,#750,.F.);
#992=ORIENTED_EDGE('',*,*,#751,.F.);
#993=ORIENTED_EDGE('',*,*,#750,.T.);
#994=ORIENTED_EDGE('',*,*,#752,.F.);
#995=ORIENTED_EDGE('',*,*,#753,.F.);
#996=ORIENTED_EDGE('',*,*,#743,.T.);
#997=ORIENTED_EDGE('',*,*,#746,.T.);
#998=ORIENTED_EDGE('',*,*,#754,.F.);
#999=ORIENTED_EDGE('',*,*,#753,.T.);
#1000=ORIENTED_EDGE('',*,*,#755,.F.);
#1001=ORIENTED_EDGE('',*,*,#756,.F.);
#1002=ORIENTED_EDGE('',*,*,#757,.F.);
#1003=ORIENTED_EDGE('',*,*,#756,.T.);
#1004=ORIENTED_EDGE('',*,*,#758,.F.);
#1005=ORIENTED_EDGE('',*,*,#748,.F.);
#1006=ORIENTED_EDGE('',*,*,#741,.T.);
#1007=ORIENTED_EDGE('',*,*,#744,.T.);
#1008=ORIENTED_EDGE('',*,*,#758,.T.);
#1009=ORIENTED_EDGE('',*,*,#755,.T.);
#1010=ORIENTED_EDGE('',*,*,#752,.T.);
#1011=ORIENTED_EDGE('',*,*,#749,.T.);
#1012=ORIENTED_EDGE('',*,*,#759,.F.);
#1013=ORIENTED_EDGE('',*,*,#760,.T.);
#1014=ORIENTED_EDGE('',*,*,#761,.F.);
#1015=ORIENTED_EDGE('',*,*,#762,.F.);
#1016=ORIENTED_EDGE('',*,*,#763,.F.);
#1017=ORIENTED_EDGE('',*,*,#764,.T.);
#1018=ORIENTED_EDGE('',*,*,#765,.F.);
#1019=ORIENTED_EDGE('',*,*,#760,.F.);
#1020=ORIENTED_EDGE('',*,*,#766,.F.);
#1021=ORIENTED_EDGE('',*,*,#767,.T.);
#1022=ORIENTED_EDGE('',*,*,#768,.F.);
#1023=ORIENTED_EDGE('',*,*,#764,.F.);
#1024=ORIENTED_EDGE('',*,*,#769,.F.);
#1025=ORIENTED_EDGE('',*,*,#762,.T.);
#1026=ORIENTED_EDGE('',*,*,#770,.F.);
#1027=ORIENTED_EDGE('',*,*,#767,.F.);
#1028=ORIENTED_EDGE('',*,*,#669,.T.);
#1029=ORIENTED_EDGE('',*,*,#771,.F.);
#1030=ORIENTED_EDGE('',*,*,#642,.T.);
#1031=ORIENTED_EDGE('',*,*,#772,.F.);
#1032=ORIENTED_EDGE('',*,*,#702,.F.);
#1033=ORIENTED_EDGE('',*,*,#704,.F.);
#1034=ORIENTED_EDGE('',*,*,#706,.F.);
#1035=ORIENTED_EDGE('',*,*,#708,.F.);
#1036=ORIENTED_EDGE('',*,*,#710,.F.);
#1037=ORIENTED_EDGE('',*,*,#712,.F.);
#1038=ORIENTED_EDGE('',*,*,#719,.F.);
#1039=ORIENTED_EDGE('',*,*,#721,.F.);
#1040=ORIENTED_EDGE('',*,*,#773,.F.);
#1041=ORIENTED_EDGE('',*,*,#774,.F.);
#1042=ORIENTED_EDGE('',*,*,#687,.F.);
#1043=ORIENTED_EDGE('',*,*,#690,.F.);
#1044=ORIENTED_EDGE('',*,*,#692,.F.);
#1045=ORIENTED_EDGE('',*,*,#694,.F.);
#1046=ORIENTED_EDGE('',*,*,#696,.F.);
#1047=ORIENTED_EDGE('',*,*,#698,.F.);
#1048=ORIENTED_EDGE('',*,*,#700,.F.);
#1049=ORIENTED_EDGE('',*,*,#761,.T.);
#1050=ORIENTED_EDGE('',*,*,#765,.T.);
#1051=ORIENTED_EDGE('',*,*,#768,.T.);
#1052=ORIENTED_EDGE('',*,*,#770,.T.);
#1053=ORIENTED_EDGE('',*,*,#775,.F.);
#1054=ORIENTED_EDGE('',*,*,#776,.F.);
#1055=ORIENTED_EDGE('',*,*,#777,.F.);
#1056=ORIENTED_EDGE('',*,*,#714,.F.);
#1057=ORIENTED_EDGE('',*,*,#717,.F.);
#1058=ORIENTED_EDGE('',*,*,#639,.T.);
#1059=ORIENTED_EDGE('',*,*,#778,.T.);
#1060=ORIENTED_EDGE('',*,*,#779,.F.);
#1061=ORIENTED_EDGE('',*,*,#778,.F.);
#1062=ORIENTED_EDGE('',*,*,#775,.T.);
#1063=ORIENTED_EDGE('',*,*,#780,.T.);
#1064=ORIENTED_EDGE('',*,*,#638,.T.);
#1065=ORIENTED_EDGE('',*,*,#780,.F.);
#1066=ORIENTED_EDGE('',*,*,#667,.T.);
#1067=ORIENTED_EDGE('',*,*,#688,.T.);
#1068=ORIENTED_EDGE('',*,*,#774,.T.);
#1069=ORIENTED_EDGE('',*,*,#781,.F.);
#1070=ORIENTED_EDGE('',*,*,#668,.T.);
#1071=ORIENTED_EDGE('',*,*,#781,.T.);
#1072=ORIENTED_EDGE('',*,*,#773,.T.);
#1073=ORIENTED_EDGE('',*,*,#720,.F.);
#1074=ORIENTED_EDGE('',*,*,#643,.T.);
#1075=ORIENTED_EDGE('',*,*,#771,.T.);
#1076=ORIENTED_EDGE('',*,*,#648,.T.);
#1077=ORIENTED_EDGE('',*,*,#782,.F.);
#1078=ORIENTED_EDGE('',*,*,#776,.T.);
#1079=ORIENTED_EDGE('',*,*,#718,.T.);
#1080=ORIENTED_EDGE('',*,*,#783,.T.);
#1081=ORIENTED_EDGE('',*,*,#784,.T.);
#1082=ORIENTED_EDGE('',*,*,#785,.T.);
#1083=ORIENTED_EDGE('',*,*,#786,.T.);
#1084=ORIENTED_EDGE('',*,*,#787,.T.);
#1085=ORIENTED_EDGE('',*,*,#788,.T.);
#1086=ORIENTED_EDGE('',*,*,#789,.T.);
#1087=ORIENTED_EDGE('',*,*,#790,.T.);
#1088=ORIENTED_EDGE('',*,*,#791,.T.);
#1089=ORIENTED_EDGE('',*,*,#792,.T.);
#1090=ORIENTED_EDGE('',*,*,#747,.T.);
#1091=ORIENTED_EDGE('',*,*,#751,.T.);
#1092=ORIENTED_EDGE('',*,*,#754,.T.);
#1093=ORIENTED_EDGE('',*,*,#757,.T.);
#1094=ORIENTED_EDGE('',*,*,#759,.T.);
#1095=ORIENTED_EDGE('',*,*,#769,.T.);
#1096=ORIENTED_EDGE('',*,*,#766,.T.);
#1097=ORIENTED_EDGE('',*,*,#763,.T.);
#1098=ORIENTED_EDGE('',*,*,#779,.T.);
#1099=ORIENTED_EDGE('',*,*,#793,.T.);
#1100=ORIENTED_EDGE('',*,*,#683,.T.);
#1101=ORIENTED_EDGE('',*,*,#794,.T.);
#1102=ORIENTED_EDGE('',*,*,#793,.F.);
#1103=ORIENTED_EDGE('',*,*,#794,.F.);
#1104=ORIENTED_EDGE('',*,*,#647,.T.);
#1105=ORIENTED_EDGE('',*,*,#715,.T.);
#1106=ORIENTED_EDGE('',*,*,#777,.T.);
#1107=ORIENTED_EDGE('',*,*,#782,.T.);
#1108=ORIENTED_EDGE('',*,*,#640,.T.);
#1109=ORIENTED_EDGE('',*,*,#795,.F.);
#1110=ORIENTED_EDGE('',*,*,#792,.F.);
#1111=ORIENTED_EDGE('',*,*,#796,.F.);
#1112=ORIENTED_EDGE('',*,*,#670,.T.);
#1113=ORIENTED_EDGE('',*,*,#772,.T.);
#1114=ORIENTED_EDGE('',*,*,#641,.T.);
#1115=ORIENTED_EDGE('',*,*,#796,.T.);
#1116=ORIENTED_EDGE('',*,*,#791,.F.);
#1117=ORIENTED_EDGE('',*,*,#797,.F.);
#1118=ORIENTED_EDGE('',*,*,#671,.T.);
#1119=ORIENTED_EDGE('',*,*,#797,.T.);
#1120=ORIENTED_EDGE('',*,*,#790,.F.);
#1121=ORIENTED_EDGE('',*,*,#798,.F.);
#1122=ORIENTED_EDGE('',*,*,#635,.T.);
#1123=ORIENTED_EDGE('',*,*,#629,.T.);
#1124=ORIENTED_EDGE('',*,*,#634,.T.);
#1125=ORIENTED_EDGE('',*,*,#637,.T.);
#1126=ORIENTED_EDGE('',*,*,#672,.T.);
#1127=ORIENTED_EDGE('',*,*,#798,.T.);
#1128=ORIENTED_EDGE('',*,*,#789,.F.);
#1129=ORIENTED_EDGE('',*,*,#799,.F.);
#1130=ORIENTED_EDGE('',*,*,#673,.T.);
#1131=ORIENTED_EDGE('',*,*,#799,.T.);
#1132=ORIENTED_EDGE('',*,*,#788,.F.);
#1133=ORIENTED_EDGE('',*,*,#800,.F.);
#1134=ORIENTED_EDGE('',*,*,#674,.T.);
#1135=ORIENTED_EDGE('',*,*,#800,.T.);
#1136=ORIENTED_EDGE('',*,*,#787,.F.);
#1137=ORIENTED_EDGE('',*,*,#801,.F.);
#1138=ORIENTED_EDGE('',*,*,#675,.T.);
#1139=ORIENTED_EDGE('',*,*,#801,.T.);
#1140=ORIENTED_EDGE('',*,*,#786,.F.);
#1141=ORIENTED_EDGE('',*,*,#802,.F.);
#1142=ORIENTED_EDGE('',*,*,#676,.T.);
#1143=ORIENTED_EDGE('',*,*,#802,.T.);
#1144=ORIENTED_EDGE('',*,*,#785,.F.);
#1145=ORIENTED_EDGE('',*,*,#803,.F.);
#1146=ORIENTED_EDGE('',*,*,#677,.T.);
#1147=ORIENTED_EDGE('',*,*,#803,.T.);
#1148=ORIENTED_EDGE('',*,*,#784,.F.);
#1149=ORIENTED_EDGE('',*,*,#804,.F.);
#1150=ORIENTED_EDGE('',*,*,#737,.T.);
#1151=ORIENTED_EDGE('',*,*,#739,.T.);
#1152=ORIENTED_EDGE('',*,*,#682,.T.);
#1153=ORIENTED_EDGE('',*,*,#740,.T.);
#1154=ORIENTED_EDGE('',*,*,#804,.T.);
#1155=ORIENTED_EDGE('',*,*,#783,.F.);
#1156=ORIENTED_EDGE('',*,*,#795,.T.);
#1157=PLANE('',#1288);
#1158=PLANE('',#1295);
#1159=PLANE('',#1296);
#1160=PLANE('',#1299);
#1161=PLANE('',#1308);
#1162=PLANE('',#1309);
#1163=PLANE('',#1310);
#1164=PLANE('',#1311);
#1165=PLANE('',#1312);
#1166=PLANE('',#1313);
#1167=PLANE('',#1314);
#1168=PLANE('',#1317);
#1169=PLANE('',#1320);
#1170=PLANE('',#1323);
#1171=PLANE('',#1326);
#1172=PLANE('',#1327);
#1173=PLANE('',#1328);
#1174=PLANE('',#1329);
#1175=PLANE('',#1330);
#1176=PLANE('',#1331);
#1177=PLANE('',#1332);
#1178=PLANE('',#1333);
#1179=PLANE('',#1334);
#1180=PLANE('',#1335);
#1181=PLANE('',#1336);
#1182=PLANE('',#1337);
#1183=PLANE('',#1344);
#1184=PLANE('',#1345);
#1185=PLANE('',#1346);
#1186=PLANE('',#1347);
#1187=PLANE('',#1348);
#1188=PLANE('',#1349);
#1189=PLANE('',#1350);
#1190=PLANE('',#1351);
#1191=PLANE('',#1352);
#1192=PLANE('',#1356);
#1193=PLANE('',#1358);
#1194=PLANE('',#1362);
#1195=PLANE('',#1363);
#1196=PLANE('',#1364);
#1197=PLANE('',#1365);
#1198=PLANE('',#1368);
#1199=PLANE('',#1369);
#1200=PLANE('',#1370);
#1201=PLANE('',#1371);
#1202=PLANE('',#1372);
#1203=PLANE('',#1373);
#1204=PLANE('',#1374);
#1205=PLANE('',#1375);
#1206=PLANE('',#1376);
#1207=PLANE('',#1377);
#1208=PLANE('',#1378);
#1209=ADVANCED_FACE('',(#43,#28),#1157,.F.);
#1210=ADVANCED_FACE('',(#44),#15,.F.);
#1211=ADVANCED_FACE('',(#45),#16,.T.);
#1212=ADVANCED_FACE('',(#46,#29),#1158,.T.);
#1213=ADVANCED_FACE('',(#47,#30),#1159,.F.);
#1214=ADVANCED_FACE('',(#48,#31),#1160,.F.);
#1215=ADVANCED_FACE('',(#49),#17,.T.);
#1216=ADVANCED_FACE('',(#50),#1161,.F.);
#1217=ADVANCED_FACE('',(#51),#1162,.F.);
#1218=ADVANCED_FACE('',(#52),#1163,.F.);
#1219=ADVANCED_FACE('',(#53),#1164,.F.);
#1220=ADVANCED_FACE('',(#54),#1165,.F.);
#1221=ADVANCED_FACE('',(#55),#1166,.F.);
#1222=ADVANCED_FACE('',(#56),#1167,.F.);
#1223=ADVANCED_FACE('',(#57),#18,.T.);
#1224=ADVANCED_FACE('',(#58),#1168,.T.);
#1225=ADVANCED_FACE('',(#59),#19,.T.);
#1226=ADVANCED_FACE('',(#60),#1169,.T.);
#1227=ADVANCED_FACE('',(#61),#20,.T.);
#1228=ADVANCED_FACE('',(#62),#1170,.T.);
#1229=ADVANCED_FACE('',(#63),#21,.T.);
#1230=ADVANCED_FACE('',(#64),#1171,.F.);
#1231=ADVANCED_FACE('',(#65),#1172,.T.);
#1232=ADVANCED_FACE('',(#66),#1173,.F.);
#1233=ADVANCED_FACE('',(#67),#1174,.F.);
#1234=ADVANCED_FACE('',(#68),#1175,.T.);
#1235=ADVANCED_FACE('',(#69),#1176,.F.);
#1236=ADVANCED_FACE('',(#70),#1177,.T.);
#1237=ADVANCED_FACE('',(#71),#1178,.T.);
#1238=ADVANCED_FACE('',(#72),#1179,.T.);
#1239=ADVANCED_FACE('',(#73),#1180,.T.);
#1240=ADVANCED_FACE('',(#74),#1181,.T.);
#1241=ADVANCED_FACE('',(#75),#1182,.F.);
#1242=ADVANCED_FACE('',(#76),#22,.F.);
#1243=ADVANCED_FACE('',(#77),#23,.F.);
#1244=ADVANCED_FACE('',(#78),#1183,.T.);
#1245=ADVANCED_FACE('',(#79,#32,#33),#1184,.T.);
#1246=ADVANCED_FACE('',(#80),#1185,.T.);
#1247=ADVANCED_FACE('',(#81,#34,#35),#1186,.T.);
#1248=ADVANCED_FACE('',(#82),#1187,.T.);
#1249=ADVANCED_FACE('',(#83),#1188,.F.);
#1250=ADVANCED_FACE('',(#84),#1189,.F.);
#1251=ADVANCED_FACE('',(#85),#1190,.F.);
#1252=ADVANCED_FACE('',(#86),#1191,.F.);
#1253=ADVANCED_FACE('',(#87),#24,.F.);
#1254=ADVANCED_FACE('',(#88,#36,#37),#1192,.F.);
#1255=ADVANCED_FACE('',(#89),#1193,.F.);
#1256=ADVANCED_FACE('',(#90),#25,.F.);
#1257=ADVANCED_FACE('',(#91),#26,.T.);
#1258=ADVANCED_FACE('',(#92),#1194,.F.);
#1259=ADVANCED_FACE('',(#93),#1195,.F.);
#1260=ADVANCED_FACE('',(#94),#1196,.T.);
#1261=ADVANCED_FACE('',(#95,#38,#39,#40,#41),#1197,.T.);
#1262=ADVANCED_FACE('',(#96),#27,.F.);
#1263=ADVANCED_FACE('',(#97),#1198,.T.);
#1264=ADVANCED_FACE('',(#98),#1199,.T.);
#1265=ADVANCED_FACE('',(#99),#1200,.T.);
#1266=ADVANCED_FACE('',(#100,#42),#1201,.T.);
#1267=ADVANCED_FACE('',(#101),#1202,.T.);
#1268=ADVANCED_FACE('',(#102),#1203,.T.);
#1269=ADVANCED_FACE('',(#103),#1204,.T.);
#1270=ADVANCED_FACE('',(#104),#1205,.T.);
#1271=ADVANCED_FACE('',(#105),#1206,.T.);
#1272=ADVANCED_FACE('',(#106),#1207,.T.);
#1273=ADVANCED_FACE('',(#107),#1208,.T.);
#1274=CLOSED_SHELL('',(#1209,#1210,#1211,#1212,#1213,#1214,#1215,#1216,
#1217,#1218,#1219,#1220,#1221,#1222,#1223,#1224,#1225,#1226,#1227,#1228,
#1229,#1230,#1231,#1232,#1233,#1234,#1235,#1236,#1237,#1238,#1239,#1240,
#1241,#1242,#1243,#1244,#1245,#1246,#1247,#1248,#1249,#1250,#1251,#1252,
#1253,#1254,#1255,#1256,#1257,#1258,#1259,#1260,#1261,#1262,#1263,#1264,
#1265,#1266,#1267,#1268,#1269,#1270,#1271,#1272,#1273));
#1275=DERIVED_UNIT_ELEMENT(#1277,1.);
#1276=DERIVED_UNIT_ELEMENT(#2075,-3.);
#1277=(
MASS_UNIT()
NAMED_UNIT(*)
SI_UNIT(.KILO.,.GRAM.)
);
#1278=DERIVED_UNIT((#1275,#1276));
#1279=MEASURE_REPRESENTATION_ITEM('density measure',
POSITIVE_RATIO_MEASURE(7850.),#1278);
#1280=PROPERTY_DEFINITION_REPRESENTATION(#1285,#1282);
#1281=PROPERTY_DEFINITION_REPRESENTATION(#1286,#1283);
#1282=REPRESENTATION('material name',(#1284),#2072);
#1283=REPRESENTATION('density',(#1279),#2072);
#1284=DESCRIPTIVE_REPRESENTATION_ITEM('Steel','Steel');
#1285=PROPERTY_DEFINITION('material property','material name',#2082);
#1286=PROPERTY_DEFINITION('material property','density of part',#2082);
#1287=AXIS2_PLACEMENT_3D('',#1713,#1379,#1380);
#1288=AXIS2_PLACEMENT_3D('',#1714,#1381,#1382);
#1289=AXIS2_PLACEMENT_3D('',#1718,#1384,#1385);
#1290=AXIS2_PLACEMENT_3D('',#1720,#1386,#1387);
#1291=AXIS2_PLACEMENT_3D('',#1721,#1388,#1389);
#1292=AXIS2_PLACEMENT_3D('',#1724,#1391,#1392);
#1293=AXIS2_PLACEMENT_3D('',#1725,#1393,#1394);
#1294=AXIS2_PLACEMENT_3D('',#1730,#1397,#1398);
#1295=AXIS2_PLACEMENT_3D('',#1731,#1399,#1400);
#1296=AXIS2_PLACEMENT_3D('',#1733,#1402,#1403);
#1297=AXIS2_PLACEMENT_3D('',#1735,#1404,#1405);
#1298=AXIS2_PLACEMENT_3D('',#1737,#1406,#1407);
#1299=AXIS2_PLACEMENT_3D('',#1738,#1408,#1409);
#1300=AXIS2_PLACEMENT_3D('',#1753,#1416,#1417);
#1301=AXIS2_PLACEMENT_3D('',#1762,#1422,#1423);
#1302=AXIS2_PLACEMENT_3D('',#1766,#1425,#1426);
#1303=AXIS2_PLACEMENT_3D('',#1770,#1428,#1429);
#1304=AXIS2_PLACEMENT_3D('',#1825,#1457,#1458);
#1305=AXIS2_PLACEMENT_3D('',#1826,#1459,#1460);
#1306=AXIS2_PLACEMENT_3D('',#1827,#1461,#1462);
#1307=AXIS2_PLACEMENT_3D('',#1828,#1463,#1464);
#1308=AXIS2_PLACEMENT_3D('',#1829,#1465,#1466);
#1309=AXIS2_PLACEMENT_3D('',#1835,#1470,#1471);
#1310=AXIS2_PLACEMENT_3D('',#1839,#1474,#1475);
#1311=AXIS2_PLACEMENT_3D('',#1843,#1478,#1479);
#1312=AXIS2_PLACEMENT_3D('',#1847,#1482,#1483);
#1313=AXIS2_PLACEMENT_3D('',#1851,#1486,#1487);
#1314=AXIS2_PLACEMENT_3D('',#1855,#1490,#1491);
#1315=AXIS2_PLACEMENT_3D('',#1859,#1494,#1495);
#1316=AXIS2_PLACEMENT_3D('',#1862,#1497,#1498);
#1317=AXIS2_PLACEMENT_3D('',#1863,#1499,#1500);
#1318=AXIS2_PLACEMENT_3D('',#1867,#1503,#1504);
#1319=AXIS2_PLACEMENT_3D('',#1870,#1506,#1507);
#1320=AXIS2_PLACEMENT_3D('',#1871,#1508,#1509);
#1321=AXIS2_PLACEMENT_3D('',#1875,#1512,#1513);
#1322=AXIS2_PLACEMENT_3D('',#1878,#1515,#1516);
#1323=AXIS2_PLACEMENT_3D('',#1879,#1517,#1518);
#1324=AXIS2_PLACEMENT_3D('',#1883,#1521,#1522);
#1325=AXIS2_PLACEMENT_3D('',#1887,#1524,#1525);
#1326=AXIS2_PLACEMENT_3D('',#1889,#1527,#1528);
#1327=AXIS2_PLACEMENT_3D('',#1893,#1531,#1532);
#1328=AXIS2_PLACEMENT_3D('',#1896,#1535,#1536);
#1329=AXIS2_PLACEMENT_3D('',#1900,#1539,#1540);
#1330=AXIS2_PLACEMENT_3D('',#1901,#1541,#1542);
#1331=AXIS2_PLACEMENT_3D('',#1910,#1547,#1548);
#1332=AXIS2_PLACEMENT_3D('',#1916,#1552,#1553);
#1333=AXIS2_PLACEMENT_3D('',#1924,#1558,#1559);
#1334=AXIS2_PLACEMENT_3D('',#1927,#1562,#1563);
#1335=AXIS2_PLACEMENT_3D('',#1929,#1565,#1566);
#1336=AXIS2_PLACEMENT_3D('',#1935,#1570,#1571);
#1337=AXIS2_PLACEMENT_3D('',#1937,#1573,#1574);
#1338=AXIS2_PLACEMENT_3D('',#1939,#1576,#1577);
#1339=AXIS2_PLACEMENT_3D('',#1941,#1578,#1579);
#1340=AXIS2_PLACEMENT_3D('',#1944,#1581,#1582);
#1341=AXIS2_PLACEMENT_3D('',#1945,#1583,#1584);
#1342=AXIS2_PLACEMENT_3D('',#1947,#1585,#1586);
#1343=AXIS2_PLACEMENT_3D('',#1950,#1588,#1589);
#1344=AXIS2_PLACEMENT_3D('',#1951,#1590,#1591);
#1345=AXIS2_PLACEMENT_3D('',#1960,#1596,#1597);
#1346=AXIS2_PLACEMENT_3D('',#1966,#1601,#1602);
#1347=AXIS2_PLACEMENT_3D('',#1972,#1606,#1607);
#1348=AXIS2_PLACEMENT_3D('',#1975,#1610,#1611);
#1349=AXIS2_PLACEMENT_3D('',#1976,#1612,#1613);
#1350=AXIS2_PLACEMENT_3D('',#1985,#1618,#1619);
#1351=AXIS2_PLACEMENT_3D('',#1991,#1623,#1624);
#1352=AXIS2_PLACEMENT_3D('',#1997,#1628,#1629);
#1353=AXIS2_PLACEMENT_3D('',#2000,#1632,#1633);
#1354=AXIS2_PLACEMENT_3D('',#2001,#1634,#1635);
#1355=AXIS2_PLACEMENT_3D('',#2002,#1636,#1637);
#1356=AXIS2_PLACEMENT_3D('',#2003,#1638,#1639);
#1357=AXIS2_PLACEMENT_3D('',#2008,#1642,#1643);
#1358=AXIS2_PLACEMENT_3D('',#2009,#1644,#1645);
#1359=AXIS2_PLACEMENT_3D('',#2013,#1648,#1649);
#1360=AXIS2_PLACEMENT_3D('',#2016,#1651,#1652);
#1361=AXIS2_PLACEMENT_3D('',#2017,#1653,#1654);
#1362=AXIS2_PLACEMENT_3D('',#2019,#1656,#1657);
#1363=AXIS2_PLACEMENT_3D('',#2021,#1659,#1660);
#1364=AXIS2_PLACEMENT_3D('',#2022,#1661,#1662);
#1365=AXIS2_PLACEMENT_3D('',#2024,#1664,#1665);
#1366=AXIS2_PLACEMENT_3D('',#2046,#1676,#1677);
#1367=AXIS2_PLACEMENT_3D('',#2047,#1678,#1679);
#1368=AXIS2_PLACEMENT_3D('',#2049,#1681,#1682);
#1369=AXIS2_PLACEMENT_3D('',#2050,#1683,#1684);
#1370=AXIS2_PLACEMENT_3D('',#2053,#1687,#1688);
#1371=AXIS2_PLACEMENT_3D('',#2055,#1690,#1691);
#1372=AXIS2_PLACEMENT_3D('',#2057,#1693,#1694);
#1373=AXIS2_PLACEMENT_3D('',#2059,#1696,#1697);
#1374=AXIS2_PLACEMENT_3D('',#2061,#1699,#1700);
#1375=AXIS2_PLACEMENT_3D('',#2063,#1702,#1703);
#1376=AXIS2_PLACEMENT_3D('',#2065,#1705,#1706);
#1377=AXIS2_PLACEMENT_3D('',#2067,#1708,#1709);
#1378=AXIS2_PLACEMENT_3D('',#2069,#1711,#1712);
#1379=DIRECTION('axis',(0.,0.,1.));
#1380=DIRECTION('refdir',(1.,0.,0.));
#1381=DIRECTION('center_axis',(0.,0.,1.));
#1382=DIRECTION('ref_axis',(1.,0.,0.));
#1383=DIRECTION('',(1.,0.,0.));
#1384=DIRECTION('center_axis',(0.,0.,-1.));
#1385=DIRECTION('ref_axis',(1.,0.,0.));
#1386=DIRECTION('center_axis',(0.,0.,1.));
#1387=DIRECTION('ref_axis',(1.,0.,0.));
#1388=DIRECTION('center_axis',(0.,0.,-1.));
#1389=DIRECTION('ref_axis',(1.,0.,0.));
#1390=DIRECTION('',(0.,0.,1.));
#1391=DIRECTION('center_axis',(0.,0.,-1.));
#1392=DIRECTION('ref_axis',(1.,0.,0.));
#1393=DIRECTION('center_axis',(0.,0.,-1.));
#1394=DIRECTION('ref_axis',(1.,0.,0.));
#1395=DIRECTION('',(0.,0.,1.));
#1396=DIRECTION('',(0.,0.,-1.));
#1397=DIRECTION('center_axis',(0.,0.,1.));
#1398=DIRECTION('ref_axis',(1.,0.,0.));
#1399=DIRECTION('center_axis',(0.,0.,1.));
#1400=DIRECTION('ref_axis',(1.,0.,0.));
#1401=DIRECTION('',(-1.,0.,0.));
#1402=DIRECTION('center_axis',(0.,0.,1.));
#1403=DIRECTION('ref_axis',(1.,0.,0.));
#1404=DIRECTION('center_axis',(0.,0.,1.));
#1405=DIRECTION('ref_axis',(1.,0.,0.));
#1406=DIRECTION('center_axis',(0.,0.,-1.));
#1407=DIRECTION('ref_axis',(1.,0.,0.));
#1408=DIRECTION('center_axis',(0.,0.,1.));
#1409=DIRECTION('ref_axis',(1.,0.,0.));
#1410=DIRECTION('',(1.,0.,0.));
#1411=DIRECTION('',(0.,-1.,0.));
#1412=DIRECTION('',(-1.,0.,0.));
#1413=DIRECTION('',(0.,1.,0.));
#1414=DIRECTION('',(-1.,0.,0.));
#1415=DIRECTION('',(-0.499999999999999,0.866025403784439,0.));
#1416=DIRECTION('center_axis',(0.,0.,1.));
#1417=DIRECTION('ref_axis',(1.,0.,0.));
#1418=DIRECTION('',(1.,-2.19134751146495E-8,0.));
#1419=DIRECTION('',(0.514497742535215,-0.8574917334448,0.));
#1420=DIRECTION('',(0.,-1.,0.));
#1421=DIRECTION('',(-1.,0.,0.));
#1422=DIRECTION('center_axis',(0.,0.,1.));
#1423=DIRECTION('ref_axis',(0.707106781186548,0.707106781186548,0.));
#1424=DIRECTION('',(0.,1.,0.));
#1425=DIRECTION('center_axis',(0.,0.,1.));
#1426=DIRECTION('ref_axis',(0.707106773438964,-0.707106788934131,0.));
#1427=DIRECTION('',(1.,-2.19134751146495E-8,0.));
#1428=DIRECTION('center_axis',(0.,0.,1.));
#1429=DIRECTION('ref_axis',(1.,0.,0.));
#1430=DIRECTION('',(-0.499999999999999,0.866025403784439,0.));
#1431=DIRECTION('',(-1.,-1.38348285443961E-15,0.));
#1432=DIRECTION('',(0.,-1.,0.));
#1433=DIRECTION('',(-1.,0.,0.));
#1434=DIRECTION('',(0.,-1.,0.));
#1435=DIRECTION('',(-1.,0.,0.));
#1436=DIRECTION('',(0.,-1.,0.));
#1437=DIRECTION('',(1.,0.,0.));
#1438=DIRECTION('',(0.,-1.,0.));
#1439=DIRECTION('',(-1.,0.,0.));
#1440=DIRECTION('',(0.,-1.,0.));
#1441=DIRECTION('',(1.,0.,0.));
#1442=DIRECTION('',(0.,1.,0.));
#1443=DIRECTION('',(1.,0.,0.));
#1444=DIRECTION('',(0.,-1.,0.));
#1445=DIRECTION('',(-1.,0.,0.));
#1446=DIRECTION('',(0.,1.,0.));
#1447=DIRECTION('',(1.,0.,0.));
#1448=DIRECTION('',(0.,1.,0.));
#1449=DIRECTION('',(1.,0.,0.));
#1450=DIRECTION('',(0.,1.,0.));
#1451=DIRECTION('',(1.,1.38348285443961E-15,0.));
#1452=DIRECTION('',(0.,1.,0.));
#1453=DIRECTION('',(1.,0.,0.));
#1454=DIRECTION('',(0.,-1.,0.));
#1455=DIRECTION('',(-1.,0.,0.));
#1456=DIRECTION('',(0.499999999999999,-0.866025403784439,0.));
#1457=DIRECTION('center_axis',(0.,0.,-1.));
#1458=DIRECTION('ref_axis',(1.,0.,0.));
#1459=DIRECTION('center_axis',(-1.,0.,0.));
#1460=DIRECTION('ref_axis',(0.,-1.22464679914735E-16,1.));
#1461=DIRECTION('center_axis',(1.,0.,0.));
#1462=DIRECTION('ref_axis',(0.,0.,-1.));
#1463=DIRECTION('center_axis',(-1.,0.,0.));
#1464=DIRECTION('ref_axis',(0.,0.,-1.));
#1465=DIRECTION('center_axis',(1.,0.,0.));
#1466=DIRECTION('ref_axis',(0.,1.,0.));
#1467=DIRECTION('',(0.,0.,1.));
#1468=DIRECTION('',(0.,1.,0.));
#1469=DIRECTION('',(0.,0.,1.));
#1470=DIRECTION('center_axis',(0.,-1.,0.));
#1471=DIRECTION('ref_axis',(1.,0.,0.));
#1472=DIRECTION('',(0.,0.,1.));
#1473=DIRECTION('',(1.,0.,0.));
#1474=DIRECTION('center_axis',(1.,0.,0.));
#1475=DIRECTION('ref_axis',(0.,1.,0.));
#1476=DIRECTION('',(0.,0.,1.));
#1477=DIRECTION('',(0.,1.,0.));
#1478=DIRECTION('center_axis',(0.,-1.,0.));
#1479=DIRECTION('ref_axis',(1.,0.,0.));
#1480=DIRECTION('',(0.,0.,1.));
#1481=DIRECTION('',(1.,0.,0.));
#1482=DIRECTION('center_axis',(1.,0.,0.));
#1483=DIRECTION('ref_axis',(0.,1.,0.));
#1484=DIRECTION('',(0.,0.,1.));
#1485=DIRECTION('',(0.,1.,0.));
#1486=DIRECTION('center_axis',(1.38348285443961E-15,-1.,0.));
#1487=DIRECTION('ref_axis',(1.,1.38348285443961E-15,0.));
#1488=DIRECTION('',(0.,0.,1.));
#1489=DIRECTION('',(1.,1.38348285443961E-15,0.));
#1490=DIRECTION('center_axis',(-0.866025403784439,-0.499999999999999,0.));
#1491=DIRECTION('ref_axis',(0.499999999999999,-0.866025403784439,0.));
#1492=DIRECTION('',(0.,0.,1.));
#1493=DIRECTION('',(0.499999999999999,-0.866025403784439,0.));
#1494=DIRECTION('center_axis',(0.,0.,1.));
#1495=DIRECTION('ref_axis',(1.,0.,0.));
#1496=DIRECTION('',(0.,0.,-1.));
#1497=DIRECTION('center_axis',(0.,0.,-1.));
#1498=DIRECTION('ref_axis',(1.,0.,0.));
#1499=DIRECTION('center_axis',(-2.19134751146495E-8,-1.,0.));
#1500=DIRECTION('ref_axis',(1.,-2.19134751146495E-8,0.));
#1501=DIRECTION('',(0.,0.,-1.));
#1502=DIRECTION('',(-1.,2.19134751146495E-8,0.));
#1503=DIRECTION('center_axis',(0.,0.,1.));
#1504=DIRECTION('ref_axis',(0.707106773438964,-0.707106788934131,0.));
#1505=DIRECTION('',(0.,0.,1.));
#1506=DIRECTION('center_axis',(0.,0.,-1.));
#1507=DIRECTION('ref_axis',(0.707106773438964,-0.707106788934131,0.));
#1508=DIRECTION('center_axis',(1.,0.,0.));
#1509=DIRECTION('ref_axis',(0.,1.,0.));
#1510=DIRECTION('',(0.,0.,-1.));
#1511=DIRECTION('',(0.,-1.,0.));
#1512=DIRECTION('center_axis',(0.,0.,1.));
#1513=DIRECTION('ref_axis',(0.707106781186548,0.707106781186548,0.));
#1514=DIRECTION('',(0.,0.,1.));
#1515=DIRECTION('center_axis',(0.,0.,-1.));
#1516=DIRECTION('ref_axis',(0.707106781186548,0.707106781186548,0.));
#1517=DIRECTION('center_axis',(0.,1.,0.));
#1518=DIRECTION('ref_axis',(-1.,0.,0.));
#1519=DIRECTION('',(0.,0.,1.));
#1520=DIRECTION('',(1.,0.,0.));
#1521=DIRECTION('center_axis',(0.,0.,1.));
#1522=DIRECTION('ref_axis',(-0.981529002922588,0.191313398437721,0.));
#1523=DIRECTION('',(0.,0.,-1.));
#1524=DIRECTION('center_axis',(0.,0.,-1.));
#1525=DIRECTION('ref_axis',(1.,0.,0.));
#1526=DIRECTION('',(0.,0.,1.));
#1527=DIRECTION('center_axis',(-0.866025403784439,-0.499999999999999,0.));
#1528=DIRECTION('ref_axis',(0.499999999999999,-0.866025403784439,0.));
#1529=DIRECTION('',(0.,0.,-1.));
#1530=DIRECTION('',(0.499999999999999,-0.866025403784439,0.));
#1531=DIRECTION('center_axis',(-1.,0.,0.));
#1532=DIRECTION('ref_axis',(0.,-1.,0.));
#1533=DIRECTION('',(0.,0.,-1.));
#1534=DIRECTION('',(0.,1.,0.));
#1535=DIRECTION('center_axis',(0.,-1.,0.));
#1536=DIRECTION('ref_axis',(1.,0.,0.));
#1537=DIRECTION('',(0.,0.,1.));
#1538=DIRECTION('',(1.,0.,0.));
#1539=DIRECTION('center_axis',(1.,0.,0.));
#1540=DIRECTION('ref_axis',(0.,0.,-1.));
#1541=DIRECTION('center_axis',(1.,0.,0.));
#1542=DIRECTION('ref_axis',(0.,0.,-1.));
#1543=DIRECTION('',(0.,0.,1.));
#1544=DIRECTION('',(0.,-1.,0.));
#1545=DIRECTION('',(0.,0.,1.));
#1546=DIRECTION('',(0.,-1.,0.));
#1547=DIRECTION('center_axis',(0.,-1.,0.));
#1548=DIRECTION('ref_axis',(1.,0.,0.));
#1549=DIRECTION('',(1.,0.,0.));
#1550=DIRECTION('',(0.,0.,-1.));
#1551=DIRECTION('',(-1.,0.,0.));
#1552=DIRECTION('center_axis',(0.,0.,1.));
#1553=DIRECTION('ref_axis',(-1.,0.,0.));
#1554=DIRECTION('',(-1.,0.,0.));
#1555=DIRECTION('',(0.,-1.,0.));
#1556=DIRECTION('',(1.,0.,0.));
#1557=DIRECTION('',(0.,-1.,0.));
#1558=DIRECTION('center_axis',(0.,-1.,0.));
#1559=DIRECTION('ref_axis',(0.,0.,-1.));
#1560=DIRECTION('',(0.,0.,1.));
#1561=DIRECTION('',(0.,0.,-1.));
#1562=DIRECTION('center_axis',(-1.,0.,0.));
#1563=DIRECTION('ref_axis',(0.,0.,-1.));
#1564=DIRECTION('',(0.,0.,1.));
#1565=DIRECTION('center_axis',(0.,0.,1.));
#1566=DIRECTION('ref_axis',(-1.,0.,0.));
#1567=DIRECTION('',(0.,-1.,0.));
#1568=DIRECTION('',(1.,1.38348285443961E-15,0.));
#1569=DIRECTION('',(1.,0.,0.));
#1570=DIRECTION('center_axis',(1.,0.,0.));
#1571=DIRECTION('ref_axis',(0.,0.,1.));
#1572=DIRECTION('',(0.,0.,-1.));
#1573=DIRECTION('center_axis',(0.,-1.,0.));
#1574=DIRECTION('ref_axis',(1.,0.,0.));
#1575=DIRECTION('',(0.,0.,-1.));
#1576=DIRECTION('center_axis',(-1.,0.,0.));
#1577=DIRECTION('ref_axis',(0.,0.,-1.));
#1578=DIRECTION('center_axis',(-1.,0.,0.));
#1579=DIRECTION('ref_axis',(0.,0.,-1.));
#1580=DIRECTION('',(-1.,0.,0.));
#1581=DIRECTION('center_axis',(1.,0.,0.));
#1582=DIRECTION('ref_axis',(0.,0.,-1.));
#1583=DIRECTION('center_axis',(-1.,0.,0.));
#1584=DIRECTION('ref_axis',(0.,0.,-1.));
#1585=DIRECTION('center_axis',(-1.,0.,0.));
#1586=DIRECTION('ref_axis',(0.,0.,-1.));
#1587=DIRECTION('',(-1.,0.,0.));
#1588=DIRECTION('center_axis',(1.,0.,0.));
#1589=DIRECTION('ref_axis',(0.,0.,-1.));
#1590=DIRECTION('center_axis',(0.,-1.,0.));
#1591=DIRECTION('ref_axis',(1.,0.,0.));
#1592=DIRECTION('',(-1.,0.,0.));
#1593=DIRECTION('',(0.,0.,1.));
#1594=DIRECTION('',(1.,0.,0.));
#1595=DIRECTION('',(0.,0.,1.));
#1596=DIRECTION('center_axis',(-1.,0.,0.));
#1597=DIRECTION('ref_axis',(0.,-1.,0.));
#1598=DIRECTION('',(0.,1.,0.));
#1599=DIRECTION('',(0.,-1.,0.));
#1600=DIRECTION('',(0.,0.,1.));
#1601=DIRECTION('center_axis',(0.,1.,0.));
#1602=DIRECTION('ref_axis',(-1.,0.,0.));
#1603=DIRECTION('',(1.,0.,0.));
#1604=DIRECTION('',(-1.,0.,0.));
#1605=DIRECTION('',(0.,0.,1.));
#1606=DIRECTION('center_axis',(1.,0.,0.));
#1607=DIRECTION('ref_axis',(0.,1.,0.));
#1608=DIRECTION('',(0.,-1.,0.));
#1609=DIRECTION('',(0.,1.,0.));
#1610=DIRECTION('center_axis',(0.,0.,1.));
#1611=DIRECTION('ref_axis',(1.,0.,0.));
#1612=DIRECTION('center_axis',(-5.79246795456603E-16,1.,0.));
#1613=DIRECTION('ref_axis',(1.,5.79246795456603E-16,0.));
#1614=DIRECTION('',(1.,5.79246795456603E-16,0.));
#1615=DIRECTION('',(0.,0.,-1.));
#1616=DIRECTION('',(-1.,-5.79246795456603E-16,0.));
#1617=DIRECTION('',(0.,0.,-1.));
#1618=DIRECTION('center_axis',(-1.,6.34413156928661E-16,0.));
#1619=DIRECTION('ref_axis',(6.34413156928661E-16,1.,0.));
#1620=DIRECTION('',(6.34413156928661E-16,1.,0.));
#1621=DIRECTION('',(0.,0.,-1.));
#1622=DIRECTION('',(-6.34413156928661E-16,-1.,0.));
#1623=DIRECTION('center_axis',(0.,-1.,0.));
#1624=DIRECTION('ref_axis',(-1.,0.,0.));
#1625=DIRECTION('',(-1.,0.,0.));
#1626=DIRECTION('',(0.,0.,-1.));
#1627=DIRECTION('',(1.,0.,0.));
#1628=DIRECTION('center_axis',(1.,0.,0.));
#1629=DIRECTION('ref_axis',(0.,-1.,0.));
#1630=DIRECTION('',(0.,-1.,0.));
#1631=DIRECTION('',(0.,1.,0.));
#1632=DIRECTION('center_axis',(1.,0.,0.));
#1633=DIRECTION('ref_axis',(0.,-1.,0.));
#1634=DIRECTION('center_axis',(-1.,0.,0.));
#1635=DIRECTION('ref_axis',(0.,-1.,0.));
#1636=DIRECTION('center_axis',(1.,0.,0.));
#1637=DIRECTION('ref_axis',(0.,-1.,0.));
#1638=DIRECTION('center_axis',(0.,0.,1.));
#1639=DIRECTION('ref_axis',(1.,0.,0.));
#1640=DIRECTION('',(0.,-1.,0.));
#1641=DIRECTION('',(-1.,0.,0.));
#1642=DIRECTION('center_axis',(0.,0.,-1.));
#1643=DIRECTION('ref_axis',(1.,0.,0.));
#1644=DIRECTION('center_axis',(0.,0.,1.));
#1645=DIRECTION('ref_axis',(1.,0.,0.));
#1646=DIRECTION('',(-0.514497742535215,0.8574917334448,0.));
#1647=DIRECTION('',(-1.,2.19134751146495E-8,0.));
#1648=DIRECTION('center_axis',(0.,0.,1.));
#1649=DIRECTION('ref_axis',(1.,0.,0.));
#1650=DIRECTION('',(0.,0.,1.));
#1651=DIRECTION('center_axis',(0.,0.,-1.));
#1652=DIRECTION('ref_axis',(1.,0.,0.));
#1653=DIRECTION('center_axis',(0.,0.,1.));
#1654=DIRECTION('ref_axis',(1.,0.,0.));
#1655=DIRECTION('',(0.,0.,-1.));
#1656=DIRECTION('center_axis',(0.,1.,0.));
#1657=DIRECTION('ref_axis',(-1.,0.,0.));
#1658=DIRECTION('',(0.,0.,1.));
#1659=DIRECTION('center_axis',(-1.,0.,0.));
#1660=DIRECTION('ref_axis',(0.,-1.,0.));
#1661=DIRECTION('center_axis',(-0.8574917334448,-0.514497742535215,0.));
#1662=DIRECTION('ref_axis',(0.514497742535215,-0.8574917334448,0.));
#1663=DIRECTION('',(0.,0.,-1.));
#1664=DIRECTION('center_axis',(0.,0.,1.));
#1665=DIRECTION('ref_axis',(1.,0.,0.));
#1666=DIRECTION('',(-0.499999999999999,0.866025403784439,0.));
#1667=DIRECTION('',(-1.,-1.38348285443961E-15,0.));
#1668=DIRECTION('',(0.,-1.,0.));
#1669=DIRECTION('',(-1.,0.,0.));
#1670=DIRECTION('',(0.,-1.,0.));
#1671=DIRECTION('',(-1.,0.,0.));
#1672=DIRECTION('',(0.,-1.,0.));
#1673=DIRECTION('',(1.,0.,0.));
#1674=DIRECTION('',(0.,1.,0.));
#1675=DIRECTION('',(-1.,0.,0.));
#1676=DIRECTION('center_axis',(0.,0.,-1.));
#1677=DIRECTION('ref_axis',(1.,0.,0.));
#1678=DIRECTION('center_axis',(0.,0.,1.));
#1679=DIRECTION('ref_axis',(1.,0.,0.));
#1680=DIRECTION('',(0.,0.,1.));
#1681=DIRECTION('center_axis',(-2.19134751146495E-8,-1.,0.));
#1682=DIRECTION('ref_axis',(1.,-2.19134751146495E-8,0.));
#1683=DIRECTION('center_axis',(0.,-1.,0.));
#1684=DIRECTION('ref_axis',(1.,0.,0.));
#1685=DIRECTION('',(0.,0.,-1.));
#1686=DIRECTION('',(0.,0.,-1.));
#1687=DIRECTION('center_axis',(-1.,0.,0.));
#1688=DIRECTION('ref_axis',(0.,-1.,0.));
#1689=DIRECTION('',(0.,0.,-1.));
#1690=DIRECTION('center_axis',(0.,1.,0.));
#1691=DIRECTION('ref_axis',(-1.,0.,0.));
#1692=DIRECTION('',(0.,0.,-1.));
#1693=DIRECTION('center_axis',(1.,0.,0.));
#1694=DIRECTION('ref_axis',(0.,1.,0.));
#1695=DIRECTION('',(0.,0.,-1.));
#1696=DIRECTION('center_axis',(0.,-1.,0.));
#1697=DIRECTION('ref_axis',(1.,0.,0.));
#1698=DIRECTION('',(0.,0.,1.));
#1699=DIRECTION('center_axis',(1.,0.,0.));
#1700=DIRECTION('ref_axis',(0.,1.,0.));
#1701=DIRECTION('',(0.,0.,-1.));
#1702=DIRECTION('center_axis',(0.,-1.,0.));
#1703=DIRECTION('ref_axis',(1.,0.,0.));
#1704=DIRECTION('',(0.,0.,1.));
#1705=DIRECTION('center_axis',(1.,0.,0.));
#1706=DIRECTION('ref_axis',(0.,1.,0.));
#1707=DIRECTION('',(0.,0.,-1.));
#1708=DIRECTION('center_axis',(1.38348285443961E-15,-1.,0.));
#1709=DIRECTION('ref_axis',(1.,1.38348285443961E-15,0.));
#1710=DIRECTION('',(0.,0.,-1.));
#1711=DIRECTION('center_axis',(-0.866025403784439,-0.499999999999999,0.));
#1712=DIRECTION('ref_axis',(0.499999999999999,-0.866025403784439,0.));
#1713=CARTESIAN_POINT('',(0.,0.,0.));
#1714=CARTESIAN_POINT('Origin',(-26.,4.9579537445916,4.));
#1715=CARTESIAN_POINT('',(-31.9998526742251,2.,4.));
#1716=CARTESIAN_POINT('',(-20.0001473257749,2.,4.));
#1717=CARTESIAN_POINT('',(-13.,2.,4.));
#1718=CARTESIAN_POINT('Origin',(-26.,1.9579537445916,4.));
#1719=CARTESIAN_POINT('',(-27.25,4.9579537445916,4.));
#1720=CARTESIAN_POINT('Origin',(-26.,4.9579537445916,4.));
#1721=CARTESIAN_POINT('Origin',(-26.,4.9579537445916,6.));
#1722=CARTESIAN_POINT('',(-27.25,4.9579537445916,6.));
#1723=CARTESIAN_POINT('',(-27.25,4.9579537445916,6.));
#1724=CARTESIAN_POINT('Origin',(-26.,4.9579537445916,6.));
#1725=CARTESIAN_POINT('Origin',(-26.,1.9579537445916,6.));
#1726=CARTESIAN_POINT('',(-20.0001473257749,2.,6.));
#1727=CARTESIAN_POINT('',(-20.0001473257749,2.,6.));
#1728=CARTESIAN_POINT('',(-31.9998526742251,2.,6.));
#1729=CARTESIAN_POINT('',(-31.9998526742251,2.,6.));
#1730=CARTESIAN_POINT('Origin',(-26.,1.9579537445916,6.));
#1731=CARTESIAN_POINT('Origin',(-26.,4.9579537445916,6.));
#1732=CARTESIAN_POINT('',(-13.,2.,6.));
#1733=CARTESIAN_POINT('Origin',(-28.4170962313453,-22.,0.));
#1734=CARTESIAN_POINT('',(-16.25,-36.,0.));
#1735=CARTESIAN_POINT('Origin',(-14.,-36.,0.));
#1736=CARTESIAN_POINT('',(-15.25,-36.,0.));
#1737=CARTESIAN_POINT('Origin',(-14.,-36.,0.));
#1738=CARTESIAN_POINT('Origin',(-28.4170962313453,-22.,0.));
#1739=CARTESIAN_POINT('',(-57.,-13.,0.));
#1740=CARTESIAN_POINT('',(-54.1547005383793,-13.,0.));
#1741=CARTESIAN_POINT('',(-41.7085481156726,-13.,0.));
#1742=CARTESIAN_POINT('',(-57.,-10.5,2.31296463463574E-16));
#1743=CARTESIAN_POINT('',(-57.,-11.,0.));
#1744=CARTESIAN_POINT('',(-55.,-10.5,0.));
#1745=CARTESIAN_POINT('',(-55.9,-10.5,0.));
#1746=CARTESIAN_POINT('',(-55.,-11.,0.));
#1747=CARTESIAN_POINT('',(-55.,-11.,0.));
#1748=CARTESIAN_POINT('',(-53.,-11.,0.));
#1749=CARTESIAN_POINT('',(-41.7085481156726,-11.,0.));
#1750=CARTESIAN_POINT('',(-51.1176269559495,-14.2603657510936,0.));
#1751=CARTESIAN_POINT('',(-47.545567168511,-20.4473547906108,0.));
#1752=CARTESIAN_POINT('',(-50.6770507769905,-11.9999997695349,0.));
#1753=CARTESIAN_POINT('Origin',(-49.,-13.5,0.));
#1754=CARTESIAN_POINT('',(-52.3999982699752,-11.9999997317791,0.));
#1755=CARTESIAN_POINT('',(-40.4085471410929,-11.9999999945535,0.));
#1756=CARTESIAN_POINT('',(-47.3198797095363,-20.4668195258381,0.));
#1757=CARTESIAN_POINT('',(-53.0000011622906,-10.5000001639128,0.));
#1758=CARTESIAN_POINT('',(-53.0000011622906,-16.2500000819564,0.));
#1759=CARTESIAN_POINT('',(-32.5000008493662,-10.5000001639128,0.));
#1760=CARTESIAN_POINT('',(-30.2085485403557,-10.5000001639128,0.));
#1761=CARTESIAN_POINT('',(-32.0000008493662,-11.0000001639128,0.));
#1762=CARTESIAN_POINT('Origin',(-32.5000008493662,-11.0000001639128,0.));
#1763=CARTESIAN_POINT('',(-32.0000008493662,-11.5000001678572,0.));
#1764=CARTESIAN_POINT('',(-32.0000008493662,-17.000000089407,0.));
#1765=CARTESIAN_POINT('',(-32.5000008603229,-12.0000001678572,0.));
#1766=CARTESIAN_POINT('Origin',(-32.5000008493662,-11.5000001678572,0.));
#1767=CARTESIAN_POINT('',(-47.322949157269,-11.9999998430349,0.));
#1768=CARTESIAN_POINT('',(-40.4085471410929,-11.9999999945535,0.));
#1769=CARTESIAN_POINT('',(-50.7173095345894,-14.9537358640442,0.));
#1770=CARTESIAN_POINT('Origin',(-49.,-13.5,0.));
#1771=CARTESIAN_POINT('',(-35.6794919243113,-41.,0.));
#1772=CARTESIAN_POINT('',(-47.545567168511,-20.4473547906108,0.));
#1773=CARTESIAN_POINT('',(-10.,-41.,0.));
#1774=CARTESIAN_POINT('',(-32.0482940778283,-41.,0.));
#1775=CARTESIAN_POINT('',(-10.,-25.,0.));
#1776=CARTESIAN_POINT('',(-10.,-31.5,0.));
#1777=CARTESIAN_POINT('',(-8.,-25.,0.));
#1778=CARTESIAN_POINT('',(-19.2085481156726,-25.,0.));
#1779=CARTESIAN_POINT('',(-8.,-11.,0.));
#1780=CARTESIAN_POINT('',(-8.,-23.5,0.));
#1781=CARTESIAN_POINT('',(0.,-11.,0.));
#1782=CARTESIAN_POINT('',(-18.2085481156726,-11.,0.));
#1783=CARTESIAN_POINT('',(0.,-8.39827534923789,0.));
#1784=CARTESIAN_POINT('',(0.,-16.5,0.));
#1785=CARTESIAN_POINT('',(-2.,-8.39827534923789,0.));
#1786=CARTESIAN_POINT('',(2.,-8.39827534923789,0.));
#1787=CARTESIAN_POINT('',(-2.,-2.60172465076211,0.));
#1788=CARTESIAN_POINT('',(-2.,-13.75,0.));
#1789=CARTESIAN_POINT('',(0.,-2.60172465076211,0.));
#1790=CARTESIAN_POINT('',(2.,-2.60172465076211,0.));
#1791=CARTESIAN_POINT('',(0.,0.,0.));
#1792=CARTESIAN_POINT('',(0.,-16.5,0.));
#1793=CARTESIAN_POINT('',(-55.,0.,0.));
#1794=CARTESIAN_POINT('',(-14.2085481156726,0.,0.));
#1795=CARTESIAN_POINT('',(-55.,-0.5,-3.81026936110102E-16));
#1796=CARTESIAN_POINT('',(-55.,-11.,0.));
#1797=CARTESIAN_POINT('',(-57.,-0.5,0.));
#1798=CARTESIAN_POINT('',(-55.9,-0.5,0.));
#1799=CARTESIAN_POINT('',(-57.,2.,0.));
#1800=CARTESIAN_POINT('',(-57.,-11.,0.));
#1801=CARTESIAN_POINT('',(2.,2.,0.));
#1802=CARTESIAN_POINT('',(-14.2085481156726,2.,0.));
#1803=CARTESIAN_POINT('',(2.,-13.,0.));
#1804=CARTESIAN_POINT('',(2.,-16.5,0.));
#1805=CARTESIAN_POINT('',(-6.,-13.,0.));
#1806=CARTESIAN_POINT('',(-18.2085481156726,-13.,0.));
#1807=CARTESIAN_POINT('',(-6.,-27.,0.));
#1808=CARTESIAN_POINT('',(-6.,-23.5,0.));
#1809=CARTESIAN_POINT('',(-8.,-27.,0.));
#1810=CARTESIAN_POINT('',(-19.2085481156726,-27.,0.));
#1811=CARTESIAN_POINT('',(-8.,-43.,0.));
#1812=CARTESIAN_POINT('',(-8.,-31.5,0.));
#1813=CARTESIAN_POINT('',(-8.83419246269057,-43.,0.));
#1814=CARTESIAN_POINT('',(-32.0482940778283,-43.,0.));
#1815=CARTESIAN_POINT('',(-8.83419246269057,-46.,0.));
#1816=CARTESIAN_POINT('',(-8.83419246269057,-32.5,0.));
#1817=CARTESIAN_POINT('',(-58.8341924626906,-46.,0.));
#1818=CARTESIAN_POINT('',(-31.1256443470179,-46.,0.));
#1819=CARTESIAN_POINT('',(-58.8341924626906,-43.0000006407499,0.));
#1820=CARTESIAN_POINT('',(-58.8341924626906,-32.5,0.));
#1821=CARTESIAN_POINT('',(-36.8341924626905,-43.,0.));
#1822=CARTESIAN_POINT('',(-31.1256443470179,-43.,0.));
#1823=CARTESIAN_POINT('',(-49.2776179760798,-21.4473547906108,0.));
#1824=CARTESIAN_POINT('',(-50.25,-13.5,0.));
#1825=CARTESIAN_POINT('Origin',(-49.,-13.5,0.));
#1826=CARTESIAN_POINT('Origin',(2.,-5.5,0.1));
#1827=CARTESIAN_POINT('Origin',(0.,-5.5,0.1));
#1828=CARTESIAN_POINT('Origin',(-2.,-5.5,0.1));
#1829=CARTESIAN_POINT('Origin',(0.,-11.,0.));
#1830=CARTESIAN_POINT('',(0.,-11.,6.));
#1831=CARTESIAN_POINT('',(0.,-11.,0.));
#1832=CARTESIAN_POINT('',(0.,0.,6.));
#1833=CARTESIAN_POINT('',(0.,-15.75,6.));
#1834=CARTESIAN_POINT('',(0.,0.,0.));
#1835=CARTESIAN_POINT('Origin',(-8.,-11.,0.));
#1836=CARTESIAN_POINT('',(-8.,-11.,6.));
#1837=CARTESIAN_POINT('',(-8.,-11.,0.));
#1838=CARTESIAN_POINT('',(-17.75,-11.,6.));
#1839=CARTESIAN_POINT('Origin',(-8.,-25.,0.));
#1840=CARTESIAN_POINT('',(-8.,-25.,6.));
#1841=CARTESIAN_POINT('',(-8.,-25.,0.));
#1842=CARTESIAN_POINT('',(-8.,-22.75,6.));
#1843=CARTESIAN_POINT('Origin',(-10.,-25.,0.));
#1844=CARTESIAN_POINT('',(-10.,-25.,6.));
#1845=CARTESIAN_POINT('',(-10.,-25.,0.));
#1846=CARTESIAN_POINT('',(-18.75,-25.,6.));
#1847=CARTESIAN_POINT('Origin',(-10.,-41.,0.));
#1848=CARTESIAN_POINT('',(-10.,-41.,6.));
#1849=CARTESIAN_POINT('',(-10.,-41.,0.));
#1850=CARTESIAN_POINT('',(-10.,-30.75,6.));
#1851=CARTESIAN_POINT('Origin',(-35.6794919243113,-41.,0.));
#1852=CARTESIAN_POINT('',(-35.6794919243113,-41.,6.));
#1853=CARTESIAN_POINT('',(-35.6794919243113,-41.,0.));
#1854=CARTESIAN_POINT('',(-31.5897459621556,-41.,6.));
#1855=CARTESIAN_POINT('Origin',(-53.,-11.,0.));
#1856=CARTESIAN_POINT('',(-50.7173095345894,-14.9537358640442,6.));
#1857=CARTESIAN_POINT('',(-50.7173095345894,-14.9537358640442,0.));
#1858=CARTESIAN_POINT('',(-47.755689666012,-20.0834119491258,6.));
#1859=CARTESIAN_POINT('Origin',(-49.,-13.5,0.));
#1860=CARTESIAN_POINT('',(-47.322949157269,-11.9999998430349,6.));
#1861=CARTESIAN_POINT('',(-47.322949157269,-11.9999998430349,0.));
#1862=CARTESIAN_POINT('Origin',(-49.,-13.5,6.));
#1863=CARTESIAN_POINT('Origin',(-52.3999982699752,-11.9999997317791,0.));
#1864=CARTESIAN_POINT('',(-32.5000008603229,-12.0000001678572,6.));
#1865=CARTESIAN_POINT('',(-32.5000008603229,-12.0000001678572,0.));
#1866=CARTESIAN_POINT('',(-39.9499990418553,-12.0000000046018,6.));
#1867=CARTESIAN_POINT('Origin',(-32.5000008493662,-11.5000001678572,0.));
#1868=CARTESIAN_POINT('',(-32.0000008493662,-11.5000001678572,6.));
#1869=CARTESIAN_POINT('',(-32.0000008493662,-11.5000001678572,0.));
#1870=CARTESIAN_POINT('Origin',(-32.5000008493662,-11.5000001678572,6.));
#1871=CARTESIAN_POINT('Origin',(-32.0000008493662,-12.0000001788139,0.));
#1872=CARTESIAN_POINT('',(-32.0000008493662,-11.0000001639128,6.));
#1873=CARTESIAN_POINT('',(-32.0000008493662,-11.0000001639128,0.));
#1874=CARTESIAN_POINT('',(-32.0000008493662,-16.250000089407,6.));
#1875=CARTESIAN_POINT('Origin',(-32.5000008493662,-11.0000001639128,0.));
#1876=CARTESIAN_POINT('',(-32.5000008493662,-10.5000001639128,6.));
#1877=CARTESIAN_POINT('',(-32.5000008493662,-10.5000001639128,0.));
#1878=CARTESIAN_POINT('Origin',(-32.5000008493662,-11.0000001639128,6.));
#1879=CARTESIAN_POINT('Origin',(-32.0000008493662,-10.5000001639128,0.));
#1880=CARTESIAN_POINT('',(-53.0000011622906,-10.5000001639128,6.));
#1881=CARTESIAN_POINT('',(-53.0000011622906,-10.5000001639128,0.));
#1882=CARTESIAN_POINT('',(-29.7500004246831,-10.5000001639128,6.));
#1883=CARTESIAN_POINT('Origin',(-49.,-13.5,0.));
#1884=CARTESIAN_POINT('',(-51.1176269559495,-14.2603657510936,6.));
#1885=CARTESIAN_POINT('',(-51.1176269559495,-14.2603657510936,0.));
#1886=CARTESIAN_POINT('',(-50.6770507769905,-11.9999997695349,6.));
#1887=CARTESIAN_POINT('Origin',(-49.,-13.5,6.));
#1888=CARTESIAN_POINT('',(-50.6770507769905,-11.9999997695349,0.));
#1889=CARTESIAN_POINT('Origin',(-53.,-11.,0.));
#1890=CARTESIAN_POINT('',(-53.,-11.,6.));
#1891=CARTESIAN_POINT('',(-53.,-11.,0.));
#1892=CARTESIAN_POINT('',(-47.755689666012,-20.0834119491258,6.));
#1893=CARTESIAN_POINT('Origin',(-53.0000011622906,-10.5000001639128,0.));
#1894=CARTESIAN_POINT('',(-53.,-11.,0.));
#1895=CARTESIAN_POINT('',(-53.0000011622906,-15.5000000819564,6.));
#1896=CARTESIAN_POINT('Origin',(-55.,-11.,0.));
#1897=CARTESIAN_POINT('',(-55.,-11.,6.));
#1898=CARTESIAN_POINT('',(-55.,-11.,0.));
#1899=CARTESIAN_POINT('',(-41.25,-11.,6.));
#1900=CARTESIAN_POINT('Origin',(-2.,-5.5,0.1));
#1901=CARTESIAN_POINT('Origin',(-57.8341924626906,-44.500000320375,-0.050000037252903));
#1902=CARTESIAN_POINT('',(-57.8341924626906,-44.6,0.9));
#1903=CARTESIAN_POINT('',(-57.8341924626906,-44.6,4.9));
#1904=CARTESIAN_POINT('',(-57.8341924626906,-44.6,-0.0250000186264518));
#1905=CARTESIAN_POINT('',(-57.8341924626906,-43.0000006407499,0.9));
#1906=CARTESIAN_POINT('',(-57.8341924626906,-43.7500001601875,0.9));
#1907=CARTESIAN_POINT('',(-57.8341924626906,-43.0000006407499,4.9));
#1908=CARTESIAN_POINT('',(-57.8341924626906,-43.0000006407499,-5.00000007450581));
#1909=CARTESIAN_POINT('',(-57.8341924626906,-43.0000006407499,4.9));
#1910=CARTESIAN_POINT('Origin',(-33.8341924626906,-44.6,-5.55111512312578E-16));
#1911=CARTESIAN_POINT('',(-8.83419246269057,-44.6,4.9));
#1912=CARTESIAN_POINT('',(-58.8341924626906,-44.6,4.9));
#1913=CARTESIAN_POINT('',(-8.83419246269057,-44.6,0.9));
#1914=CARTESIAN_POINT('',(-8.83419246269057,-44.6,4.9));
#1915=CARTESIAN_POINT('',(-58.8341924626906,-44.6,0.9));
#1916=CARTESIAN_POINT('Origin',(-8.83419246269057,-44.6,4.9));
#1917=CARTESIAN_POINT('',(-8.83419246269057,-46.,4.9));
#1918=CARTESIAN_POINT('',(-58.8341924626906,-46.,4.9));
#1919=CARTESIAN_POINT('',(-58.8341924626906,-46.,4.9));
#1920=CARTESIAN_POINT('',(-8.83419246269057,-44.6,4.9));
#1921=CARTESIAN_POINT('',(-58.8341924626906,-43.0000006407499,4.9));
#1922=CARTESIAN_POINT('',(-58.8341924626906,-43.0000006407499,4.9));
#1923=CARTESIAN_POINT('',(-58.8341924626906,-44.6,4.9));
#1924=CARTESIAN_POINT('Origin',(-33.8341924626906,-46.,-5.55111512312578E-16));
#1925=CARTESIAN_POINT('',(-8.83419246269057,-46.,4.9));
#1926=CARTESIAN_POINT('',(-58.8341924626906,-46.,-4.9));
#1927=CARTESIAN_POINT('Origin',(-58.8341924626906,-43.,0.9));
#1928=CARTESIAN_POINT('',(-58.8341924626906,-43.0000006407499,-5.00000007450581));
#1929=CARTESIAN_POINT('Origin',(-8.83419246269057,-43.,0.9));
#1930=CARTESIAN_POINT('',(-8.83419246269057,-43.,0.9));
#1931=CARTESIAN_POINT('',(-8.83419246269057,-43.,0.9));
#1932=CARTESIAN_POINT('',(-36.8341924626905,-43.,0.9));
#1933=CARTESIAN_POINT('',(-22.2568421935009,-43.,0.9));
#1934=CARTESIAN_POINT('',(-58.8341924626906,-43.,0.9));
#1935=CARTESIAN_POINT('Origin',(-8.83419246269057,-43.,-0.900000000000001));
#1936=CARTESIAN_POINT('',(-8.83419246269057,-43.,-0.45));
#1937=CARTESIAN_POINT('Origin',(-33.8341924626906,-43.,-5.55111512312578E-16));
#1938=CARTESIAN_POINT('',(-36.8341924626905,-43.,0.));
#1939=CARTESIAN_POINT('Origin',(-25.35,-13.,18.));
#1940=CARTESIAN_POINT('',(-25.35,-13.,19.25));
#1941=CARTESIAN_POINT('Origin',(-25.35,-13.,18.));
#1942=CARTESIAN_POINT('',(-27.35,-13.,19.25));
#1943=CARTESIAN_POINT('',(-25.35,-13.,19.25));
#1944=CARTESIAN_POINT('Origin',(-27.3500000298023,-13.,18.));
#1945=CARTESIAN_POINT('Origin',(-25.35,-31.5,18.));
#1946=CARTESIAN_POINT('',(-25.35,-31.5,19.25));
#1947=CARTESIAN_POINT('Origin',(-25.35,-31.5,18.));
#1948=CARTESIAN_POINT('',(-27.35,-31.5,19.25));
#1949=CARTESIAN_POINT('',(-25.35,-31.5,19.25));
#1950=CARTESIAN_POINT('Origin',(-27.3500000298023,-31.5,18.));
#1951=CARTESIAN_POINT('Origin',(-27.3500000298023,-35.25,8.));
#1952=CARTESIAN_POINT('',(-25.35,-35.25,8.));
#1953=CARTESIAN_POINT('',(-27.3500000298023,-35.25,8.));
#1954=CARTESIAN_POINT('',(-34.9250005178153,-35.25,8.));
#1955=CARTESIAN_POINT('',(-25.35,-35.25,28.));
#1956=CARTESIAN_POINT('',(-25.35,-35.25,8.));
#1957=CARTESIAN_POINT('',(-27.3500000298023,-35.25,28.));
#1958=CARTESIAN_POINT('',(-27.3500000298023,-35.25,28.));
#1959=CARTESIAN_POINT('',(-27.3500000298023,-35.25,8.));
#1960=CARTESIAN_POINT('Origin',(-27.3500000298023,-9.25,8.));
#1961=CARTESIAN_POINT('',(-27.3500000298023,-9.25,8.));
#1962=CARTESIAN_POINT('',(-27.3500000298023,-10.2500000856817,8.));
#1963=CARTESIAN_POINT('',(-27.3500000298023,-9.25,28.));
#1964=CARTESIAN_POINT('',(-27.3500000298023,-9.25,28.));
#1965=CARTESIAN_POINT('',(-27.3500000298023,-9.25,8.));
#1966=CARTESIAN_POINT('Origin',(-25.35,-9.25,8.));
#1967=CARTESIAN_POINT('',(-25.35,-9.25,8.));
#1968=CARTESIAN_POINT('',(-33.9250005029142,-9.25,8.));
#1969=CARTESIAN_POINT('',(-25.35,-9.25,28.));
#1970=CARTESIAN_POINT('',(-25.35,-9.25,28.));
#1971=CARTESIAN_POINT('',(-25.35,-9.25,8.));
#1972=CARTESIAN_POINT('Origin',(-25.35,-35.25,8.));
#1973=CARTESIAN_POINT('',(-25.35,-23.2500000856817,8.));
#1974=CARTESIAN_POINT('',(-25.35,-35.25,28.));
#1975=CARTESIAN_POINT('Origin',(-26.3500000149012,-22.25,28.));
#1976=CARTESIAN_POINT('Origin',(-24.75,-15.25,8.));
#1977=CARTESIAN_POINT('',(-24.75,-15.25,8.));
#1978=CARTESIAN_POINT('',(-13.25,-15.25,8.));
#1979=CARTESIAN_POINT('',(-33.6250005029142,-15.25,8.));
#1980=CARTESIAN_POINT('',(-24.75,-15.25,6.));
#1981=CARTESIAN_POINT('',(-24.75,-15.25,8.));
#1982=CARTESIAN_POINT('',(-13.25,-15.25,6.));
#1983=CARTESIAN_POINT('',(-26.125,-15.25,6.));
#1984=CARTESIAN_POINT('',(-13.25,-15.25,8.));
#1985=CARTESIAN_POINT('Origin',(-24.75,-29.25,8.));
#1986=CARTESIAN_POINT('',(-24.75,-29.25,8.));
#1987=CARTESIAN_POINT('',(-24.75,-20.2500000856817,8.));
#1988=CARTESIAN_POINT('',(-24.75,-29.25,6.));
#1989=CARTESIAN_POINT('',(-24.75,-29.25,8.));
#1990=CARTESIAN_POINT('',(-24.75,-24.875,6.));
#1991=CARTESIAN_POINT('Origin',(-13.25,-29.25,8.));
#1992=CARTESIAN_POINT('',(-13.25,-29.25,8.));
#1993=CARTESIAN_POINT('',(-27.8750005029142,-29.25,8.));
#1994=CARTESIAN_POINT('',(-13.25,-29.25,6.));
#1995=CARTESIAN_POINT('',(-13.25,-29.25,8.));
#1996=CARTESIAN_POINT('',(-20.375,-29.25,6.));
#1997=CARTESIAN_POINT('Origin',(-13.25,-15.25,8.));
#1998=CARTESIAN_POINT('',(-13.25,-13.2500000856817,8.));
#1999=CARTESIAN_POINT('',(-13.25,-17.875,6.));
#2000=CARTESIAN_POINT('Origin',(-55.9,-5.5,2.31296463463574E-16));
#2001=CARTESIAN_POINT('Origin',(-55.,-5.5,2.31296463463574E-16));
#2002=CARTESIAN_POINT('Origin',(-57.,-5.5,2.31296463463574E-16));
#2003=CARTESIAN_POINT('Origin',(-27.5,-20.5,6.));
#2004=CARTESIAN_POINT('',(-55.,0.,6.));
#2005=CARTESIAN_POINT('',(-55.,-10.25,6.));
#2006=CARTESIAN_POINT('',(-13.75,0.,6.));
#2007=CARTESIAN_POINT('',(-16.25,-36.,6.));
#2008=CARTESIAN_POINT('Origin',(-14.,-36.,6.));
#2009=CARTESIAN_POINT('Origin',(-27.5,-20.5,6.));
#2010=CARTESIAN_POINT('',(-52.3999982699752,-11.9999997317791,6.));
#2011=CARTESIAN_POINT('',(-47.529381559198,-20.1176516104629,6.));
#2012=CARTESIAN_POINT('',(-39.9499990418553,-12.0000000046018,6.));
#2013=CARTESIAN_POINT('Origin',(-14.,-36.,0.));
#2014=CARTESIAN_POINT('',(-15.25,-36.,8.));
#2015=CARTESIAN_POINT('',(-15.25,-36.,0.));
#2016=CARTESIAN_POINT('Origin',(-14.,-36.,8.));
#2017=CARTESIAN_POINT('Origin',(-14.,-36.,0.));
#2018=CARTESIAN_POINT('',(-16.25,-36.,0.));
#2019=CARTESIAN_POINT('Origin',(0.,0.,0.));
#2020=CARTESIAN_POINT('',(-55.,0.,0.));
#2021=CARTESIAN_POINT('Origin',(-55.,0.,0.));
#2022=CARTESIAN_POINT('Origin',(-53.0000011622906,-11.0000001639128,0.));
#2023=CARTESIAN_POINT('',(-52.3999982699752,-11.9999997317791,0.));
#2024=CARTESIAN_POINT('Origin',(-42.5000010058284,-11.2500001713634,8.));
#2025=CARTESIAN_POINT('',(-54.1547005383793,-13.,8.));
#2026=CARTESIAN_POINT('',(-36.8341924626905,-43.,8.));
#2027=CARTESIAN_POINT('',(-49.4877404735808,-21.0834119491258,8.));
#2028=CARTESIAN_POINT('',(-8.,-43.,8.));
#2029=CARTESIAN_POINT('',(-31.5897459621556,-43.,8.));
#2030=CARTESIAN_POINT('',(-8.,-27.,8.));
#2031=CARTESIAN_POINT('',(-8.,-30.75,8.));
#2032=CARTESIAN_POINT('',(-6.,-27.,8.));
#2033=CARTESIAN_POINT('',(-18.75,-27.,8.));
#2034=CARTESIAN_POINT('',(-6.,-13.,8.));
#2035=CARTESIAN_POINT('',(-6.,-22.75,8.));
#2036=CARTESIAN_POINT('',(2.,-13.,8.));
#2037=CARTESIAN_POINT('',(-17.75,-13.,8.));
#2038=CARTESIAN_POINT('',(2.,2.,8.));
#2039=CARTESIAN_POINT('',(2.,-15.75,8.));
#2040=CARTESIAN_POINT('',(-57.,2.,8.));
#2041=CARTESIAN_POINT('',(-13.75,2.,8.));
#2042=CARTESIAN_POINT('',(-57.,-13.,8.));
#2043=CARTESIAN_POINT('',(-57.,-10.25,8.));
#2044=CARTESIAN_POINT('',(-41.25,-13.,8.));
#2045=CARTESIAN_POINT('',(-50.25,-13.5,8.));
#2046=CARTESIAN_POINT('Origin',(-49.,-13.5,8.));
#2047=CARTESIAN_POINT('Origin',(-49.,-13.5,0.));
#2048=CARTESIAN_POINT('',(-50.25,-13.5,0.));
#2049=CARTESIAN_POINT('Origin',(-52.3999982699752,-11.9999997317791,0.));
#2050=CARTESIAN_POINT('Origin',(-55.,-13.,0.));
#2051=CARTESIAN_POINT('',(-54.1547005383793,-13.,0.));
#2052=CARTESIAN_POINT('',(-57.,-13.,0.));
#2053=CARTESIAN_POINT('Origin',(-57.,0.,0.));
#2054=CARTESIAN_POINT('',(-57.,2.,0.));
#2055=CARTESIAN_POINT('Origin',(0.,2.,0.));
#2056=CARTESIAN_POINT('',(2.,2.,0.));
#2057=CARTESIAN_POINT('Origin',(2.,-11.,0.));
#2058=CARTESIAN_POINT('',(2.,-13.,0.));
#2059=CARTESIAN_POINT('Origin',(-8.,-13.,0.));
#2060=CARTESIAN_POINT('',(-6.,-13.,0.));
#2061=CARTESIAN_POINT('Origin',(-6.,-25.,0.));
#2062=CARTESIAN_POINT('',(-6.,-27.,0.));
#2063=CARTESIAN_POINT('Origin',(-10.,-27.,0.));
#2064=CARTESIAN_POINT('',(-8.,-27.,0.));
#2065=CARTESIAN_POINT('Origin',(-8.,-41.,0.));
#2066=CARTESIAN_POINT('',(-8.,-43.,0.));
#2067=CARTESIAN_POINT('Origin',(-35.6794919243113,-43.,0.));
#2068=CARTESIAN_POINT('',(-36.8341924626905,-43.,0.));
#2069=CARTESIAN_POINT('Origin',(-54.7320508075689,-12.,0.));
#2070=UNCERTAINTY_MEASURE_WITH_UNIT(LENGTH_MEASURE(0.01),#2074,
'DISTANCE_ACCURACY_VALUE',
'Maximum model space distance between geometric entities at asserted c
onnectivities');
#2071=UNCERTAINTY_MEASURE_WITH_UNIT(LENGTH_MEASURE(0.01),#2074,
'DISTANCE_ACCURACY_VALUE',
'Maximum model space distance between geometric entities at asserted c
onnectivities');
#2072=(
GEOMETRIC_REPRESENTATION_CONTEXT(3)
GLOBAL_UNCERTAINTY_ASSIGNED_CONTEXT((#2070))
GLOBAL_UNIT_ASSIGNED_CONTEXT((#2074,#2076,#2077))
REPRESENTATION_CONTEXT('','3D')
);
#2073=(
GEOMETRIC_REPRESENTATION_CONTEXT(3)
GLOBAL_UNCERTAINTY_ASSIGNED_CONTEXT((#2071))
GLOBAL_UNIT_ASSIGNED_CONTEXT((#2074,#2076,#2077))
REPRESENTATION_CONTEXT('','3D')
);
#2074=(
LENGTH_UNIT()
NAMED_UNIT(*)
SI_UNIT(.MILLI.,.METRE.)
);
#2075=(
LENGTH_UNIT()
NAMED_UNIT(*)
SI_UNIT($,.METRE.)
);
#2076=(
NAMED_UNIT(*)
PLANE_ANGLE_UNIT()
SI_UNIT($,.RADIAN.)
);
#2077=(
NAMED_UNIT(*)
SI_UNIT($,.STERADIAN.)
SOLID_ANGLE_UNIT()
);
#2078=SHAPE_DEFINITION_REPRESENTATION(#2079,#2080);
#2079=PRODUCT_DEFINITION_SHAPE('',$,#2082);
#2080=SHAPE_REPRESENTATION('',(#1287),#2072);
#2081=PRODUCT_DEFINITION_CONTEXT('part definition',#2086,'design');
#2082=PRODUCT_DEFINITION('2026-09-19-00-45-12-406',
'Shooting_Enclosure_1',#2083,#2081);
#2083=PRODUCT_DEFINITION_FORMATION('',$,#2088);
#2084=PRODUCT_RELATED_PRODUCT_CATEGORY('Shooting_Enclosure_1',
'Shooting_Enclosure_1',(#2088));
#2085=APPLICATION_PROTOCOL_DEFINITION('international standard',
'automotive_design',2009,#2086);
#2086=APPLICATION_CONTEXT(
'Core Data for Automotive Mechanical Design Process');
#2087=PRODUCT_CONTEXT('part definition',#2086,'mechanical');
#2088=PRODUCT('2026-09-19-00-45-12-406','Shooting_Enclosure_1',$,(#2087));
#2089=PRESENTATION_STYLE_ASSIGNMENT((#2090));
#2090=SURFACE_STYLE_USAGE(.BOTH.,#2091);
#2091=SURFACE_SIDE_STYLE('',(#2092));
#2092=SURFACE_STYLE_FILL_AREA(#2093);
#2093=FILL_AREA_STYLE('Steel - Satin',(#2094));
#2094=FILL_AREA_STYLE_COLOUR('Steel - Satin',#2095);
#2095=COLOUR_RGB('Steel - Satin',0.627450980392157,0.627450980392157,0.627450980392157);
ENDSEC;
END-ISO-10303-21;
