ISO-10303-21;
HEADER;
FILE_DESCRIPTION (( 'STEP AP203' ),
    '1' );
FILE_NAME ('Tripod.STEP',
    '2026-09-20T13:08:05',
    ( '' ),
    ( '' ),
    'SwSTEP 2.0',
    'SolidWorks 2026',
    '' );
FILE_SCHEMA (( 'CONFIG_CONTROL_DESIGN' ));
ENDSEC;

DATA;
#1 = DIRECTION ( 'NONE',  ( 0.000000000000000000, 1.000000000000000000, 0.000000000000000000 ) ) ;
#2 = CARTESIAN_POINT ( 'NONE',  ( 10.00000000000000178, 0.000000000000000000, 5.000000000000000000 ) ) ;
#3 = VECTOR ( 'NONE', #9, 1000.000000000000000 ) ;
#4 = EDGE_CURVE ( 'NONE', #118, #268, #420, .T. ) ;
#5 = CARTESIAN_POINT ( 'NONE',  ( 50.00000000000000000, 84.33012701892219809, 2.499999999999990674 ) ) ;
#6 = LINE ( 'NONE', #141, #448 ) ;
#7 = CARTESIAN_POINT ( 'NONE',  ( 10.00000000000000000, 128.4048999000401068, -93.83974596215558961 ) ) ;
#8 = CC_DESIGN_PERSON_AND_ORGANIZATION_ASSIGNMENT ( #22, #243, ( #439 ) ) ;
#9 = DIRECTION ( 'NONE',  ( 0.000000000000000000, 1.000000000000000000, 0.000000000000000000 ) ) ;
#10 = CALENDAR_DATE ( 2026, 20, 9 ) ;
#11 = CARTESIAN_POINT ( 'NONE',  ( 50.00000000000000000, 0.000000000000000000, 0.000000000000000000 ) ) ;
#12 = ADVANCED_FACE ( 'NONE', ( #282 ), #503, .T. ) ;
#13 = CIRCLE ( 'NONE', #171, 1.700000000000000178 ) ;
#14 = APPROVAL_DATE_TIME ( #513, #38 ) ;
#15 = DIRECTION ( 'NONE',  ( 0.000000000000000000, 0.000000000000000000, 1.000000000000000000 ) ) ;
#16 = EDGE_LOOP ( 'NONE', ( #297, #401, #21, #445, #536, #447 ) ) ;
#17 = PERSON_AND_ORGANIZATION ( #370, #290 ) ;
#18 = EDGE_LOOP ( 'NONE', ( #350, #111, #131, #319, #307, #450, #46, #534 ) ) ;
#19 = CARTESIAN_POINT ( 'NONE',  ( 40.00000000000000000, 0.000000000000000000, -5.000000000000000000 ) ) ;
#20 = CONICAL_SURFACE ( 'NONE', #145, 4.226497308103716932, 0.5235987755982958181 ) ;
#21 = ORIENTED_EDGE ( 'NONE', *, *, #509, .T. ) ;
#22 = PERSON_AND_ORGANIZATION ( #370, #290 ) ;
#23 = CARTESIAN_POINT ( 'NONE',  ( 10.00000000000000178, 0.000000000000000000, -5.000000000000000000 ) ) ;
#24 = ORIENTED_EDGE ( 'NONE', *, *, #53, .T. ) ;
#25 = APPROVAL_STATUS ( 'not_yet_approved' ) ;
#26 = AXIS2_PLACEMENT_3D ( 'NONE', #416, #232, #380 ) ;
#27 = CARTESIAN_POINT ( 'NONE',  ( -2.054942787706620747E-29, 137.0651539378846451, -88.83974596215553277 ) ) ;
#28 = ORIENTED_EDGE ( 'NONE', *, *, #474, .T. ) ;
#29 = CARTESIAN_POINT ( 'NONE',  ( 25.00000000000000000, 15.00000000000000000, 5.000000000000000000 ) ) ;
#30 = AXIS2_PLACEMENT_3D ( 'NONE', #566, #429, #15 ) ;
#31 = VERTEX_POINT ( 'NONE', #55 ) ;
#32 = CC_DESIGN_APPROVAL ( #38, ( #552 ) ) ;
#33 = DIRECTION ( 'NONE',  ( -1.000000000000000000, -0.000000000000000000, -0.000000000000000000 ) ) ;
#34 = ORIENTED_EDGE ( 'NONE', *, *, #231, .F. ) ;
#35 = EDGE_CURVE ( 'NONE', #91, #228, #197, .T. ) ;
#36 = CARTESIAN_POINT ( 'NONE',  ( 10.00000000000000000, 137.0651539378845314, -88.83974596215560382 ) ) ;
#37 = ORIENTED_EDGE ( 'NONE', *, *, #337, .T. ) ;
#38 = APPROVAL ( #245, 'UNSPECIFIED' ) ;
#39 = CARTESIAN_POINT ( 'NONE',  ( 0.000000000000000000, 84.33012701892219809, 2.499999999999990674 ) ) ;
#40 = ORIENTED_EDGE ( 'NONE', *, *, #78, .T. ) ;
#41 = VECTOR ( 'NONE', #363, 1000.000000000000000 ) ;
#42 = EDGE_CURVE ( 'NONE', #31, #359, #6, .T. ) ;
#43 = DIRECTION ( 'NONE',  ( 0.000000000000000000, 0.000000000000000000, -1.000000000000000000 ) ) ;
#44 = ORIENTED_EDGE ( 'NONE', *, *, #374, .F. ) ;
#45 = DIRECTION ( 'NONE',  ( -1.000000000000000000, 0.000000000000000000, 0.000000000000000000 ) ) ;
#46 = ORIENTED_EDGE ( 'NONE', *, *, #128, .F. ) ;
#47 = AXIS2_PLACEMENT_3D ( 'NONE', #468, #56, #102 ) ;
#48 = APPLICATION_CONTEXT ( 'configuration controlled 3d designs of mechanical parts and assemblies' ) ;
#49 = DIRECTION ( 'NONE',  ( 0.000000000000000000, 0.4999999999999981126, -0.8660254037844397068 ) ) ;
#50 = ORIENTED_EDGE ( 'NONE', *, *, #337, .F. ) ;
#51 = VECTOR ( 'NONE', #86, 1000.000000000000000 ) ;
#52 = DIRECTION ( 'NONE',  ( 1.000000000000000000, 0.000000000000000000, -0.000000000000000000 ) ) ;
#53 = EDGE_CURVE ( 'NONE', #228, #91, #13, .T. ) ;
#54 = DIRECTION ( 'NONE',  ( 0.000000000000000000, -0.4999999999999985567, 0.8660254037844394848 ) ) ;
#55 = CARTESIAN_POINT ( 'NONE',  ( 50.00000000000000000, 85.77350269189626886, -2.038300084272748336E-14 ) ) ;
#56 = DIRECTION ( 'NONE',  ( 0.000000000000000000, 0.000000000000000000, -1.000000000000000000 ) ) ;
#57 = CIRCLE ( 'NONE', #529, 10.00000000000000178 ) ;
#58 = PERSON_AND_ORGANIZATION ( #370, #290 ) ;
#59 = APPROVAL_PERSON_ORGANIZATION ( #114, #163, #393 ) ;
#60 = EDGE_CURVE ( 'NONE', #277, #268, #93, .T. ) ;
#61 = LINE ( 'NONE', #356, #471 ) ;
#62 = DATE_AND_TIME ( #515, #323 ) ;
#63 = CARTESIAN_POINT ( 'NONE',  ( 40.00000000000000000, 142.0651539378845030, -97.50000000000000000 ) ) ;
#64 = ORIENTED_EDGE ( 'NONE', *, *, #60, .T. ) ;
#65 = VECTOR ( 'NONE', #326, 1000.000000000000000 ) ;
#66 = VERTEX_POINT ( 'NONE', #138 ) ;
#67 = FACE_OUTER_BOUND ( 'NONE', #217, .T. ) ;
#68 = EDGE_LOOP ( 'NONE', ( #79, #261, #406, #74 ) ) ;
#69 = DIRECTION ( 'NONE',  ( -1.502314598737143747E-16, -1.000000000000000000, -3.605555036969144599E-15 ) ) ;
#70 = VECTOR ( 'NONE', #180, 1000.000000000000000 ) ;
#71 = EDGE_LOOP ( 'NONE', ( #209, #275, #304, #486 ) ) ;
#72 = EDGE_CURVE ( 'NONE', #309, #497, #148, .T. ) ;
#73 = LINE ( 'NONE', #345, #253 ) ;
#74 = ORIENTED_EDGE ( 'NONE', *, *, #501, .F. ) ;
#75 = CARTESIAN_POINT ( 'NONE',  ( 0.000000000000000000, 0.000000000000000000, 5.000000000000000000 ) ) ;
#76 = ORIENTED_EDGE ( 'NONE', *, *, #178, .F. ) ;
#77 = CARTESIAN_POINT ( 'NONE',  ( 25.00000000000000000, 15.00000000000000000, 5.000000000000000000 ) ) ;
#78 = EDGE_CURVE ( 'NONE', #544, #493, #554, .T. ) ;
#79 = ORIENTED_EDGE ( 'NONE', *, *, #92, .T. ) ;
#80 = LOCAL_TIME ( 18, 38, 5.000000000000000000, #162 ) ;
#81 = CARTESIAN_POINT ( 'NONE',  ( 44.22649730810371693, 75.66987298107780191, -2.499999999999990674 ) ) ;
#82 = ORIENTED_EDGE ( 'NONE', *, *, #576, .T. ) ;
#83 = DIRECTION ( 'NONE',  ( 0.000000000000000000, 1.000000000000000000, 0.000000000000000000 ) ) ;
#84 = ORIENTED_EDGE ( 'NONE', *, *, #377, .F. ) ;
#85 = EDGE_CURVE ( 'NONE', #521, #126, #234, .T. ) ;
#86 = DIRECTION ( 'NONE',  ( -0.000000000000000000, 0.000000000000000000, -1.000000000000000000 ) ) ;
#87 = ORIENTED_EDGE ( 'NONE', *, *, #576, .F. ) ;
#88 = AXIS2_PLACEMENT_3D ( 'NONE', #311, #400, #492 ) ;
#89 = CC_DESIGN_APPROVAL ( #204, ( #355 ) ) ;
#90 = LINE ( 'NONE', #233, #310 ) ;
#91 = VERTEX_POINT ( 'NONE', #237 ) ;
#92 = EDGE_CURVE ( 'NONE', #293, #583, #239, .T. ) ;
#93 = LINE ( 'NONE', #597, #269 ) ;
#94 = DIRECTION ( 'NONE',  ( 0.000000000000000000, -0.4999999999999985567, 0.8660254037844394848 ) ) ;
#95 = CARTESIAN_POINT ( 'NONE',  ( 10.00000000000000178, 0.000000000000000000, -5.000000000000000000 ) ) ;
#96 = DIRECTION ( 'NONE',  ( 1.000000000000000000, 0.000000000000000000, 0.000000000000000000 ) ) ;
#97 = DIRECTION ( 'NONE',  ( 0.000000000000000000, 0.4999999999999981126, -0.8660254037844397068 ) ) ;
#98 = DIRECTION ( 'NONE',  ( -0.000000000000000000, -0.000000000000000000, -1.000000000000000000 ) ) ;
#99 = CARTESIAN_POINT ( 'NONE',  ( 0.000000000000000000, 84.33012701892219809, 2.499999999999990674 ) ) ;
#100 = ADVANCED_FACE ( 'NONE', ( #514, #561 ), #146, .T. ) ;
#101 = PERSON_AND_ORGANIZATION ( #370, #290 ) ;
#102 = DIRECTION ( 'NONE',  ( -1.000000000000000000, 0.000000000000000000, 0.000000000000000000 ) ) ;
#103 = AXIS2_PLACEMENT_3D ( 'NONE', #77, #43, #273 ) ;
#104 = PERSON_AND_ORGANIZATION_ROLE ( 'creator' ) ;
#105 = CC_DESIGN_APPROVAL ( #163, ( #167 ) ) ;
#106 = CARTESIAN_POINT ( 'NONE',  ( 44.22649730810371693, 77.11324865405185847, -4.999999999999999112 ) ) ;
#107 = ORIENTED_EDGE ( 'NONE', *, *, #128, .T. ) ;
#108 = APPLICATION_PROTOCOL_DEFINITION ( 'international standard', 'config_control_design', 1994, #48 ) ;
#109 = ORIENTED_EDGE ( 'NONE', *, *, #402, .T. ) ;
#110 = LINE ( 'NONE', #437, #125 ) ;
#111 = ORIENTED_EDGE ( 'NONE', *, *, #541, .T. ) ;
#112 = CARTESIAN_POINT ( 'NONE',  ( 40.00000000000000000, 10.00000000000000000, 5.000000000000000000 ) ) ;
#113 = ORIENTED_EDGE ( 'NONE', *, *, #60, .F. ) ;
#114 = PERSON_AND_ORGANIZATION ( #370, #290 ) ;
#115 = DIRECTION ( 'NONE',  ( 1.000000000000000000, 0.000000000000000000, 0.000000000000000000 ) ) ;
#116 = VERTEX_POINT ( 'NONE', #241 ) ;
#117 = DIRECTION ( 'NONE',  ( 0.000000000000000000, 1.000000000000000000, 0.000000000000000000 ) ) ;
#118 = VERTEX_POINT ( 'NONE', #2 ) ;
#119 = ADVANCED_FACE ( 'NONE', ( #379 ), #470, .T. ) ;
#120 = VECTOR ( 'NONE', #464, 1000.000000000000000 ) ;
#121 = FACE_OUTER_BOUND ( 'NONE', #71, .T. ) ;
#122 = ORIENTED_EDGE ( 'NONE', *, *, #568, .T. ) ;
#123 = CC_DESIGN_DATE_AND_TIME_ASSIGNMENT ( #527, #338, ( #552 ) ) ;
#124 = LINE ( 'NONE', #174, #41 ) ;
#125 = VECTOR ( 'NONE', #478, 1000.000000000000000 ) ;
#126 = VERTEX_POINT ( 'NONE', #508 ) ;
#127 = DIRECTION ( 'NONE',  ( 0.000000000000000000, -0.8660254037844397068, -0.4999999999999981681 ) ) ;
#128 = EDGE_CURVE ( 'NONE', #256, #490, #413, .T. ) ;
#129 = EDGE_LOOP ( 'NONE', ( #438, #530, #316, #526, #181, #581 ) ) ;
#130 = DIRECTION ( 'NONE',  ( 1.000000000000000000, 0.000000000000000000, 0.000000000000000000 ) ) ;
#131 = ORIENTED_EDGE ( 'NONE', *, *, #501, .T. ) ;
#132 = PLANE ( 'NONE',  #242 ) ;
#133 = ORIENTED_EDGE ( 'NONE', *, *, #193, .T. ) ;
#134 = AXIS2_PLACEMENT_3D ( 'NONE', #177, #543, #358 ) ;
#135 = APPROVAL_PERSON_ORGANIZATION ( #58, #38, #210 ) ;
#136 = EDGE_CURVE ( 'NONE', #493, #118, #586, .T. ) ;
#137 = CARTESIAN_POINT ( 'NONE',  ( 50.00000000000000000, 77.11324865405187268, 5.000000000000000000 ) ) ;
#138 = CARTESIAN_POINT ( 'NONE',  ( 40.00000000000000000, 130.5181485540919653, -97.49999999999994316 ) ) ;
#139 = ADVANCED_FACE ( 'NONE', ( #511 ), #286, .T. ) ;
#140 = FACE_OUTER_BOUND ( 'NONE', #432, .T. ) ;
#141 = CARTESIAN_POINT ( 'NONE',  ( 50.00000000000000000, 84.33012701892219809, 2.499999999999990674 ) ) ;
#142 = AXIS2_PLACEMENT_3D ( 'NONE', #292, #520, #481 ) ;
#143 = PLANE ( 'NONE',  #224 ) ;
#144 = DIRECTION ( 'NONE',  ( 0.000000000000000000, 3.605555036969144599E-15, -1.000000000000000000 ) ) ;
#145 = AXIS2_PLACEMENT_3D ( 'NONE', #502, #499, #54 ) ;
#146 = PLANE ( 'NONE',  #240 ) ;
#147 = EDGE_CURVE ( 'NONE', #497, #299, #373, .T. ) ;
#148 = LINE ( 'NONE', #461, #3 ) ;
#149 = DESIGN_CONTEXT ( 'detailed design', #48, 'design' ) ;
#150 = ADVANCED_FACE ( 'NONE', ( #386 ), #244, .T. ) ;
#151 = COORDINATED_UNIVERSAL_TIME_OFFSET ( 5, 30, .AHEAD. ) ;
#152 = DIRECTION ( 'NONE',  ( -1.000000000000000000, -0.000000000000000000, -0.000000000000000000 ) ) ;
#153 = ORIENTED_EDGE ( 'NONE', *, *, #182, .T. ) ;
#154 = CIRCLE ( 'NONE', #424, 10.00000000000000000 ) ;
#155 = COORDINATED_UNIVERSAL_TIME_OFFSET ( 5, 30, .AHEAD. ) ;
#156 = CARTESIAN_POINT ( 'NONE',  ( 26.70000000000000284, 15.00000000000000000, 5.000000000000000000 ) ) ;
#157 = VERTEX_POINT ( 'NONE', #106 ) ;
#158 = COORDINATED_UNIVERSAL_TIME_OFFSET ( 5, 30, .AHEAD. ) ;
#159 = EDGE_CURVE ( 'NONE', #480, #277, #477, .T. ) ;
#160 = DIRECTION ( 'NONE',  ( 0.000000000000000000, -0.4999999999999981681, 0.8660254037844397068 ) ) ;
#161 = ORIENTED_EDGE ( 'NONE', *, *, #374, .T. ) ;
#162 = COORDINATED_UNIVERSAL_TIME_OFFSET ( 5, 30, .AHEAD. ) ;
#163 = APPROVAL ( #344, 'UNSPECIFIED' ) ;
#164 = FACE_OUTER_BOUND ( 'NONE', #271, .T. ) ;
#165 = ORIENTED_EDGE ( 'NONE', *, *, #147, .F. ) ;
#166 = LINE ( 'NONE', #27, #523 ) ;
#167 = SECURITY_CLASSIFICATION ( '', '', #472 ) ;
#168 = EDGE_LOOP ( 'NONE', ( #107, #409, #40, #577, #82 ) ) ;
#169 = DIRECTION ( 'NONE',  ( 0.000000000000000000, 0.000000000000000000, 1.000000000000000000 ) ) ;
#170 = EDGE_LOOP ( 'NONE', ( #518, #411, #113, #161 ) ) ;
#171 = AXIS2_PLACEMENT_3D ( 'NONE', #376, #336, #186 ) ;
#172 = DIRECTION ( 'NONE',  ( 0.000000000000000000, -0.000000000000000000, -1.000000000000000000 ) ) ;
#173 = ORIENTED_EDGE ( 'NONE', *, *, #317, .T. ) ;
#174 = CARTESIAN_POINT ( 'NONE',  ( 23.30000000000000071, 15.00000000000000000, 5.000000000000000000 ) ) ;
#175 = AXIS2_PLACEMENT_3D ( 'NONE', #7, #328, #94 ) ;
#176 = EDGE_LOOP ( 'NONE', ( #367, #538, #454, #346 ) ) ;
#177 = CARTESIAN_POINT ( 'NONE',  ( 10.00000000000000000, 128.4048999000401068, -93.83974596215558961 ) ) ;
#178 = EDGE_CURVE ( 'NONE', #313, #398, #528, .T. ) ;
#179 = ORIENTED_EDGE ( 'NONE', *, *, #35, .F. ) ;
#180 = DIRECTION ( 'NONE',  ( 0.000000000000000000, 0.4999999999999981126, -0.8660254037844397068 ) ) ;
#181 = ORIENTED_EDGE ( 'NONE', *, *, #272, .F. ) ;
#182 = EDGE_CURVE ( 'NONE', #258, #126, #166, .T. ) ;
#183 = DIRECTION ( 'NONE',  ( 0.000000000000000000, 0.000000000000000000, 1.000000000000000000 ) ) ;
#184 = CARTESIAN_POINT ( 'NONE',  ( 10.00000000000000000, 10.00000000000000000, 5.000000000000000000 ) ) ;
#185 = CARTESIAN_POINT ( 'NONE',  ( 26.70000000000000284, 15.00000000000000000, 5.000000000000000000 ) ) ;
#186 = DIRECTION ( 'NONE',  ( 1.000000000000000000, 0.000000000000000000, 0.000000000000000000 ) ) ;
#187 = LINE ( 'NONE', #330, #531 ) ;
#188 = CARTESIAN_POINT ( 'NONE',  ( 5.773502691896283068, 75.66987298107780191, -2.499999999999990674 ) ) ;
#189 = AXIS2_PLACEMENT_3D ( 'NONE', #423, #144, #331 ) ;
#190 = CARTESIAN_POINT ( 'NONE',  ( 50.00000000000000000, 137.0651539378846167, -88.83974596215551855 ) ) ;
#191 = CC_DESIGN_SECURITY_CLASSIFICATION ( #167, ( #355 ) ) ;
#192 = CARTESIAN_POINT ( 'NONE',  ( 50.00000000000000000, 10.00000000000000000, -5.000000000000000000 ) ) ;
#193 = EDGE_CURVE ( 'NONE', #212, #66, #110, .T. ) ;
#194 = DIRECTION ( 'NONE',  ( 0.000000000000000000, 0.000000000000000000, 1.000000000000000000 ) ) ;
#195 = PERSON_AND_ORGANIZATION ( #370, #290 ) ;
#196 = CARTESIAN_POINT ( 'NONE',  ( 26.70000000000000284, 15.00000000000000000, -5.000000000000004441 ) ) ;
#197 = CIRCLE ( 'NONE', #26, 1.700000000000000178 ) ;
#198 = MECHANICAL_CONTEXT ( 'NONE', #476, 'mechanical' ) ;
#199 = CARTESIAN_POINT ( 'NONE',  ( 10.00000000000000178, 142.0651539378846167, -97.49999999999992895 ) ) ;
#200 = VERTEX_POINT ( 'NONE', #574 ) ;
#201 = AXIS2_PLACEMENT_3D ( 'NONE', #36, #585, #220 ) ;
#202 = APPLICATION_PROTOCOL_DEFINITION ( 'international standard', 'config_control_design', 1994, #476 ) ;
#203 = PLANE ( 'NONE',  #342 ) ;
#204 = APPROVAL ( #25, 'UNSPECIFIED' ) ;
#205 = PERSON_AND_ORGANIZATION ( #370, #290 ) ;
#206 = ADVANCED_FACE ( 'NONE', ( #67 ), #533, .F. ) ;
#207 = ORIENTED_EDGE ( 'NONE', *, *, #440, .T. ) ;
#208 = CARTESIAN_POINT ( 'NONE',  ( 25.00000000000000000, 15.00000000000000000, 5.000000000000000000 ) ) ;
#209 = ORIENTED_EDGE ( 'NONE', *, *, #178, .T. ) ;
#210 = APPROVAL_ROLE ( '' ) ;
#211 = CARTESIAN_POINT ( 'NONE',  ( 50.00000000000000000, 142.0651539378845030, -97.50000000000000000 ) ) ;
#212 = VERTEX_POINT ( 'NONE', #63 ) ;
#213 = CONICAL_SURFACE ( 'NONE', #134, 4.226497308103716932, 0.5235987755982943748 ) ;
#214 = FACE_OUTER_BOUND ( 'NONE', #248, .T. ) ;
#215 = ORIENTED_EDGE ( 'NONE', *, *, #440, .F. ) ;
#216 = CARTESIAN_POINT ( 'NONE',  ( 40.00000000000000000, 0.000000000000000000, 5.000000000000000000 ) ) ;
#217 = EDGE_LOOP ( 'NONE', ( #250, #37, #28, #495 ) ) ;
#218 = ADVANCED_FACE ( 'NONE', ( #298 ), #246, .T. ) ;
#219 = AXIS2_PLACEMENT_3D ( 'NONE', #295, #395, #115 ) ;
#220 = DIRECTION ( 'NONE',  ( 0.000000000000000000, -0.4999999999999976685, 0.8660254037844399289 ) ) ;
#221 = ORIENTED_EDGE ( 'NONE', *, *, #85, .F. ) ;
#222 = LINE ( 'NONE', #270, #51 ) ;
#223 = AXIS2_PLACEMENT_3D ( 'NONE', #281, #98, #562 ) ;
#224 = AXIS2_PLACEMENT_3D ( 'NONE', #5, #230, #455 ) ;
#225 = ORIENTED_EDGE ( 'NONE', *, *, #159, .F. ) ;
#226 = CC_DESIGN_PERSON_AND_ORGANIZATION_ASSIGNMENT ( #17, #573, ( #355 ) ) ;
#227 = DIRECTION ( 'NONE',  ( 0.000000000000000000, 0.000000000000000000, 1.000000000000000000 ) ) ;
#228 = VERTEX_POINT ( 'NONE', #196 ) ;
#229 = VECTOR ( 'NONE', #97, 1000.000000000000000 ) ;
#230 = DIRECTION ( 'NONE',  ( -0.000000000000000000, 0.8660254037844397068, 0.4999999999999981681 ) ) ;
#231 = EDGE_CURVE ( 'NONE', #200, #309, #57, .T. ) ;
#232 = DIRECTION ( 'NONE',  ( -0.000000000000000000, -0.000000000000000000, -1.000000000000000000 ) ) ;
#233 = CARTESIAN_POINT ( 'NONE',  ( 50.00000000000000000, 84.33012701892219809, 2.499999999999990674 ) ) ;
#234 = LINE ( 'NONE', #334, #385 ) ;
#235 = CIRCLE ( 'NONE', #571, 10.00000000000000000 ) ;
#236 =( NAMED_UNIT ( * ) PLANE_ANGLE_UNIT ( ) SI_UNIT ( $, .RADIAN. ) );
#237 = CARTESIAN_POINT ( 'NONE',  ( 23.30000000000000071, 15.00000000000000000, -5.000000000000004441 ) ) ;
#238 = CYLINDRICAL_SURFACE ( 'NONE', #482, 10.00000000000000000 ) ;
#239 = LINE ( 'NONE', #190, #120 ) ;
#240 = AXIS2_PLACEMENT_3D ( 'NONE', #506, #194, #52 ) ;
#241 = CARTESIAN_POINT ( 'NONE',  ( 23.30000000000000071, 15.00000000000000000, 5.000000000000000000 ) ) ;
#242 = AXIS2_PLACEMENT_3D ( 'NONE', #487, #308, #172 ) ;
#243 = PERSON_AND_ORGANIZATION_ROLE ( 'design_owner' ) ;
#244 = PLANE ( 'NONE',  #142 ) ;
#245 = APPROVAL_STATUS ( 'not_yet_approved' ) ;
#246 = CYLINDRICAL_SURFACE ( 'NONE', #30, 10.00000000000000000 ) ;
#247 = EDGE_CURVE ( 'NONE', #490, #521, #251, .T. ) ;
#248 = EDGE_LOOP ( 'NONE', ( #364, #404, #24, #392 ) ) ;
#249 = COORDINATED_UNIVERSAL_TIME_OFFSET ( 5, 30, .AHEAD. ) ;
#250 = ORIENTED_EDGE ( 'NONE', *, *, #547, .F. ) ;
#251 = LINE ( 'NONE', #433, #517 ) ;
#252 = ORIENTED_EDGE ( 'NONE', *, *, #317, .F. ) ;
#253 = VECTOR ( 'NONE', #152, 1000.000000000000000 ) ;
#254 = DIRECTION ( 'NONE',  ( 0.000000000000000000, 0.000000000000000000, 1.000000000000000000 ) ) ;
#255 = PRODUCT_DEFINITION_SHAPE ( 'NONE', 'NONE',  #552 ) ;
#256 = VERTEX_POINT ( 'NONE', #570 ) ;
#257 = DIRECTION ( 'NONE',  ( 1.000000000000000000, 0.000000000000000000, 0.000000000000000000 ) ) ;
#258 = VERTEX_POINT ( 'NONE', #442 ) ;
#259 = APPROVAL_DATE_TIME ( #302, #204 ) ;
#260 = DIRECTION ( 'NONE',  ( -1.000000000000000000, -0.000000000000000000, -0.000000000000000000 ) ) ;
#261 = ORIENTED_EDGE ( 'NONE', *, *, #366, .F. ) ;
#262 = CARTESIAN_POINT ( 'NONE',  ( 10.00000000000000000, 130.5181485540919653, -97.49999999999997158 ) ) ;
#263 = VERTEX_POINT ( 'NONE', #156 ) ;
#264 = VECTOR ( 'NONE', #83, 1000.000000000000000 ) ;
#265 = FACE_OUTER_BOUND ( 'NONE', #388, .T. ) ;
#266 = EDGE_LOOP ( 'NONE', ( #179, #357 ) ) ;
#267 = DIRECTION ( 'NONE',  ( 1.000000000000000000, 0.000000000000000000, 0.000000000000000000 ) ) ;
#268 = VERTEX_POINT ( 'NONE', #23 ) ;
#269 = VECTOR ( 'NONE', #280, 1000.000000000000000 ) ;
#270 = CARTESIAN_POINT ( 'NONE',  ( 50.00000000000000000, 10.00000000000000000, -5.000000000000000000 ) ) ;
#271 = EDGE_LOOP ( 'NONE', ( #430, #434, #207, #542, #173 ) ) ;
#272 = EDGE_CURVE ( 'NONE', #200, #118, #73, .T. ) ;
#273 = DIRECTION ( 'NONE',  ( -1.000000000000000000, 0.000000000000000000, 0.000000000000000000 ) ) ;
#274 = AXIS2_PLACEMENT_3D ( 'NONE', #208, #340, #516 ) ;
#275 = ORIENTED_EDGE ( 'NONE', *, *, #509, .F. ) ;
#276 = CARTESIAN_POINT ( 'NONE',  ( 44.22649730810370983, 128.4048999000401068, -93.83974596215557540 ) ) ;
#277 = VERTEX_POINT ( 'NONE', #19 ) ;
#278 = DIRECTION ( 'NONE',  ( 0.000000000000000000, -0.4999999999999976685, 0.8660254037844399289 ) ) ;
#279 = CC_DESIGN_DATE_AND_TIME_ASSIGNMENT ( #62, #294, ( #167 ) ) ;
#280 = DIRECTION ( 'NONE',  ( -1.000000000000000000, -0.000000000000000000, -0.000000000000000000 ) ) ;
#281 = CARTESIAN_POINT ( 'NONE',  ( 10.00000000000000000, 10.00000000000000000, -5.000000000000000000 ) ) ;
#282 = FACE_OUTER_BOUND ( 'NONE', #369, .T. ) ;
#283 = VECTOR ( 'NONE', #260, 1000.000000000000000 ) ;
#284 = FACE_OUTER_BOUND ( 'NONE', #18, .T. ) ;
#285 = CARTESIAN_POINT ( 'NONE',  ( 0.000000000000000000, 10.00000000000000000, 0.000000000000000000 ) ) ;
#286 = CYLINDRICAL_SURFACE ( 'NONE', #47, 10.00000000000000178 ) ;
#287 = EDGE_CURVE ( 'NONE', #212, #313, #303, .T. ) ;
#288 = CARTESIAN_POINT ( 'NONE',  ( 0.000000000000000000, 0.000000000000000000, 0.000000000000000000 ) ) ;
#289 = DIRECTION ( 'NONE',  ( 0.000000000000000000, 0.000000000000000000, 1.000000000000000000 ) ) ;
#290 = ORGANIZATION ( 'UNSPECIFIED', 'UNSPECIFIED', '' ) ;
#291 = ADVANCED_FACE ( 'NONE', ( #525 ), #203, .F. ) ;
#292 = CARTESIAN_POINT ( 'NONE',  ( 0.000000000000000000, 0.000000000000000000, 0.000000000000000000 ) ) ;
#293 = VERTEX_POINT ( 'NONE', #348 ) ;
#294 = DATE_TIME_ROLE ( 'classification_date' ) ;
#295 = CARTESIAN_POINT ( 'NONE',  ( 40.00000000000000000, 10.00000000000000000, -5.000000000000000000 ) ) ;
#296 = VECTOR ( 'NONE', #69, 1000.000000000000000 ) ;
#297 = ORIENTED_EDGE ( 'NONE', *, *, #349, .T. ) ;
#298 = FACE_OUTER_BOUND ( 'NONE', #567, .T. ) ;
#299 = VERTEX_POINT ( 'NONE', #575 ) ;
#300 = CIRCLE ( 'NONE', #381, 10.00000000000000000 ) ;
#301 =( GEOMETRIC_REPRESENTATION_CONTEXT ( 3 ) GLOBAL_UNCERTAINTY_ASSIGNED_CONTEXT ( ( #421 ) ) GLOBAL_UNIT_ASSIGNED_CONTEXT ( ( #558, #236, #510 ) ) REPRESENTATION_CONTEXT ( 'NONE', 'WORKASPACE' ) );
#302 = DATE_AND_TIME ( #565, #372 ) ;
#303 = LINE ( 'NONE', #211, #283 ) ;
#304 = ORIENTED_EDGE ( 'NONE', *, *, #182, .F. ) ;
#305 = ADVANCED_FACE ( 'NONE', ( #164 ), #426, .F. ) ;
#306 = DIRECTION ( 'NONE',  ( 0.000000000000000000, 0.000000000000000000, 1.000000000000000000 ) ) ;
#307 = ORIENTED_EDGE ( 'NONE', *, *, #456, .T. ) ;
#308 = DIRECTION ( 'NONE',  ( 0.000000000000000000, -1.000000000000000000, 0.000000000000000000 ) ) ;
#309 = VERTEX_POINT ( 'NONE', #578 ) ;
#310 = VECTOR ( 'NONE', #49, 1000.000000000000000 ) ;
#311 = CARTESIAN_POINT ( 'NONE',  ( 50.00000000000000000, 64.33012701892246810, 37.14101615137752077 ) ) ;
#312 = EDGE_CURVE ( 'NONE', #544, #490, #61, .T. ) ;
#313 = VERTEX_POINT ( 'NONE', #591 ) ;
#314 = LINE ( 'NONE', #75, #264 ) ;
#315 = ADVANCED_FACE ( 'NONE', ( #214 ), #443, .F. ) ;
#316 = ORIENTED_EDGE ( 'NONE', *, *, #467, .F. ) ;
#317 = EDGE_CURVE ( 'NONE', #309, #480, #222, .T. ) ;
#318 = CARTESIAN_POINT ( 'NONE',  ( 50.00000000000000000, 77.11324865405187268, -5.000000000000000000 ) ) ;
#319 = ORIENTED_EDGE ( 'NONE', *, *, #287, .T. ) ;
#320 = ADVANCED_FACE ( 'NONE', ( #265 ), #446, .F. ) ;
#321 = CARTESIAN_POINT ( 'NONE',  ( 40.00000000000000000, 137.0651539378845030, -88.83974596215560382 ) ) ;
#322 = AXIS2_PLACEMENT_3D ( 'NONE', #582, #127, #589 ) ;
#323 = LOCAL_TIME ( 18, 38, 5.000000000000000000, #151 ) ;
#324 = ORIENTED_EDGE ( 'NONE', *, *, #287, .F. ) ;
#325 = DIRECTION ( 'NONE',  ( 0.000000000000000000, 0.000000000000000000, 1.000000000000000000 ) ) ;
#326 = DIRECTION ( 'NONE',  ( -1.000000000000000000, -0.000000000000000000, 0.000000000000000000 ) ) ;
#327 = AXIS2_PLACEMENT_3D ( 'NONE', #184, #466, #563 ) ;
#328 = DIRECTION ( 'NONE',  ( 0.000000000000000000, -0.8660254037844397068, -0.4999999999999981681 ) ) ;
#329 = DIRECTION ( 'NONE',  ( 0.000000000000000000, 0.4999999999999981681, -0.8660254037844397068 ) ) ;
#330 = CARTESIAN_POINT ( 'NONE',  ( 50.00000000000000000, 0.000000000000000000, -5.000000000000000000 ) ) ;
#331 = DIRECTION ( 'NONE',  ( 1.000000000000000000, 0.000000000000000000, 0.000000000000000000 ) ) ;
#332 = VECTOR ( 'NONE', #169, 1000.000000000000000 ) ;
#333 = CARTESIAN_POINT ( 'NONE',  ( 50.00000000000000000, 0.000000000000000000, -5.000000000000000000 ) ) ;
#334 = CARTESIAN_POINT ( 'NONE',  ( 5.773502691896285732, 128.4048999000401068, -93.83974596215558961 ) ) ;
#335 = CC_DESIGN_PERSON_AND_ORGANIZATION_ASSIGNMENT ( #205, #431, ( #167 ) ) ;
#336 = DIRECTION ( 'NONE',  ( -0.000000000000000000, -0.000000000000000000, -1.000000000000000000 ) ) ;
#337 = EDGE_CURVE ( 'NONE', #263, #116, #483, .T. ) ;
#338 = DATE_TIME_ROLE ( 'creation_date' ) ;
#339 = ADVANCED_BREP_SHAPE_REPRESENTATION ( 'Tripod', ( #469, #549 ), #301 ) ;
#340 = DIRECTION ( 'NONE',  ( 0.000000000000000000, 0.000000000000000000, -1.000000000000000000 ) ) ;
#341 = ORIENTED_EDGE ( 'NONE', *, *, #422, .F. ) ;
#342 = AXIS2_PLACEMENT_3D ( 'NONE', #391, #485, #160 ) ;
#343 = CC_DESIGN_PERSON_AND_ORGANIZATION_ASSIGNMENT ( #195, #104, ( #552 ) ) ;
#344 = APPROVAL_STATUS ( 'not_yet_approved' ) ;
#345 = CARTESIAN_POINT ( 'NONE',  ( 50.00000000000000000, 0.000000000000000000, 5.000000000000000000 ) ) ;
#346 = ORIENTED_EDGE ( 'NONE', *, *, #78, .F. ) ;
#347 = CALENDAR_DATE ( 2026, 20, 9 ) ;
#348 = CARTESIAN_POINT ( 'NONE',  ( 50.00000000000000000, 137.0651539378844745, -88.83974596215560382 ) ) ;
#349 = EDGE_CURVE ( 'NONE', #157, #521, #453, .T. ) ;
#350 = ORIENTED_EDGE ( 'NONE', *, *, #42, .T. ) ;
#351 = PERSON_AND_ORGANIZATION ( #370, #290 ) ;
#352 = DIRECTION ( 'NONE',  ( -1.000000000000000000, 0.000000000000000000, 0.000000000000000000 ) ) ;
#353 = ORIENTED_EDGE ( 'NONE', *, *, #92, .F. ) ;
#354 = VECTOR ( 'NONE', #33, 1000.000000000000000 ) ;
#355 = PRODUCT_DEFINITION_FORMATION_WITH_SPECIFIED_SOURCE ( 'ANY', '', #439, .NOT_KNOWN. ) ;
#356 = CARTESIAN_POINT ( 'NONE',  ( 0.000000000000000000, 0.000000000000000000, -5.000000000000000000 ) ) ;
#357 = ORIENTED_EDGE ( 'NONE', *, *, #53, .F. ) ;
#358 = DIRECTION ( 'NONE',  ( 0.000000000000000000, -0.4999999999999985567, 0.8660254037844394848 ) ) ;
#359 = VERTEX_POINT ( 'NONE', #593 ) ;
#360 = CARTESIAN_POINT ( 'NONE',  ( 40.00000000000000000, 130.5181485540919653, -97.49999999999997158 ) ) ;
#361 = ORIENTED_EDGE ( 'NONE', *, *, #247, .F. ) ;
#362 = VECTOR ( 'NONE', #553, 1000.000000000000000 ) ;
#363 = DIRECTION ( 'NONE',  ( 0.000000000000000000, 0.000000000000000000, -1.000000000000000000 ) ) ;
#364 = ORIENTED_EDGE ( 'NONE', *, *, #479, .T. ) ;
#365 = DIRECTION ( 'NONE',  ( 0.000000000000000000, -0.4999999999999981681, 0.8660254037844397068 ) ) ;
#366 = EDGE_CURVE ( 'NONE', #66, #583, #580, .T. ) ;
#367 = ORIENTED_EDGE ( 'NONE', *, *, #568, .F. ) ;
#368 = DIRECTION ( 'NONE',  ( 1.000000000000000000, -0.000000000000000000, -0.000000000000000000 ) ) ;
#369 = EDGE_LOOP ( 'NONE', ( #361, #109, #153, #221 ) ) ;
#370 = PERSON ( 'UNSPECIFIED', 'UNSPECIFIED', 'UNSPECIFIED', ('UNSPECIFIED'), ('UNSPECIFIED'), ('UNSPECIFIED') ) ;
#371 = FACE_BOUND ( 'NONE', #266, .T. ) ;
#372 = LOCAL_TIME ( 18, 38, 5.000000000000000000, #155 ) ;
#373 = LINE ( 'NONE', #551, #65 ) ;
#374 = EDGE_CURVE ( 'NONE', #277, #200, #496, .T. ) ;
#375 = LINE ( 'NONE', #185, #362 ) ;
#376 = CARTESIAN_POINT ( 'NONE',  ( 25.00000000000000000, 15.00000000000000000, -5.000000000000004441 ) ) ;
#377 = EDGE_CURVE ( 'NONE', #256, #31, #408, .T. ) ;
#378 = LINE ( 'NONE', #599, #539 ) ;
#379 = FACE_OUTER_BOUND ( 'NONE', #475, .T. ) ;
#380 = DIRECTION ( 'NONE',  ( 1.000000000000000000, 0.000000000000000000, 0.000000000000000000 ) ) ;
#381 = AXIS2_PLACEMENT_3D ( 'NONE', #507, #45, #412 ) ;
#382 = CARTESIAN_POINT ( 'NONE',  ( 5.773502691896283068, 77.11324865405185847, -4.999999999999999112 ) ) ;
#383 = DIRECTION ( 'NONE',  ( 0.000000000000000000, -0.4999999999999981681, 0.8660254037844397068 ) ) ;
#384 = APPROVAL_ROLE ( '' ) ;
#385 = VECTOR ( 'NONE', #329, 1000.000000000000000 ) ;
#386 = FACE_OUTER_BOUND ( 'NONE', #168, .T. ) ;
#387 = DIRECTION ( 'NONE',  ( 0.4472135954999550966, -0.8944271909999172987, 0.000000000000000000 ) ) ;
#388 = EDGE_LOOP ( 'NONE', ( #569, #341, #353, #595 ) ) ;
#389 = VECTOR ( 'NONE', #410, 1000.000000000000000 ) ;
#390 = SHAPE_DEFINITION_REPRESENTATION ( #255, #339 ) ;
#391 = CARTESIAN_POINT ( 'NONE',  ( 50.00000000000000000, 75.66987298107780191, -2.499999999999990674 ) ) ;
#392 = ORIENTED_EDGE ( 'NONE', *, *, #474, .F. ) ;
#393 = APPROVAL_ROLE ( '' ) ;
#394 = ADVANCED_FACE ( 'NONE', ( #121 ), #213, .T. ) ;
#395 = DIRECTION ( 'NONE',  ( -0.000000000000000000, -0.000000000000000000, -1.000000000000000000 ) ) ;
#396 = ORIENTED_EDGE ( 'NONE', *, *, #479, .F. ) ;
#397 = DIRECTION ( 'NONE',  ( 0.000000000000000000, -1.000000000000000000, 0.000000000000000000 ) ) ;
#398 = VERTEX_POINT ( 'NONE', #262 ) ;
#399 = AXIS2_PLACEMENT_3D ( 'NONE', #333, #325, #462 ) ;
#400 = DIRECTION ( 'NONE',  ( -0.8660254037844405950, 0.4330127018922170223, 0.2499999999999974465 ) ) ;
#401 = ORIENTED_EDGE ( 'NONE', *, *, #85, .T. ) ;
#402 = EDGE_CURVE ( 'NONE', #490, #258, #537, .T. ) ;
#403 = LINE ( 'NONE', #360, #498 ) ;
#404 = ORIENTED_EDGE ( 'NONE', *, *, #547, .T. ) ;
#405 = FACE_OUTER_BOUND ( 'NONE', #170, .T. ) ;
#406 = ORIENTED_EDGE ( 'NONE', *, *, #193, .F. ) ;
#407 = AXIS2_PLACEMENT_3D ( 'NONE', #11, #352, #397 ) ;
#408 = LINE ( 'NONE', #449, #389 ) ;
#409 = ORIENTED_EDGE ( 'NONE', *, *, #312, .F. ) ;
#410 = DIRECTION ( 'NONE',  ( 1.000000000000000000, 0.000000000000000000, -0.000000000000000000 ) ) ;
#411 = ORIENTED_EDGE ( 'NONE', *, *, #4, .T. ) ;
#412 = DIRECTION ( 'NONE',  ( 0.000000000000000000, 0.000000000000000000, 1.000000000000000000 ) ) ;
#413 = LINE ( 'NONE', #99, #229 ) ;
#414 = CARTESIAN_POINT ( 'NONE',  ( 0.000000000000000000, 10.00000000000000000, -5.000000000000000000 ) ) ;
#415 = AXIS2_PLACEMENT_3D ( 'NONE', #489, #227, #130 ) ;
#416 = CARTESIAN_POINT ( 'NONE',  ( 25.00000000000000000, 15.00000000000000000, -5.000000000000004441 ) ) ;
#417 = FACE_OUTER_BOUND ( 'NONE', #68, .T. ) ;
#418 = DIRECTION ( 'NONE',  ( -0.000000000000000000, -0.000000000000000000, -1.000000000000000000 ) ) ;
#419 = FACE_OUTER_BOUND ( 'NONE', #176, .T. ) ;
#420 = LINE ( 'NONE', #95, #428 ) ;
#421 = UNCERTAINTY_MEASURE_WITH_UNIT (LENGTH_MEASURE( 1.000000000000000082E-05 ), #558, 'distance_accuracy_value', 'NONE');
#422 = EDGE_CURVE ( 'NONE', #583, #157, #535, .T. ) ;
#423 = CARTESIAN_POINT ( 'NONE',  ( 50.00000000000000000, 142.0651539378846167, -97.49999999999992895 ) ) ;
#424 = AXIS2_PLACEMENT_3D ( 'NONE', #318, #368, #545 ) ;
#425 = LOCAL_TIME ( 18, 38, 5.000000000000000000, #158 ) ;
#426 = PLANE ( 'NONE',  #407 ) ;
#427 = CALENDAR_DATE ( 2026, 20, 9 ) ;
#428 = VECTOR ( 'NONE', #418, 1000.000000000000000 ) ;
#429 = DIRECTION ( 'NONE',  ( -1.000000000000000000, -0.000000000000000000, 0.000000000000000000 ) ) ;
#430 = ORIENTED_EDGE ( 'NONE', *, *, #594, .T. ) ;
#431 = PERSON_AND_ORGANIZATION_ROLE ( 'classification_officer' ) ;
#432 = EDGE_LOOP ( 'NONE', ( #64, #122, #457, #590, #546, #587, #572, #436 ) ) ;
#433 = CARTESIAN_POINT ( 'NONE',  ( 45.46410161513751547, -2.267949192431223171, -5.000000000000000000 ) ) ;
#434 = ORIENTED_EDGE ( 'NONE', *, *, #42, .F. ) ;
#435 = CIRCLE ( 'NONE', #223, 10.00000000000000000 ) ;
#436 = ORIENTED_EDGE ( 'NONE', *, *, #159, .T. ) ;
#437 = CARTESIAN_POINT ( 'NONE',  ( 40.00000000000000000, 142.0651539378845882, -97.49999999999994316 ) ) ;
#438 = ORIENTED_EDGE ( 'NONE', *, *, #72, .T. ) ;
#439 = PRODUCT ( 'Tripod', 'Tripod', '', ( #198 ) ) ;
#440 = EDGE_CURVE ( 'NONE', #31, #497, #154, .T. ) ;
#441 = PERSON_AND_ORGANIZATION_ROLE ( 'creator' ) ;
#442 = CARTESIAN_POINT ( 'NONE',  ( 0.000000000000000000, 137.0651539378845030, -88.83974596215561803 ) ) ;
#443 = CYLINDRICAL_SURFACE ( 'NONE', #103, 1.700000000000000178 ) ;
#444 = CARTESIAN_POINT ( 'NONE',  ( 50.00000000000000000, 77.11324865405185847, -4.999999999999999112 ) ) ;
#445 = ORIENTED_EDGE ( 'NONE', *, *, #451, .T. ) ;
#446 = PLANE ( 'NONE',  #88 ) ;
#447 = ORIENTED_EDGE ( 'NONE', *, *, #422, .T. ) ;
#448 = VECTOR ( 'NONE', #556, 1000.000000000000000 ) ;
#449 = CARTESIAN_POINT ( 'NONE',  ( 50.00000000000000000, 85.77350269189626886, -2.125036258071588691E-14 ) ) ;
#450 = ORIENTED_EDGE ( 'NONE', *, *, #402, .F. ) ;
#451 = EDGE_CURVE ( 'NONE', #398, #66, #403, .T. ) ;
#452 = LOCAL_TIME ( 18, 38, 5.000000000000000000, #249 ) ;
#453 = LINE ( 'NONE', #444, #354 ) ;
#454 = ORIENTED_EDGE ( 'NONE', *, *, #136, .F. ) ;
#455 = DIRECTION ( 'NONE',  ( 0.000000000000000000, -0.4999999999999981681, 0.8660254037844397068 ) ) ;
#456 = EDGE_CURVE ( 'NONE', #313, #258, #548, .T. ) ;
#457 = ORIENTED_EDGE ( 'NONE', *, *, #312, .T. ) ;
#458 = CLOSED_SHELL ( 'NONE', ( #315, #291, #584, #100, #460, #588, #305, #150, #560, #139, #218, #206, #320, #532, #119, #394, #12 ) ) ;
#459 = CARTESIAN_POINT ( 'NONE',  ( 0.000000000000000000, 88.66025403784435355, -4.999999999999997335 ) ) ;
#460 = ADVANCED_FACE ( 'NONE', ( #405 ), #132, .T. ) ;
#461 = CARTESIAN_POINT ( 'NONE',  ( 50.00000000000000000, 0.000000000000000000, 5.000000000000000000 ) ) ;
#462 = DIRECTION ( 'NONE',  ( 1.000000000000000000, 0.000000000000000000, -0.000000000000000000 ) ) ;
#463 = VECTOR ( 'NONE', #365, 1000.000000000000000 ) ;
#464 = DIRECTION ( 'NONE',  ( -0.4999999999999965028, -0.7500000000000022204, -0.4330127018922195203 ) ) ;
#465 = DIRECTION ( 'NONE',  ( -0.000000000000000000, 0.8660254037844397068, 0.4999999999999981681 ) ) ;
#466 = DIRECTION ( 'NONE',  ( 0.000000000000000000, 0.000000000000000000, 1.000000000000000000 ) ) ;
#467 = EDGE_CURVE ( 'NONE', #493, #299, #314, .T. ) ;
#468 = CARTESIAN_POINT ( 'NONE',  ( 40.00000000000000000, 10.00000000000000000, -5.000000000000000000 ) ) ;
#469 = MANIFOLD_SOLID_BREP ( 'Chamfer1', #458 ) ;
#470 = PLANE ( 'NONE',  #189 ) ;
#471 = VECTOR ( 'NONE', #117, 1000.000000000000000 ) ;
#472 = SECURITY_CLASSIFICATION_LEVEL ( 'unclassified' ) ;
#473 = DIRECTION ( 'NONE',  ( 0.4999999999999956146, -0.7500000000000032196, -0.4330127018922187987 ) ) ;
#474 = EDGE_CURVE ( 'NONE', #116, #91, #124, .T. ) ;
#475 = EDGE_LOOP ( 'NONE', ( #133, #500, #76, #324 ) ) ;
#476 = APPLICATION_CONTEXT ( 'configuration controlled 3d designs of mechanical parts and assemblies' ) ;
#477 = CIRCLE ( 'NONE', #219, 10.00000000000000178 ) ;
#478 = DIRECTION ( 'NONE',  ( 0.000000000000000000, -1.000000000000000000, 0.000000000000000000 ) ) ;
#479 = EDGE_CURVE ( 'NONE', #116, #263, #598, .T. ) ;
#480 = VERTEX_POINT ( 'NONE', #192 ) ;
#481 = DIRECTION ( 'NONE',  ( 0.000000000000000000, -1.000000000000000000, 0.000000000000000000 ) ) ;
#482 = AXIS2_PLACEMENT_3D ( 'NONE', #596, #183, #96 ) ;
#483 = CIRCLE ( 'NONE', #415, 1.700000000000000178 ) ;
#484 = DIRECTION ( 'NONE',  ( 1.000000000000000000, 0.000000000000000000, 0.000000000000000000 ) ) ;
#485 = DIRECTION ( 'NONE',  ( -0.000000000000000000, 0.8660254037844397068, 0.4999999999999981681 ) ) ;
#486 = ORIENTED_EDGE ( 'NONE', *, *, #456, .F. ) ;
#487 = CARTESIAN_POINT ( 'NONE',  ( 50.00000000000000000, 0.000000000000000000, -5.000000000000000000 ) ) ;
#488 = EDGE_LOOP ( 'NONE', ( #396, #50 ) ) ;
#489 = CARTESIAN_POINT ( 'NONE',  ( 25.00000000000000000, 15.00000000000000000, 5.000000000000000000 ) ) ;
#490 = VERTEX_POINT ( 'NONE', #459 ) ;
#491 = AXIS2_PLACEMENT_3D ( 'NONE', #29, #540, #494 ) ;
#492 = DIRECTION ( 'NONE',  ( 0.000000000000000000, 0.4999999999999981681, -0.8660254037844397068 ) ) ;
#493 = VERTEX_POINT ( 'NONE', #505 ) ;
#494 = DIRECTION ( 'NONE',  ( 1.000000000000000000, 0.000000000000000000, 0.000000000000000000 ) ) ;
#495 = ORIENTED_EDGE ( 'NONE', *, *, #35, .T. ) ;
#496 = LINE ( 'NONE', #216, #332 ) ;
#497 = VERTEX_POINT ( 'NONE', #137 ) ;
#498 = VECTOR ( 'NONE', #267, 1000.000000000000000 ) ;
#499 = DIRECTION ( 'NONE',  ( 0.000000000000000000, 0.8660254037844404840, 0.4999999999999970579 ) ) ;
#500 = ORIENTED_EDGE ( 'NONE', *, *, #451, .F. ) ;
#501 = EDGE_CURVE ( 'NONE', #293, #212, #235, .T. ) ;
#502 = CARTESIAN_POINT ( 'NONE',  ( 40.00000000000000000, 128.4048999000401068, -93.83974596215557540 ) ) ;
#503 = PLANE ( 'NONE',  #564 ) ;
#504 = VECTOR ( 'NONE', #289, 1000.000000000000000 ) ;
#505 = CARTESIAN_POINT ( 'NONE',  ( 0.000000000000000000, 10.00000000000000000, 5.000000000000000000 ) ) ;
#506 = CARTESIAN_POINT ( 'NONE',  ( 50.00000000000000000, 0.000000000000000000, 5.000000000000000000 ) ) ;
#507 = CARTESIAN_POINT ( 'NONE',  ( 0.000000000000000000, 77.11324865405187268, -5.000000000000000000 ) ) ;
#508 = CARTESIAN_POINT ( 'NONE',  ( 5.773502691896283068, 128.4048999000401068, -93.83974596215558961 ) ) ;
#509 = EDGE_CURVE ( 'NONE', #126, #398, #557, .T. ) ;
#510 =( NAMED_UNIT ( * ) SI_UNIT ( $, .STERADIAN. ) SOLID_ANGLE_UNIT ( ) );
#511 = FACE_OUTER_BOUND ( 'NONE', #592, .T. ) ;
#512 = EDGE_CURVE ( 'NONE', #157, #359, #378, .T. ) ;
#513 = DATE_AND_TIME ( #10, #80 ) ;
#514 = FACE_BOUND ( 'NONE', #488, .T. ) ;
#515 = CALENDAR_DATE ( 2026, 20, 9 ) ;
#516 = DIRECTION ( 'NONE',  ( -1.000000000000000000, 0.000000000000000000, 0.000000000000000000 ) ) ;
#517 = VECTOR ( 'NONE', #387, 1000.000000000000227 ) ;
#518 = ORIENTED_EDGE ( 'NONE', *, *, #272, .T. ) ;
#519 = DATE_AND_TIME ( #427, #425 ) ;
#520 = DIRECTION ( 'NONE',  ( -1.000000000000000000, 0.000000000000000000, 0.000000000000000000 ) ) ;
#521 = VERTEX_POINT ( 'NONE', #382 ) ;
#522 = APPROVAL_DATE_TIME ( #519, #163 ) ;
#523 = VECTOR ( 'NONE', #473, 999.9999999999998863 ) ;
#524 = PRODUCT_RELATED_PRODUCT_CATEGORY ( 'detail', '', ( #439 ) ) ;
#525 = FACE_OUTER_BOUND ( 'NONE', #16, .T. ) ;
#526 = ORIENTED_EDGE ( 'NONE', *, *, #136, .T. ) ;
#527 = DATE_AND_TIME ( #347, #452 ) ;
#528 = LINE ( 'NONE', #199, #296 ) ;
#529 = AXIS2_PLACEMENT_3D ( 'NONE', #112, #306, #257 ) ;
#530 = ORIENTED_EDGE ( 'NONE', *, *, #147, .T. ) ;
#531 = VECTOR ( 'NONE', #1, 1000.000000000000000 ) ;
#532 = ADVANCED_FACE ( 'NONE', ( #417 ), #20, .T. ) ;
#533 = CYLINDRICAL_SURFACE ( 'NONE', #274, 1.700000000000000178 ) ;
#534 = ORIENTED_EDGE ( 'NONE', *, *, #377, .T. ) ;
#535 = LINE ( 'NONE', #81, #463 ) ;
#536 = ORIENTED_EDGE ( 'NONE', *, *, #366, .T. ) ;
#537 = LINE ( 'NONE', #39, #70 ) ;
#538 = ORIENTED_EDGE ( 'NONE', *, *, #4, .F. ) ;
#539 = VECTOR ( 'NONE', #555, 1000.000000000000227 ) ;
#540 = DIRECTION ( 'NONE',  ( 0.000000000000000000, 0.000000000000000000, 1.000000000000000000 ) ) ;
#541 = EDGE_CURVE ( 'NONE', #359, #293, #90, .T. ) ;
#542 = ORIENTED_EDGE ( 'NONE', *, *, #72, .F. ) ;
#543 = DIRECTION ( 'NONE',  ( 0.000000000000000000, 0.8660254037844404840, 0.4999999999999968359 ) ) ;
#544 = VERTEX_POINT ( 'NONE', #414 ) ;
#545 = DIRECTION ( 'NONE',  ( 0.000000000000000000, 5.551115123125782702E-15, 1.000000000000000000 ) ) ;
#546 = ORIENTED_EDGE ( 'NONE', *, *, #349, .F. ) ;
#547 = EDGE_CURVE ( 'NONE', #263, #228, #375, .T. ) ;
#548 = CIRCLE ( 'NONE', #201, 10.00000000000000000 ) ;
#549 = AXIS2_PLACEMENT_3D ( 'NONE', #288, #254, #484 ) ;
#550 = PLANE ( 'NONE',  #399 ) ;
#551 = CARTESIAN_POINT ( 'NONE',  ( 50.00000000000000000, 77.11324865405187268, 5.000000000000000000 ) ) ;
#552 = PRODUCT_DEFINITION ( 'UNKNOWN', '', #355, #149 ) ;
#553 = DIRECTION ( 'NONE',  ( 0.000000000000000000, 0.000000000000000000, -1.000000000000000000 ) ) ;
#554 = LINE ( 'NONE', #285, #504 ) ;
#555 = DIRECTION ( 'NONE',  ( 0.4472135954999550966, 0.8944271909999172987, -0.000000000000000000 ) ) ;
#556 = DIRECTION ( 'NONE',  ( 0.000000000000000000, 0.4999999999999981126, -0.8660254037844397068 ) ) ;
#557 = CIRCLE ( 'NONE', #175, 4.226497308103716932 ) ;
#558 =( LENGTH_UNIT ( ) NAMED_UNIT ( * ) SI_UNIT ( .MILLI., .METRE. ) );
#559 = APPROVAL_PERSON_ORGANIZATION ( #351, #204, #384 ) ;
#560 = ADVANCED_FACE ( 'NONE', ( #419 ), #238, .T. ) ;
#561 = FACE_OUTER_BOUND ( 'NONE', #129, .T. ) ;
#562 = DIRECTION ( 'NONE',  ( 1.000000000000000000, 0.000000000000000000, 0.000000000000000000 ) ) ;
#563 = DIRECTION ( 'NONE',  ( 1.000000000000000000, 0.000000000000000000, 0.000000000000000000 ) ) ;
#564 = AXIS2_PLACEMENT_3D ( 'NONE', #188, #600, #383 ) ;
#565 = CALENDAR_DATE ( 2026, 20, 9 ) ;
#566 = CARTESIAN_POINT ( 'NONE',  ( 50.00000000000000000, 77.11324865405187268, -5.000000000000000000 ) ) ;
#567 = EDGE_LOOP ( 'NONE', ( #215, #84, #87, #165 ) ) ;
#568 = EDGE_CURVE ( 'NONE', #268, #544, #435, .T. ) ;
#569 = ORIENTED_EDGE ( 'NONE', *, *, #512, .F. ) ;
#570 = CARTESIAN_POINT ( 'NONE',  ( 0.000000000000000000, 85.77350269189626886, -2.038300084272748336E-14 ) ) ;
#571 = AXIS2_PLACEMENT_3D ( 'NONE', #321, #465, #278 ) ;
#572 = ORIENTED_EDGE ( 'NONE', *, *, #594, .F. ) ;
#573 = PERSON_AND_ORGANIZATION_ROLE ( 'design_supplier' ) ;
#574 = CARTESIAN_POINT ( 'NONE',  ( 40.00000000000000000, 0.000000000000000000, 5.000000000000000000 ) ) ;
#575 = CARTESIAN_POINT ( 'NONE',  ( 0.000000000000000000, 77.11324865405187268, 5.000000000000000000 ) ) ;
#576 = EDGE_CURVE ( 'NONE', #299, #256, #300, .T. ) ;
#577 = ORIENTED_EDGE ( 'NONE', *, *, #467, .T. ) ;
#578 = CARTESIAN_POINT ( 'NONE',  ( 50.00000000000000000, 10.00000000000000000, 5.000000000000000000 ) ) ;
#579 = CC_DESIGN_PERSON_AND_ORGANIZATION_ASSIGNMENT ( #101, #441, ( #355 ) ) ;
#580 = CIRCLE ( 'NONE', #322, 4.226497308103716932 ) ;
#581 = ORIENTED_EDGE ( 'NONE', *, *, #231, .T. ) ;
#582 = CARTESIAN_POINT ( 'NONE',  ( 40.00000000000000000, 128.4048999000401068, -93.83974596215557540 ) ) ;
#583 = VERTEX_POINT ( 'NONE', #276 ) ;
#584 = ADVANCED_FACE ( 'NONE', ( #284 ), #143, .T. ) ;
#585 = DIRECTION ( 'NONE',  ( -0.000000000000000000, 0.8660254037844397068, 0.4999999999999981681 ) ) ;
#586 = CIRCLE ( 'NONE', #327, 10.00000000000000000 ) ;
#587 = ORIENTED_EDGE ( 'NONE', *, *, #512, .T. ) ;
#588 = ADVANCED_FACE ( 'NONE', ( #371, #140 ), #550, .F. ) ;
#589 = DIRECTION ( 'NONE',  ( 0.000000000000000000, -0.4999999999999985567, 0.8660254037844394848 ) ) ;
#590 = ORIENTED_EDGE ( 'NONE', *, *, #247, .T. ) ;
#591 = CARTESIAN_POINT ( 'NONE',  ( 10.00000000000000178, 142.0651539378845030, -97.50000000000000000 ) ) ;
#592 = EDGE_LOOP ( 'NONE', ( #225, #252, #34, #44 ) ) ;
#593 = CARTESIAN_POINT ( 'NONE',  ( 50.00000000000000000, 88.66025403784435355, -4.999999999999997335 ) ) ;
#594 = EDGE_CURVE ( 'NONE', #480, #359, #187, .T. ) ;
#595 = ORIENTED_EDGE ( 'NONE', *, *, #541, .F. ) ;
#596 = CARTESIAN_POINT ( 'NONE',  ( 10.00000000000000000, 10.00000000000000000, 0.000000000000000000 ) ) ;
#597 = CARTESIAN_POINT ( 'NONE',  ( 50.00000000000000000, 0.000000000000000000, -5.000000000000000000 ) ) ;
#598 = CIRCLE ( 'NONE', #491, 1.700000000000000178 ) ;
#599 = CARTESIAN_POINT ( 'NONE',  ( 14.53589838486235664, 17.73205080756868313, -5.000000000000000000 ) ) ;
#600 = DIRECTION ( 'NONE',  ( -0.8660254037844405950, -0.4330127018922170223, -0.2499999999999974465 ) ) ;
ENDSEC;
END-ISO-10303-21;
